<svg xmlns="http://www.w3.org/2000/svg" width="153.899" height="32.822" viewBox="0 0 153.899 32.822"><path d="M114.989,12.659V32.352H111.57V16.9h-.046l-6.109,15.454h-2.279L96.891,16.9h-.046V32.352H93.7V12.659h4.923l5.653,14.588h.091l5.972-14.588h4.65Zm2.826,1.5a1.734,1.734,0,0,1,.593-1.368,2.038,2.038,0,0,1,1.413-.547,2,2,0,0,1,1.459.547,1.9,1.9,0,0,1,.593,1.368,1.734,1.734,0,0,1-.593,1.368,2.071,2.071,0,0,1-1.459.547,1.889,1.889,0,0,1-1.413-.547A2.064,2.064,0,0,1,117.815,14.163Zm3.692,4.057V32.352H118.18V18.22h3.328Zm10.075,11.716a3.841,3.841,0,0,0,1.641-.365,7.2,7.2,0,0,0,1.641-.912v3.1a5.817,5.817,0,0,1-1.823.684,11.218,11.218,0,0,1-2.234.228,6.7,6.7,0,0,1-5.06-1.96,6.8,6.8,0,0,1-1.96-5.014,8.044,8.044,0,0,1,2.006-5.607,7.217,7.217,0,0,1,5.653-2.188,8.39,8.39,0,0,1,1.869.228,6.212,6.212,0,0,1,1.5.547v3.191a6.623,6.623,0,0,0-1.55-.866,5.238,5.238,0,0,0-1.641-.319,4.158,4.158,0,0,0-3.191,1.276,4.782,4.782,0,0,0-1.185,3.465,4.561,4.561,0,0,0,1.185,3.328A4.264,4.264,0,0,0,131.582,29.936ZM144.3,17.992a3.685,3.685,0,0,1,.729.046,4.73,4.73,0,0,1,.547.137v3.373a2.046,2.046,0,0,0-.775-.365A4.677,4.677,0,0,0,143.571,21a2.549,2.549,0,0,0-2.051,1.048,5.034,5.034,0,0,0-.866,3.191v7.111h-3.328V18.22h3.328v2.234h.046a4.294,4.294,0,0,1,1.368-1.823A4.017,4.017,0,0,1,144.3,17.992Zm1.459,7.522a7.875,7.875,0,0,1,1.96-5.562,7.253,7.253,0,0,1,5.47-2.051,6.7,6.7,0,0,1,5.151,1.96,7.527,7.527,0,0,1,1.869,5.334,7.72,7.72,0,0,1-1.96,5.47,7.11,7.11,0,0,1-5.379,2.051,7.022,7.022,0,0,1-5.2-1.915A7.316,7.316,0,0,1,145.759,25.514Zm3.465-.137a4.971,4.971,0,0,0,1,3.373,3.644,3.644,0,0,0,2.872,1.185,3.318,3.318,0,0,0,2.781-1.185,5.324,5.324,0,0,0,.957-3.465,5.5,5.5,0,0,0-.957-3.465,3.8,3.8,0,0,0-5.562.046A4.994,4.994,0,0,0,149.224,25.377Zm15.955-3.419a1.447,1.447,0,0,0,.456,1.14,7.8,7.8,0,0,0,2.006,1,6.951,6.951,0,0,1,2.781,1.778,3.693,3.693,0,0,1,.821,2.416,3.827,3.827,0,0,1-1.55,3.191,6.416,6.416,0,0,1-4.148,1.185,10.8,10.8,0,0,1-1.96-.228,7.889,7.889,0,0,1-1.823-.547V28.614a7.965,7.965,0,0,0,1.96,1,6.145,6.145,0,0,0,1.915.365,3.064,3.064,0,0,0,1.641-.319,1.119,1.119,0,0,0,.547-1.048,1.6,1.6,0,0,0-.547-1.185,8.418,8.418,0,0,0-2.1-1.094,6.27,6.27,0,0,1-2.6-1.732A4.143,4.143,0,0,1,163.31,19a6.022,6.022,0,0,1,3.92-1.231,7.229,7.229,0,0,1,1.641.182c.593.137,1.14.274,1.55.41v3.237a9.82,9.82,0,0,0-1.55-.775,4.824,4.824,0,0,0-1.732-.319,2.542,2.542,0,0,0-1.459.365A1.456,1.456,0,0,0,165.179,21.958Zm7.476,3.556a7.875,7.875,0,0,1,1.96-5.562,7.253,7.253,0,0,1,5.47-2.051,6.7,6.7,0,0,1,5.151,1.96,7.527,7.527,0,0,1,1.869,5.334,7.72,7.72,0,0,1-1.96,5.47,7.11,7.11,0,0,1-5.379,2.051,7.022,7.022,0,0,1-5.2-1.915A7.514,7.514,0,0,1,172.655,25.514Zm3.465-.137a4.971,4.971,0,0,0,1,3.373,3.644,3.644,0,0,0,2.872,1.185,3.318,3.318,0,0,0,2.781-1.185,5.324,5.324,0,0,0,.957-3.465,5.5,5.5,0,0,0-.957-3.465,3.8,3.8,0,0,0-5.562.046A5.22,5.22,0,0,0,176.12,25.377Zm22.064-4.422h-4.969v11.4h-3.373v-11.4h-2.37V18.22h2.37V16.26a4.916,4.916,0,0,1,5.151-5.06c.41,0,.775.046,1.094.046a2.178,2.178,0,0,1,.821.182V14.3a5.589,5.589,0,0,0-.593-.228,3.031,3.031,0,0,0-.957-.137,2.057,2.057,0,0,0-1.6.638,2.906,2.906,0,0,0-.547,1.915v1.687h4.969V14.984l3.328-1v4.194h3.373V20.91h-3.373v6.61a3.034,3.034,0,0,0,.456,1.823,1.9,1.9,0,0,0,1.5.547,2.25,2.25,0,0,0,.684-.137,2.382,2.382,0,0,0,.684-.319V32.17a3.179,3.179,0,0,1-1.048.319,7.9,7.9,0,0,1-1.459.137,4.118,4.118,0,0,1-3.145-1.094,4.819,4.819,0,0,1-1.048-3.373l.046-7.2Z" transform="translate(-50.986 -6.094)" fill="#787da7"/><rect width="15.59" height="15.59" fill="#787da7"/><rect width="15.59" height="15.59" transform="translate(17.232)" fill="#787da7"/><rect width="15.59" height="15.59" transform="translate(0 17.232)" fill="#787da7"/><rect width="15.59" height="15.59" transform="translate(17.232 17.232)" fill="#787da7"/></svg>