<svg xmlns="http://www.w3.org/2000/svg" width="163.59" height="34.559" viewBox="0 0 163.59 34.559"><g transform="translate(0)"><g transform="translate(0 0)"><path d="M12.919,59.1h9.763l-1.51,5.788a3.655,3.655,0,0,1-1.3,1.944,3.5,3.5,0,0,1-2.2.734H13.135a4.4,4.4,0,0,0-2.736.907,4.752,4.752,0,0,0-1.663,2.462,4.6,4.6,0,0,0-.065,2.2,4.766,4.766,0,0,0,.837,1.836,4.362,4.362,0,0,0,1.555,1.274,4.57,4.57,0,0,0,2.073.475H15.9a1.555,1.555,0,0,1,1.274.626,1.5,1.5,0,0,1,.288,1.4l-1.728,6.393H12.711a12.206,12.206,0,0,1-5.724-1.361,12.928,12.928,0,0,1-4.35-3.607A12.729,12.729,0,0,1,.284,75.068a12.6,12.6,0,0,1,.153-5.9l.173-.648a12.771,12.771,0,0,1,4.556-6.8,12.946,12.946,0,0,1,3.6-1.922A12.527,12.527,0,0,1,12.919,59.1Z" transform="translate(-0.005 -50.589)" fill="#787da7"/><path d="M123.89,34.554,132.4,2.675A3.655,3.655,0,0,1,133.7.731,3.5,3.5,0,0,1,135.9,0h9.03a12.206,12.206,0,0,1,5.724,1.361,12.845,12.845,0,0,1,6.717,8.726,12.067,12.067,0,0,1-.173,5.9l-.173.648a12.942,12.942,0,0,1-1.728,3.823,12.621,12.621,0,0,1-10.54,5.637h-7.819l1.555-5.832a3.654,3.654,0,0,1,1.3-1.9,3.5,3.5,0,0,1,2.2-.734H144.5a4.544,4.544,0,0,0,4.406-3.413,4.232,4.232,0,0,0,.058-2.124,4.766,4.766,0,0,0-.842-1.836,4.573,4.573,0,0,0-1.555-1.3,4.408,4.408,0,0,0-2.066-.5h-4.838l-6.307,23.456a3.655,3.655,0,0,1-1.3,1.9,3.439,3.439,0,0,1-2.16.734Z" transform="translate(-106.052 0.004)" fill="#787da7"/><path d="M368.048,67.741l.13-.475a.635.635,0,0,0-.108-.576.66.66,0,0,0-.54-.238H353.49a3.456,3.456,0,0,1-1.642-.389,3.592,3.592,0,0,1-1.21-1.008,3.542,3.542,0,0,1-.648-1.44,3.672,3.672,0,0,1,.043-1.685l.864-3.283h19.007a6.824,6.824,0,0,1,3.24.778,7.477,7.477,0,0,1,2.448,2.03,7.249,7.249,0,0,1,1.339,2.88,7.169,7.169,0,0,1-.065,3.348l-3.413,12.7a5.849,5.849,0,0,1-5.7,4.363L353.713,84.7a7.428,7.428,0,0,1-5.968-2.945,7.833,7.833,0,0,1-1.382-3.024,7.125,7.125,0,0,1,.086-3.477l.173-.648a6.851,6.851,0,0,1,1.015-2.246,7.776,7.776,0,0,1,1.663-1.771,7.5,7.5,0,0,1,2.117-1.145,7.363,7.363,0,0,1,2.462-.41h11.793l-.864,3.24a3.67,3.67,0,0,1-1.3,1.9,3.444,3.444,0,0,1-2.16.734h-5.27a.914.914,0,0,0-.95.734.883.883,0,0,0,.173.842.958.958,0,0,0,.778.367h8.51a1.335,1.335,0,0,0,.821-.259,1.117,1.117,0,0,0,.432-.691l.086-.346Z" transform="translate(-296.341 -50.202)" fill="#787da7"/><path d="M564.047,59.1a12.3,12.3,0,0,1,5.76,1.361,12.933,12.933,0,0,1,4.343,3.6A12.728,12.728,0,0,1,576.5,69.2a12.351,12.351,0,0,1-.193,5.918l-2.16,8.121a2.38,2.38,0,0,1-.929,1.382,2.623,2.623,0,0,1-1.584.518h-4.651a1.584,1.584,0,0,1-1.557-2.03l2.592-9.806a4.232,4.232,0,0,0,.065-2.117,4.786,4.786,0,0,0-.841-1.836,4.608,4.608,0,0,0-1.555-1.3,4.416,4.416,0,0,0-2.073-.5h-4.838l-4.193,15.688a2.362,2.362,0,0,1-.929,1.382,2.686,2.686,0,0,1-1.62.518h-4.622a1.552,1.552,0,0,1-1.273-.626,1.5,1.5,0,0,1-.288-1.4L552.247,59.1Z" transform="translate(-467.201 -50.585)" fill="#787da7"/><path d="M778.821,67.284a2.209,2.209,0,0,0-.734,1.058l-1.944,7.344a1.3,1.3,0,0,0,1.253,1.642h17.884l-1.38,5.14a3.654,3.654,0,0,1-1.3,1.9,3.438,3.438,0,0,1-2.16.734H774.156a6.973,6.973,0,0,1-3.24-.756,7.125,7.125,0,0,1-2.448-2.03,7.411,7.411,0,0,1-1.339-2.894,6.624,6.624,0,0,1,.108-3.312l2.635-9.806a9.818,9.818,0,0,1,6.235-6.717,9.491,9.491,0,0,1,3.175-.54h11.534a6.817,6.817,0,0,1,3.24.778,7.463,7.463,0,0,1,2.448,2.03,7.005,7.005,0,0,1,1.318,2.894,7.226,7.226,0,0,1-.086,3.326l-.777,2.937a5.623,5.623,0,0,1-2.088,3.146,5.771,5.771,0,0,1-3.561,1.181H778.262l.864-3.2a3.424,3.424,0,0,1,1.253-1.9,3.5,3.5,0,0,1,2.2-.734h5.27a.915.915,0,0,0,.95-.734l.173-.648a1,1,0,0,0-.95-1.253H779.99A1.83,1.83,0,0,0,778.821,67.284Z" transform="translate(-656.533 -50.544)" fill="#787da7"/><path d="M963.28,34.554,971.963,1.94a2.457,2.457,0,0,1,.924-1.4A2.612,2.612,0,0,1,974.511,0h4.622a1.6,1.6,0,0,1,1.318.626,1.5,1.5,0,0,1,.288,1.4l-6.48,24.061a10.731,10.731,0,0,1-1.534,3.456A11.325,11.325,0,0,1,970.22,32.2,11.755,11.755,0,0,1,967,33.927,11.066,11.066,0,0,1,963.28,34.554Z" transform="translate(-824.577 0.005)" fill="#787da7"/><path d="M1094.83,3.392a2.975,2.975,0,0,1,4.455-2.577,2.9,2.9,0,0,1,1.091,1.087,2.976,2.976,0,1,1-5.168,2.953,2.931,2.931,0,0,1-.379-1.463Zm.415,0a2.558,2.558,0,0,0,4.77,1.284,2.479,2.479,0,0,0,.346-1.283,2.475,2.475,0,0,0-.344-1.276,2.576,2.576,0,0,0-.93-.936,2.563,2.563,0,0,0-3.495.93,2.47,2.47,0,0,0-.347,1.28Zm3.764-.72a.955.955,0,0,1-.168.559.977.977,0,0,1-.472.361l.942,1.562h-.664l-.819-1.4h-.533v1.4h-.586V1.634h1.027a1.492,1.492,0,0,1,.962.256.963.963,0,0,1,.312.783Zm-1.715.6h.432a.755.755,0,0,0,.508-.164.523.523,0,0,0,.192-.416.5.5,0,0,0-.17-.425.892.892,0,0,0-.537-.13h-.419Z" transform="translate(-937.184 -0.359)" fill="#787da7"/></g></g></svg>