<svg xmlns="http://www.w3.org/2000/svg" width="151.211" height="40.74" viewBox="0 0 151.211 40.74"><g transform="translate(0 0)"><path d="M100.9,50.541l-9.208-9.209a.2.2,0,0,0-.144-.059h-.012a.2.2,0,0,0-.148.077l-3.925,4.98a.2.2,0,0,0,.016.27l4.228,4.229a.8.8,0,0,1,.235.57.784.784,0,0,1-.234.561l-1.222,1.222a.2.2,0,0,0-.025.257c.3.456.8,1.206.85,1.289a1.3,1.3,0,0,1-.247,1.432l-9.619,7.388a.2.2,0,0,0-.08.162c0,.82,0,1.927,0,3.042s0,2.257,0,3.109c0,.426,0,.78,0,1.029v.289c0,.142,0,.228.113.283a.2.2,0,0,0,.091.023c.084,0,.118-.034.2-.114l.161-.161c.141-.14.347-.346.61-.609l2.174-2.173,6.6-6.593,9.592-9.589A1.217,1.217,0,0,0,100.9,50.541Z" transform="translate(-68.811 -30.745)" fill="#787da7"/><path d="M76.061,20.267l0,0a.044.044,0,0,0-.006-.007l-.005-.007a.2.2,0,0,0-.147-.073H75.89a.206.206,0,0,0-.144.06L56.562,39.421a1.2,1.2,0,0,0,0,1.705l9.205,9.207a.206.206,0,0,0,.145.059h.012a.2.2,0,0,0,.148-.077L70,45.334a.2.2,0,0,0-.016-.269l-4.232-4.229a.8.8,0,0,1,0-1.127l1.225-1.227a.2.2,0,0,0,.023-.26l-.836-1.2a1.117,1.117,0,0,1,.233-1.515l9.623-7.384a.2.2,0,0,0,.08-.162l0-7.57A.206.206,0,0,0,76.061,20.267Z" transform="translate(-56.208 -20.175)" fill="#787da7"/><path d="M84.724,61.042l-10.656-6.92,4.706,6.767a.546.546,0,0,1-.02.569l-8.431,10.7c-.149.194-.273.4-.168.621a.43.43,0,0,0,.328.216.77.77,0,0,0,.469-.208L84.5,62.383A1.169,1.169,0,0,0,84.724,61.042Z" transform="translate(-63.176 -37.183)" fill="#787da7"/><path d="M92.421,30.279a.4.4,0,0,0-.352-.219.737.737,0,0,0-.445.2L78.07,40.67a1.03,1.03,0,0,0-.217,1.4l10.656,6.92c-.155-.227-4.663-6.761-4.708-6.827a.543.543,0,0,1,.017-.567l8.43-10.7.006-.006C92.392,30.707,92.53,30.5,92.421,30.279Z" transform="translate(-66.962 -25.128)" fill="#787da7"/></g><path d="M142.071,42.818V59.035a.3.3,0,0,0,.269.3,18.444,18.444,0,0,0,2.8,0c.815-.064,1.808-.18,3.033-.358a4.556,4.556,0,0,0-.066.8,6.117,6.117,0,0,0,.073.869h-9.652V42.822c.184.015.421.045.715.084a2.972,2.972,0,0,0,1.13.006l.868,0C141.572,42.863,141.846,42.832,142.071,42.818Zm11.57.887a2.848,2.848,0,0,1-1.106,0h-.868c-.307-.041-.541-.069-.718-.086V60.646h3.359V43.619C154.117,43.634,153.9,43.662,153.641,43.705Zm3.327-.1a5.412,5.412,0,0,1,.049.718,6.909,6.909,0,0,1-.044.82h.561a32.91,32.91,0,0,1,3.948-.3.3.3,0,0,1,.3.294v15.51h3.259V45.136a.3.3,0,0,1,.3-.294c.744,0,1.81.069,3.17.2a10.091,10.091,0,0,0,1.09.095,2.772,2.772,0,0,1,0-.806,1.973,1.973,0,0,1,.008-.726Zm15.308,0V60.646h9.2a5.83,5.83,0,0,1-.069-.819,4.7,4.7,0,0,1,.057-.74c-.626.095-1.324.172-2.072.223-.871.07-2.07.1-3.567.1a.3.3,0,0,1-.294-.3V52.531a.3.3,0,0,1,.294-.295h2.463c.821.048,1.48.1,2.141.144l.488.034c-.013-.066-.03-.139-.048-.217l-.01-1.187a.277.277,0,0,1,.016-.094c.007-.023.013-.046.021-.069a20.382,20.382,0,0,1-2.609.153H175.83a.3.3,0,0,1-.294-.295V45.136a.3.3,0,0,1,.294-.294,47.727,47.727,0,0,1,5.675.352,3.462,3.462,0,0,1-.092-.767,3.5,3.5,0,0,1,.093-.82Zm23.064,11.8c-.071-2.107-1.69-3.976-4.819-5.541-2.32-1.195-3.445-2.357-3.445-3.545,0-1.92,1.123-2.973,3.252-3.05a3.592,3.592,0,0,1,3.315,2.308c.078-.27.188-.614.331-1.048.174-.459.322-.844.447-1.163a8.4,8.4,0,0,0-3.988-1.1c-3.862.205-5.809,1.983-5.943,5.437,0,2.327,1.475,4.2,4.384,5.548,2.433,1.1,3.665,2.371,3.665,3.76-.154,1.952-1.318,2.974-3.46,3.052a3.807,3.807,0,0,1-3.95-2.967h-.036a19.634,19.634,0,0,1-.643,3.024,12.986,12.986,0,0,0,3.982.833C192.707,60.963,195.067,58.939,195.341,55.412Zm5.629-2.453a.285.285,0,0,0-.187.077.294.294,0,0,0-.086.2v7.407h-3.382V43.6h6.094c3.488,0,5.218,1.334,5.282,4.074a4.72,4.72,0,0,1-1.217,3.526c-1.147,1.168-3.153,1.76-5.963,1.76C201.338,52.965,201.164,52.961,200.97,52.959Zm-.031-.859a2.887,2.887,0,0,0,.412.03,5.082,5.082,0,0,0,1.425-.239c1.534-.44,2.386-1.689,2.53-3.729-.144-2.3-1.049-3.583-2.71-3.805h-1.617a.284.284,0,0,0-.283.282v7.183A.281.281,0,0,0,200.939,52.1Zm21.283-8.5V60.646h9.221a5.951,5.951,0,0,1-.068-.832,4.41,4.41,0,0,1,.06-.754c-.634.1-1.337.176-2.088.228-.879.068-2.042.1-3.56.1a.283.283,0,0,1-.284-.281V52.53a.282.282,0,0,1,.284-.281h2.73c1.029.062,1.959.12,2.816.179-.015-.07-.031-.149-.052-.235l-.01-1.18a.261.261,0,0,1,.014-.09c.01-.03.019-.059.03-.087a23.9,23.9,0,0,1-2.8.154h-2.731a.282.282,0,0,1-.283-.281V45.144a.281.281,0,0,1,.283-.281,47.635,47.635,0,0,1,5.682.355,3.421,3.421,0,0,1,0-1.613Zm17.2,17.042h-5.614V43.6l7.222,0c4.868.332,7.365,2.954,7.63,8C248.335,57.275,245.225,60.319,239.424,60.646Zm5.451-9.028c0-4.684-2.105-7.061-6.251-7.061h-1.252a.283.283,0,0,0-.281.282V59.412a.284.284,0,0,0,.281.281h1.106a5.772,5.772,0,0,0,4.809-2.054C244.339,56.294,244.875,54.27,244.875,51.618Zm-34.3-8.014V60.646H219.8a6.114,6.114,0,0,1-.069-.832,4.458,4.458,0,0,1,.06-.754c-.635.1-1.337.176-2.086.228-.878.068-2.043.1-3.563.1a.282.282,0,0,1-.281-.281V52.53a.282.282,0,0,1,.281-.281h2.733c1.027.062,1.959.12,2.816.179-.015-.07-.033-.149-.053-.235l-.009-1.18a.249.249,0,0,1,.014-.09c.009-.03.018-.059.026-.087a23.808,23.808,0,0,1-2.794.154h-2.734a.283.283,0,0,1-.281-.281V45.144a.282.282,0,0,1,.281-.281,47.666,47.666,0,0,1,5.683.355,3.439,3.439,0,0,1,0-1.613Z" transform="translate(-97.452 -31.248)" fill="#787da7"/></svg>