<svg xmlns="http://www.w3.org/2000/svg" width="207.829" height="47.238" viewBox="0 0 207.829 47.238"><g transform="translate(51.856 6.696)"><path d="M113.9,69.714h.683l1.367,5.922L118,69.714h.456l2.1,5.831,1.458-5.831h.638l-1.685,6.742h-.683l-2.05-5.785-2,5.785h-.729Zm14.03,2.915H132.3c0-1.549-.729-2.369-2.05-2.369a2.145,2.145,0,0,0-2.323,2.369m2.323-2.915c1.777,0,2.688,1,2.688,3.007v.456h-4.965a2.356,2.356,0,0,0,2.688,2.642,6.357,6.357,0,0,0,1.959-.273v.592a6.566,6.566,0,0,1-1.959.273c-2.187,0-3.416-1.139-3.416-3.508.046-2.141,1.048-3.189,3.006-3.189m8.518,6.013a14.677,14.677,0,0,0,1.777.182c1.685,0,2.505-.957,2.505-2.915,0-1.685-.774-2.505-2.323-2.505a6.544,6.544,0,0,0-2,.319Zm-.638-8.382h.683v2.779a9.057,9.057,0,0,1,2-.273c1.959,0,2.915,1.048,2.915,3.28,0,2.323-1,3.553-3.052,3.553a14.217,14.217,0,0,1-2.505-.228Zm22.184,8.928a10.6,10.6,0,0,1-1.731.182c-2.187,0-3.371-1.184-3.371-3.553,0-2.141,1.048-3.28,3.371-3.28a6.963,6.963,0,0,1,1.731.182V70.4a11.266,11.266,0,0,0-1.64-.182,2.356,2.356,0,0,0-2.642,2.688c0,1.959.865,2.915,2.642,2.915a6.957,6.957,0,0,0,1.64-.182ZM168.062,76c1.594,0,2.369-.957,2.369-2.87s-.774-2.824-2.369-2.824-2.369.911-2.369,2.824c0,1.868.82,2.87,2.369,2.87m-3.007-2.87c0-2.232,1-3.508,3.007-3.508s3.007,1.139,3.007,3.508c0,2.232-1,3.508-3.007,3.508-2-.137-3.007-1.23-3.007-3.508M176.4,76.456V69.714h.456l.091.866a4.127,4.127,0,0,1,2.414-.866c1.594,0,2.369.729,2.369,2.1v4.646h-.683V71.81c0-.957-.592-1.5-1.731-1.5a3.782,3.782,0,0,0-2.323.866V76.5h-.638Zm10.8-7.79h.456l.091,1.048H189.7v.592h-1.913v4.328c0,.866.273,1.321.911,1.321h.957v.592h-.911c-1.048,0-1.594-.638-1.594-1.777Zm7.471,7.79V69.714h.5l.091,1.139a3.049,3.049,0,0,1,2.141-1.139v.547a2.521,2.521,0,0,0-2.05,1.184V76.5Zm10.2-.456c1.594,0,2.369-.957,2.369-2.87s-.774-2.824-2.369-2.824-2.369.911-2.369,2.824c-.046,1.868.729,2.87,2.369,2.87m-3.1-2.87c0-2.232,1-3.508,3.006-3.508s3.007,1.139,3.007,3.508c0,2.232-1,3.508-3.007,3.508-1.913-.137-3.006-1.23-3.006-3.508M213.8,76.456h-.683V67.3h.683Zm12.937-.957a5.646,5.646,0,0,0,1.777.319c1.685,0,2.505-.957,2.505-2.87a2.268,2.268,0,0,0-2.505-2.6,11.667,11.667,0,0,0-1.777.137Zm-.638-5.557a10.507,10.507,0,0,1,2.46-.228c2.1,0,3.1,1.048,3.1,3.143,0,2.369-1,3.6-3.1,3.6a6.494,6.494,0,0,1-1.777-.273v2.779H226.1Zm13.074,3.189q-1.913,0-1.913,1.367c0,.866.547,1.321,1.594,1.321a3.685,3.685,0,0,0,2.232-.683V73.267a15.672,15.672,0,0,0-1.913-.137m-2.6,1.458c0-1.321.866-2,2.6-2,.638,0,1.23.046,1.959.091v-.82c0-1-.638-1.549-1.868-1.549a7.766,7.766,0,0,0-2.1.273v-.638a8.544,8.544,0,0,1,2.1-.273c1.685,0,2.505.729,2.505,2.1v4.646h-.41l-.137-.683a4.4,4.4,0,0,1-2.369.683c-1.549.046-2.278-.547-2.278-1.822m10.659,1.868V69.714h.456l.091.866a4.127,4.127,0,0,1,2.414-.866c1.594,0,2.369.729,2.369,2.1v4.646h-.683V71.81c0-.957-.592-1.5-1.731-1.5a3.782,3.782,0,0,0-2.323.866V76.5Zm11.206-3.826h4.373c-.046-1.549-.729-2.369-2.05-2.369a2.167,2.167,0,0,0-2.323,2.369m2.323-2.915c1.777,0,2.688,1,2.688,3.007v.456h-4.965a2.374,2.374,0,0,0,2.688,2.642,6.357,6.357,0,0,0,1.959-.273v.592a6.567,6.567,0,0,1-1.959.273c-2.187,0-3.416-1.139-3.416-3.508.046-2.141,1.048-3.189,3.006-3.189m8.655,6.742h-.683V67.3h.683Z" transform="translate(-113.9 -43.339)" fill="#787da7"/><path d="M125.753,28V20.44a1.759,1.759,0,0,0-1.048-1.822,8.471,8.471,0,0,0-3.143-.547h-3.234V30.142h3.1a12.356,12.356,0,0,0,3.462-.319A1.887,1.887,0,0,0,125.753,28m4.282-7.471v7.516c0,2.05-.638,3.553-1.822,4.236-1.23.729-3.508,1.093-6.605,1.093H114V14.882h7.562c3.007,0,5.193.319,6.514,1.184,1.321.774,1.959,2.278,1.959,4.464m7.562,12.8h-4.054V19.62H137.6Zm0-15.351h-4.054V14.7H137.6Zm12.436,4.737H148.62a4.358,4.358,0,0,0-2.505.547,1.865,1.865,0,0,0-.865,1.777v8.291H141.2V19.62h3.826v2.369a2.4,2.4,0,0,1,1.093-1.822,3.955,3.955,0,0,1,2.278-.866h1.458Zm10.75,2.505V23.264a1.1,1.1,0,0,0-.547-1,3.818,3.818,0,0,0-1.777-.319,3.878,3.878,0,0,0-1.959.319,1.308,1.308,0,0,0-.547,1v1.959Zm3.872,2.323h-8.609v1.23a1.837,1.837,0,0,0,.774,1.685,5.3,5.3,0,0,0,2.961.547,19.185,19.185,0,0,0,4.51-.592V33.1a28.719,28.719,0,0,1-5.193.547c-4.737,0-7.015-1.5-7.015-4.51v-4.92a4.328,4.328,0,0,1,1.64-3.781,9.119,9.119,0,0,1,4.965-1.093,7.81,7.81,0,0,1,4.6,1.048q1.5,1.025,1.5,3.826Zm14.121,5.6a27.069,27.069,0,0,1-4.555.456c-.683,0-1.23,0-1.64-.046a11.259,11.259,0,0,1-1.549-.137,4.223,4.223,0,0,1-1.5-.41,12.438,12.438,0,0,1-1.093-.774,3.7,3.7,0,0,1-.866-1.321,8.264,8.264,0,0,1-.228-1.959V24.312a6.875,6.875,0,0,1,.182-1.777,3.021,3.021,0,0,1,.592-1.275,3.079,3.079,0,0,1,.957-.911,12.163,12.163,0,0,1,1.093-.547,11.839,11.839,0,0,1,1.367-.273c.592-.046,1-.091,1.367-.091h1.5a18.062,18.062,0,0,1,4.054.547v2.733a17.4,17.4,0,0,0-4.419-.683c-1.822,0-2.779.638-2.779,1.913v4.92c0,1.412,1,2.141,3.006,2.141a19.99,19.99,0,0,0,4.282-.638Zm11.252.319a19.384,19.384,0,0,1-2.187.137c-.638,0-1.184,0-1.64-.046a9.042,9.042,0,0,1-1.458-.273,3.583,3.583,0,0,1-1.23-.683,3.176,3.176,0,0,1-.774-1.23,6.057,6.057,0,0,1-.273-1.913V22.171h-2.733V19.62h2.733V15.566h4.054v3.963h3.69V22.08h-3.69v6.469a3.116,3.116,0,0,0,.41,1.913,2.451,2.451,0,0,0,1.777.456,13.015,13.015,0,0,0,1.458-.137Z" transform="translate(-113.954 -14.7)" fill="#787da7"/><path d="M298,26.152l-2.05-6.469h-.091l-2.1,6.469Zm6.514,7.288h-4.145l-1.5-4.555h-6.15l-1.5,4.555H287.3l6.2-17.219h4.874Zm10.432-3.872V24.375a1.438,1.438,0,0,0-.5-1.321,4.279,4.279,0,0,0-2.1-.319,3.936,3.936,0,0,0-2.1.319,2.229,2.229,0,0,0-.364,1.5v4.874a2.344,2.344,0,0,0,.364,1.458c.228.273.911.364,1.913.364a5.04,5.04,0,0,0,2.323-.319,2.015,2.015,0,0,0,.456-1.367m3.69,3.872H315V31.982a3.632,3.632,0,0,1-.774,1.048,3.071,3.071,0,0,1-1.093.5,11.445,11.445,0,0,1-2,.137c-2.1,0-3.553-.273-4.236-.866-.638-.547-1-1.731-1-3.644V24.193c0-1.458.364-2.46,1.184-3.006a6.6,6.6,0,0,1,3.781-.866,7.18,7.18,0,0,1,2.6.319,3.339,3.339,0,0,1,1.412,1.367V14.9h3.781Zm22.776,0h-3.781V24.557a3.363,3.363,0,0,0-.228-1.5,2.4,2.4,0,0,0-1.5-.319c-1.048,0-1.64.091-1.868.319-.228.182-.319.683-.319,1.5V33.44h-3.781V24.557a3.363,3.363,0,0,0-.228-1.5,2.4,2.4,0,0,0-1.5-.319c-1.048,0-1.64.091-1.868.319-.228.182-.319.683-.319,1.5V33.44h-3.781V20.594h3.781v1.549c.228-1.184,1.5-1.822,3.69-1.822a5.433,5.433,0,0,1,2.688.5,2.146,2.146,0,0,1,1.184,1.458,2.362,2.362,0,0,1,1.184-1.458,6.738,6.738,0,0,1,2.733-.456c1.64,0,2.733.273,3.28.911a4.051,4.051,0,0,1,.774,2.779Zm7.243,0h-3.781V20.594h3.781Zm0-14.349h-3.781V15.948h3.781ZM364.148,33.44h-3.781V24.557a2.381,2.381,0,0,0-.319-1.458,2.584,2.584,0,0,0-1.64-.319,3.537,3.537,0,0,0-2,.319c-.273.228-.41.683-.41,1.458V33.44h-3.781V20.594h3.735v1.549c.273-1.184,1.64-1.822,3.963-1.822,1.64,0,2.779.273,3.416.911a3.857,3.857,0,0,1,.957,2.779Z" transform="translate(-208.311 -14.809)" fill="#787da7"/></g><g transform="translate(0)"><g transform="translate(10.676)"><g transform="translate(1.412 1.367)"><path d="M55.89,25.275h0L32.977,3,26.6,9.56,43,25.458,27.1,41.765l6.514,6.377Z" transform="translate(-26.6 -3)" fill="#787da7"/></g><path d="M52.79,22.275h0L29.923,0,23.5,6.56l16.4,15.9L24,38.811l6.514,6.377Z" transform="translate(-23.5)" fill="#787da7"/><line y1="22.913" x2="22.366" transform="translate(9.293 24.325)" fill="none"/></g><g transform="translate(0 9.812)"><g transform="translate(0 5.049)"><rect width="18.176" height="1.913" transform="matrix(0.697, -0.717, 0.717, 0.697, 6.523, 19.367)" fill="#787da7"/><rect width="18.176" height="9.111" transform="matrix(0.697, -0.717, 0.717, 0.697, 0, 13.026)" fill="#787da7"/></g><rect width="9.156" height="7.972" transform="matrix(0.697, -0.717, 0.717, 0.697, 1.115, 6.562)" fill="#787da7"/></g></g></svg>