<svg xmlns="http://www.w3.org/2000/svg" width="115.966" height="48.125" viewBox="0 0 115.966 48.125"><g transform="translate(0)"><g transform="translate(0 0)"><path d="M44.117,237.108H40.6V200.28a29.733,29.733,0,0,1,8.695-1.385,15.6,15.6,0,0,1,5.621.969,12.437,12.437,0,0,1,4.347,2.686,11.3,11.3,0,0,1,2.769,4.126A13.757,13.757,0,0,1,63,211.855a13.49,13.49,0,0,1-1.163,5.843,11.8,11.8,0,0,1-3.074,4.015,12.167,12.167,0,0,1-4.347,2.3,16.854,16.854,0,0,1-4.984.748,17.281,17.281,0,0,1-2.686-.194c-.886-.138-1.772-.332-2.631-.554Zm14.87-25.336a10.323,10.323,0,0,0-2.464-7.144,8.907,8.907,0,0,0-6.923-2.714,23.684,23.684,0,0,0-2.8.166,12.65,12.65,0,0,0-2.686.637v17.971a26.05,26.05,0,0,0,2.52.692,10.982,10.982,0,0,0,2.52.277,9.854,9.854,0,0,0,7.172-2.575Q58.986,216.548,58.986,211.772Z" transform="translate(-40.6 -188.983)" fill="#787da7"/><path d="M147.1,198.626V163.1h3.544v35.5H147.1Z" transform="translate(-117.61 -163.1)" fill="#787da7"/><path d="M207.587,220.658a11.912,11.912,0,0,1-4.1,2.907,14.271,14.271,0,0,1-5.621,1,12.706,12.706,0,0,1-5.344-1.052,10.337,10.337,0,0,1-3.794-2.824,11.576,11.576,0,0,1-2.271-4.07,15,15,0,0,1-.775-4.818,16.606,16.606,0,0,1,.914-5.815,11.58,11.58,0,0,1,2.492-4.1,10.141,10.141,0,0,1,3.655-2.409,12.609,12.609,0,0,1,4.4-.775c3.71,0,6.535,1.135,8.418,3.434q2.824,3.406,2.741,9.968H189.284a10.324,10.324,0,0,0,2.492,6.839,8.218,8.218,0,0,0,6.341,2.548,10.305,10.305,0,0,0,4.07-.748,9.006,9.006,0,0,0,3.3-2.354Zm-2.852-11.519a9.574,9.574,0,0,0-.471-2.935,6.767,6.767,0,0,0-1.357-2.326,6.146,6.146,0,0,0-2.3-1.551,9.706,9.706,0,0,0-6.618,0,6.037,6.037,0,0,0-2.215,1.5,9.643,9.643,0,0,0-1.5,2.3,9.489,9.489,0,0,0-.886,3.018Z" transform="translate(-145.506 -188.842)" fill="#787da7"/><path d="M308.348,204.475a8.816,8.816,0,0,0-2.88-2.464,7.635,7.635,0,0,0-3.655-.775,5.786,5.786,0,0,0-3.794.969,3.048,3.048,0,0,0-1.08,2.437,2.9,2.9,0,0,0,.5,1.717,4.3,4.3,0,0,0,1.329,1.218,9.959,9.959,0,0,0,1.911.886c.72.249,1.468.5,2.271.748.969.3,1.911.637,2.88,1a10.387,10.387,0,0,1,2.631,1.385,7.047,7.047,0,0,1,1.938,2.1,6.084,6.084,0,0,1,.748,3.129,6.412,6.412,0,0,1-.748,3.1,7.013,7.013,0,0,1-2.021,2.3,8.859,8.859,0,0,1-3.018,1.412,14.887,14.887,0,0,1-9.055-.5,12.545,12.545,0,0,1-4.4-3.267l2.769-2.437a8.652,8.652,0,0,0,7.172,3.544,6.957,6.957,0,0,0,4.264-1.08,3.214,3.214,0,0,0,1.384-2.575,3.535,3.535,0,0,0-.5-1.966A4.621,4.621,0,0,0,305.607,214a8.961,8.961,0,0,0-2.021-.941q-1.163-.374-2.409-.748c-.969-.277-1.911-.581-2.852-.914a9.9,9.9,0,0,1-2.52-1.3A5.795,5.795,0,0,1,293.257,205a6.057,6.057,0,0,1,2.437-5.178A10.313,10.313,0,0,1,302.035,198a12.359,12.359,0,0,1,4.9.941,11.646,11.646,0,0,1,4.126,3.212l-2.6,2.381Z" transform="translate(-222.315 -188.332)" fill="#787da7"/><path d="M385.3,198.771V163.3h3.544v35.471Zm3.572-13.1,12.184-12.294h4.763L393.33,185.563l12.433,13.181h-4.929Z" transform="translate(-289.852 -163.245)" fill="#787da7"/><path d="M135.877,328.151H114.5V324.8h21.377Z" transform="translate(-94.037 -280.025)" fill="#787da7"/></g></g></svg>