<svg xmlns="http://www.w3.org/2000/svg" width="109" height="109" viewBox="0 0 109 109"><g transform="translate(-316 -1531.354)"><g transform="translate(-119.558 -3206.333)"><rect width="109" height="109" rx="15" transform="translate(435.557 4737.687)"/></g><path d="M89.392,78.248a2.138,2.138,0,0,1,1.023.268,1.915,1.915,0,0,1,.777.77,2.087,2.087,0,0,1,0,2.077,1.938,1.938,0,0,1-.769.771,2.089,2.089,0,0,1-2.071,0,1.943,1.943,0,0,1-.771-.771,2.081,2.081,0,0,1,0-2.077,1.919,1.919,0,0,1,.78-.77,2.137,2.137,0,0,1,1.023-.268Zm0,.344a1.772,1.772,0,0,0-.853.225,1.616,1.616,0,0,0-.65.642,1.73,1.73,0,0,0,0,1.731,1.627,1.627,0,0,0,.643.643,1.733,1.733,0,0,0,1.726,0,1.62,1.62,0,0,0,.641-.643,1.742,1.742,0,0,0,0-1.731,1.6,1.6,0,0,0-.65-.642,1.773,1.773,0,0,0-.851-.225Zm-.912,2.887V79.241h.768a1.9,1.9,0,0,1,.572.061.557.557,0,0,1,.281.217.582.582,0,0,1,.1.328.594.594,0,0,1-.175.427.7.7,0,0,1-.465.2.582.582,0,0,1,.19.118,2.636,2.636,0,0,1,.331.444l.273.438h-.442l-.2-.353a1.8,1.8,0,0,0-.378-.52.463.463,0,0,0-.289-.077h-.212v.95Zm.361-1.259h.439a.71.71,0,0,0,.428-.094.321.321,0,0,0,.059-.426.332.332,0,0,0-.153-.117,1.117,1.117,0,0,0-.364-.039h-.41v.676ZM49.279,78.111h.069v4.783H44.515V78.111h4.763ZM28.247,88.226l11.177.693a.845.845,0,1,1,0,1.689H23.495V84.383A5.359,5.359,0,0,0,28.247,88.226Zm-4.752,7.193H39.779a4.916,4.916,0,0,0,4.806-3.963,4.785,4.785,0,0,0,4.694,3.963h10.4a4.784,4.784,0,0,0,4.683-3.909v3.909H81.049a4.91,4.91,0,0,0,4.9-4.9v-.693a4.91,4.91,0,0,0-4.9-4.9l-.915-.04q-7.785-.343-15.548-.758a5.319,5.319,0,0,0,4.808,4.091l11.3.693a.845.845,0,1,1,0,1.689H64.447V84.128l-4.832-.249v5.543a1.414,1.414,0,0,1-1.41,1.41H50.759a1.414,1.414,0,0,1-1.41-1.41V83.349L44.515,83.1v5.495a4.868,4.868,0,0,0-4.736-3.577L18.5,83.626V95.42h5ZM43.747,82.9v-4.81h-15.5a4.914,4.914,0,0,0-4.752,3.721v-3.7H14.243L11.09,82.894H23.352l20.4,0Zm-27.292.611L8.813,95.419H2.834L10.9,83.187l5.558.321Zm69.49-.611v-4.81H69.393a4.911,4.911,0,0,0-4.9,4.807l21.447,0Zm-26.331,0V78.111h4.832v4.783H59.614Z" transform="translate(323.166 1499.267)" fill="#fff" fill-rule="evenodd"/></g></svg>