<svg xmlns="http://www.w3.org/2000/svg" width="109" height="109" viewBox="0 0 109 109"><g transform="translate(-316 -1373.354)"><g transform="translate(-119.558 -3364.333)"><rect width="109" height="109" rx="15" transform="translate(435.557 4737.687)" fill="#0d96d6"/></g><g transform="translate(337.9 1395.254)"><path d="M65.943,33.022A32.921,32.921,0,0,0,33.022.1c-.5,0-.99.013-1.48.035L24.808,18.644h5.865c3.489,0,5.37,2.687,4.176,5.967L26.542,47.438H19.567L28.48,22.97H23.237L14.324,47.437H7.345L17.826,18.644h0l6.3-17.328a32.93,32.93,0,0,0,1.246,63.733L31.488,48.26h.005L42.271,18.644H55.116c3.493,0,5.372,2.687,4.178,5.967L52,44.661a4.537,4.537,0,0,1-3.965,2.776H38.772L32.044,65.928c.324.009.651.015.978.015A32.922,32.922,0,0,0,65.943,33.022" transform="translate(0 0)" fill="#fff"/><path d="M73.7,34.738H68.463L61.122,54.88h5.242Z" transform="translate(-20.763 -11.786)" fill="#fff"/></g></g></svg>