<svg xmlns="http://www.w3.org/2000/svg" width="109" height="109" viewBox="0 0 109 109"><g transform="translate(-316 -1215.354)"><g transform="translate(-119.558 -3522.333)"><rect width="109" height="109" rx="15" transform="translate(435.557 4737.687)" fill="#097db8"/></g><g transform="translate(18.666 796.611)"><g transform="translate(319.334 440.743)"><path d="M-116.047-12.541a29.293,29.293,0,0,0-20.786,8.617,29.276,29.276,0,0,0-8.613,20.786,29.269,29.269,0,0,0,8.613,20.777,29.321,29.321,0,0,0,20.786,8.616,29.3,29.3,0,0,0,20.784-8.616,29.27,29.27,0,0,0,8.6-20.777,29.277,29.277,0,0,0-8.6-20.786,29.27,29.27,0,0,0-20.784-8.617m0-3.562A32.963,32.963,0,0,1-83.088,16.862a32.96,32.96,0,0,1-32.959,32.957,32.965,32.965,0,0,1-32.963-32.957A32.968,32.968,0,0,1-116.047-16.1" transform="translate(149.009 16.103)" fill="#fff"/></g><g transform="translate(327.765 464.885)"><path d="M-31.481-30.115a2.841,2.841,0,0,0-3.079-3.012h-1.1V-27.1h1.073a2.835,2.835,0,0,0,3.11-3.014m19.644,2.168-8.136,6.406-7.435-5.854a7.186,7.186,0,0,1-6.651,4.368h-6.364V-37.2h6.364a7.133,7.133,0,0,1,6.649,4.382l7.438-5.848,2.755,2.168-6.816,5.358,1.31,1.025,6.814-5.354,2.759,2.162-6.815,5.364,1.308,1.027,6.822-5.365V-37.2h4.945v10.038h4.933v4.155h-9.878Zm16.142.784H9.237v4.153H-.645V-37.2h4.95Z" transform="translate(40.423 38.669)" fill="#fff"/></g></g></g></svg>