<svg xmlns="http://www.w3.org/2000/svg" width="22.767" height="27.528" viewBox="0 0 22.767 27.528"><path d="M12.847,11.025a1.073,1.073,0,0,0-.74,1.28,42.917,42.917,0,0,1,.643,14.35,1.055,1.055,0,0,0,.842,1.2.932.932,0,0,0,.138.01,1.018,1.018,0,0,0,.979-.919,45.249,45.249,0,0,0-.676-15.127.987.987,0,0,0-1.187-.8Zm-2.292,6.008a1.049,1.049,0,0,0-.893,1.161,36.932,36.932,0,0,1-.188,8.212,1.059,1.059,0,0,0,.832,1.212.87.87,0,0,0,.147.011,1.015,1.015,0,0,0,.977-.911,39.36,39.36,0,0,0,.2-8.722,1.019,1.019,0,0,0-1.076-.965Zm1.551-9.474A4.3,4.3,0,0,0,9.437,9.62,4.9,4.9,0,0,0,8.9,13.112c.125.583.239,1.167.337,1.749a1,1,0,0,0,1.151.858,1.064,1.064,0,0,0,.794-1.242q-.158-.928-.356-1.848a2.636,2.636,0,0,1,.292-1.878,2.248,2.248,0,0,1,4.2.751,46.185,46.185,0,0,1,.825,14.667,1.052,1.052,0,0,0,.871,1.181.921.921,0,0,0,.114.009,1.019,1.019,0,0,0,.982-.945,48.532,48.532,0,0,0-.865-15.394A4.291,4.291,0,0,0,12.1,7.559Zm-3.43.758a1.124,1.124,0,0,0-.162-1.5.94.94,0,0,0-1.389.175,8.172,8.172,0,0,0-.484.746,8.672,8.672,0,0,0-.953,6.179,34.995,34.995,0,0,1,.571,11.652,1.057,1.057,0,0,0,.845,1.2.988.988,0,0,0,1.115-.912,37.381,37.381,0,0,0-.6-12.425A6.417,6.417,0,0,1,8.676,8.317Zm11.9,9.777a1.038,1.038,0,0,0-.939,1.118,48.831,48.831,0,0,1-.084,5.877,1.046,1.046,0,0,0,.9,1.152q.04,0,.081,0a1.021,1.021,0,0,0,.985-.982,51.272,51.272,0,0,0,.088-6.156,1.037,1.037,0,0,0-1.036-1.013Zm-.242-1.473a.924.924,0,0,0,.124-.009,1.053,1.053,0,0,0,.859-1.189q-.3-2.625-.862-5.212a7.809,7.809,0,0,0-7.431-6.321,6.862,6.862,0,0,0-1.656.2,7.515,7.515,0,0,0-1.31.465,1.1,1.1,0,0,0-.515,1.4.963.963,0,0,0,1.3.555,5.433,5.433,0,0,1,.97-.344,4.955,4.955,0,0,1,1.209-.148A5.776,5.776,0,0,1,18.525,10.7c.356,1.648.635,3.326.825,4.991a1.019,1.019,0,0,0,.982.935Zm3.332-7.211a11.871,11.871,0,0,0-2.874-5.567.939.939,0,0,0-1.4,0,1.138,1.138,0,0,0,0,1.518,9.76,9.76,0,0,1,2.349,4.564A55.146,55.146,0,0,1,22.961,22.87a1.1,1.1,0,0,0,.962,1.172h.027a1.1,1.1,0,0,0,.989-1.113A57.728,57.728,0,0,0,23.663,9.411ZM3.9,18.145a.945.945,0,0,0,.145-.011,1.059,1.059,0,0,0,.835-1.211q-.185-1.351-.472-2.685A10.17,10.17,0,0,1,5.523,6.985a8.9,8.9,0,0,1,5.54-4.277,8.317,8.317,0,0,1,5.966.794.955.955,0,0,0,1.327-.474A1.107,1.107,0,0,0,17.918,1.6a10.177,10.177,0,0,0-7.3-.967A10.9,10.9,0,0,0,3.844,5.856a12.438,12.438,0,0,0-1.366,8.867c.182.845.332,1.689.442,2.511a1.014,1.014,0,0,0,.977.911Zm.295,1.629H4.16a.891.891,0,0,0-.956.943,26.587,26.587,0,0,1-.1,3.4,1.047,1.047,0,0,0,.888,1.164.92.92,0,0,0,.1,0,.955.955,0,0,0,.982-.889,30.007,30.007,0,0,0,.11-3.752A.894.894,0,0,0,4.192,19.775Z" transform="translate(-2.189 -0.341)" fill="#771efc"/></svg>