<svg xmlns="http://www.w3.org/2000/svg" width="24.292" height="24.239" viewBox="0 0 24.292 24.239"><g transform="translate(-1.965 -2)"><circle cx="4.79" cy="4.79" r="4.79" transform="translate(3.018 15.659)" fill="none" stroke="#6c31f2" stroke-miterlimit="10" stroke-width="2"/><path d="M19.054,12.409h-7.7a.808.808,0,0,1-.855-.855v-7.7A.808.808,0,0,1,11.355,3h7.7a.808.808,0,0,1,.855.855v7.7A.808.808,0,0,1,19.054,12.409Z" transform="translate(5.348 0)" fill="none" stroke="#6c31f2" stroke-miterlimit="10" stroke-width="2"/><path d="M19.089,19.944a.628.628,0,0,1-.513-.171L10.707,11.9a.847.847,0,1,1,1.2-1.2l7.869,7.869a.827.827,0,0,1,0,1.2C19.6,19.944,19.431,19.944,19.089,19.944Z" transform="translate(5.313 5.295)" fill="#6c31f2" stroke="#6c31f2" stroke-width="1"/><path d="M11.291,19.944a.628.628,0,0,0,.513-.171L19.673,11.9a.847.847,0,0,0-1.2-1.2l-7.869,7.869a.827.827,0,0,0,0,1.2A1.293,1.293,0,0,0,11.291,19.944Z" transform="translate(5.242 5.295)" fill="#6c31f2" stroke="#6c31f2" stroke-width="1"/><path d="M11.743,12.356H3.873a.786.786,0,0,1-.855-1.026L6.953,3.46c.342-.513,1.2-.513,1.369,0l3.935,7.869A.627.627,0,0,1,11.743,12.356Z" transform="translate(0 0.053)" fill="none" stroke="#6c31f2" stroke-miterlimit="10" stroke-width="2"/></g></svg>