<svg id="Group_1998" data-name="Group 1998" xmlns="http://www.w3.org/2000/svg" xmlns:xlink="http://www.w3.org/1999/xlink" width="29.952" height="29.948" viewBox="0 0 29.952 29.948">
  <defs>
    <clipPath id="clip-path">
      <rect id="Rectangle_726" data-name="Rectangle 726" width="29.952" height="29.947" fill="#771efc"/>
    </clipPath>
  </defs>
  <g id="Group_1997" data-name="Group 1997" clip-path="url(#clip-path)">
    <path id="Path_2490" data-name="Path 2490" d="M0,135.813a1.42,1.42,0,0,1,.931-.791q9.773-3.4,19.539-6.829c.722-.252,1.342.018,1.458.68a1.586,1.586,0,0,1-.1.754q-2.838,8.14-5.693,16.275c-.37,1.057-.751,2.112-1.1,3.175a1.42,1.42,0,0,1-.8.962h-.5a1.5,1.5,0,0,1-.791-.863c-1.185-2.7-2.388-5.384-3.577-8.078a.754.754,0,0,0-.418-.419c-2.685-1.185-5.364-2.383-8.051-3.565a1.527,1.527,0,0,1-.892-.8Z" transform="translate(0 -120.091)" fill="#771efc"/>
    <path id="Path_2491" data-name="Path 2491" d="M321.395,2.989c0,.644,0,1.289,0,1.934a1,1,0,1,1-1.995-.008q0-1.918,0-3.836a1,1,0,1,1,2,.008c0,.634,0,1.268,0,1.9" transform="translate(-299.429 0)" fill="#771efc"/>
    <path id="Path_2492" data-name="Path 2492" d="M386.314,129.709c-.645,0-1.289,0-1.934,0a1,1,0,1,1,.009-1.995q1.918,0,3.836,0a1,1,0,1,1-.009,1.995c-.634,0-1.268,0-1.9,0" transform="translate(-359.353 -119.727)" fill="#771efc"/>
    <path id="Path_2493" data-name="Path 2493" d="M370.728,38.826a1.109,1.109,0,0,1,.943.648.95.95,0,0,1-.211,1.118c-.627.636-1.261,1.264-1.892,1.9-.205.205-.405.417-.619.614a.986.986,0,0,1-1.4-.014.967.967,0,0,1-.017-1.375q1.26-1.293,2.557-2.551a2.562,2.562,0,0,1,.639-.335" transform="translate(-344.294 -36.399)" fill="#771efc"/>
    <path id="Path_2494" data-name="Path 2494" d="M236.157,43.364a1.052,1.052,0,0,1-.57,1,.9.9,0,0,1-1.075-.135q-1.312-1.267-2.581-2.578a.989.989,0,0,1,1.4-1.4q1.31,1.269,2.576,2.583a1.658,1.658,0,0,1,.254.522" transform="translate(-217.189 -37.501)" fill="#771efc"/>
    <path id="Path_2495" data-name="Path 2495" d="M368.509,174.885a2.866,2.866,0,0,1,.662.364c.839.807,1.659,1.634,2.475,2.465a.993.993,0,0,1-1.4,1.409q-1.258-1.234-2.492-2.492a.94.94,0,0,1-.191-1.1,1.162,1.162,0,0,1,.946-.65" transform="translate(-344.494 -163.952)" fill="#771efc"/>
  </g>
</svg>
