<svg id="Group_1996" data-name="Group 1996" xmlns="http://www.w3.org/2000/svg" xmlns:xlink="http://www.w3.org/1999/xlink" width="30.888" height="29.435" viewBox="0 0 30.888 29.435">
  <defs>
    <clipPath id="clip-path">
      <rect id="Rectangle_725" data-name="Rectangle 725" width="30.888" height="29.435" fill="#771efc"/>
    </clipPath>
  </defs>
  <g id="Group_1995" data-name="Group 1995" clip-path="url(#clip-path)">
    <path id="Path_2484" data-name="Path 2484" d="M0,276.3a1.379,1.379,0,0,1,1.018-.837c.549-.154,1.087-.349,1.63-.522a1.034,1.034,0,1,1,.64,1.957c-.56.188-1.123.366-1.686.547-.84.271-1.222.113-1.6-.663Z" transform="translate(0 -258.261)" fill="#771efc"/>
    <path id="Path_2485" data-name="Path 2485" d="M239.174,422.568a1.2,1.2,0,0,1-.794-1.33c.034-.581,0-1.165.008-1.748a1.027,1.027,0,1,1,2.053,0c.005.583-.025,1.167.008,1.748a1.2,1.2,0,0,1-.793,1.33Z" transform="translate(-223.972 -393.133)" fill="#771efc"/>
    <path id="Path_2486" data-name="Path 2486" d="M75.451,26.7a2.281,2.281,0,0,1,2.019,1.362q1.077,2.155,2.129,4.322a.508.508,0,0,0,.45.317q2.418.334,4.83.708a2.4,2.4,0,0,1,1.307,4.056c-1.139,1.135-2.3,2.254-3.453,3.369a.58.58,0,0,0-.2.6c.285,1.571.547,3.145.811,4.72a2.4,2.4,0,0,1-3.478,2.54Q77.75,47.6,75.654,46.471a.633.633,0,0,0-.686-.005c-1.361.734-2.743,1.427-4.1,2.17a2.4,2.4,0,0,1-3.539-1.4,3.336,3.336,0,0,1-.028-1.277c.237-1.548.514-3.09.79-4.631a.407.407,0,0,0-.14-.417c-1.169-1.133-2.341-2.264-3.5-3.411a2.373,2.373,0,0,1,.346-3.725,3.073,3.073,0,0,1,1.122-.395c1.547-.25,3.1-.467,4.651-.676a.509.509,0,0,0,.441-.331q1.051-2.151,2.117-4.294A2.413,2.413,0,0,1,75.451,26.7" transform="translate(-59.861 -25.086)" fill="#771efc"/>
    <path id="Path_2487" data-name="Path 2487" d="M446.359,277.453a1.087,1.087,0,0,1-.215-.033c-.706-.227-1.413-.448-2.113-.691a1.01,1.01,0,0,1-.677-1.029,1.027,1.027,0,0,1,.841-.936.977.977,0,0,1,.443.02c.718.219,1.436.443,2.145.69a1.013,1.013,0,0,1,.65,1.132,1.044,1.044,0,0,1-1.073.849" transform="translate(-416.56 -258.144)" fill="#771efc"/>
    <path id="Path_2488" data-name="Path 2488" d="M374.215,3.751a.982.982,0,0,1-.89-.519.923.923,0,0,1,.015-1.027c.431-.628.874-1.249,1.345-1.848a.993.993,0,0,1,1.382-.146,1,1,0,0,1,.258,1.344c-.425.632-.881,1.244-1.341,1.85a.907.907,0,0,1-.77.345" transform="translate(-350.627 0.001)" fill="#771efc"/>
    <path id="Path_2489" data-name="Path 2489" d="M85.684,3.787a1.038,1.038,0,0,1-.924-.414c-.417-.564-.834-1.13-1.236-1.7A1.02,1.02,0,0,1,83.74.247a1.014,1.014,0,0,1,1.442.215c.423.56.832,1.13,1.238,1.7a.971.971,0,0,1,.073,1.079.948.948,0,0,1-.81.543" transform="translate(-78.294 -0.035)" fill="#771efc"/>
  </g>
</svg>
