<svg xmlns="http://www.w3.org/2000/svg" xmlns:xlink="http://www.w3.org/1999/xlink" width="17.942" height="23.94" viewBox="0 0 17.942 23.94">
  <defs>
    <clipPath id="clip-path">
      <rect id="Rectangle_724" data-name="Rectangle 724" width="17.942" height="23.94" fill="#771efc"/>
    </clipPath>
  </defs>
  <g id="Group_1993" data-name="Group 1993" clip-path="url(#clip-path)">
    <path id="Path_2483" data-name="Path 2483" d="M0,22.023V10.9a.21.21,0,0,0,.036-.057A2.239,2.239,0,0,1,2.375,8.984H2.99c0-.969-.009-1.91,0-2.851a8.327,8.327,0,0,1,.093-1.185A5.977,5.977,0,0,1,14.95,6.062c0,.888,0,1.776,0,2.663v.26c.289,0,.545-.005.8,0a2.222,2.222,0,0,1,2.182,2.181q.019,5.292,0,10.584a2.206,2.206,0,0,1-1.473,2.05c-.144.052-.292.093-.438.139H1.915c-.079-.026-.157-.055-.238-.077A2.224,2.224,0,0,1,.113,22.4c-.044-.122-.076-.248-.113-.373M12.928,8.971c0-1.165,0-2.316,0-3.466a1.384,1.384,0,0,0-.032-.207,3.984,3.984,0,0,0-7.906.747c0,.9,0,1.806,0,2.71,0,.068.007.137.011.217Z" transform="translate(0 0)" fill="#771efc"/>
  </g>
</svg>
