<svg xmlns="http://www.w3.org/2000/svg" xmlns:xlink="http://www.w3.org/1999/xlink" width="23.89" height="16.876" viewBox="0 0 23.89 16.876">
  <defs>
    <clipPath id="clip-path">
      <rect id="Rectangle_723" data-name="Rectangle 723" width="23.89" height="16.876" fill="#771efc"/>
    </clipPath>
  </defs>
  <g id="Group_1991" data-name="Group 1991" clip-path="url(#clip-path)">
    <path id="Path_2482" data-name="Path 2482" d="M0,3.36V1.635a.251.251,0,0,0,.03-.063A1.905,1.905,0,0,1,1.99,0q9.961.011,19.921,0A1.875,1.875,0,0,1,23.889,1.98c0,.816,0,1.631,0,2.447q0,5.243,0,10.486a1.964,1.964,0,0,1-.427,1.275,2.083,2.083,0,0,1-1.206.689H1.633A6.116,6.116,0,0,1,.769,16.5,1.871,1.871,0,0,1,0,15.245V11.7q1.631,0,3.263,0a.71.71,0,0,0,.8-.785q0-3.388,0-6.775a.7.7,0,0,0-.775-.782c-1.1,0-2.191,0-3.286,0m13.975,0H7.63a.717.717,0,0,0-.809.8q0,4.392,0,8.784a.722.722,0,0,0,.824.81h12.6a.721.721,0,0,0,.83-.825q0-4.369,0-8.738c0-.579-.262-.834-.845-.834H13.975" transform="translate(0 0)" fill="#771efc"/>
    <rect id="Rectangle_721" data-name="Rectangle 721" width="2.646" height="5.546" transform="translate(0 4.758)" fill="#771efc"/>
    <rect id="Rectangle_722" data-name="Rectangle 722" width="11.416" height="7.578" transform="translate(8.237 4.772)" fill="#771efc"/>
  </g>
</svg>
