<svg xmlns="http://www.w3.org/2000/svg" width="35.243" height="50.018" viewBox="0 0 35.243 50.018"><g transform="translate(-17.236 -3.5)"><circle cx="0.807" cy="0.807" r="0.807" transform="translate(20.292 7.467)" fill="#787da7"/><circle cx="0.807" cy="0.807" r="0.807" transform="translate(20.292 43.371)" fill="#787da7"/><circle cx="0.807" cy="0.807" r="0.807" transform="translate(47.965 7.467)" fill="#787da7"/><circle cx="0.807" cy="0.807" r="0.807" transform="translate(47.965 43.371)" fill="#787da7"/><path d="M20.194,53.518H49.52a2.962,2.962,0,0,0,2.958-2.958V6.458A2.962,2.962,0,0,0,49.52,3.5H20.194a2.962,2.962,0,0,0-2.958,2.958v44.1A2.962,2.962,0,0,0,20.194,53.518ZM45.353,51.9H43.945V49.7a.807.807,0,0,0-1.613,0v2.2H41.1V49.7a.807.807,0,1,0-1.613,0v2.2H38.248V49.7a.807.807,0,1,0-1.613,0v2.2H35.4V49.7a.807.807,0,0,0-1.613,0v2.2H32.551V49.7a.807.807,0,1,0-1.613,0v2.2H29.7V49.7a.807.807,0,1,0-1.613,0v2.2H26.681V48.141H45.353ZM18.849,6.458a1.346,1.346,0,0,1,1.345-1.345H49.52a1.346,1.346,0,0,1,1.345,1.345v44.1A1.346,1.346,0,0,1,49.52,51.9H46.966V47.334a.807.807,0,0,0-.807-.807H25.875a.807.807,0,0,0-.807.807V51.9H20.194a1.346,1.346,0,0,1-1.345-1.345Z" fill="#787da7"/><path d="M28.581,47.77h21.8a1.346,1.346,0,0,0,1.345-1.345V16.845A1.346,1.346,0,0,0,50.377,15.5h-21.8a1.346,1.346,0,0,0-1.345,1.345V46.425A1.346,1.346,0,0,0,28.581,47.77Zm.269-30.656H50.108V46.156H28.849Z" transform="translate(-4.622 -5.546)" fill="#787da7"/></g></svg>