<svg xmlns="http://www.w3.org/2000/svg" width="39.481" height="41" viewBox="0 0 39.481 41"><path d="M37.926,17.685A15.187,15.187,0,0,0,7.556,17.4v0A4.556,4.556,0,0,0,3,21.952v6.074a4.556,4.556,0,0,0,4.556,4.556h3.037a4.556,4.556,0,0,0,4.556-4.556V21.952A4.556,4.556,0,0,0,10.593,17.4a12.15,12.15,0,0,1,24.3.289,4.556,4.556,0,0,0-4.556,4.556v6.074a4.556,4.556,0,0,0,3.4,4.389,9.111,9.111,0,0,1-5.345,4.328,4.556,4.556,0,0,0-4.13-2.642H21.222a4.556,4.556,0,0,0,0,9.111h3.037a4.556,4.556,0,0,0,4.389-3.417,12.148,12.148,0,0,0,8.367-7.213h.911a4.556,4.556,0,0,0,4.556-4.556V22.241a4.556,4.556,0,0,0-4.556-4.556ZM12.111,21.952v6.074a1.519,1.519,0,0,1-1.519,1.519H7.556a1.519,1.519,0,0,1-1.519-1.519V21.952a1.519,1.519,0,0,1,1.519-1.519h3.037A1.519,1.519,0,0,1,12.111,21.952ZM24.259,40.463H21.222a1.519,1.519,0,1,1,0-3.037h3.037a1.519,1.519,0,1,1,0,3.037ZM39.444,28.315a1.519,1.519,0,0,1-1.519,1.519H34.889a1.519,1.519,0,0,1-1.519-1.519V22.241a1.519,1.519,0,0,1,1.519-1.519h3.037a1.519,1.519,0,0,1,1.519,1.519Z" transform="translate(-3 -2.5)" fill="#787da7"/></svg>