<svg xmlns="http://www.w3.org/2000/svg" width="39.496" height="39.496" viewBox="0 0 39.496 39.496"><g transform="translate(-1 -1)"><path d="M39.318,15.19l-3.959-.419-.053-.127,2.5-3.1a1.317,1.317,0,0,0-.093-1.759L31.707,3.78a1.314,1.314,0,0,0-1.759-.093l-3.1,2.5-.127-.053-.419-3.96A1.317,1.317,0,0,0,25,1H16.5a1.317,1.317,0,0,0-1.309,1.178l-.419,3.96-.127.053-3.1-2.5a1.314,1.314,0,0,0-1.759.093L3.78,9.789a1.317,1.317,0,0,0-.093,1.759l2.5,3.1-.053.127-3.959.419A1.316,1.316,0,0,0,1,16.5V25a1.316,1.316,0,0,0,1.178,1.309l3.959.419.053.127-2.5,3.1a1.317,1.317,0,0,0,.093,1.759l6.009,6.009a1.316,1.316,0,0,0,1.759.093l3.1-2.5.127.053.419,3.96A1.317,1.317,0,0,0,16.5,40.5H25a1.317,1.317,0,0,0,1.309-1.178l.419-3.96.127-.053,3.1,2.5a1.316,1.316,0,0,0,1.759-.093l6.009-6.009a1.317,1.317,0,0,0,.093-1.759l-2.5-3.1.053-.127,3.959-.419A1.316,1.316,0,0,0,40.5,25V16.5A1.316,1.316,0,0,0,39.318,15.19Zm-1.455,8.623-3.586.379a1.315,1.315,0,0,0-1.105.876,13.131,13.131,0,0,1-.585,1.407,1.319,1.319,0,0,0,.161,1.4l2.269,2.805-4.334,4.334-2.806-2.268a1.313,1.313,0,0,0-1.4-.161,12.986,12.986,0,0,1-1.4.582,1.318,1.318,0,0,0-.879,1.106l-.38,3.587H17.684l-.38-3.587a1.318,1.318,0,0,0-.879-1.106,12.811,12.811,0,0,1-1.4-.582,1.314,1.314,0,0,0-1.4.161l-2.806,2.268L6.479,30.682l2.269-2.805a1.319,1.319,0,0,0,.161-1.4,13.133,13.133,0,0,1-.585-1.407,1.315,1.315,0,0,0-1.105-.876l-3.586-.379v-6.13L7.219,17.3a1.315,1.315,0,0,0,1.105-.876,13.13,13.13,0,0,1,.585-1.407,1.319,1.319,0,0,0-.161-1.4L6.479,10.814,10.813,6.48l2.806,2.268a1.312,1.312,0,0,0,1.4.161,12.811,12.811,0,0,1,1.4-.582A1.318,1.318,0,0,0,17.3,7.22l.38-3.587h6.129l.38,3.587a1.318,1.318,0,0,0,.879,1.106,12.989,12.989,0,0,1,1.4.582,1.31,1.31,0,0,0,1.4-.161L30.683,6.48l4.334,4.334-2.269,2.805a1.319,1.319,0,0,0-.161,1.4,13.133,13.133,0,0,1,.585,1.407,1.315,1.315,0,0,0,1.105.876l3.586.379Z" fill="#787da7"/><path d="M18.586,7.83A10.756,10.756,0,1,0,29.341,18.586,10.768,10.768,0,0,0,18.586,7.83Zm0,18.879a8.123,8.123,0,1,1,8.122-8.123A8.132,8.132,0,0,1,18.586,26.709Z" transform="translate(2.162 2.162)" fill="#787da7"/></g></svg>