<svg xmlns="http://www.w3.org/2000/svg" width="38.629" height="38.629" viewBox="0 0 38.629 38.629"><path d="M21.314,2A19.314,19.314,0,0,0,8.026,7.35V3.931a1.931,1.931,0,0,0-3.863,0v8.692a1.931,1.931,0,0,0,1.931,1.931h8.692a1.931,1.931,0,0,0,0-3.863H10.151A15.452,15.452,0,1,1,5.863,21.314a1.931,1.931,0,0,0-3.863,0A19.314,19.314,0,1,0,21.314,2Zm0,11.589a1.931,1.931,0,0,0-1.931,1.931v5.794a1.931,1.931,0,0,0,1.931,1.931h3.863a1.931,1.931,0,0,0,0-3.863H23.246V15.52A1.931,1.931,0,0,0,21.314,13.589Z" transform="translate(-2 -2)" fill="#787da7"/></svg>