<svg xmlns="http://www.w3.org/2000/svg" width="39.226" height="33.331" viewBox="0 0 39.226 33.331"><path d="M28.246,10.94a19.511,19.511,0,0,1,19.6,19.434A19.23,19.23,0,0,1,43.482,42.6L42.065,44.27l-2.552-2.157,1-1.11.1-.1a16.027,16.027,0,0,0,3.9-9.545H40.5V28.09h3.917a15.951,15.951,0,0,0-3.5-7.911l-2.386,2.386-2.31-2.31,2.386-2.386a16.41,16.41,0,0,0-8.728-3.586v4.823H26.612V14.283a16.372,16.372,0,0,0-8.728,3.586l2.386,2.386-2.31,2.31-2.386-2.386a15.951,15.951,0,0,0-3.5,7.911H16v3.267H11.938a15.67,15.67,0,0,0,3.547,9.111l1.442,1.646L14.49,44.27l-1.072-1.276A18.86,18.86,0,0,1,8.62,30.31,19.511,19.511,0,0,1,28.246,10.94Zm6.048,12.837,2.31,2.3-5.232,5.219a3.254,3.254,0,0,1-5.436,3.139h0a3.241,3.241,0,0,1,0-4.594h0a3.216,3.216,0,0,1,2.858-.906l.281.064Z" transform="translate(-8.62 -10.94)" fill="#787da7"/></svg>