<svg id="Layer_2" data-name="Layer 2" xmlns="http://www.w3.org/2000/svg" width="20" height="20" viewBox="0 0 20 20">
  <g id="phone">
    <rect id="Rectangle_1462" data-name="Rectangle 1462" width="20" height="20" fill="#771efc" opacity="0"/>
    <path id="Path_5320" data-name="Path 5320" d="M14.954,18.824A12.971,12.971,0,0,1,2,5.87,3.87,3.87,0,0,1,5.87,2a3.314,3.314,0,0,1,.648.059,3.188,3.188,0,0,1,.606.151.841.841,0,0,1,.547.631L8.822,7.888a.841.841,0,0,1-.219.774c-.109.118-.118.126-1.152.665a8.336,8.336,0,0,0,4.1,4.113c.547-1.043.555-1.052.673-1.161a.841.841,0,0,1,.774-.219l5.047,1.152a.841.841,0,0,1,.606.547,3.65,3.65,0,0,1,.16.614,4.012,4.012,0,0,1,.05.639A3.87,3.87,0,0,1,14.954,18.824Z" transform="translate(-0.318 -0.318)" fill="#771efc"/>
  </g>
</svg>
