<svg xmlns="http://www.w3.org/2000/svg" width="27.533" height="25.458" viewBox="0 0 27.533 25.458"><g transform="translate(-2.233 -3.542)"><path d="M8.25,25a5,5,0,0,1-4.9-6,5.12,5.12,0,0,1,5.08-4H10V25Zm15.5,0a5,5,0,0,0,4.9-6,5.12,5.12,0,0,0-5.08-4H22V25Z" fill="none" stroke="#771efc" stroke-linecap="round" stroke-linejoin="round" stroke-width="2"/><path d="M7,15V13.82a9.11,9.11,0,0,1,6.91-9A9,9,0,0,1,25,13.61V15M10,25h0a3,3,0,0,0,3,3" fill="none" stroke="#771efc" stroke-linecap="round" stroke-linejoin="round" stroke-width="2"/><circle cx="1" cy="1" r="1" transform="translate(15 27)" fill="#771efc"/><line y2="9" transform="translate(7.5 15.5)" fill="none" stroke="#771efc" stroke-linecap="round" stroke-linejoin="round" stroke-width="1"/><rect width="2" height="10" transform="translate(22 15)" fill="#771efc"/></g></svg>