<svg xmlns="http://www.w3.org/2000/svg" xmlns:xlink="http://www.w3.org/1999/xlink" width="1920" height="395.198" viewBox="0 0 1920 395.198"><defs><clipPath id="a"><path d="M0,0H1920V395H0Z" transform="translate(0 4253.198)" fill="#787da7"/></clipPath><linearGradient id="b" x1="0.5" y1="1.562" x2="0.574" y2="-0.808" gradientUnits="objectBoundingBox"><stop offset="0" stop-color="#1e266d"/><stop offset="1" stop-color="#fff"/></linearGradient></defs><g transform="translate(0 -2808)"><path d="M0,0H1920V395H0Z" transform="translate(0 2808)" fill="#1e266d"/><g transform="translate(0 -1445)" clip-path="url(#a)"><g transform="translate(377.998 1034.198)"><path d="M0,0H980.505C875.19,40.38,694.931,67,490.253,67S105.316,40.38,0,0Z" transform="translate(1712.201 3219)" fill="url(#b)"/><path d="M0,0H980.505C875.19,40.38,694.931,67,490.253,67S105.316,40.38,0,0Z" transform="translate(1421.395 3219)" fill="url(#b)"/><path d="M0,0H980.505C875.19,40.38,694.931,67,490.253,67S105.316,40.38,0,0Z" transform="translate(1196.163 3219)" fill="url(#b)"/><path d="M0,0H980.505C875.19,40.38,694.931,67,490.253,67S105.316,40.38,0,0Z" transform="translate(933.281 3219)" fill="url(#b)"/><path d="M0,0H980.505C875.19,40.38,694.931,67,490.253,67S105.316,40.38,0,0Z" transform="translate(648.177 3219)" fill="url(#b)"/></g></g></g></svg>