<svg xmlns="http://www.w3.org/2000/svg" width="10.866" height="12.315" viewBox="0 0 10.866 12.315">
  <path id="shop" d="M23.1,966.945a1.633,1.633,0,0,0-1.449,1.449l-.249,2.173H20.2a.779.779,0,0,0-.724.724l-.724,7.244a.779.779,0,0,0,.724.724h9.417a.779.779,0,0,0,.724-.724l-.724-7.244a.779.779,0,0,0-.724-.724h-1.2l-.249-2.173a1.633,1.633,0,0,0-1.449-1.449Zm0,.724H25.27a.817.817,0,0,1,.724.724l.249,2.173h-4.12l.249-2.173A.817.817,0,0,1,23.1,967.67Z" transform="translate(-18.75 -966.945)" fill="#c4c6d9"/>
</svg>
