<svg xmlns="http://www.w3.org/2000/svg" width="14" height="14" viewBox="0 0 14 14">
  <path id="apps_1_" data-name="apps (1)" d="M5.75,4A1.75,1.75,0,0,0,4,5.75V8.375a1.75,1.75,0,0,0,1.75,1.75H8.375a1.75,1.75,0,0,0,1.75-1.75V5.75A1.75,1.75,0,0,0,8.375,4Zm7.875,0a1.75,1.75,0,0,0-1.75,1.75V8.375a1.75,1.75,0,0,0,1.75,1.75H16.25A1.75,1.75,0,0,0,18,8.375V5.75A1.75,1.75,0,0,0,16.25,4ZM4,13.625a1.75,1.75,0,0,1,1.75-1.75H8.375a1.75,1.75,0,0,1,1.75,1.75V16.25A1.75,1.75,0,0,1,8.375,18H5.75A1.75,1.75,0,0,1,4,16.25Zm9.625-1.75a1.75,1.75,0,0,0-1.75,1.75V16.25A1.75,1.75,0,0,0,13.625,18H16.25A1.75,1.75,0,0,0,18,16.25V13.625a1.75,1.75,0,0,0-1.75-1.75Z" transform="translate(-4 -4)" fill="#c4c6d9"/>
</svg>
