<svg xmlns="http://www.w3.org/2000/svg" width="18.785" height="18.785" viewBox="0 0 18.785 18.785">
  <path id="life-ring" d="M16.558,15.452a9.357,9.357,0,0,0,0-12.118l.673-.673a.783.783,0,0,0-1.108-1.107l-.673.673a9.357,9.357,0,0,0-12.118,0L2.66,1.554A.783.783,0,1,0,1.554,2.661l.673.673a9.357,9.357,0,0,0,0,12.118l-.673.673a.783.783,0,1,0,1.108,1.106l.673-.673a9.357,9.357,0,0,0,12.118,0l.673.673a.783.783,0,1,0,1.106-1.108Zm.661-6.059a7.787,7.787,0,0,1-1.771,4.95l-2.8-2.8a3.887,3.887,0,0,0,0-4.31l2.8-2.8a7.787,7.787,0,0,1,1.771,4.95Zm-10.175,0a2.348,2.348,0,1,1,2.348,2.348A2.348,2.348,0,0,1,7.044,9.393ZM9.393,1.565a7.787,7.787,0,0,1,4.95,1.771l-2.8,2.8a3.887,3.887,0,0,0-4.31,0l-2.8-2.8a7.787,7.787,0,0,1,4.95-1.771ZM1.565,9.393a7.787,7.787,0,0,1,1.771-4.95l2.8,2.8a3.887,3.887,0,0,0,0,4.31l-2.8,2.8a7.787,7.787,0,0,1-1.771-4.95ZM9.393,17.22a7.787,7.787,0,0,1-4.95-1.771l2.8-2.8a3.887,3.887,0,0,0,4.31,0l2.8,2.8a7.787,7.787,0,0,1-4.95,1.771Z" transform="translate(0 0)" fill="#fff" opacity="0.455"/>
</svg>
