<svg xmlns="http://www.w3.org/2000/svg" xmlns:xlink="http://www.w3.org/1999/xlink" width="415.691" height="317.422" viewBox="0 0 415.691 317.422"><defs><linearGradient id="a" x1="0.5" x2="0.454" y2="0.612" gradientUnits="objectBoundingBox"><stop offset="0" stop-color="#797da4"/><stop offset="1" stop-color="#efe5ff"/></linearGradient><clipPath id="b"><path d="M373.5,186.3c-4.57-3-40.15-30.72-43.5-31.94s-10,0-10,0-20.62,2.52-24.94,4.26c-.41.16-9.7,5.5-10,5.78-3.35,2.74-18,9.48-21.94,18-4.47,9.64,34.81,67.68,36.64,72.54S311.18,261,320,259.78s16.56-3,22.95-10.31a22.211,22.211,0,0,0,2.89-4.75,9.18,9.18,0,0,0,.66-6.1c-2.28-9.5-8.1-36.89-11.94-55,6.4,4.13,19.71,12.52,27.45,15.48,10.34,4,18.25,1.22,18.25-2.13S378.06,189.34,373.5,186.3Z" transform="translate(-43.77 -98.83)" fill="#fff" stroke="#37474f" stroke-linecap="round" stroke-linejoin="round" stroke-width="0.91"/></clipPath><clipPath id="c"><path d="M267.94,176.17s-3.65,4-5.07,5.85c-7.62,9.79-31.87,41.16-32.14,43.69s.88,4.23,6.81,6.51,45.6-37.47,45.6-37.47" transform="translate(-43.77 -98.83)" fill="#fff" stroke="#37474f" stroke-linecap="round" stroke-linejoin="round" stroke-width="0.91"/></clipPath><clipPath id="d"><path d="M230.7,225.84s-1.77,6.77,9.58,9.58c5.39,1.33,41.06,10,41.06,10s3.19-6.84,1.37-6.84S248,216.71,248,216.71" transform="translate(-43.77 -98.83)" fill="#fff" stroke="#37474f" stroke-linecap="round" stroke-linejoin="round" stroke-width="0.91"/></clipPath><clipPath id="e"><path d="M305.93,184.43c-1.68-.28-10.65-6.16-16.81-10.92s-9.52-5.6-9.52-5.6l-4.2,2.8a8.1,8.1,0,0,1,.56-6.16c1.68-3.08,7.56-6.16,13.44-8.4S302,152,306.21,152s5.32,1.68,5.32,3.92,0,9.24-1.4,14.56S305.93,184.43,305.93,184.43Z" transform="translate(-43.77 -98.83)" fill="#fff" stroke="#37474f" stroke-linecap="round" stroke-linejoin="round" stroke-width="0.91"/></clipPath><clipPath id="f"><path d="M281,148.89a28.69,28.69,0,0,1,6.69,12.77c1.82,7.91,13.26,17.21,16,17.21s2.55-13.56,1.64-17.51-4.56-14.6-4.56-14.6S286.21,139.76,281,148.89Z" transform="translate(-43.77 -98.83)" fill="#fff" stroke="#37474f" stroke-linecap="round" stroke-linejoin="round" stroke-width="0.91"/></clipPath><clipPath id="g"><path d="M271.39,134.23a106.242,106.242,0,0,0,7.93,16.84c4.62,7.59,13.54,11.89,18.49,9.91s8.32-8.37,7-18.27c-.29-2.18-2.19-3.07-2.8-5-2.19-7-4.42-13.75-5.19-16.32-1-3.31-8.92-6.61-17.17-4.3S270.07,126.3,271.39,134.23Z" transform="translate(-43.77 -98.83)" fill="#fff" stroke="#37474f" stroke-linecap="round" stroke-linejoin="round" stroke-width="0.91"/></clipPath></defs><g transform="translate(-1030 -6402)"><g transform="translate(1029.966 6402.009)" style="isolation:isolate"><path d="M386.73,145.24S354.5,102.05,301,99s-83.34,33.45-105.24,60.83-88.2,11.55-128.35,53.53-20.68,66.3-3,90.63S99,332,99,352.06s9.74,46.84,48.06,52.92,77.86-31,105.23-17,73.3,24.94,101.44,17,19.61-37.11,50-46.84,59.61-40.15,55.35-73-28.59-38.93-38.93-70.56S395.25,158.62,386.73,145.24Z" transform="translate(-43.77 -98.83)" opacity="0.5" fill="url(#a)"/><path d="M423.38,411.82c0,1.77-56,3.2-125,3.2s-125-1.43-125-3.2,56-3.19,125-3.19S423.38,410.06,423.38,411.82Z" transform="translate(-43.77 -98.83)" fill="#e1e1e1"/><rect width="130.69" height="59.15" rx="6.62" transform="translate(156.64 16.42)" fill="#787da7"/><path d="M156.64,65.17V86.53l11.91-13.72" fill="#787da7"/><path d="M301,147.7H216.61a2.36,2.36,0,0,1-2.36-2.36h0a2.36,2.36,0,0,1,2.36-2.35H301a2.36,2.36,0,0,1,2.36,2.35h0A2.36,2.36,0,0,1,301,147.7Z" transform="translate(-43.77 -98.83)" fill="#fff"/><path d="M301,158.54H216.61a2.36,2.36,0,0,1-2.36-2.36h0a2.36,2.36,0,0,1,2.36-2.35H301a2.36,2.36,0,0,1,2.36,2.35h0A2.36,2.36,0,0,1,301,158.54Z" transform="translate(-43.77 -98.83)" fill="#fff"/><circle cx="8.48" cy="8.48" r="8.48" transform="translate(169.07 21.07)" fill="#fff"/><rect width="130.69" height="59.15" rx="6.62" transform="translate(156.64 96.47)" fill="#787da7"/><path d="M156.64,145.21v21.36l11.91-13.72" fill="#4285f4"/><path d="M156.64,145.21v21.36l11.91-13.72" opacity="0.1"/><path d="M301,227.74H216.61a2.36,2.36,0,0,1-2.36-2.35h0a2.36,2.36,0,0,1,2.36-2.36H301a2.36,2.36,0,0,1,2.36,2.36h0a2.36,2.36,0,0,1-2.36,2.35Z" transform="translate(-43.77 -98.83)" fill="#fff"/><path d="M301,238.58H216.61a2.36,2.36,0,0,1-2.36-2.35h0a2.36,2.36,0,0,1,2.36-2.36H301a2.36,2.36,0,0,1,2.36,2.36h0a2.36,2.36,0,0,1-2.36,2.35Z" transform="translate(-43.77 -98.83)" fill="#fff"/><circle cx="8.48" cy="8.48" r="8.48" transform="translate(169.07 101.11)" fill="#fff"/><path d="M109.65,312.5c-.09,0-.49-6.27-.47-6.67.23-4.63,3.41-13.45,8.44-14.79a6.14,6.14,0,0,1,7.52,5.21c.58,3.62-1.78,7.48-4.17,10C118.15,309.17,109.65,312.5,109.65,312.5Z" transform="translate(-43.77 -98.83)" fill="#37474f"/><path d="M103.09,288.34c-.09,0,.46-6.26.54-6.66.94-4.54,5.42-12.78,10.58-13.34a6.15,6.15,0,0,1,6.65,6.29c0,3.67-2.89,7.13-5.63,9.24C112,286.35,103.09,288.34,103.09,288.34Z" transform="translate(-43.77 -98.83)" fill="#37474f"/><path d="M101.43,259.83c-.09,0,.47-6.26.55-6.66.93-4.54,5.41-12.78,10.58-13.34a6.14,6.14,0,0,1,6.64,6.29c0,3.67-2.88,7.12-5.63,9.24C110.34,257.84,101.44,259.83,101.43,259.83Z" transform="translate(-43.77 -98.83)" fill="#37474f"/><path d="M98.56,233c-.09,0,.47-6.27.55-6.66.93-4.55,5.41-12.78,10.58-13.35a6.15,6.15,0,0,1,6.64,6.3c0,3.66-2.88,7.12-5.63,9.23C107.47,231,98.57,233,98.56,233Z" transform="translate(-43.77 -98.83)" fill="#37474f"/><path d="M90,211.47c-.08,0-1.2-6.17-1.23-6.57-.3-4.63,1.85-13.76,6.68-15.66a6.14,6.14,0,0,1,8.07,4.31c1,3.53-.9,7.63-3,10.39C98.08,207.19,90,211.47,90,211.47Z" transform="translate(-43.77 -98.83)" fill="#37474f"/><path d="M107,312.57c.1,0-2.63-5.71-2.85-6.05-2.47-3.92-9.56-10.06-14.59-8.77a6.14,6.14,0,0,0-4,8.22c1.26,3.45,5.2,5.66,8.52,6.67C98,313.83,107,312.57,107,312.57Z" transform="translate(-43.77 -98.83)" fill="#37474f"/><path d="M101.75,285.11c.1,0-3.47-5.24-3.73-5.54-3-3.51-11-8.5-15.75-6.47a6.14,6.14,0,0,0-2.72,8.74c1.76,3.21,6,4.8,9.43,5.3C93,287.72,101.75,285.11,101.75,285.11Z" transform="translate(-43.77 -98.83)" fill="#37474f"/><path d="M100.24,258.21c.09,0-3.47-5.24-3.73-5.54-3-3.51-11-8.5-15.76-6.46A6.15,6.15,0,0,0,78,255c1.77,3.21,6,4.8,9.44,5.29C91.49,260.83,100.24,258.22,100.24,258.21Z" transform="translate(-43.77 -98.83)" fill="#37474f"/><path d="M97.65,233.53c.1,0-3.47-5.24-3.73-5.54-3-3.51-11-8.5-15.75-6.47a6.14,6.14,0,0,0-2.72,8.74c1.76,3.22,6,4.8,9.43,5.3C88.9,236.14,97.65,233.53,97.65,233.53Z" transform="translate(-43.77 -98.83)" fill="#37474f"/><path d="M90.06,212.28c.09,0-4-4.82-4.32-5.1-3.4-3.15-11.84-7.24-16.37-4.69a6.14,6.14,0,0,0-1.74,9c2.11,3,6.49,4.12,10,4.23C81.65,215.84,90.06,212.29,90.06,212.28Z" transform="translate(-43.77 -98.83)" fill="#37474f"/><path d="M79.15,194.72c.09,0-1.35-6.14-1.48-6.52-1.57-4.37-7.17-11.88-12.37-11.71a6.15,6.15,0,0,0-5.69,7.17c.5,3.64,3.87,6.64,6.89,8.34C70.05,194,79.14,194.72,79.15,194.72Z" transform="translate(-43.77 -98.83)" fill="#37474f"/><path d="M118.39,344.9s-1.07-2.45-2.75-6.74-4-10.48-6.46-18c-1.23-3.76-2.48-7.86-3.7-12.23-.62-2.2-1.18-4.41-1.79-6.78-.26-1.16-.51-2.33-.77-3.51s-.44-2.43-.66-3.66a139,139,0,0,1-1.53-15.23c-.25-5.19-.35-10.44-.48-15.69s-.26-10.48-.68-15.6a107.248,107.248,0,0,0-2.15-14.91A79,79,0,0,0,93,219.19a108.5,108.5,0,0,0-5.67-11.32c-1.93-3.43-3.91-6.44-5.68-9.1s-3.43-4.9-4.82-6.73c-2.78-3.66-4.52-5.62-4.52-5.62s1.78,1.93,4.65,5.52c1.42,1.81,3.12,4,5,6.64s3.88,5.6,5.89,9a110.077,110.077,0,0,1,6,11.27,81,81,0,0,1,4.81,13.42,108.379,108.379,0,0,1,2.51,15c.53,5.17.8,10.43,1,15.68s.45,10.48.81,15.61a138.915,138.915,0,0,0,1.82,14.92c.25,1.19.4,2.35.71,3.53s.57,2.34.85,3.49c.62,2.19,1.25,4.47,1.91,6.6,1.29,4.29,2.62,8.32,3.92,12,2.58,7.4,5,13.46,6.77,17.68s2.86,6.56,2.86,6.56a1.83,1.83,0,0,1-3.31,1.54h0Z" transform="translate(-43.77 -98.83)" fill="#37474f"/><path d="M141.94,306.14c-.09,0,1.32-6.15,1.45-6.53,1.54-4.37,7.1-11.92,12.29-11.78a6.14,6.14,0,0,1,5.73,7.13c-.47,3.64-3.82,6.67-6.83,8.39C151,305.37,142,306.14,141.94,306.14Z" transform="translate(-43.77 -98.83)" fill="#37474f"/><path d="M142.52,281.12c-.09,0,2.23-5.88,2.42-6.23,2.19-4.1,8.82-10.72,13.93-9.79a6.15,6.15,0,0,1,4.59,7.92c-1,3.53-4.79,6-8,7.25C151.63,281.73,142.53,281.12,142.52,281.12Z" transform="translate(-43.77 -98.83)" fill="#37474f"/><path d="M149,253.31c-.1,0,2.22-5.88,2.41-6.23,2.19-4.09,8.83-10.71,13.94-9.79a6.15,6.15,0,0,1,4.58,7.93c-1,3.52-4.79,6-8,7.25C158.15,253.93,149,253.31,149,253.31Z" transform="translate(-43.77 -98.83)" fill="#37474f"/><path d="M153.91,226.78c-.1,0,2.22-5.87,2.41-6.23,2.19-4.09,8.83-10.71,13.94-9.78a6.14,6.14,0,0,1,4.58,7.92c-1,3.53-4.79,6-8,7.25C163,227.4,153.91,226.78,153.91,226.78Z" transform="translate(-43.77 -98.83)" fill="#37474f"/><path d="M151.84,203.69c-.1,0,.59-6.25.68-6.64,1-4.53,5.68-12.67,10.86-13.12a6.15,6.15,0,0,1,6.51,6.43c0,3.67-3,7.06-5.82,9.11C160.79,201.88,151.84,203.69,151.84,203.69Z" transform="translate(-43.77 -98.83)" fill="#37474f"/><path d="M139.42,305.46c.09,0-.91-6.22-1-6.6-1.25-4.47-6.3-12.37-11.49-12.57a6.15,6.15,0,0,0-6.19,6.75c.23,3.66,3.38,6.9,6.27,8.81C130.39,304.1,139.41,305.46,139.42,305.46Z" transform="translate(-43.77 -98.83)" fill="#37474f"/><path d="M142.16,277.64c.1,0-1.84-6-2-6.38-1.92-4.23-8.11-11.27-13.27-10.68a6.15,6.15,0,0,0-5.09,7.61c.78,3.58,4.39,6.31,7.53,7.76C133,277.66,142.15,277.64,142.16,277.64Z" transform="translate(-43.77 -98.83)" fill="#37474f"/><path d="M148.36,251.42c.09,0-1.84-6-2-6.38-1.91-4.22-8.1-11.26-13.26-10.67A6.15,6.15,0,0,0,128,242c.79,3.59,4.39,6.31,7.54,7.76C139.23,251.44,148.35,251.42,148.36,251.42Z" transform="translate(-43.77 -98.83)" fill="#37474f"/><path d="M152.89,227c.1,0-1.84-6-2-6.38-1.92-4.22-8.1-11.27-13.27-10.67a6.14,6.14,0,0,0-5.09,7.6c.78,3.59,4.39,6.31,7.54,7.76C143.76,227,152.89,227,152.89,227Z" transform="translate(-43.77 -98.83)" fill="#37474f"/><path d="M151.65,204.49c.1,0-2.48-5.77-2.69-6.12-2.37-4-9.29-10.31-14.36-9.15a6.14,6.14,0,0,0-4.22,8.12c1.17,3.47,5.05,5.78,8.34,6.88C142.58,205.51,151.65,204.49,151.65,204.49Z" transform="translate(-43.77 -98.83)" fill="#37474f"/><path d="M146.19,184.55c.08,0,.45-6.27.42-6.67-.26-4.64-3.49-13.44-8.52-14.75a6.15,6.15,0,0,0-7.49,5.26c-.56,3.63,1.82,7.47,4.23,10C137.66,181.27,146.18,184.54,146.19,184.55Z" transform="translate(-43.77 -98.83)" fill="#37474f"/><path d="M141.12,339.69s-.34-2.65-.73-7.25-.86-11.18-1.07-19.09c-.11-4-.15-8.24-.07-12.78,0-2.28.12-4.56.21-7,.08-1.18.17-2.38.25-3.58s.28-2.46.41-3.7a141.271,141.271,0,0,1,2.87-15c1.23-5.05,2.63-10.12,4-15.18s2.72-10.12,3.78-15.16a106.668,106.668,0,0,0,2.17-14.9,79.321,79.321,0,0,0-.48-14.07,107.384,107.384,0,0,0-2.22-12.47c-.88-3.84-1.91-7.29-2.85-10.34s-1.91-5.68-2.71-7.82c-1.63-4.3-2.74-6.68-2.74-6.68s1.16,2.36,2.88,6.62c.86,2.13,1.85,4.74,2.89,7.77s2.12,6.48,3.08,10.31a109.059,109.059,0,0,1,2.51,12.5,80.361,80.361,0,0,1,.8,14.24,108.461,108.461,0,0,1-1.87,15.14c-1,5.1-2.2,10.22-3.47,15.32s-2.55,10.18-3.66,15.2a137.761,137.761,0,0,0-2.5,14.82c-.1,1.21-.28,2.36-.32,3.58s-.12,2.41-.18,3.59c0,2.28-.07,4.64,0,6.87,0,4.49.15,8.73.35,12.64.37,7.83,1,14.34,1.47,18.87s.87,7.11.87,7.11a1.824,1.824,0,1,1-3.61.53v-.05Z" transform="translate(-43.77 -98.83)" fill="#37474f"/><path d="M108.95,306.99H66.61L54.7,237.64h66.15Z" fill="#37474f"/><circle cx="92.07" cy="92.07" r="92.07" transform="translate(91.46 129.4)" fill="#771efc" stroke="#37474f" stroke-linecap="round" stroke-linejoin="round" stroke-width="0.91"/><path d="M352.51,242.87s-3,5.58-3.44,6.36-2.05,5-1.57,6,.94,1.57,1.89,1.73,1.73,1.89,3.3,2.2a16.91,16.91,0,0,0,3,.32,2,2,0,0,0,1.74.31c.94-.31,1.73-.78,2.36-3.46a10,10,0,0,0,.31-4.09l-.28-5.41Z" transform="translate(-43.77 -98.83)" fill="#fff" stroke="#37474f" stroke-linecap="round" stroke-linejoin="round" stroke-width="0.91"/><path d="M369.85,393.12s-4.27,6.95-4.27,8.63,5.88,4.77,8.4,5.89,7,2,10.64,2.52,11.2,2,9-.84S377.9,399,377.34,398.11a15.751,15.751,0,0,0-2.32-2.26Z" transform="translate(-43.77 -98.83)" fill="#fff" stroke="#37474f" stroke-linecap="round" stroke-linejoin="round" stroke-width="0.91"/><path d="M376.54,404.07l1.5,2.24a17.85,17.85,0,0,0,6.38,5.86c4,2.16,10.16,4.63,15.54,3.15,8.82-2.43-13.38-15.82-13.38-15.82S378.67,405,376.54,404.07Z" transform="translate(-43.77 -98.83)" fill="#fff" stroke="#37474f" stroke-linecap="round" stroke-linejoin="round" stroke-width="0.91"/><path d="M379.08,405.13a18.19,18.19,0,0,0,10.36,7.51c7.25,2.07,9.33,1.55,10.88-.52" transform="translate(-43.77 -98.83)" fill="none" stroke="#37474f" stroke-linecap="round" stroke-linejoin="round" stroke-width="0.68"/><path d="M366.13,400.47s8,5.73,11.91,5.84" transform="translate(-43.77 -98.83)" fill="none" stroke="#37474f" stroke-linecap="round" stroke-linejoin="round" stroke-width="0.68"/><path d="M348.76,244.79s7.1,11.77,8.62,14.5,20.68,24.64,28.28,43.5,14.91,35.88,14.6,41.36S375,395.85,375,395.85l-5.17-2.73s7.9-43.5,7-48.06S348,295.18,348,295.18s-13.08-9.12-18.55-19.77" transform="translate(-43.77 -98.83)" fill="#37474f"/><path d="M349.77,274.2s-3.95,8.51-3.95,9.73,22.2,66.61,28.59,81.51a302.464,302.464,0,0,1,10.64,29.2s2.44,3,.61,6.08-9.12,5.17-10.64,2.43-16.43-17-22.81-31.32-15.51-38.63-20.69-47.75a326.649,326.649,0,0,1-18.24-36.2c-6.7-15.81-13.59-32.95-13.59-32.95a69.48,69.48,0,0,0,26.76-3c14-4.56,20-13.29,20-13.29s3.56,9.1,4.47,10.86" transform="translate(-43.77 -98.83)" fill="#37474f"/><path d="M308.08,200.71l-7-18.21,7.84-6.72" fill="none" stroke="#fff" stroke-linecap="round" stroke-linejoin="round" stroke-width="0.68"/><path d="M359.42,280.77l-14.57.56s0-5.6-2.52-9.24-3.08-4.2-3.36-5.32a10.51,10.51,0,0,1,0-3.08" transform="translate(-43.77 -98.83)" fill="none" stroke="#fff" stroke-linecap="round" stroke-linejoin="round" stroke-width="0.68"/><path d="M377.9,341.82s9.24,4.76,15.68,4.2" transform="translate(-43.77 -98.83)" fill="none" stroke="#fff" stroke-linecap="round" stroke-linejoin="round" stroke-width="0.68"/><path d="M379.58,344.62s6.44,5.33,12,6.73" transform="translate(-43.77 -98.83)" fill="none" stroke="#fff" stroke-linecap="round" stroke-linejoin="round" stroke-width="0.68"/><path d="M342.61,260.61c-.28.84,1.12,4.76,2,6.72s3.64,3.36,3.64,4.76-3.64,3.92-3.64,3.92" transform="translate(-43.77 -98.83)" fill="none" stroke="#fff" stroke-linecap="round" stroke-linejoin="round" stroke-width="0.68"/><path d="M318.53,267.89s-1.68,5.6-4.48,7.84l-2.8,2.24" transform="translate(-43.77 -98.83)" fill="none" stroke="#fff" stroke-linecap="round" stroke-linejoin="round" stroke-width="0.68"/><path d="M307.33,266.77s4.76,15.68,11.76,27.73,23,38.08,23.52,43.12,0,10.08,3.92,12.61,3.64,3.64,4.2,7a32.219,32.219,0,0,0,2.25,7s11.2,19,15.12,26a108.758,108.758,0,0,0,9.63,13.89" transform="translate(-43.77 -98.83)" fill="none" stroke="#fff" stroke-linecap="round" stroke-linejoin="round" stroke-width="0.68"/><path d="M299.69,254.93s.64,7.08,3.44,9.32,11.2,4.2,22.68,2,24.08-12,25.2-15.4-4.58-12.2-4.58-12.2-6.62,9.4-25.1,12.48S299.69,254.93,299.69,254.93Z" transform="translate(-43.77 -98.83)" fill="#fff" stroke="#37474f" stroke-linecap="round" stroke-linejoin="round" stroke-width="0.91"/><path d="M373.5,186.3c-4.57-3-40.15-30.72-43.5-31.94s-10,0-10,0-20.62,2.52-24.94,4.26c-.41.16-9.7,5.5-10,5.78-3.35,2.74-18,9.48-21.94,18-4.47,9.64,34.81,67.68,36.64,72.54S311.18,261,320,259.78s16.56-3,22.95-10.31a22.211,22.211,0,0,0,2.89-4.75,9.18,9.18,0,0,0,.66-6.1c-2.28-9.5-8.1-36.89-11.94-55,6.4,4.13,19.71,12.52,27.45,15.48,10.34,4,18.25,1.22,18.25-2.13S378.06,189.34,373.5,186.3Z" transform="translate(-43.77 -98.83)" fill="#f8b409"/><g clip-path="url(#b)"><path d="M334.08,176.4a30.111,30.111,0,0,0,8.51,1.82c3.65,0,1.52,1.52,0,2.13s9.74-.91,9.43.91-8.21,5.48-8.21,5.48a44.19,44.19,0,0,0,17.34,5.47c10.64,1.22,4,7.61,4,7.61s-17.12-6.29-30.61-16.23Z" transform="translate(-43.77 -98.83)" fill="#4285f4" opacity="0.5" style="mix-blend-mode:multiply;isolation:isolate"/><g opacity="0.5"><path d="M280.24,197.08s-2.43,3.95-1.21,4.26,13.68-4.87,9.43-.61-9.43,4.26-7.3,5.47,7.6,1.22,5.78,2.44,1.82,6.69,10.94,17.64S311,244.83,321,250s16.73,5.17,10.65,6.69-12.47,2.43-12.78,5.17c0,0,.31,2.13-3.34,3.65s-5.78,1.22-8.52,0-3.65-1.22-4.26-2.74-3.06-7.84-3.06-7.84l-4.36-9.32-1.4-2-1.22-.91-21.29-36.5Z" transform="translate(-43.77 -98.83)" fill="#4285f4" style="mix-blend-mode:multiply;isolation:isolate"/></g></g><path d="M373.5,186.3c-4.57-3-40.15-30.72-43.5-31.94s-10,0-10,0-20.62,2.52-24.94,4.26c-.41.16-9.7,5.5-10,5.78-3.35,2.74-18,9.48-21.94,18-4.47,9.64,34.81,67.68,36.64,72.54S311.18,261,320,259.78s16.56-3,22.95-10.31a22.211,22.211,0,0,0,2.89-4.75,9.18,9.18,0,0,0,.66-6.1c-2.28-9.5-8.1-36.89-11.94-55,6.4,4.13,19.71,12.52,27.45,15.48,10.34,4,18.25,1.22,18.25-2.13S378.06,189.34,373.5,186.3Z" transform="translate(-43.77 -98.83)" fill="none" stroke="#37474f" stroke-linecap="round" stroke-linejoin="round" stroke-width="0.91"/><path d="M267.94,176.17s-3.65,4-5.07,5.85c-7.62,9.79-31.87,41.16-32.14,43.69s.88,4.23,6.81,6.51,45.6-37.47,45.6-37.47" transform="translate(-43.77 -98.83)" fill="#f8b409"/><g clip-path="url(#c)"><g opacity="0.5"><path d="M270.21,175.48,241,216.24s3,3.35,6.69,6.69,10,5.48,5.17,5.17-14-3.95-14-3.95-2.74,2.13.61,4.26,3.95.6,13.69,5.47,25.3,8,25.3,8l-1.26,2.56-41.38-10.57s-6-3-5.14-8,14.83-21,14.83-21l20-26.21S267.39,175.88,270.21,175.48Z" transform="translate(-43.77 -98.83)" fill="#4285f4" opacity="0.8" style="mix-blend-mode:multiply;isolation:isolate"/></g></g><path d="M267.94,176.17s-3.65,4-5.07,5.85c-7.62,9.79-31.87,41.16-32.14,43.69s.88,4.23,6.81,6.51,45.6-37.47,45.6-37.47" transform="translate(-43.77 -98.83)" fill="none" stroke="#37474f" stroke-linecap="round" stroke-linejoin="round" stroke-width="0.91"/><path d="M348.21,174.35l-13.72,9.24c2-.28,11.48-3.64,11.48-3.64" transform="translate(-43.77 -98.83)" fill="none" stroke="#37474f" stroke-linecap="round" stroke-linejoin="round" stroke-width="0.68"/><line y1="0.56" x2="3.08" transform="translate(303.88 80.28)" fill="none" stroke="#37474f" stroke-linecap="round" stroke-linejoin="round" stroke-width="0.68"/><path d="M246,216a14.57,14.57,0,0,0-6.17,1.17" transform="translate(-43.77 -98.83)" fill="none" stroke="#37474f" stroke-linecap="round" stroke-linejoin="round" stroke-width="0.91"/><path d="M275.9,202.29s7.71-2.36,9.75-3.93" transform="translate(-43.77 -98.83)" fill="none" stroke="#37474f" stroke-linecap="round" stroke-linejoin="round" stroke-width="0.68"/><path d="M287.54,197.58s1.26-1.1,1.73-1.1" transform="translate(-43.77 -98.83)" fill="none" stroke="#37474f" stroke-linecap="round" stroke-linejoin="round" stroke-width="0.68"/><line x1="1.25" y1="12.86" transform="translate(289.47 71.91)" fill="#fff" stroke="#37474f" stroke-linecap="round" stroke-linejoin="round" stroke-width="0.91"/><path d="M230.7,225.84s-1.77,6.77,9.58,9.58c5.39,1.33,41.06,10,41.06,10s3.19-6.84,1.37-6.84S248,216.71,248,216.71" transform="translate(-43.77 -98.83)" fill="#f8b409"/><g clip-path="url(#d)"><path d="M270.21,175.48,241,216.24s3,3.35,6.69,6.69,10,5.48,5.17,5.17-14-3.95-14-3.95-2.74,2.13.61,4.26,3.95.6,13.69,5.47,25.31,8,25.31,8l-1.1,2.62-41.55-10.61s-7.87-3.72-5.14-8c3.1-4.91,14.83-21,14.83-21l20.42-26A4.52,4.52,0,0,1,270.21,175.48Z" transform="translate(-43.77 -98.83)" fill="#4285f4" opacity="0.5" style="mix-blend-mode:multiply;isolation:isolate"/></g><path d="M230.7,225.84s-1.77,6.77,9.58,9.58c5.39,1.33,41.06,10,41.06,10s3.19-6.84,1.37-6.84S248,216.71,248,216.71" transform="translate(-43.77 -98.83)" fill="none" stroke="#37474f" stroke-linecap="round" stroke-linejoin="round" stroke-width="0.91"/><path d="M282.71,238.61s11.71,5.48,12.62,7,3,9.42,3,11.86-.3,2.43-1.82,2.43-5.48-5.78-6.39-7-3-1.22-5.78-3a6.72,6.72,0,0,1-3-4.41Z" transform="translate(-43.77 -98.83)" fill="#fff" stroke="#37474f" stroke-linecap="round" stroke-linejoin="round" stroke-width="0.91"/><line y1="5.65" x2="1.82" transform="translate(233.94 139.8)" fill="none" stroke="#37474f" stroke-linecap="round" stroke-linejoin="round" stroke-width="0.91"/><path d="M305.1,184.43s-18.76-10.66-25.49-9.7-12.5,1.92-12.5,1.92l12.49-8.74C285.77,170.87,294.79,177.43,305.1,184.43Z" transform="translate(-43.77 -98.83)" fill="#4285f4" opacity="0.4" style="mix-blend-mode:multiply;isolation:isolate"/><path d="M366.5,196s-3,10.34-4.26,16.42-9.73,30.42-9.73,30.42l7.3,4.56S375.93,214,379,206.68s2.13-12.78-.91-15.82" transform="translate(-43.77 -98.83)" fill="#f8b409" stroke="#37474f" stroke-linecap="round" stroke-linejoin="round" stroke-width="0.91"/><path d="M353.89,239.36c.55,0,7.48,3.82,7.48,3.82" transform="translate(-43.77 -98.83)" fill="#37474f"/><path d="M305.93,184.43c-1.68-.28-10.65-6.16-16.81-10.92s-9.52-5.6-9.52-5.6l-4.2,2.8a8.1,8.1,0,0,1,.56-6.16c1.68-3.08,7.56-6.16,13.44-8.4S302,152,306.21,152s5.32,1.68,5.32,3.92,0,9.24-1.4,14.56S305.93,184.43,305.93,184.43Z" transform="translate(-43.77 -98.83)" fill="#fff"/><g clip-path="url(#e)"><g opacity="0.5"><path d="M303.29,155.23s-2.59,7.76-5.18,10.09a38.761,38.761,0,0,1-6.46,4.39s-1.55-5.43-5.43-5.43-9.83,2.59-9.83,2.59,0-2.07,4.91-4.66l4.92-2.58,11.38-4.4Z" transform="translate(-43.77 -98.83)" fill="#4285f4" style="mix-blend-mode:multiply;isolation:isolate"/></g></g><path d="M305.93,184.43c-1.68-.28-10.65-6.16-16.81-10.92s-9.52-5.6-9.52-5.6l-4.2,2.8a8.1,8.1,0,0,1,.56-6.16c1.68-3.08,7.56-6.16,13.44-8.4S302,152,306.21,152s5.32,1.68,5.32,3.92,0,9.24-1.4,14.56S305.93,184.43,305.93,184.43Z" transform="translate(-43.77 -98.83)" fill="none" stroke="#37474f" stroke-linecap="round" stroke-linejoin="round" stroke-width="0.91"/><path d="M281,148.89a28.69,28.69,0,0,1,6.69,12.77c1.82,7.91,13.26,17.21,16,17.21s2.55-13.56,1.64-17.51-4.56-14.6-4.56-14.6S286.21,139.76,281,148.89Z" transform="translate(-43.77 -98.83)" fill="#fff"/><g clip-path="url(#f)"><g opacity="0.5"><path d="M303.29,155.23s-2.59,7.76-5.18,10.09a38.761,38.761,0,0,1-6.46,4.39s-1.55-5.43-5.43-5.43-9.83,2.59-9.83,2.59,0-2.07,4.91-4.66l4.92-2.58,11.38-4.4Z" transform="translate(-43.77 -98.83)" fill="#4285f4" style="mix-blend-mode:multiply;isolation:isolate"/></g></g><path d="M281,148.89a28.69,28.69,0,0,1,6.69,12.77c1.82,7.91,13.26,17.21,16,17.21s2.55-13.56,1.64-17.51-4.56-14.6-4.56-14.6S286.21,139.76,281,148.89Z" transform="translate(-43.77 -98.83)" fill="none" stroke="#37474f" stroke-linecap="round" stroke-linejoin="round" stroke-width="0.91"/><path d="M271.39,134.23a106.242,106.242,0,0,0,7.93,16.84c4.62,7.59,13.54,11.89,18.49,9.91s8.32-8.37,7-18.27c-.29-2.18-2.19-3.07-2.8-5-2.19-7-4.42-13.75-5.19-16.32-1-3.31-8.92-6.61-17.17-4.3S270.07,126.3,271.39,134.23Z" transform="translate(-43.77 -98.83)" fill="#fff"/><g clip-path="url(#g)"><path d="M298.8,128.17s-3,2.23-9.74.94-11.38-1-11.12.78.78,4.13.78,4.13-8.09-7-.76-8.86c5.28-1.37,8.33.71,9.62,1S298.8,128.17,298.8,128.17Z" transform="translate(-43.77 -98.83)" fill="#4285f4" opacity="0.5" style="mix-blend-mode:multiply;isolation:isolate"/></g><path d="M271.39,134.23a106.242,106.242,0,0,0,7.93,16.84c4.62,7.59,13.54,11.89,18.49,9.91s8.32-8.37,7-18.27c-.29-2.18-2.19-3.07-2.8-5-2.19-7-4.42-13.75-5.19-16.32-1-3.31-8.92-6.61-17.17-4.3S270.07,126.3,271.39,134.23Z" transform="translate(-43.77 -98.83)" fill="none" stroke="#37474f" stroke-linecap="round" stroke-linejoin="round" stroke-width="0.91"/><path d="M277.34,145.12s-5.29-2.31-5.62,0,2,4,4.29,5a3.28,3.28,0,0,0,3.64-.33" transform="translate(-43.77 -98.83)" fill="#fff" stroke="#37474f" stroke-linecap="round" stroke-linejoin="round" stroke-width="0.91"/><path d="M298.93,132.06s-5.89-1.4-3.37,6.45c.5,1.55,3.93,3.36,3.93,3.36s-.28,2.52-1.68,2.8" transform="translate(-43.77 -98.83)" fill="#fff" stroke="#37474f" stroke-linecap="round" stroke-linejoin="round" stroke-width="0.91"/><path d="M294.72,150.27s-4.2.84-5.88-1.12" transform="translate(-43.77 -98.83)" fill="#fff" stroke="#37474f" stroke-linecap="round" stroke-linejoin="round" stroke-width="0.91"/><path d="M288.56,137.11s-3.08-1.12-4.76.28a5.59,5.59,0,0,0-2,2.52" transform="translate(-43.77 -98.83)" fill="#fff" stroke="#37474f" stroke-linecap="round" stroke-linejoin="round" stroke-width="0.91"/><path d="M288.48,141.9c.4.93.32,1.85-.18,2.06s-1.22-.36-1.62-1.29-.31-1.84.19-2.06S288.09,141,288.48,141.9Z" transform="translate(-43.77 -98.83)" fill="#37474f"/><path d="M298.55,137c.4.92.31,1.84-.18,2.06s-1.23-.37-1.62-1.29-.32-1.85.18-2.06S298.15,136.08,298.55,137Z" transform="translate(-43.77 -98.83)" fill="#37474f"/><path d="M275.87,146.45s3.34-2.43,2.73-4.56-1.82-2.13-.6-3.34,2.12-1.83,1.82-3.65-5.17-4.87-3.65-6.69.91-4,13.38-.92,20.38-1.82,16.73-6.38-6.69-5.17-6.69-5.17,7-3,1.22-6.09-18.86-3-26.16,2.74S268.87,123,268.87,123s-3.95.61-4.26,6.7S275.87,146.45,275.87,146.45Z" transform="translate(-43.77 -98.83)" fill="#37474f"/><path d="M275.79,125.67s1-3.09,6.19-3.09,9.8,4.38,16.76,2.83,3.1-5.67,3.1-5.67" transform="translate(-43.77 -98.83)" fill="none" stroke="#fff" stroke-linecap="round" stroke-linejoin="round" stroke-width="0.68"/><path d="M273.46,124.9s.5-6.41,6.19-7.85,13.16,1.4,15.22.62" transform="translate(-43.77 -98.83)" fill="none" stroke="#fff" stroke-linecap="round" stroke-linejoin="round" stroke-width="0.68"/><path d="M270.63,125.16s-3.1,0-3.36,4.12a6.73,6.73,0,0,0,2.32,5.93" transform="translate(-43.77 -98.83)" fill="none" stroke="#fff" stroke-linecap="round" stroke-linejoin="round" stroke-width="0.68"/><path d="M273.46,127.73a3.29,3.29,0,0,0-1.8,4.65" transform="translate(-43.77 -98.83)" fill="none" stroke="#fff" stroke-linecap="round" stroke-linejoin="round" stroke-width="0.68"/><line x2="1.29" y2="1.81" transform="translate(227.37 37.16)" fill="none" stroke="#fff" stroke-linecap="round" stroke-linejoin="round" stroke-width="0.68"/></g><g transform="translate(1148 6514.659)"><path d="M86.264,67.522,74.158,79.707a27.361,27.361,0,0,0-33.515,33.515L21.749,132.063A75.519,75.519,0,0,1,0,106.121a75.284,75.284,0,0,1,86.212-38.6Zm25.995,12.657a76.543,76.543,0,0,1,21.907,25.942,75.282,75.282,0,0,1-86.343,38.6l12.106-12.185A27.361,27.361,0,0,0,93.444,99.019L112.337,80.2h-.079Zm-1.7-27.279,9.722,9.722-96.746,96.72L13.81,149.62Z" fill="#fff"/></g></g></svg>