<svg xmlns="http://www.w3.org/2000/svg" xmlns:xlink="http://www.w3.org/1999/xlink" width="451.091" height="356.56" viewBox="0 0 451.091 356.56"><defs><linearGradient id="a" x1="0.5" x2="0.5" y2="0.871" gradientUnits="objectBoundingBox"><stop offset="0" stop-color="#797da4"/><stop offset="1" stop-color="#efe5ff" stop-opacity="0"/></linearGradient></defs><g transform="translate(-0.012)"><path d="M26.28,343.24c.07-.18,444.94-3.48,444.68,0-.22,2.82,30.21-113.3-67-107.63,0,0,21.76-46.59-10.44-74.31-34-29.27-77.37-4.05-77.37-4.05s-38.8-96.2-126.6-66.93c-100.33,33.44-73.24,148.19-73.24,148.19S24.86,230.93,26.28,343.24Z" transform="translate(-24.2 -63.59)" opacity="0.5" fill="url(#a)"/><path d="M149.18,111.37l-37-5.15-3.4,24.15,36.57,6.1ZM147,112l-18.14,8.72-14.77-13.3Zm-37.12,17.53,3.07-21.84,15.74,14.19L148,112.61l-3.49,22.75Z" transform="translate(-24.2 -63.59)" fill="#4285f4"/><path d="M149.18,111.37l-37-5.15-3.4,24.15,36.57,6.1ZM147,112l-18.14,8.72-14.77-13.3Zm-37.12,17.53,3.07-21.84,15.74,14.19L148,112.61l-3.49,22.75Z" transform="translate(-24.2 -63.59)" fill="#fff" opacity="0.6"/><path d="M330.94,88.46,300.5,115.09l39.18,47.18.31.37L372,135.3Zm39,45.91-34-9.2L331.6,90.65Zm-68.1-19.17,28.69-25.09,4.5,35.82,35.31,9.55-30.23,25.79Z" transform="translate(-24.2 -63.59)" fill="#4285f4"/><path d="M330.94,88.46,300.5,115.09l39.18,47.18.31.37L372,135.3Zm39,45.91-34-9.2L331.6,90.65Zm-68.1-19.17,28.69-25.09,4.5,35.82,35.31,9.55-30.23,25.79Z" transform="translate(-24.2 -63.59)" fill="#fff" opacity="0.6"/><path d="M60.55,226.13h0a.5.5,0,0,1-.48-.49c0-.65,0-1.29,0-1.94a.5.5,0,0,1,1,0v1.93a.49.49,0,0,1-.52.5Zm.2-6.77h0a.48.48,0,0,1-.46-.5l.09-1.94a.49.49,0,0,1,.51-.45.48.48,0,0,1,.46.5c0,.65-.07,1.29-.09,1.93A.49.49,0,0,1,60.75,219.36Zm.39-6.75h0a.49.49,0,0,1-.45-.51l.15-1.93a.48.48,0,0,1,.52-.45.49.49,0,0,1,.44.52c0,.64-.1,1.28-.14,1.93a.49.49,0,0,1-.52.44Zm.56-6.75h0a.49.49,0,0,1-.44-.53c.07-.64.13-1.28.2-1.93a.5.5,0,0,1,1,.11c-.07.64-.13,1.28-.2,1.92a.47.47,0,0,1-.56.43Zm.76-6.72H62.4a.49.49,0,0,1-.42-.54c.08-.64.17-1.28.25-1.92a.49.49,0,0,1,.55-.41.48.48,0,0,1,.41.54c-.08.64-.17,1.28-.25,1.91a.49.49,0,0,1-.48.42Zm1-6.7h-.08a.48.48,0,0,1-.4-.55c.1-.64.2-1.28.31-1.91a.506.506,0,1,1,1,.16c-.1.63-.21,1.26-.31,1.9a.48.48,0,0,1-.56.4Zm1.16-6.67h-.1a.48.48,0,0,1-.38-.56c.12-.64.24-1.27.37-1.9a.47.47,0,0,1,.57-.38.48.48,0,0,1,.38.57c-.13.63-.25,1.26-.37,1.89a.48.48,0,0,1-.51.38ZM66,179.14h-.11a.47.47,0,0,1-.36-.57c.14-.64.28-1.26.43-1.89a.483.483,0,1,1,.94.22c-.14.62-.29,1.25-.43,1.88a.48.48,0,0,1-.47.36Zm1.59-6.57h-.12a.47.47,0,0,1-.34-.59c.16-.62.32-1.25.49-1.87a.49.49,0,0,1,.94.25c-.17.62-.34,1.25-.5,1.87a.48.48,0,0,1-.52.34Zm1.83-6.52a.32.32,0,0,1-.14,0,.48.48,0,0,1-.33-.6l.57-1.85a.481.481,0,1,1,.92.28c-.19.62-.38,1.23-.56,1.85a.48.48,0,0,1-.51.32Zm2-6.44h-.15A.48.48,0,0,1,71,159c.2-.62.42-1.23.63-1.84a.482.482,0,0,1,.91.32l-.63,1.83a.48.48,0,0,1-.49.3Zm2.3-6.37h-.17a.5.5,0,0,1-.28-.63c.23-.6.47-1.2.71-1.8a.48.48,0,0,1,.89.35c-.23.6-.47,1.2-.69,1.8a.5.5,0,0,1-.46.28ZM76.27,147a.43.43,0,0,1-.19,0,.49.49,0,0,1-.26-.64l.78-1.77a.481.481,0,1,1,.88.39l-.77,1.77a.48.48,0,0,1-.44.25Zm2.79-6.16a.49.49,0,0,1-.43-.7c.28-.58.56-1.16.85-1.74a.48.48,0,0,1,.65-.22.49.49,0,0,1,.21.65l-.84,1.73a.49.49,0,0,1-.44.25Zm3.06-6.05a.46.46,0,0,1-.23-.06.47.47,0,0,1-.2-.65c.3-.57.61-1.14.92-1.71a.49.49,0,0,1,.85.47l-.92,1.69a.46.46,0,0,1-.42.23Zm3.31-5.9a.47.47,0,0,1-.25-.07.49.49,0,0,1-.17-.66c.33-.56.67-1.11,1-1.67a.47.47,0,0,1,.66-.16.49.49,0,0,1,.16.67q-.51.82-1,1.65a.5.5,0,0,1-.4.21ZM89,123.11a.47.47,0,0,1-.27-.08.48.48,0,0,1-.13-.67c.35-.54.71-1.07,1.07-1.61a.5.5,0,0,1,.68-.13.48.48,0,0,1,.13.67c-.37.53-.72,1.07-1.08,1.61a.46.46,0,0,1-.4.21Zm3.86-5.56a.52.52,0,0,1-.29-.09.49.49,0,0,1-.1-.68l1.15-1.56a.482.482,0,1,1,.77.58l-1.14,1.55a.49.49,0,0,1-.37.2ZM97,112.17a.43.43,0,0,1-.3-.11.49.49,0,0,1-.08-.68l1.23-1.5a.483.483,0,0,1,.75.61L97.37,112a.49.49,0,0,1-.37.17Zm4.36-5.18a.51.51,0,0,1-.32-.12.48.48,0,0,1,0-.68c.43-.48.86-1,1.3-1.44a.48.48,0,0,1,.68,0,.49.49,0,0,1,0,.69c-.43.47-.86.95-1.28,1.43a.49.49,0,0,1-.39.13Zm211.76-1.58a.39.39,0,0,1-.18,0l-1.79-.73a.482.482,0,0,1,.37-.89l1.79.73a.49.49,0,0,1,.26.63.47.47,0,0,1-.46.26Zm-6.25-2.6a.57.57,0,0,1-.18,0L304.9,102a.49.49,0,0,1-.26-.64.48.48,0,0,1,.64-.25l1.77.76a.48.48,0,0,1,.26.63.49.49,0,0,1-.45.31ZM106,102a.47.47,0,0,1-.34-.13.49.49,0,0,1,0-.69L107,99.83a.49.49,0,0,1,.69.69c-.46.45-.91.91-1.36,1.37A.49.49,0,0,1,106,102Zm194.69-1.9a.45.45,0,0,1-.19,0l-1.77-.78a.48.48,0,0,1-.25-.64.49.49,0,0,1,.64-.24l1.77.78a.49.49,0,0,1-.2.93Zm-6.18-2.76a.49.49,0,0,1-.2-.05l-1.76-.79a.49.49,0,0,1-.24-.64.48.48,0,0,1,.64-.24l1.76.79a.49.49,0,0,1,.24.64.48.48,0,0,1-.48.32ZM110.79,97.3a.44.44,0,0,1-.35-.16.49.49,0,0,1,0-.68l1.43-1.31a.48.48,0,0,1,.68,0,.49.49,0,0,1,0,.69l-1.42,1.3A.46.46,0,0,1,110.79,97.3Zm177.52-2.73a.46.46,0,0,1-.2,0l-1.76-.8a.483.483,0,1,1,.4-.88l1.76.8a.49.49,0,0,1-.2.93ZM115.85,92.81a.49.49,0,0,1-.31-.86L117,90.71a.49.49,0,0,1,.68.07.48.48,0,0,1-.07.68l-1.48,1.23a.47.47,0,0,1-.28.12Zm166.31-1.07a.52.52,0,0,1-.21,0l-1.75-.8a.49.49,0,0,1-.24-.65.48.48,0,0,1,.64-.23l1.76.8a.457.457,0,0,1-.2.88ZM276,88.93a.71.71,0,0,1-.2,0l-1.8-.85a.483.483,0,0,1,.4-.88l1.76.81a.48.48,0,0,1,.24.64.5.5,0,0,1-.4.28Zm-154.87-.35a.49.49,0,0,1-.39-.2.47.47,0,0,1,.1-.67l1.55-1.17a.48.48,0,0,1,.67.11.47.47,0,0,1-.1.67l-1.54,1.16a.53.53,0,0,1-.29.1Zm148.7-2.44a.51.51,0,0,1-.2,0l-1.76-.79a.48.48,0,0,1-.25-.64.49.49,0,0,1,.64-.24l1.77.79a.48.48,0,0,1,.24.64.47.47,0,0,1-.44.24ZM126.61,84.62a.46.46,0,0,1-.39-.21.47.47,0,0,1,.12-.67c.54-.37,1.07-.73,1.61-1.08a.48.48,0,0,1,.67.13.47.47,0,0,1-.14.67l-1.59,1.08a.57.57,0,0,1-.28.08Zm137-1.21a.41.41,0,0,1-.19,0l-1.78-.76a.49.49,0,0,1-.25-.64.48.48,0,0,1,.63-.25l1.78.76a.48.48,0,0,1,.25.64.49.49,0,0,1-.41.25ZM132.3,81a.48.48,0,0,1-.41-.23.49.49,0,0,1,.16-.67l1.66-1a.482.482,0,1,1,.49.83c-.55.33-1.1.65-1.65,1a.45.45,0,0,1-.25.07Zm125.11-.19a.43.43,0,0,1-.19,0L255.44,80a.485.485,0,1,1,.36-.9l1.79.74a.48.48,0,0,1-.18.93Zm-6.28-2.54a.51.51,0,0,1-.17,0l-1.8-.7a.483.483,0,0,1,.35-.9l1.8.7a.48.48,0,0,1,.27.63.47.47,0,0,1-.45.23Zm-112.95-.62a.48.48,0,0,1-.23-.91c.57-.31,1.14-.6,1.72-.9a.483.483,0,1,1,.44.86l-1.7.89a.53.53,0,0,1-.23.02ZM244.8,75.83a.45.45,0,0,1-.16,0l-1.82-.65a.484.484,0,0,1,.33-.91l1.82.65a.5.5,0,0,1,.29.63A.49.49,0,0,1,244.8,75.83ZM144.23,74.6a.49.49,0,0,1-.2-.93l1.77-.79a.47.47,0,0,1,.63.24.48.48,0,0,1-.24.64l-1.76.79a.46.46,0,0,1-.2.05Zm94.19-1a.45.45,0,0,1-.16,0l-1.83-.6a.484.484,0,0,1,.3-.92l1.84.62a.453.453,0,0,1-.15.89Zm-88-1.65a.5.5,0,0,1-.45-.31.47.47,0,0,1,.28-.62l1.81-.7a.49.49,0,0,1,.62.29.48.48,0,0,1-.28.62q-.9.33-1.8.69a.57.57,0,0,1-.15.02ZM232,71.52a.34.34,0,0,1-.14,0L230,71a.48.48,0,0,1-.33-.6.49.49,0,0,1,.6-.33l1.86.56a.48.48,0,0,1-.14.94Zm-6.51-1.85h-.13l-1.86-.49a.48.48,0,0,1,.24-.93l1.87.49a.49.49,0,0,1,.35.59.5.5,0,0,1-.5.34Zm-68.64,0a.482.482,0,0,1-.15-.94c.62-.2,1.24-.4,1.86-.58a.481.481,0,1,1,.28.92l-1.84.58Zm62.07-1.61h-.11l-1.89-.42a.481.481,0,0,1,.2-.94l1.9.41a.49.49,0,0,1,.37.58.48.48,0,0,1-.5.36Zm-55.57-.27a.5.5,0,0,1-.47-.36.49.49,0,0,1,.35-.59l1.89-.47a.48.48,0,0,1,.58.36.5.5,0,0,1-.36.59c-.62.14-1.25.3-1.87.46Zm48.93-1.08h-.09l-1.9-.33a.506.506,0,1,1,.16-1l1.92.33a.5.5,0,0,1-.09,1Zm-42.32-.38a.47.47,0,0,1-.47-.4.48.48,0,0,1,.38-.56l1.92-.34a.506.506,0,1,1,.16,1l-1.9.34Zm35.63-.67h-.06c-.64-.09-1.27-.17-1.91-.24a.5.5,0,0,1,.11-1l1.93.24a.48.48,0,0,1,.41.54.49.49,0,0,1-.51.45Zm-28.93-.36a.5.5,0,1,1-.06-1l1.94-.22a.49.49,0,0,1,.53.44.5.5,0,0,1-.44.53c-.64.06-1.28.13-1.91.21Zm22.2-.36h0l-1.92-.14a.48.48,0,0,1-.45-.51.49.49,0,0,1,.52-.45l1.93.14a.48.48,0,0,1,.45.52.49.49,0,0,1-.56.43Zm-15.45-.22a.5.5,0,0,1,0-1l1.94-.08a.46.46,0,0,1,.5.46.48.48,0,0,1-.46.5,13.787,13.787,0,0,0-1.93.09Zm8.7-.13h-1.92a.5.5,0,0,1,0-1h1.94a.47.47,0,0,1,.47.49.48.48,0,0,1-.52.5Z" transform="translate(-24.2 -63.59)" fill="#4285f4"/><path d="M60.55,226.13h0a.5.5,0,0,1-.48-.49c0-.65,0-1.29,0-1.94a.5.5,0,0,1,1,0v1.93a.49.49,0,0,1-.52.5Zm.2-6.77h0a.48.48,0,0,1-.46-.5l.09-1.94a.49.49,0,0,1,.51-.45.48.48,0,0,1,.46.5c0,.65-.07,1.29-.09,1.93A.49.49,0,0,1,60.75,219.36Zm.39-6.75h0a.49.49,0,0,1-.45-.51l.15-1.93a.48.48,0,0,1,.52-.45.49.49,0,0,1,.44.52c0,.64-.1,1.28-.14,1.93a.49.49,0,0,1-.52.44Zm.56-6.75h0a.49.49,0,0,1-.44-.53c.07-.64.13-1.28.2-1.93a.5.5,0,0,1,1,.11c-.07.64-.13,1.28-.2,1.92a.47.47,0,0,1-.56.43Zm.76-6.72H62.4a.49.49,0,0,1-.42-.54c.08-.64.17-1.28.25-1.92a.49.49,0,0,1,.55-.41.48.48,0,0,1,.41.54c-.08.64-.17,1.28-.25,1.91a.49.49,0,0,1-.48.42Zm1-6.7h-.08a.48.48,0,0,1-.4-.55c.1-.64.2-1.28.31-1.91a.506.506,0,1,1,1,.16c-.1.63-.21,1.26-.31,1.9a.48.48,0,0,1-.56.4Zm1.16-6.67h-.1a.48.48,0,0,1-.38-.56c.12-.64.24-1.27.37-1.9a.47.47,0,0,1,.57-.38.48.48,0,0,1,.38.57c-.13.63-.25,1.26-.37,1.89a.48.48,0,0,1-.51.38ZM66,179.14h-.11a.47.47,0,0,1-.36-.57c.14-.64.28-1.26.43-1.89a.483.483,0,1,1,.94.22c-.14.62-.29,1.25-.43,1.88a.48.48,0,0,1-.47.36Zm1.59-6.57h-.12a.47.47,0,0,1-.34-.59c.16-.62.32-1.25.49-1.87a.49.49,0,0,1,.94.25c-.17.62-.34,1.25-.5,1.87a.48.48,0,0,1-.52.34Zm1.83-6.52a.32.32,0,0,1-.14,0,.48.48,0,0,1-.33-.6l.57-1.85a.481.481,0,1,1,.92.28c-.19.62-.38,1.23-.56,1.85a.48.48,0,0,1-.51.32Zm2-6.44h-.15A.48.48,0,0,1,71,159c.2-.62.42-1.23.63-1.84a.482.482,0,0,1,.91.32l-.63,1.83a.48.48,0,0,1-.49.3Zm2.3-6.37h-.17a.5.5,0,0,1-.28-.63c.23-.6.47-1.2.71-1.8a.48.48,0,0,1,.89.35c-.23.6-.47,1.2-.69,1.8a.5.5,0,0,1-.46.28ZM76.27,147a.43.43,0,0,1-.19,0,.49.49,0,0,1-.26-.64l.78-1.77a.481.481,0,1,1,.88.39l-.77,1.77a.48.48,0,0,1-.44.25Zm2.79-6.16a.49.49,0,0,1-.43-.7c.28-.58.56-1.16.85-1.74a.48.48,0,0,1,.65-.22.49.49,0,0,1,.21.65l-.84,1.73a.49.49,0,0,1-.44.25Zm3.06-6.05a.46.46,0,0,1-.23-.06.47.47,0,0,1-.2-.65c.3-.57.61-1.14.92-1.71a.49.49,0,0,1,.85.47l-.92,1.69a.46.46,0,0,1-.42.23Zm3.31-5.9a.47.47,0,0,1-.25-.07.49.49,0,0,1-.17-.66c.33-.56.67-1.11,1-1.67a.47.47,0,0,1,.66-.16.49.49,0,0,1,.16.67q-.51.82-1,1.65a.5.5,0,0,1-.4.21ZM89,123.11a.47.47,0,0,1-.27-.08.48.48,0,0,1-.13-.67c.35-.54.71-1.07,1.07-1.61a.5.5,0,0,1,.68-.13.48.48,0,0,1,.13.67c-.37.53-.72,1.07-1.08,1.61a.46.46,0,0,1-.4.21Zm3.86-5.56a.52.52,0,0,1-.29-.09.49.49,0,0,1-.1-.68l1.15-1.56a.482.482,0,1,1,.77.58l-1.14,1.55a.49.49,0,0,1-.37.2ZM97,112.17a.43.43,0,0,1-.3-.11.49.49,0,0,1-.08-.68l1.23-1.5a.483.483,0,0,1,.75.61L97.37,112a.49.49,0,0,1-.37.17Zm4.36-5.18a.51.51,0,0,1-.32-.12.48.48,0,0,1,0-.68c.43-.48.86-1,1.3-1.44a.48.48,0,0,1,.68,0,.49.49,0,0,1,0,.69c-.43.47-.86.95-1.28,1.43a.49.49,0,0,1-.39.13Zm211.76-1.58a.39.39,0,0,1-.18,0l-1.79-.73a.482.482,0,0,1,.37-.89l1.79.73a.49.49,0,0,1,.26.63.47.47,0,0,1-.46.26Zm-6.25-2.6a.57.57,0,0,1-.18,0L304.9,102a.49.49,0,0,1-.26-.64.48.48,0,0,1,.64-.25l1.77.76a.48.48,0,0,1,.26.63.49.49,0,0,1-.45.31ZM106,102a.47.47,0,0,1-.34-.13.49.49,0,0,1,0-.69L107,99.83a.49.49,0,0,1,.69.69c-.46.45-.91.91-1.36,1.37A.49.49,0,0,1,106,102Zm194.69-1.9a.45.45,0,0,1-.19,0l-1.77-.78a.48.48,0,0,1-.25-.64.49.49,0,0,1,.64-.24l1.77.78a.49.49,0,0,1-.2.93Zm-6.18-2.76a.49.49,0,0,1-.2-.05l-1.76-.79a.49.49,0,0,1-.24-.64.48.48,0,0,1,.64-.24l1.76.79a.49.49,0,0,1,.24.64.48.48,0,0,1-.48.32ZM110.79,97.3a.44.44,0,0,1-.35-.16.49.49,0,0,1,0-.68l1.43-1.31a.48.48,0,0,1,.68,0,.49.49,0,0,1,0,.69l-1.42,1.3A.46.46,0,0,1,110.79,97.3Zm177.52-2.73a.46.46,0,0,1-.2,0l-1.76-.8a.483.483,0,1,1,.4-.88l1.76.8a.49.49,0,0,1-.2.93ZM115.85,92.81a.49.49,0,0,1-.31-.86L117,90.71a.49.49,0,0,1,.68.07.48.48,0,0,1-.07.68l-1.48,1.23a.47.47,0,0,1-.28.12Zm166.31-1.07a.52.52,0,0,1-.21,0l-1.75-.8a.49.49,0,0,1-.24-.65.48.48,0,0,1,.64-.23l1.76.8a.457.457,0,0,1-.2.88ZM276,88.93a.71.71,0,0,1-.2,0l-1.8-.85a.483.483,0,0,1,.4-.88l1.76.81a.48.48,0,0,1,.24.64.5.5,0,0,1-.4.28Zm-154.87-.35a.49.49,0,0,1-.39-.2.47.47,0,0,1,.1-.67l1.55-1.17a.48.48,0,0,1,.67.11.47.47,0,0,1-.1.67l-1.54,1.16a.53.53,0,0,1-.29.1Zm148.7-2.44a.51.51,0,0,1-.2,0l-1.76-.79a.48.48,0,0,1-.25-.64.49.49,0,0,1,.64-.24l1.77.79a.48.48,0,0,1,.24.64.47.47,0,0,1-.44.24ZM126.61,84.62a.46.46,0,0,1-.39-.21.47.47,0,0,1,.12-.67c.54-.37,1.07-.73,1.61-1.08a.48.48,0,0,1,.67.13.47.47,0,0,1-.14.67l-1.59,1.08a.57.57,0,0,1-.28.08Zm137-1.21a.41.41,0,0,1-.19,0l-1.78-.76a.49.49,0,0,1-.25-.64.48.48,0,0,1,.63-.25l1.78.76a.48.48,0,0,1,.25.64.49.49,0,0,1-.41.25ZM132.3,81a.48.48,0,0,1-.41-.23.49.49,0,0,1,.16-.67l1.66-1a.482.482,0,1,1,.49.83c-.55.33-1.1.65-1.65,1a.45.45,0,0,1-.25.07Zm125.11-.19a.43.43,0,0,1-.19,0L255.44,80a.485.485,0,1,1,.36-.9l1.79.74a.48.48,0,0,1-.18.93Zm-6.28-2.54a.51.51,0,0,1-.17,0l-1.8-.7a.483.483,0,0,1,.35-.9l1.8.7a.48.48,0,0,1,.27.63.47.47,0,0,1-.45.23Zm-112.95-.62a.48.48,0,0,1-.23-.91c.57-.31,1.14-.6,1.72-.9a.483.483,0,1,1,.44.86l-1.7.89a.53.53,0,0,1-.23.02ZM244.8,75.83a.45.45,0,0,1-.16,0l-1.82-.65a.484.484,0,0,1,.33-.91l1.82.65a.5.5,0,0,1,.29.63A.49.49,0,0,1,244.8,75.83ZM144.23,74.6a.49.49,0,0,1-.2-.93l1.77-.79a.47.47,0,0,1,.63.24.48.48,0,0,1-.24.64l-1.76.79a.46.46,0,0,1-.2.05Zm94.19-1a.45.45,0,0,1-.16,0l-1.83-.6a.484.484,0,0,1,.3-.92l1.84.62a.453.453,0,0,1-.15.89Zm-88-1.65a.5.5,0,0,1-.45-.31.47.47,0,0,1,.28-.62l1.81-.7a.49.49,0,0,1,.62.29.48.48,0,0,1-.28.62q-.9.33-1.8.69a.57.57,0,0,1-.15.02ZM232,71.52a.34.34,0,0,1-.14,0L230,71a.48.48,0,0,1-.33-.6.49.49,0,0,1,.6-.33l1.86.56a.48.48,0,0,1-.14.94Zm-6.51-1.85h-.13l-1.86-.49a.48.48,0,0,1,.24-.93l1.87.49a.49.49,0,0,1,.35.59.5.5,0,0,1-.5.34Zm-68.64,0a.482.482,0,0,1-.15-.94c.62-.2,1.24-.4,1.86-.58a.481.481,0,1,1,.28.92l-1.84.58Zm62.07-1.61h-.11l-1.89-.42a.481.481,0,0,1,.2-.94l1.9.41a.49.49,0,0,1,.37.58.48.48,0,0,1-.5.36Zm-55.57-.27a.5.5,0,0,1-.47-.36.49.49,0,0,1,.35-.59l1.89-.47a.48.48,0,0,1,.58.36.5.5,0,0,1-.36.59c-.62.14-1.25.3-1.87.46Zm48.93-1.08h-.09l-1.9-.33a.506.506,0,1,1,.16-1l1.92.33a.5.5,0,0,1-.09,1Zm-42.32-.38a.47.47,0,0,1-.47-.4.48.48,0,0,1,.38-.56l1.92-.34a.506.506,0,1,1,.16,1l-1.9.34Zm35.63-.67h-.06c-.64-.09-1.27-.17-1.91-.24a.5.5,0,0,1,.11-1l1.93.24a.48.48,0,0,1,.41.54.49.49,0,0,1-.51.45Zm-28.93-.36a.5.5,0,1,1-.06-1l1.94-.22a.49.49,0,0,1,.53.44.5.5,0,0,1-.44.53c-.64.06-1.28.13-1.91.21Zm22.2-.36h0l-1.92-.14a.48.48,0,0,1-.45-.51.49.49,0,0,1,.52-.45l1.93.14a.48.48,0,0,1,.45.52.49.49,0,0,1-.56.43Zm-15.45-.22a.5.5,0,0,1,0-1l1.94-.08a.46.46,0,0,1,.5.46.48.48,0,0,1-.46.5,13.787,13.787,0,0,0-1.93.09Zm8.7-.13h-1.92a.5.5,0,0,1,0-1h1.94a.47.47,0,0,1,.47.49.48.48,0,0,1-.52.5Z" transform="translate(-24.2 -63.59)" fill="#fff" opacity="0.6"/><path d="M436,245.74a.54.54,0,0,1-.21-.05.48.48,0,0,1-.22-.65c.28-.58.56-1.16.83-1.74a.49.49,0,0,1,.64-.23.48.48,0,0,1,.24.64l-.84,1.75A.49.49,0,0,1,436,245.74Zm2.81-6.16a.65.65,0,0,1-.19,0,.49.49,0,0,1-.26-.64c.25-.59.5-1.18.74-1.77a.485.485,0,0,1,.9.36c-.25.6-.49,1.2-.75,1.79a.46.46,0,0,1-.41.26Zm2.46-6.31a.41.41,0,0,1-.16,0,.47.47,0,0,1-.3-.61c.22-.61.43-1.21.64-1.82a.48.48,0,0,1,.61-.31.49.49,0,0,1,.3.62c-.21.61-.42,1.22-.64,1.83a.47.47,0,0,1-.42.29Zm2.09-6.43h-.14a.48.48,0,0,1-.32-.6c.18-.62.35-1.24.52-1.86a.49.49,0,0,1,.94.26c-.18.62-.35,1.25-.54,1.87a.48.48,0,0,1-.43.33Zm1.71-6.55h-.11a.49.49,0,0,1-.37-.58c.15-.62.29-1.25.42-1.88a.48.48,0,0,1,.57-.37.47.47,0,0,1,.37.57c-.13.64-.27,1.27-.41,1.9a.49.49,0,0,1-.44.36Zm1.29-6.65h-.07a.48.48,0,0,1-.4-.56c.1-.63.2-1.27.29-1.9a.47.47,0,0,1,.54-.41.48.48,0,0,1,.41.55c-.09.64-.19,1.28-.29,1.92a.48.48,0,0,1-.45.4Zm.87-6.71h-.05a.48.48,0,0,1-.43-.53c.06-.64.11-1.28.16-1.92a.5.5,0,1,1,1,.07c0,.65-.1,1.3-.16,1.94a.49.49,0,0,1-.49.44Zm.4-6.76h0a.47.47,0,0,1-.47-.49c0-.64,0-1.28,0-1.93a.49.49,0,0,1,.49-.48h0a.48.48,0,0,1,.48.49c0,.65,0,1.29,0,1.94a.48.48,0,0,1-.47.47Zm-.08-6.76a.49.49,0,0,1-.49-.46c0-.64-.07-1.28-.11-1.92a.48.48,0,0,1,.45-.52.49.49,0,0,1,.51.45c.05.65.09,1.29.12,1.94a.49.49,0,0,1-.46.51Zm-.6-6.74a.49.49,0,0,1-.48-.43c-.08-.63-.17-1.27-.26-1.9a.48.48,0,0,1,.4-.55.49.49,0,0,1,.55.4c.1.65.19,1.29.27,1.93a.47.47,0,0,1-.42.54ZM445.86,180a.48.48,0,0,1-.48-.38c-.13-.63-.27-1.25-.42-1.87a.5.5,0,0,1,.36-.59.48.48,0,0,1,.58.36c.15.63.3,1.27.43,1.9a.47.47,0,0,1-.37.57Zm-1.69-6.55a.47.47,0,0,1-.46-.34c-.19-.61-.38-1.22-.58-1.83A.48.48,0,1,1,444,171c.21.62.4,1.24.59,1.86a.48.48,0,0,1-.32.6.34.34,0,0,1-.1-.02Zm-2.25-6.38a.5.5,0,0,1-.45-.3c-.23-.6-.48-1.19-.73-1.78a.484.484,0,0,1,.89-.38c.25.6.5,1.19.74,1.8a.47.47,0,0,1-.27.62.39.39,0,0,1-.18.03Zm-2.78-6.17a.46.46,0,0,1-.43-.26c-.29-.57-.59-1.14-.89-1.71a.48.48,0,0,1,.19-.65.49.49,0,0,1,.66.19c.31.58.61,1.15.9,1.73a.48.48,0,0,1-.22.65.41.41,0,0,1-.21.04Zm-3.32-5.9a.48.48,0,0,1-.41-.23c-.33-.54-.68-1.08-1-1.62a.48.48,0,0,1,.14-.67.49.49,0,0,1,.67.14c.35.54.7,1.09,1,1.64a.478.478,0,0,1-.4.74ZM432,149.41a.49.49,0,0,1-.39-.2c-.38-.51-.77-1-1.17-1.51a.483.483,0,0,1,.75-.61c.41.51.8,1,1.2,1.54a.49.49,0,0,1-.1.68.46.46,0,0,1-.29.1Zm-4.32-5.21a.48.48,0,0,1-.36-.16c-.43-.47-.87-.94-1.31-1.4a.481.481,0,0,1,.69-.67c.45.47.9.94,1.34,1.42a.48.48,0,0,1,0,.68.45.45,0,0,1-.36.13Zm-4.8-4.77a.52.52,0,0,1-.33-.12c-.47-.43-.95-.85-1.44-1.27a.48.48,0,0,1-.06-.68.49.49,0,0,1,.68-.05c.5.42,1,.84,1.47,1.28a.48.48,0,0,1-.32.84Zm-5.26-4.26a.47.47,0,0,1-.28-.09c-.52-.38-1-.75-1.57-1.11a.48.48,0,1,1,.54-.79c.54.36,1.07.74,1.6,1.12a.48.48,0,0,1-.29.87ZM412,131.49a.48.48,0,0,1-.24-.06L410,130.5a.47.47,0,0,1-.2-.65.48.48,0,0,1,.65-.2c.58.3,1.14.62,1.71.94a.49.49,0,0,1,.18.66.48.48,0,0,1-.34.24Zm-6.05-3a.41.41,0,0,1-.19,0c-.59-.26-1.18-.5-1.77-.74a.485.485,0,0,1,.36-.9c.6.24,1.2.49,1.79.75a.49.49,0,0,1-.19.93Zm-6.33-2.4a.4.4,0,0,1-.15,0c-.6-.2-1.22-.39-1.83-.57a.49.49,0,0,1,.28-.93c.62.19,1.24.38,1.86.59a.48.48,0,0,1-.16.94Zm-6.5-1.86H393c-.62-.16-1.24-.31-1.87-.45a.483.483,0,1,1,.22-.94q.94.21,1.89.45a.48.48,0,0,1,.35.58.49.49,0,0,1-.52.33Zm-6.61-1.43h-.09l-1.9-.34a.48.48,0,0,1-.39-.56.49.49,0,0,1,.56-.4l1.91.35a.48.48,0,0,1,.38.57.47.47,0,0,1-.52.35Zm-6.67-1.13h-.08l-1.91-.29a.48.48,0,0,1-.41-.54.49.49,0,0,1,.55-.41l1.92.28a.48.48,0,0,1,.4.55.47.47,0,0,1-.52.38Zm-6.71-.94H373l-1.92-.25a.49.49,0,0,1-.41-.55.48.48,0,0,1,.54-.41l1.92.25a.5.5,0,0,1-.07,1Zm-6.71-.89h-.06l-1.92-.26a.5.5,0,1,1,.13-1l1.92.26a.5.5,0,1,1-.07,1Zm-6.7-1h-.07l-1.92-.3a.506.506,0,1,1,.15-1l1.91.3a.5.5,0,1,1-.07,1Z" transform="translate(-24.2 -63.59)" fill="#4285f4"/><path d="M436,245.74a.54.54,0,0,1-.21-.05.48.48,0,0,1-.22-.65c.28-.58.56-1.16.83-1.74a.49.49,0,0,1,.64-.23.48.48,0,0,1,.24.64l-.84,1.75A.49.49,0,0,1,436,245.74Zm2.81-6.16a.65.65,0,0,1-.19,0,.49.49,0,0,1-.26-.64c.25-.59.5-1.18.74-1.77a.485.485,0,0,1,.9.36c-.25.6-.49,1.2-.75,1.79a.46.46,0,0,1-.41.26Zm2.46-6.31a.41.41,0,0,1-.16,0,.47.47,0,0,1-.3-.61c.22-.61.43-1.21.64-1.82a.48.48,0,0,1,.61-.31.49.49,0,0,1,.3.62c-.21.61-.42,1.22-.64,1.83a.47.47,0,0,1-.42.29Zm2.09-6.43h-.14a.48.48,0,0,1-.32-.6c.18-.62.35-1.24.52-1.86a.49.49,0,0,1,.94.26c-.18.62-.35,1.25-.54,1.87a.48.48,0,0,1-.43.33Zm1.71-6.55h-.11a.49.49,0,0,1-.37-.58c.15-.62.29-1.25.42-1.88a.48.48,0,0,1,.57-.37.47.47,0,0,1,.37.57c-.13.64-.27,1.27-.41,1.9a.49.49,0,0,1-.44.36Zm1.29-6.65h-.07a.48.48,0,0,1-.4-.56c.1-.63.2-1.27.29-1.9a.47.47,0,0,1,.54-.41.48.48,0,0,1,.41.55c-.09.64-.19,1.28-.29,1.92a.48.48,0,0,1-.45.4Zm.87-6.71h-.05a.48.48,0,0,1-.43-.53c.06-.64.11-1.28.16-1.92a.5.5,0,1,1,1,.07c0,.65-.1,1.3-.16,1.94a.49.49,0,0,1-.49.44Zm.4-6.76h0a.47.47,0,0,1-.47-.49c0-.64,0-1.28,0-1.93a.49.49,0,0,1,.49-.48h0a.48.48,0,0,1,.48.49c0,.65,0,1.29,0,1.94a.48.48,0,0,1-.47.47Zm-.08-6.76a.49.49,0,0,1-.49-.46c0-.64-.07-1.28-.11-1.92a.48.48,0,0,1,.45-.52.49.49,0,0,1,.51.45c.05.65.09,1.29.12,1.94a.49.49,0,0,1-.46.51Zm-.6-6.74a.49.49,0,0,1-.48-.43c-.08-.63-.17-1.27-.26-1.9a.48.48,0,0,1,.4-.55.49.49,0,0,1,.55.4c.1.65.19,1.29.27,1.93a.47.47,0,0,1-.42.54ZM445.86,180a.48.48,0,0,1-.48-.38c-.13-.63-.27-1.25-.42-1.87a.5.5,0,0,1,.36-.59.48.48,0,0,1,.58.36c.15.63.3,1.27.43,1.9a.47.47,0,0,1-.37.57Zm-1.69-6.55a.47.47,0,0,1-.46-.34c-.19-.61-.38-1.22-.58-1.83A.48.48,0,1,1,444,171c.21.62.4,1.24.59,1.86a.48.48,0,0,1-.32.6.34.34,0,0,1-.1-.02Zm-2.25-6.38a.5.5,0,0,1-.45-.3c-.23-.6-.48-1.19-.73-1.78a.484.484,0,0,1,.89-.38c.25.6.5,1.19.74,1.8a.47.47,0,0,1-.27.62.39.39,0,0,1-.18.03Zm-2.78-6.17a.46.46,0,0,1-.43-.26c-.29-.57-.59-1.14-.89-1.71a.48.48,0,0,1,.19-.65.49.49,0,0,1,.66.19c.31.58.61,1.15.9,1.73a.48.48,0,0,1-.22.65.41.41,0,0,1-.21.04Zm-3.32-5.9a.48.48,0,0,1-.41-.23c-.33-.54-.68-1.08-1-1.62a.48.48,0,0,1,.14-.67.49.49,0,0,1,.67.14c.35.54.7,1.09,1,1.64a.478.478,0,0,1-.4.74ZM432,149.41a.49.49,0,0,1-.39-.2c-.38-.51-.77-1-1.17-1.51a.483.483,0,0,1,.75-.61c.41.51.8,1,1.2,1.54a.49.49,0,0,1-.1.68.46.46,0,0,1-.29.1Zm-4.32-5.21a.48.48,0,0,1-.36-.16c-.43-.47-.87-.94-1.31-1.4a.481.481,0,0,1,.69-.67c.45.47.9.94,1.34,1.42a.48.48,0,0,1,0,.68.45.45,0,0,1-.36.13Zm-4.8-4.77a.52.52,0,0,1-.33-.12c-.47-.43-.95-.85-1.44-1.27a.48.48,0,0,1-.06-.68.49.49,0,0,1,.68-.05c.5.42,1,.84,1.47,1.28a.48.48,0,0,1-.32.84Zm-5.26-4.26a.47.47,0,0,1-.28-.09c-.52-.38-1-.75-1.57-1.11a.48.48,0,1,1,.54-.79c.54.36,1.07.74,1.6,1.12a.48.48,0,0,1-.29.87ZM412,131.49a.48.48,0,0,1-.24-.06L410,130.5a.47.47,0,0,1-.2-.65.48.48,0,0,1,.65-.2c.58.3,1.14.62,1.71.94a.49.49,0,0,1,.18.66.48.48,0,0,1-.34.24Zm-6.05-3a.41.41,0,0,1-.19,0c-.59-.26-1.18-.5-1.77-.74a.485.485,0,0,1,.36-.9c.6.24,1.2.49,1.79.75a.49.49,0,0,1-.19.93Zm-6.33-2.4a.4.4,0,0,1-.15,0c-.6-.2-1.22-.39-1.83-.57a.49.49,0,0,1,.28-.93c.62.19,1.24.38,1.86.59a.48.48,0,0,1-.16.94Zm-6.5-1.86H393c-.62-.16-1.24-.31-1.87-.45a.483.483,0,1,1,.22-.94q.94.21,1.89.45a.48.48,0,0,1,.35.58.49.49,0,0,1-.52.33Zm-6.61-1.43h-.09l-1.9-.34a.48.48,0,0,1-.39-.56.49.49,0,0,1,.56-.4l1.91.35a.48.48,0,0,1,.38.57.47.47,0,0,1-.52.35Zm-6.67-1.13h-.08l-1.91-.29a.48.48,0,0,1-.41-.54.49.49,0,0,1,.55-.41l1.92.28a.48.48,0,0,1,.4.55.47.47,0,0,1-.52.38Zm-6.71-.94H373l-1.92-.25a.49.49,0,0,1-.41-.55.48.48,0,0,1,.54-.41l1.92.25a.5.5,0,0,1-.07,1Zm-6.71-.89h-.06l-1.92-.26a.5.5,0,1,1,.13-1l1.92.26a.5.5,0,1,1-.07,1Zm-6.7-1h-.07l-1.92-.3a.506.506,0,1,1,.15-1l1.91.3a.5.5,0,1,1-.07,1Z" transform="translate(-24.2 -63.59)" fill="#fff" opacity="0.6"/><rect width="159.29" height="100.86" transform="translate(29.29 109.3)" fill="#fff" stroke="#37474f" stroke-miterlimit="10" stroke-width="1" style="isolation:isolate"/><path d="M103.39,161.17l-3.09-8.84H50.39V281.09H215.87V161.17ZM212.78,273.75H53.49V172.88H212.78Z" transform="translate(-24.2 -63.59)" fill="#771efc" stroke="#37474f" stroke-linecap="round" stroke-linejoin="round" stroke-width="1"/><path d="M33.13,100.14l-2.29,2.2,2.37,2.54" fill="none" stroke="#37474f" stroke-linecap="round" stroke-linejoin="round" stroke-width="1"/><line x2="5.08" transform="translate(30.84 102.34)" fill="#4285f4" stroke="#37474f" stroke-linecap="round" stroke-linejoin="round" stroke-width="1"/><path d="M46.06,100.14l2.29,2.2-2.37,2.54" fill="none" stroke="#37474f" stroke-linecap="round" stroke-linejoin="round" stroke-width="1"/><line x1="5.08" transform="translate(43.27 102.34)" fill="#4285f4" stroke="#37474f" stroke-linecap="round" stroke-linejoin="round" stroke-width="1"/><path d="M83.45,165.61a2.5,2.5,0,0,0-2.35-1.8,2.29,2.29,0,1,0,1.44,4.06" transform="translate(-24.2 -63.59)" fill="none" stroke="#37474f" stroke-linecap="round" stroke-linejoin="round" stroke-width="1"/><path d="M57.7,102.3h1.79v-2.1" fill="none" stroke="#37474f" stroke-linecap="round" stroke-linejoin="round" stroke-width="1"/><line x2="3.21" y2="3.3" transform="translate(70.58 93.32)" fill="#4285f4" stroke="#37474f" stroke-linecap="round" stroke-linejoin="round" stroke-width="1"/><line x1="3.32" y2="3.2" transform="translate(70.53 93.37)" fill="#4285f4" stroke="#37474f" stroke-linecap="round" stroke-linejoin="round" stroke-width="1"/><path d="M150.59,281.53l-24.56-47.92L55.01,272.13l24.67,45.24Z" fill="#fff"/><path d="M120.8,246.56,106.59,282.1l-51.3-9.81,47.63,4.46,15.99-30.66Z" fill="#4285f4"/><path d="M120.8,246.56,106.59,282.1l-51.3-9.81,47.63,4.46,15.99-30.66Z" fill="#fff" opacity="0.5"/><path d="M55.25,271.97l24.43,45.4,70.91-35.84-24.87-47.62Z" fill="none" stroke="#37474f" stroke-linecap="round" stroke-linejoin="round" stroke-width="1"/><path d="M55.25,271.97l47.67,4.78,22.8-42.84" fill="none" stroke="#37474f" stroke-linecap="round" stroke-linejoin="round" stroke-width="1"/><circle cx="10.48" cy="10.48" r="10.48" transform="translate(108.409 235.872) rotate(-45)" fill="#4285f4"/><circle cx="10.48" cy="10.48" r="10.48" transform="translate(108.409 235.872) rotate(-45)" fill="#771efc" opacity="0.3"/><circle cx="10.48" cy="10.48" r="10.48" transform="translate(112.75 225.71)" fill="none" stroke="#37474f" stroke-linecap="round" stroke-linejoin="round" stroke-width="1"/><circle cx="10.48" cy="10.48" r="10.48" transform="translate(112.75 222.79)" fill="#771efc"/><circle cx="10.48" cy="10.48" r="10.48" transform="translate(112.75 222.79)" fill="none" stroke="#37474f" stroke-linecap="round" stroke-linejoin="round" stroke-width="1"/><rect width="56.17" height="33.93" rx="3" transform="translate(235.71 171.23)" fill="#fff"/><rect width="56.17" height="33.93" rx="3" transform="translate(235.71 171.23)" fill="none" stroke="#37474f" stroke-linecap="round" stroke-linejoin="round" stroke-width="1"/><rect width="49.03" height="2.29" transform="translate(239.41 176.39)" fill="#771efc"/><rect width="49.03" height="2.29" transform="translate(239.41 181.68)" fill="#771efc"/><rect width="49.03" height="2.29" transform="translate(239.41 186.97)" fill="#771efc"/><rect width="49.03" height="2.29" transform="translate(239.41 192.26)" fill="#771efc"/><rect width="49.03" height="2.29" transform="translate(239.41 197.55)" fill="#771efc"/><path d="M256.83,262.39a97.6,97.6,0,0,0-21.92,15.92c-15,14.94-22.39,35.59-33,53.85a165.92,165.92,0,0,1-42.65,48.21c-17.73,13.5-38.73,23.52-61,25.13s-45.75-6.08-60.26-23-18.09-43.3-5.84-61.87c10.1-15.3,30.12-23.38,48.07-19.4,7,1.55,13.55,4.73,20,7.88l10,4.86" transform="translate(-24.2 -63.59)" fill="none" stroke="#37474f" stroke-linecap="round" stroke-linejoin="round" stroke-width="1" stroke-dasharray="2 5"/><path d="M287.29,165.6c10-4.77,21.93-6.14,32.4-2.4s19.14,12.94,20.94,23.91c1.55,9.46-2,19.23-7.74,26.89a72.1,72.1,0,0,1-15.56,14.68" transform="translate(-24.2 -63.59)" fill="none" stroke="#37474f" stroke-linecap="round" stroke-linejoin="round" stroke-width="1" stroke-dasharray="2 5"/><path d="M232.83,255.71l.82-8.96,7.47-4.05-11.31-21.02-31.87,16.64,11.14,20.92,6.89-3.4,13.57,7.11Z" fill="#fff"/><path d="M360.51,223.8s-10.35,24.2-11.29,32.32-.48,12.23,3.45,15.05,11.05,3,11.05,3l-.68,4.3s-2.84-.21-5,3.09-2.16,5.45-2.16,5.45,2.74,10.81,5,11,4.58-7.39,4.58-7.39,2,10.82,3.88,10.45,19.49-12.13,19.49-12.13,1.57-8.16-2.28-12.39c0,0-1-8.09.08-11.86,0,0,7.59,1,8-6.81.36-6.92-3.29-9.88-5.49-7.06l-5.18-13,2-9.25Z" transform="translate(-24.2 -63.59)" fill="#fff"/><path d="M364.24,226.22l.8,1.41s-12.64,20.86-12,34.5,20.07,10,20.07,10-1.21,17.06-8.43,16L362.83,284l.52-9.52s-7.54.69-12.15-3.92-2.41-14.45,1.8-27.89,7.51-18.87,7.51-18.87Z" transform="translate(-24.2 -63.59)" fill="#4285f4"/><path d="M364.24,226.22l.8,1.41s-12.64,20.86-12,34.5,20.07,10,20.07,10-1.21,17.06-8.43,16L362.83,284l.52-9.52s-7.54.69-12.15-3.92-2.41-14.45,1.8-27.89,7.51-18.87,7.51-18.87Z" transform="translate(-24.2 -63.59)" fill="#fff" opacity="0.6"/><path d="M425.36,322.31a44.728,44.728,0,0,1-4.2,12.65,56.09,56.09,0,0,1-7.83,11.7l1.75,16.48,4.19,24.55h0l-.19.14c-.25.19-.7.52-1.34,1h-62.1c-1.63-3.78-3.44-8.06-5.14-12.27-3.1-7.69-5.84-15.13-6.46-18.86a9.884,9.884,0,0,1-.13-1.28L333.38,345.9l-34.75,18.92-44.8-37.91.07-.13,4.55-9.1v-.05L303,338.9l9.23-12.76.13-.42v-.05L315,317v-.09l1.65-5.4,2.11-6.91L332,298.34h0L355.84,287v.12c.12.41.49,1.74,1,3.35.12.39.24.78.38,1.17s.19.58.3.86a31.2,31.2,0,0,0,1.6,3.77c.1.19.21.37.31.53a5.9,5.9,0,0,0,.47.67v.05a1.08,1.08,0,0,0,.81.47c1.12-.09,2.47-2.53,3.42-4.58a1.543,1.543,0,0,1,.08-.19c.54-1.21.94-2.25,1.05-2.54v-.08a1.14,1.14,0,0,1,0,.12c.15.95,1.27,7.5,2.88,9.65l.16.21a1.21,1.21,0,0,0,.82.47h0c.78,0,3.23-1.49,6.16-3.47h0c5.41-3.66,12.42-9,13.45-9.79l.13-.11a19.639,19.639,0,0,0,0-5.76l.17.06,28.95,11.19h0l.84.32s4.21,5.16,6.39,17.9A32.731,32.731,0,0,1,425.36,322.31Z" transform="translate(-24.2 -63.59)" fill="#f8b409"/><path d="M305.37,248.57l2.68-15.13-32.08-8.62-5.54,23.23,12.78,4,5.78,11.71,8.78,6.03,9.63-8.98.82-7.17Z" fill="#fff"/><path d="M289.13,302.34" transform="translate(-24.2 -63.59)" fill="none" stroke="#37474f" stroke-linecap="round" stroke-linejoin="round" stroke-width="1"/><path d="M233.65,246.75l7.45-3.7-11.23-21.5-31.82,17.19,11.03,20.5,14.99-7.67" fill="none" stroke="#37474f" stroke-linecap="round" stroke-linejoin="round" stroke-width="1"/><path d="M198.05,238.74l21.53,2.16,10.29-19.35" fill="none" stroke="#37474f" stroke-linecap="round" stroke-linejoin="round" stroke-width="1"/><path d="M300.29,256.68l3.42.99,4.45-24.59-32.18-8.4-5.55,23.37,12.35,3.57" fill="none" stroke="#37474f" stroke-linecap="round" stroke-linejoin="round" stroke-width="1"/><path d="M276.14,224.68l12.78,15.97,19.24-7.57" fill="none" stroke="#37474f" stroke-linecap="round" stroke-linejoin="round" stroke-width="1"/><path d="M361.89,220.53s-12.6,28.54-13.45,40.14,10,13.31,10.1,13.33a23.52,23.52,0,0,0,12.91-1.31c3.23-1.39,5.81-4,8.5-6.16" transform="translate(-24.2 -63.59)" fill="none" stroke="#37474f" stroke-linecap="round" stroke-linejoin="round" stroke-width="1"/><path d="M335.43,189.19l-5.09-2.83,5.94-12.73" fill="none" stroke="#37474f" stroke-linecap="round" stroke-linejoin="round" stroke-width="1"/><path d="M366,242.8c-.37,1.13-.18,2.2.42,2.4s1.39-.55,1.76-1.68.19-2.2-.41-2.4S366.34,241.67,366,242.8Z" transform="translate(-24.2 -63.59)" fill="#37474f"/><path d="M356.23,239.15c-.37,1.13-.19,2.21.42,2.4s1.39-.55,1.76-1.68.19-2.2-.41-2.4S356.6,238,356.23,239.15Z" transform="translate(-24.2 -63.59)" fill="#37474f"/><path d="M366.64,255.31a8.1,8.1,0,0,1-7.3,2.73" transform="translate(-24.2 -63.59)" fill="none" stroke="#37474f" stroke-linecap="round" stroke-linejoin="round" stroke-width="1"/><path d="M366.47,236.63a3.05,3.05,0,0,1,3.62.66,9,9,0,0,1,1.88,3.46" transform="translate(-24.2 -63.59)" fill="none" stroke="#37474f" stroke-linecap="round" stroke-linejoin="round" stroke-width="2"/><path d="M360.89,235a2.27,2.27,0,0,0-4.08-.45" transform="translate(-24.2 -63.59)" fill="none" stroke="#37474f" stroke-linecap="round" stroke-linejoin="round" stroke-width="2"/><path d="M386.24,256.53s3.37-5.51,6.89-4.29,1.84,6.28.15,9.5-6,3.36-8.42,2" transform="translate(-24.2 -63.59)" fill="none" stroke="#37474f" stroke-linecap="round" stroke-linejoin="round" stroke-width="1"/><path d="M394.18,259.62s3.34-5.64-.21-7.52-7.93,4.48-7.93,4.48a3.028,3.028,0,0,1-.9-.16,3.23,3.23,0,0,1-1.84-4.29c.15-.35.27-.7.38-1a9.21,9.21,0,0,0,.36-4.51c-.58-3.06-2.76-5.55-2.41-8.82a21.229,21.229,0,0,1,2.27-7.32c-18.18,3.64-29.09-6.67-26.67-15.15s8.18-.91,20.91-5.76S400,225.37,400,225.37c12.73,8.79.56,21.14.56,21.14L394.07,260Z" transform="translate(-24.2 -63.59)" fill="#37474f"/><path d="M413.29,346.2c.47,16.05,6,41.49,6,41.49h0l-.19.14-1.38,1" transform="translate(-24.2 -63.59)" fill="none" stroke="#37474f" stroke-linecap="round" stroke-linejoin="round" stroke-width="1"/><path d="M355.26,388.83c-1.62-3.82-3.2-7.94-4.76-12.27-2.28-6.34-4.49-13.14-6.59-20.14" transform="translate(-24.2 -63.59)" fill="none" stroke="#37474f" stroke-linecap="round" stroke-linejoin="round" stroke-width="1"/><path d="M412.29,351.26" transform="translate(-24.2 -63.59)" fill="none" stroke="#37474f" stroke-linecap="round" stroke-linejoin="round" stroke-width="1"/><path d="M389.05,281.88s25.87,9.19,29.81,11.63" transform="translate(-24.2 -63.59)" fill="none" stroke="#37474f" stroke-linecap="round" stroke-linejoin="round" stroke-width="1"/><path d="M365.83,289.31c-2-1.49-3.18-5.31-2.72-8.12l.64-6.6" transform="translate(-24.2 -63.59)" fill="none" stroke="#37474f" stroke-linecap="round" stroke-linejoin="round" stroke-width="1"/><path d="M386.6,264.37s-1.3,4.34-.23,12.14" transform="translate(-24.2 -63.59)" fill="none" stroke="#37474f" stroke-linecap="round" stroke-linejoin="round" stroke-width="1"/><path d="M378,356.58l-46-32.32-10,9s40.94,45.61,57.1,52.79c0,0,32.24-34.76,42.66-52,0,0,10.52-17.22-2.7-40.52" transform="translate(-24.2 -63.59)" fill="none" stroke="#37474f" stroke-linecap="round" stroke-linejoin="round" stroke-width="1"/><line y1="32.74" x2="24.69" transform="translate(348.27 256.46)" fill="none" stroke="#37474f" stroke-linecap="round" stroke-linejoin="round" stroke-width="1"/><line x2="15.44" y2="0.72" transform="translate(349.04 289.72)" fill="none" stroke="#37474f" stroke-linecap="round" stroke-linejoin="round" stroke-width="1"/><path d="M400.28,226.76s2-8-3-14.19" transform="translate(-24.2 -63.59)" fill="none" stroke="#37474f" stroke-linecap="round" stroke-miterlimit="10" stroke-width="1"/><path d="M288.06,262.56l-9.43,13.1-44.87-21.81-4.19,9.23,44.86,38.16,34.61-19.08" fill="none" stroke="#37474f" stroke-linecap="round" stroke-linejoin="round" stroke-width="1"/><line y1="11.86" x2="23.82" transform="translate(307.82 223.39)" fill="none" stroke="#37474f" stroke-linecap="round" stroke-linejoin="round" stroke-width="1"/><path d="M256.72,319.85l1.29-12-4.82-8.95s.69-6.32-.69-6.29S251.19,308,251.19,308s-4.09,2.88-2.58,9.2" transform="translate(-24.2 -63.59)" fill="none" stroke="#37474f" stroke-linecap="round" stroke-linejoin="round" stroke-width="1"/><line x2="12.85" y2="7.44" transform="translate(216.72 255.64)" fill="none" stroke="#37474f" stroke-linecap="round" stroke-linejoin="round" stroke-width="1"/><path d="M305.6,248.88l2.42,4.24-.47,7.56" fill="none" stroke="#37474f" stroke-linecap="round" stroke-linejoin="round" stroke-width="1"/><path d="M325.42,321.54c0-.66-13.67-15.4-13.67-15.4l-1.57,1.24,5.61,11-4.7-8.26-1.32,1.57,1.23,6-1.64-4.38-2.22,1.15,6.05,12.89,8.62,5.56" transform="translate(-24.2 -63.59)" fill="none" stroke="#37474f" stroke-linecap="round" stroke-linejoin="round" stroke-width="1"/><path d="M422.82,397.77" transform="translate(-24.2 -63.59)" fill="none" stroke="#37474f" stroke-linecap="round" stroke-linejoin="round" stroke-width="1"/><path d="M411.8,404.37" transform="translate(-24.2 -63.59)" fill="none" stroke="#37474f" stroke-linecap="round" stroke-linejoin="round" stroke-width="1"/><path d="M400.93,409.51" transform="translate(-24.2 -63.59)" fill="none" stroke="#37474f" stroke-linecap="round" stroke-linejoin="round" stroke-width="1"/><path d="M347,407" transform="translate(-24.2 -63.59)" fill="none" stroke="#37474f" stroke-linecap="round" stroke-linejoin="round" stroke-width="1"/><path d="M386.47,276.51S375.76,285,365.82,288.8c0,0,1,11.47,3.44,12.23.92.29,2.33-.67,3.07-1.07a58.7,58.7,0,0,0,5.12-3.22c3.4-2.32,6.7-4.78,10-7.29.63-.49,1.59-.95,1.63-1.81.22-4,.45-8-2.53-11.09Z" transform="translate(-24.2 -63.59)" fill="none" stroke="#37474f" stroke-linecap="round" stroke-linejoin="round" stroke-width="1"/><path d="M365.82,288.8s-2.73,9.5-5,9.17-5.07-11.61-5.07-11.61,2.62-9,7.52-7.52" transform="translate(-24.2 -63.59)" fill="none" stroke="#37474f" stroke-linecap="round" stroke-linejoin="round" stroke-width="1"/><path d="M303,338.91a44.39,44.39,0,0,1,0,10.24" transform="translate(-24.2 -63.59)" fill="none" stroke="#37474f" stroke-linecap="round" stroke-linejoin="round" stroke-width="1"/><line x2="3.81" y2="12.4" transform="translate(311.95 253.74)" fill="none" stroke="#37474f" stroke-linecap="round" stroke-linejoin="round" stroke-width="1"/><path d="M395.11,309.61a33.82,33.82,0,0,0-3.85,18" transform="translate(-24.2 -63.59)" fill="none" stroke="#37474f" stroke-linecap="round" stroke-linejoin="round" stroke-width="1"/><path d="M388.53,316.7a40.11,40.11,0,0,0,.37,10.94" transform="translate(-24.2 -63.59)" fill="none" stroke="#37474f" stroke-linecap="round" stroke-linejoin="round" stroke-width="1"/><path d="M304.57,340.33a17.47,17.47,0,0,1,2,6.33" transform="translate(-24.2 -63.59)" fill="none" stroke="#37474f" stroke-linecap="round" stroke-linejoin="round" stroke-width="1"/><path d="M360.2,216.71a6.75,6.75,0,0,0,2.75,4,15.609,15.609,0,0,0,4.5,2.12,47.13,47.13,0,0,0,14.47,2.34,11.879,11.879,0,0,1,3.21.26,3.45,3.45,0,0,1,2.37,2" transform="translate(-24.2 -63.59)" fill="none" stroke="#fff" stroke-linecap="round" stroke-linejoin="round" stroke-width="0.5"/><path d="M363.9,212.83c.64,2.72,3.46,4.45,6.23,4.85s5.57-.24,8.34-.63,5.74-.5,8.21.82,4.12,4.51,2.87,7" transform="translate(-24.2 -63.59)" fill="none" stroke="#fff" stroke-linecap="round" stroke-linejoin="round" stroke-width="0.5"/><path d="M331.68,322.27" transform="translate(-24.2 -63.59)" fill="none" stroke="#37474f" stroke-linecap="round" stroke-linejoin="round" stroke-width="1"/><path d="M311.95,325.24H429.01" fill="none" stroke="#37474f" stroke-linecap="round" stroke-linejoin="round" stroke-width="1"/><line x2="35.35" transform="translate(267.53 325.24)" fill="none" stroke="#37474f" stroke-linecap="round" stroke-linejoin="round" stroke-width="1"/><path d="M345.08,339.17H279.41l-25.07,13.54h68.81Z" fill="none" stroke="#37474f" stroke-linecap="round" stroke-linejoin="round" stroke-width="1"/><line x2="48.5" transform="translate(283.7 342.7)" fill="none" stroke="#37474f" stroke-linecap="round" stroke-linejoin="round" stroke-width="1"/><line x2="47.15" transform="translate(280.16 345.23)" fill="none" stroke="#37474f" stroke-linecap="round" stroke-linejoin="round" stroke-width="1"/><line x2="45.77" transform="translate(276.63 347.76)" fill="none" stroke="#37474f" stroke-linecap="round" stroke-linejoin="round" stroke-width="1"/><line x1="13.88" y2="6.83" transform="translate(318.57 342.7)" fill="none" stroke="#37474f" stroke-linecap="round" stroke-linejoin="round" stroke-width="1"/><line x1="13.88" y2="6.83" transform="translate(310.99 342.7)" fill="none" stroke="#37474f" stroke-linecap="round" stroke-linejoin="round" stroke-width="1"/><path d="M242.58,305.46h68.83l11.74,47.25H254.34Z" fill="#37474f"/><rect width="69.44" height="3.36" transform="translate(253.72 352.7)" fill="none" stroke="#37474f" stroke-linecap="round" stroke-linejoin="round" stroke-width="1"/><path d="M241.82,305.46h68.83l11.75,47.25H253.57Z" fill="#fff" stroke="#37474f" stroke-linecap="round" stroke-linejoin="round" stroke-width="1"/><path d="M323.15,352.71l22.42-13.63-.02,2.56L323.41,356.5Z" fill="#37474f"/><path d="M309.3,391.23a3.68,3.68,0,1,1-4.56-3,3.86,3.86,0,0,1,4.56,3Z" transform="translate(-24.2 -63.59)" fill="none" stroke="#37474f" stroke-linecap="round" stroke-linejoin="round" stroke-width="1"/><path d="M67.75,147.06l78.15-.57,2.17,53.13-80.91-.75Z" fill="#771efc"/><path d="M67.75,147.06l39.68-32.1,38.47,31.53" fill="#4285f4"/><g opacity="0.3"><path d="M67.75,147.06l39.68-32.1,38.47,31.53" fill="#771efc"/></g><path d="M91.36,262.46c-.1-.1,6.16-6.93,14-15.26s14.23-15,14.33-14.92-6.16,6.92-14,15.25S91.46,262.55,91.36,262.46Z" transform="translate(-24.2 -63.59)" fill="#37474f"/><path d="M172.27,263.21c-.1.09-6.19-6.61-13.6-14.95S145.32,233.08,145.42,233s6.19,6.6,13.61,14.95S172.37,263.12,172.27,263.21Z" transform="translate(-24.2 -63.59)" fill="#37474f"/><g opacity="0.5"><path d="M145.9,146.49l-39.24,31.35L67.75,147.06"/></g><path d="M71.69,149.96l-.11-22.73,68.44-1.67.74,24.87-34.1,27Z" fill="#ebeced"/><path d="M131.81,232.85a18.206,18.206,0,0,1-1.95-.11,17,17,0,1,1,18.83-15h0a17,17,0,0,1-16.88,15.11Zm-.05-33.47a16.44,16.44,0,1,0,16.35,18.29h0a16.491,16.491,0,0,0-16.35-18.29Z" transform="translate(-24.2 -63.59)" fill="#787da7"/><path d="M96,154.6l2.85-3.49,6.65,4.81,10.82-12.75,3.26,2.87-13.91,16.03Z" fill="#787da7"/><path d="M250.63,298.12a10.425,10.425,0,0,1-1.24-.07,10.8,10.8,0,1,1,12-9.52h0a10.81,10.81,0,0,1-10.72,9.59Zm0-21.24A10.433,10.433,0,1,0,261,288.49h0A10.43,10.43,0,0,0,251.79,277a9.611,9.611,0,0,0-1.19-.12Z" transform="translate(-24.2 -63.59)" fill="#4285f4"/><path d="M219.07,225.23l1.8-2.22,4.23,3.06,6.86-8.1,2.07,1.83-8.82,10.17Z" fill="#4285f4"/></g></svg>