<svg xmlns="http://www.w3.org/2000/svg" xmlns:xlink="http://www.w3.org/1999/xlink" width="382.95" height="405.114" viewBox="0 0 382.95 405.114"><defs><linearGradient id="a" x1="0.5" x2="0.339" y2="0.81" gradientUnits="objectBoundingBox"><stop offset="0" stop-color="#797da4"/><stop offset="1" stop-color="#efe5ff" stop-opacity="0"/></linearGradient></defs><g transform="translate(-455.025 -5935)"><g transform="translate(455.032 5935.004)"><path d="M321.9,65.82C293.12,72.75,266.66,88,236.3,94.2c-49.22,10-104.72,7.06-141.23,47.64C67.5,172.49,51.91,217.37,61.23,258.25c24.24,106.36,177,125.34,259.25,80.15,42.67-23.45,73.61-67,95.15-109.57,19.77-39.09,40.78-90.54,11-130.21-14.2-18.93-36.52-31-59.86-34.91C350.77,61,336.05,62.41,321.9,65.82Z" transform="translate(-58.53 -62.29)" opacity="0.5" fill="url(#a)"/><path d="M125,200.08a12.88,12.88,0,0,0,1.45,2.65L124.51,206l4.84,3.82,2.75-2.68a12.57,12.57,0,0,0,5.9.86l1.9,3.3,5.71-2.3-.92-3.71a12.68,12.68,0,0,0,3.69-4.71h3.81l.86-6.1-3.65-1a12.79,12.79,0,0,0-2.24-5.55l1.9-3.29-4.84-3.83-2.74,2.66a12.85,12.85,0,0,0-5.92-.87l-1.88-3.3-5.72,2.3.93,3.71a12.74,12.74,0,0,0-3.7,4.72h-3.8l-.87,6.1,3.65,1a12.88,12.88,0,0,0,.83,2.95Zm7.87-10.36a6.87,6.87,0,1,1-2.83,6.65,6.75,6.75,0,0,1,2.8-6.65Z" transform="translate(-58.53 -62.29)" fill="#4285f4"/><path d="M129.08,172.82a5.42,5.42,0,0,0,.58,1.09l-.78,1.34,2,1.55,1.12-1.09a5.27,5.27,0,0,0,2.42.34l.77,1.35,2.33-.94-.38-1.5a5.37,5.37,0,0,0,1.51-1.93h1.55l.35-2.49-1.49-.43a5.32,5.32,0,0,0-.91-2.26l.78-1.34-2-1.55-1.11,1.08a5.14,5.14,0,0,0-2.42-.34l-.77-1.35-2.33.94.37,1.5a5.34,5.34,0,0,0-1.5,1.93h-1.56l-.35,2.49,1.49.42a4.89,4.89,0,0,0,.33,1.19Zm3.29-4.3a2.8,2.8,0,1,1-.81,3.87,2.87,2.87,0,0,1-.41-1A2.83,2.83,0,0,1,132.37,168.52Z" transform="translate(-58.53 -62.29)" fill="#4285f4"/><path d="M57.81,79.4H325.08a3,3,0,0,1,3,3V214.85a3,3,0,0,1-3,3H54.81V82.4A3,3,0,0,1,57.81,79.4Z" fill="#787da7"/><path d="M388.71,287.5H111.29a5.51,5.51,0,0,1-5.5-5.5V105.1a5.51,5.51,0,0,1,5.5-5.5H389.71a4.51,4.51,0,0,1,4.5,4.5V282a5.51,5.51,0,0,1-5.5,5.5ZM111.29,100.6a4.51,4.51,0,0,0-4.5,4.5V282a4.51,4.51,0,0,0,4.5,4.5H388.71a4.51,4.51,0,0,0,4.5-4.5V104.1a3.5,3.5,0,0,0-3.5-3.5Z" transform="translate(-58.53 -62.29)" fill="#37474f"/><path d="M58.29,45.4H207a4,4,0,0,1,4,4v1.43a3,3,0,0,1-3,3H58.29a4,4,0,0,1-4-4V49.4A4,4,0,0,1,58.29,45.4Z" fill="#771efc"/><path d="M266.57,116.62H116.82a4.5,4.5,0,0,1-4.5-4.5v-.42a4.51,4.51,0,0,1,4.5-4.5H265.57a4.5,4.5,0,0,1,4.5,4.5v1.42a3.5,3.5,0,0,1-3.5,3.5ZM116.82,108.2a3.5,3.5,0,0,0-3.5,3.5v.42a3.5,3.5,0,0,0,3.5,3.5H266.57a2.5,2.5,0,0,0,2.5-2.5V111.7a3.5,3.5,0,0,0-3.5-3.5Z" transform="translate(-58.53 -62.29)" fill="#37474f"/><path d="M121,127.84a3.14,3.14,0,1,1-3.13-3.13,3.14,3.14,0,0,1,3.13,3.13Z" transform="translate(-58.53 -62.29)" fill="#fff"/><path d="M117.84,131.48a3.64,3.64,0,1,1,3.63-3.64,3.64,3.64,0,0,1-3.63,3.64Zm0-6.27a2.64,2.64,0,1,0,2.63,2.63,2.64,2.64,0,0,0-2.63-2.63Z" transform="translate(-58.53 -62.29)" fill="#37474f"/><circle cx="3.13" cy="3.13" r="3.13" transform="translate(66.84 62.42)" fill="#fff"/><path d="M128.5,131.48a3.64,3.64,0,1,1,3.63-3.64,3.64,3.64,0,0,1-3.63,3.64Zm0-6.27a2.64,2.64,0,1,0,2.63,2.63,2.64,2.64,0,0,0-2.63-2.63Z" transform="translate(-58.53 -62.29)" fill="#37474f"/><path d="M142.29,127.84a3.14,3.14,0,1,1-3.14-3.13,3.14,3.14,0,0,1,3.14,3.13Z" transform="translate(-58.53 -62.29)" fill="#fff"/><path d="M139.15,131.48a3.64,3.64,0,1,1,3.64-3.64A3.64,3.64,0,0,1,139.15,131.48Zm0-6.27a2.63,2.63,0,1,0,1.866.767A2.64,2.64,0,0,0,139.15,125.21Z" transform="translate(-58.53 -62.29)" fill="#37474f"/><ellipse cx="154.4" cy="14.93" rx="154.4" ry="14.93" transform="translate(37.07 350.05)" fill="#e1e1e1"/><path d="M76.31,446.38s-6.69,8.09-7.88,14.45.87,6,2.48,6.14,6-5.17,7.12-7.22,3.56-14.13,3.56-14.13Z" transform="translate(-58.53 -62.29)" fill="#fff"/><path d="M138.34,445.15l3.6-2.34s5.75,5,10.43,6.4,13.93-.91,15.6,4.73c0,0-8.44,2.94-13.45,2.57s-16.8-.2-16.8-.2Z" transform="translate(-58.53 -62.29)" fill="#fff"/><path d="M103.52,269.85s-7,53.33-9.09,68.17S84.13,392,82.61,400.74s-7.27,46.66-7.27,46.66l6.06,2.73,44.23-133s6.37,49.08,6.06,63.93,5.76,65.75,5.76,65.75l6.05-2.7s7.59-39.72,6.37-54.27,3.34-61.5,1.82-78.47-3.63-42.42-3.63-42.42S131.69,278.94,103.52,269.85Z" transform="translate(-58.53 -62.29)" fill="#37474f"/><path d="M70.43,467.4h-.48a2.58,2.58,0,0,1-2.4-2.08c-1.32-5.1,6.17-18.07,9.54-20.37a.49.49,0,0,1,.68.13.48.48,0,0,1-.13.68c-3,2.09-10.31,14.76-9.14,19.31a1.61,1.61,0,0,0,1.5,1.32h.39c7,0,10.27-18.09,10.3-18.27a.507.507,0,0,1,1,.17C81.56,449.11,78.21,467.4,70.43,467.4Z" transform="translate(-58.53 -62.29)" fill="#37474f"/><path d="M126.08,315.22a.45.45,0,0,1-.31-.11.49.49,0,0,1-.07-.69l14.44-17.75a.5.5,0,0,1,.7-.07.49.49,0,0,1,.07.69L126.47,315a.5.5,0,0,1-.39.22Z" transform="translate(-58.53 -62.29)" fill="#fff"/><path d="M127.61,317.37a.49.49,0,0,1-.42-.24.5.5,0,0,1,.17-.68,38.125,38.125,0,0,0,6.2-4.52.492.492,0,0,1,.65.74,39.1,39.1,0,0,1-6.35,4.63.45.45,0,0,1-.25.07Z" transform="translate(-58.53 -62.29)" fill="#fff"/><path d="M154.52,457c-2.2,0-4.93-.13-7.58-.25-3.71-.18-8.34-.4-8.95,0a.52.52,0,0,1-.51,0,.49.49,0,0,1-.26-.43l.26-15.4a.47.47,0,0,1,.51-.49.49.49,0,0,1,.48.51l-.25,14.73c1.31-.22,4-.12,8.77.1,2.63.12,5.35.25,7.53.25,5,0,11.22-1.87,12.88-2.4a4.83,4.83,0,0,0-3.54-2.93,16.208,16.208,0,0,0-4.09-.31h-1.6a23.25,23.25,0,0,1-16.48-7.66.5.5,0,0,1,0-.7.49.49,0,0,1,.7.05,22.23,22.23,0,0,0,15.77,7.32h1.56a17.119,17.119,0,0,1,4.33.34c1.94.48,4,1.95,4.37,4.15a.48.48,0,0,1-.33.54C167.82,454.51,160.44,457,154.52,457Z" transform="translate(-58.53 -62.29)" fill="#37474f"/><path d="M103.64,285.42a2.82,2.82,0,0,1-1.23-.27.492.492,0,0,1,.42-.89,2.81,2.81,0,0,0,3.18-1.1,9.34,9.34,0,0,0,1.37-3.82l1.24-6.25a.494.494,0,1,1,.97.19l-1.25,6.25a9.84,9.84,0,0,1-1.54,4.22,4.18,4.18,0,0,1-3.16,1.67Z" transform="translate(-58.53 -62.29)" fill="#fff"/><path d="M152.64,455a37.442,37.442,0,0,1-5-.33l-1.42-.21c-2.93-.43-6-.89-8.44.49l-.48-.87c2.75-1.53,6-1.05,9.07-.59l1.4.2a36.59,36.59,0,0,0,18.57-2.35l.37.91A37.59,37.59,0,0,1,152.64,455Z" transform="translate(-58.53 -62.29)" fill="#37474f"/><path d="M71.83,467a5.51,5.51,0,0,1-2.63-2.67,8.44,8.44,0,0,1-.23-3,23.51,23.51,0,0,1,6.41-14.48l.72.69A22.4,22.4,0,0,0,70,461.38a7.25,7.25,0,0,0,.19,2.64,4.58,4.58,0,0,0,2.1,2.07Z" transform="translate(-58.53 -62.29)" fill="#37474f"/><path d="M120.65,151.78l31.24-50.76L117.68,87.54l-28.2,41.88Z" fill="#fff"/><path d="M201.37,196.21s2.68-3.43,2.74-6.86-2.17-3.84-1.59-5.85.1-3.15-2-5.26-6.84-3.36-7.15-2.23,4.24,2.93,3.81,4.86c0,0-8.11.31-8.48,2.37l-.13,1.44s-1.62.74-1.25,1.62,8.68.75,8.68.75-1.38,5.42.43,7Z" transform="translate(-58.53 -62.29)" fill="#fff"/><path d="M185.67,167.74c8.58,11.31.77,25.55-10.8,32.92s-22.79,4.07-28.61-5.06-1.14-22.51,10.44-29.88S179.13,159.12,185.67,167.74Z" transform="translate(-58.53 -62.29)" fill="#fff"/><path d="M195,193.22l-14.42,33.05L154.3,203.51s-9.56-4.71-10.78-12.7l-18.64-2.59s-2.24,8.85-6.07,10.77l-4.18-7.32-.63,9s-9.62-3.9-12.32-6.19c0,0-21.49,9.72-25,20.33s8,36.19,8,36.19,4.34,11.13,8,11.83,11-6.1,11-6.1l-2,12.77s28.11,11.14,46.7-1.16l-.25-41.49s23.71,12,30.84,14.58,9.74,1.56,9.74,1.56S200.92,211,203,196.2Zm-95,49.51-3.63-13.65,6.19,11.59Z" transform="translate(-58.53 -62.29)" fill="#f8b409"/><path d="M150.67,199.7s14.52,6,28.41-8.84,5-24.11,5-24.11,12.32,8.48,1.74,23.48S163.61,205.39,157,204.28,150.67,199.7,150.67,199.7Z" transform="translate(-58.53 -62.29)" fill="#771efc"/><path d="M111.26,250.11c-.23,0,0,.35.25.35a109,109,0,0,0,11-.35l-10,3.9a2.26,2.26,0,0,0-.86.51,2.09,2.09,0,0,0-.39.87c-1.5,5.26-4.59,15.94-4.45,16l-5.14-1.88,2-12.77Z" transform="translate(-58.53 -62.29)" opacity="0.2"/><path d="M95.62,226.67l1.86-16.28s6,4.56,4.2,10.22S106.25,238,106.25,238l-3.72,2.71L95.11,225.4Z" transform="translate(-58.53 -62.29)" opacity="0.2"/><path d="M148.3,215.64s1.5,7.66,2.08,8.24-.58-6.38.47-6.73,3.82,9,3.82,9,10.67,6.26,14.27,5.68,9.28-7,9.28-7l2.18,2s-2.18,5.93-4.85,7.09c0,0,4.52,6,14.73,4.87,0,0-.73,5.47-4.76,4.64-9.49-2-37.36-16.63-37.36-16.63Z" transform="translate(-58.53 -62.29)" opacity="0.2"/><path d="M83,205.11C78.44,222,80.19,227.79,85.61,242c0,0,7.43-3.5,13.46-.28l.58,1.57-9.84,6.09s1,7.85,7.65,11.27c0,0-2.65,2.56-4.75,2.18s-10.34-18.28-12.15-21.9S70.09,219.2,83,205.11Z" transform="translate(-58.53 -62.29)" opacity="0.2"/><path d="M147.92,198a16,16,0,0,1-4.32-14.33c1.7-8.94,10.48-17.57,17.57-20.5s19-4.16,23,3.55c0,0-8.32-6.32-23,1.69S145.76,191.71,147.92,198Z" transform="translate(-58.53 -62.29)" fill="#771efc"/><path d="M180.51,227.31a.46.46,0,0,1-.33-.13l-31.17-28a.5.5,0,0,1,.66-.74l31.17,28a.53.53,0,0,1-.33.87Z" transform="translate(-58.53 -62.29)" fill="#37474f"/><path d="M186.55,244.11c-8,0-35-14.84-38.3-16.68a.5.5,0,0,1-.19-.67.49.49,0,0,1,.67-.19c14,7.73,35.81,18.47,38.92,16.34,3.5-2.39,11.74-33.54,14.75-45.88l-7.16-3.16-16,37.65a.48.48,0,0,1-.64.26.5.5,0,0,1-.26-.65L194.53,193a.51.51,0,0,1,.27-.27.5.5,0,0,1,.38,0l8,3.53a.49.49,0,0,1,.28.57c-.43,1.78-10.68,43.74-15.26,46.87a2.92,2.92,0,0,1-1.65.41Z" transform="translate(-58.53 -62.29)" fill="#37474f"/><path d="M128.27,275.47c-13.45,0-26.56-5.43-26.76-5.52a.5.5,0,0,1-.3-.53l2-12.77a.506.506,0,0,1,1,.15l-1.92,12.38c3.48,1.38,31.42,11.86,45.66-1.06l-.16-53.62a.49.49,0,0,1,.49-.5h0a.49.49,0,0,1,.49.49l.16,53.85a.45.45,0,0,1-.16.36C143.22,273.82,135.69,275.47,128.27,275.47Z" transform="translate(-58.53 -62.29)" fill="#37474f"/><path d="M142.86,190.28h-.06l-18.39-2.19a.49.49,0,0,1-.43-.55.5.5,0,0,1,.55-.43l18.39,2.19a.5.5,0,0,1-.06,1Z" transform="translate(-58.53 -62.29)" fill="#37474f"/><path d="M93.31,263.62c-2.06,0-3.75-3-4.76-4.73-.14-.25-.27-.47-.38-.65a111.459,111.459,0,0,1-6-12c-4.43-10-8.21-20.51-5.8-30.2,2.44-9.84,9.91-13.92,17.83-18.24,2.18-1.2,4.44-2.43,6.6-3.79a.49.49,0,0,1,.68.15.5.5,0,0,1-.15.68c-2.19,1.38-4.46,2.62-6.66,3.82-7.72,4.22-15,8.2-17.35,17.61s1.39,19.77,5.75,29.57A109.462,109.462,0,0,0,89,257.73l.39.67c.84,1.48,2.41,4.23,3.9,4.23h0c4.25-.1,28.16-21.71,37.42-30.41l-4.27-6.55-34,22.8a.494.494,0,1,1-.55-.82l34.39-23.08a.54.54,0,0,1,.37-.08.51.51,0,0,1,.32.21l.09.12,4.7,7.21a.5.5,0,0,1-.08.63c-1.34,1.26-32.82,30.83-38.37,31Z" transform="translate(-58.53 -62.29)" fill="#37474f"/><path d="M125.18,160.66a.49.49,0,0,1-.3-.1.51.51,0,0,1-.09-.7c.86-1.1,2.88-4.31,2-5.86a1.53,1.53,0,0,0-1-.89,1.56,1.56,0,0,0-1.14.41.5.5,0,0,1-.67-.73,2.65,2.65,0,0,1,2-.66,2.45,2.45,0,0,1,1.71,1.39c1.33,2.39-1.74,6.49-2.1,6.95a.49.49,0,0,1-.41.19Z" transform="translate(-58.53 -62.29)" fill="#37474f"/><path d="M158.14,201.68c-5.15,0-9.44-1.83-12.2-5.24-3-3.7-3.79-8.79-2.25-14.34a31.84,31.84,0,0,1,26.95-21.8c5.75-.35,10.56,1.49,13.55,5.19s3.8,8.79,2.26,14.34a31.87,31.87,0,0,1-26.95,21.81C159,201.67,158.58,201.68,158.14,201.68ZM172,161.24h-1.29a30.88,30.88,0,0,0-26.06,21.09c-1.45,5.23-.72,10,2.07,13.45s7.31,5.16,12.73,4.83a30.85,30.85,0,0,0,26.06-21.08c1.45-5.23.71-10-2.08-13.46C180.86,163,176.84,161.24,172,161.24Z" transform="translate(-58.53 -62.29)" fill="#37474f"/><path d="M161.34,205.21c-5,0-9.38-1.72-12.22-5.22-3-3.7-3.79-8.79-2.25-14.34a29.92,29.92,0,0,1,10.25-14.89c10.54-8.53,24.11-9.31,30.25-1.72,3,3.7,3.8,8.79,2.26,14.34a30.09,30.09,0,0,1-10.25,14.89C173.7,202.86,167.14,205.21,161.34,205.21Zm13.82-40.42c-5.57,0-11.92,2.28-17.42,6.74a29,29,0,0,0-9.92,14.38c-1.45,5.24-.72,10,2.07,13.46,5.8,7.16,18.75,6.32,28.87-1.87a29,29,0,0,0,9.92-14.39c1.45-5.23.71-10-2.08-13.45-2.6-3.27-6.77-4.87-11.44-4.87Z" transform="translate(-58.53 -62.29)" fill="#37474f"/><path d="M153.65,203.28,143.34,215v.05L130,230.11l-2.4-5.6-1.07.55s-.41.15-.4.1a4.76,4.76,0,0,0,.67-2.39c.67-.19,0-.89,0-1.13v-1.26l7.74-7.18.44-.46,13.78-13.92h.16a3.5,3.5,0,0,1,.73.16,4.64,4.64,0,0,1,1.64.84,7.34,7.34,0,0,1,2.27,3.11A1.132,1.132,0,0,0,153.65,203.28Z" transform="translate(-58.53 -62.29)" fill="#37474f"/><path d="M158.82,191.22a4.1,4.1,0,0,1-1.7-.36,4.63,4.63,0,0,1-2.5-3.7,9.419,9.419,0,0,1,.35-3.34c.39-1.63.88-3.54,1.53-5.45a1.924,1.924,0,0,1,3.64,1.25c-.61,1.75-1.07,3.56-1.44,5.09a6.339,6.339,0,0,0-.27,2,1,1,0,0,0,.3.66c.06,0,.47.13,1.88-.84,6.57-4.55,13-9.45,19.14-14.59a1.924,1.924,0,1,1,2.47,2.95c-6.22,5.2-12.76,10.18-19.43,14.8a7.33,7.33,0,0,1-3.97,1.53Z" transform="translate(-58.53 -62.29)" fill="#771efc"/><path d="M158.82,191.72a4.431,4.431,0,0,1-1.9-.42,5.1,5.1,0,0,1-2.79-4.08,9.82,9.82,0,0,1,.36-3.51c.4-1.65.89-3.58,1.55-5.5a2.411,2.411,0,1,1,4.56,1.57c-.59,1.73-1,3.53-1.42,5.05a6,6,0,0,0-.26,1.82.64.64,0,0,0,.06.22,5.8,5.8,0,0,0,1.35-.75c6.56-4.54,13-9.44,19.11-14.55a2.36,2.36,0,0,1,1.76-.56,2.406,2.406,0,0,1,1.33,4.25c-6.23,5.23-12.78,10.21-19.46,14.83a7.77,7.77,0,0,1-4.25,1.63Zm-.5-14.15a1.52,1.52,0,0,0-.63.14,1.45,1.45,0,0,0-.72.82c-.65,1.88-1.13,3.79-1.52,5.4a9.11,9.11,0,0,0-.34,3.17,4.14,4.14,0,0,0,2.22,3.31,3.63,3.63,0,0,0,1.49.32,7,7,0,0,0,3.69-1.45c6.66-4.6,13.18-9.57,19.39-14.77a1.47,1.47,0,0,0,.51-1,1.45,1.45,0,0,0-.33-1,1.42,1.42,0,0,0-2-.18c-6.14,5.14-12.59,10.06-19.18,14.61-1.15.8-1.93,1.09-2.37.89a1.36,1.36,0,0,1-.58-1,6.66,6.66,0,0,1,.28-2.17c.38-1.55.84-3.37,1.45-5.14a1.43,1.43,0,0,0-.89-1.81A1.24,1.24,0,0,0,158.32,177.57Z" transform="translate(-58.53 -62.29)" fill="#37474f"/><path d="M169.51,207.73a.51.51,0,0,1-.28-.09l-4-2.81a.49.49,0,0,1-.12-.69.5.5,0,0,1,.69-.12l4,2.81a.51.51,0,0,1,.12.69A.49.49,0,0,1,169.51,207.73Z" transform="translate(-58.53 -62.29)" fill="#37474f"/><path d="M179.18,214.56a.52.52,0,0,1-.29-.09l-5.36-3.79a.49.49,0,0,1-.12-.69.51.51,0,0,1,.69-.12l4.93,3.49,16.05-26a.5.5,0,0,1,.68-.16.49.49,0,0,1,.17.68L179.6,214.33a.45.45,0,0,1-.32.22Z" transform="translate(-58.53 -62.29)" fill="#37474f"/><path d="M201.77,177.86a.48.48,0,0,1-.26-.07.49.49,0,0,1-.16-.68l8.34-13.56-33.3-13.11L169,160.93a.49.49,0,0,1-.8-.56l7.57-10.82a.47.47,0,0,1,.58-.17l34.21,13.47a.52.52,0,0,1,.29.31.54.54,0,0,1,0,.41l-8.65,14.06a.51.51,0,0,1-.43.23Z" transform="translate(-58.53 -62.29)" fill="#37474f"/><path d="M99.74,243.22a.49.49,0,0,1-.42-.24c-.81-1.35-6.59-24.79-7.24-27.46a.514.514,0,0,1,1-.24c2.55,10.41,6.56,26.23,7.12,27.19a.49.49,0,0,1-.17.68.59.59,0,0,1-.29.07Z" transform="translate(-58.53 -62.29)" fill="#37474f"/><path d="M102.47,240.6a.49.49,0,0,1-.44-.26l-7-13.21a.5.5,0,0,1,.21-.67.48.48,0,0,1,.66.2l7.05,13.22a.48.48,0,0,1-.2.66.53.53,0,0,1-.28.06Z" transform="translate(-58.53 -62.29)" fill="#37474f"/><path d="M88.09,244a.5.5,0,0,1-.49-.44A.49.49,0,0,1,88,243c2.8-.34,5.61-.8,8.36-1.35a.509.509,0,1,1,.19,1c-2.77.56-5.6,1-8.43,1.36Z" transform="translate(-58.53 -62.29)" fill="#37474f"/><path d="M95.74,228.65a.53.53,0,0,1-.24-.06.58.58,0,0,1-.3-.52.71.71,0,0,1,.16-.38l1.37-12.88a.48.48,0,0,1,.54-.44.49.49,0,0,1,.44.54l-1.38,13a.51.51,0,0,1,0,.13.55.55,0,0,1-.16.49A.68.68,0,0,1,95.74,228.65ZM95.35,227.78Z" transform="translate(-58.53 -62.29)" fill="#37474f"/><path d="M144.23,214c0,1.69-1.75,5.18-1.75,5.18a2.679,2.679,0,0,1,0,.44,12.192,12.192,0,0,1-.41,1.82,8.51,8.51,0,0,1-2.56,4.1l-.87.69a.26.26,0,0,1-.11.07c-2.07,1.59-5.21,3.79-7.1,5.1l-1-1.58s-2.71-3.89-3.38-5.22a6.454,6.454,0,0,0,.47-.69,6.24,6.24,0,0,0-.27-2.38c-.07-.28-.14-.55-.18-.79a1.35,1.35,0,0,1,.07-.95,4,4,0,0,1,.43-.48h0c1.55-1.64,6.42-6.27,6.42-6.27a12.313,12.313,0,0,1,1.52-.83,2.57,2.57,0,0,1,1.2-.31.39.39,0,0,1,.41.33,1.44,1.44,0,0,1,0,.46,27.239,27.239,0,0,1-1.95,4.89c0,.23.21.21.26-.19a45.447,45.447,0,0,1,4.43-2.66h.09c1.93-1,3.79-1.73,4.22-1.34a.21.21,0,0,1,.06.08,1.272,1.272,0,0,0,.07.24C144.32,213.79,144.23,213.88,144.23,214Z" transform="translate(-58.53 -62.29)" fill="#fff"/><path d="M131.46,232.06a.46.46,0,0,1-.4-.21.5.5,0,0,1,.11-.69c2-1.39,5.16-3.64,7-5l.12-.08c2.6-1.89,2.92-2.93,3.23-4.48l.05-.26c.06-.32.13-.66.21-1a2.1,2.1,0,0,1,.15-.57c.23-.74.56-1.5.87-2.23a7.77,7.77,0,0,0,1-3.25.908.908,0,0,0,0-.16.609.609,0,0,1,0-.13v-.05c-.14,0-.88-.09-3.6,1.44l-.18.09c-2.34,1.35-4.94,3.18-5,3.19a.48.48,0,0,1-.62,0,.5.5,0,0,1-.07-.63c.14-.21.26-.42.38-.62,1.6-2.64,1.92-3.84,1.9-4.39,0-.31-.12-.36-.15-.38a.89.89,0,0,0-.5-.08,1.632,1.632,0,0,0-.31,0c-.92.14-2.65,2-4.17,3.59a35.351,35.351,0,0,1-2.74,2.74,3.091,3.091,0,0,0-.74.92v.06a2.68,2.68,0,0,0-.28,1,4.071,4.071,0,0,0,0,.84,4.679,4.679,0,0,0,.14.86,5,5,0,0,1,.14,1.65,3.83,3.83,0,0,1-.37.92v.09a.51.51,0,0,1-.66.25.5.5,0,0,1-.25-.65l.06-.11c.08-.18.25-.54.29-.67a4.3,4.3,0,0,0-.14-1.29,8.152,8.152,0,0,0-.15-.93,6,6,0,0,1,0-1,3.86,3.86,0,0,1,.42-1.5h0a4.26,4.26,0,0,1,1-1.17c.83-.72,1.76-1.72,2.67-2.68,1.87-2,3.48-3.69,4.74-3.89h.37a1.84,1.84,0,0,1,1.07.21,1.32,1.32,0,0,1,.65,1.2,8.21,8.21,0,0,1-1.3,3.68c.94-.62,2.14-1.39,3.3-2l.1-.05c3.55-2,4.44-1.74,4.85-1.22a.58.58,0,0,1,.13.24.77.77,0,0,1,.09.27,1.561,1.561,0,0,1,.07.37,8.31,8.31,0,0,1-1,3.75,19.316,19.316,0,0,0-.83,2.12c-.06.17-.1.34-.14.5-.08.35-.14.68-.2,1l-.05.26c-.35,1.74-.78,3-3.55,5a1.64,1.64,0,0,1-.26.17c-1.76,1.29-4.94,3.55-6.92,4.94a.47.47,0,0,1-.53.02Zm12.17-18.2Z" transform="translate(-58.53 -62.29)" fill="#37474f"/><path d="M172.92,232.15a.51.51,0,0,1-.42-.23.5.5,0,0,1,.15-.68,28.808,28.808,0,0,0,4.73-3.72.492.492,0,0,1,.68.71,30.23,30.23,0,0,1-4.88,3.84A.5.5,0,0,1,172.92,232.15Z" transform="translate(-58.53 -62.29)" fill="#37474f"/><path d="M195.77,194a.51.51,0,0,1-.48-.39,12.84,12.84,0,0,1,.08-6,26.461,26.461,0,0,1-6.94-.34,1.73,1.73,0,0,1-1.2-.64,1.35,1.35,0,0,1,.23-1.65,2.79,2.79,0,0,1,1.19-.65,36.887,36.887,0,0,1,5.88-1.3,5.28,5.28,0,0,1,2.31,0c1.46.43,2.28,1.84,2.94,3.13a.48.48,0,0,1-.21.66.5.5,0,0,1-.67-.21c-.59-1.16-1.25-2.32-2.33-2.63a4.44,4.44,0,0,0-1.88,0,37.6,37.6,0,0,0-5.73,1.26,2.17,2.17,0,0,0-.79.4c-.12.13-.18.33-.12.42a1.428,1.428,0,0,0,.56.22,25.45,25.45,0,0,0,7.34.26.5.5,0,0,1,.54.62,12.5,12.5,0,0,0-.24,6.24.48.48,0,0,1-.37.59Z" transform="translate(-58.53 -62.29)" fill="#37474f"/><path d="M188.9,184.91a.94.94,0,0,1-.58-.21,1.15,1.15,0,0,1-.43-.82,1.61,1.61,0,0,1,.51-1.17,5.21,5.21,0,0,1,2.18-1.26,13.79,13.79,0,0,1,7.31-.53.511.511,0,1,1-.21,1,12.63,12.63,0,0,0-6.78.5,4.3,4.3,0,0,0-1.78,1,.69.69,0,0,0-.24.45.14.14,0,0,0,.05.1.45.45,0,0,1,.56.38.5.5,0,0,1-.41.58Z" transform="translate(-58.53 -62.29)" fill="#37474f"/><path d="M201.68,196.56a.46.46,0,0,1-.32-.11.49.49,0,0,1-.06-.7,9.91,9.91,0,0,0,1.48-10.11l-.18-.4a6.08,6.08,0,0,1-.56-1.67,5.67,5.67,0,0,1,0-1.49,3.91,3.91,0,0,0,0-1.49,4,4,0,0,0-1.82-1.94,12.77,12.77,0,0,0-5.59-2.51,1.27,1.27,0,0,0-.78.09.68.68,0,0,0-.07.43l2.31,1.35a3.2,3.2,0,0,1,1.48,1.46,3.05,3.05,0,0,1,.15,1.21,4.147,4.147,0,0,0,0,.61.506.506,0,1,1-1,.15,4.9,4.9,0,0,1,0-.77,2.28,2.28,0,0,0-.08-.85,2.32,2.32,0,0,0-1.07-1l-2.37-1.42a1,1,0,0,1-.42-.86,1.39,1.39,0,0,1,.53-1.18,2.19,2.19,0,0,1,1.41-.24,13.55,13.55,0,0,1,6,2.67,3.78,3.78,0,0,1,2.26,4.36,5.26,5.26,0,0,0-.05,1.24,5.32,5.32,0,0,0,.49,1.4l.19.41a11,11,0,0,1-1.64,11.15.48.48,0,0,1-.29.21Z" transform="translate(-58.53 -62.29)" fill="#37474f"/><path d="M88.88,155.8l3.9-4.76,2.84,3.76a14.82,14.82,0,0,1-6.74,1Z" transform="translate(-58.53 -62.29)" fill="#fff"/><path d="M104.83,186.42l-3.15,8.06,12.32,6.2v-8.84l4.9,7.67a59.189,59.189,0,0,0,6-11.3L121.2,184s-4.57,7.21-7.35,7S104.83,186.42,104.83,186.42Z" transform="translate(-58.53 -62.29)" fill="#fff"/><path d="M122.88,145l1.11,7.13s3.65.15,3.49,2.69-2.7,6.5-2.7,6.5,1.75,11.16-3.64,16.55v5.51s-3.47,6.93-7.1,8.44c0,0-6-2.14-8.86-4.84,0,0-4.23-14.88-5.65-19.63,0,0-2.67,1.63-4.37.09s-4.53-5.13-3.2-7.06,4.66-1.12,4.66-1.12L92.78,151s6.49-8.4,15-8.08a74.369,74.369,0,0,1,15.1,2.08Z" transform="translate(-58.53 -62.29)" fill="#fff"/><path d="M103.18,145.25a17.5,17.5,0,0,1,2.43,10.53c-.19,2.05-.74,4.07-.85,6.13-.18,3.29.76,6.52,1.7,9.68.61,2.07,1.09,4.8,3,5.81,1,.49,2,.12,3.17.92,0,.07.09.31.09.39,0,2.84.53,5.56.12,8.37a7.29,7.29,0,0,1-1.61,4.06l-6.4-4.72S102,175.54,99.3,167.54c0,0-4.56,1.08-6.41-2.52s-1.74-5.1.11-5.56a12.16,12.16,0,0,1,4.53.11l-1.28-8.69,5.22-5.34Z" transform="translate(-58.53 -62.29)" fill="#4285f4"/><path d="M103.18,145.25a17.5,17.5,0,0,1,2.43,10.53c-.19,2.05-.74,4.07-.85,6.13-.18,3.29.76,6.52,1.7,9.68.61,2.07,1.09,4.8,3,5.81,1,.49,2,.12,3.17.92,0,.07.09.31.09.39,0,2.84.53,5.56.12,8.37a7.29,7.29,0,0,1-1.61,4.06l-6.4-4.72S102,175.54,99.3,167.54c0,0-4.56,1.08-6.41-2.52s-1.74-5.1.11-5.56a12.16,12.16,0,0,1,4.53.11l-1.28-8.69,5.22-5.34Z" transform="translate(-58.53 -62.29)" fill="#fff" opacity="0.5"/><path d="M96.64,161.67l2.08-1.23s-1.82-3.58.33-5.27,4.15-3.84,2.61-8.76c0,0,3.08-1.53,8-.3S127,148.67,132.38,143s5.84-7.93,3.69-11.77-6.14,1.69-12.59-1.08-11.37-5.07-22.28,2-12.59,13.36-10.44,17.66S95,157.83,96.64,161.67Z" transform="translate(-58.53 -62.29)" fill="#37474f"/><path d="M89.33,154.17,90.7,151a22.52,22.52,0,0,1-.53-12.73c2.2-8.49,11.63-12.73,17.3-13.51s10,1.93,14.29,4.08l7.89,1.6S105.53,133.37,89.33,154.17Z" transform="translate(-58.53 -62.29)" fill="#fff"/><path d="M117.23,179.42c-3.59,0-9.67-1.41-12.34-3.73l-.08-.09-5.74-8.23a.5.5,0,0,1,.12-.69.51.51,0,0,1,.69.12l5.7,8.18c3.19,2.72,11.15,4,13.36,3.28s4.88-2.58,5.54-11.09-1.56-19.85-1.58-20a.5.5,0,0,1,.39-.58.49.49,0,0,1,.58.39c0,.12,2.26,11.53,1.59,20.24-.7,9.09-3.7,11.16-6.23,11.95A7.22,7.22,0,0,1,117.23,179.42Z" transform="translate(-58.53 -62.29)" fill="#37474f"/><path d="M96.88,168.39a4.54,4.54,0,0,1-2-.48,8.3,8.3,0,0,1-3.42-4.63,4.18,4.18,0,0,1,0-3.11c1.21-2.22,4.69-.7,4.84-.64a.5.5,0,0,1,.24.66.48.48,0,0,1-.65.24s-2.8-1.19-3.57.21a3.25,3.25,0,0,0,.06,2.34,7.39,7.39,0,0,0,2.93,4,3.39,3.39,0,0,0,3.21-.05.49.49,0,1,1,.53.82,4.2,4.2,0,0,1-2.17.64Z" transform="translate(-58.53 -62.29)" fill="#37474f"/><path d="M117,163.75a.5.5,0,0,1-.49-.4.49.49,0,0,1,.39-.58,2.49,2.49,0,0,0,1.46-.91.8.8,0,0,0,.21-.71,1,1,0,0,0-.2-.26,10.94,10.94,0,0,1-1-1.21,3.57,3.57,0,0,1-.74-2.25,18.391,18.391,0,0,1,.18-3.32.49.49,0,0,1,.56-.41.5.5,0,0,1,.42.56,17.311,17.311,0,0,0-.17,3.14,3.47,3.47,0,0,0,.1.85,3.63,3.63,0,0,0,.46.87,10.271,10.271,0,0,0,.87,1.08,2.2,2.2,0,0,1,.39.54,1.69,1.69,0,0,1-.33,1.72,3.47,3.47,0,0,1-2,1.28Z" transform="translate(-58.53 -62.29)" fill="#37474f"/><path d="M113.92,168.31a7.679,7.679,0,0,1-.91-.07h-.3a7.42,7.42,0,0,1-3.11-.92.5.5,0,0,1-.19-.67.48.48,0,0,1,.67-.19,6.76,6.76,0,0,0,2.7.8h.35a3,3,0,0,0,1.62-.1.492.492,0,0,1,.44.88,2.75,2.75,0,0,1-1.27.27Z" transform="translate(-58.53 -62.29)" fill="#37474f"/><path d="M106.86,152.57a.5.5,0,0,1-.42-.76,9.309,9.309,0,0,1,1.67-2.15,4.91,4.91,0,0,1,4.08-1.1.48.48,0,0,1,.39.57.5.5,0,0,1-.57.4,3.92,3.92,0,0,0-3.25.88,8.26,8.26,0,0,0-1.48,1.92.49.49,0,0,1-.42.24Z" transform="translate(-58.53 -62.29)" fill="#37474f"/><path d="M122.79,152a.51.51,0,0,1-.49-.41.83.83,0,0,0-.25-.47,2,2,0,0,0-.55-.33,4.07,4.07,0,0,0-3.45-.09.49.49,0,0,1-.68-.18.5.5,0,0,1,.18-.67,4.83,4.83,0,0,1,4.34,0,2.78,2.78,0,0,1,.84.51,1.9,1.9,0,0,1,.55,1,.5.5,0,0,1-.4.57Z" transform="translate(-58.53 -62.29)" fill="#37474f"/><path d="M111.75,156.11c.07.74-.17,1.37-.54,1.4s-.72-.53-.79-1.27.17-1.37.54-1.4S111.68,155.37,111.75,156.11Z" transform="translate(-58.53 -62.29)" fill="#37474f"/><path d="M120.92,155.59c.07.74-.17,1.37-.54,1.4s-.73-.53-.8-1.27.17-1.37.54-1.41S120.85,154.85,120.92,155.59Z" transform="translate(-58.53 -62.29)" fill="#37474f"/><path d="M121.2,184.49a.49.49,0,0,1-.49-.44,35.68,35.68,0,0,1-.29-5.93.5.5,0,1,1,1,.07,36.712,36.712,0,0,0,.29,5.76.49.49,0,0,1-.44.54Z" transform="translate(-58.53 -62.29)" fill="#37474f"/><path d="M104.75,186.87a.5.5,0,0,1-.49-.43c-.61-5.07-2.17-9.5-3.83-14.19-.56-1.6-1.15-3.25-1.7-4.95a.49.49,0,0,1,.32-.62.48.48,0,0,1,.62.31c.55,1.69,1.13,3.34,1.7,4.94,1.67,4.74,3.25,9.21,3.87,14.39a.49.49,0,0,1-.43.55Z" transform="translate(-58.53 -62.29)" fill="#37474f"/><path d="M88.88,156.29a.57.57,0,0,1-.18,0,.5.5,0,0,1-.3-.57c3.17-13.63,11.09-22.1,24.22-25.9,7.92-2.29,18.09.1,18.52.2a.5.5,0,1,1-.06,1A57.31,57.31,0,0,0,89.31,156a.5.5,0,0,1-.43.29Zm31.63-26.49a27.88,27.88,0,0,0-7.62.94c-11.84,3.42-19.32,10.77-22.8,22.4a58.9,58.9,0,0,1,37.79-22.75,48.822,48.822,0,0,0-7.37-.59Z" transform="translate(-58.53 -62.29)" fill="#37474f"/><path d="M89.89,156.66a4.09,4.09,0,0,1-1.14-.13.493.493,0,0,1,.3-.94s1.81.51,5.35-1.05a.48.48,0,0,1,.65.25.49.49,0,0,1-.25.65,12.4,12.4,0,0,1-4.91,1.22Z" transform="translate(-58.53 -62.29)" fill="#37474f"/><path d="M90.1,150.63c0-.15-4.87-15.22,7-22.53,14.52-8.93,24.81.6,24.91.7l-.68.71c-.39-.37-9.85-9.09-23.71-.56C86.4,135.85,91,150.17,91,150.32Z" transform="translate(-58.53 -62.29)" fill="#37474f"/><path d="M114,201.17a.43.43,0,0,1-.19,0c-.43-.18-10.63-4.49-12.67-6.87a.52.52,0,0,1-.08-.52l3.32-7.52a.47.47,0,0,1,.37-.28.49.49,0,0,1,.44.14,21.29,21.29,0,0,0,8.94,5.28.5.5,0,0,1,.36.48v8.84a.49.49,0,0,1-.22.41A.5.5,0,0,1,114,201.17Zm-11.9-7.33c2,1.9,9.15,5.11,11.41,6.09v-7.72a22,22,0,0,1-8.52-4.94Z" transform="translate(-58.53 -62.29)" fill="#37474f"/><path d="M118.9,200h-.06a.46.46,0,0,1-.35-.23l-4.91-7.67a.48.48,0,0,1-.06-.37.47.47,0,0,1,.22-.31c.05,0,5.74-3.69,7.08-8.13a.49.49,0,0,1,.38-.34.51.51,0,0,1,.49.19l3.58,4.78a.46.46,0,0,1,.08.41c-.07.31-1.82,7.68-6.12,11.54a.46.46,0,0,1-.33.13Zm-4.22-8,4.32,6.76c3.38-3.38,5-9.22,5.34-10.42l-2.9-3.86C119.89,188.16,116,191.09,114.68,192Z" transform="translate(-58.53 -62.29)" fill="#37474f"/><path d="M104.06,141a.48.48,0,0,1-.47-.37.49.49,0,0,1,.35-.6,35.09,35.09,0,0,1,11-1.11c1.09.07,2.18.18,3.24.3a29.76,29.76,0,0,0,7.24.17c3.18-.45,6.71-2.4,7.43-5.74a.5.5,0,0,1,.59-.37.48.48,0,0,1,.37.58c-.81,3.81-4.74,6-8.26,6.51a30.571,30.571,0,0,1-7.47-.17c-1-.11-2.13-.23-3.19-.29a34.07,34.07,0,0,0-10.68,1.07Z" transform="translate(-58.53 -62.29)" fill="#fff"/><path d="M111.18,137.23a.51.51,0,0,1-.43-.26.49.49,0,0,1,.2-.67c3-1.61,6.49-1.9,9.77-2.06H121a18.939,18.939,0,0,0,4.33-.54,5.77,5.77,0,0,0,3.49-2.47.49.49,0,0,1,.67-.17.48.48,0,0,1,.18.67,6.7,6.7,0,0,1-4.07,2.92,20.119,20.119,0,0,1-4.55.58h-.27c-3.17.15-6.51.43-9.36,1.94A.46.46,0,0,1,111.18,137.23Z" transform="translate(-58.53 -62.29)" fill="#fff"/></g><rect width="159" height="58" rx="7" transform="translate(615 6026)" fill="#fff"/><rect width="159" height="16" rx="7" transform="translate(615 6088)" fill="#fff"/><rect width="50" height="36" rx="7" transform="translate(615 6108)" fill="#fff"/><rect width="48" height="36" rx="7" transform="translate(670 6108)" fill="#fff"/><rect width="50" height="36" rx="7" transform="translate(724 6108)" fill="#fff"/></g></svg>