<svg xmlns="http://www.w3.org/2000/svg" xmlns:xlink="http://www.w3.org/1999/xlink" width="1920" height="395" viewBox="0 0 1920 395">
  <defs>
    <clipPath id="clip-path">
      <path id="Path_3198" data-name="Path 3198" d="M0,0H1920V395H0Z" transform="translate(0 4253.198)" fill="#787da7"/>
    </clipPath>
    <linearGradient id="linear-gradient" x1="0.5" y1="1.562" x2="0.574" y2="-0.808" gradientUnits="objectBoundingBox">
      <stop offset="0" stop-color="#787da7"/>
      <stop offset="1" stop-color="#fff"/>
    </linearGradient>
  </defs>
  <g id="Group_2957" data-name="Group 2957" transform="translate(0 -4253.198)">
    <path id="Path_2639" data-name="Path 2639" d="M0,0H1920V395H0Z" transform="translate(0 4253.198)" fill="#787da7"/>
    <g id="Mask_Group_4" data-name="Mask Group 4" clip-path="url(#clip-path)">
      <g id="Group_2013" data-name="Group 2013" transform="translate(377.998 1034.198)">
        <path id="Intersection_1" data-name="Intersection 1" d="M0,0H980.505C875.19,40.38,694.931,67,490.253,67S105.316,40.38,0,0Z" transform="translate(1712.201 3219)" fill="url(#linear-gradient)"/>
        <path id="Intersection_2" data-name="Intersection 2" d="M0,0H980.505C875.19,40.38,694.931,67,490.253,67S105.316,40.38,0,0Z" transform="translate(1421.395 3219)" fill="url(#linear-gradient)"/>
        <path id="Intersection_3" data-name="Intersection 3" d="M0,0H980.505C875.19,40.38,694.931,67,490.253,67S105.316,40.38,0,0Z" transform="translate(1196.163 3219)" fill="url(#linear-gradient)"/>
        <path id="Intersection_4" data-name="Intersection 4" d="M0,0H980.505C875.19,40.38,694.931,67,490.253,67S105.316,40.38,0,0Z" transform="translate(933.281 3219)" fill="url(#linear-gradient)"/>
        <path id="Intersection_5" data-name="Intersection 5" d="M0,0H980.505C875.19,40.38,694.931,67,490.253,67S105.316,40.38,0,0Z" transform="translate(648.177 3219)" fill="url(#linear-gradient)"/>
      </g>
    </g>
  </g>
</svg>
