<svg id="hero" xmlns="http://www.w3.org/2000/svg" xmlns:xlink="http://www.w3.org/1999/xlink" width="397.7" height="285.827" viewBox="0 0 397.7 285.827">
  <defs>
    <linearGradient id="linear-gradient" x1="0.455" y1="0.033" x2="0.499" y2="0.487" gradientUnits="objectBoundingBox">
      <stop offset="0" stop-color="#fff"/>
      <stop offset="1"/>
    </linearGradient>
    <linearGradient id="linear-gradient-2" x1="0.513" y1="-0.151" x2="0.5" y2="0.46" xlink:href="#linear-gradient"/>
    <linearGradient id="linear-gradient-3" x1="0.482" y1="-0.432" x2="0.5" y2="0.494" xlink:href="#linear-gradient"/>
    <linearGradient id="linear-gradient-4" x1="0.5" y1="0.11" x2="0.505" y2="0.925" xlink:href="#linear-gradient"/>
    <linearGradient id="linear-gradient-5" x1="0.489" y1="0.211" x2="0.532" y2="0.918" xlink:href="#linear-gradient"/>
    <linearGradient id="linear-gradient-6" x1="0.069" y1="0.101" x2="0.961" y2="0.928" xlink:href="#linear-gradient"/>
  </defs>
  <ellipse id="Ellipse_685" data-name="Ellipse 685" cx="88.751" cy="20.519" rx="88.751" ry="20.519" transform="translate(110.099 244.789)" fill="#4b3eb8" opacity="0.1"/>
  <path id="Path_3161" data-name="Path 3161" d="M774.188,137.992l-80.5,40.142L693.6,60.024,775.337,21.64Z" transform="translate(-686.535 -19.629)" fill="#ada6f3"/>
  <path id="Path_3162" data-name="Path 3162" d="M721.839,134.5l-24.812,12.321L697.01,63.72l25.1-11.95Z" transform="translate(-684.181 1.167)" fill="none" stroke="#fff" stroke-miterlimit="10" stroke-width="0.38" opacity="0.4"/>
  <path id="Path_3163" data-name="Path 3163" d="M754.719,76.626l-40.159,19.5.152-37.843L755.074,39.07Z" transform="translate(-672.068 -7.599)" fill="none" stroke="#fff" stroke-miterlimit="10" stroke-width="0.38" opacity="0.4"/>
  <path id="Path_3164" data-name="Path 3164" d="M754.382,102.766,714.46,122.609l.152-37.4L754.72,65.65Z" transform="translate(-672.138 10.746)" fill="none" stroke="#fff" stroke-miterlimit="10" stroke-width="0.38" opacity="0.4"/>
  <g id="Group_2268" data-name="Group 2268" transform="translate(7.048 18.254)" opacity="0.4">
    <path id="Path_3165" data-name="Path 3165" d="M693.607,70.53l-.017-.676,81.6-38.6-.017.642Z" transform="translate(-693.59 -31.25)" fill="#fff"/>
  </g>
  <path id="Path_3166" data-name="Path 3166" d="M699.809,47.69a3.787,3.787,0,0,1-1.589,3.262c-.879.423-1.589-.372-1.589-1.69A3.786,3.786,0,0,1,698.22,46C699.1,45.509,699.809,46.3,699.809,47.69Z" transform="translate(-684.445 -2.917)" fill="none" stroke="#fff" stroke-miterlimit="10" stroke-width="0.38" opacity="0.4"/>
  <path id="Path_3167" data-name="Path 3167" d="M703.3,46.04A3.82,3.82,0,0,1,701.71,49.3c-.879.406-1.589-.372-1.589-1.69a3.786,3.786,0,0,1,1.589-3.262C702.606,43.859,703.3,44.654,703.3,46.04Z" transform="translate(-682.036 -4.056)" fill="none" stroke="#fff" stroke-miterlimit="10" stroke-width="0.38" opacity="0.4"/>
  <path id="Path_3168" data-name="Path 3168" d="M706.792,44.387a3.819,3.819,0,0,1-1.589,3.262c-.879.406-1.589-.372-1.572-1.69A3.82,3.82,0,0,1,705.22,42.7C706.1,42.224,706.792,43,706.792,44.387Z" transform="translate(-679.613 -5.192)" fill="none" stroke="#fff" stroke-miterlimit="10" stroke-width="0.38" opacity="0.4"/>
  <path id="Path_3169" data-name="Path 3169" d="M774.188,137.992l-80.5,40.142L693.6,60.024,775.337,21.64Z" transform="translate(-686.535 -19.629)" opacity="0.06" fill="url(#linear-gradient)"/>
  <path id="Path_3170" data-name="Path 3170" d="M873.319,137.992l80.5,40.142.1-118.11L872.17,21.64Z" transform="translate(-563.289 -19.629)" fill="#ada6f3"/>
  <path id="Path_3171" data-name="Path 3171" d="M902.54,134.5l24.812,12.321.017-83.106-25.1-11.95Z" transform="translate(-542.514 1.167)" fill="none" stroke="#fff" stroke-miterlimit="10" stroke-width="0.38" opacity="0.4"/>
  <path id="Path_3172" data-name="Path 3172" d="M875.948,76.626l40.159,19.5-.152-37.843L875.61,39.07Z" transform="translate(-560.915 -7.599)" fill="none" stroke="#fff" stroke-miterlimit="10" stroke-width="0.38" opacity="0.4"/>
  <path id="Path_3173" data-name="Path 3173" d="M876.188,102.766l39.922,19.843-.135-37.4L875.85,65.65Z" transform="translate(-560.749 10.746)" fill="none" stroke="#fff" stroke-miterlimit="10" stroke-width="0.38" opacity="0.4"/>
  <g id="Group_2269" data-name="Group 2269" transform="translate(309.05 18.254)" opacity="0.4">
    <path id="Path_3174" data-name="Path 3174" d="M953.838,70.547,872.27,31.892V31.25l81.568,38.587Z" transform="translate(-872.27 -31.25)" fill="#fff"/>
  </g>
  <path id="Path_3175" data-name="Path 3175" d="M915.622,47.69a3.786,3.786,0,0,0,1.589,3.262c.879.423,1.69-.372,1.69-1.69A3.8,3.8,0,0,0,917.21,46C916.264,45.509,915.622,46.3,915.622,47.69Z" transform="translate(-533.302 -2.917)" fill="none" stroke="#fff" stroke-miterlimit="10" stroke-width="0.38" opacity="0.4"/>
  <path id="Path_3176" data-name="Path 3176" d="M912.121,46.04A3.82,3.82,0,0,0,913.71,49.3c.879.406,1.589-.372,1.589-1.69a3.786,3.786,0,0,0-1.589-3.262C912.831,43.859,912.121,44.654,912.121,46.04Z" transform="translate(-535.717 -4.056)" fill="none" stroke="#fff" stroke-miterlimit="10" stroke-width="0.38" opacity="0.4"/>
  <path id="Path_3177" data-name="Path 3177" d="M908.631,44.387a3.82,3.82,0,0,0,1.589,3.262c.879.406,1.589-.372,1.589-1.69A3.854,3.854,0,0,0,910.22,42.7C909.341,42.224,908.631,43,908.631,44.387Z" transform="translate(-538.126 -5.192)" fill="none" stroke="#fff" stroke-miterlimit="10" stroke-width="0.38" opacity="0.4"/>
  <path id="Path_3178" data-name="Path 3178" d="M873.319,137.992l80.5,40.142.1-118.11L872.17,21.64Z" transform="translate(-563.289 -19.629)" opacity="0.06" fill="url(#linear-gradient-2)"/>
  <rect id="Rectangle_942" data-name="Rectangle 942" width="133.677" height="122.133" transform="translate(132.003)" fill="#ada6f3"/>
  <rect id="Rectangle_943" data-name="Rectangle 943" width="40.716" height="86.25" transform="translate(141.283 27.82)" fill="none" stroke="#fff" stroke-miterlimit="10" stroke-width="0.38" opacity="0.4"/>
  <rect id="Rectangle_944" data-name="Rectangle 944" width="66.712" height="39.246" transform="translate(189.689 27.82)" fill="none" stroke="#fff" stroke-miterlimit="10" stroke-width="0.38" opacity="0.4"/>
  <rect id="Rectangle_945" data-name="Rectangle 945" width="66.712" height="39.246" transform="translate(189.689 74.824)" fill="none" stroke="#fff" stroke-miterlimit="10" stroke-width="0.38" opacity="0.4"/>
  <line id="Line_60" data-name="Line 60" x2="133.677" transform="translate(132.003 17.138)" fill="none" stroke="#fff" stroke-miterlimit="10" stroke-width="0.38" opacity="0.4"/>
  <circle id="Ellipse_686" data-name="Ellipse 686" cx="2.569" cy="2.569" r="2.569" transform="translate(140.218 5.882)" fill="none" stroke="#fff" stroke-miterlimit="10" stroke-width="0.38" opacity="0.4"/>
  <circle id="Ellipse_687" data-name="Ellipse 687" cx="2.569" cy="2.569" r="2.569" transform="translate(149.768 5.882)" fill="none" stroke="#fff" stroke-miterlimit="10" stroke-width="0.38" opacity="0.4"/>
  <circle id="Ellipse_688" data-name="Ellipse 688" cx="2.569" cy="2.569" r="2.569" transform="translate(159.3 5.882)" fill="none" stroke="#fff" stroke-miterlimit="10" stroke-width="0.38" opacity="0.4"/>
  <rect id="Rectangle_946" data-name="Rectangle 946" width="133.677" height="122.133" transform="translate(132.003)" opacity="0.06" fill="url(#linear-gradient-3)"/>
  <path id="Path_3179" data-name="Path 3179" d="M962.883,182.258l-93.805,48.694L868.3,90.4,963.66,55.63Z" transform="translate(-565.96 3.831)" fill="#695ecc"/>
  <path id="Path_3180" data-name="Path 3180" d="M962.883,182.258l-93.805,48.694L868.3,90.4,963.66,55.63Z" transform="translate(-565.96 3.831)" fill="#8f85e7"/>
  <path id="Path_3181" data-name="Path 3181" d="M903.5,181.473l-30.322,15.448-.456-98.233L903.431,86.4Z" transform="translate(-562.909 25.067)" fill="none" stroke="#fff" stroke-miterlimit="10" stroke-width="0.46" opacity="0.7"/>
  <path id="Path_3182" data-name="Path 3182" d="M939.436,115.415,894.19,135.782V92.513l45.466-18.2Z" transform="translate(-548.091 16.723)" fill="none" stroke="#fff" stroke-miterlimit="10" stroke-width="0.46" opacity="0.7"/>
  <path id="Path_3183" data-name="Path 3183" d="M939.183,144.025l-44.976,22.9L894.19,124.2l45.2-20.789Z" transform="translate(-548.091 36.807)" fill="none" stroke="#fff" stroke-miterlimit="10" stroke-width="0.46" opacity="0.7"/>
  <path id="Path_3184" data-name="Path 3184" d="M868.377,103.633l-.017-.828L963.5,66.06l.017.727Z" transform="translate(-565.919 11.029)" fill="#fff" opacity="0.7"/>
  <path id="Path_3185" data-name="Path 3185" d="M876.178,80.668a4.056,4.056,0,0,1-1.977,3.718c-1.115.423-2.028-.575-2.028-2.214a4.073,4.073,0,0,1,1.994-3.735C875.266,78.031,876.178,79.028,876.178,80.668Z" transform="translate(-563.292 19.509)" fill="none" stroke="#fff" stroke-miterlimit="10" stroke-width="0.46" opacity="0.7"/>
  <path id="Path_3186" data-name="Path 3186" d="M880.5,79.021a4.005,4.005,0,0,1-1.944,3.685c-1.1.423-1.995-.575-1.995-2.2a4.074,4.074,0,0,1,1.96-3.7C879.622,76.4,880.5,77.4,880.5,79.021Z" transform="translate(-560.261 18.384)" fill="none" stroke="#fff" stroke-miterlimit="10" stroke-width="0.46" opacity="0.7"/>
  <path id="Path_3187" data-name="Path 3187" d="M884.8,77.4a4.005,4.005,0,0,1-1.994,3.651c-1.082.406-1.961-.575-1.961-2.18A4.023,4.023,0,0,1,882.8,75.2C883.918,74.816,884.78,75.8,884.8,77.4Z" transform="translate(-557.307 17.282)" fill="none" stroke="#fff" stroke-miterlimit="10" stroke-width="0.46" opacity="0.7"/>
  <path id="Path_3188" data-name="Path 3188" d="M962.883,182.258l-93.805,48.694L868.3,90.4,963.66,55.63Z" transform="translate(-565.96 3.831)" opacity="0.1" fill="url(#linear-gradient-4)"/>
  <path id="Path_3189" data-name="Path 3189" d="M690.2,182.258,784,230.953,784.763,90.4,689.42,55.63Z" transform="translate(-689.42 3.831)" fill="#8f85e7"/>
  <path id="Path_3190" data-name="Path 3190" d="M723.2,181.473l30.322,15.448.456-98.233L723.284,86.4Z" transform="translate(-666.106 25.067)" fill="none" stroke="#fff" stroke-miterlimit="10" stroke-width="0.46" opacity="0.7"/>
  <path id="Path_3191" data-name="Path 3191" d="M693.26,115.415l45.246,20.367.017-43.269L693.04,74.31Z" transform="translate(-686.921 16.723)" fill="none" stroke="#fff" stroke-miterlimit="10" stroke-width="0.46" opacity="0.7"/>
  <path id="Path_3192" data-name="Path 3192" d="M693.42,144.025l44.976,22.9V124.2L693.2,103.41Z" transform="translate(-686.811 36.807)" fill="none" stroke="#fff" stroke-miterlimit="10" stroke-width="0.46" opacity="0.7"/>
  <path id="Path_3193" data-name="Path 3193" d="M784.62,103.653,689.48,66.875V66.03l95.14,36.8Z" transform="translate(-689.378 11.008)" fill="#fff" opacity="0.7"/>
  <path id="Path_3194" data-name="Path 3194" d="M739.592,80.668a4.073,4.073,0,0,0,1.994,3.718c1.1.423,2.011-.575,2.011-2.214a4.04,4.04,0,0,0-1.994-3.735C740.505,78.031,739.592,79.028,739.592,80.668Z" transform="translate(-654.795 19.509)" fill="none" stroke="#fff" stroke-miterlimit="10" stroke-width="0.46" opacity="0.7"/>
  <path id="Path_3195" data-name="Path 3195" d="M735.243,79.021a3.989,3.989,0,0,0,1.96,3.685c1.082.423,1.978-.575,1.978-2.2a4.04,4.04,0,0,0-1.961-3.7C736.122,76.4,735.243,77.4,735.243,79.021Z" transform="translate(-657.799 18.384)" fill="none" stroke="#fff" stroke-miterlimit="10" stroke-width="0.46" opacity="0.7"/>
  <path id="Path_3196" data-name="Path 3196" d="M731,77.4a3.939,3.939,0,0,0,1.927,3.651c1.065.406,1.944-.575,1.944-2.18a4.006,4.006,0,0,0-1.927-3.668C731.8,74.816,731,75.8,731,77.4Z" transform="translate(-660.726 17.282)" fill="none" stroke="#fff" stroke-miterlimit="10" stroke-width="0.46" opacity="0.7"/>
  <path id="Path_3197" data-name="Path 3197" d="M690.2,182.258,784,230.953,784.763,90.4,689.42,55.63Z" transform="translate(-689.42 3.831)" opacity="0.1" fill="url(#linear-gradient-5)"/>
  <rect id="Rectangle_947" data-name="Rectangle 947" width="160.601" height="146.742" transform="translate(118.55 91.134)" fill="#771efc"/>
  <rect id="Rectangle_948" data-name="Rectangle 948" width="140.86" height="103.608" transform="translate(128.42 124.566)" fill="none" stroke="#fff" stroke-miterlimit="10" stroke-width="0.46" opacity="0.7"/>
  <line id="Line_61" data-name="Line 61" x2="160.584" transform="translate(118.55 111.721)" fill="none" stroke="#fff" stroke-miterlimit="10" stroke-width="0.46" opacity="0.7"/>
  <circle id="Ellipse_689" data-name="Ellipse 689" cx="3.093" cy="3.093" r="3.093" transform="translate(128.403 98.199)" fill="none" stroke="#fff" stroke-miterlimit="10" stroke-width="0.46" opacity="0.7"/>
  <circle id="Ellipse_690" data-name="Ellipse 690" cx="3.093" cy="3.093" r="3.093" transform="translate(139.863 98.199)" fill="none" stroke="#fff" stroke-miterlimit="10" stroke-width="0.46" opacity="0.7"/>
  <circle id="Ellipse_691" data-name="Ellipse 691" cx="3.093" cy="3.093" r="3.093" transform="translate(151.339 98.199)" fill="none" stroke="#fff" stroke-miterlimit="10" stroke-width="0.46" opacity="0.7"/>
  <rect id="Rectangle_949" data-name="Rectangle 949" width="160.601" height="146.742" transform="translate(118.55 91.033)" opacity="0.1" fill="url(#linear-gradient-6)"/>
  <g id="Group_2270" data-name="Group 2270" transform="translate(-156.708 -1566.634)">
    <g id="Layer_2" data-name="Layer 2" transform="translate(315.07 1704.398)">
      <g id="Layer_1" data-name="Layer 1" transform="translate(0 0)">
        <path id="Path_3110" data-name="Path 3110" d="M6.438,59.1H11.3l-.752,2.883a1.82,1.82,0,0,1-.646.968,1.744,1.744,0,0,1-1.1.366H6.545a2.19,2.19,0,0,0-1.363.452A2.367,2.367,0,0,0,4.354,65a2.289,2.289,0,0,0-.032,1.1,2.374,2.374,0,0,0,.417.915,2.173,2.173,0,0,0,.775.635,2.277,2.277,0,0,0,1.033.237H7.923a.775.775,0,0,1,.635.312.746.746,0,0,1,.143.7l-.861,3.185H6.335A6.08,6.08,0,0,1,3.483,71.4a6.44,6.44,0,0,1-2.167-1.8A6.341,6.341,0,0,1,.144,67.054,6.277,6.277,0,0,1,.22,64.113l.086-.323A6.362,6.362,0,0,1,2.575,60.4a6.449,6.449,0,0,1,1.793-.958A6.24,6.24,0,0,1,6.438,59.1Z" transform="translate(-0.005 -54.86)" fill="#fff"/>
        <path id="Path_3111" data-name="Path 3111" d="M123.89,17.211l4.24-15.88a1.82,1.82,0,0,1,.646-.968,1.744,1.744,0,0,1,1.1-.366h4.5a6.08,6.08,0,0,1,2.851.678,6.4,6.4,0,0,1,3.346,4.347,6.011,6.011,0,0,1-.086,2.941l-.086.323a6.447,6.447,0,0,1-.861,1.9A6.287,6.287,0,0,1,134.284,13h-3.895l.775-2.9a1.82,1.82,0,0,1,.646-.947,1.744,1.744,0,0,1,1.1-.366h1.248a2.264,2.264,0,0,0,2.195-1.7,2.108,2.108,0,0,0,.029-1.058,2.374,2.374,0,0,0-.42-.915,2.278,2.278,0,0,0-.775-.646,2.2,2.2,0,0,0-1.029-.247h-2.41L128.6,15.9a1.82,1.82,0,0,1-.646.947,1.713,1.713,0,0,1-1.076.366Z" transform="translate(-115.004 0.004)" fill="#fff"/>
        <path id="Path_3112" data-name="Path 3112" d="M357.077,63.177l.065-.237a.316.316,0,0,0-.054-.287.329.329,0,0,0-.269-.118h-6.993a1.721,1.721,0,0,1-.818-.194,1.788,1.788,0,0,1-.6-.5,1.765,1.765,0,0,1-.323-.717,1.829,1.829,0,0,1,.022-.839l.43-1.635H358a3.4,3.4,0,0,1,1.614.387,3.725,3.725,0,0,1,1.219,1.011,3.61,3.61,0,0,1,.667,1.435,3.572,3.572,0,0,1-.032,1.668l-1.7,6.326a2.914,2.914,0,0,1-2.84,2.173l-6.993-.022a3.7,3.7,0,0,1-2.973-1.467,3.9,3.9,0,0,1-.689-1.506,3.549,3.549,0,0,1,.043-1.732l.086-.323a3.413,3.413,0,0,1,.506-1.119,3.873,3.873,0,0,1,.828-.882,3.733,3.733,0,0,1,1.054-.57,3.668,3.668,0,0,1,1.227-.2h5.874l-.43,1.614a1.828,1.828,0,0,1-.646.947,1.716,1.716,0,0,1-1.076.366h-2.625a.455.455,0,0,0-.473.366.44.44,0,0,0,.086.42.477.477,0,0,0,.387.183h4.239a.665.665,0,0,0,.409-.129.557.557,0,0,0,.215-.344l.043-.172Z" transform="translate(-321.357 -54.44)" fill="#fff"/>
        <path id="Path_3113" data-name="Path 3113" d="M554.884,59.1a6.125,6.125,0,0,1,2.869.678,6.443,6.443,0,0,1,2.163,1.793,6.34,6.34,0,0,1,1.172,2.561,6.152,6.152,0,0,1-.1,2.948l-1.076,4.045a1.185,1.185,0,0,1-.463.689,1.307,1.307,0,0,1-.789.258h-2.317a.789.789,0,0,1-.775-1.011l1.291-4.885a2.107,2.107,0,0,0,.032-1.054,2.383,2.383,0,0,0-.419-.915,2.3,2.3,0,0,0-.775-.646,2.2,2.2,0,0,0-1.033-.247h-2.41l-2.089,7.815a1.177,1.177,0,0,1-.463.689,1.338,1.338,0,0,1-.807.258h-2.3a.773.773,0,0,1-.634-.312.748.748,0,0,1-.143-.7L549.006,59.1Z" transform="translate(-506.641 -54.856)" fill="#fff"/>
        <path id="Path_3114" data-name="Path 3114" d="M772.873,63.15a1.1,1.1,0,0,0-.366.527l-.968,3.658a.645.645,0,0,0,.624.818h8.909l-.687,2.561a1.82,1.82,0,0,1-.646.947,1.712,1.712,0,0,1-1.076.366h-8.114a3.473,3.473,0,0,1-1.614-.377,3.55,3.55,0,0,1-1.219-1.011,3.694,3.694,0,0,1-.667-1.442,3.3,3.3,0,0,1,.054-1.65l1.313-4.885a4.891,4.891,0,0,1,3.106-3.346,4.727,4.727,0,0,1,1.582-.269h5.745a3.4,3.4,0,0,1,1.614.387,3.718,3.718,0,0,1,1.219,1.011,3.491,3.491,0,0,1,.656,1.442,3.6,3.6,0,0,1-.043,1.657l-.387,1.463a2.8,2.8,0,0,1-1.04,1.567,2.875,2.875,0,0,1-1.774.588h-6.5l.43-1.592a1.706,1.706,0,0,1,.624-.947,1.745,1.745,0,0,1,1.1-.366h2.625a.456.456,0,0,0,.474-.366l.086-.323a.5.5,0,0,0-.473-.624h-4A.912.912,0,0,0,772.873,63.15Z" transform="translate(-711.957 -54.811)" fill="#fff"/>
        <path id="Path_3115" data-name="Path 3115" d="M963.28,17.21,967.605.964a1.223,1.223,0,0,1,.46-.7A1.3,1.3,0,0,1,968.875,0h2.3a.8.8,0,0,1,.656.312.748.748,0,0,1,.143.7l-3.228,11.986a5.346,5.346,0,0,1-.764,1.721,5.641,5.641,0,0,1-1.248,1.323,5.856,5.856,0,0,1-1.6.861A5.512,5.512,0,0,1,963.28,17.21Z" transform="translate(-894.187 0.005)" fill="#fff"/>
        <path id="Path_3116" data-name="Path 3116" d="M1094.83,1.9a1.462,1.462,0,0,1,.2-.738,1.478,1.478,0,0,1,1.284-.742,1.462,1.462,0,0,1,.738.2,1.444,1.444,0,0,1,.544.542,1.483,1.483,0,1,1-2.574,1.471,1.459,1.459,0,0,1-.188-.729Zm.207,0a1.274,1.274,0,0,0,2.376.64,1.233,1.233,0,0,0,.172-.639,1.232,1.232,0,0,0-.171-.636A1.283,1.283,0,0,0,1096.95.8a1.277,1.277,0,0,0-1.741.463,1.231,1.231,0,0,0-.173.638Zm1.875-.359a.477.477,0,0,1-.084.278.487.487,0,0,1-.235.18l.469.778h-.331l-.408-.7h-.265v.7h-.292V1.025h.511a.743.743,0,0,1,.479.128.48.48,0,0,1,.156.39Zm-.854.3h.215a.376.376,0,0,0,.253-.082.261.261,0,0,0,.1-.207.247.247,0,0,0-.085-.212.444.444,0,0,0-.268-.065h-.208Z" transform="translate(-1016.301 -0.389)" fill="#fff"/>
      </g>
    </g>
    <g id="Group_2234" data-name="Group 2234" transform="translate(330.491 1757.085)">
      <path id="Path_3117" data-name="Path 3117" d="M42.172,215.976H40.6V199.514a13.29,13.29,0,0,1,3.887-.619,6.974,6.974,0,0,1,2.513.433,5.56,5.56,0,0,1,1.943,1.2,5.052,5.052,0,0,1,1.238,1.844,6.149,6.149,0,0,1,.433,2.315,6.03,6.03,0,0,1-.52,2.612,5.273,5.273,0,0,1-1.374,1.795,5.439,5.439,0,0,1-1.943,1.027,7.534,7.534,0,0,1-2.228.334,7.721,7.721,0,0,1-1.2-.087c-.4-.062-.792-.149-1.176-.248Zm6.647-11.326a4.614,4.614,0,0,0-1.1-3.193,3.982,3.982,0,0,0-3.094-1.213,10.583,10.583,0,0,0-1.25.074,5.655,5.655,0,0,0-1.2.285v8.033a11.651,11.651,0,0,0,1.126.309,4.911,4.911,0,0,0,1.126.124,4.405,4.405,0,0,0,3.206-1.151A4.3,4.3,0,0,0,48.819,204.651Z" transform="translate(-40.6 -194.464)" fill="#fff"/>
      <path id="Path_3118" data-name="Path 3118" d="M147.1,178.981V163.1h1.584v15.868H147.1Z" transform="translate(-133.918 -163.1)" fill="#fff"/>
      <path id="Path_3119" data-name="Path 3119" d="M195.472,208.516a5.325,5.325,0,0,1-1.832,1.3,6.38,6.38,0,0,1-2.513.446,5.68,5.68,0,0,1-2.389-.47,4.62,4.62,0,0,1-1.7-1.263,5.175,5.175,0,0,1-1.015-1.82,6.708,6.708,0,0,1-.347-2.154,7.423,7.423,0,0,1,.408-2.6,5.176,5.176,0,0,1,1.114-1.832,4.533,4.533,0,0,1,1.634-1.077,5.636,5.636,0,0,1,1.968-.347,4.588,4.588,0,0,1,3.763,1.535,6.691,6.691,0,0,1,1.225,4.456h-8.5a4.615,4.615,0,0,0,1.114,3.057,3.674,3.674,0,0,0,2.835,1.139,4.607,4.607,0,0,0,1.82-.334,4.026,4.026,0,0,0,1.473-1.052Zm-1.275-5.149a4.281,4.281,0,0,0-.21-1.312,3.025,3.025,0,0,0-.607-1.04,2.747,2.747,0,0,0-1.027-.693,4.338,4.338,0,0,0-2.958,0,2.7,2.7,0,0,0-.99.668,4.31,4.31,0,0,0-.668,1.027,4.242,4.242,0,0,0-.4,1.349Z" transform="translate(-167.721 -194.294)" fill="#fff"/>
      <path id="Path_3120" data-name="Path 3120" d="M299.252,200.891a3.941,3.941,0,0,0-1.287-1.1,3.413,3.413,0,0,0-1.634-.347,2.587,2.587,0,0,0-1.7.433,1.362,1.362,0,0,0-.483,1.089,1.3,1.3,0,0,0,.223.767,1.92,1.92,0,0,0,.594.545,4.454,4.454,0,0,0,.854.4c.322.111.656.223,1.015.334.433.136.854.285,1.287.446a4.643,4.643,0,0,1,1.176.619,3.15,3.15,0,0,1,.866.941,2.72,2.72,0,0,1,.334,1.4,2.866,2.866,0,0,1-.334,1.386,3.135,3.135,0,0,1-.9,1.027,3.961,3.961,0,0,1-1.349.631,6.655,6.655,0,0,1-4.048-.223,5.608,5.608,0,0,1-1.968-1.461l1.238-1.089a3.868,3.868,0,0,0,3.206,1.584,3.11,3.11,0,0,0,1.906-.483,1.437,1.437,0,0,0,.619-1.151,1.58,1.58,0,0,0-.223-.879,2.065,2.065,0,0,0-.619-.607,4.008,4.008,0,0,0-.9-.421q-.52-.167-1.077-.334c-.433-.124-.854-.26-1.275-.408a4.424,4.424,0,0,1-1.126-.582,2.59,2.59,0,0,1-1.139-2.278,2.707,2.707,0,0,1,1.089-2.315A4.61,4.61,0,0,1,296.43,198a5.525,5.525,0,0,1,2.191.421,5.205,5.205,0,0,1,1.844,1.436l-1.164,1.065Z" transform="translate(-260.795 -193.675)" fill="#fff"/>
      <path id="Path_3121" data-name="Path 3121" d="M385.3,179.156V163.3h1.584v15.856Zm1.6-5.855,5.446-5.5h2.129l-5.582,5.446,5.558,5.892h-2.2Z" transform="translate(-342.634 -163.275)" fill="#fff"/>
      <path id="Path_3122" data-name="Path 3122" d="M124.056,326.3H114.5v-1.5h9.556Z" transform="translate(-105.353 -304.785)" fill="#fff"/>
    </g>
    <line id="Line_56" data-name="Line 56" x1="128.505" transform="translate(291.297 1738.452)" fill="none" stroke="#fff" stroke-width="1" opacity="0.176"/>
  </g>
</svg>
