<svg xmlns="http://www.w3.org/2000/svg" width="73.697" height="58.387" viewBox="0 0 73.697 58.387"><g transform="translate(-459.554 -2083.158)"><path d="M0,0,59.824.619,65.707,3.38,31.767,28.325-.761,6.695Z" transform="translate(465 2086)" fill="#771efc"/><g transform="translate(463.036 2085.658)"><path d="M6.673,0H60.06a6.693,6.693,0,0,1,6.673,6.673v40.04a6.693,6.693,0,0,1-6.673,6.673H6.673A6.693,6.693,0,0,1,0,46.714V6.673A6.693,6.693,0,0,1,6.673,0Z" fill="none" stroke="#000" stroke-linecap="round" stroke-linejoin="round" stroke-width="5" fill-rule="evenodd"/><path d="M66.734,2,33.367,25.357,0,2" transform="translate(0 4.673)" fill="none" stroke="#000" stroke-linecap="round" stroke-linejoin="round" stroke-width="5" fill-rule="evenodd"/></g></g></svg>