<svg xmlns="http://www.w3.org/2000/svg" xmlns:xlink="http://www.w3.org/1999/xlink" width="55.572" height="62.703" viewBox="0 0 55.572 62.703"><defs><clipPath id="a"><rect width="55.572" height="62.703"/></clipPath></defs><g transform="translate(-737.213 -2081)"><circle cx="5" cy="5" r="5" transform="translate(748 2125.045)" fill="#f8d326"/><circle cx="5" cy="5" r="5" transform="translate(743 2125.045)" fill="#771efc"/><circle cx="5" cy="5" r="5" transform="translate(747 2123.045)" fill="#771efc"/><circle cx="5" cy="5" r="5" transform="translate(752 2124.045)" fill="#771efc"/><circle cx="5" cy="5" r="5" transform="translate(749 2129.045)" fill="#771efc"/><circle cx="5" cy="5" r="5" transform="translate(768 2125.045)" fill="#771efc"/><circle cx="5" cy="5" r="5" transform="translate(773 2124.045)" fill="#771efc"/><circle cx="5" cy="5" r="5" transform="translate(777 2125.045)" fill="#771efc"/><circle cx="5" cy="5" r="5" transform="translate(771 2129.045)" fill="#771efc"/><g transform="translate(737.213 2081)"><g transform="translate(0)" clip-path="url(#a)"><path d="M16.038,62.7A3.007,3.007,0,0,1,14.6,61.135c-.847-1.763-1.752-3.5-2.6-5.26a.819.819,0,0,0-.882-.531c-3,.021-6,0-8.994.017A1.878,1.878,0,0,1,.746,52.007q5.115-5.1,10.213-10.212c.155-.155.3-.318.476-.5A23.625,23.625,0,0,1,3.981,22.439,23.142,23.142,0,0,1,11.771,6.212a23.747,23.747,0,0,1,32.075.042,23.133,23.133,0,0,1,7.789,17.465,23.569,23.569,0,0,1-7.5,17.569c.178.187.326.349.481.5q4.909,4.913,9.814,9.832a17.353,17.353,0,0,1,1.139,1.4v.98a2.326,2.326,0,0,1-2.46,1.365c-2.889-.054-5.779-.006-8.669-.03a.818.818,0,0,0-.869.548c-.839,1.739-1.733,3.452-2.57,5.192A3.067,3.067,0,0,1,39.538,62.7h-.979a11.3,11.3,0,0,1-1.392-1.309c-3.014-3.952-6-7.929-8.99-11.9-.117-.155-.248-.3-.4-.474-.156.193-.274.33-.382.474-2.993,3.968-5.976,7.944-8.99,11.9A11.278,11.278,0,0,1,17.017,62.7Zm31.945-38.8A20.195,20.195,0,1,0,27.753,44.09a20.23,20.23,0,0,0,20.23-20.184M14.517,43.723,6.558,51.682c1.607,0,3.326.114,5.022-.031A3.034,3.034,0,0,1,15.1,53.836c.456,1.2,1.134,2.317,1.754,3.552l7.445-9.878a23.906,23.906,0,0,1-9.777-3.788m16.765,3.789,7.449,9.879c.759-1.521,1.49-2.931,2.17-4.365a2.134,2.134,0,0,1,2.168-1.354c1.834.037,3.669.011,5.5.009.192,0,.385-.018.556-.026l-7.985-7.988a24,24,0,0,1-9.863,3.845" transform="translate(0 0.001)"/><path d="M108.358,59.982A16.53,16.53,0,1,1,91.843,76.488a16.552,16.552,0,0,1,16.515-16.506m-1.86,4.707c-2.564,2.828-3.228,6.308-3.581,9.937H106.5Zm-3.525,13.683c.025,3.468,1.7,8.831,3.509,9.927V78.372Zm10.789-3.727c-.064-3.69-1.77-8.855-3.524-9.936v9.936ZM110.228,88.33l.157.053c2.39-2.884,3.087-6.352,3.426-9.989h-3.583Zm7.259-13.68h3.6A12.575,12.575,0,0,0,115.619,66a28.185,28.185,0,0,1,1.868,8.654m-18.328,0c.234-1.513.382-2.975.7-4.4s.811-2.834,1.221-4.229c-2.318.954-5.158,5.473-5.384,8.628Zm-3.519,3.72a12.621,12.621,0,0,0,5.483,8.661,28.036,28.036,0,0,1-1.886-8.661Zm21.851,0a28.264,28.264,0,0,1-1.878,8.664,12.577,12.577,0,0,0,5.469-8.664Z" transform="translate(-80.577 -52.625)"/></g></g></g></svg>