<svg xmlns="http://www.w3.org/2000/svg" width="59" height="64.831" viewBox="0 0 59 64.831"><path d="M19.7,15.75a2.95,2.95,0,1,0-2.95-2.95A2.95,2.95,0,0,0,19.7,15.75ZM58.05,54.1H39.819a8.85,8.85,0,0,0-5.369-5.369V42.3h11.8a8.85,8.85,0,0,0,8.85-8.85v-5.9a8.85,8.85,0,0,0-2.3-5.9,8.85,8.85,0,0,0,2.3-5.9V9.85A8.85,8.85,0,0,0,46.25,1H16.75A8.85,8.85,0,0,0,7.9,9.85v5.9a8.85,8.85,0,0,0,2.3,5.9,8.85,8.85,0,0,0-2.3,5.9v5.9a8.85,8.85,0,0,0,8.85,8.85h11.8v6.431A8.85,8.85,0,0,0,23.181,54.1H4.95a2.95,2.95,0,0,0,0,5.9H23.181a8.85,8.85,0,0,0,16.638,0H58.05a2.95,2.95,0,0,0,0-5.9ZM13.8,9.85A2.95,2.95,0,0,1,16.75,6.9h29.5A2.95,2.95,0,0,1,49.2,9.85v5.9a2.95,2.95,0,0,1-2.95,2.95H16.75a2.95,2.95,0,0,1-2.95-2.95ZM16.75,36.4a2.95,2.95,0,0,1-2.95-2.95v-5.9a2.95,2.95,0,0,1,2.95-2.95h29.5a2.95,2.95,0,0,1,2.95,2.95v5.9a2.95,2.95,0,0,1-2.95,2.95ZM31.5,60a2.95,2.95,0,1,1,2.95-2.95A2.95,2.95,0,0,1,31.5,60ZM19.7,27.55a2.95,2.95,0,1,0,2.95,2.95A2.95,2.95,0,0,0,19.7,27.55Z" transform="translate(-2 -1)"/></svg>