<svg xmlns="http://www.w3.org/2000/svg" width="60.129" height="60.129" viewBox="0 0 60.129 60.129"><g transform="translate(-1050.936 -2089.936)"><rect width="21" height="20" rx="6" transform="translate(1070.5 2105.045)" fill="#771efc"/><g transform="translate(1051.436 2090.436)"><path d="M57.9,49.274H56.665v-30.8a3.7,3.7,0,0,0-3.7-3.7h-3.7V3.7a3.7,3.7,0,0,0-3.7-3.7H13.55a3.7,3.7,0,0,0-3.7,3.7V14.782h-3.7a3.7,3.7,0,0,0-3.7,3.7v30.8H1.232A1.232,1.232,0,0,0,0,50.506V52.97a6.159,6.159,0,0,0,6.159,6.159H52.97a6.159,6.159,0,0,0,6.159-6.159V50.506A1.232,1.232,0,0,0,57.9,49.274ZM12.319,9.855H46.81V38.187a1.232,1.232,0,0,1-1.232,1.232H13.55a1.232,1.232,0,0,1-1.232-1.232Zm0-6.159A1.232,1.232,0,0,1,13.55,2.464H45.579A1.232,1.232,0,0,1,46.81,3.7v3.7H12.319ZM4.927,18.478a1.232,1.232,0,0,1,1.232-1.232h3.7V38.187a3.7,3.7,0,0,0,3.7,3.7H45.579a3.7,3.7,0,0,0,3.7-3.7V17.246h3.7A1.232,1.232,0,0,1,54.2,18.478v30.8c-19.71,0-19.094-.283-19.574.678l-.9,1.786H25.4c-1-1.983-1.084-2.464-2-2.464H4.927ZM56.665,52.97a3.7,3.7,0,0,1-3.7,3.7H6.159a3.7,3.7,0,0,1-3.7-3.7V51.738H22.641c1,1.983,1.084,2.464,2,2.464,10.619,0,10.5.246,10.951-.678l.9-1.786H56.665Z" stroke="#000" stroke-width="1"/><path d="M13.232,3a1.232,1.232,0,1,0,1.232,1.232A1.232,1.232,0,0,0,13.232,3Zm4.927,0a1.232,1.232,0,1,0,1.232,1.232A1.232,1.232,0,0,0,18.159,3Zm4.927,0a1.232,1.232,0,1,0,1.232,1.232A1.232,1.232,0,0,0,23.087,3Zm3.7,33.26A12.319,12.319,0,1,0,14.464,23.941,12.319,12.319,0,0,0,26.782,36.26ZM17.014,25.173h4.927a17.542,17.542,0,0,0,2.464,8.3A9.855,9.855,0,0,1,17.014,25.173Zm9.769-10a14.511,14.511,0,0,1,2.464,7.539H24.319a14.511,14.511,0,0,1,2.464-7.539Zm2.464,10a14.511,14.511,0,0,1-2.464,7.539,14.511,14.511,0,0,1-2.464-7.539Zm0,8.3a17.542,17.542,0,0,0,2.464-8.3h4.927a9.855,9.855,0,0,1-7.391,8.3Zm7.3-10.766H31.71a17.542,17.542,0,0,0-2.464-8.3,9.855,9.855,0,0,1,7.3,8.3Zm-12.232-8.3a17.542,17.542,0,0,0-2.464,8.3H16.927a9.855,9.855,0,0,1,7.391-8.3Z" transform="translate(2.782 0.696)" stroke="#000" stroke-width="1"/></g></g></svg>