<svg xmlns="http://www.w3.org/2000/svg" xmlns:xlink="http://www.w3.org/1999/xlink" width="33.477" height="33.481" viewBox="0 0 33.477 33.481">
  <defs>
    <clipPath id="clip-path">
      <rect id="Rectangle_742" data-name="Rectangle 742" width="33.477" height="33.481" fill="#5454d3"/>
    </clipPath>
  </defs>
  <g id="Group_2007" data-name="Group 2007" clip-path="url(#clip-path)">
    <path id="Path_2503" data-name="Path 2503" d="M0,17.724V15.763c.02-.116.043-.231.06-.347.1-.721.164-1.451.319-2.161A16.26,16.26,0,0,1,6.592,3.461,16.24,16.24,0,0,1,20.255.4,16.162,16.162,0,0,1,30,6.565a16.277,16.277,0,0,1,3.387,11.854,16.172,16.172,0,0,1-4.084,9.357,16.438,16.438,0,0,1-9.683,5.446c-.63.112-1.269.175-1.9.261H15.76a1.8,1.8,0,0,0-.252-.054,15.931,15.931,0,0,1-7.3-2.3,16.52,16.52,0,0,1-7.943-11.5C.143,19,.085,18.358,0,17.724m23.155-5a47.128,47.128,0,0,1,0,8.045,26.49,26.49,0,0,1,6.08,1.606,13.828,13.828,0,0,0,0-11.263,26.241,26.241,0,0,1-6.08,1.612M10.326,20.766a47.1,47.1,0,0,1,0-8.045,26.3,26.3,0,0,1-6.081-1.609,13.831,13.831,0,0,0,0,11.263,26.306,26.306,0,0,1,6.079-1.609m9.808-7.642H13.345a43.192,43.192,0,0,0,0,7.238h6.785a43.468,43.468,0,0,0,0-7.238m-.385-3.1c-.029-.141-.047-.226-.063-.311A19.573,19.573,0,0,0,18.3,5a5.22,5.22,0,0,0-1.151-1.726c-.318-.29-.51-.3-.818,0a3.753,3.753,0,0,0-.565.672,16.833,16.833,0,0,0-2.034,6.075,40.728,40.728,0,0,0,6.014,0m-.008,13.433a39.877,39.877,0,0,0-6,.006A22.142,22.142,0,0,0,14.9,27.827a6.6,6.6,0,0,0,1.387,2.34c.357.35.6.379.906-.01a9.391,9.391,0,0,0,1.1-1.679,18.828,18.828,0,0,0,1.449-5.018M12.314,3.789A13.738,13.738,0,0,0,5.849,8.461a19.607,19.607,0,0,0,4.822,1.191c.229-.989.422-1.983.694-2.954s.623-1.919.95-2.91m.084,25.94a24.621,24.621,0,0,1-1.7-5.938,23.159,23.159,0,0,0-4.859,1.22A13.842,13.842,0,0,0,12.4,29.729M27.644,25.01a22.813,22.813,0,0,0-4.864-1.216,24.825,24.825,0,0,1-1.688,5.93,13.822,13.822,0,0,0,6.552-4.714m0-16.535a13.85,13.85,0,0,0-6.556-4.713,24.737,24.737,0,0,1,1.692,5.931,22.976,22.976,0,0,0,4.864-1.218" transform="translate(0 0)" fill="#5454d3"/>
  </g>
</svg>
