<svg xmlns="http://www.w3.org/2000/svg" width="36.941" height="36.941" viewBox="0 0 36.941 36.941">
  <g id="logo-wordpress" transform="translate(-32 -32)">
    <path id="Path_2498" data-name="Path 2498" d="M205.507,271.3l-2.7,7.891h-.008l-2.094,6.028c.148.041.289.074.437.115h.025a15.874,15.874,0,0,0,4.082.536,12.941,12.941,0,0,0,2.053-.148,15.2,15.2,0,0,0,2.68-.585h0c.214-.066.429-.14.643-.214-.231-.495-.726-1.591-.75-1.641Z" transform="translate(-154.789 -219.568)" fill="#ef4037"/>
    <path id="Path_2499" data-name="Path 2499" d="M65.385,180.5A16.117,16.117,0,0,0,64,186.726c0,.519.025,1.039.074,1.55a15.851,15.851,0,0,0,9.573,13.02c.214.091.437.181.66.264l-7.669-21.051C65.979,180.484,65.855,180.525,65.385,180.5Z" transform="translate(-29.361 -136.255)" fill="#ef4037"/>
    <path id="Path_2500" data-name="Path 2500" d="M117.134,73.186a15.5,15.5,0,0,0-1.245-2.193c-.132-.2-.28-.4-.421-.594a15.914,15.914,0,0,0-7-5.327A15.6,15.6,0,0,0,102.762,64a15.791,15.791,0,0,0-12.319,5.912A16.163,16.163,0,0,0,89,72.023c1.171.008,2.622.008,2.787.008,1.492,0,3.793-.181,3.793-.181a.587.587,0,0,1,.091,1.171s-.775.091-1.633.132l5.187,15.42,3.117-9.342-2.21-6.069c-.775-.041-1.492-.132-1.492-.132a.587.587,0,0,1,.082-1.171s2.35.181,3.752.181c1.492,0,3.793-.181,3.793-.181a.587.587,0,0,1,.091,1.171s-.767.091-1.624.132l5.137,15.3,1.427-4.75a13.278,13.278,0,0,0,1.08-4.593A7.478,7.478,0,0,0,111.2,75.2a6.731,6.731,0,0,1-1.394-3.331,2.466,2.466,0,0,1,2.391-2.531h.181c2.16-.058,2.87,2.086,2.96,3.546v.049c.033.594.008,1.031.008,1.55a13.554,13.554,0,0,1-1.08,5.1l-3.216,9.3-1.839,5.417c.148-.066.289-.132.437-.206a15.824,15.824,0,0,0,8.8-12.1,14.188,14.188,0,0,0,.157-2.144A15.758,15.758,0,0,0,117.134,73.186Z" transform="translate(-52.3 -29.361)" fill="#ef4037"/>
    <path id="Path_2501" data-name="Path 2501" d="M50.47,33.319a17.144,17.144,0,1,1-6.679,1.347,17.156,17.156,0,0,1,6.679-1.347m0-1.319a18.47,18.47,0,1,0,18.47,18.47A18.471,18.471,0,0,0,50.47,32Z" fill="#ef4037"/>
  </g>
</svg>
