<svg id="Group_2006" data-name="Group 2006" xmlns="http://www.w3.org/2000/svg" xmlns:xlink="http://www.w3.org/1999/xlink" width="35.776" height="35.759" viewBox="0 0 35.776 35.759">
  <defs>
    <clipPath id="clip-path">
      <rect id="Rectangle_741" data-name="Rectangle 741" width="35.776" height="35.759" fill="#fedc5a"/>
    </clipPath>
  </defs>
  <g id="Group_2006-2" data-name="Group 2006" clip-path="url(#clip-path)">
    <path id="Path_2502" data-name="Path 2502" d="M19,35.76H16.767c-.608-.081-1.22-.144-1.825-.246A17.505,17.505,0,0,1,6.092,31.3a17.611,17.611,0,0,1-5.813-10.3C.159,20.333.092,19.663,0,19V16.762c.054-.437.1-.875.162-1.311A17.541,17.541,0,0,1,5.137,5.367,17.5,17.5,0,0,1,17.493.008,17.029,17.029,0,0,1,26.92,2.464,17.707,17.707,0,0,1,35.428,14.4,24.118,24.118,0,0,1,35.76,19.9a7.4,7.4,0,0,1-.21,1.691,6.484,6.484,0,0,1-4.562,4.933,6.413,6.413,0,0,1-6.55-1.6c-.169-.156-.327-.324-.5-.493-.153.128-.294.249-.437.365a8.745,8.745,0,0,1-5.144,2.012A8.917,8.917,0,1,1,22.9,10.552a3.009,3.009,0,0,0,2.07.631c.609-.046,1.224-.009,1.86-.009v.457q0,4.19,0,8.381a2.247,2.247,0,0,0,2.044,2.331,2.139,2.139,0,0,0,2.352-1.95,17.447,17.447,0,0,0-.127-4.8,13.408,13.408,0,1,0-8.612,14.874c.716-.261,1.4-.6,2.134-.923l2.2,3.81c-.072.047-.118.081-.168.109a17.454,17.454,0,0,1-5.619,2.012c-.674.117-1.355.191-2.033.285m-1.1-22.35a4.47,4.47,0,1,0,4.454,4.478A4.48,4.48,0,0,0,17.9,13.409" transform="translate(0 -0.001)" fill="#fedc5a"/>
  </g>
</svg>
