<svg id="info_1_" data-name="info (1)" xmlns="http://www.w3.org/2000/svg" width="8.803" height="8.803" viewBox="0 0 8.803 8.803">
  <path id="Path_2479" data-name="Path 2479" d="M4.4,0A4.4,4.4,0,1,0,8.8,4.4,4.4,4.4,0,0,0,4.4,0Zm0,8.069A3.668,3.668,0,1,1,8.069,4.4,3.668,3.668,0,0,1,4.4,8.069Z" fill="#fff"/>
  <path id="Path_2480" data-name="Path 2480" d="M10.734,10h-.367a.367.367,0,1,0,0,.734h.367v2.2a.367.367,0,0,0,.734,0v-2.2A.734.734,0,0,0,10.734,10Z" transform="translate(-6.332 -6.332)" fill="#fff"/>
  <circle id="Ellipse_623" data-name="Ellipse 623" cx="0.55" cy="0.55" r="0.55" transform="translate(3.851 1.834)" fill="#fff"/>
</svg>
