<svg xmlns="http://www.w3.org/2000/svg" xmlns:xlink="http://www.w3.org/1999/xlink" width="2692.707" height="667.496" viewBox="0 0 2692.707 667.496"><defs><linearGradient id="a" x1="0.5" y1="1.562" x2="0.574" y2="-0.808" gradientUnits="objectBoundingBox"><stop offset="0" stop-color="#771efc"/><stop offset="1" stop-color="#fff"/></linearGradient></defs><g transform="translate(0 -3256)"><path d="M0,0H1920V556.947s-314.7,74.62-794.7,99.493-1125.3,0-1125.3,0Z" transform="translate(0 3256)" fill="#771efc"/><g transform="translate(0 37)"><path d="M0,0H980.505C875.19,40.38,694.931,67,490.253,67S105.316,40.38,0,0Z" transform="translate(1712.201 3219)" fill="url(#a)"/><path d="M0,0H980.505C875.19,40.38,694.931,67,490.253,67S105.316,40.38,0,0Z" transform="translate(1421.395 3219)" fill="url(#a)"/><path d="M0,0H980.505C875.19,40.38,694.931,67,490.253,67S105.316,40.38,0,0Z" transform="translate(1196.163 3219)" fill="url(#a)"/><path d="M0,0H980.505C875.19,40.38,694.931,67,490.253,67S105.316,40.38,0,0Z" transform="translate(933.281 3219)" fill="url(#a)"/><path d="M0,0H980.505C875.19,40.38,694.931,67,490.253,67S105.316,40.38,0,0Z" transform="translate(648.177 3219)" fill="url(#a)"/></g></g></svg>