<svg xmlns="http://www.w3.org/2000/svg" width="41.656" height="41.656" viewBox="0 0 41.656 41.656"><path d="M0,0H41.656V41.656H0Z" fill="none"/><path d="M27.771,14.678H24.3v5.207H19.092v3.471H24.3v5.207h3.471V23.357h5.207V19.885H27.771Zm-24.3,6.943a12.158,12.158,0,0,1,6.96-10.969V6.911a15.587,15.587,0,0,0,0,29.42v-3.74A12.158,12.158,0,0,1,3.471,21.621ZM26.035,6A15.621,15.621,0,1,0,41.656,21.621,15.633,15.633,0,0,0,26.035,6Zm0,27.771a12.15,12.15,0,1,1,12.15-12.15A12.163,12.163,0,0,1,26.035,33.771Z" transform="translate(0 -0.793)" fill="#787da7"/></svg>