<svg xmlns="http://www.w3.org/2000/svg" width="38.748" height="38.748" viewBox="0 0 38.748 38.748"><g transform="translate(-2 -2)"><circle cx="3.089" cy="3.089" r="3.089" transform="translate(27.993 8.578)" fill="#787da7"/><path d="M31.449,20.6H11.3A9.3,9.3,0,1,1,11.3,2H31.449a9.3,9.3,0,1,1,0,18.6ZM11.3,5.1a6.2,6.2,0,1,0,0,12.4H31.449a6.2,6.2,0,0,0,0-12.4Z" fill="#787da7"/><circle cx="3.089" cy="3.089" r="3.089" transform="translate(8.578 27.993)" fill="#787da7"/><path d="M31.449,33.6H11.3a9.3,9.3,0,1,1,0-18.6H31.449a9.3,9.3,0,1,1,0,18.6ZM11.3,18.1a6.2,6.2,0,1,0,0,12.4H31.449a6.2,6.2,0,1,0,0-12.4Z" transform="translate(0 7.149)" fill="#787da7"/></g></svg>