<svg xmlns="http://www.w3.org/2000/svg" width="35.242" height="35.242" viewBox="0 0 35.242 35.242"><path d="M17.859,19.621H3.762A1.762,1.762,0,0,0,2,21.383v14.1a1.762,1.762,0,0,0,1.762,1.762h14.1a1.762,1.762,0,0,0,1.762-1.762v-14.1A1.762,1.762,0,0,0,17.859,19.621ZM16.1,33.718H5.524V23.145H16.1Zm21-30.625A1.789,1.789,0,0,0,35.48,2H24.907a1.762,1.762,0,0,0,0,3.524h6.326l-9.339,9.322a1.769,1.769,0,1,0,2.5,2.5l9.322-9.339v6.326a1.762,1.762,0,0,0,3.524,0V3.762a1.762,1.762,0,0,0-.141-.67Z" transform="translate(-2 -2)" fill="#787da7"/></svg>