<svg xmlns="http://www.w3.org/2000/svg" width="33.451" height="33.451" viewBox="0 0 33.451 33.451"><g transform="translate(-2.5 -2.5)"><path d="M19.226,2.5A16.726,16.726,0,1,0,35.951,19.226,16.74,16.74,0,0,0,19.226,2.5Zm0,31.117A14.392,14.392,0,1,1,33.617,19.226,14.409,14.409,0,0,1,19.226,33.617Z" fill="#787da7"/><path d="M22.76,12.888a.833.833,0,0,0-.124-.109c-.016-.008-.023-.023-.039-.039a1.177,1.177,0,0,0-.272-.156.04.04,0,0,0-.031-.016c-.016-.008-.023,0-.039-.008a1.158,1.158,0,0,0-.63-.039c-.016,0-.031.008-.047.008a.889.889,0,0,0-.3.124c-.008,0-.008.008-.016.008-.054.039-.117.078-.163.117-.023.023-.039.047-.062.07-.008.008-.023.016-.031.023l-6.223,7a1.168,1.168,0,0,0,1.75,1.548l4.185-4.707V30a1.167,1.167,0,0,0,2.334,0V16.731l4.185,4.714a1.177,1.177,0,0,0,.871.389,1.2,1.2,0,0,0,.778-.3,1.169,1.169,0,0,0,.1-1.649Z" transform="translate(-2.663 -2.22)" fill="#787da7"/></g></svg>