<svg xmlns="http://www.w3.org/2000/svg" width="112.785" height="46.805" viewBox="0 0 112.785 46.805"><g transform="translate(-40.6 -163.1)"><path d="M44.02,236.06H40.6V200.242a28.917,28.917,0,0,1,8.456-1.347,15.174,15.174,0,0,1,5.467.943,12.1,12.1,0,0,1,4.228,2.612,10.991,10.991,0,0,1,2.693,4.013,13.38,13.38,0,0,1,.943,5.036,13.12,13.12,0,0,1-1.131,5.682,11.471,11.471,0,0,1-2.989,3.9,11.833,11.833,0,0,1-4.228,2.235,16.392,16.392,0,0,1-4.847.727,16.8,16.8,0,0,1-2.612-.189c-.862-.135-1.724-.323-2.558-.539Zm14.462-24.641a10.04,10.04,0,0,0-2.4-6.948,8.663,8.663,0,0,0-6.733-2.639,23.033,23.033,0,0,0-2.72.162,12.3,12.3,0,0,0-2.612.619V220.09a25.333,25.333,0,0,0,2.451.673,10.681,10.681,0,0,0,2.451.269,9.584,9.584,0,0,0,6.975-2.5Q58.482,216.064,58.482,211.418Z" transform="translate(0 -26.155)" fill="#fff"/><path d="M147.1,197.652V163.1h3.447v34.525H147.1Z" transform="translate(-77.819)" fill="#fff"/><path d="M206.986,220.056A11.584,11.584,0,0,1,203,222.884a13.88,13.88,0,0,1-5.467.969,12.357,12.357,0,0,1-5.2-1.023,10.054,10.054,0,0,1-3.689-2.747,11.258,11.258,0,0,1-2.208-3.959,14.592,14.592,0,0,1-.754-4.686,16.15,16.15,0,0,1,.889-5.655A11.262,11.262,0,0,1,189,201.8a9.863,9.863,0,0,1,3.555-2.343,12.263,12.263,0,0,1,4.282-.754c3.609,0,6.356,1.1,8.187,3.339q2.747,3.312,2.666,9.695h-18.5a10.041,10.041,0,0,0,2.424,6.652,7.993,7.993,0,0,0,6.167,2.478,10.023,10.023,0,0,0,3.959-.727,8.759,8.759,0,0,0,3.2-2.289Zm-2.774-11.2a9.312,9.312,0,0,0-.458-2.855,6.582,6.582,0,0,0-1.32-2.262,5.978,5.978,0,0,0-2.235-1.508,9.439,9.439,0,0,0-6.436,0,5.871,5.871,0,0,0-2.154,1.454,9.379,9.379,0,0,0-1.454,2.235,9.228,9.228,0,0,0-.862,2.935Z" transform="translate(-106.008 -26.013)" fill="#fff"/><path d="M307.9,204.3a8.574,8.574,0,0,0-2.8-2.4,7.425,7.425,0,0,0-3.555-.754,5.628,5.628,0,0,0-3.689.943,2.964,2.964,0,0,0-1.05,2.37,2.82,2.82,0,0,0,.485,1.67,4.177,4.177,0,0,0,1.293,1.185,9.685,9.685,0,0,0,1.858.862c.7.242,1.427.485,2.208.727.943.3,1.858.619,2.8.969A10.1,10.1,0,0,1,308,211.219a6.854,6.854,0,0,1,1.885,2.047,5.918,5.918,0,0,1,.727,3.043,6.237,6.237,0,0,1-.727,3.016,6.821,6.821,0,0,1-1.966,2.235,8.616,8.616,0,0,1-2.935,1.373,14.478,14.478,0,0,1-8.806-.485,12.2,12.2,0,0,1-4.282-3.178l2.693-2.37a8.415,8.415,0,0,0,6.975,3.447,6.766,6.766,0,0,0,4.147-1.05,3.125,3.125,0,0,0,1.347-2.5,3.438,3.438,0,0,0-.485-1.912,4.494,4.494,0,0,0-1.347-1.32,8.715,8.715,0,0,0-1.966-.916q-1.131-.364-2.343-.727c-.943-.269-1.858-.566-2.774-.889a9.627,9.627,0,0,1-2.451-1.266,5.635,5.635,0,0,1-2.478-4.955,5.89,5.89,0,0,1,2.37-5.036A10.03,10.03,0,0,1,301.757,198a12.02,12.02,0,0,1,4.767.916,11.326,11.326,0,0,1,4.013,3.124L308,204.351Z" transform="translate(-183.624 -25.497)" fill="#fff"/><path d="M385.3,197.8V163.3h3.447v34.5Zm3.474-12.738L400.623,173.1h4.632L393.11,184.952,405.2,197.771h-4.794Z" transform="translate(-251.871 -0.146)" fill="#fff"/><path d="M135.29,328.059H114.5V324.8h20.79Z" transform="translate(-53.998 -118.153)" fill="#fff"/></g></svg>