<svg xmlns="http://www.w3.org/2000/svg" width="172.339" height="36.407" viewBox="0 0 172.339 36.407"><path d="M13.609,59.1H23.894L22.3,65.2a3.85,3.85,0,0,1-1.365,2.048,3.689,3.689,0,0,1-2.321.774h-4.78a4.631,4.631,0,0,0-2.882.956A5.006,5.006,0,0,0,9.2,71.568a4.84,4.84,0,0,0-.068,2.321,5.021,5.021,0,0,0,.881,1.934,4.6,4.6,0,0,0,1.638,1.342,4.815,4.815,0,0,0,2.184.5h2.912a1.638,1.638,0,0,1,1.342.66,1.578,1.578,0,0,1,.3,1.479l-1.82,6.735H13.391a12.859,12.859,0,0,1-6.03-1.433,13.619,13.619,0,0,1-4.583-3.8A13.41,13.41,0,0,1,.3,75.922,13.275,13.275,0,0,1,.459,69.7l.182-.683a13.454,13.454,0,0,1,4.8-7.167,13.639,13.639,0,0,1,3.792-2.025A13.2,13.2,0,0,1,13.609,59.1Z" transform="translate(-0.005 -50.134)" fill="#fff"/><path d="M123.89,36.4l8.966-33.584A3.85,3.85,0,0,1,134.222.77,3.689,3.689,0,0,1,136.541,0h9.513a12.859,12.859,0,0,1,6.03,1.433,13.532,13.532,0,0,1,7.076,9.192,12.713,12.713,0,0,1-.182,6.219l-.182.683a13.633,13.633,0,0,1-1.82,4.027,13.3,13.3,0,0,1-11.1,5.939h-8.237l1.638-6.144a3.85,3.85,0,0,1,1.365-2,3.689,3.689,0,0,1,2.321-.774H145.6a4.787,4.787,0,0,0,4.642-3.6,4.458,4.458,0,0,0,.061-2.237,5.021,5.021,0,0,0-.887-1.934,4.818,4.818,0,0,0-1.638-1.365,4.643,4.643,0,0,0-2.177-.523h-5.1l-6.644,24.711a3.85,3.85,0,0,1-1.365,2,3.622,3.622,0,0,1-2.275.774Z" transform="translate(-105.098 0.004)" fill="#fff"/><path d="M369.217,68.227l.136-.5a.669.669,0,0,0-.114-.607.7.7,0,0,0-.569-.25h-14.79a3.64,3.64,0,0,1-1.729-.41,3.784,3.784,0,0,1-1.274-1.062,3.734,3.734,0,0,1-.683-1.517,3.871,3.871,0,0,1,.046-1.775l.91-3.459h20.023a7.189,7.189,0,0,1,3.413.819,7.878,7.878,0,0,1,2.579,2.139,7.638,7.638,0,0,1,1.411,3.034,7.552,7.552,0,0,1-.068,3.527l-3.6,13.379a6.162,6.162,0,0,1-6.007,4.6l-14.79-.046a7.826,7.826,0,0,1-6.288-3.1,8.251,8.251,0,0,1-1.456-3.186,7.506,7.506,0,0,1,.091-3.663l.182-.683a7.215,7.215,0,0,1,1.069-2.366,8.189,8.189,0,0,1,1.752-1.866,7.9,7.9,0,0,1,2.23-1.206,7.759,7.759,0,0,1,2.594-.432h12.423l-.91,3.413a3.867,3.867,0,0,1-1.365,2,3.628,3.628,0,0,1-2.275.774h-5.552a.963.963,0,0,0-1,.774.93.93,0,0,0,.182.887,1.008,1.008,0,0,0,.819.387h8.965a1.407,1.407,0,0,0,.865-.273,1.177,1.177,0,0,0,.455-.728l.091-.364Z" transform="translate(-293.675 -49.75)" fill="#fff"/><path d="M565.024,59.1a12.953,12.953,0,0,1,6.068,1.433,13.622,13.622,0,0,1,4.575,3.792,13.408,13.408,0,0,1,2.479,5.415,13.011,13.011,0,0,1-.2,6.235l-2.275,8.555a2.507,2.507,0,0,1-.978,1.456,2.764,2.764,0,0,1-1.669.546h-4.9a1.669,1.669,0,0,1-1.64-2.139l2.73-10.33a4.456,4.456,0,0,0,.068-2.23,5.038,5.038,0,0,0-.886-1.934,4.853,4.853,0,0,0-1.638-1.365,4.653,4.653,0,0,0-2.184-.523h-5.1l-4.417,16.527a2.488,2.488,0,0,1-.978,1.456,2.829,2.829,0,0,1-1.707.546H547.5a1.635,1.635,0,0,1-1.341-.66,1.582,1.582,0,0,1-.3-1.479l6.735-25.3Z" transform="translate(-462.998 -50.13)" fill="#fff"/><path d="M779.455,67.724a2.326,2.326,0,0,0-.774,1.115l-2.048,7.736a1.365,1.365,0,0,0,1.32,1.729h18.84L795.34,83.72a3.849,3.849,0,0,1-1.365,2,3.622,3.622,0,0,1-2.275.774H774.54a7.345,7.345,0,0,1-3.413-.8,7.5,7.5,0,0,1-2.579-2.139,7.811,7.811,0,0,1-1.411-3.049,6.978,6.978,0,0,1,.114-3.489l2.776-10.33a10.343,10.343,0,0,1,6.568-7.076,10,10,0,0,1,3.345-.569h12.15a7.18,7.18,0,0,1,3.413.819,7.862,7.862,0,0,1,2.579,2.139,7.379,7.379,0,0,1,1.388,3.049,7.615,7.615,0,0,1-.091,3.5l-.819,3.094a5.923,5.923,0,0,1-2.2,3.314,6.079,6.079,0,0,1-3.751,1.244H778.866l.91-3.368a3.607,3.607,0,0,1,1.32-2,3.689,3.689,0,0,1,2.321-.774h5.552a.964.964,0,0,0,1-.774l.182-.683a1.05,1.05,0,0,0-1-1.32h-8.464a1.928,1.928,0,0,0-1.232.432Z" transform="translate(-650.627 -50.089)" fill="#fff"/><path d="M963.28,36.4l9.147-34.358A2.588,2.588,0,0,1,973.4.565,2.752,2.752,0,0,1,975.112,0h4.87a1.686,1.686,0,0,1,1.388.66,1.583,1.583,0,0,1,.3,1.479l-6.826,25.348a11.3,11.3,0,0,1-1.615,3.641,11.929,11.929,0,0,1-2.639,2.8,12.386,12.386,0,0,1-3.39,1.82A11.659,11.659,0,0,1,963.28,36.4Z" transform="translate(-817.16 0.005)" fill="#fff"/><path d="M1094.829,3.551a3.134,3.134,0,0,1,4.693-2.715,3.05,3.05,0,0,1,1.15,1.145,3.135,3.135,0,1,1-5.444,3.111A3.1,3.1,0,0,1,1094.829,3.551Zm.437,0a2.7,2.7,0,0,0,5.026,1.353,2.609,2.609,0,0,0,.364-1.352,2.606,2.606,0,0,0-.363-1.344,2.713,2.713,0,0,0-.98-.986,2.684,2.684,0,0,0-2.7,0,2.712,2.712,0,0,0-.985.98,2.605,2.605,0,0,0-.366,1.349Zm3.965-.758a1.007,1.007,0,0,1-.178.589,1.029,1.029,0,0,1-.5.381l.992,1.646h-.7l-.863-1.474h-.561V5.407h-.617V1.7h1.081a1.572,1.572,0,0,1,1.014.27,1.014,1.014,0,0,1,.329.825Zm-1.807.628h.455a.8.8,0,0,0,.535-.173.551.551,0,0,0,.2-.438.523.523,0,0,0-.179-.447.937.937,0,0,0-.565-.137h-.442Z" transform="translate(-928.754 -0.355)" fill="#fff"/></svg>