<svg id="Layer_2" xmlns="http://www.w3.org/2000/svg" xmlns:xlink="http://www.w3.org/1999/xlink" width="56" height="13.375" viewBox="0 0 56 13.375">
  <defs>
    <clipPath id="clip-path">
      <path id="Path_2446" data-name="Path 2446" d="M0,39.177A2.877,2.877,0,1,0,2.877,36.3h0A2.877,2.877,0,0,0,0,39.177" transform="translate(0 -36.3)"/>
    </clipPath>
  </defs>
  <g id="art">
    <path id="Path_2442" data-name="Path 2442" d="M89.789,8.2A6.736,6.736,0,0,1,76.5,6.666,6.713,6.713,0,0,1,89.767,5.26h-3.8A2.8,2.8,0,0,0,83.252,3.5a2.678,2.678,0,0,0-2.168.88,3.473,3.473,0,0,0-.816,2.308,2.972,2.972,0,0,0,2.984,3.188A2.887,2.887,0,0,0,85.968,8.2Z" transform="translate(-68.288)" fill="#1462a5"/>
    <path id="Path_2443" data-name="Path 2443" d="M207.3,6.844a6.752,6.752,0,0,1,13.5.021,6.752,6.752,0,0,1-13.5,0Zm3.746.043a3.009,3.009,0,1,0,6.011-.021,3.01,3.01,0,1,0-6.011,0Z" transform="translate(-185.048 -0.179)" fill="#1462a5"/>
    <path id="Path_2444" data-name="Path 2444" d="M342.311.429h3.5V1.76a2.862,2.862,0,0,1,.762-.88A4.248,4.248,0,0,1,349.32,0a3.8,3.8,0,0,1,2.866,1.2,4.178,4.178,0,0,1,.741,1.041,5.442,5.442,0,0,1,.9-1.084A4.463,4.463,0,0,1,356.909,0a4.525,4.525,0,0,1,3.3,1.267c1.17,1.245,1.353,2.082,1.353,4.852v6.848h-3.746V6.312a4.482,4.482,0,0,0-.247-1.76,1.581,1.581,0,0,0-1.675-1.02,1.763,1.763,0,0,0-1.8,1.041,3.637,3.637,0,0,0-.268,1.556v6.848h-3.757V6.151a4.265,4.265,0,0,0-.225-1.556,1.615,1.615,0,0,0-1.653-1.063,1.833,1.833,0,0,0-1.857,1.106,3.987,3.987,0,0,0-.268,1.675v6.666H342.3V.429Z" transform="translate(-305.557)" fill="#1462a5"/>
    <path id="Path_2445" data-name="Path 2445" d="M0,39.177A2.877,2.877,0,1,0,2.877,36.3h0A2.877,2.877,0,0,0,0,39.177" transform="translate(0 -32.404)" fill="#81d1f4"/>
    <g id="Group_1969" data-name="Group 1969" transform="translate(0 3.896)">
      <g id="Group_1968" data-name="Group 1968" clip-path="url(#clip-path)">
        <rect id="Rectangle_692" data-name="Rectangle 692" width="5.743" height="5.743" transform="translate(0 0)" fill="#81d1f4"/>
      </g>
    </g>
  </g>
</svg>
