<svg id="Domain_Sorgulama_Domain_Tescili_İsim_Tescil___12_Ay_Taksit_-_CloudBunny-12" data-name="Domain Sorgulama, Domain Tescili, İsim Tescil _ 12 Ay Taksit - CloudBunny-12" xmlns="http://www.w3.org/2000/svg" width="107.552" height="43.201" viewBox="0 0 107.552 43.201">
  <path id="path36" d="M14.323,56.072A7.162,7.162,0,1,1,7.162,48.9a7.162,7.162,0,0,1,7.162,7.167" transform="translate(0 -20.22)" fill="#fdcc0f"/>
  <path id="path38" d="M60.411,44.587c0,2.088-1.009,3.1-3.1,3.1H52.74c-2.088,0-3.1-1.009-3.1-3.1V26.012c0-2.487-.874-4.17-3.766-4.17a11.731,11.731,0,0,0-5.988,1.76v21c0,2.088-1.009,3.1-3.1,3.1H32.217c-2.088,0-3.1-1.009-3.1-3.1V17.155c0-2.082,1.009-3.1,3.1-3.1H33.9c1.484,0,2.088.739,3.026,2.422a23.057,23.057,0,0,1,11.731-3.367c9.15,0,11.778,4.845,11.778,11.3Z" transform="translate(-12.04 -5.422)" fill="#231f20"/>
  <path id="path40" d="M115.013,34.412H98.256c-.27,4.376,2.018,5.654,7.267,5.654a25.315,25.315,0,0,0,7.531-.944c2.692-.587,4.235,1.009,4.235,3.027v1.279a3.33,3.33,0,0,1-2.422,3.566A36.172,36.172,0,0,1,104.1,48.606c-11.1,0-16.487-5.654-16.487-17.766s5.314-17.766,15.748-17.766c12.986,0,15,8.745,14.74,18.235a2.747,2.747,0,0,1-3.1,3.1M98.256,27.814h9.555c.587-3.7-.2-6.663-4.305-6.663-3.631,0-5.249,2.422-5.249,6.663" transform="translate(-36.224 -5.406)" fill="#231f20"/>
  <path id="path42" d="M146.7,4.507c0-1.953.8-2.692,3.232-3.367L153.454.2c2.786-.733,4.018.68,4.018,2.739V8.589h5.279c2.088,0,3.1,1.009,3.1,3.1v2.763c0,2.088-1.009,3.1-3.1,3.1h-5.279V30.414c0,2.628,1.009,4.106,4.44,4.106h.674a2.774,2.774,0,0,1,2.892,2.827v2.217a3.314,3.314,0,0,1-2.757,3.367,16.082,16.082,0,0,1-3.026.27c-9.555,0-12.986-3.971-12.986-11.912V17.563h-2.622c-2.088,0-3.1-1.009-3.1-3.1v-1.56c0-1.76.739-2.622,2.692-3.161l3.026-.809Z" transform="translate(-58.295)" fill="#231f20"/>
</svg>
