<svg id="Layer_2" xmlns="http://www.w3.org/2000/svg" width="131.792" height="38.024" viewBox="0 0 131.792 38.024">
  <g id="Layer_1-2">
    <path id="Path_2537" data-name="Path 2537" d="M50.682,15.066a13.111,13.111,0,0,0-3.616-2.55,9.123,9.123,0,0,0-3.848-.834,6.632,6.632,0,0,0-5.053,1.947,6.927,6.927,0,0,0-1.9,5.146,6.752,6.752,0,0,0,1.854,5.007,6.535,6.535,0,0,0,4.914,1.854,9.4,9.4,0,0,0,3.755-.788,19.164,19.164,0,0,0,4.172-2.5l-.417,13.443a26.146,26.146,0,0,1-4.218,1.3,21.226,21.226,0,0,1-4.172.417,20.642,20.642,0,0,1-5.053-.6,17.665,17.665,0,0,1-4.358-1.669,22.338,22.338,0,0,1-4.45-3.338,9.319,9.319,0,0,0-5.053-10.477,25.223,25.223,0,0,1-.139-2.642,20.255,20.255,0,0,1,1.391-7.417,17.91,17.91,0,0,1,10.2-10.013A22.453,22.453,0,0,1,42.292,0a20.243,20.243,0,0,1,8.391,1.808Zm2.179,22.019V1.344H65.7V25.5H78.218V37.085ZM79.284,20.721V1.344H92.125V20.86a9.968,9.968,0,0,0,.788,4.682,3.579,3.579,0,0,0,5.516,0,9.626,9.626,0,0,0,.834-4.636V1.344H112.1V20.721a31.4,31.4,0,0,1-.51,6.258,11.735,11.735,0,0,1-1.576,4.126,14.062,14.062,0,0,1-5.887,5.146,21.18,21.18,0,0,1-16.966,0,13.751,13.751,0,0,1-5.887-5.146A11.853,11.853,0,0,1,79.7,27.026a40.393,40.393,0,0,1-.417-6.3Zm46.588,1.808v5.748h2.179a5.157,5.157,0,0,0,2.967-.742,2.453,2.453,0,0,0,1.02-2.132,2.453,2.453,0,0,0-1.02-2.132,5.069,5.069,0,0,0-2.967-.742Zm0-12.7v5.007h1.669a4.118,4.118,0,0,0,2.411-.649,2.4,2.4,0,0,0,.834-1.854,2.258,2.258,0,0,0-.834-1.854,3.943,3.943,0,0,0-2.411-.649Zm-12.1,27.258V1.344h17.106c3.662,0,6.49.881,8.576,2.6a8.758,8.758,0,0,1,3.06,7.185,8.129,8.129,0,0,1-1.437,4.867,7.063,7.063,0,0,1-4.126,2.55,9.006,9.006,0,0,1,5.424,2.874,8.7,8.7,0,0,1,1.808,5.655c0,3.338-1.113,5.841-3.384,7.556s-5.563,2.55-9.967,2.55H113.773Z" transform="translate(-12.392)" fill="#0078cf"/>
    <path id="Path_2538" data-name="Path 2538" d="M6.861,49.5A6.861,6.861,0,1,1,0,56.361H0A6.845,6.845,0,0,1,6.861,49.5Z" transform="translate(0 -26.554)" fill="#ae2525"/>
  </g>
</svg>
