<svg id="Layer_2" xmlns="http://www.w3.org/2000/svg" xmlns:xlink="http://www.w3.org/1999/xlink" width="143.665" height="34.312" viewBox="0 0 143.665 34.312">
  <defs>
    <clipPath id="clip-path">
      <path id="Path_2446" data-name="Path 2446" d="M0,43.68A7.38,7.38,0,1,0,7.38,36.3h0A7.381,7.381,0,0,0,0,43.68" transform="translate(0 -36.3)"/>
    </clipPath>
  </defs>
  <g id="art">
    <path id="Path_2442" data-name="Path 2442" d="M110.592,21.039A17.282,17.282,0,0,1,76.5,17.1a17.223,17.223,0,0,1,34.037-3.607h-9.748a7.177,7.177,0,0,0-6.967-4.516,6.871,6.871,0,0,0-5.563,2.258,8.911,8.911,0,0,0-2.093,5.921c0,4.681,3.084,8.179,7.656,8.179a7.407,7.407,0,0,0,6.967-4.3Z" transform="translate(-55.434)" fill="#1462a5"/>
    <path id="Path_2443" data-name="Path 2443" d="M207.3,17.246C207.3,9.425,212.918.2,224.621.2s17.321,9.225,17.321,17.1-5.618,17.1-17.321,17.1S207.3,25.177,207.3,17.3Zm9.611.11a7.72,7.72,0,1,0,15.421-.055,7.721,7.721,0,1,0-15.421,0Z" transform="translate(-150.214 -0.145)" fill="#1462a5"/>
    <path id="Path_2444" data-name="Path 2444" d="M342.328,1.1H351.3V4.516a7.342,7.342,0,0,1,1.955-2.258A10.9,10.9,0,0,1,360.31,0a9.756,9.756,0,0,1,7.353,3.084,10.717,10.717,0,0,1,1.9,2.671,13.96,13.96,0,0,1,2.313-2.781A11.449,11.449,0,0,1,379.779,0a11.607,11.607,0,0,1,8.454,3.249c3,3.194,3.47,5.342,3.47,12.447V33.266h-9.611V16.192a11.5,11.5,0,0,0-.633-4.516c-.578-1.515-1.79-2.616-4.3-2.616-2.671,0-3.993,1.212-4.626,2.671a9.331,9.331,0,0,0-.688,3.993V33.293H362.21V15.779a10.942,10.942,0,0,0-.578-3.993,4.144,4.144,0,0,0-4.241-2.726,4.7,4.7,0,0,0-4.764,2.836,10.227,10.227,0,0,0-.688,4.3v17.1H342.3V1.1Z" transform="translate(-248.038)" fill="#1462a5"/>
    <path id="Path_2445" data-name="Path 2445" d="M0,43.68A7.38,7.38,0,1,0,7.38,36.3h0A7.381,7.381,0,0,0,0,43.68" transform="translate(0 -26.304)" fill="#81d1f4"/>
    <g id="Group_1969" data-name="Group 1969" transform="translate(0 9.996)">
      <g id="Group_1968" data-name="Group 1968" clip-path="url(#clip-path)">
        <rect id="Rectangle_692" data-name="Rectangle 692" width="14.733" height="14.733" transform="translate(0 0)" fill="#81d1f4"/>
      </g>
    </g>
  </g>
</svg>
