<svg xmlns="http://www.w3.org/2000/svg" width="125.932" height="42.258" viewBox="0 0 125.932 42.258">
  <g id="iconOrg" transform="translate(-2.35 -0.88)">
    <g id="adwkAf" transform="translate(2.35 0.88)">
      <g id="Group_1970" data-name="Group 1970">
        <path id="Path_2447" data-name="Path 2447" d="M99.3,4.987c2.6-3.331,5.8-4.09,9.5-3.373.557.1.843.177.742.911-.464,2.454-.843,4.933-1.231,7.4-.1.649-.186.961-1.046.759A6.383,6.383,0,0,0,99.3,17.079c0,4.849-.051,9.689,0,14.538,0,1.138-.329,1.358-1.375,1.324-2.294-.076-4.6-.051-6.9,0-.708,0-.894-.219-.885-.911V2.71c0-.649.169-.843.843-.843,2.42,0,4.849.059,7.269,0,.843,0,1.164.245,1.054,1.1A19.833,19.833,0,0,0,99.3,4.987Z" transform="translate(-16.111 -0.957)" fill="#163b4f"/>
        <path id="Path_2448" data-name="Path 2448" d="M145.778,2.256c0-.725-.152-1-.944-.987q-3.567.076-7.151,0c-.784,0-1.13.177-1.054,1.02s0,1.509,0,2.53l-.978-.759a12.834,12.834,0,0,0-14.445-.953c-6.788,3.946-9.276,13.492-5.405,20.677,4.393,8.23,14.125,9.74,20.348,4.376.135-.11.27-.177.43-.059.245,4.048-1.383,6.274-5.313,7.168a18.241,18.241,0,0,1-2.8.371,17.159,17.159,0,0,1-9.487-2.53c-.557-.3-.843-.388-1.214.3-.9,1.746-1.88,3.457-2.876,5.161-.354.6-.261.894.329,1.24a26.385,26.385,0,0,0,6.788,2.816,41.446,41.446,0,0,0,9.149.514c9.487-.649,14.563-6.063,14.571-15.55V15.141C145.761,10.807,145.744,6.532,145.778,2.256Zm-8.8,14.445c-.3,3.415-2.4,6.13-5.287,6.839-3.828.944-7.48-1.619-8.331-5.9-.919-4.562,2.386-8.972,6.746-8.981C134.065,8.682,137.353,12.519,136.974,16.7Z" transform="translate(-19.846 -0.941)" fill="#163b4f"/>
        <path id="Path_2449" data-name="Path 2449" d="M80.6,13.341C78.911,6.78,73.067,1.535,66.9,1.029,65.958,1,63.395.936,62.577,1c-9.225.759-16.106,10.8-13.838,20.238A16.411,16.411,0,0,0,80.6,13.341ZM68.387,24.3a5.3,5.3,0,0,1-7.589,0c-3.618-3.44-3.643-10.372-.051-13.821a5.329,5.329,0,0,1,7.809,0,9.63,9.63,0,0,1,2.631,6.9,9.276,9.276,0,0,1-2.8,6.923Z" transform="translate(-9.553 -0.895)" fill="#163b4f"/>
        <path id="Path_2450" data-name="Path 2450" d="M10.3,18.594a3.592,3.592,0,0,1,1.063-2.665c2-2.007,3.98-4.022,6.012-6a3.719,3.719,0,0,1,5.405,0q3.01,2.909,5.9,5.9a3.736,3.736,0,0,1,0,5.405q-2.909,3-5.9,5.9a3.71,3.71,0,0,1-5.49,0c-2-1.948-3.955-3.938-5.9-5.9A3.592,3.592,0,0,1,10.3,18.594Z" transform="translate(-3.596 -2.117)" fill="#f48320"/>
        <path id="Path_2451" data-name="Path 2451" d="M35.09,26.9c.211-5.346.16-10.532,0-15.794.211-.1.346.228.514.4,1.1,1.037,2.167,2.041,3.145,3.154A6.055,6.055,0,0,1,39.9,21.4C38.935,23.738,36.793,25.088,35.09,26.9Z" transform="translate(-7.482 -2.48)" fill="#f48421"/>
        <path id="Path_2452" data-name="Path 2452" d="M2.384,19.66a8.433,8.433,0,0,1,0-1.5A6.746,6.746,0,0,1,4.433,14.2c1.079-1.046,2.133-2.117,3.2-3.2-.093,5.346-.169,10.6.051,15.946C5.765,24.652,2.814,23.109,2.384,19.66Z" transform="translate(-2.35 -2.467)" fill="#f48421"/>
        <path id="Path_2453" data-name="Path 2453" d="M28.038,33.6a42.752,42.752,0,0,1-3.744,4.005,5.97,5.97,0,0,1-7.817-.135,48.907,48.907,0,0,1-3.567-3.82C17.851,33.811,23.1,33.937,28.038,33.6Z" transform="translate(-4.005 -6.009)" fill="#f48420"/>
        <path id="Path_2454" data-name="Path 2454" d="M19.271.981a6.527,6.527,0,0,1,2.285,0,5.835,5.835,0,0,1,3.238,1.687c1.147,1.088,2.294,2.192,3.618,3.457-5.565,0-10.8-.278-15.912.169C14.482,3.511,17.138,1.453,19.271.981Z" transform="translate(-3.941 -0.88)" fill="#f48420"/>
      </g>
    </g>
  </g>
</svg>
