<svg xmlns="http://www.w3.org/2000/svg" xmlns:xlink="http://www.w3.org/1999/xlink" width="411" height="139" viewBox="0 0 411 139"><defs><clipPath id="a"><rect width="18.312" height="16" fill="#787da7"/></clipPath></defs><g transform="translate(-1223 -1509)"><g transform="translate(-185 1568)"><rect width="149" height="56" rx="16" transform="translate(1539 24)" fill="#787da7"/><text transform="translate(1559 58)" fill="#fff" font-size="16" font-family="ArialMT, Arial" letter-spacing="-0.01em"><tspan x="0" y="0">Transferi Başlat</tspan></text></g><g transform="translate(3 -13)"><g transform="translate(-48 14)"><rect width="183" height="66" rx="21" transform="translate(1268 1508)" fill="#fff"/><g transform="translate(8 1)"><g transform="translate(1281 1528)"><path d="M9.878,18.122a3,3,0,0,0,4.244,0l3.211-3.211A1,1,0,0,0,15.919,13.5l-2.926,2.927L13,1a1,1,0,0,0-1-1h0a1,1,0,0,0-1,1l-.009,15.408L8.081,13.5a1,1,0,1,0-1.414,1.415Z" transform="translate(23.965 19.001) rotate(180)" fill="#787da7"/><path d="M23,16h0a1,1,0,0,0-1,1v4a1,1,0,0,1-1,1H3a1,1,0,0,1-1-1V17a1,1,0,0,0-1-1H1a1,1,0,0,0-1,1v4a3,3,0,0,0,3,3H21a3,3,0,0,0,3-3V17A1,1,0,0,0,23,16Z" fill="#787da7"/></g><g transform="translate(511 299)"><text transform="translate(806 1246)" fill="#1e266d" font-size="16" font-family="ArialMT, Arial" letter-spacing="-0.01em"><tspan x="0" y="0">alanadiniz.com</tspan></text></g></g></g><g transform="translate(180 14)"><rect width="183" height="66" rx="21" transform="translate(1268 1508)" fill="#fff"/><g transform="translate(8 1)"><g transform="translate(1281 1528)"><path d="M9.878,18.122a3,3,0,0,0,4.244,0l3.211-3.211A1,1,0,0,0,15.919,13.5l-2.926,2.927L13,1a1,1,0,0,0-1-1h0a1,1,0,0,0-1,1l-.009,15.408L8.081,13.5a1,1,0,1,0-1.414,1.415Z" fill="#787da7"/><path d="M23,16h0a1,1,0,0,0-1,1v4a1,1,0,0,1-1,1H3a1,1,0,0,1-1-1V17a1,1,0,0,0-1-1H1a1,1,0,0,0-1,1v4a3,3,0,0,0,3,3H21a3,3,0,0,0,3-3V17A1,1,0,0,0,23,16Z" fill="#787da7"/></g><g transform="translate(511 299)"><text transform="translate(806 1246)" fill="#1e266d" font-size="16" font-family="ArialMT, Arial" letter-spacing="-0.01em"><tspan x="0" y="0">alanadiniz.com</tspan></text></g></g></g><g transform="translate(1416 1551)" clip-path="url(#a)"><path d="M12.361,4.186c0-.845,0-1.643,0-2.441A11.63,11.63,0,0,1,12.374.564c.019-.189.124-.468.263-.523A.854.854,0,0,1,13.3.106a5.906,5.906,0,0,1,.811.69q1.945,1.716,3.892,3.43c.254.223.459.456.312.819-.137.34-.427.392-.753.392q-8.316,0-16.632,0a1.455,1.455,0,0,1-.45-.059.511.511,0,0,1-.406-.6,1.19,1.19,0,0,1,.445-.543c.1-.077.294-.041.445-.041q5.493,0,10.986,0h.407" transform="translate(-0.056 0)" fill="#787da7"/><path d="M6.026,138.631c0,1.2,0,2.341,0,3.483,0,.273.014.545-.292.682a.711.711,0,0,1-.829-.184q-2.279-2.028-4.575-4.038c-.235-.206-.41-.43-.3-.759a.666.666,0,0,1,.73-.427q8.334,0,16.668,0a1.723,1.723,0,0,1,.415.043.559.559,0,0,1,.458.578.568.568,0,0,1-.487.594,1.774,1.774,0,0,1-.379.022H6.026" transform="translate(0 -126.862)" fill="#787da7"/></g></g></g></svg>