<svg xmlns="http://www.w3.org/2000/svg" xmlns:xlink="http://www.w3.org/1999/xlink" width="500" height="304" viewBox="0 0 500 304"><defs><filter id="a" x="0" y="0" width="500" height="304" filterUnits="userSpaceOnUse"><feOffset dy="-10" input="SourceAlpha"/><feGaussianBlur stdDeviation="24" result="b"/><feFlood flood-opacity="0.039"/><feComposite operator="in" in2="b"/><feComposite in="SourceGraphic"/></filter><clipPath id="c"><path d="M0,0H24V24H0Z" transform="translate(1563 40)" fill="#fff"/></clipPath></defs><g transform="translate(-1185 -1838)"><g transform="matrix(1, 0, 0, 1, 1185, 1838)" filter="url(#a)"><path d="M76,55H392a20,20,0,0,1,20,20V215H56V75A20,20,0,0,1,76,55Z" transform="translate(16 27)" fill="#fff"/></g><g transform="translate(475 723)"><text transform="translate(806 1243)" fill="#1e266d" font-size="16" font-family="ArialMT, Arial" letter-spacing="-0.01em"><tspan x="0" y="0">alanadiniz.com</tspan></text><text transform="translate(806 1269)" fill="#787da7" font-size="14" font-family="ArialMT, Arial"><tspan x="0" y="0">Transfer Kilidi: </tspan><tspan y="0" fill="#41c826">Aktif</tspan></text></g><rect width="308" height="11" rx="5.5" transform="translate(1281 2012)" fill="#787da7" opacity="0.1"/><rect width="140" height="11" rx="5.5" transform="translate(1281 2039)" fill="#787da7" opacity="0.1"/><rect width="152" height="11" rx="5.5" transform="translate(1437 2039)" fill="#787da7" opacity="0.1"/><g transform="translate(-36 1908)"><rect width="149" height="56" rx="16" transform="translate(1539 24)" fill="#41c826"/><text transform="translate(1595 58)" fill="#fff" font-size="16" font-family="ArialMT, Arial" letter-spacing="-0.01em"><tspan x="0" y="0">Kilit Aktif</tspan></text><g clip-path="url(#c)"><path d="M1563,40h24V64h-24Z" fill="none"/><path d="M1569,48V47a6,6,0,0,1,12,0v1h2a1,1,0,0,1,1,1V61a1,1,0,0,1-1,1h-16a1,1,0,0,1-1-1V49a1,1,0,0,1,1-1Zm13,2h-14V60h14Zm-8,5.732a2,2,0,1,1,2,0V58h-2ZM1571,48h8V47a4,4,0,0,0-8,0Z" fill="#fff"/></g></g></g></svg>