<svg xmlns="http://www.w3.org/2000/svg" width="385" height="141" viewBox="0 0 385 141"><g transform="translate(-752 -1902)"><g transform="translate(-30 -11)"><rect width="322" height="66" rx="21" transform="translate(814 1913)" fill="#fff"/><g transform="translate(-432 -28)"><g transform="translate(475 723)"><text transform="translate(806 1243)" fill="#1e266d" font-size="16" font-family="Arial-BoldMT, Arial" font-weight="700" letter-spacing="-0.01em"><tspan x="0" y="0">alanadiniz.com</tspan></text><text transform="translate(806 1269)" fill="#787da7" font-size="14" font-family="ArialMT, Arial"><tspan x="0" y="0">Ana Domain</tspan></text></g></g></g><g transform="translate(1 64)"><rect width="322" height="66" rx="21" transform="translate(814 1913)" fill="#fff"/><g transform="translate(-432 -28)"><g transform="translate(475 723)"><text transform="translate(806 1243)" fill="#1e266d" font-size="16" font-family="ArialMT, Arial" letter-spacing="-0.01em"><tspan x="0" y="0">shop.alanadiniz.com</tspan></text><text transform="translate(806 1269)" fill="#41c826" font-size="14" font-family="ArialMT, Arial"><tspan x="0" y="0">Sub Domain</tspan></text></g></g></g><circle cx="9" cy="9" r="9" transform="translate(752 1926)" fill="#771efc"/><circle cx="7" cy="7" r="7" transform="translate(781 2004)" fill="#771efc"/><line y2="75" transform="translate(761.5 1935.5)" fill="none" stroke="#771efc" stroke-width="1"/><line x1="24" transform="translate(761.5 2010.5)" fill="none" stroke="#771efc" stroke-width="1"/><line x1="24" transform="translate(783 2010.5)" fill="none" stroke="#771efc" stroke-width="1"/><line x1="17" transform="translate(761 1935)" fill="none" stroke="#771efc" stroke-width="1"/></g></svg>