<svg xmlns="http://www.w3.org/2000/svg" xmlns:xlink="http://www.w3.org/1999/xlink" width="500" height="249" viewBox="0 0 500 249"><defs><filter id="a" x="0" y="0" width="500" height="249" filterUnits="userSpaceOnUse"><feOffset dy="10" input="SourceAlpha"/><feGaussianBlur stdDeviation="24" result="b"/><feFlood flood-opacity="0.039"/><feComposite operator="in" in2="b"/><feComposite in="SourceGraphic"/></filter></defs><g transform="translate(-423 -2329)"><g transform="translate(197 1194)"><g transform="matrix(1, 0, 0, 1, 226, 1135)" filter="url(#a)"><rect width="356" height="105" rx="20" transform="translate(72 62)" fill="#fff"/></g><rect width="56" height="56" rx="16" transform="translate(326 1222)" fill="#e8efff" opacity="0.3"/><text transform="translate(398 1243)" fill="#1e266d" font-size="16" font-family="ArialMT, Arial" letter-spacing="-0.01em"><tspan x="0" y="0">alanadiniz.com</tspan></text><text transform="translate(398 1269)" fill="#787da7" font-size="14" font-family="ArialMT, Arial"><tspan x="0" y="0">Domain Administrator</tspan><tspan font-family="Helvetica"><tspan x="0" y="16"></tspan></tspan></text><path d="M614,1197h20a20,20,0,0,1,20,20v20H634a20,20,0,0,1-20-20Z" fill="#1d66ff"/><path d="M3.154,1.021,1.835,2.34,6.129,6.634a14.194,14.194,0,0,0-5.885,6.1L.08,13.1l.164.371c.142.328,3.6,8.02,13.672,8.02.345,0,.65-.041.98-.058l.015,0a16.227,16.227,0,0,0,5-1.016l4.767,4.767L26,23.864l-4.279-4.279L20.442,18.31l-.113-.113-3.9-3.9-3.715-3.715L10.026,7.894l-.641-.641L7.918,5.785ZM13.916,4.711a17.75,17.75,0,0,0-2.873.244l.226.226,1.511,1.511a6.345,6.345,0,0,1,1.136-.117A6.534,6.534,0,0,1,20.442,13.1a6.345,6.345,0,0,1-.117,1.136l1.511,1.511A8.056,8.056,0,0,0,20.69,8.2a12.54,12.54,0,0,1,5,4.906,12.393,12.393,0,0,1-2.965,3.54l1.322,1.322a13.822,13.822,0,0,0,3.54-4.491l.16-.371-.164-.371C27.446,12.4,23.983,4.711,13.916,4.711ZM7.142,8.225A8.209,8.209,0,0,0,5.525,13.1a8.312,8.312,0,0,0,1.617,4.906,12.54,12.54,0,0,1-5-4.906A12.61,12.61,0,0,1,7.142,8.225ZM8.726,9.23l2.688,2.688a2.718,2.718,0,0,0-.295,1.184,2.8,2.8,0,0,0,2.8,2.8A2.718,2.718,0,0,0,15.1,15.6l2.688,2.688a6.388,6.388,0,0,1-3.871,1.337A6.534,6.534,0,0,1,7.389,13.1,6.388,6.388,0,0,1,8.726,9.23Z" transform="translate(339.92 1236.979)" fill="#771efc"/></g><path d="M20.71,19.29l-3.4-3.39A7.92,7.92,0,0,0,19,11a8,8,0,1,0-8,8,7.92,7.92,0,0,0,4.9-1.69l3.39,3.4a1,1,0,1,0,1.42-1.42ZM5,11a6,6,0,1,1,6,6,6,6,0,0,1-6-6Z" transform="translate(819 2397.997)" fill="#fff"/></g></svg>