<svg xmlns="http://www.w3.org/2000/svg" xmlns:xlink="http://www.w3.org/1999/xlink" width="500" height="304" viewBox="0 0 500 304"><defs><filter id="a" x="0" y="0" width="500" height="304" filterUnits="userSpaceOnUse"><feOffset dy="-10" input="SourceAlpha"/><feGaussianBlur stdDeviation="24" result="b"/><feFlood flood-opacity="0.039"/><feComposite operator="in" in2="b"/><feComposite in="SourceGraphic"/></filter></defs><g transform="translate(-1185 -1838)"><g transform="matrix(1, 0, 0, 1, 1185, 1838)" filter="url(#a)"><path d="M76,55H392a20,20,0,0,1,20,20V215H56V75A20,20,0,0,1,76,55Z" transform="translate(16 27)" fill="#fff"/></g><g transform="translate(475 723)"><text transform="translate(806 1243)" fill="#1e266d" font-size="16" font-family="ArialMT, Arial" letter-spacing="-0.01em"><tspan x="0" y="0">alanadiniz.com</tspan></text><text transform="translate(806 1269)" fill="#787da7" font-size="14" font-family="ArialMT, Arial"><tspan x="0" y="0">Domain Yönetimi</tspan></text></g><rect width="308" height="31" rx="5.5" transform="translate(1281 2007)" fill="#787da7" opacity="0.1"/><rect width="195" height="31" rx="5.5" transform="translate(1281 2044)" fill="#787da7" opacity="0.1"/><g transform="translate(-36 1908)"><rect width="149" height="56" rx="16" transform="translate(1539 24)" fill="#f8b409"/><text transform="translate(1562 58)" fill="#fff" font-size="16" font-family="ArialMT, Arial" letter-spacing="-0.01em"><tspan x="0" y="0">Domaini Yönet</tspan></text></g></g></svg>