<svg xmlns="http://www.w3.org/2000/svg" width="270.301" height="167.597" viewBox="0 0 270.301 167.597"><g transform="translate(-26.244 -53.633)"><g transform="translate(26.244 53.633)"><g transform="translate(0 0)"><ellipse cx="124.294" cy="7.732" rx="124.294" ry="7.732" transform="translate(21.712 152.132)" fill="#f4f8fc"/><g transform="translate(118.868 35.308)"><path d="M17.168,17.921c-.247,0-.478-.016-.725-.033a5.536,5.536,0,0,1-4.089-2.457,4.965,4.965,0,0,1-4.3-.973c-1.434-1.171-3.017-3.775-2.325-9.43a.41.41,0,0,1,.462-.363.422.422,0,0,1,.363.462c-.643,5.292.758,7.65,2.028,8.689a4.113,4.113,0,0,0,3.841.742.412.412,0,0,1,.495.2,4.608,4.608,0,0,0,3.627,2.325c2.308.264,4.8-.923,6.826-3.231a.409.409,0,1,1,.61.544A9.361,9.361,0,0,1,17.168,17.921Z" transform="translate(-2.263 -1.898)" fill="#d0e3f7"/><path d="M17.717,15.032a5.6,5.6,0,0,1-3.743-1.286,5.452,5.452,0,0,1-3.907-2.885c-1.319-2.44-1.171-5.7.412-8.969a.409.409,0,1,1,.742.346c-1.467,3.017-1.616,6-.429,8.21a4.533,4.533,0,0,0,3.413,2.473.44.44,0,0,1,.231.115,4.977,4.977,0,0,0,3.99,1.1c2.457-.3,4.781-1.995,6.529-4.781a.407.407,0,1,1,.692.429c-1.9,3-4.418,4.847-7.139,5.16A2.993,2.993,0,0,1,17.717,15.032Z" transform="translate(-3.736 -0.674)" fill="#d0e3f7"/><path d="M17.907,13.2a2.709,2.709,0,0,1-1.995-.709,3.992,3.992,0,0,1-2.391-3.38c-.379-3.5,2.522-8.1,3.808-9.035a.417.417,0,0,1,.577.082.417.417,0,0,1-.082.577c-1.006.742-3.808,5.094-3.462,8.276a3.157,3.157,0,0,0,1.978,2.737.256.256,0,0,1,.132.1,2.385,2.385,0,0,0,2.16.445c2.49-.4,6.067-2.8,7.8-6.463a.409.409,0,0,1,.742.346c-1.847,3.924-5.721,6.5-8.425,6.924A3.883,3.883,0,0,1,17.907,13.2Z" transform="translate(-5.492)" fill="#d0e3f7"/><path d="M17.629,14.585a.412.412,0,0,1-.231-.066.4.4,0,0,1-.181-.28c-.445-2.786,1.072-7.716,2.242-9.117a.41.41,0,0,1,.627.528c-.956,1.154-2.275,5.408-2.11,7.98,2.786-.907,6.545-3.165,7.3-4.122a.411.411,0,1,1,.643.511c-.89,1.1-5.177,3.71-8.194,4.534C17.711,14.585,17.678,14.585,17.629,14.585Z" transform="translate(-6.978 -2.025)" fill="#d0e3f7"/><path d="M17.686,15.679a.407.407,0,0,1-.346-.2.425.425,0,0,1,.132-.577,23.711,23.711,0,0,0,7.666-7.073.414.414,0,0,1,.676.478,24.243,24.243,0,0,1-7.9,7.3A.379.379,0,0,1,17.686,15.679Z" transform="translate(-7.035 -3.118)" fill="#d0e3f7"/><path d="M18.716,13.409a.149.149,0,0,1-.082-.016.4.4,0,0,1-.313-.495c.577-2.753,4.435-8.54,6.562-9.826a.407.407,0,1,1,.429.692c-1.912,1.154-5.655,6.809-6.183,9.282A.433.433,0,0,1,18.716,13.409Z" transform="translate(-7.455 -1.227)" fill="#d0e3f7"/><path d="M.413,42.747A.281.281,0,0,1,.3,42.731a.417.417,0,0,1-.28-.511c1.8-5.9,8.474-19.009,9.942-20.773a.41.41,0,0,1,.627.528C9.134,23.705,2.573,36.631.792,42.451A.4.4,0,0,1,.413,42.747Z" transform="translate(0 -8.671)" fill="#d0e3f7"/></g><g transform="translate(36.746 44.455)"><path d="M17.834,49.077a.427.427,0,0,1-.4-.28C15.262,42.021,11.75,18.28,11.849,4.975a.408.408,0,0,1,.412-.412h0a.408.408,0,0,1,.412.412c-.1,13.239,3.38,36.832,5.556,43.558a.407.407,0,0,1-.264.511A.178.178,0,0,1,17.834,49.077Z" transform="translate(-4.824 -1.858)" fill="#269af9"/><path d="M10.473,2.87a1.562,1.562,0,1,1,2.16-.462A1.565,1.565,0,0,1,10.473,2.87Z" transform="translate(-3.975)" fill="none" stroke="#269af9" stroke-linecap="round" stroke-linejoin="round" stroke-width="5" fill-rule="evenodd"/><path d="M.694,24.562a1.514,1.514,0,1,1,1.649-2.539A1.514,1.514,0,1,1,.694,24.562Z" transform="translate(0 -8.866)" fill="none" stroke="#269af9" stroke-linecap="round" stroke-linejoin="round" stroke-width="5" fill-rule="evenodd"/><path d="M22.353,39.159a1.717,1.717,0,1,1,2.374-.511A1.7,1.7,0,0,1,22.353,39.159Z" transform="translate(-8.783 -14.659)" fill="none" stroke="#269af9" stroke-linecap="round" stroke-linejoin="round" stroke-width="5" fill-rule="evenodd"/><path d="M5.329,53.05a1.992,1.992,0,1,1,2.753-.594A1.995,1.995,0,0,1,5.329,53.05Z" transform="translate(-1.799 -20.108)" fill="none" stroke="#269af9" stroke-linecap="round" stroke-linejoin="round" stroke-width="5" fill-rule="evenodd"/><path d="M18.509,7.456a1.3,1.3,0,1,1,1.8-.379A1.3,1.3,0,0,1,18.509,7.456Z" transform="translate(-7.296 -2.064)" fill="none" stroke="#269af9" stroke-linecap="round" stroke-linejoin="round" stroke-width="5" fill-rule="evenodd"/><path d="M12.673,14.258a.209.209,0,0,1-.1-.016.417.417,0,0,1-.313-.495c.247-1.121,1.7-3.067,3.017-4.8.181-.231.33-.429.445-.577a.412.412,0,0,1,.659.495q-.173.223-.445.594c-.857,1.121-2.638,3.446-2.869,4.484A.4.4,0,0,1,12.673,14.258Z" transform="translate(-4.988 -3.343)" fill="#269af9"/><path d="M10.2,31.159a.43.43,0,0,1-.346-.181,25,25,0,0,0-5.639-5.193.416.416,0,1,1,.462-.692A24.91,24.91,0,0,1,10.543,30.5a.42.42,0,0,1-.1.577A.491.491,0,0,1,10.2,31.159Z" transform="translate(-1.638 -10.186)" fill="#269af9"/><path d="M16.149,46.871a.209.209,0,0,1-.1-.016.426.426,0,0,1-.313-.495c.363-1.55,3.116-5.045,3.99-5.639a.416.416,0,0,1,.462.692c-.758.511-3.347,3.808-3.66,5.16A.391.391,0,0,1,16.149,46.871Z" transform="translate(-6.404 -16.55)" fill="#269af9"/><path d="M14.833,61.034a.43.43,0,0,1-.346-.181c-.528-.791-4.155-4.4-5.226-5.408a.408.408,0,0,1,.561-.594c.659.627,4.7,4.583,5.342,5.556a.421.421,0,0,1-.115.577A1.007,1.007,0,0,1,14.833,61.034Z" transform="translate(-3.72 -22.289)" fill="#269af9"/></g><g transform="translate(0 82.36)"><g transform="translate(34.855)"><path d="M21.479,36.766C29.855,21.235,21.133,7.221,1.629,0-3.119,15.531,2.223,35.661,21.479,36.766Z" fill="#d0e3f7"/><path d="M24.144,39.913a.388.388,0,0,1-.346-.2c-1.781-2.885-4.336-7.947-7.023-13.3C13.51,19.931,9.8,12.577,6.6,7.335a.407.407,0,0,1,.692-.429c3.215,5.276,6.924,12.629,10.205,19.125,2.687,5.342,5.243,10.387,6.99,13.239a.4.4,0,0,1-.132.561A.273.273,0,0,1,24.144,39.913Z" transform="translate(-2.665 -2.735)" fill="#d2dded"/></g><path d="M57.769,61.886c2.473-4.171,5.127-16.47-4.006-21.878-4.138-2.457-5.358-2.852-7.2-2.275-1.2.379-2.028,1.3-3.017.775-1.814-.956,1.8-7.749-4.451-11.887C32.84,22.5,28.884,26.241,27.2,25.1s-.791-4.188-4.27-5-4.93,4.88-9.546,4.468C8.572,24.131.444,25.17.032,29.737s3.314,4.715,4.963,7.386c1.665,2.671.61,11.656,7.716,12.3,7.056.643,9.76-.148,12.118,8.408,2.341,8.557,10.815,11.293,14.871,9.76,4.072-1.533,3.38.89,1.434,2.522-1.962,1.632,1.764,2.869,4.8,1.912C48.948,71.069,54.653,67.112,57.769,61.886Z" transform="translate(0 -8.155)" fill="#f4f8fc"/><path d="M64.653,71.548a.405.405,0,0,1-.33-.165C49.551,52.439,28.266,42.317,13.263,39.151a.414.414,0,0,1,.181-.808c15.135,3.2,36.617,13.42,51.538,32.529a.414.414,0,0,1-.066.577A.4.4,0,0,1,64.653,71.548Z" transform="translate(-5.269 -15.608)" fill="#d2dded"/><path d="M34.895,39.9a.422.422,0,0,1-.412-.33c-.214-1.171-.478-6.018.495-8.8a.412.412,0,1,1,.775.28c-.907,2.6-.659,7.32-.462,8.392a.392.392,0,0,1-.33.478A.1.1,0,0,0,34.895,39.9Z" transform="translate(-13.958 -12.415)" fill="#d2dded"/><path d="M19.914,48.023a.374.374,0,0,1-.264-.1.414.414,0,0,1-.033-.577A26.72,26.72,0,0,1,25.4,42.913a.413.413,0,1,1,.33.758,25.75,25.75,0,0,0-5.49,4.221A.447.447,0,0,1,19.914,48.023Z" transform="translate(-7.946 -17.457)" fill="#d2dded"/><path d="M57.3,50.217a.406.406,0,0,1-.4-.3,16,16,0,0,1,.561-10.09.412.412,0,0,1,.775.28,15.138,15.138,0,0,0-.528,9.6.414.414,0,0,1-.3.511Z" transform="translate(-22.944 -16.106)" fill="#d2dded"/><path d="M35.76,57.075a.406.406,0,0,1-.313-.148.414.414,0,0,1,.049-.577c1.88-1.566,6.38-4.649,8.079-4.963a.411.411,0,0,1,.148.808c-1.484.28-5.886,3.281-7.7,4.8A.5.5,0,0,1,35.76,57.075Z" transform="translate(-14.394 -20.919)" fill="#d2dded"/><path d="M82.013,68.653a.417.417,0,0,1-.379-.247c-.89-2.127-1.055-6.512-.363-9.81a.414.414,0,1,1,.808.181c-.643,3.1-.495,7.353.313,9.315a.433.433,0,0,1-.214.544A.561.561,0,0,1,82.013,68.653Z" transform="translate(-32.916 -23.727)" fill="#d2dded"/></g><path d="M164.832,127.7c1.484.247,4.484,2.737,4.831,8.013.445,6.76-2.572,17.361-8.853,23.51-7.254,7.089-19.685,13.915-19.685,13.915-.577-1.4-1.517-3.413-1.517-3.413,2.49-1.1,11.475-11.656,14.772-15.794C160.76,145.935,157.941,126.579,164.832,127.7Z" transform="translate(-71.831 -83.771)" fill="#2093eb"/><path d="M134.365,197.878c-.89.511-1.2-.33-2.44-.33-1.171,0-2.242-.973-2.407-.643-.181.33,1.121,1.385,1.484,1.533-.659.165-4.171.676-4.105,1.5.049.676-.429,1.088.049,1.715a4.02,4.02,0,0,0,3.611,1.121,8.432,8.432,0,0,0,3.38-1.072,6.074,6.074,0,0,1,1.781-.874C135.5,200.351,134.365,197.878,134.365,197.878Z" transform="translate(-66.588 -111.941)" fill="#f8d8d0"/><path d="M143.243,313.531c-4.831-1.731-14.706-2.918-26.1-2.918s-21.268,1.187-26.1,2.918H87.88v2.407c0,2.935,13.107,5.325,29.264,5.325s29.264-2.374,29.264-5.325v-2.407Z" transform="translate(-50.77 -158.266)" fill="#2093eb"/><ellipse cx="29.264" cy="5.325" rx="29.264" ry="5.325" transform="translate(37.111 149.939)" fill="#8ddcff"/><path d="M142.528,271.073,131.7,206.741H119.38l-10.832,64.332a.586.586,0,0,0-.033.165c0,1.715,7.617,3.1,17.014,3.1s17.014-1.385,17.014-3.1A.285.285,0,0,0,142.528,271.073Z" transform="translate(-59.172 -115.973)" fill="#2093eb"/><ellipse cx="6.15" cy="1.121" rx="6.15" ry="1.121" transform="translate(60.225 89.647)" fill="#8ddcff"/><g transform="translate(96.743 72.896)"><path d="M25.968,0c1.748,11.409-10.6,26.874-14.41,41.036,2.193,9.645.181,19.883,2.259,36.931H10.091c-3.231-7.9-5.441-18.1-9.859-35.48C-1.186,36.931,4.205,20.229,8.145,6.694,11.509,5.457,25.968,0,25.968,0Z" transform="translate(0)" fill="#174ca0"/><path d="M21.319,132.855a3.459,3.459,0,0,1-.561-1.368h-3.71a3.2,3.2,0,0,1,.132,2.473C18.137,134.339,19.555,133.383,21.319,132.855Z" transform="translate(-6.942 -53.537)" fill="#f0ccc0"/><path d="M14.974,133.795c-1.764.528-3.182,1.484-4.155,1.121C10.308,135.3,2.757,138,2,138.527c-.791.544-.676,1.368.165,1.368,1.22,0,11.244-.445,11.244-.445a5.23,5.23,0,0,1,.363.445h2.292C16.738,138.708,16.557,135.163,14.974,133.795Z" transform="translate(-0.596 -54.477)" fill="#123282"/></g><g transform="translate(106.643 71.561)"><path d="M19.233,0c5.094,11.03.363,27.747-3.1,41.91,3.5,8.87,3.957,20.312,6.018,37.376H18.425C14.138,68.816,10,58.973,3.686,43.806,1.476,38.513-.716,14.9.223,0Z" transform="translate(0)" fill="#0f66bc"/><path d="M35.366,135.108a3.459,3.459,0,0,1-.561-1.368H31.079a3.2,3.2,0,0,1,.132,2.473C32.184,136.592,33.6,135.635,35.366,135.108Z" transform="translate(-12.654 -54.454)" fill="#f0ccc0"/><path d="M29.032,136.048c-1.764.528-3.182,1.484-4.155,1.121-.511.379-8.062,3.083-8.82,3.611-.791.544-.676,1.368.165,1.368,1.22,0,11.244-.445,11.244-.445a5.23,5.23,0,0,1,.363.445H30.12C30.8,140.961,30.614,137.416,29.032,136.048Z" transform="translate(-6.32 -55.394)" fill="#123282"/></g><path d="M180.357,121.892c3.825,1.154,8.573.841,15.069,7.864,6.5,7.007,16.85,23.246,16.85,23.246-1.27.874-21.367,9.348-21.367,9.348a59.012,59.012,0,0,1-12.645-18.515c-3.479-8.408-2.984-15.4-2.621-17.377A16.643,16.643,0,0,0,180.357,121.892Z" transform="translate(-86.399 -81.426)" fill="#2093eb"/><g transform="translate(70.872 25.45)"><path d="M22.2,12.28c.709,1.138,3.611,4.831,5.408,5.243-.247.989-2.374,3.133-5.853,5.935,0-1.088.247-2.522-1.385-3.132-1.764-.676-1.649,2.061-4.32.775-3.133-1.484-7.37-6-7.287-8.276.082-2.539,1.171-6.446,6.281-7.221C19.2,4.977,20.768,9.989,22.2,12.28Z" transform="translate(-3.569 -2.26)" fill="#f8d8d0"/><path d="M14.116,9.79c-.775.643-2.044-1.748-3.034-1.764-1.154-.033-3.71,1.484-5.737,3.528S-.409,11.818.037,9.477C.482,7.119,3.12,7.729,3.878,6.526c.907-1.4-.544-2.737,1.418-4.056,1.814-1.22,2.308.973,3.611.379,1.335-.61,1.781-3.4,4.534-2.753,2.044.478,1.154,2.457,2.473,3.759.824.808,5.193,1.649,3.693,4.715s-2.935.165-3.627-.956-1.7-1.418-2.226-1.022C13.259,6.954,15.221,8.867,14.116,9.79Z" transform="translate(0 0)" fill="#174ca0"/></g><path d="M181.26,127.843c3.429.082,12.926,17.542,5.49,31.292-4.831,8.936-17.9,20.394-17.9,20.394-.956-1.171-2.457-2.819-2.457-2.819,2.044-1.781,10.815-15.761,12.662-20.724C181.721,148.83,173.165,127.645,181.26,127.843Z" transform="translate(-82.736 -83.848)" fill="#269af9"/><path d="M161.869,210.273c-.692.742-1.253.033-2.44.4-1.121.346-2.424-.28-2.49.082-.066.379,1.467,1.006,1.863,1.039-.594.346-3.792,1.863-3.5,2.638.247.626-.1,1.171.544,1.616a4.012,4.012,0,0,0,3.792.017,8.465,8.465,0,0,0,2.918-1.995,5.914,5.914,0,0,1,1.451-1.352C163.666,212.317,161.869,210.273,161.869,210.273Z" transform="translate(-78.216 -117.411)" fill="#f8d8d0"/><g transform="translate(122.859 84.866)"><rect width="120.634" height="11.261" fill="#269af9"/><path d="M39.816,0,28.555,11.261h5.54L45.355,0ZM55.478,0,44.218,11.261h5.54L61.018,0ZM8.491,0,0,8.491v2.77H2.77L14.03,0ZM24.153,0,12.893,11.261h5.54L29.693,0ZM86.8,0,75.543,11.261h5.54L92.343,0Zm31.325,0L106.868,11.261h5.54l8.227-8.227V0ZM102.466,0,91.205,11.261h5.54L108.005,0ZM71.141,0,59.88,11.261h5.54L76.68,0Z" transform="translate(0)" fill="#d0e3f7"/></g><g transform="translate(129.084 72.289)"><rect width="1.467" height="3.578" transform="translate(5.085 8.999)" fill="#d2dded"/><rect width="1.467" height="3.578" transform="translate(103.08 12.574) rotate(180)" fill="#d2dded"/><circle cx="4.122" cy="4.122" r="4.122" transform="translate(0 5.829) rotate(-45)" fill="#269af9"/><circle cx="4.122" cy="4.122" r="4.122" transform="translate(97.438 8.931) rotate(-77.132)" fill="#269af9"/></g><g transform="translate(112.752 96.126)"><rect width="91.881" height="2.061" transform="translate(35.776 33.534)" fill="#d2dded"/><path d="M53.91,64.579H59.2L39.137,0H33.845Z" transform="translate(-13.781 0)" fill="#d2dded"/><path d="M216.738,64.579h5.292L201.966,0h-5.292Z" transform="translate(-80.079 0)" fill="#d2dded"/><path d="M5.292,64.579H0L20.064,0h5.292Z" transform="translate(0 0)" fill="#d0e3f7"/><path d="M168.149,64.579h-5.292L182.9,0H188.2Z" transform="translate(-66.31 0)" fill="#d0e3f7"/><rect width="91.881" height="2.061" transform="translate(14.294 33.534)" fill="#d0e3f7"/></g><g transform="translate(161.979 0)"><circle cx="25.604" cy="25.604" r="25.604" transform="translate(0 36.209) rotate(-45)" fill="#f4f8fc"/><circle cx="21.35" cy="21.35" r="21.35" transform="translate(6.016 36.209) rotate(-45)" fill="#ff4a64"/><path d="M0,0H19.24V5.77H0Z" transform="translate(27.167 31.818) rotate(9.248)" fill="#fff"/></g></g></g></g></svg>