<svg id="Domain_Sorgulama_Domain_Tescili_İsim_Tescil___12_Ay_Taksit_-_CloudBunny-12" data-name="Domain Sorgulama, Domain Tescili, İsim Tescil _ 12 Ay Taksit - CloudBunny-12" xmlns="http://www.w3.org/2000/svg" width="49.209" height="19.766" viewBox="0 0 49.209 19.766">
  <path id="path36" d="M6.553,52.184A3.277,3.277,0,1,1,3.277,48.9a3.277,3.277,0,0,1,3.277,3.279" transform="translate(0 -35.78)" fill="#fdcc0f"/>
  <path id="path38" d="M43.437,27.514a1.244,1.244,0,0,1-1.417,1.417H39.927a1.244,1.244,0,0,1-1.417-1.417v-8.5c0-1.138-.4-1.908-1.723-1.908a5.367,5.367,0,0,0-2.74.805V27.52a1.244,1.244,0,0,1-1.417,1.417H30.537A1.244,1.244,0,0,1,29.12,27.52V14.963a1.245,1.245,0,0,1,1.417-1.417h.77c.679,0,.955.338,1.385,1.108a10.549,10.549,0,0,1,5.367-1.54c4.186,0,5.389,2.217,5.389,5.171Z" transform="translate(-21.305 -9.595)" fill="#231f20"/>
  <path id="path40" d="M100.148,22.837H92.481c-.123,2,.923,2.587,3.325,2.587a11.582,11.582,0,0,0,3.446-.432,1.432,1.432,0,0,1,1.938,1.385v.585a1.523,1.523,0,0,1-1.108,1.632,16.55,16.55,0,0,1-4.927.738c-5.08,0-7.544-2.587-7.544-8.129s2.431-8.129,7.205-8.129c5.941,0,6.865,4,6.744,8.343a1.257,1.257,0,0,1-1.417,1.417m-7.662-3.016h4.372c.268-1.693-.091-3.049-1.97-3.049-1.661,0-2.4,1.108-2.4,3.049" transform="translate(-64.099 -9.566)" fill="#231f20"/>
  <path id="path42" d="M143.6,2.062c0-.894.368-1.232,1.479-1.54l1.61-.432c1.275-.335,1.838.311,1.838,1.253V3.93h2.415a1.244,1.244,0,0,1,1.417,1.417V6.611a1.244,1.244,0,0,1-1.417,1.417h-2.415v5.888c0,1.2.462,1.879,2.031,1.879h.309a1.269,1.269,0,0,1,1.323,1.293V18.1a1.516,1.516,0,0,1-1.261,1.54,7.358,7.358,0,0,1-1.385.123c-4.372,0-5.941-1.817-5.941-5.45V8.036h-1.2a1.244,1.244,0,0,1-1.417-1.417V5.905c0-.805.338-1.2,1.232-1.446l1.385-.37Z" transform="translate(-103.154 0)" fill="#231f20"/>
</svg>
