<svg xmlns="http://www.w3.org/2000/svg" width="51.316" height="17.22" viewBox="0 0 51.316 17.22">
  <g id="iconOrg" transform="translate(-2.35 -0.88)">
    <g id="adwkAf" transform="translate(2.35 0.88)">
      <g id="Group_1970" data-name="Group 1970">
        <path id="Path_2447" data-name="Path 2447" d="M93.871,2.842a3.62,3.62,0,0,1,3.873-1.374c.227.041.344.072.3.371-.189,1-.344,2.01-.5,3.017-.041.265-.076.392-.426.309a2.6,2.6,0,0,0-3.247,2.6c0,1.976-.021,3.948,0,5.924,0,.464-.134.553-.56.539-.935-.031-1.873-.021-2.811,0-.289,0-.364-.089-.361-.371V1.914c0-.265.069-.344.344-.344.986,0,1.976.024,2.962,0,.344,0,.474.1.43.447A8.084,8.084,0,0,0,93.871,2.842Z" transform="translate(-59.974 -1.2)" fill="#163b4f"/>
        <path id="Path_2448" data-name="Path 2448" d="M126.931,1.671c0-.3-.062-.409-.385-.4q-1.454.031-2.914,0c-.32,0-.46.072-.43.416s0,.615,0,1.031l-.4-.309a5.23,5.23,0,0,0-5.886-.388,6.423,6.423,0,0,0-2.2,8.426,5.344,5.344,0,0,0,8.292,1.783c.055-.045.11-.072.175-.024a2.466,2.466,0,0,1-2.165,2.921,7.433,7.433,0,0,1-1.141.151,6.992,6.992,0,0,1-3.866-1.031c-.227-.124-.344-.158-.495.12-.368.711-.766,1.409-1.172,2.1-.144.244-.107.364.134.505a10.752,10.752,0,0,0,2.766,1.148,16.889,16.889,0,0,0,3.728.21c3.866-.265,5.934-2.471,5.938-6.336V6.922C126.924,5.156,126.917,3.414,126.931,1.671Zm-3.587,5.886a3.023,3.023,0,0,1-2.154,2.787,2.82,2.82,0,0,1-3.395-2.405,2.85,2.85,0,1,1,5.549-.381Z" transform="translate(-75.615 -1.136)" fill="#163b4f"/>
        <path id="Path_2449" data-name="Path 2449" d="M61.463,6.011A6.713,6.713,0,0,0,55.882.994C55.5.98,54.453.956,54.12.98c-3.759.309-6.563,4.4-5.639,8.247A6.687,6.687,0,1,0,61.463,6.011Zm-4.976,4.467a2.161,2.161,0,0,1-3.093,0,4.15,4.15,0,0,1-.021-5.632,2.172,2.172,0,0,1,3.182,0,3.924,3.924,0,0,1,1.072,2.811,3.78,3.78,0,0,1-1.141,2.821Z" transform="translate(-32.513 -0.939)" fill="#163b4f"/>
        <path id="Path_2450" data-name="Path 2450" d="M10.3,12.773a1.464,1.464,0,0,1,.433-1.086c.814-.818,1.622-1.639,2.45-2.443a1.515,1.515,0,0,1,2.2,0q1.227,1.185,2.405,2.405a1.522,1.522,0,0,1,0,2.2q-1.185,1.223-2.405,2.405a1.512,1.512,0,0,1-2.237,0c-.814-.794-1.612-1.6-2.405-2.405a1.464,1.464,0,0,1-.443-1.079Z" transform="translate(-7.567 -6.058)" fill="#f48320"/>
        <path id="Path_2451" data-name="Path 2451" d="M35.09,17.531c.086-2.179.065-4.292,0-6.436.086-.041.141.093.21.162.447.423.883.832,1.282,1.285a2.467,2.467,0,0,1,.471,2.749A8.162,8.162,0,0,1,35.09,17.531Z" transform="translate(-23.84 -7.58)" fill="#f48421"/>
        <path id="Path_2452" data-name="Path 2452" d="M2.364,14.529a3.436,3.436,0,0,1,0-.612A2.749,2.749,0,0,1,3.2,12.3c.44-.426.869-.862,1.3-1.3-.038,2.179-.069,4.319.021,6.5C3.742,16.563,2.539,15.934,2.364,14.529Z" transform="translate(-2.35 -7.523)" fill="#f48421"/>
        <path id="Path_2453" data-name="Path 2453" d="M19.075,33.6a17.421,17.421,0,0,1-1.526,1.632,2.433,2.433,0,0,1-3.185-.055,19.929,19.929,0,0,1-1.454-1.557C14.924,33.686,17.064,33.737,19.075,33.6Z" transform="translate(-9.282 -22.357)" fill="#f48420"/>
        <path id="Path_2454" data-name="Path 2454" d="M15.259.922a2.66,2.66,0,0,1,.931,0,2.378,2.378,0,0,1,1.319.687c.467.443.935.893,1.474,1.409-2.268,0-4.4-.113-6.484.069A5.345,5.345,0,0,1,15.259.922Z" transform="translate(-9.012 -0.88)" fill="#f48420"/>
      </g>
    </g>
  </g>
</svg>
