<svg xmlns="http://www.w3.org/2000/svg" xmlns:xlink="http://www.w3.org/1999/xlink" width="188.328" height="38.716" viewBox="0 0 188.328 38.716"><defs><clipPath id="a"><rect width="62" height="38.716" fill="#fff"/></clipPath></defs><g transform="translate(-306 -731)"><path d="M-53.416.192a5.772,5.772,0,0,1-4.256-1.7,5.675,5.675,0,0,1-1.7-4.176,5.675,5.675,0,0,1,1.7-4.176,5.772,5.772,0,0,1,4.256-1.7,5.754,5.754,0,0,1,3.48,1.128,5.2,5.2,0,0,1,2.024,2.936h-2.512A2.7,2.7,0,0,0-51.6-8.816a3.51,3.51,0,0,0-1.816-.5,3.471,3.471,0,0,0-2.608,1.04A3.577,3.577,0,0,0-57.032-5.68a3.577,3.577,0,0,0,1.008,2.592,3.471,3.471,0,0,0,2.608,1.04,3.51,3.51,0,0,0,1.816-.5,2.7,2.7,0,0,0,1.176-1.328h2.512A5.2,5.2,0,0,1-49.936-.936,5.754,5.754,0,0,1-53.416.192ZM-46.232,0V-11.36h2.32v9.152h4.864V0Zm10.96-3.1A3.4,3.4,0,0,0-32.76-2.048a3.358,3.358,0,0,0,2.5-1.064A3.555,3.555,0,0,0-29.224-5.68a3.555,3.555,0,0,0-1.032-2.568,3.358,3.358,0,0,0-2.5-1.064,3.358,3.358,0,0,0-2.5,1.064A3.555,3.555,0,0,0-36.3-5.68,3.6,3.6,0,0,0-35.272-3.1Zm6.656,1.584A5.644,5.644,0,0,1-32.76.192a5.658,5.658,0,0,1-4.152-1.72,5.658,5.658,0,0,1-1.72-4.152,5.658,5.658,0,0,1,1.72-4.152,5.658,5.658,0,0,1,4.152-1.72,5.658,5.658,0,0,1,4.152,1.72,5.658,5.658,0,0,1,1.72,4.152A5.671,5.671,0,0,1-28.616-1.52Zm8.08,1.712a4.523,4.523,0,0,1-3.344-1.28A4.585,4.585,0,0,1-25.16-4.48v-6.88h2.32v6.912a2.414,2.414,0,0,0,.624,1.76,2.239,2.239,0,0,0,1.68.64,2.239,2.239,0,0,0,1.68-.64,2.414,2.414,0,0,0,.624-1.76V-11.36h2.32v6.88a4.56,4.56,0,0,1-1.3,3.384A4.52,4.52,0,0,1-20.536.192ZM-13.512,0V-11.36h3.744A5.722,5.722,0,0,1-5.624-9.712a5.406,5.406,0,0,1,1.7,4.032,5.406,5.406,0,0,1-1.7,4.032A5.722,5.722,0,0,1-9.768,0Zm2.32-2.128h1.424A3.335,3.335,0,0,0-7.24-3.152,3.524,3.524,0,0,0-6.264-5.68,3.524,3.524,0,0,0-7.24-8.208,3.335,3.335,0,0,0-9.768-9.232h-1.424ZM5.24.192A4.372,4.372,0,0,1,2.12-.92,3.692,3.692,0,0,1,.872-3.52h2.32A1.73,1.73,0,0,0,3.88-2.36a2.247,2.247,0,0,0,1.36.408,2,2,0,0,0,1.168-.312.974.974,0,0,0,.448-.84q0-.944-1.52-1.376l-1.2-.352A4.623,4.623,0,0,1,1.96-6.08a3.053,3.053,0,0,1-.8-2.112A3.087,3.087,0,0,1,2.2-10.648a4.07,4.07,0,0,1,2.768-.9A3.912,3.912,0,0,1,7.8-10.5,3.5,3.5,0,0,1,8.952-8.1h-2.3a1.659,1.659,0,0,0-.64-.992,1.79,1.79,0,0,0-1.04-.32,1.814,1.814,0,0,0-1.048.28.93.93,0,0,0-.424.776,1.026,1.026,0,0,0,.336.832,2.718,2.718,0,0,0,1.088.528l1.328.368q2.944.816,2.944,3.44A3.069,3.069,0,0,1,8.1-.76,4.2,4.2,0,0,1,5.24.192ZM11.08,0V-11.36h7.072v2.208H13.4v2.336h3.792v2.208H13.4v2.4h4.752V0Zm9.088,0V-11.36H24.52a3.424,3.424,0,0,1,2.52.96A3.242,3.242,0,0,1,28.008-8a2.906,2.906,0,0,1-2.336,2.96L29.752,0h-2.8l-3.9-4.784h-.56V0Zm2.32-6.768h1.76A1.606,1.606,0,0,0,25.312-7.1,1.115,1.115,0,0,0,25.7-8a1.115,1.115,0,0,0-.392-.9,1.606,1.606,0,0,0-1.064-.328h-1.76ZM33.592,0,28.9-11.36h2.512l3.216,7.888L37.8-11.36h2.56L35.656,0Zm8.064,0V-11.36h7.072v2.208H43.976v2.336h3.792v2.208H43.976v2.4h4.752V0Zm9.088,0V-11.36H55.1a3.424,3.424,0,0,1,2.52.96A3.242,3.242,0,0,1,58.584-8a2.906,2.906,0,0,1-2.336,2.96L60.328,0h-2.8l-3.9-4.784h-.56V0Zm2.32-6.768h1.76A1.606,1.606,0,0,0,55.888-7.1,1.115,1.115,0,0,0,56.28-8a1.115,1.115,0,0,0-.392-.9,1.606,1.606,0,0,0-1.064-.328h-1.76Z" transform="translate(434 755.552)" fill="#fff"/><g transform="translate(306 731)"><g clip-path="url(#a)"><path d="M68.011,112.16h4.952c1.537,0,3.075.015,4.611-.009.47-.007.651.145.736.618a10.235,10.235,0,0,1-2.461,8.487c-2.648,3.316-6.185,5.428-9.972,7.153A58.68,58.68,0,0,1,51.246,132.7a80.482,80.482,0,0,1-20.318.892c-3.747-.318-7.461-1.026-11.189-1.562a1.678,1.678,0,0,1-.329-.181c.579,0,1.008-.027,1.432,0a90.05,90.05,0,0,0,15.17-.224,68.087,68.087,0,0,0,19.6-4.548,30.366,30.366,0,0,0,8.362-4.911A1.758,1.758,0,0,1,65,121.839a7.064,7.064,0,0,0,3.766-1.164,4.7,4.7,0,0,0,.013-7.984c-.2-.133-.389-.27-.764-.531" transform="translate(-16.47 -95.157)" fill="#fff"/><path d="M23.735,92.237c0,1.024.023,1.929-.017,2.831-.009.206-.227.573-.36.578-1.178.046-2.358.027-3.64.027v-3.08c0-.983.036-1.968-.012-2.948-.03-.623.225-.763.789-.761q5.142.026,10.285,0a5.657,5.657,0,0,0,1.489-.19A1.548,1.548,0,0,0,33.5,87.169a1.5,1.5,0,0,0-1.2-1.46,4.269,4.269,0,0,0-1.26-.184c-3.479-.014-6.958,0-10.436-.016a1.249,1.249,0,0,0-1.139.552q-3.029,4.105-6.11,8.171c-1.655,2.179-2.979,2.2-4.589.018-2.859-3.87-5.67-7.775-8.5-11.666-.07-.1-.13-.2-.263-.41,1.649,0,3.2-.015,4.746.02.187,0,.411.245.545.43q2.718,3.724,5.415,7.463c.113.155.247.3.444.529.27-.353.5-.64.715-.937,1.687-2.324,3.379-4.645,5.049-6.981a1.145,1.145,0,0,1,1.059-.539c4.437.021,8.874-.009,13.31.023a7.025,7.025,0,0,1,4.734,1.683,4.363,4.363,0,0,1-.373,6.972,7.893,7.893,0,0,1-4.619,1.391c-2.117.033-4.235.008-6.353.008h-.937" transform="translate(0 -69.709)" fill="#fff"/><path d="M81.763,15.762H72.507l3.13-4.114c-.456-.03-.74-.063-1.024-.064-1.966,0-3.932.012-5.9-.01a1.545,1.545,0,0,1-.9-.264,37.65,37.65,0,0,0-13.2-6.474C45.352,2.062,35.851,1.382,26.242,1.707c-.674.023-1.347.1-2.02.15L24.2,1.672c2.023-.334,4.037-.73,6.069-.989A87.1,87.1,0,0,1,43.232.023,81.912,81.912,0,0,1,55.168,1.115,59.585,59.585,0,0,1,69.822,5.371a27.208,27.208,0,0,1,8.669,5.683,35.433,35.433,0,0,1,2.86,3.776,5.24,5.24,0,0,1,.412.931" transform="translate(-20.53 0)" fill="#fff"/><path d="M234.64,95.466c.862-1.118,1.667-2.2,2.525-3.235.13-.157.509-.148.774-.149,2.873-.01,5.747.011,8.619-.02a5.835,5.835,0,0,0,1.764-.319.939.939,0,0,0,.546-.7,1.067,1.067,0,0,0-.589-.752,5.035,5.035,0,0,0-1.62-.272c-2.419-.033-4.84.012-7.258-.053a16.533,16.533,0,0,1-2.512-.459,5.489,5.489,0,0,0-1.026-6.25,7.012,7.012,0,0,1,1.292-.75,8.116,8.116,0,0,1,2.336-.529c4.309-.05,8.618-.024,13.115-.024a22.317,22.317,0,0,0-1.725,2.269,2.4,2.4,0,0,1-2.482,1.214c-2.619-.08-5.242-.026-7.863-.025a1.549,1.549,0,0,0-.67.038,2.887,2.887,0,0,0-.594.571c.216.167.426.466.65.478,1.056.055,2.116.017,3.174.038,1.737.035,3.476.041,5.209.149a4.8,4.8,0,0,1,4.445,3.577,3.744,3.744,0,0,1-1.34,3.848,6.623,6.623,0,0,1-4.435,1.425c-4.007.038-8.015.013-12.022.01a1.91,1.91,0,0,1-.314-.075" transform="translate(-199.084 -69.526)" fill="#fff"/></g></g></g></svg>