<svg xmlns="http://www.w3.org/2000/svg" width="178.373" height="46.279" viewBox="0 0 178.373 46.279"><g transform="translate(-779.928 -1378.774)"><g transform="translate(826.207 1399.171) rotate(135)"><path d="M20.549,7.957V0L14.343,5.415v8.872h7.974v8.04h8.873L36.6,16.12h-8.14V7.957ZM6.206,14.475V6.52L0,11.934v8.873H7.974v8.039h8.872L22.26,22.64H14.12V14.475H6.206Z" fill="#fff" fill-rule="evenodd"/></g><path d="M89.389,91.741V89.489H78.138v9.252H89.517V96.5H81.284V95.088h7.637V93.141H81.284v-1.4Zm16.219,7V89.489h-3.131v6.783L96.34,89.489H91.678v9.252h3.147V92.008L101,98.741h4.6Zm9.123,0V91.754h4.305V89.489H107.275v2.265h4.308v6.987Zm17.268-7V89.489H120.746v9.252h11.379V96.5h-8.232V95.088h7.636V93.141h-7.636v-1.4Zm10.607-2.252H134.33v9.252h3.158V96.374h4.69c1.035,0,1.417.164,1.417.954v1.413h3.148v-1.9c0-.941-.555-1.527-1.63-1.756,1.288-.28,1.715-1.042,1.715-2.57,0-2.4-1.107-3.029-4.224-3.029Zm-.113,2.3c.806,0,1.132.33,1.132,1.044,0,.877-.254,1.221-1.132,1.221h-5V91.792Zm14.6-2.3h-7.908v9.252h3.16v-2.3h5.883c2.279,0,3.089-.992,3.089-3.474,0-1.6-.383-2.571-1.489-3.093a6.663,6.663,0,0,0-2.734-.381Zm-.113,2.3c.806,0,1.132.343,1.132,1.082,0,.9-.254,1.259-1.132,1.259h-4.634V91.792Zm14.661-2.3h-8.278v9.252h3.16V96.374h4.69c1.035,0,1.417.164,1.417.954v1.413h3.146v-1.9c0-.941-.552-1.527-1.627-1.756,1.288-.28,1.713-1.042,1.713-2.57C175.863,90.114,174.76,89.489,171.643,89.489Zm-.116,2.3c.808,0,1.134.33,1.134,1.044,0,.877-.254,1.221-1.134,1.221h-5V91.792Zm9.943,6.949V89.489h-3.144v9.252Zm2.429-3.08q-.031.369-.043.739c0,2.024,1.134,2.458,4.323,2.458h4.195a6.931,6.931,0,0,0,3.186-.447,2.335,2.335,0,0,0,1.163-2.392c0-2.164-.849-2.952-3.217-3l-5.171-.114c-.865-.025-1.234-.191-1.234-.764,0-.649.511-.726,1.489-.726h3.628c.693,0,1.035.3,1.035.916v.038h3.033c.013-.179.028-.356.028-.509,0-1.781-1.019-2.482-3.359-2.482h-4.8c-1.659,0-2.793.063-3.543.712a2.7,2.7,0,0,0-.724,2.164c0,2.126.765,2.7,3.16,2.762l4.948.141c1.019.025,1.514.128,1.514.8,0,.56-.326.764-1.075.764h-3.954c-1.091,0-1.474-.128-1.474-.891v-.166h-3.1Zm26.208-3.92V89.489H198.855v9.252h11.379V96.5H202V95.088h7.639V93.141H202v-1.4h8.105Z" transform="translate(748.067 1300.491)" fill="#fff" fill-rule="evenodd"/><path d="M-37.211,2.429a3.592,3.592,0,0,1-2.563-.914A3.033,3.033,0,0,1-40.8-.621h1.906a1.421,1.421,0,0,0,.565.953,1.846,1.846,0,0,0,1.117.335,1.645,1.645,0,0,0,.96-.256.8.8,0,0,0,.368-.69q0-.776-1.249-1.13l-.986-.289a3.8,3.8,0,0,1-1.788-1.025,2.508,2.508,0,0,1-.657-1.735,2.536,2.536,0,0,1,.854-2.018,3.344,3.344,0,0,1,2.274-.743,3.214,3.214,0,0,1,2.327.861,2.872,2.872,0,0,1,.946,1.978h-1.893A1.363,1.363,0,0,0-36.58-5.2a1.47,1.47,0,0,0-.854-.263,1.49,1.49,0,0,0-.861.23.764.764,0,0,0-.348.638.843.843,0,0,0,.276.684,2.233,2.233,0,0,0,.894.434l1.091.3A2.812,2.812,0,0,1-33.964-.345a2.521,2.521,0,0,1-.9,1.992A3.45,3.45,0,0,1-37.211,2.429Zm16.629-.158V-7.062h5.81v1.814h-3.9v1.919h3.115v1.814h-3.115V.457h3.9V2.271Zm19.3,0V-7.062H2.29a2.813,2.813,0,0,1,2.07.789,2.664,2.664,0,0,1,.8,1.972A2.388,2.388,0,0,1,3.237-1.87L6.589,2.271h-2.3L1.081-1.66H.621v3.93ZM.621-3.29H2.067a1.32,1.32,0,0,0,.874-.269A.916.916,0,0,0,3.263-4.3a.916.916,0,0,0-.322-.743,1.32,1.32,0,0,0-.874-.269H.621Zm20.954,5.56L17.723-7.062h2.064L22.429-.582l2.6-6.481h2.1L23.27,2.271Zm18.456,0V-7.062h5.81v1.814h-3.9v1.919h3.115v1.814H41.937V.457h3.9V2.271Zm19.3,0V-7.062H62.9a2.813,2.813,0,0,1,2.07.789,2.664,2.664,0,0,1,.8,1.972A2.388,2.388,0,0,1,63.85-1.87L67.2,2.271H64.9L61.694-1.66h-.46v3.93Zm1.906-5.56H62.68a1.32,1.32,0,0,0,.874-.269.916.916,0,0,0,.322-.743.916.916,0,0,0-.322-.743,1.32,1.32,0,0,0-.874-.269H61.234Z" transform="translate(878.838 1411.533)" fill="#fff"/></g></svg>