<svg xmlns="http://www.w3.org/2000/svg" xmlns:xlink="http://www.w3.org/1999/xlink" width="167.368" height="53.89" viewBox="0 0 167.368 53.89"><defs><clipPath id="a"><rect width="40.879" height="53.89" fill="#fff"/></clipPath></defs><g transform="translate(-0.001 0)"><path d="M-42.809-10.663-45.878,2.6h6.554A8.286,8.286,0,0,0-33.354.316a7.276,7.276,0,0,0,2.386-5.435,5.072,5.072,0,0,0-1.723-4.069,6.76,6.76,0,0,0-4.554-1.475Zm2.158,9.544,1.366-5.94h1.208a2.674,2.674,0,0,1,1.891.634A2.186,2.186,0,0,1-35.5-4.743,3.25,3.25,0,0,1-36.75-2.179a4.255,4.255,0,0,1-2.831,1.059Zm15.82-5.96h6.336l.832-3.584H-28.375L-31.444,2.6h10.811L-19.8-.981h-6.435l.337-1.465h5.8l.733-3.168h-5.8Zm8.514-3.584L-19.385,2.6h6.554A8.286,8.286,0,0,0-6.862.316,7.276,7.276,0,0,0-4.476-5.119,5.072,5.072,0,0,0-6.2-9.188a6.76,6.76,0,0,0-4.554-1.475Zm2.158,9.544,1.366-5.94h1.208a2.674,2.674,0,0,1,1.891.634A2.186,2.186,0,0,1-9.01-4.743a3.25,3.25,0,0,1-1.247,2.564,4.255,4.255,0,0,1-2.831,1.059ZM-.556,2.6,2.493-10.663H-1.882L-4.932,2.6ZM10.394-10.96a8.089,8.089,0,0,0-5.881,2.3,7.416,7.416,0,0,0-2.356,5.5A5.8,5.8,0,0,0,3.909,1.207,6.733,6.733,0,0,0,8.79,2.9a7.927,7.927,0,0,0,4.693-1.356,7.021,7.021,0,0,0,2.673-3.811L11.9-3.1A3.477,3.477,0,0,1,10.76-1.535a2.756,2.756,0,0,1-1.693.554,2.328,2.328,0,0,1-1.8-.733,2.671,2.671,0,0,1-.673-1.881A3.375,3.375,0,0,1,7.6-6.06,3.258,3.258,0,0,1,10-7.079a2.244,2.244,0,0,1,1.525.515A2.055,2.055,0,0,1,12.2-5.119l4.514-.792a4.642,4.642,0,0,0-1.851-3.663A7.028,7.028,0,0,0,10.394-10.96ZM30.055,2.6,27.976-10.663H22.947L14.73,2.6h4.831L20.491,1h4.871l.178,1.6ZM24.986-2.565H22.531l2.079-3.6ZM42.964-6.98l.851-3.683H31.362L30.51-6.98h4.039L32.332,2.6h4.376L38.925-6.98Zm5.485-.1h6.336l.832-3.584H44.9L41.836,2.6H52.646l.832-3.584H47.043l.337-1.465h5.8l.733-3.168h-5.8Zm8.514-3.584L53.894,2.6h6.554A8.286,8.286,0,0,0,66.417.316,7.276,7.276,0,0,0,68.8-5.119,5.072,5.072,0,0,0,67.08-9.188a6.76,6.76,0,0,0-4.554-1.475Zm2.158,9.544,1.366-5.94h1.208a2.674,2.674,0,0,1,1.891.634,2.186,2.186,0,0,1,.683,1.683,3.25,3.25,0,0,1-1.247,2.564A4.255,4.255,0,0,1,60.19-1.119Zm-96.188,7.28a10.6,10.6,0,0,0-6.775,2.011,6.581,6.581,0,0,0-2.537,5.445,5.083,5.083,0,0,0,1.392,3.635,10.039,10.039,0,0,0,4.269,2.4l1.763.557q1.392.4,1.392,1.021,0,1.052-1.732,1.052a2.606,2.606,0,0,1-2.753-2.289l-7.177,1.3a6.5,6.5,0,0,0,3.016,4.687A11.378,11.378,0,0,0-39.6,27.817a10.989,10.989,0,0,0,6.93-2.042,6.515,6.515,0,0,0,2.63-5.414,5.416,5.416,0,0,0-1.083-3.527,7.593,7.593,0,0,0-3.465-2.166l-3.372-1.207q-.866-.278-.866-.928,0-1.083,1.485-1.083a2.481,2.481,0,0,1,1.624.572,2.426,2.426,0,0,1,.851,1.562L-28,12.224a6.866,6.866,0,0,0-3.032-4.532A10.959,10.959,0,0,0-37.067,6.161Zm17.7,6.064h9.9l1.3-5.6H-24.908l-4.8,20.728h16.892l1.3-5.6H-21.567l.526-2.289h9.065l1.145-4.95H-19.9Zm30.937.464A5.594,5.594,0,0,0,9.71,8.249,7.538,7.538,0,0,0,4.575,6.625H-6.1l-4.764,20.728h6.837L-2.6,21.227h1.268L2.1,27.353H9.649L5.658,20.516a9.366,9.366,0,0,0,4.3-3.078A7.576,7.576,0,0,0,11.567,12.688ZM-1.427,16.061l.9-3.96H2.595q2.073,0,2.073,1.609a2.079,2.079,0,0,1-.835,1.671,3.319,3.319,0,0,1-2.166.681ZM35.512,6.625H27.283L21,18.257,19.579,6.625H12.588L15.9,27.353h6.713Zm6.621,5.6h9.9l1.3-5.6H36.595L31.8,27.353H48.691l1.3-5.6H39.936l.526-2.289h9.065l1.145-4.95H41.607Zm30.937.464a5.594,5.594,0,0,0-1.856-4.439,7.538,7.538,0,0,0-5.136-1.624H55.4L50.64,27.353h6.837L58.9,21.227h1.268L63.6,27.353h7.549l-3.991-6.837a9.366,9.366,0,0,0,4.3-3.078A7.576,7.576,0,0,0,73.07,12.688ZM60.076,16.061l.9-3.96H64.1q2.073,0,2.073,1.609a2.079,2.079,0,0,1-.835,1.671,3.319,3.319,0,0,1-2.166.681Z" transform="translate(94.3 18.385)" fill="#fff"/><g transform="translate(0.001 0)"><g transform="translate(0 0)"><g clip-path="url(#a)"><path d="M0,51.183V2.717C.6.516,2.126-.039,4.255,0,9.311.1,14.37.034,19.428.034c6.011,0,12.022-.008,18.033.005,2.44.006,3.4.985,3.407,3.4q.008,4.844,0,9.689,0,18.717.009,37.434c0,1-.1,2.023-.979,2.54a5.324,5.324,0,0,1-2.548.723c-11.032.047-22.065-.008-33.1.065C2.123,53.9.6,53.379,0,51.183M34.839,10.948A19.721,19.721,0,0,1,34.854,8.8c.119-1.047-.234-1.368-1.317-1.362Q20.517,7.5,7.5,7.434c-1.086-.006-1.471.342-1.34,1.374a5.42,5.42,0,0,1,0,.66c0,1.592,0,1.6,1.567,1.6q12.8,0,25.6,0c.466,0,.932-.069,1.511-.114M20.481,13.414c-4.1,0-8.207-.017-12.31.007-2.043.012-2.009-.461-2.009,1.987,0,1.626,0,1.63,1.652,1.631q12.31,0,24.621,0c2.886-.005,2.311.3,2.422-2.479.037-.937-.292-1.168-1.185-1.16-4.4.041-8.793.019-13.19.018m14.18,5.711c-.477-.026-1.016-.081-1.555-.081q-12.361-.008-24.722,0c-2.468,0-2.161-.24-2.242,2.259-.034,1.048.286,1.372,1.358,1.367,8.167-.043,16.335-.023,24.5-.023,3.227,0,3.227,0,2.761-3.3a1.391,1.391,0,0,0-.1-.216" transform="translate(0 0)" fill="#fff"/></g></g></g></g></svg>