<svg xmlns="http://www.w3.org/2000/svg" xmlns:xlink="http://www.w3.org/1999/xlink" width="112.049" height="33.74" viewBox="0 0 112.049 33.74"><defs><clipPath id="a"><rect width="52.594" height="33.74" fill="#fff"/></clipPath></defs><g transform="translate(-692 -733.13)"><path d="M-24.912.192A4.372,4.372,0,0,1-28.032-.92a3.692,3.692,0,0,1-1.248-2.6h2.32a1.73,1.73,0,0,0,.688,1.16,2.247,2.247,0,0,0,1.36.408,2,2,0,0,0,1.168-.312A.974.974,0,0,0-23.3-3.1q0-.944-1.52-1.376l-1.2-.352A4.623,4.623,0,0,1-28.192-6.08a3.053,3.053,0,0,1-.8-2.112,3.087,3.087,0,0,1,1.04-2.456,4.07,4.07,0,0,1,2.768-.9A3.912,3.912,0,0,1-22.352-10.5,3.5,3.5,0,0,1-21.2-8.1h-2.3a1.659,1.659,0,0,0-.64-.992,1.79,1.79,0,0,0-1.04-.32,1.814,1.814,0,0,0-1.048.28.93.93,0,0,0-.424.776,1.026,1.026,0,0,0,.336.832,2.718,2.718,0,0,0,1.088.528l1.328.368q2.944.816,2.944,3.44a3.069,3.069,0,0,1-1.1,2.424A4.2,4.2,0,0,1-24.912.192ZM-19.072,0V-11.36H-12v2.208h-4.752v2.336h3.792v2.208h-3.792v2.4H-12V0Zm9.088,0V-11.36h4.352a3.424,3.424,0,0,1,2.52.96A3.242,3.242,0,0,1-2.144-8,2.906,2.906,0,0,1-4.48-5.04L-.4,0H-3.2L-7.1-4.784h-.56V0Zm2.32-6.768H-5.9A1.606,1.606,0,0,0-4.84-7.1,1.115,1.115,0,0,0-4.448-8a1.115,1.115,0,0,0-.392-.9A1.606,1.606,0,0,0-5.9-9.232h-1.76ZM3.44,0-1.248-11.36H1.264L4.48-3.472,7.648-11.36h2.56L5.5,0ZM11.5,0V-11.36h7.072v2.208H13.824v2.336h3.792v2.208H13.824v2.4h4.752V0Zm9.088,0V-11.36h4.352a3.424,3.424,0,0,1,2.52.96A3.242,3.242,0,0,1,28.432-8,2.906,2.906,0,0,1,26.1-5.04L30.176,0h-2.8l-3.9-4.784h-.56V0Zm2.32-6.768h1.76A1.606,1.606,0,0,0,25.736-7.1a1.115,1.115,0,0,0,.392-.9,1.115,1.115,0,0,0-.392-.9,1.606,1.606,0,0,0-1.064-.328h-1.76Z" transform="translate(773.873 758.038)" fill="#fff"/><g transform="translate(166 82.13)"><g transform="translate(526 651)"><g clip-path="url(#a)"><path d="M48.829,47.791a1.517,1.517,0,0,1,.013.321c-.654,2.721-.655,2.721-3.414,2.721-1.693,0-3.386-.023-5.077.022-.328.009-.852.211-.94.451-.565,1.539-1.034,3.114-1.59,4.851h8.41c-.84,2.633-1.628,5.088-2.407,7.546q-.873,2.751-1.727,5.507c-.2.643-.46,1.029-1.291,1.027q-20.075-.049-40.15-.025c-.155,0-.309-.022-.657-.048.275-.86.5-1.667.8-2.441.07-.176.414-.3.65-.34a6.418,6.418,0,0,1,1.06-.02c11.887,0,23.775-.026,35.662.036A1.781,1.781,0,0,0,40.263,65.8c.429-1.67,1.038-3.294,1.554-4.942.161-.514.272-1.044.44-1.7H33.95c.392-1.252.735-2.363,1.089-3.47.753-2.357,1.492-4.718,2.288-7.06.112-.331.506-.8.776-.807,3.577-.054,7.154-.036,10.727-.036" transform="translate(0 -36.497)" fill="#fff"/><path d="M28.682,11.289c.639,0,1.265.045,1.882-.012.745-.069,1,.245,1.16.955,1.055,4.751,2.161,9.492,3.253,14.235a5.57,5.57,0,0,0,.224.549c.442-1.292.829-2.378,1.186-3.473Q40.078,12.232,43.753.917C43.938.347,44.145,0,44.87,0Q59.394.041,73.918.022a5.716,5.716,0,0,1,.574.068,20.227,20.227,0,0,1-.834,2.585c-.112.244-.719.361-1.1.363-4.093.025-8.187.016-12.28.016-4.369,0-8.738.028-13.107-.023a1.362,1.362,0,0,0-1.552,1.154c-2.476,7.657-5.014,15.293-7.488,22.95-.255.789-.6,1.056-1.405,1.011-1.177-.065-2.365.037-3.539-.052a1.278,1.278,0,0,1-.94-.714c-1.223-5.2-2.387-10.409-3.561-15.617a2.8,2.8,0,0,1,0-.475" transform="translate(-21.898 0)" fill="#fff"/><path d="M95.293,20.94c-.872,2.7-1.7,5.273-2.534,7.841C91.191,33.6,89.628,38.417,88.02,43.22c-.116.348-.573.825-.878.829-3.815.057-7.631.037-11.612.037.514-1.663.981-3.222,1.478-4.771,1.164-3.627,2.365-7.242,3.5-10.877a1.42,1.42,0,0,1,1.644-1.219c2.359.087,4.725-.015,7.085.05a1.266,1.266,0,0,0,1.473-1.112c.361-1.326.9-2.606,1.219-3.939.25-1.036.759-1.443,1.8-1.291a11.883,11.883,0,0,0,1.56.011M79.42,41.05c.981,0,1.8.014,2.614,0,1.252-.027,2.8.354,3.669-.241.81-.553.925-2.151,1.3-3.3.767-2.341,1.5-4.692,2.309-7.207H85.983c-3.043,0-3.069-.009-4.036,2.87-.859,2.558-1.65,5.139-2.527,7.884" transform="translate(-57.684 -15.96)" fill="#fff"/></g></g></g></g></svg>