<svg xmlns="http://www.w3.org/2000/svg" width="190.922" height="31.734" viewBox="0 0 190.922 31.734"><g transform="translate(-8.55 -28.16)"><path d="M23.466,36.09a13.523,13.523,0,0,1,9.6-2.709V28.16H8.55V53.1h8.315c-.1-.211-.2-.312-.312-.523-2.295-4.9.835-12.346,6.884-16.485" fill="#096cb2"/><path d="M87.267,35.118c-.625-2.818-3.028-3.631-5.635-3.631-5.81,0-7.93,5.083-7.821,9.6.2,6.158,2.084,9.492,8.867,9.6a13.8,13.8,0,0,0,4.691-.726v-6.7H81.944V40.441H90.6v11.9a28.8,28.8,0,0,1-7.923,1.351c-3.341,0-6.057-.414-8.664-2.709S70.47,44.61,70.47,41.291a16.7,16.7,0,0,1,1.983-7.407c2.084-3.631,5.526-5.083,9.593-5.083s8.453,1.874,8.664,6.471Z" transform="translate(-16.953 -0.175)" fill="#2d2e2f"/><path d="M106.459,48.18c-.211,2.9.937,5.948,4.168,5.948,2.4,0,3.631-.937,3.965-3.333h3.341c-.523,3.754-3.341,5.628-7.306,5.628-5.316,0-7.407-3.754-7.407-8.656s2.4-8.976,7.72-8.976c4.909.109,7.306,3.239,7.306,7.829V48.18ZM114.8,46c.1-2.818-1.147-4.909-4.176-4.909-2.607,0-4.168,2.179-4.168,4.909Z" transform="translate(-25.92 -2.91)" fill="#2d2e2f"/><path d="M143.265,47.555c0,5.221-2.818,8.867-8.242,8.867s-8.242-3.631-8.242-8.867,2.818-8.765,8.242-8.765,8.242,3.551,8.242,8.765m-8.242,6.536c3.755,0,4.9-3.021,4.9-6.536s-1.249-6.434-4.9-6.434-4.9,3.028-4.9,6.471,1.147,6.536,4.9,6.536" transform="translate(-32.371 -2.91)" fill="#2d2e2f"/><path d="M151.468,34.009h-7.3v-4.7h21.387v4.7h-7.516V53.3h-6.572Z" transform="translate(-37.132 -0.315)" fill="#2d2e2f"/><path d="M175.921,42.311h0c.726-2.716,2.818-3.631,5.635-3.631V44H180.2c-3.239,0-4.357,1.983-4.277,5.214v6.674h-6.26V43.458a31.292,31.292,0,0,0-.211-4.277h6.362Z" transform="translate(-44.053 -2.88)" fill="#2d2e2f"/><path d="M201.222,54.146a6.282,6.282,0,0,1-5.214,2.295,5.776,5.776,0,0,1-6.158-6.049V39.332h6.26v9.8c.1,1.67.414,3.341,2.4,3.341,3.13,0,2.716-3.442,2.716-3.631V39.23h6.26V51.641a31.294,31.294,0,0,0,.211,4.277h-6.369Z" transform="translate(-49.639 -3.031)" fill="#2d2e2f"/><path d="M228.472,44.239a1.823,1.823,0,0,0-2.091-1.983,1.322,1.322,0,0,0-1.452,1.452c0,1.249,2.505,1.147,6.47,2.4a4.322,4.322,0,0,1,3.341,4.6c0,4.357-4.074,5.526-7.93,5.526-4.067,0-8.032-.835-7.93-5.948h5.948a1.845,1.845,0,0,0,.414,1.452,1.816,1.816,0,0,0,1.452.726c1.256,0,2.091-.421,2.091-1.569,0-2.9-9.811-1.147-9.811-7.2,0-4.067,4.357-5.214,7.618-5.214,3.965,0,7.509,1.038,7.829,5.628h-5.948v.109Z" transform="translate(-57.586 -2.826)" fill="#2d2e2f"/><path d="M246.092,37.522V35.016l6.26-2.4v4.9h3.631v3.965h-3.631v6.572c0,.414-.2,2.607,1.147,2.607a18.227,18.227,0,0,0,2.4-.1v3.754a14.139,14.139,0,0,1-3.341.312c-4.277,0-6.783-.625-6.471-5.737V41.487H242.86V37.522Z" transform="translate(-64.152 -1.221)" fill="#2d2e2f"/><path d="M269.76,40.766a1.866,1.866,0,0,1-.726,1.561,2.179,2.179,0,0,1-1.561.726,1.888,1.888,0,0,1-1.569-.726,2.121,2.121,0,0,1-.625-1.561,2.585,2.585,0,0,1,.625-1.67,2.222,2.222,0,0,1,1.569-.726,1.866,1.866,0,0,1,1.561.726,2.229,2.229,0,0,1,.726,1.67m-.523,0a1.736,1.736,0,0,0-.523-1.256,1.4,1.4,0,0,0-1.249-.516,1.772,1.772,0,0,0-1.772,1.772,1.692,1.692,0,0,0,.523,1.249,1.387,1.387,0,0,0,1.249.523,1.91,1.91,0,0,0,1.249-.523,1.721,1.721,0,0,0,.523-1.249m-1.452,1.249V41.6c0-.211,0-.312-.1-.421s-.109-.211-.312-.211h-.116v1.046h-.625V39.509h.937c.211,0,.421,0,.523.109a.537.537,0,0,1,.211.414v.247a.37.37,0,0,1-.109.312.842.842,0,0,1-.312.211c.211.1.312.2.312.312a.6.6,0,0,1,.109.414v.421h-.523v.1Zm0-1.67h0c0-.2,0-.2-.1-.312s-.109-.1-.211-.1h-.421v.726h.32c.1,0,.1,0,.2-.1.211-.1.211-.1.211-.211" transform="translate(-70.291 -2.795)" fill="#2d2e2f"/><path d="M37.765,39.369A11.757,11.757,0,0,0,26.08,51.156a15.977,15.977,0,0,0,.2,2.179,2.324,2.324,0,0,0,1.569,1.881,4.357,4.357,0,0,0,.726.2A6.274,6.274,0,0,0,32.34,54.5a8.518,8.518,0,0,0,3.544-4.691,48.975,48.975,0,0,0-5.948.915V47.089l13.144-.937-.1,12.556-3.965.312h0a.813.813,0,0,1,.08-.458c.109-1.038.32-2.084.421-3.232,0-.625.1-1.249.1-1.881a14.073,14.073,0,0,1-1.772,1.881,13.3,13.3,0,0,1-1.983,1.452c-.414.211-.835.523-1.249.726-.944.414-1.779.726-2.716,1.038a13.645,13.645,0,0,1-3.13.312A11.685,11.685,0,0,0,49.34,51.156,11.4,11.4,0,0,0,37.765,39.369" transform="translate(-4.8 -3.069)" fill="#f37122"/></g></svg>