<svg xmlns="http://www.w3.org/2000/svg" width="156.641" height="43.238" viewBox="0 0 156.641 43.238"><g transform="translate(-15.062 -15.53)"><path d="M62.315,15.53h-.966c-6.9.069-10.525,2.948-11.29,8.449l-.452,3.569c-.295,2.453.144,4.3,1.336,5.645,1.468,1.65,4.039,2.848,7.953,2.885h.96c6.762-.069,10.368-2.86,11.221-7.972h0l.069-.364L71.6,24.18c.3-2.559-.144-4.46-1.367-5.833-1.474-1.656-4.039-2.76-7.916-2.8M65.5,27.391a7.069,7.069,0,0,1-1.2,3.381,4.83,4.83,0,0,1-4,1.775H59.229c-1.813,0-3.136-.627-3.676-1.662a5.978,5.978,0,0,1-.276-3.337L55.7,24.3a6.41,6.41,0,0,1,1.7-3.914A5.087,5.087,0,0,1,61.111,19.1H62.1a3.9,3.9,0,0,1,3.211,1.2,5.207,5.207,0,0,1,.627,3.832Z" transform="translate(-12.844)" fill="#ce0e2d"/><path d="M151.09,15.53h-.972c-6.9.069-10.525,2.948-11.29,8.449l-.458,3.569c-.289,2.453.151,4.3,1.336,5.645,1.474,1.65,4.046,2.848,7.953,2.885h.972c6.762-.069,10.368-2.86,11.221-7.972h0l.05-.37.452-3.563c.3-2.559-.144-4.46-1.367-5.833-1.474-1.656-4.033-2.76-7.9-2.8m3.18,11.861a7.132,7.132,0,0,1-1.211,3.381,4.817,4.817,0,0,1-3.989,1.775H148c-1.813,0-3.136-.627-3.676-1.662a6.028,6.028,0,0,1-.282-3.337l.427-3.249a6.341,6.341,0,0,1,1.7-3.914,5.074,5.074,0,0,1,3.688-1.286h.985a3.9,3.9,0,0,1,3.218,1.2,5.207,5.207,0,0,1,.627,3.832Z" transform="translate(-45.932)" fill="#ce0e2d"/><path d="M241.357,18.338c-1.474-1.656-4.039-2.76-7.91-2.8h-.972c-6.9.069-10.525,2.948-11.29,8.449l-.458,3.569c-.295,2.453.144,4.3,1.336,5.645,1.474,1.65,4.039,2.848,7.953,2.885h.972c6.755-.069,10.362-2.86,11.215-7.972h0l.05-.37.458-3.563c.3-2.559-.144-4.46-1.367-5.833m-4.729,9.064a7.069,7.069,0,0,1-1.211,3.381,4.817,4.817,0,0,1-3.989,1.775h-1.06c-1.813,0-3.136-.627-3.676-1.662a5.959,5.959,0,0,1-.289-3.337l.433-3.249a6.373,6.373,0,0,1,1.694-3.914,5.106,5.106,0,0,1,3.688-1.286h.991a3.916,3.916,0,0,1,3.218,1.2,5.207,5.207,0,0,1,.627,3.832Z" transform="translate(-76.63 -0.004)" fill="#ce0e2d"/><path d="M183.875,21.829a2.935,2.935,0,0,1,.546.05,2.358,2.358,0,0,1,1.336.721,2.7,2.7,0,0,1,.627,2.126l-.728,5.965h0l-.188,1.53v.107h3.324a7.74,7.74,0,0,0,.834-.05c1.48-.157,3.92-.765,4.617-2.691a1.155,1.155,0,0,0,.056-.157,9.653,9.653,0,0,0,.351-1.643l.282-2.089h0l.138-.979a9.121,9.121,0,0,0,.044-2.214c-.232-1.919-2.509-2.509-3.958-2.691a7.369,7.369,0,0,0-.822-.05h-5.877a3.186,3.186,0,0,1-1.587-.4,3.011,3.011,0,0,1-1.091-2.547V16.19h8.781c4.391.038,7.27.922,8.857,2.7,1.2,1.342,1.643,3.136,1.355,5.532l-.163,1.254-.226,1.951c-.038.257-.075.721-.125.966a9.578,9.578,0,0,1-1.085,3.243,6.987,6.987,0,0,1-2.333,2.434,7.948,7.948,0,0,1-1.029.539,11.422,11.422,0,0,1-2.6.828,13.21,13.21,0,0,1-1.361.157c-.684.05-1.512.075-2.358.094H182.7c-1.474-.044-2.34-.295-2.816-.828a1.567,1.567,0,0,1-.22-.326,2.02,2.02,0,0,1-.163-1.148l.728-5.513L181,21.8Z" transform="translate(-61.285 -0.246)" fill="#ce0e2d"/><path d="M33.281,32.356H25.4a10.205,10.205,0,0,1-2.584-.282,2.86,2.86,0,0,1-1.5-.866A2.434,2.434,0,0,1,20.8,30.13v-.119a5.4,5.4,0,0,1-.075-.59,8.669,8.669,0,0,1,.075-1.712l.4-3.011a8.969,8.969,0,0,1,.188-.991,1.51,1.51,0,0,1,.088-.326v-.063a5.72,5.72,0,0,1,.245-.721.483.483,0,0,1,.069-.169c.088-.188.188-.364.289-.533a4.341,4.341,0,0,1,.326-.433,4.215,4.215,0,0,1,1.882-1.2,9.221,9.221,0,0,1,3.067-.408h4.391a3.72,3.72,0,0,0,1.694-.4,3.362,3.362,0,0,0,1.054-1.06c.05-.069.082-.151.125-.22a5.35,5.35,0,0,0,.5-1.311l.182-.627H26.519a20.172,20.172,0,0,0-2.716.207c-4.9.734-7.527,3.412-8.154,7.941l-.439,3.437c-.282,2.371.144,4.152,1.292,5.438,1.33,1.493,3.607,2.509,6.988,2.7h5.959a5.413,5.413,0,0,0,1.938-.314,3.538,3.538,0,0,0,1.223-1.361c.075-.144.151-.282.22-.445A7.715,7.715,0,0,0,33.281,32.356Z" transform="translate(-0.023 -0.261)" fill="#ce0e2d"/><path d="M96.825,32.8v.245a3.406,3.406,0,0,1-1.142,2.12,3.136,3.136,0,0,1-2.07.772H90.64l.276-2.246.107-.891L93.049,16.22h2.4c1.537,0,2.572.4,3.08,1.192l5.338,8.524,7.59-8.6a4.134,4.134,0,0,1,3.237-1.1H117.2l-2.057,16.584-.031.238a3.437,3.437,0,0,1-1.142,2.126,3.136,3.136,0,0,1-2.07.765h-2.848l1.424-11.5-5.971,7.527a2.108,2.108,0,0,1-1.4.828h-.05a1.769,1.769,0,0,1-1.254-.916l-3.939-7.477-1.035,8.405" transform="translate(-28.172 -0.257)" fill="#ce0e2d"/><path d="M23.88,70.458a2.722,2.722,0,0,1-1.16,2.2,4.773,4.773,0,0,1-2.9.834,4.391,4.391,0,0,1-3.487-1.455,5.927,5.927,0,0,1-1.254-4.027,6.1,6.1,0,0,1,1.254-4.09,4.334,4.334,0,0,1,3.487-1.48,4.88,4.88,0,0,1,2.967.815,2.622,2.622,0,0,1,1.1,2.208H22.387a1.549,1.549,0,0,0-.671-1.3,2.866,2.866,0,0,0-1.75-.5,3.061,3.061,0,0,0-2.509,1.1,4.748,4.748,0,0,0-.891,3.086,5.338,5.338,0,0,0,.878,3.274,2.9,2.9,0,0,0,2.465,1.167,2.879,2.879,0,0,0,1.725-.483,1.882,1.882,0,0,0,.765-1.342Z" transform="translate(0 -17.482)" fill="#53575a"/><path d="M31.89,67.786h1.367v.753a2.509,2.509,0,0,1,2.07-.96h.37v1.254h-.276a2.032,2.032,0,0,0-1.656.627,3.067,3.067,0,0,0-.508,1.963v3.763H31.89Z" transform="translate(-6.273 -19.401)" fill="#53575a"/><path d="M43.843,75.4a3.3,3.3,0,0,1-2.559-1.01,3.977,3.977,0,0,1-.928-2.791,4.391,4.391,0,0,1,.928-2.954,3.2,3.2,0,0,1,2.559-1.073,3.055,3.055,0,0,1,2.409.928,3.958,3.958,0,0,1,.828,2.71v.5h-5.3a3.839,3.839,0,0,0,.483,1.926,1.725,1.725,0,0,0,1.543.746,1.781,1.781,0,0,0,1.254-.414,1.75,1.75,0,0,0,.577-1.148H47.03a2.841,2.841,0,0,1-.985,1.919,3.4,3.4,0,0,1-2.2.665Zm1.832-4.711a2.823,2.823,0,0,0-.42-1.493,1.769,1.769,0,0,0-1.524-.627,1.694,1.694,0,0,0-1.449.7,2.722,2.722,0,0,0-.483,1.392Z" transform="translate(-9.426 -19.398)" fill="#53575a"/><path d="M56.123,75.4a2.986,2.986,0,0,1-1.995-.627,2.277,2.277,0,0,1,.282-3.531,4.83,4.83,0,0,1,2.716-.665h1.254v-.627a1.217,1.217,0,0,0-.408-1.029,2.07,2.07,0,0,0-1.311-.326,1.568,1.568,0,0,0-.991.295,1.142,1.142,0,0,0-.458.828h-1.43a2.082,2.082,0,0,1,.8-1.631,3.676,3.676,0,0,1,2.158-.514A3.337,3.337,0,0,1,58.9,68.2a2.126,2.126,0,0,1,.815,1.725V72.5q0,1.054.056,1.769a2.923,2.923,0,0,0,.144.891H58.626a1.06,1.06,0,0,1-.132-.5,5.532,5.532,0,0,1-.05-.627,3.067,3.067,0,0,1-.314.452A2.453,2.453,0,0,1,56.123,75.4Zm2.233-3.8H57.1a3.237,3.237,0,0,0-1.737.376,1.254,1.254,0,0,0-.577,1.129,1.167,1.167,0,0,0,.408.947,1.75,1.75,0,0,0,1.154.339,1.882,1.882,0,0,0,1.5-.571,2.459,2.459,0,0,0,.508-1.662Z" transform="translate(-14.298 -19.396)" fill="#53575a"/><path d="M70.186,74.3a7.758,7.758,0,0,1-1.342.1,2.032,2.032,0,0,1-1.3-.42,1.255,1.255,0,0,1-.533-1.035V67.775H65.45v-.991h1.537V65.448l1.361-.558v1.882h1.838v.991H68.367v4.861a.734.734,0,0,0,.2.571.916.916,0,0,0,.627.176,5.363,5.363,0,0,0,.991-.088Z" transform="translate(-18.782 -18.399)" fill="#53575a"/><path d="M75.67,62.77h1.5v1.4h-1.5Zm.063,3.224h1.4V73.4h-1.4Z" transform="translate(-22.592 -17.609)" fill="#53575a"/><path d="M82.13,67.781h1.254V68.8a3.586,3.586,0,0,1,.232-.289,2.91,2.91,0,0,1,2.277-.941,2.716,2.716,0,0,1,2.151.778,3.575,3.575,0,0,1,.684,2.421v4.391H87.38V70.773a2.509,2.509,0,0,0-.433-1.65,1.675,1.675,0,0,0-1.374-.514,2.013,2.013,0,0,0-1.587.565,2.7,2.7,0,0,0-.489,1.8v4.19H82.13Z" transform="translate(-25 -19.396)" fill="#53575a"/><path d="M99.208,77.15a2,2,0,0,0,1.581-.546,2.86,2.86,0,0,0,.464-1.844v-.991l-.232.32a2.691,2.691,0,0,1-2.177,1,2.785,2.785,0,0,1-2.271-.979,4.29,4.29,0,0,1-.828-2.791,3.914,3.914,0,0,1,.916-2.672,2.986,2.986,0,0,1,2.377-1.073,2.509,2.509,0,0,1,2.126,1l.113.138v-.935h1.361v6.956a3.525,3.525,0,0,1-.828,2.6,3.575,3.575,0,0,1-2.609.815,3.657,3.657,0,0,1-2.289-.577,2.208,2.208,0,0,1-.728-1.825h1.43A1.286,1.286,0,0,0,98,76.8,1.882,1.882,0,0,0,99.208,77.15Zm0-8.562a1.725,1.725,0,0,0-1.493.715,3.262,3.262,0,0,0-.533,2,3.556,3.556,0,0,0,.5,2.089,1.97,1.97,0,0,0,3.023,0,3.406,3.406,0,0,0,.533-2.032,3.368,3.368,0,0,0-.533-2.026,1.763,1.763,0,0,0-1.487-.746Z" transform="translate(-30.073 -19.4)" fill="#53575a"/><path d="M120.883,63.974H117.32v-1.2H125.9v1.2h-3.569v9.409h-1.449Z" transform="translate(-38.117 -17.609)" fill="#53575a"/><path d="M133.68,67.786h1.367v.753a2.509,2.509,0,0,1,2.07-.96h.37v1.254h-.276a2.013,2.013,0,0,0-1.65.627,3.03,3.03,0,0,0-.514,1.963v3.763H133.68Z" transform="translate(-44.215 -19.401)" fill="#53575a"/><path d="M143.957,72.357a2.509,2.509,0,0,0,.433,1.65,1.687,1.687,0,0,0,1.367.514,2.045,2.045,0,0,0,1.637-.571,2.572,2.572,0,0,0,.439-1.832V67.91h1.361v7.408H147.94v-.96l-.151.194a2.873,2.873,0,0,1-2.277.979,2.81,2.81,0,0,1-2.2-.79,3.688,3.688,0,0,1-.709-2.509V67.91h1.367Z" transform="translate(-47.536 -19.525)" fill="#53575a"/><path d="M160.9,69.78a1.048,1.048,0,0,0-.4-.866,1.694,1.694,0,0,0-1.1-.32,2.051,2.051,0,0,0-1.123.263.847.847,0,0,0-.4.74.765.765,0,0,0,.22.571,1.361,1.361,0,0,0,.659.351l1.512.4a3.87,3.87,0,0,1,1.656.809,1.694,1.694,0,0,1,.5,1.254,2.1,2.1,0,0,1-.815,1.756,4.447,4.447,0,0,1-4.554,0,2.177,2.177,0,0,1-.784-1.813h1.411a1.255,1.255,0,0,0,.439,1.035,1.844,1.844,0,0,0,1.254.376,2.183,2.183,0,0,0,1.254-.326,1.066,1.066,0,0,0,.452-.916.765.765,0,0,0-.282-.627,2.246,2.246,0,0,0-.859-.4l-1.505-.408a3.136,3.136,0,0,1-1.48-.7,1.775,1.775,0,0,1-.445-1.254,1.882,1.882,0,0,1,.765-1.581,4.215,4.215,0,0,1,4.259,0,1.932,1.932,0,0,1,.772,1.625Z" transform="translate(-52.637 -19.394)" fill="#53575a"/><path d="M173.243,74.3a7.81,7.81,0,0,1-1.342.1,2.032,2.032,0,0,1-1.3-.42,1.255,1.255,0,0,1-.533-1.035V67.775H168.52v-.991h1.556V65.448l1.361-.558v1.882h1.819v.991h-1.819v4.861a.734.734,0,0,0,.194.571.947.947,0,0,0,.627.176,5.42,5.42,0,0,0,1-.1Z" transform="translate(-57.202 -18.399)" fill="#53575a"/><path d="M187.628,72a6.128,6.128,0,0,1-1.255-4.1,5.9,5.9,0,0,1,1.255-4.014,4.949,4.949,0,0,1,7,0,5.934,5.934,0,0,1,1.254,4.014,6.16,6.16,0,0,1-1.254,4.1,4.861,4.861,0,0,1-7,0Zm5.946-.859a5.263,5.263,0,0,0,.866-3.23,5.062,5.062,0,0,0-.866-3.136,2.935,2.935,0,0,0-2.421-1.142,2.9,2.9,0,0,0-2.44,1.123,5.018,5.018,0,0,0-.872,3.136,5.219,5.219,0,0,0,.872,3.23,2.885,2.885,0,0,0,2.44,1.16A2.917,2.917,0,0,0,193.574,71.145Z" transform="translate(-63.853 -17.485)" fill="#53575a"/><path d="M204.54,67.78h1.254V68.8a2.031,2.031,0,0,1,.232-.289,2.91,2.91,0,0,1,2.277-.941,2.71,2.71,0,0,1,2.17.778,3.575,3.575,0,0,1,.69,2.421v4.391h-1.38V70.772a2.578,2.578,0,0,0-.427-1.65,1.694,1.694,0,0,0-1.374-.514,2,2,0,0,0-1.587.565,2.659,2.659,0,0,0-.5,1.8v4.19H204.54Z" transform="translate(-70.629 -19.395)" fill="#53575a"/><path d="M218.75,62.77h1.361V73.4H218.75Z" transform="translate(-75.926 -17.609)" fill="#53575a"/><path d="M225.13,62.77h1.5v1.4h-1.5Zm.063,3.224h1.367V73.4h-1.367Z" transform="translate(-78.304 -17.609)" fill="#53575a"/><path d="M231.59,67.781h1.254V68.8a2.03,2.03,0,0,1,.232-.289,2.892,2.892,0,0,1,2.277-.941,2.71,2.71,0,0,1,2.139.778,3.575,3.575,0,0,1,.684,2.421v4.391h-1.311V70.773a2.578,2.578,0,0,0-.427-1.65,1.694,1.694,0,0,0-1.374-.514,2,2,0,0,0-1.587.565,2.66,2.66,0,0,0-.5,1.8v4.19h-1.367Z" transform="translate(-80.712 -19.396)" fill="#53575a"/><path d="M248.713,75.4a3.306,3.306,0,0,1-2.559-1.01,3.945,3.945,0,0,1-.928-2.791,4.353,4.353,0,0,1,.928-2.954,3.193,3.193,0,0,1,2.559-1.073,3.048,3.048,0,0,1,2.4.928,3.927,3.927,0,0,1,.866,2.71v.5h-5.332a3.764,3.764,0,0,0,.483,1.926,1.719,1.719,0,0,0,1.543.746,1.794,1.794,0,0,0,1.254-.414,1.712,1.712,0,0,0,.571-1.148h1.411a2.823,2.823,0,0,1-1,1.919,3.381,3.381,0,0,1-2.2.665Zm1.832-4.711a2.823,2.823,0,0,0-.42-1.493,1.769,1.769,0,0,0-1.524-.627,1.681,1.681,0,0,0-1.449.7,2.785,2.785,0,0,0-.489,1.392Z" transform="translate(-85.792 -19.398)" fill="#53575a"/><path d="M260.343,64.68a2.194,2.194,0,1,1-.013,0Zm0,.414a1.643,1.643,0,0,0,0,3.287,1.574,1.574,0,0,0,1.568-1.643,1.593,1.593,0,0,0-1.581-1.643Zm-.314,2.71h-.477V65.759a4,4,0,0,1,.79-.075,1.142,1.142,0,0,1,.709.163.546.546,0,0,1,.207.439.527.527,0,0,1-.427.489h0c.2.063.314.226.376.5a1.136,1.136,0,0,0,.151.5h-.514a1.643,1.643,0,0,1-.163-.489c-.044-.226-.163-.326-.427-.326h-.226Zm0-1.154h.226c.263,0,.477-.088.477-.3s-.138-.314-.439-.314a1.141,1.141,0,0,0-.263,0Z" transform="translate(-90.635 -18.321)" fill="#53575a"/></g></svg>