<svg xmlns="http://www.w3.org/2000/svg" width="171.649" height="36.71" viewBox="0 0 171.649 36.71"><g transform="translate(-1.723 -398.815)"><g transform="translate(1.723 398.815)"><path d="M230.853,417.087a10.18,10.18,0,0,1,2.655-7.652,8.152,8.152,0,0,1,6.559-2.967,10.636,10.636,0,0,1,2.342.312,3.529,3.529,0,0,1,1.718.781,6.793,6.793,0,0,1,1.093.937c.312.313.469.625.781.781l.156.312h.156a3.875,3.875,0,0,1-.156-1.405v-9.37h3.9v28.267H246.47V423.8h-.156c-.156.156-.156.156-.156.468a11.542,11.542,0,0,1-.781.938,4.222,4.222,0,0,1-1.25,1.092,10.429,10.429,0,0,1-1.874.937,7.312,7.312,0,0,1-2.655.468,8.154,8.154,0,0,1-6.559-2.967A12.71,12.71,0,0,1,230.853,417.087Zm3.9,0a8.261,8.261,0,0,0,1.561,5.31,4.841,4.841,0,0,0,4.217,2.031,5.576,5.576,0,0,0,4.217-1.875,7.886,7.886,0,0,0,1.718-5.466,9.372,9.372,0,0,0-1.406-5.154,4.982,4.982,0,0,0-4.216-2.186,5.231,5.231,0,0,0-4.217,2.03A7.34,7.34,0,0,0,234.757,417.087Z" transform="translate(-191.95 -398.815)" fill="#1573ba"/><path d="M363.526,403.639v-3.9h3.9v3.9Zm0,24.363V407.7h3.9V428Z" transform="translate(-302.134 -399.579)" fill="#1573ba"/><path d="M404.646,469a11.4,11.4,0,0,0,5.466,1.406A7.591,7.591,0,0,0,414.8,469a5.292,5.292,0,0,0,1.718-4.217v-2.655h-.156a6.654,6.654,0,0,1-6.091,3.124,7.935,7.935,0,0,1-6.559-2.967,11.027,11.027,0,0,1-2.5-7.34,11.183,11.183,0,0,1,2.343-7.34,7.963,7.963,0,0,1,6.4-2.811,12.144,12.144,0,0,1,2.5.312,4.945,4.945,0,0,1,2.186.781,6.8,6.8,0,0,1,1.093.937,2.743,2.743,0,0,1,.625.781l.156.312h.157v-2.811h3.748v19.365a11.928,11.928,0,0,1-.781,4.217A6.89,6.89,0,0,1,417.3,471.5a8,8,0,0,1-3.279,1.562,13.688,13.688,0,0,1-3.748.469,14.184,14.184,0,0,1-7.027-1.718Zm6.715-7.183a4.684,4.684,0,0,0,3.9-1.718c1.093-1.093,1.406-2.967,1.406-5.31,0-4.529-1.874-6.715-5.778-6.715a5.171,5.171,0,0,0-4.061,1.718,7.452,7.452,0,0,0-1.406,4.841,7.543,7.543,0,0,0,1.562,5.154A5.139,5.139,0,0,0,411.361,461.822Z" transform="translate(-333.415 -436.99)" fill="#1573ba"/><path d="M533.795,403.639v-3.9h3.9v3.9Zm0,24.363V407.7h3.9V428Z" transform="translate(-443.511 -399.579)" fill="#1573ba"/><path d="M573.28,454.484a11.447,11.447,0,0,1,2.967-7.652,10.588,10.588,0,0,1,7.809-2.967,9.652,9.652,0,0,1,4.216.781c1.249.625,2.187,1.093,2.655,1.406l.781.781-1.874,2.655a3.4,3.4,0,0,0-.781-.625,8.341,8.341,0,0,0-1.874-1.093,6.762,6.762,0,0,0-2.967-.625,6.934,6.934,0,0,0-7.031,6.835c0,.116,0,.232,0,.349a6.95,6.95,0,0,0,6.707,7.184q.238.008.477,0a6.341,6.341,0,0,0,3.279-.781,10.242,10.242,0,0,0,2.343-1.405l.781-.781,1.562,2.811-.312.312a5.952,5.952,0,0,1-.937.781,3.714,3.714,0,0,1-1.718.937,20.327,20.327,0,0,1-2.343.781,17.355,17.355,0,0,1-2.967.313,10.935,10.935,0,0,1-7.809-2.967A8.5,8.5,0,0,1,573.28,454.484Z" transform="translate(-476.281 -436.213)" fill="#1573ba"/><path d="M687.4,454.486a9.774,9.774,0,0,1,2.967-7.652,9.542,9.542,0,0,1,7.34-2.967,8.355,8.355,0,0,1,6.4,2.655,9.779,9.779,0,0,1,2.343,6.715l-.156,1.718h-14.68a6.79,6.79,0,0,0,2.186,5,7.635,7.635,0,0,0,4.841,1.718,6.342,6.342,0,0,0,2.967-.625,13.754,13.754,0,0,0,2.186-1.094l.781-.625,1.561,2.811a5.922,5.922,0,0,1-.937.781,14.466,14.466,0,0,1-2.655,1.249,13.4,13.4,0,0,1-4.217.781,10.6,10.6,0,0,1-7.652-2.967A9.369,9.369,0,0,1,687.4,454.486Zm4.217-2.343h10.776a5.887,5.887,0,0,0-1.405-3.9,5.263,5.263,0,0,0-3.436-1.406,5.714,5.714,0,0,0-3.9,1.406A5.636,5.636,0,0,0,691.617,452.143Z" transform="translate(-571.035 -436.214)" fill="#1573ba"/><path d="M815.425,466.21v-20.3h3.748V449.5l-.157,1.562h.157a9.037,9.037,0,0,1,2.343-3.9,6,6,0,0,1,3.9-1.406l1.093.156v3.9a2.654,2.654,0,0,0-1.093-.156,5.809,5.809,0,0,0-3.436,1.249,7.921,7.921,0,0,0-2.343,3.436,13.287,13.287,0,0,0-.468,3.591v8.278h-3.748Z" transform="translate(-677.353 -437.787)" fill="#1573ba"/><path d="M898.152,432.887v-9.527H895.5v-3.123h2.811v-5.778h3.748v5.778H906.9v3.123h-4.841v8.9a7.911,7.911,0,0,0,.313,2.03,3.01,3.01,0,0,0,.781,1.405,2.8,2.8,0,0,0,1.093.781,3.978,3.978,0,0,0,1.093.313,2.315,2.315,0,0,0,1.093.156l.937-.156v3.436a3.867,3.867,0,0,1-1.405.155,7.593,7.593,0,0,1-1.874-.155,14.494,14.494,0,0,1-2.03-.625,8.814,8.814,0,0,1-2.03-1.249,5.874,5.874,0,0,1-1.405-2.187A7.275,7.275,0,0,1,898.152,432.887Z" transform="translate(-743.838 -411.804)" fill="#1573ba"/><path d="M971.188,399.734a3.873,3.873,0,0,0-3.9,3.842q0,.031,0,.063a3.9,3.9,0,1,0,3.967-3.9h-.063m0,7.027a3.3,3.3,0,0,1-3.279-3.279,3.2,3.2,0,0,1,3.121-3.28c.052,0,.106,0,.158,0a3.3,3.3,0,0,1,3.279,3.28,3.4,3.4,0,0,1-3.28,3.279" transform="translate(-803.444 -399.578)" fill="#1573ba"/><path d="M37.66,422.347c-.625-6.716-5.154-11.088-8.59-15.929,1.406-2.186,4.841-1.406,7.184-.937a21.425,21.425,0,0,0-10.776-3.9c-7.5,0-13.431,4.217-18.9,9.058-3.436-1.25-1.093-4.685-1.093-7.184A20.893,20.893,0,0,0,1.74,416.257a23.427,23.427,0,0,0,4.06,11.4c1.718,1.874,3.28,3.748,4.841,5.466-1.561,2.656-4.841,1.406-7.184.938a21.037,21.037,0,0,0,12.65,3.748,22.145,22.145,0,0,0,11.4-4.217c1.874-1.718,3.592-3.28,5.466-4.841a7.276,7.276,0,0,1,.937,7.34A19.241,19.241,0,0,0,37.66,422.347Zm-5.31.156c-1.405,1.718-3.123,3.9-3.123,3.9a18.746,18.746,0,0,1-3.9,3.436,15.1,15.1,0,0,1-7.965,2.967h-.625l-.156-.157L13.3,429.375a46.553,46.553,0,0,1-3.28-3.749,15.1,15.1,0,0,1-2.967-7.964v-1.093l3.28-2.967c3.9-3.279,7.965-6.4,12.962-6.4h.156l2.5,3.28c2.5,3.28,5.622,6.4,6.091,11.088.312,0,.312.937.312.937Z" transform="translate(-1.723 -401.108)" fill="#1573ba"/><path d="M982.012,414.231v-4.373h1.405c.469,0,.625,0,.781.156s.469.156.469.469a1.173,1.173,0,0,1,.156.781c0,.312-.156.468-.156.781a2.145,2.145,0,0,1-.625.468h0l.156.156.937,1.718h-.781l-.937-1.718h-.781v1.718Zm.624-2.186h.781a1.568,1.568,0,0,0,.469-.156c.156-.156.156-.312.156-.625s-.156-.469-.312-.781-.312-.156-.625-.156h-.625v1.718Z" transform="translate(-815.673 -407.984)" fill="#1573ba"/></g></g></svg>