<svg xmlns="http://www.w3.org/2000/svg" xmlns:xlink="http://www.w3.org/1999/xlink" width="180.711" height="41.768" viewBox="0 0 180.711 41.768"><defs><clipPath id="a"><path d="M0,0H104.741V41.768H0ZM0,0"/></clipPath><clipPath id="b"><path d="M325,2h73.326V35.041H325Zm0,0" transform="translate(-325 -2)"/></clipPath></defs><g clip-path="url(#a)"><path d="M74.774,33.119H80.8V9.3h-6.03ZM77.757.151a3.4,3.4,0,1,0,3.4,3.4,3.4,3.4,0,0,0-3.4-3.4M98.483,25.679s-1.692,2.3-4.033,2.3-4.457-2.29-4.457-6.452.982-7.105,4.079-7.105a5.16,5.16,0,0,1,4.412,2.265Zm0-22.62v7.628a8.344,8.344,0,0,0-5.394-1.963c-3.322,0-9.138,2.114-9.138,12.2s4.8,12.624,9.1,12.624a7.944,7.944,0,0,0,5.061-1.822l.37.151v1.246h5.938V0ZM61.556,27.946a5.148,5.148,0,0,1-4.325-2.266V16.654a4.418,4.418,0,0,1,3.833-2.19c3.835,0,4.419,3.965,4.419,7.068s-.945,6.415-3.928,6.415m.792-19.222a9.371,9.371,0,0,0-5.118,1.926V9.3H51.165V41.768L57.231,38.6V31.722s1.455,1.822,5.269,1.822,8.988-2.2,8.988-12.738S65.068,8.724,62.349,8.724M41.281,26.1a6.059,6.059,0,0,1-4.57,2.328c-1.921,0-3.872-.99-3.872-3.335s1.5-3.1,4.5-3.1,3.942,1.164,3.942,1.164Zm-3.5-17.327c-4.428,0-6.348,1.052-6.348,1.052v5.3s1.35-1.447,6.348-1.447c3.5,0,3.5,2.632,3.5,3.2v1.227a11.888,11.888,0,0,0-4.508-.789c-2.762,0-9.752.613-9.752,7.979s6.815,8.242,8.92,8.242,5.341-1.972,5.341-1.928v1.5h5.906V15.745s-.111-6.971-9.406-6.971M15.508,15.745H6.042V7.282s7.011.045,9.554.045S19.279,9.3,19.279,11.8a3.865,3.865,0,0,1-3.771,3.947m4.342,4.822c.218-.132,5.83-1.71,5.83-9.032,0-2.769-.878-5.682-2.624-7.254a13.533,13.533,0,0,0-7.2-2.885H0V33.119H6.042V21.882c0-.059-.037-.166.27-.166h6.242c.177,0,.412.254.412.254l5.568,11.149h7.1S19.76,21.357,19.673,21.094s-.044-.395.177-.527" fill="#774b2b" fill-rule="evenodd"/></g><g transform="translate(107.385 0.661)" clip-path="url(#b)"><path d="M395.165,28.714H387.81V3.078H381.6V34.8h17.223Zm-28.9-13.135c-7.175-1.847-6.8-3.324-6.8-4.079s.453-3.134,4.8-3.134a10.55,10.55,0,0,1,7.365,3.21l4.418-4.23A16.694,16.694,0,0,0,364.3,2.512c-7.251,0-10.989,4.533-10.989,9.555,0,2.468.154,6.914,9.878,9.03,7.8,1.246,7.344,4.306,7.344,4.679,0,.831-.454,3.512-5.666,3.512a12.52,12.52,0,0,1-8.535-3.587l-4.342,3.928a16.035,16.035,0,0,0,12.5,5.6c6.344,0,12.273-2.73,12.273-9.452s-3.323-8.348-10.5-10.2m-26.247,0c-7.175-1.847-6.8-3.324-6.8-4.079s.453-3.134,4.8-3.134a10.545,10.545,0,0,1,7.363,3.21l4.419-4.23a16.693,16.693,0,0,0-11.744-4.835c-7.252,0-10.991,4.533-10.991,9.555,0,2.468.155,6.914,9.879,9.03,7.8,1.246,7.343,4.306,7.343,4.679,0,.831-.453,3.512-5.665,3.512a12.516,12.516,0,0,1-8.535-3.587l-4.343,3.928a16.038,16.038,0,0,0,12.5,5.6c6.345,0,12.273-2.73,12.273-9.452s-3.322-8.348-10.5-10.2" transform="translate(-325.494 -2.343)" fill="#eb501f" fill-rule="evenodd"/></g></svg>