<svg xmlns="http://www.w3.org/2000/svg" xmlns:xlink="http://www.w3.org/1999/xlink" width="79.366" height="80.5" viewBox="0 0 79.366 80.5">
  <defs>
    <linearGradient id="linear-gradient" x1="0.267" x2="0.759" y2="0.953" gradientUnits="objectBoundingBox">
      <stop offset="0" stop-color="#771efc"/>
      <stop offset="1" stop-color="#b586ff"/>
    </linearGradient>
  </defs>
  <g id="Group_2361" data-name="Group 2361" transform="translate(-1438 -1280)">
    <path id="Polygon_1" data-name="Polygon 1" d="M56.25,0,75,32.5,56.25,65H18.75L0,32.5,18.75,0Z" transform="translate(1503 1280) rotate(90)" fill="url(#linear-gradient)"/>
    <path id="Path_2465" data-name="Path 2465" d="M385.888,204.417a10.452,10.452,0,0,1-.973,1.653,2.737,2.737,0,0,1-2.157.914c-4.384,0-8.769.02-13.153-.009a3.134,3.134,0,0,1-3.151-3.3c-.027-1.1-.006-2.192-.006-3.288q0-13.253,0-26.505A3.232,3.232,0,0,1,368.8,170.4a5.262,5.262,0,0,1,1.327-.127c3.848-.009,7.7.06,11.542-.032,2.009-.048,3.492.514,4.221,2.5Z" transform="translate(1130.978 1152.987)" fill="#e2d0fc" stroke="rgba(255,255,255,0.27)" stroke-width="1"/>
    <path id="Path_2466" data-name="Path 2466" d="M193.54,247.236q0-5.265,0-10.531a3.217,3.217,0,0,1,3.571-3.566q6.138-.015,12.276,0a3.241,3.241,0,0,1,3.58,3.573c.008,7.043-.017,14.086.014,21.128a3.38,3.38,0,0,1-3.636,3.606c-4.068-.077-8.139-.021-12.209-.024-2.363,0-3.6-1.232-3.6-3.59q0-5.3,0-10.6" transform="translate(1280.625 1098.552)" fill="#e2d0fc" stroke="rgba(255,255,255,0.27)" stroke-width="1"/>
    <path id="Path_2467" data-name="Path 2467" d="M4.772,25.905A94.6,94.6,0,0,0,39.8,17.141,95.8,95.8,0,0,0,53.635,9.515c.881-.59.9-.773.137-1.513-.8-.781-1.61-1.553-2.4-2.343-1.035-1.033-.83-1.834.583-2.183q6.96-1.718,13.929-3.4c1.268-.306,1.926.317,1.643,1.605Q65.96,8.815,64.331,15.934c-.288,1.261-1.1,1.474-2.034.572-1.012-.98-1.994-1.991-3-2.984-.621-.616-.848-.648-1.567-.152a103.928,103.928,0,0,1-17.671,9.672,101.976,101.976,0,0,1-24.8,7.331,78.048,78.048,0,0,1-10.81,1,16.7,16.7,0,0,1-2.076-.07,2.71,2.71,0,0,1,.18-5.4c.736-.038,1.475-.007,2.213-.007" transform="translate(1448.134 1300.33)" fill="#e2d0fc" stroke="rgba(255,255,255,0.27)" stroke-width="1"/>
    <path id="Path_2468" data-name="Path 2468" d="M39.668,300.046c0,2.259,0,4.518,0,6.776a3.176,3.176,0,0,1-3.472,3.512q-6.24.011-12.48,0a3.161,3.161,0,0,1-3.464-3.4q-.039-6.944,0-13.888a3.193,3.193,0,0,1,3.481-3.4q6.24-.011,12.481,0a3.2,3.2,0,0,1,3.454,3.484c.007,2.3,0,4.607,0,6.91" transform="translate(1430.625 1049.64)" fill="#e2d0fc" stroke="rgba(255,255,255,0.27)" stroke-width="1"/>
  </g>
</svg>
