<svg xmlns="http://www.w3.org/2000/svg" xmlns:xlink="http://www.w3.org/1999/xlink" width="99.405" height="84" viewBox="0 0 99.405 84">
  <defs>
    <linearGradient id="linear-gradient" x1="1" y1="0.167" x2="0" y2="0.85" gradientUnits="objectBoundingBox">
      <stop offset="0" stop-color="#6913e8"/>
      <stop offset="1" stop-color="#b586ff"/>
    </linearGradient>
  </defs>
  <g id="Group_2957" data-name="Group 2957" transform="translate(-374 -3071)">
    <circle id="Ellipse_620" data-name="Ellipse 620" cx="39" cy="39" r="39" transform="translate(374 3071)" fill="url(#linear-gradient)"/>
    <g id="price-tag" transform="translate(404 3085.599)">
      <g id="Path_2641" data-name="Path 2641" transform="translate(-212.325 -0.004)" fill="#e2d0fc">
        <path d="M281.534,46.206,260.274,1.166A2.033,2.033,0,0,0,258.434,0H245.62l14.843,7.422a6.069,6.069,0,0,1,3.373,5.456V56.809l16.728-7.9a2.033,2.033,0,0,0,.971-2.707Z" stroke="none"/>
        <path d="M 264.8360595703125 55.23104095458984 L 280.1367797851562 48.0084342956543 C 280.3863830566406 47.89059448242188 280.5751647949219 47.68259429931641 280.6683349609375 47.42274475097656 C 280.7615051269531 47.16290283203125 280.7478942871094 46.8823356628418 280.6299438476562 46.63255310058594 L 264.8360595703125 13.17376708984375 L 264.8360595703125 55.23104095458984 M 262.0207214355469 7.209595680236816 L 259.3692016601562 1.592434525489807 C 259.1994323730469 1.232544541358948 258.8326110839844 1.000004529953003 258.4341430664062 1.000004529953003 L 249.8560485839844 1.000004529953003 L 260.9076232910156 6.52580451965332 C 261.30419921875 6.722452163696289 261.6759948730469 6.951688766479492 262.0207214355469 7.209595680236816 M 263.8360595703125 56.80889511108398 L 263.8360595703125 12.87783432006836 C 263.8433227539062 10.56505489349365 262.5354614257812 8.44919490814209 260.46337890625 7.421704769134521 L 245.6199798583984 4.558715772873256e-06 L 258.4341430664062 4.558715772873256e-06 C 258.434326171875 4.507446192292264e-06 258.4345092773438 4.51965343017946e-06 258.4346923828125 4.51965343017946e-06 C 259.2215881347656 4.51965343017946e-06 259.9378967285156 0.45407834649086 260.2736206054688 1.165784597396851 L 281.5342407226562 46.20568466186523 C 282.0138549804688 47.22123336791992 281.5792846679688 48.43328475952148 280.5636596679688 48.91273498535156 L 263.8360595703125 56.80889511108398 Z" stroke="none" fill="rgba(255,255,255,0.27)"/>
      </g>
      <ellipse id="Ellipse_650" data-name="Ellipse 650" cx="3" cy="2.5" rx="3" ry="2.5" transform="translate(21 13.401)" fill="#e2d0fc" stroke="rgba(255,255,255,0.27)" stroke-width="1"/>
      <g id="Path_2642" data-name="Path 2642" fill="#e2d0fc">
        <path d="M46.321,11.055,24.632.21a2.033,2.033,0,0,0-1.819,0L1.124,11.055A2.033,2.033,0,0,0,0,12.874V67.368A2.033,2.033,0,0,0,2.033,69.4H45.411a2.033,2.033,0,0,0,2.033-2.033V12.874A2.033,2.033,0,0,0,46.321,11.055Zm-20.849,44.9V58.25a1.017,1.017,0,0,1-1.017,1.017H22.571a1.017,1.017,0,0,1-1.017-1.017V56.179A9.307,9.307,0,0,1,17.4,54.74a1.018,1.018,0,0,1-.366-1.171l.72-2a1.017,1.017,0,0,1,1.521-.5,7.011,7.011,0,0,0,3.741,1.122c1.521,0,2.543-.77,2.543-1.915,0-.9-.468-1.693-2.746-2.616-2.749-1.084-5.57-2.651-5.57-6.118A5.755,5.755,0,0,1,21.764,35.9v-2.21a1.017,1.017,0,0,1,1.017-1.017h1.854a1.017,1.017,0,0,1,1.017,1.017v1.955a8.6,8.6,0,0,1,3.389,1.112A1.014,1.014,0,0,1,29.477,38L28.73,39.97a1.017,1.017,0,0,1-1.456.522,6.236,6.236,0,0,0-3.264-.882c-2,0-2.154,1.19-2.154,1.555,0,.827.445,1.38,3.081,2.471,2.448,1,5.264,2.631,5.264,6.413A6.11,6.11,0,0,1,25.472,55.955Zm-1.75-32.914A6.778,6.778,0,1,1,30.5,16.263a6.778,6.778,0,0,1-6.778,6.778Z" stroke="none"/>
        <path d="M 23.72233581542969 0.9955062866210938 C 23.56270599365234 0.9955062866210938 23.40286636352539 1.033256530761719 23.25996589660645 1.104728698730469 L 1.571094512939453 11.94915771484375 C 1.218704223632812 12.12541580200195 0.9998741149902344 12.47965621948242 0.9999961853027344 12.87395858764648 L 0.9999961853027344 67.3675537109375 C 0.9999961853027344 67.93734741210938 1.463554382324219 68.40089416503906 2.033344268798828 68.40089416503906 L 45.41132736206055 68.40089416503906 C 45.98111724853516 68.40089416503906 46.44466400146484 67.93734741210938 46.44466400146484 67.3675537109375 L 46.44466400146484 12.8736572265625 C 46.44478607177734 12.47965621948242 46.22595596313477 12.12541580200195 45.87369537353516 11.94922637939453 L 24.18458557128906 1.104667663574219 C 24.04180526733398 1.033256530761719 23.88196563720703 0.9955062866210938 23.72233581542969 0.9955062866210938 M 23.72353553771973 24.04067611694336 L 23.72233581542969 24.04067611694336 C 19.43363571166992 24.04067611694336 15.94452667236328 20.55156707763672 15.94452667236328 16.26286697387695 C 15.94452667236328 11.97416687011719 19.43363571166992 8.485057830810547 23.72233581542969 8.485057830810547 C 28.01103591918945 8.485057830810547 31.50014495849609 11.97416687011719 31.50014495849609 16.26406860351562 C 31.49501609802246 20.54697799682617 28.00644493103027 24.03554534912109 23.72353553771973 24.04067611694336 M 26.65129661560059 34.79204177856445 C 27.66718101501465 34.9991569519043 28.63670539855957 35.3685302734375 29.54435539245605 35.89534759521484 C 30.39840507507324 36.39390563964844 30.76301574707031 37.42660522460938 30.41204643249512 38.34895706176758 L 29.66486549377441 40.32472610473633 C 29.45535659790039 40.87745666503906 29.01606559753418 41.30884552001953 28.45967674255371 41.50829696655273 C 28.24072647094727 41.58679962158203 28.01177597045898 41.62659454345703 27.77916526794434 41.62659454345703 C 27.42812538146973 41.62659454345703 27.08157539367676 41.53440856933594 26.77697563171387 41.35997772216797 L 26.76095581054688 41.35060882568359 C 25.93361473083496 40.85623168945312 24.98501205444336 40.59919738769531 24.02019500732422 40.60966491699219 L 24.00968551635742 40.60971832275391 C 23.48325538635254 40.60971832275391 22.85572624206543 40.70597839355469 22.85572624206543 41.16453552246094 C 22.85572624206543 41.30837631225586 22.85572624206543 41.36790466308594 23.05866622924805 41.54198455810547 C 23.41342353820801 41.84627532958984 24.15239334106445 42.22869873046875 25.31782150268555 42.71112060546875 C 27.84427833557129 43.74121856689453 31.20056533813477 45.62279891967773 31.20056533813477 50.04985809326172 C 31.19768142700195 53.05281829833984 29.36651802062988 55.58352279663086 26.47236633300781 56.67879486083984 L 26.47236633300781 58.25003814697266 C 26.47236633300781 59.36203765869141 25.56769561767578 60.26671600341797 24.45568656921387 60.26671600341797 L 22.57148551940918 60.26670837402344 C 22.03280639648438 60.26671600341797 21.52637672424316 60.05694580078125 21.14546585083008 59.67604827880859 C 20.76456642150879 59.29514694213867 20.55479621887207 58.78871917724609 20.55479621887207 58.25004577636719 L 20.55479621887207 57.03726959228516 C 19.10909271240234 56.76263046264648 17.78196716308594 56.23914337158203 16.82214546203613 55.55374908447266 C 16.09237670898438 55.03155517578125 15.79403495788574 54.07684707641602 16.09695625305176 53.23116683959961 L 16.81650543212891 51.22834777832031 C 17.02733612060547 50.64016723632812 17.48850631713867 50.1902961730957 18.08180618286133 49.99408721923828 C 18.28640556335449 49.92643737792969 18.4993953704834 49.89213562011719 18.71483612060547 49.89213562011719 C 19.11136436462402 49.89213562011719 19.49543190002441 50.00752258300781 19.8261604309082 50.22593688964844 C 20.78177261352539 50.84232711791992 21.88769149780273 51.17398834228516 23.02481460571289 51.18525314331055 C 23.73558044433594 51.18420028686523 24.56318664550781 50.94403076171875 24.56318664550781 50.26984786987305 C 24.56318664550781 49.98007965087891 24.56302261352539 49.44082641601562 22.44622993469238 48.58242797851562 C 20.58794593811035 47.84936904907227 16.24681663513184 46.13380813598633 16.24681663513184 41.53596496582031 C 16.24681663513184 38.60697555541992 17.95754432678223 36.22924423217773 20.76354598999023 35.1762580871582 L 20.76354598999023 33.69267654418945 C 20.76354598999023 32.5806770324707 21.66822624206543 31.67600631713867 22.78022575378418 31.67600631713867 L 24.6346263885498 31.67600631713867 C 25.74662590026855 31.67600631713867 26.65129661560059 32.5806770324707 26.65129661560059 33.69267654418945 L 26.65129661560059 34.79204177856445 M 23.72233581542969 -0.004486083984375 C 24.03398323059082 -0.004486083984375 24.34563064575195 0.067108154296875 24.63191604614258 0.210296630859375 L 46.32090759277344 11.0547981262207 C 47.00982666015625 11.39936828613281 47.44489669799805 12.10366821289062 47.44466400146484 12.87395858764648 L 47.44466400146484 67.3675537109375 C 47.44466400146484 68.49053955078125 46.53430557250977 69.40089416503906 45.41132736206055 69.40089416503906 L 2.033344268798828 69.40089416503906 C 0.9103546142578125 69.40089416503906 -3.814697265625e-06 68.49053955078125 -3.814697265625e-06 67.3675537109375 L -3.814697265625e-06 12.87395858764648 C -0.000232696533203125 12.10366821289062 0.4348373413085938 11.39937591552734 1.123756408691406 11.0547981262207 L 22.8127555847168 0.210296630859375 C 23.09904098510742 0.067108154296875 23.41068840026855 -0.004486083984375 23.72233581542969 -0.004486083984375 Z M 23.72233581542969 23.04067611694336 C 27.4637565612793 23.03619766235352 30.49566650390625 20.00428771972656 30.50014495849609 16.26286697387695 C 30.50014495849609 12.51957702636719 27.46561622619629 9.485057830810547 23.72233581542969 9.485057830810547 C 19.97905540466309 9.485057830810547 16.94452667236328 12.51957702636719 16.94452667236328 16.26286697387695 C 16.94452667236328 20.00613784790039 19.97905540466309 23.04067611694336 23.72233581542969 23.04067611694336 Z M 27.7791690826416 40.62660217285156 C 27.89481353759766 40.62660217285156 28.0108757019043 40.60687255859375 28.12219619750977 40.56696701049805 C 28.40227508544922 40.46656799316406 28.62432670593262 40.24850463867188 28.72978591918945 39.97028732299805 L 29.4766960144043 37.9952392578125 C 29.65301513671875 37.53185653686523 29.46838569641113 37.00891876220703 29.04020500183105 36.75895690917969 C 28.00069618225098 36.15561676025391 26.84621620178223 35.77694702148438 25.65129661560059 35.64739608764648 L 25.65129661560059 33.69267654418945 C 25.65129661560059 33.13118743896484 25.19612503051758 32.67600631713867 24.6346263885498 32.67600631713867 L 22.78022575378418 32.67600631713867 C 22.21873664855957 32.67600631713867 21.76354598999023 33.13118743896484 21.76354598999023 33.69267654418945 L 21.76354598999023 35.90224838256836 C 18.99142646789551 36.66678619384766 17.24681663513184 38.80314636230469 17.24681663513184 41.53596496582031 C 17.24681663513184 45.00213623046875 20.06773567199707 46.56916809082031 22.81681632995605 47.65361785888672 C 25.09551620483398 48.57674407958984 25.56318664550781 49.36703491210938 25.56318664550781 50.26984786987305 C 25.56318664550781 51.41529846191406 24.54109573364258 52.18525695800781 23.02015495300293 52.18525695800781 C 21.69189643859863 52.1731071472168 20.3944149017334 51.78386688232422 19.27880668640137 51.06285858154297 C 19.01848602294922 50.88933563232422 18.69275856018066 50.84532928466797 18.39573669433594 50.94353485107422 C 18.09870529174805 51.04176712036133 17.86342620849609 51.27126693725586 17.75786590576172 51.56576538085938 L 17.03806495666504 53.56927490234375 C 16.88463592529297 53.99761581420898 17.03405570983887 54.47573852539062 17.40406608581543 54.74049758911133 C 18.42344665527344 55.46842575073242 19.97827529907227 55.99709701538086 21.55479621887207 56.17873764038086 L 21.55479621887207 58.25004577636719 C 21.55479621887207 58.81153869628906 22.00997543334961 59.26671600341797 22.57146644592285 59.26670837402344 L 24.45569610595703 59.26671600341797 C 25.01718521118164 59.26671600341797 25.47236633300781 58.81152725219727 25.47236633300781 58.25003814697266 L 25.47236633300781 55.955078125 C 28.33124542236328 55.15800476074219 30.19785499572754 52.87387847900391 30.20056533813477 50.04889678955078 C 30.20056533813477 46.26687622070312 27.38506507873535 44.63342666625977 24.93691635131836 43.63573455810547 C 22.30035591125488 42.54450607299805 21.85572624206543 41.99143600463867 21.85572624206543 41.16453552246094 C 21.85572624206543 40.79989624023438 22.0102653503418 39.60970687866211 24.00971603393555 39.60971832275391 C 25.15826416015625 39.59762191772461 26.28789710998535 39.90299606323242 27.27390670776367 40.4921875 C 27.42948150634766 40.58127212524414 27.60385322570801 40.62660217285156 27.7791690826416 40.62660217285156 Z" stroke="none" fill="rgba(255,255,255,0.27)"/>
      </g>
    </g>
  </g>
</svg>
