<svg xmlns="http://www.w3.org/2000/svg" xmlns:xlink="http://www.w3.org/1999/xlink" width="96" height="96.262" viewBox="0 0 96 96.262">
  <defs>
    <linearGradient id="linear-gradient" x1="1" y1="0.167" x2="0" y2="0.85" gradientUnits="objectBoundingBox">
      <stop offset="0" stop-color="#6913e8"/>
      <stop offset="1" stop-color="#b586ff"/>
    </linearGradient>
    <clipPath id="clip-path">
      <rect id="Rectangle_698" data-name="Rectangle 698" width="80" height="79.98" fill="#e2d0fc"/>
    </clipPath>
  </defs>
  <g id="Group_2359" data-name="Group 2359" transform="translate(-392 -1286)">
    <circle id="Ellipse_620" data-name="Ellipse 620" cx="39" cy="39" r="39" transform="translate(392 1286)" fill="url(#linear-gradient)"/>
    <g id="Group_1976" data-name="Group 1976" transform="translate(408 1302.282)">
      <g id="Group_1977" data-name="Group 1977" clip-path="url(#clip-path)">
        <g id="Path_2458" data-name="Path 2458" transform="translate(-107.957 -108.199)" fill="#e2d0fc">
          <path d="M176.858,188.179a21.887,21.887,0,0,1-2.051-1.614q-7.261-7.205-14.475-14.458a7.323,7.323,0,0,1-.54-.706c-.246.383-.4.609-.542.847-1.992,3.443-3.97,6.895-5.975,10.33-1.051,1.8-3.152,2.116-4.427.678a3.678,3.678,0,0,1-.62-1.07q-9.99-25.007-19.96-50.022c-.716-1.8-.031-3.461,1.68-3.832a3.994,3.994,0,0,1,2.175.267q15.477,6.118,30.926,12.309,9.34,3.725,18.683,7.445a2.894,2.894,0,0,1,2.16,2.407,2.732,2.732,0,0,1-1.6,2.788q-5.142,2.95-10.268,5.93c-.241.14-.472.3-.868.553a7.762,7.762,0,0,1,.76.581q7.408,7.39,14.805,14.79c1.652,1.651,1.647,3.024-.013,4.685-2.208,2.209-4.4,4.434-6.638,6.614a18.636,18.636,0,0,1-1.962,1.478Z" stroke="none"/>
          <path d="M 177.7843933105469 187.1788024902344 C 177.9154357910156 187.0859680175781 178.0460815429688 186.9958190917969 178.1741638183594 186.9074401855469 C 178.6164703369141 186.6022338867188 179.0342407226562 186.31396484375 179.3726043701172 185.9843139648438 C 181.0298309326172 184.3699035644531 182.6925964355469 182.7001647949219 184.3006286621094 181.0853729248047 C 184.8669891357422 180.5166320800781 185.433349609375 179.9478912353516 186.0007019042969 179.3802337646484 C 186.6425323486328 178.7379760742188 186.9551849365234 178.2007141113281 186.9565277099609 177.7377471923828 C 186.9578552246094 177.2770538330078 186.6495666503906 176.7442474365234 186.0140228271484 176.10888671875 C 180.7758636474609 170.8720550537109 176.0463562011719 166.1445922851562 171.2099456787109 161.31982421875 C 171.1363677978516 161.2464752197266 171.0189514160156 161.1634826660156 170.8703155517578 161.0584259033203 C 170.7757415771484 160.9915771484375 170.6685485839844 160.9157867431641 170.5523223876953 160.8278656005859 L 169.4074249267578 159.9617462158203 L 170.61669921875 159.1880340576172 C 170.7521362304688 159.1013793945312 170.8677215576172 159.0258941650391 170.9708862304688 158.9585571289062 C 171.1783294677734 158.8231353759766 171.3421630859375 158.7161865234375 171.5226593017578 158.6117248535156 C 172.1947326660156 158.2228546142578 172.8667144775391 157.8338165283203 173.5386962890625 157.4447784423828 C 176.241943359375 155.8797760009766 179.0372314453125 154.261474609375 181.7935028076172 152.6803131103516 C 182.8674621582031 152.0640563964844 182.9539337158203 151.4154815673828 182.8968658447266 150.8622436523438 C 182.834228515625 150.2545928955078 182.5493469238281 149.75341796875 181.3624877929688 149.282470703125 C 176.7309265136719 147.4442749023438 172.0259094238281 145.5666046142578 167.4757843017578 143.7507629394531 C 165.8765716552734 143.1125640869141 164.2773590087891 142.4743499755859 162.6779937744141 141.8365020751953 C 160.7410888671875 141.0639953613281 158.8043060302734 140.2911834716797 156.8675384521484 139.5183563232422 C 148.6399993896484 136.2353210449219 140.1323699951172 132.8405303955078 131.7549285888672 129.5287628173828 C 131.3453979492188 129.3668823242188 130.8960266113281 129.2740478515625 130.5220336914062 129.2740478515625 C 130.3880310058594 129.2740478515625 130.2661895751953 129.2857666015625 130.1597442626953 129.3088836669922 C 129.6923980712891 129.4103240966797 129.3578796386719 129.6451568603516 129.1654968261719 130.0068054199219 C 128.9181976318359 130.4716949462891 128.9296569824219 131.1229400634766 129.1969451904297 131.7935638427734 C 135.7260894775391 148.1755218505859 142.4415435791016 165.0050048828125 149.1567535400391 181.8143768310547 C 149.2928466796875 182.1549072265625 149.4406890869141 182.4165191650391 149.5960540771484 182.5918273925781 C 149.9252014160156 182.9631042480469 150.3315734863281 183.1593322753906 150.7712707519531 183.1593017578125 C 151.4015197753906 183.1592559814453 152.0146789550781 182.7533721923828 152.4114532470703 182.0736083984375 C 153.7391967773438 179.7988128662109 155.0776977539062 177.4777984619141 156.3721313476562 175.2332153320312 C 157.0424957275391 174.0707855224609 157.7128601074219 172.9083251953125 158.3848571777344 171.7467041015625 C 158.4886169433594 171.5673675537109 158.5995483398438 171.3986053466797 158.7279663085938 171.2032012939453 C 158.7939453125 171.1028442382812 158.8675994873047 170.9907836914062 158.9517517089844 170.8599395751953 L 159.7259826660156 169.6559906005859 L 160.590087890625 170.7971649169922 C 160.6754608154297 170.909912109375 160.7476348876953 171.0117645263672 160.8113098144531 171.1016387939453 C 160.9055786132812 171.2346801757812 160.9800415039062 171.3397521972656 161.0407257080078 171.4005432128906 L 162.6947326660156 173.0571441650391 C 166.8894195556641 177.2586059570312 171.2269134521484 181.6031036376953 175.5120544433594 185.8552856445312 C 175.8769836425781 186.2174224853516 176.3164367675781 186.5370635986328 176.7816772460938 186.8754730224609 C 176.9176025390625 186.9743347167969 177.0563049316406 187.0752258300781 177.1952362060547 187.1788024902344 L 177.7843933105469 187.1788024902344 M 178.1083374023438 188.1788024902344 L 176.8583374023438 188.1788024902344 C 176.1714477539062 187.6443481445312 175.4209899902344 187.1737365722656 174.8076629638672 186.5650939941406 C 169.9670104980469 181.7616882324219 165.1517028808594 176.9327697753906 160.3330993652344 172.1071319580078 C 160.1504669189453 171.9241790771484 160.0149230957031 171.6941223144531 159.7928466796875 171.4008331298828 C 159.5466766357422 171.7836303710938 159.3881378173828 172.0094757080078 159.2504119873047 172.2475128173828 C 157.2584228515625 175.69091796875 155.2803802490234 179.1421203613281 153.2751007080078 182.5776977539062 C 152.2245025634766 184.3776702880859 150.1229705810547 184.6936340332031 148.8477630615234 183.2552032470703 C 148.5793609619141 182.9523620605469 148.3799743652344 182.5653381347656 148.2281646728516 182.1854858398438 C 141.5681457519531 165.5142517089844 134.91455078125 148.8403472900391 128.2680053710938 132.1637878417969 C 127.5521545410156 130.3677520751953 128.2374877929688 128.7028656005859 129.9476013183594 128.3316345214844 C 130.6257019042969 128.1843872070312 131.4581756591797 128.336181640625 132.1225280761719 128.5987854003906 C 142.4406585693359 132.677734375 152.74267578125 136.7973937988281 163.0484466552734 140.9076538085938 C 169.2754058837891 143.3910522460938 175.5001831054688 145.8799285888672 181.7313842773438 148.3529968261719 C 182.8665161132812 148.8034210205078 183.7568664550781 149.4525909423828 183.8916015625 150.7597045898438 C 184.0251159667969 152.0541534423828 183.3810882568359 152.9222717285156 182.2911987304688 153.5476684570312 C 178.8629760742188 155.5142974853516 175.4444732666016 157.4978179931641 172.0234680175781 159.4772796630859 C 171.781982421875 159.6170349121094 171.5519104003906 159.7768249511719 171.1556396484375 160.0303649902344 C 171.4616088867188 160.2618408203125 171.7145233154297 160.4108276367188 171.9159393310547 160.6116180419922 C 176.8544158935547 165.5381927490234 181.7878875732422 170.4697875976562 186.7210388183594 175.4016876220703 C 188.3727722167969 177.0529632568359 188.3682403564453 178.4258117675781 186.7080383300781 180.0870971679688 C 184.5000915527344 182.2962951660156 182.3074798583984 184.5213165283203 180.0704040527344 186.7006225585938 C 179.488525390625 187.2674865722656 178.76611328125 187.6900482177734 178.1083374023438 188.1788024902344 Z" stroke="none" fill="rgba(255,255,255,0.27)"/>
        </g>
        <g id="Path_2459" data-name="Path 2459" transform="translate(0 -127.936)" fill="#e2d0fc">
          <path d="M0,153.711c.691-1.608,1.954-2.091,3.632-2.034,2.419.082,4.843,0,7.264.028a2.671,2.671,0,0,1,2.686,3.589A2.359,2.359,0,0,1,11.372,157q-4.489.074-8.98,0C1.1,156.981.457,156.042,0,154.961Z" stroke="none"/>
          <path d="M 3.377650260925293 152.6728668212891 C 2.146669387817383 152.6728668212891 1.443291664123535 153.0400695800781 1 153.9303436279297 L 1 154.7514495849609 C 1.465962409973145 155.7723693847656 1.902853965759277 155.9939727783203 2.408639907836914 156.00244140625 C 3.857699394226074 156.0267791748047 5.340000152587891 156.0391082763672 6.814339637756348 156.0391082763672 C 8.307369232177734 156.0391082763672 9.835119247436523 156.0264587402344 11.35505962371826 156.0015106201172 C 11.5776195526123 155.9978332519531 12.25492000579834 155.9866638183594 12.64548969268799 154.9434661865234 C 12.83928966522217 154.4257965087891 12.7861499786377 153.9073333740234 12.495849609375 153.4835968017578 C 12.16232013702393 152.9967346191406 11.57505035400391 152.7130279541016 10.88461971282959 152.7052307128906 C 10.53643989562988 152.7012939453125 10.16736030578613 152.6993713378906 9.75629997253418 152.6993713378906 C 9.171329498291016 152.6993713378906 8.574790000915527 152.7033233642578 7.997889995574951 152.7071380615234 C 7.417819976806641 152.7109680175781 6.817999839782715 152.7149353027344 6.226590156555176 152.7149353027344 C 5.204599380493164 152.7149353027344 4.369449615478516 152.7027893066406 3.598329544067383 152.6766967773438 C 3.523240089416504 152.6741638183594 3.448989868164062 152.6728668212891 3.377650260925293 152.6728668212891 M 3.377647399902344 151.6728668212891 C 3.461470603942871 151.6728668212891 3.546115875244141 151.6743621826172 3.632140159606934 151.6772766113281 C 5.671346664428711 151.7462768554688 7.714478015899658 151.6993713378906 9.75629997253418 151.6993713378906 C 10.13634204864502 151.6993713378906 10.51599216461182 151.7009887695312 10.89593982696533 151.7052917480469 C 12.94410991668701 151.7284545898438 14.25607967376709 153.4934997558594 13.5820198059082 155.2940673828125 C 13.20389938354492 156.3039855957031 12.46222972869873 156.9833679199219 11.37156009674072 157.0013732910156 C 8.378890991210938 157.0505218505859 5.38435173034668 157.0525665283203 2.391849517822266 157.0023040771484 C 1.103659629821777 156.980712890625 0.4565200805664062 156.0424652099609 0 154.9608764648438 L 0 153.7111968994141 C 0.6555347442626953 152.1858520507812 1.826516151428223 151.6728668212891 3.377647399902344 151.6728668212891 Z" stroke="none" fill="rgba(255,255,255,0.27)"/>
        </g>
        <path id="Path_2460" data-name="Path 2460" d="M57.174,54.478a2.662,2.662,0,0,1-4.245,2.167,7.367,7.367,0,0,1-.86-.791c-1.732-1.728-3.467-3.452-5.186-5.193a2.688,2.688,0,1,1,3.8-3.763c1.848,1.832,3.681,3.68,5.522,5.52a2.82,2.82,0,0,1,.969,2.06" transform="translate(-38.717 -38.72)" fill="#e2d0fc" stroke="rgba(255,255,255,0.27)" stroke-width="1"/>
        <path id="Path_2461" data-name="Path 2461" d="M157.188,6.953c0,1.275.012,2.55,0,3.825-.022,1.813-1.1,2.987-2.7,2.969a2.717,2.717,0,0,1-2.646-2.962c-.013-2.654-.02-5.308,0-7.962A2.7,2.7,0,0,1,154.091.039a2.616,2.616,0,0,1,2.88,1.638,4.314,4.314,0,0,1,.208,1.374c.027,1.3.009,2.6.009,3.9" transform="translate(-128.067 0)" fill="#e2d0fc" stroke="rgba(255,255,255,0.27)" stroke-width="1"/>
        <path id="Path_2462" data-name="Path 2462" d="M49.248,219.737a5.754,5.754,0,0,1-.839,1.509c-1.924,2.011-3.9,3.969-5.9,5.915a2.654,2.654,0,0,1-3.785,0,2.6,2.6,0,0,1,0-3.719q2.967-3.047,6.017-6.014a2.469,2.469,0,0,1,2.956-.479,2.788,2.788,0,0,1,1.547,2.793" transform="translate(-32.005 -182.749)" fill="#e2d0fc" stroke="rgba(255,255,255,0.27)" stroke-width="1"/>
        <path id="Path_2463" data-name="Path 2463" d="M228.018,40.957a5.322,5.322,0,0,1-.8,1.489c-1.94,2.032-3.937,4.011-5.949,5.972a2.643,2.643,0,0,1-3.727.007,2.59,2.59,0,0,1-.061-3.72q2.986-3.083,6.071-6.07a2.444,2.444,0,0,1,2.889-.475,2.769,2.769,0,0,1,1.582,2.8" transform="translate(-182.801 -31.959)" fill="#e2d0fc" stroke="rgba(255,255,255,0.27)" stroke-width="1"/>
      </g>
    </g>
  </g>
</svg>
