<svg xmlns="http://www.w3.org/2000/svg" xmlns:xlink="http://www.w3.org/1999/xlink" width="92.142" height="92.253" viewBox="0 0 92.142 92.253">
  <defs>
    <linearGradient id="linear-gradient" x1="0.865" y1="0.182" x2="0" y2="1" gradientUnits="objectBoundingBox">
      <stop offset="0" stop-color="#771efc"/>
      <stop offset="1" stop-color="#b586ff"/>
    </linearGradient>
  </defs>
  <g id="Group_2962" data-name="Group 2962" transform="translate(-1223.849 -3376.738)">
    <path id="Rectangle_808" data-name="Rectangle 808" d="M0,0H28A50,50,0,0,1,78,50V78a0,0,0,0,1,0,0H0a0,0,0,0,1,0,0V0A0,0,0,0,1,0,0Z" transform="translate(1223.849 3376.738)" fill="url(#linear-gradient)"/>
    <path id="globe_4_" data-name="globe (4)" d="M35.429,3.025V16.279H23.866A40.238,40.238,0,0,1,33.659,3.114c.583-.054,1.178-.065,1.769-.088Zm2.664,0c.593.023,1.19.034,1.774.088a40.193,40.193,0,0,1,9.814,13.165H38.093Zm-9.122.885A44.025,44.025,0,0,0,20.9,16.279H10.155A33.238,33.238,0,0,1,28.971,3.91Zm15.574,0A33.237,33.237,0,0,1,63.367,16.279H52.637A44,44,0,0,0,44.545,3.91ZM8.349,18.943H19.833a49.937,49.937,0,0,0-3.018,15.985H3.525A33.079,33.079,0,0,1,8.349,18.943Zm14.393,0H35.429V34.929H19.48A46.969,46.969,0,0,1,22.742,18.943Zm15.351,0H50.8a46.954,46.954,0,0,1,3.263,15.985H38.093Zm15.611,0H65.172A33.079,33.079,0,0,1,70,34.929H56.727A49.936,49.936,0,0,0,53.7,18.943ZM3.525,37.593h13.29a49.926,49.926,0,0,0,3.018,15.985H8.344A33.094,33.094,0,0,1,3.525,37.593Zm15.954,0H35.429V53.578H22.742A46.974,46.974,0,0,1,19.48,37.593Zm18.613,0H54a47.03,47.03,0,0,1-4.043,15.985H38.093Zm18.572,0H70a33.094,33.094,0,0,1-4.819,15.985H52.845A48.708,48.708,0,0,0,56.664,37.593Zm-46.51,18.65H20.9a44.028,44.028,0,0,0,8.071,12.369A33.228,33.228,0,0,1,10.155,56.243Zm13.711,0H35.429V69.5c-.59-.023-1.183-.035-1.764-.088A40.191,40.191,0,0,1,23.866,56.243Zm14.227,0H48.651A58.952,58.952,0,0,1,39.69,69.418c-.527.046-1.064.057-1.6.078Zm13.555,0H63.367A33.23,33.23,0,0,1,43.708,68.83,61.97,61.97,0,0,0,51.648,56.243Z" transform="translate(1245.475 3398.975)" fill="#e2d0fc" stroke="rgba(255,255,255,0.27)" stroke-width="1" fill-rule="evenodd"/>
  </g>
</svg>
