<svg xmlns="http://www.w3.org/2000/svg" xmlns:xlink="http://www.w3.org/1999/xlink" width="105.071" height="85.549" viewBox="0 0 105.071 85.549">
  <defs>
    <linearGradient id="linear-gradient" x1="0.267" x2="0.759" y2="0.953" gradientUnits="objectBoundingBox">
      <stop offset="0" stop-color="#771efc"/>
      <stop offset="1" stop-color="#b586ff"/>
    </linearGradient>
  </defs>
  <g id="Group_2961" data-name="Group 2961" transform="translate(-807.076 -3378.065)">
    <g id="Group_2123" data-name="Group 2123" transform="translate(-630.924 2094.738)">
      <path id="Polygon_1" data-name="Polygon 1" d="M42.519,0,85.037,30.892,68.8,80.875H16.241L0,30.892Z" transform="translate(1518.875 1283.328) rotate(90)" fill="url(#linear-gradient)"/>
    </g>
    <path id="Hide" d="M61.268,60.195a2.808,2.808,0,0,0-.337-.365l-.983-1.151-3.693-4.212L37.891,33.406a2.078,2.078,0,0,1-.337-.365l-3.9-4.465-3.693-4.212-1.9-2.218-.1-.126-.225-.253L16.227,8.555a2.808,2.808,0,1,0-4.212,3.679l9.379,10.755C13.405,27.734,7.564,34.08,3.549,38.433a13.244,13.244,0,0,1-1.4,1.4l-.126.126-.126.154a1.53,1.53,0,0,0-.183.239,2.555,2.555,0,0,0-.225.435,3.9,3.9,0,0,0-.168.534,2.808,2.808,0,0,0,0,1.123,3.9,3.9,0,0,0,.168.534,2.555,2.555,0,0,0,.225.435,1.53,1.53,0,0,0,.183.239l.126.154.126.126c.421.449.87.927,1.4,1.4,7.048,7.834,20.218,22.1,40.871,22.1a43.439,43.439,0,0,0,13.744-2.232L67,75.33a2.808,2.808,0,1,0,4.212-3.679ZM44.42,64.786A22.815,22.815,0,0,1,26.069,28.38l3.8,4.367A17.2,17.2,0,0,0,44.42,59.17,16.849,16.849,0,0,0,51.538,57.6l2.569,2.948,1.25,1.4A22.843,22.843,0,0,1,44.42,64.786ZM63.487,54.354h0l-.168.225A.842.842,0,0,0,63.487,54.354ZM56.565,37.871a2.808,2.808,0,0,0,.281-3.243A14.251,14.251,0,0,0,47.944,28a14.63,14.63,0,0,0-7.385,0l-2.008-2.3a16.764,16.764,0,0,1,5.869-.983,5.616,5.616,0,0,1,.688,0A17.213,17.213,0,0,1,61.647,41.943a16.162,16.162,0,0,1-.084,1.657,16.413,16.413,0,0,1-1.909,6.36L45.024,33.181a8.887,8.887,0,0,1,7.02,4.31,2.808,2.808,0,0,0,3.847.983A2.457,2.457,0,0,0,56.565,37.871Zm30.973,4.072a2.625,2.625,0,0,1,0,.562,3.9,3.9,0,0,1-.168.534,2.556,2.556,0,0,1-.225.435,1.53,1.53,0,0,1-.183.239l-.126.154-.126.126-1.278,1.4A97.96,97.96,0,0,1,73.287,56.98,52.1,52.1,0,0,1,68.6,60.195l-3.749-4.212-1.306-1.488a22.464,22.464,0,0,0,2.64-5.532A22.858,22.858,0,0,0,40.489,19.478a21.426,21.426,0,0,0-5.827,1.881l-2.583-2.977a35.522,35.522,0,0,1,6.192-1.4,41.981,41.981,0,0,1,6.15-.534c20.653,0,33.823,14.265,40.9,21.987a18.86,18.86,0,0,0,1.334,1.4,1.572,1.572,0,0,1,.253.281,1.53,1.53,0,0,1,.183.239v.07a2.949,2.949,0,0,1,.183.365,3.37,3.37,0,0,1,.168.534,2.541,2.541,0,0,1,.1.618Z" transform="translate(824.094 3386.609)" fill="#e2d0fc" stroke="rgba(255,255,255,0.27)" stroke-width="1"/>
  </g>
</svg>
