<svg xmlns="http://www.w3.org/2000/svg" width="36.052" height="43.929" viewBox="0 0 36.052 43.929"><path d="M56.771,43.929H46.355a.458.458,0,0,1-.455-.455v-10.9a2.29,2.29,0,0,1,2.291-2.291h8.5C56.719,44.22,56.616,43.525,56.771,43.929ZM70.241,20.36V43.474a.458.458,0,0,1-.455.455H58.066a.458.458,0,0,1-.455-.455V20.36A2.29,2.29,0,0,1,59.9,18.069h8.056A2.289,2.289,0,0,1,70.241,20.36Zm11.711,7.164v15.95a.458.458,0,0,1-.455.455H71.073c.154-.4.051.523.086-18.7H79.67A2.294,2.294,0,0,1,81.952,27.524ZM68.268,8.219a.421.421,0,0,0-.129.4l.472,2.754a1.369,1.369,0,0,1-1.991,1.45l-2.48-1.3a.473.473,0,0,0-.429,0l-2.48,1.3a1.367,1.367,0,0,1-1.45-.1,1.348,1.348,0,0,1-.541-1.347l.472-2.754a.466.466,0,0,0-.129-.4l-2-1.956a1.384,1.384,0,0,1-.352-1.407,1.366,1.366,0,0,1,1.107-.935l2.771-.395a.457.457,0,0,0,.343-.249L62.7.772A1.364,1.364,0,0,1,65.153.764l1.235,2.505a.467.467,0,0,0,.343.249l2.771.395a1.371,1.371,0,0,1,.755,2.342Z" transform="translate(-45.9)" fill="#787da7"/></svg>