<svg xmlns="http://www.w3.org/2000/svg" width="39.557" height="39.557" viewBox="0 0 39.557 39.557"><path d="M17.182,8.192a1.8,1.8,0,1,0,1.8,1.8A1.8,1.8,0,0,0,17.182,8.192Zm-7.192,0a1.8,1.8,0,1,0,1.8,1.8A1.8,1.8,0,0,0,9.99,8.192Zm14.384,0a1.8,1.8,0,1,0,1.8,1.8A1.8,1.8,0,0,0,24.374,8.192ZM35.163,1H6.394A5.394,5.394,0,0,0,1,6.394V35.163a5.394,5.394,0,0,0,5.394,5.394H35.163a5.394,5.394,0,0,0,5.394-5.394V6.394A5.394,5.394,0,0,0,35.163,1Zm1.8,34.163a1.8,1.8,0,0,1-1.8,1.8H6.394a1.8,1.8,0,0,1-1.8-1.8V18.98H36.961Zm0-19.778H4.6V6.394a1.8,1.8,0,0,1,1.8-1.8H35.163a1.8,1.8,0,0,1,1.8,1.8Z" transform="translate(-1 -1)" fill="#787da7"/></svg>