<svg xmlns="http://www.w3.org/2000/svg" width="32.505" height="35.881" viewBox="0 0 32.505 35.881"><g transform="translate(-3 -2.127)"><path d="M34.512,5.708a34.311,34.311,0,0,0-30.518,0A1.806,1.806,0,0,0,3,7.315v21.67a1.806,1.806,0,0,0,.993,1.607L18.44,37.815a1.806,1.806,0,0,0,1.625,0l14.447-7.223a1.806,1.806,0,0,0,.993-1.607V7.315a1.806,1.806,0,0,0-.993-1.607ZM31.893,27.865l-12.641,6.32L6.612,27.865V8.452a30.7,30.7,0,0,1,25.282,0Z" transform="translate(0 0)" fill="#787da7"/><path d="M9.737,13.728a1.806,1.806,0,0,0-1.986,3l5.417,3.612a1.661,1.661,0,0,0,.993.307,1.806,1.806,0,0,0,1.282-.524l9.029-9.029a1.813,1.813,0,0,0-2.564-2.564l-7.982,7.982Z" transform="translate(3.286 4.729)" fill="#787da7"/></g></svg>