<svg xmlns="http://www.w3.org/2000/svg" width="41" height="41" viewBox="0 0 41 41"><rect width="41" height="41" fill="none"/><path d="M30.3,34.908a1.925,1.925,0,1,1-1.925-1.925A1.925,1.925,0,0,1,30.3,34.908ZM19.388,32.983a1.925,1.925,0,1,0,1.925,1.925A1.925,1.925,0,0,0,19.388,32.983Zm24.393,7.7A1.283,1.283,0,0,1,42.5,41.966H38.007v1.283a14.081,14.081,0,0,1-.52,3.8L41.2,49.2a1.283,1.283,0,0,1-1.283,2.223l-3.363-1.942a14.112,14.112,0,0,1-25.331,0L7.862,51.418A1.283,1.283,0,0,1,6.579,49.2L10.3,47.05a14.081,14.081,0,0,1-.52-3.8V41.966H5.283a1.283,1.283,0,0,1,0-2.567H9.775V38.116a14.082,14.082,0,0,1,.52-3.8L6.579,32.169a1.283,1.283,0,0,1,1.283-2.223l3.363,1.942a14.112,14.112,0,0,1,25.331,0l3.363-1.942A1.283,1.283,0,1,1,41.2,32.169l-3.716,2.146a14.082,14.082,0,0,1,.52,3.8V39.4H42.5a1.283,1.283,0,0,1,1.283,1.283ZM25.174,43.249a1.283,1.283,0,1,0-2.567,0V53.515a1.283,1.283,0,1,0,2.567,0ZM35.44,38.116a11.549,11.549,0,1,0-23.1,0V39.4h23.1Z" transform="translate(-3.358 -20.15)" fill="#787da7"/></svg>