<svg xmlns="http://www.w3.org/2000/svg" width="29.172" height="36.465" viewBox="0 0 29.172 36.465"><path d="M18.586,22.056a2.717,2.717,0,0,0-1.823,4.759v2.534a1.823,1.823,0,0,0,3.646,0V26.814a2.717,2.717,0,0,0-1.823-4.759ZM27.7,14.763V11.116a9.116,9.116,0,1,0-18.232,0v3.646A5.47,5.47,0,0,0,4,20.232V33a5.47,5.47,0,0,0,5.47,5.47H27.7A5.47,5.47,0,0,0,33.172,33V20.232A5.47,5.47,0,0,0,27.7,14.763ZM13.116,11.116a5.47,5.47,0,0,1,10.939,0v3.646H13.116ZM29.525,33A1.823,1.823,0,0,1,27.7,34.818H9.47A1.823,1.823,0,0,1,7.646,33V20.232A1.823,1.823,0,0,1,9.47,18.409H27.7a1.823,1.823,0,0,1,1.823,1.823Z" transform="translate(-4 -2)" fill="#787da7"/></svg>