<svg xmlns="http://www.w3.org/2000/svg" width="47.981" height="44.518" viewBox="0 0 47.981 44.518"><g transform="translate(0 -2.3)"><path d="M33.577,38.49a1.132,1.132,0,0,0-.824.345l-3.1,3.1L28.5,40.776a1.162,1.162,0,0,0-.824-.345,1.132,1.132,0,0,0-.824.345,1.176,1.176,0,0,0-.345.824,1.132,1.132,0,0,0,.345.824L28.833,44.4a1.168,1.168,0,0,0,.824.337,1.132,1.132,0,0,0,.824-.345l3.92-3.92a1.163,1.163,0,0,0,0-1.649A1.182,1.182,0,0,0,33.577,38.49Z" transform="translate(-6.642 -9.067)" fill="#787da7"/><path d="M45.14,18.541a13.2,13.2,0,0,0,.3-2.825A13.412,13.412,0,0,0,22.911,5.875a13.208,13.208,0,0,0-4.422-.749A13.405,13.405,0,0,0,5.209,16.645,10.331,10.331,0,0,0,3.1,18.271a10.53,10.53,0,0,0,7.442,17.995h2.586c2.009,5.808,5.688,9.511,10.7,10.538a.873.873,0,0,0,.322,0c5.021-1.027,8.686-4.722,10.7-10.538h2.586a10.5,10.5,0,0,0,10.538-10.53A10.745,10.745,0,0,0,45.14,18.541ZM23.983,38.372A5.52,5.52,0,1,1,29.5,32.848,5.522,5.522,0,0,1,23.983,38.372ZM42.135,30.42a6.641,6.641,0,0,1-4.707,1.941H35.877a40.618,40.618,0,0,0,.712-6.993.822.822,0,0,0-.734-.824,17.253,17.253,0,0,1-11.242-5.434.792.792,0,0,0-.63-.307.81.81,0,0,0-.637.3A17.113,17.113,0,0,1,12.1,24.544a.8.8,0,0,0-.734.824,40.619,40.619,0,0,0,.712,6.993H10.53a6.642,6.642,0,0,1-6.64-6.633,6.576,6.576,0,0,1,1.949-4.692,6.716,6.716,0,0,1,1.986-1.372,1.933,1.933,0,0,0,1.147-1.671A9.5,9.5,0,0,1,22.537,9.945a1.884,1.884,0,0,0,.832.195,1.945,1.945,0,0,0,1.476-.675,9.508,9.508,0,0,1,16.676,6.251,9.263,9.263,0,0,1-.442,2.84,1.957,1.957,0,0,0,.6,2.091,6.652,6.652,0,0,1,2.361,5.081A6.527,6.527,0,0,1,42.135,30.42Z" fill="#787da7"/></g></svg>