<svg xmlns="http://www.w3.org/2000/svg" xmlns:xlink="http://www.w3.org/1999/xlink" width="85" height="85" viewBox="0 0 85 85">
  <defs>
    <clipPath id="clip-path">
      <path id="Path_3131" data-name="Path 3131" d="M0,0H32V32H0Z" fill="#df0067"/>
    </clipPath>
  </defs>
  <g id="Group_2957" data-name="Group 2957" transform="translate(-394 -3356)">
    <rect id="Rectangle_931" data-name="Rectangle 931" width="85" height="85" rx="12" transform="translate(394 3356)" fill="#fee8f0"/>
    <g id="prestashop" transform="translate(421 3383)" clip-path="url(#clip-path)">
      <path id="Path_3130" data-name="Path 3130" d="M15.411,1.38A15.411,15.411,0,0,0,0,16.79a15.254,15.254,0,0,0,.765,4.8v-.009A16.554,16.554,0,0,1,1.472,19.2l.015-.04c.113-.3.239-.589.369-.88l.112-.241c.107-.228.22-.453.337-.676.048-.091.093-.181.144-.271.027-.051.059-.1.085-.147.125-.221.253-.443.387-.657l.1-.152q.25-.39.524-.764l.047-.067c.192-.257.393-.507.6-.751l.133-.157c.207-.236.42-.467.641-.689l.132-.129q.352-.348.728-.671A7.859,7.859,0,0,1,17.507,8.353a8.023,8.023,0,0,1,2.948,3.209l.009.02.053.1h0a13.233,13.233,0,0,1,2.089,1.6c.053.049.108.095.16.145l.009.008v-.014l.056-.112c.5-3.179,1.907-5.469,3.56-5.469,1.245,0,2.349,1.3,3.035,3.3l.007.021a7.6,7.6,0,0,1,.565.7l.009.013.028.089-.027-.1a15.413,15.413,0,0,0-14.6-10.476ZM13.236,7.3A7.886,7.886,0,0,0,6.1,12.488l-.016.045A13.52,13.52,0,0,1,7.837,11.34a12.36,12.36,0,0,1,12.371.021,7.826,7.826,0,0,0-6-4.005,6.854,6.854,0,0,0-.971-.052Zm13.112.667a1.813,1.813,0,0,0-.52.089c-1.687.749-2.292,2.764-2.708,4.4l-.021.1a7.074,7.074,0,0,1,1.861-2.189,3.058,3.058,0,0,1,3.888.071c.411.435.188.011.041-.293-.456-1-1.367-2.2-2.541-2.179ZM28.893,10.641Zm-12.427.447-1.427,4.36v.007h-.008l-6,1.483H9.02l5.941,1.449a2.074,2.074,0,0,0,.48.373c.056.032.113.06.172.087l.013.007c.055.024.111.044.168.063l.028.011c.053.017.107.031.16.043l.044.011a2.236,2.236,0,0,0,.424.044,2.061,2.061,0,0,0,1.907-1.264,2.031,2.031,0,0,0,.164-.805v-.031a1.874,1.874,0,0,0-.013-.213,2.008,2.008,0,0,0-.035-.2V16.5a2.047,2.047,0,0,0-.592-1.037Zm4.2.835A22.667,22.667,0,0,1,20.531,16c-.227,2.691-1.587,5.064-2.629,7.488l-.04.107-.047.115c2.013-2.029,4.227-4.053,5.292-6.776a2.984,2.984,0,0,0-.153-2.635c-.227-1.169-1.425-1.7-2.289-2.375Zm8.229.763-.784,3.584a2.352,2.352,0,0,0-.063.267.555.555,0,0,1-.013.08,2.347,2.347,0,0,0-.021.3v.041c0,.837.4,1.515.884,1.516a.547.547,0,0,0,.243-.06l.036-.02a.716.716,0,0,0,.093-.063c.017-.013.032-.029.048-.044a1,1,0,0,0,.183-.224l.04-.072a1.586,1.586,0,0,0,.069-.144l.023-.053a2.149,2.149,0,0,0,.071-.221l.539-.6-.543-.608-.027-.084Zm-5.841,1.141a9.409,9.409,0,0,1,.121,7.24c-.653,1.824-2.116,3.284-2.5,5.207a20.721,20.721,0,0,0,2.947.248A18.679,18.679,0,0,0,32,24.7a68.846,68.846,0,0,0-8.948-10.875Zm-6.6,1.3a.777.777,0,1,1-.777.777.777.777,0,0,1,.777-.777Zm12.469.493c.184,0,.332.253.332.568s-.148.568-.332.568-.331-.253-.331-.568.148-.566.332-.566Zm-5.392.245q-.027.195-.067.387l-.008.031a1.554,1.554,0,0,1-.044.171,13.532,13.532,0,0,1-3.147,4.929c-.2.213-.4.427-.612.645q-.786.815-1.595,1.607c-.149.147-.345.348-.567.581-.137.383-.293.813-.424,1.267q-.088-.031-.175-.065A20.562,20.562,0,0,1,12.2,22.881a20.549,20.549,0,0,0,3.887,3.653,7.866,7.866,0,0,0,.7.452c-.1,1.592.6,3.12,3.773,3.576a6.413,6.413,0,0,0,1.637.011l-.013-.039a.083.083,0,0,0,0-.013,4.312,4.312,0,0,1-.5-.5,5.123,5.123,0,0,1-.779-1.2,4.509,4.509,0,0,1-.355-1.149,4.235,4.235,0,0,1-.008-1.3,4.5,4.5,0,0,1,.1-.488A5.823,5.823,0,0,1,21.3,24.3l.321-.539c1.471-2.48,2.4-4.367,2.008-7.255q-.043-.319-.1-.635ZM29.755,16.633Zm.017.271v0Zm-.016.367V17.3l0-.033Zm1.8,7.9a19.516,19.516,0,0,1-10.923,1.343,4.529,4.529,0,0,0,1.619,3.907l.016.013c3.6-.577,6.633-2.891,9.288-5.261Z" fill="#df0067"/>
    </g>
  </g>
</svg>
