<svg xmlns="http://www.w3.org/2000/svg" xmlns:xlink="http://www.w3.org/1999/xlink" width="323.353" height="306" viewBox="0 0 323.353 306"><defs><clipPath id="a"><circle cx="153" cy="153" r="153" transform="translate(1175 1999)" fill="#1e266d"/></clipPath><linearGradient id="b" x1="0.5" x2="0.5" y2="1" gradientUnits="objectBoundingBox"><stop offset="0" stop-color="#f3f7fe"/><stop offset="1" stop-color="#f3f7fe" stop-opacity="0"/><stop offset="1" stop-color="gray"/></linearGradient><clipPath id="c"><rect width="105.652" height="64.5" rx="0.26" fill="none"/></clipPath><clipPath id="d"><rect width="119.559" height="74.61" rx="0.3" fill="none"/></clipPath></defs><g transform="translate(-1175 -1999)"><g clip-path="url(#a)"><path d="M0,0H1920V968.8H0Z" transform="translate(145 1622)" fill="url(#b)"/></g><g transform="translate(1172.56 1995.92)"><path d="M25.791,17.76H130.713a7.532,7.532,0,0,1,7.532,7.532V96.756H18.32V25.292a7.532,7.532,0,0,1,7.471-7.532Z" transform="translate(4.08)" fill="#fff" stroke="#1d1d1b" stroke-miterlimit="10" stroke-width="1.5"/><rect width="135.72" height="97.491" rx="2.4" transform="translate(189.324 177.071)" fill="#fff" stroke="#1d1d1b" stroke-miterlimit="10" stroke-width="1.5"/><path d="M180.774,163.212a1.035,1.035,0,0,1-1.035,1.056H119.706a1.035,1.035,0,0,1-1.035-1.056v-1.441a1.035,1.035,0,0,1,1.035-1.035h7.9a9.136,9.136,0,0,0,9.136-9.136V144.25h25.966V151.6a9.136,9.136,0,0,0,9.136,9.136h7.9a1.035,1.035,0,0,1,1.035,1.035Z" transform="translate(107.461 130.312)" fill="#fff" stroke="#1d1d1b" stroke-miterlimit="10" stroke-width="1.5"/><g transform="translate(29.546 24.906)" clip-path="url(#c)"><path d="M308.465,277.319H22.652c-.812,0-1.462-.954-1.462-2.03V20.03c0-1.178.65-2.03,1.462-2.03H308.465c.812,0,1.462.954,1.462,2.03V275.187C309.927,276.365,309.277,277.319,308.465,277.319Z" transform="translate(-22.51 -24.659)" fill="#f8b409"/></g><g transform="translate(197.404 185.151)" clip-path="url(#d)"><path d="M308.465,277.319H22.652c-.812,0-1.462-.954-1.462-2.03V20.03c0-1.178.65-2.03,1.462-2.03H308.465c.812,0,1.462.954,1.462,2.03V275.187C309.927,276.365,309.277,277.319,308.465,277.319Z" transform="translate(-190.368 -184.904)" fill="#771efc"/></g><path d="M14.36,56.67H150.384v.548a10.537,10.537,0,0,1-10.537,10.537H24.9A10.537,10.537,0,0,1,14.36,57.218V56.67Z" transform="translate(0 40.086)" fill="#fff" stroke="#1d1d1b" stroke-miterlimit="10" stroke-width="1.5"/><path d="M39.88,56.67H72.363a5.542,5.542,0,0,1-5.644,5.542h-21.3A5.542,5.542,0,0,1,39.88,56.67h0Z" transform="translate(26.291 40.086)" fill="#fff" stroke="#1d1d1b" stroke-miterlimit="10" stroke-width="1.5"/><circle cx="2.375" cy="2.375" r="2.375" transform="translate(254.798 264.776)" fill="#1d1d1b"/><line x2="8.121" transform="translate(162.769 62.79)" fill="none" stroke="#1d1d1b" stroke-linecap="round" stroke-linejoin="round" stroke-width="1.5"/><line x2="62.165" transform="translate(192.816 62.79)" fill="none" stroke="#1d1d1b" stroke-linecap="round" stroke-linejoin="round" stroke-width="1.5" stroke-dasharray="7.2 10.8"/><path d="M138.28,39.95H146.4v8.121" transform="translate(127.664 22.86)" fill="none" stroke="#1d1d1b" stroke-linecap="round" stroke-linejoin="round" stroke-width="1.5"/><line y2="27.814" transform="translate(274.065 94.766)" fill="none" stroke="#1d1d1b" stroke-linecap="round" stroke-linejoin="round" stroke-width="1.5" stroke-dasharray="7.83 11.75"/><path d="M146.4,75.27v8.121H138.28" transform="translate(127.664 59.248)" fill="none" stroke="#1d1d1b" stroke-linecap="round" stroke-linejoin="round" stroke-width="1.5"/><line x1="161.91" transform="translate(77.784 142.638)" fill="none" stroke="#1d1d1b" stroke-linecap="round" stroke-linejoin="round" stroke-width="1.5" stroke-dasharray="8.62 12.93"/><path d="M43.251,79.27H35.13v8.121" transform="translate(21.398 63.368)" fill="none" stroke="#1d1d1b" stroke-linecap="round" stroke-linejoin="round" stroke-width="1.5"/><line y2="27.814" transform="translate(56.528 174.594)" fill="none" stroke="#1d1d1b" stroke-linecap="round" stroke-linejoin="round" stroke-width="1.5" stroke-dasharray="7.83 11.75"/><path d="M35.13,114.59v8.121h8.121" transform="translate(21.398 99.756)" fill="none" stroke="#1d1d1b" stroke-linecap="round" stroke-linejoin="round" stroke-width="1.5"/><line x2="68.946" transform="translate(88.991 222.466)" fill="none" stroke="#1d1d1b" stroke-linecap="round" stroke-linejoin="round" stroke-width="1.5" stroke-dasharray="7.99 11.99"/><line x2="8.121" transform="translate(170.098 222.466)" fill="none" stroke="#1d1d1b" stroke-linecap="round" stroke-linejoin="round" stroke-width="1.5"/><path d="M63.367,50.986l5.218,11.593-3.472,1.584-5.1-11.735-6.5,6.091V32.43L72.563,50.194Z" transform="translate(40.343 15.113)" fill="#fff"/><path d="M154.417,133.236l5.218,11.593-3.472,1.584-5.1-11.755-6.5,6.091V114.68l19.043,17.764Z" transform="translate(134.144 99.848)" fill="#fff"/></g></g></svg>