<svg xmlns="http://www.w3.org/2000/svg" xmlns:xlink="http://www.w3.org/1999/xlink" width="17.338" height="14.484" viewBox="0 0 17.338 14.484">
  <defs>
    <clipPath id="clip-path">
      <rect id="Rectangle_749" data-name="Rectangle 749" width="17.338" height="14.484" fill="#787da7"/>
    </clipPath>
  </defs>
  <g id="Group_2049" data-name="Group 2049" clip-path="url(#clip-path)">
    <path id="Path_2528" data-name="Path 2528" d="M10.1,0a13.408,13.408,0,0,1,6.874,2.718c.45.327.465.447.126.893L9.094,14.168c-.321.424-.528.421-.856-.01Q4.233,8.88.229,3.6c-.335-.441-.315-.553.143-.89C2.774.939,5.654,0,10.1,0M2.171,4.9a12.277,12.277,0,0,1,13,0l1.237-1.627A13.11,13.11,0,0,0,.952,3.292L2.171,4.9" transform="translate(0 0)" fill="#787da7"/>
  </g>
</svg>
