<svg id="Group_2048" data-name="Group 2048" xmlns="http://www.w3.org/2000/svg" xmlns:xlink="http://www.w3.org/1999/xlink" width="17.334" height="14.484" viewBox="0 0 17.334 14.484">
  <defs>
    <clipPath id="clip-path">
      <rect id="Rectangle_748" data-name="Rectangle 748" width="17.334" height="14.484" fill="#787da7"/>
    </clipPath>
  </defs>
  <g id="Group_2047" data-name="Group 2047" clip-path="url(#clip-path)">
    <path id="Path_2527" data-name="Path 2527" d="M8.614,0A13.932,13.932,0,0,1,17,2.741c.417.3.436.434.127.841Q13.1,8.888,9.074,14.193c-.293.387-.522.387-.816,0Q4.222,8.875.189,3.555c-.279-.368-.257-.513.12-.791A13.851,13.851,0,0,1,8.614,0m7.779,3.283a13.106,13.106,0,0,0-15.449,0L4.023,7.348a9.222,9.222,0,0,1,9.286,0l3.083-4.065" transform="translate(0)" fill="#787da7"/>
  </g>
</svg>
