<svg id="Group_2046" data-name="Group 2046" xmlns="http://www.w3.org/2000/svg" xmlns:xlink="http://www.w3.org/1999/xlink" width="21.222" height="17.726" viewBox="0 0 21.222 17.726">
  <defs>
    <clipPath id="clip-path">
      <rect id="Rectangle_747" data-name="Rectangle 747" width="21.222" height="17.726" fill="#787da7"/>
    </clipPath>
  </defs>
  <g id="Group_2045" data-name="Group 2045" clip-path="url(#clip-path)">
    <path id="Path_2526" data-name="Path 2526" d="M12.363,0c2,.007,5.4,1.13,8.44,3.346.515.375.539.532.163,1.028q-4.925,6.5-9.854,12.993c-.361.475-.643.479-1,.009Q5.171,10.864.233,4.349c-.344-.453-.315-.628.14-.97C3.284,1.189,6.879,0,12.363,0m7.7,4.019A16.051,16.051,0,0,0,1.149,4.012l6.069,8a7.485,7.485,0,0,1,6.788,0l6.06-7.989" transform="translate(0)" fill="#787da7"/>
  </g>
</svg>
