<svg xmlns="http://www.w3.org/2000/svg" width="57.39" height="50.5" viewBox="0 0 57.39 50.5"><path d="M78.681,42.606H77.72a8.635,8.635,0,0,1-6.248-2.4,7.084,7.084,0,0,1-1.882-2.8l5.246-3.044a3.255,3.255,0,0,0,1.081,2.283,3.3,3.3,0,0,0,2.363.961,3.346,3.346,0,0,0,1.962-.6,3.2,3.2,0,0,0,1.242-1.562,1.793,1.793,0,0,0,.16-.8v-.28h0v-1.8l-.12.08-.16.04a9.34,9.34,0,0,1-3.6.721,9.538,9.538,0,0,1-9.411-9.572,8.683,8.683,0,0,1,.761-3.765,9.4,9.4,0,0,1,8.731-5.727,10.547,10.547,0,0,1,4.726.841,7.637,7.637,0,0,1,3.124,2.363,25.151,25.151,0,0,0-47.658-.841,11.947,11.947,0,0,1,2.924-1.722,10.822,10.822,0,0,1,7.609,0,9.276,9.276,0,0,1,3.244,1.962,9.077,9.077,0,0,1,2.243,10.533,8.849,8.849,0,0,1-2.243,3.044,10.347,10.347,0,0,1-3.244,1.962,10.808,10.808,0,0,1-8.771-.521,9.66,9.66,0,0,1-2.843-2.243A25.169,25.169,0,0,0,66.146,50.1a25.46,25.46,0,0,0,13.937-7.529,8.2,8.2,0,0,1-1.4.04M66.546,19.618a2.153,2.153,0,0,0-1.121-.32H65.1c-1.4.04-2.083,1.041-2.083,2.924V32.634H57.536V22.221c0-5.006,2.523-7.649,7.609-7.89h.32a5.338,5.338,0,0,1,1.121.12ZM44.72,28.189a4.548,4.548,0,0,1-3.2-1.322A4.126,4.126,0,0,1,40.154,23.7a4.057,4.057,0,0,1,.641-2.243,4.728,4.728,0,0,1,1.722-1.6,4.487,4.487,0,0,1,4.485,0,5.067,5.067,0,0,1,1.722,1.6,4.057,4.057,0,0,1,.641,2.243A4.268,4.268,0,0,1,48,26.867a4.533,4.533,0,0,1-3.284,1.322m37.365-6.608a4.264,4.264,0,0,1-.761,5.326,4.412,4.412,0,0,1-6.208.08h0l-.08-.08a4.291,4.291,0,0,1,.921-6.928,4.2,4.2,0,0,1,2.163-.6,4.467,4.467,0,0,1,3.965,2.2m-47.418,8.53a3.184,3.184,0,1,1-3.2-3.164h.04a3.171,3.171,0,0,1,3.164,3.164h0" transform="translate(-28.3 0.009)" fill="#0033a0"/></svg>