<svg xmlns="http://www.w3.org/2000/svg" width="106" height="40.884" viewBox="0 0 106 40.884"><g transform="translate(0.01 -24.5)"><path d="M5.575,68.51a5.58,5.58,0,1,0,5.575,5.559A5.58,5.58,0,0,0,5.575,68.51" transform="translate(0 -20.688)" fill="#e9531f"/><path d="M36.135,52.193a19.606,19.606,0,0,0-2.353-.286c-2.4-.18-2.962-.482-3.18-1.15a1,1,0,0,1,.148-.88c.419-.625,1.473-.98,2.883-.97a9.486,9.486,0,0,1,3.651,1.017,3.116,3.116,0,0,0,4.239-1.367,3.151,3.151,0,0,0-1.494-4.176,12.384,12.384,0,0,0-6.359-1.812c-4.912-.037-7.249,2.348-8.209,3.778a7.366,7.366,0,0,0-.737,6.852c1.871,4.478,6.041,4.822,8.537,5.024.615.053,1.2.1,1.653.191,1.277.249,1.251,1.2,1.229,1.383-.085.837-1.092,1.351-2.65,1.341a6.1,6.1,0,0,1-4.351-1.913.62.62,0,0,0-.837-.058l-4,3.18a.62.62,0,0,0-.079.9,12.39,12.39,0,0,0,9.237,4.239,9.613,9.613,0,0,0,6.243-1.987,7.419,7.419,0,0,0,2.74-5.056,7.53,7.53,0,0,0-1.4-5.177A7.907,7.907,0,0,0,36.135,52.2" transform="translate(-11.323 -8.494)" fill="#262c48"/><path d="M77.941,35.734a12.549,12.549,0,0,0-9.009-1.33v-6.46a3.445,3.445,0,0,0-6.889,0V38.707a12.278,12.278,0,0,0-2.268,4.351,3.413,3.413,0,0,0,2.268,4.186v10.4a.625.625,0,0,0,.625.625h5.644a.625.625,0,0,0,.625-.625V41.723a5.3,5.3,0,0,1,4.446-.53c2.12.758,2.12,3.18,2.12,6.216V57.647a.625.625,0,0,0,.625.625h5.623a.62.62,0,0,0,.625-.625V45.681c0-7.774-4.43-9.947-4.43-9.947" transform="translate(-28.043)" fill="#262c48"/><path d="M118.443,42.57a12.459,12.459,0,1,0,.011,0m0,18.018a33757.136,33757.136,0,1,0-.011.011" transform="translate(-49.832 -8.494)" fill="#262c48"/><path d="M178.256,54.526a12.448,12.448,0,0,0-17.021-11.091c-2.989,1.192-4.9,3.853-4.9,7.986v3.031a3.211,3.211,0,0,0-2.459,4.075,12.543,12.543,0,0,0,2.464,4.547h0v10.18a.62.62,0,0,0,.62.62h5.628a.62.62,0,0,0,.625-.62V67.17a12.448,12.448,0,0,0,15.039-12.644m-6.889.853a5.6,5.6,0,0,1-5.252,5.2,5.485,5.485,0,0,1-2.92-.636V52.623c0-2.162,1.155-3.18,2.575-3.18h.026a5.591,5.591,0,0,1,5.57,5.935" transform="translate(-72.276 -8.49)" fill="#262c48"/></g></svg>