<svg xmlns="http://www.w3.org/2000/svg" width="113.498" height="31.266" viewBox="0 0 113.498 31.266"><g transform="translate(-0.23 -35.06)"><path d="M8.947,79.014a4.359,4.359,0,1,1-1.275-3.086,4.359,4.359,0,0,1,1.275,3.086Z" transform="translate(0 -17.121)" fill="#0eadb3"/><path d="M47.27,58.085c0,5.823,3.07,8.076,8.218,8.076H66.9A15.375,15.375,0,0,1,61.22,58.84H58.2c-1.578,0-2.344-.726-2.344-2.44V47.733H61V40.826H55.851V35.06H47.27Z" transform="translate(-20.343)" fill="#414242"/><path d="M75.12,57.866v-.091C75.12,50.823,80.807,45,88.673,45s13.451,5.732,13.451,12.685v.091c0,6.952-5.675,12.775-13.542,12.775S75.12,64.819,75.12,57.866Zm18.638,0v-.091a5.292,5.292,0,0,0-5.187-5.505,5.118,5.118,0,0,0-5.108,5.414v.091a5.3,5.3,0,0,0,5.193,5.511,5.191,5.191,0,0,0,5.125-5.42Z" transform="translate(-32.387 -4.299)" fill="#414242"/><path d="M19.411,54.526c-2.577-.766-3.973-1.215-3.973-2.162v-.091c0-.675.675-1.175,1.986-1.175a16.348,16.348,0,0,1,7.219,2.27l2.934-5.42A19.1,19.1,0,0,0,17.516,45.11c-5.675,0-9.8,2.889-9.8,8.082v.091c0,4.9,3.837,6.521,8.672,7.792,2.571.721,3.927,1.135,3.927,2.077v.091c0,.857-.675,1.305-2.168,1.305a13.275,13.275,0,0,1-3.973-.67,5.783,5.783,0,0,1-.88,6.141,20.641,20.641,0,0,0,4.8.568c5.959,0,9.977-2.8,9.977-8.167v-.091C28.078,57.534,24.241,55.882,19.411,54.526Z" transform="translate(-3.239 -4.346)" fill="#414242"/><path d="M141.9,54.116c-4.467,0-7,2.577-7,8.218v8.173H126.33V45.5h8.576v4.921c1.4-3.343,3.661-5.511,7.719-5.329h5.84a12.09,12.09,0,0,0-6.243,9.024Z" transform="translate(-54.533 -4.334)" fill="#414242"/><path d="M171.791,64.077a5.078,5.078,0,0,1-5.324-4.047h8.876c6.447,0,6.578-6.425,6.578-6.425v-.278a6.992,6.992,0,0,0-3.695-.568,2.883,2.883,0,0,1,0,.318,3.218,3.218,0,0,1-3.212,3.218h-7.946a1.566,1.566,0,0,1-1.561-1.566V51.42a1.566,1.566,0,0,1,1.561-1.566h7.946a3.1,3.1,0,0,1,3.082,2.208,7.423,7.423,0,0,1,3.774.505c-.42-5.505-4.711-7.787-11.323-7.787-7.276,0-12.418,5.675-12.418,12.872v.091c0,7.645,5.46,12.787,13.19,12.787a12.909,12.909,0,0,0,10.693-5.006l-4.779-3.973A7.314,7.314,0,0,1,171.791,64.077Z" transform="translate(-68.285 -4.203)" fill="#414242"/><path d="M189.449,58.659a.477.477,0,1,1-.454-.619.46.46,0,0,1,.3.114,5.032,5.032,0,0,1,.534-.193,1,1,0,1,0,.17.568v-.057A5.073,5.073,0,0,0,189.449,58.659Z" transform="translate(-81.198 -9.711)" fill="#0eadb3"/></g></svg>