<svg xmlns="http://www.w3.org/2000/svg" width="60.808" height="45.376" viewBox="0 0 60.808 45.376"><g transform="translate(-56.21 -31.42)"><path d="M111.417,76.8H64.7V68.425H56.21V39.791H64.7V31.42h46.714a5.615,5.615,0,0,1,5.6,5.6V71.2a5.615,5.615,0,0,1-5.6,5.6" transform="translate(0 0)" fill="#6aaa2e"/><path d="M74.08,66.277H69.127l-.3-.3V61.027l.3-.3H74.08l.3.3V65.98l-.3.3Z" transform="translate(-4.093 -9.507)" fill="#fff"/><path d="M88.305,42.179H83.894l-.264-.264V37.5l.264-.264h4.412l.263.264v4.412l-.263.264Z" transform="translate(-8.894 -1.888)" fill="#fff"/><path d="M88.086,79.619H84.37l-.27-.264V53.971l.27-.318,3.716-.534.264.209V79.355l-.264.264Z" transform="translate(-9.046 -7.038)" fill="#fff"/><path d="M102.686,51.308V61.334c0,6.351,4,9.283,9.459,9.283,5.547,0,9.5-2.932,9.5-9.283V51.308c-.02-6.189-3.986-9.351-9.52-9.351-5.405,0-9.459,3.149-9.459,9.337ZM98.2,61.814V50.929c0-8.642,5.405-13.229,13.925-13.229,8.642,0,13.979,4.588,13.979,13.229V61.814c0,8.587-5.338,13.074-13.979,13.074C103.592,74.888,98.2,70.4,98.2,61.814Z" transform="translate(-13.62 -2.037)" fill="#fff"/></g></svg>