<svg xmlns="http://www.w3.org/2000/svg" width="80.724" height="37.159" viewBox="0 0 80.724 37.159"><g transform="translate(-7 -26.96)"><path d="M79.59,26.96V53.529h4.6L83.958,26.96Z" transform="translate(-40.916)"/><path d="M108.3,43.79c-6.506,0-9.6,4.193-9.6,9.988s3.054,9.944,9.6,9.944,9.6-4.154,9.6-9.944S114.758,43.79,108.3,43.79Zm0,16.145c-3.054,0-4.713-1.994-4.713-6.109s1.641-6.109,4.713-6.109,4.678,1.994,4.678,6.109-1.61,6.1-4.678,6.1Z" transform="translate(-51.687 -9.486)"/><path d="M166.735,46.434V43.38H156.76a7.819,7.819,0,0,0-5.11,13.745l-.284.157a5.673,5.673,0,0,0-.991.672,5.018,5.018,0,0,0-.873.938,4.04,4.04,0,0,0-.493.991,3.216,3.216,0,0,0-.166.995,3.4,3.4,0,0,0,.463,1.916,3.46,3.46,0,0,0,1.034,1.025,6.135,6.135,0,0,0-2.252,1.488,3.652,3.652,0,0,0-.912,2.513,4.259,4.259,0,0,0,.576,2.116,5.5,5.5,0,0,0,1.745,1.78,9.713,9.713,0,0,0,2.9,1.217,16.263,16.263,0,0,0,4.106.436,11.938,11.938,0,0,0,3.971-.655,10.739,10.739,0,0,0,3.159-1.641,7.374,7.374,0,0,0,1.981-2.343,5.777,5.777,0,0,0,.681-2.705,4.682,4.682,0,0,0-.589-2.478,4.411,4.411,0,0,0-1.523-1.505,7.492,7.492,0,0,0-2.156-.812,14.663,14.663,0,0,0-2.182-.319c-.825-.07-1.649-.1-2.435-.1a16.059,16.059,0,0,1-2.1-.122,4.6,4.6,0,0,1-1.466-.4.833.833,0,0,1-.493-.8,1.309,1.309,0,0,1,.624-1,7.811,7.811,0,0,0,2.784.532,7.933,7.933,0,0,0,7.959-7.828,7.636,7.636,0,0,0-1.335-4.311,7.907,7.907,0,0,1,2.884-.436Zm-13.527,19.2a8.911,8.911,0,0,0,1.95.218h1.985a15.547,15.547,0,0,1,1.8.1,7.614,7.614,0,0,1,1.47.318,2.378,2.378,0,0,1,.96.589,1.331,1.331,0,0,1,.34.943,2.208,2.208,0,0,1-.3,1.108,2.562,2.562,0,0,1-.929.873,5.851,5.851,0,0,1-1.667.593,11.663,11.663,0,0,1-2.43.218,12.14,12.14,0,0,1-2.352-.192,5.28,5.28,0,0,1-1.532-.511,2.208,2.208,0,0,1-.838-.79,1.915,1.915,0,0,1-.262-.973,2.208,2.208,0,0,1,.51-1.418,4.53,4.53,0,0,1,1.287-1.087Zm7.2-14c0,2.134-1.143,4.036-3.87,4.036s-3.866-1.9-3.866-4.036h0c0-2.134,1.143-4.036,3.866-4.036s3.888,1.9,3.888,4.032Z" transform="translate(-79.011 -9.255)"/><path d="M39.063,34.348c-2.269,0-5.878,2.23-5.878,2.23V27H28.08V53.552h4.595V52.12A9.6,9.6,0,0,0,38.753,54.3c1.021,0,7.907-.467,7.907-10.59C46.651,37.307,43.317,34.348,39.063,34.348ZM33.5,48.778c-.279-.148-.559-.292-.829-.436h0V40.487l.192-.175a7.484,7.484,0,0,1,4.756-2.081c2.618,0,3.993,1.745,3.993,5.834C41.615,52.744,34.468,49.254,33.5,48.778Z" transform="translate(-11.882 -0.023)"/><rect width="4.599" height="5.11" transform="translate(7 48.93)"/></g></svg>