<svg xmlns="http://www.w3.org/2000/svg" width="51.42" height="46.204" viewBox="0 0 51.42 46.204"><g transform="translate(-54 -16.958)"><path d="M90.229,16.979H56.717A2.717,2.717,0,0,0,54,19.7V60.444a2.717,2.717,0,0,0,2.717,2.717H97.466a2.722,2.722,0,0,0,2.717-2.717V26.313a1.287,1.287,0,0,0-.447-1.1l-7.37-7.37a2.329,2.329,0,0,0-2.137-.865" fill="#ec6608"/><path d="M115.593,82.735a4.422,4.422,0,1,1,4.422-4.422,4.422,4.422,0,0,1-4.422,4.422m0-13.015a8.578,8.578,0,1,0,8.573,8.575,8.578,8.578,0,0,0-8.573-8.575" transform="translate(-26.966 -26.84)" fill="#fff"/><path d="M83.279,80.113a3.11,3.11,0,0,0-.7.693,4.422,4.422,0,1,1,0-5.026,3.11,3.11,0,0,0,.7.693,6.722,6.722,0,0,0,4.1.57,8.578,8.578,0,1,0,0,2.5,6.651,6.651,0,0,0-4.1.57" transform="translate(-8.3 -26.837)" fill="#fff"/><path d="M64.05,96.675a1.965,1.965,0,1,1-1.965-1.965,1.965,1.965,0,0,1,1.965,1.965" transform="translate(-3.113 -39.552)" fill="#fff"/><path d="M151.85,108.936v-1.592h-.57v-.324h1.528v.324h-.57v1.592Z" transform="translate(-49.486 -45.814)" fill="#ec6608"/><path d="M154.88,108.936V107.02h.58l.349,1.307.344-1.307h.585v1.916h-.364v-1.508L156,108.936h-.373l-.378-1.508v1.508Z" transform="translate(-51.317 -45.814)" fill="#ec6608"/></g></svg>