<svg xmlns="http://www.w3.org/2000/svg" xmlns:xlink="http://www.w3.org/1999/xlink" width="95.158" height="29.96" viewBox="0 0 95.158 29.96"><defs><radialGradient id="a" cx="0.006" cy="0.01" r="1.111" gradientTransform="translate(-0.069) scale(1.139 1)" gradientUnits="objectBoundingBox"><stop offset="0" stop-color="#fff"/><stop offset="0.04" stop-color="#fff" stop-opacity="0.922"/><stop offset="0.2" stop-color="#fff" stop-opacity="0.678"/><stop offset="0.35" stop-color="#fff" stop-opacity="0.471"/><stop offset="0.5" stop-color="#fff" stop-opacity="0.302"/><stop offset="0.64" stop-color="#fff" stop-opacity="0.169"/><stop offset="0.77" stop-color="#fff" stop-opacity="0.078"/><stop offset="0.9" stop-color="#fff" stop-opacity="0.02"/><stop offset="1" stop-color="#fff" stop-opacity="0"/></radialGradient></defs><g transform="translate(0 -43.24)"><path d="M18.389,45.589V57.855a1.57,1.57,0,0,1-.647,1.275l-7.613,5.514a1.57,1.57,0,0,1-1.846,0L.652,59.13A1.575,1.575,0,0,1,0,57.855V45.589A1.575,1.575,0,0,1,1.575,44H16.8a1.57,1.57,0,0,1,1.589,1.589Z" transform="translate(0 -0.398)" fill="#f24133"/><path d="M27.423,47H19.449a.124.124,0,0,0-.119.124V64.885a.119.119,0,0,0,.186.1L27.6,59.466a.114.114,0,0,0,.052-.1V47.224A.238.238,0,0,0,27.423,47Z" transform="translate(-10.133 -1.971)" fill="#e33733"/><rect width="3.388" height="3.388" rx="0.76" transform="translate(4.477 48.217)" fill="#fff"/><rect width="3.388" height="3.388" rx="0.76" transform="translate(10.524 48.217)" fill="#fff"/><rect width="3.388" height="3.388" rx="0.76" transform="translate(4.477 54.269)" fill="#fff"/><rect width="3.388" height="3.388" rx="0.76" transform="translate(10.524 54.269)" fill="#fff"/><g transform="translate(0 43.601)" opacity="0.2"><path d="M16.819,44H1.594A1.575,1.575,0,0,0,0,45.589H0a1.456,1.456,0,0,1,1.451-1.451H16.938a1.427,1.427,0,0,1,1.427,1.451h0A1.57,1.57,0,0,0,16.819,44Z" transform="translate(0 -44)" fill="#fff"/></g><path d="M18.389,45.589V57.855a1.57,1.57,0,0,1-.647,1.275l-7.613,5.514a1.57,1.57,0,0,1-1.846,0L.652,59.13A1.575,1.575,0,0,1,0,57.855V45.589A1.575,1.575,0,0,1,1.575,44H16.8a1.57,1.57,0,0,1,1.589,1.589Z" transform="translate(0 -0.398)" opacity="0.1" fill="url(#a)"/><g transform="translate(0 57.399)" opacity="0.2"><path d="M17.79,74.175l-7.67,5.552a1.57,1.57,0,0,1-1.846,0L.6,74.175A1.456,1.456,0,0,1,0,73v.057a1.575,1.575,0,0,0,.652,1.275l7.613,5.514a1.57,1.57,0,0,0,1.846,0l7.613-5.514a1.57,1.57,0,0,0,.647-1.275V73A1.456,1.456,0,0,1,17.79,74.175Z" transform="translate(0 -73)" fill="#3e2723"/></g><path d="M53.13,81.787q0-1.837,1.5-1.837c1.028,0,1.537.614,1.537,1.837s-.509,1.837-1.537,1.837S53.13,83.009,53.13,81.787Z" transform="translate(-27.851 -19.244)" fill="#989898"/><path d="M83.86,64.045a.124.124,0,0,1-.124-.1l-.476-3.116h-.124a9.8,9.8,0,0,1-3.159,2.8,8.45,8.45,0,0,1-3.806.814A6.626,6.626,0,0,1,71.5,62.9a4.967,4.967,0,0,1-1.427-2.35,5.919,5.919,0,0,1,2.565-6.732,14.067,14.067,0,0,1,6.866-1.542l3.759-.109a.124.124,0,0,0,.119-.124V50.78a6.941,6.941,0,0,0-1.18-4.387,4.583,4.583,0,0,0-3.806-1.48,12.637,12.637,0,0,0-5.748,1.513.124.124,0,0,1-.167-.057l-.595-1.385a.124.124,0,0,1,.062-.162,15.492,15.492,0,0,1,6.523-1.5,6.671,6.671,0,0,1,5.015,1.741c1.1,1.166,1.656,2.974,1.656,5.438V63.926a.119.119,0,0,1-.119.119Zm-7.613-1.313a6.514,6.514,0,0,0,7.046-7.046V53.811a.124.124,0,0,0-.124-.124l-3.435.147q-4.282.2-6.119,1.337a3.863,3.863,0,0,0-1.827,3.535,3.806,3.806,0,0,0,1.17,2.969,4.728,4.728,0,0,0,3.3,1.056Z" transform="translate(-36.605 -0.042)" fill="#989898"/><path d="M124.546,64.379q-4.706,0-6.861-3.526h-.128l.057,1.575c.048.952.071,1.936.071,3.036v7.613a.124.124,0,0,1-.119.124h-1.613a.124.124,0,0,1-.124-.124V43.754a.124.124,0,0,1,.124-.119H117.3a.124.124,0,0,1,.119.1l.343,2.8h.114q2.1-3.3,6.709-3.3a7.573,7.573,0,0,1,6.285,2.707q2.165,2.707,2.17,7.879,0,5.024-2.279,7.789A7.624,7.624,0,0,1,124.546,64.379Zm-.038-1.651a5.671,5.671,0,0,0,4.844-2.322,10.794,10.794,0,0,0,1.713-6.5q0-8.973-6.48-8.973-3.559,0-5.234,1.955t-1.67,6.38v.6q0,4.782,1.6,6.823t5.224,2.041Z" transform="translate(-60.719 0)" fill="#989898"/><path d="M172.556,64.379q-4.706,0-6.861-3.526h-.128l.057,1.575c.048.952.071,1.936.071,3.036v7.613a.124.124,0,0,1-.119.124h-1.613a.124.124,0,0,1-.124-.124V43.754a.124.124,0,0,1,.124-.119h1.346a.124.124,0,0,1,.119.1l.343,2.8h.114q2.1-3.3,6.709-3.3a7.581,7.581,0,0,1,6.285,2.707q2.17,2.707,2.165,7.879,0,5.024-2.279,7.789A7.619,7.619,0,0,1,172.556,64.379Zm-.038-1.651a5.671,5.671,0,0,0,4.844-2.322,10.794,10.794,0,0,0,1.713-6.5q0-8.973-6.48-8.973-3.564,0-5.234,1.955t-1.67,6.38v.6q0,4.782,1.6,6.823T172.518,62.728Z" transform="translate(-85.887 0)" fill="#989898"/></g></svg>