<svg xmlns="http://www.w3.org/2000/svg" width="84.183" height="89.398" viewBox="0 0 84.183 89.398"><g transform="translate(-47.392 -23.7)"><path d="M65.629,36.489a4.948,4.948,0,0,1-1.822-.122c-.335-.838-1.621-.281-2.139-1.091a1.184,1.184,0,0,0-1.406.118,3.043,3.043,0,0,0-1.97-1.559,4.21,4.21,0,0,0-2.351-.849c-.21-.348-.4-1.627-.81-1.337.058.283-.313.737-.313.737a1.163,1.163,0,0,1-.285-.506c-.026-1.1-1.415-.029-1.275-1.792a10.959,10.959,0,0,1-2.475-2.3c-.729-.856-1.757-1.5-2.158-2.592-.4-.475-.709-1.236-1.233-1.5a17.252,17.252,0,0,0,.888,2.791c.283.479.548,1.661.919,1.684.228-.347.421-.144.421-.144s-.03.557-.281.7a4.365,4.365,0,0,0,1.348,3.083,2.843,2.843,0,0,1,1.3,2.347c.309.884,1.412.253,1.108,1.311.149.583,1.018.674.99,1.409.419.806.709-.71,1.361.073.059.744-.186,1.593.582,2.291.4-.219,1.019-2.022,1.215-.938a10.087,10.087,0,0,0-.432,1.724,5.783,5.783,0,0,0,.937.825c.73.26.92,1.085,1.875,1.151a.811.811,0,0,1,.552-.693c-.036-.626.2-1.224.508-.818.309.7.634,1.922,1.6,1.121,1.925-.69,3.03-2.518,4.166-4.094A.68.68,0,0,0,65.629,36.489Z" fill="#787da7" fill-rule="evenodd"/><path d="M428.11,49.026a2.692,2.692,0,0,1,2.939.126c1.229.724.68-1.389,1.826-1.18.554.2.5-.455.838-.083.663.427,1.406-.093,1.891-.424a4.349,4.349,0,0,0,2.222-1.223c.022-.225.061-.568.061-.568a11.477,11.477,0,0,1,2.157-1.2c.647-.753,1.9-.4,2.351-1.422.452-.744,1.42-.968,2.129-1.384a.387.387,0,0,0,.418-.094c.122-.384-.025-.848.536-1.137.669-.7,1.6-1.127,2.12-1.968.622-.937-.32,1.048-.4,1.46-.367.768-.882,1.527-1.281,2.208.374,1.068-.776,1.429-1.2,2.233a1.726,1.726,0,0,1-1.217,1.32,3.8,3.8,0,0,1-.365,1.1,4.234,4.234,0,0,0-1,.663,3.165,3.165,0,0,1-.138.936,7.3,7.3,0,0,1-1.282.6c-.721.575-1.353,1.772-2.266,2.117a5.26,5.26,0,0,0-1.035-.2c-.642.333.028.437.1.741.1,1.031-1.306,1.04-1.834,1.639-.468.778-1.388.775-2.137.855a1.583,1.583,0,0,1-2.319-.187c-.89-.784-2-1.433-2.409-2.618-.176-.719-1.122-1.64-.832-2.244l.126-.06Z" transform="translate(-316.233 -12.07)" fill="#787da7" fill-rule="evenodd"/><g transform="translate(51.695 26.495)"><path d="M1699.111,1529.753l-.067.009h-.115l-.048.01h-.048l-.048.01-.038.01h-.029l-.029.01-.029.01-.029.01-.009.019-.019.01-.01.01-.01.01v.019l-.01.01.01.019v.019l.01.01.019.019.01.019.019.019.029.01.019.019.029.019.029.019.038.019.038.019.038.019.038.019.048.029.038.019.048.019.057.019.048.019.058.019.058.029.058.019.067.019.058.019.067.019.134.048.144.038.144.038.154.048.154.038.163.038.173.029.163.038.173.029.173.029.173.029c.528-.4.989-.807,1.412-1.2A10.768,10.768,0,0,1,1699.111,1529.753Z" transform="translate(-1657.533 -1484.002)" fill="#787da7" stroke="#d72766" stroke-miterlimit="10.433" stroke-width="0"/><path d="M1742.923,1500.544l.163-.221.144-.23.154-.231.134-.221.135-.24.125-.23.125-.24.106-.231.106-.24.1-.25.1-.24.077-.24.077-.25.058-.25.058-.25.048-.25a9.325,9.325,0,0,1-1.191,2.641c-2.689,1.69-.259-1-.01-2.026C1740.541,1500.986,1743.028,1499.526,1742.923,1500.544Z" transform="translate(-1693.642 -1456.704)" fill="#787da7" stroke="#d72766" stroke-miterlimit="10.433" stroke-width="0"/><path d="M1760.52,1466.975l.01-.058v-.115l.01-.058v-.163l.01-.048v-.528l-.01-.038v-.135l-.01-.038v-.058l-.01-.029v-.058l-.01-.019v-.029l-.01-.019v-.029l-.01-.019v-.019l-.01-.019v-.019l-.01-.019v-.019l-.01-.019-.01-.019v-.01l-.01-.019-.01-.01v-.01l-.01-.019-.01-.01v-.01l-.019-.019-.01-.01-.019-.019-.019-.01h-.01l-.019-.01h-.019l-.01.01h-.019l-.019.01-.019.01-.019.01-.01.01-.019.019-.019.019-.019.019-.019.019-.019.029-.019.019-.019.029-.01.029-.019.029-.019.038-.019.029-.019.038-.01.029-.019.038-.019.038-.019.038-.01.048-.019.038-.01.038-.019.048-.01.038-.019.048-.019.086-.029.1C1760.049,1466.342,1760.261,1468.022,1760.52,1466.975Z" transform="translate(-1708.397 -1430.54)" fill="#787da7" stroke="#d72766" stroke-miterlimit="10.433" stroke-width="0"/><path d="M1669.532,1266.452l.144.029.154.029.144.019.144.029.067.01.067.01.067.01.067.019.067.01.067.01.058.01.058.019.058.01.048.01.048.019.048.01.048.01.038.019.029.01.038.019.029.01.019.019h.01l.01.01v.01l.01.01.01.01h0v.038l-.01.01v.009C1671.9,1266.692,1672.1,1266.528,1669.532,1266.452Z" transform="translate(-1633.399 -1265.338)" fill="#787da7" stroke="#d72766" stroke-miterlimit="10.433" stroke-width="0"/><path d="M1815.816-2612.245l-.539.106.5-.038Z" transform="translate(-1777.455 2612.801)" fill="#787da7" stroke="#d72766" stroke-miterlimit="10.433" stroke-width="0"/><path d="M1519.681,1300.3l.01.221v.4l-.01.2-.01.182-.019.192-.019.173-.029.182-.029.163-.029.173-.038.163-.038.163-.087.317-.086.307-.106.307-.115.307-.115.307-.125.317-.125.317-.135.336-.067.173-.067.173-.058.182-.067.182-1.239.615c-1.018,1.978.1,1.258-.634,2.823-1.585,1.412-4.8,4.408-5.829,4.687-.759-.019.509-.893.672-1.239-2.122,1.46-1.7,2.19-4.946,3.073l-.1-.211c-8,3.765-19.111-3.7-18.967-13.867-.087.643-.25.48-.423.739a12.817,12.817,0,0,1,7.193-12.638,12.13,12.13,0,0,1,13.493,1.757,12.024,12.024,0,0,0-9.834-4.725c-4.245.067-8.211,2.766-9.546,5.695-2.17,1.364-2.42,5.282-3.371,5.993-1.277,9.373,2.4,13.426,8.614,18.189.98.663.278.759.4,1.258a16.648,16.648,0,0,1-5.5-4.216,14.721,14.721,0,0,0,2.862,3.313c-1.949-.662-4.552-4.725-5.311-4.888,3.361,6.012,13.618,10.535,19,8.288a22.256,22.256,0,0,1-8.442-.979c-1.172-.605-2.766-1.854-2.487-2.084,7.337,2.737,14.914,2.074,21.252-3.015,1.613-1.258,3.38-3.39,3.889-3.428-.768,1.162.135.557-.461,1.575,1.613-2.593-.691-1.057,1.661-4.475l.874,1.2c-.327-2.161,2.679-4.773,2.372-8.173.691-1.047.768,1.124.038,3.515,1.008-2.66.269-3.083.528-5.282a18.79,18.79,0,0,1,.835,2.3c-.653-2.574.682-4.331,1.008-5.82-.327-.144-1.018,1.133-1.181-1.9.029-1.316.375-.691.5-1.008a5.963,5.963,0,0,1-1.345-3.1c.3-.451.8,1.181,1.21,1.248a29.192,29.192,0,0,1-.739-3.9c-1.181-2.487-.413.336-1.383-1.066-1.268-3.947,1.056-.912,1.21-2.708,1.921,2.775,3.016,7.087,3.515,8.874a36.537,36.537,0,0,0-1.757-6.329c.586.25-.941-4.475.759-1.344-1.815-6.674-7.76-12.907-13.234-15.827.672.615,1.517,1.383,1.22,1.5-2.728-1.613-2.247-1.738-2.641-2.43-2.209-.9-2.353.077-3.822,0-4.177-2.209-4.984-1.978-8.826-3.361l.173.816c-2.766-.922-3.227.346-6.213,0-.182-.144.96-.509,1.9-.653-2.679.355-2.555-.519-5.176.1a23.038,23.038,0,0,1,2.017-1.133c-2.18.134-5.205,1.268-4.274.24-3.553,1.585-9.872,3.813-13.426,7.135l-.106-.739c-1.623,1.949-7.087,5.82-7.52,8.355l-.442.1a47.591,47.591,0,0,0-2.065,4.523c-1.1,1.892-1.614.73-1.46,1.028a67.984,67.984,0,0,0-4.187,11.159c.662.989.01,5.983.259,9.978-1.085,19.726,13.848,38.875,30.174,43.3,2.391.855,5.954.826,8.979.912-3.563-1.027-4.033-.538-7.51-1.757-2.506-1.181-3.054-2.535-4.84-4.072l.711,1.239c-3.486-1.229-2.026-1.527-4.869-2.42l.749-.989c-1.124-.077-2.987-1.9-3.5-2.91l-1.239.048c-1.489-1.834-2.276-3.15-2.218-4.177l-.4.72c-.451-.778-5.464-6.876-2.862-5.455a5.942,5.942,0,0,1-1.825-1.988l.538-.605c-1.258-1.613-2.3-3.678-2.228-4.36a2.836,2.836,0,0,0,1.594,1.22c-3.16-7.836-3.342-.422-5.733-7.98l.5-.038a18.427,18.427,0,0,1-.932-1.844l.221-2.19c-2.276-2.631-.634-11.188-.307-15.875.23-1.911,1.9-3.937,3.169-7.126l-.768-.135c1.479-2.583,8.451-10.372,11.678-9.969,1.565-1.969-.307-.009-.615-.5,3.438-3.563,4.514-2.516,6.838-3.16,2.5-1.479-2.151.586-.96-.567,4.322-1.1,3.064-2.507,8.7-3.064.6.336-1.383.519-1.873.96,3.6-1.767,11.39-1.364,16.46.979,5.877,2.747,12.475,10.862,12.744,18.5l.3.077c-.154,3.044.461,6.55-.6,9.776Z" transform="translate(-1458.137 -1262.882)" fill="#787da7" stroke="#d72766" stroke-miterlimit="10.433" stroke-width="0"/><path d="M1608.072,1542.253l-.2,1.008a19.1,19.1,0,0,0,2.891,3.668C1609.906,1545.24,1609.253,1544.548,1608.072,1542.253Z" transform="translate(-1582.157 -1494.534)" fill="#787da7" stroke="#d72766" stroke-miterlimit="10.433" stroke-width="0"/><path d="M1616.723,1532.542l-.087-.106-.086-.115-.086-.106-.077-.115-.077-.106-.077-.115-.067-.125-.067-.115-.067-.115-.058-.125-.125-.24-.125-.25-.125-.25a13.4,13.4,0,0,0,1.565,3.179Z" transform="translate(-1588.58 -1484.899)" fill="#787da7" stroke="#d72766" stroke-miterlimit="10.433" stroke-width="0"/><path d="M1842.4,1491.048l-.211.528a25.815,25.815,0,0,1-2.506,7.98A25.416,25.416,0,0,0,1842.4,1491.048Z" transform="translate(-1774.799 -1451.981)" fill="#787da7" stroke="#d72766" stroke-miterlimit="10.433" stroke-width="0"/><path d="M1668.4,1260.292l.1-.029.1-.029.1-.029.1-.029.106-.019.1-.019.106-.019.106-.01.221-.029.221-.019.221-.019.221-.01.461-.029.221-.01.221-.019.221-.019.211-.029.1-.01.106-.019.1-.019.106-.019c-1.344.115-2.679.182-3.995.346Z" transform="translate(-1631.982 -1259.859)" fill="#787da7" stroke="#d72766" stroke-miterlimit="10.433" stroke-width="0"/><path d="M1467.06,1369.6l.01.1v.1l.01.086v.183l-.01.086v.086l-.01.077-.01.086-.01.077-.019.077-.01.077-.019.067-.01.067-.019.067-.019.067-.019.067-.029.058-.019.058-.019.058-.019.058-.029.057-.019.048-.019.048-.029.038-.019.048-.019.038-.019.038-.019.038-.019.029-.019.038-.019.019-.019.029-.01.029-.01.019-.01.019-.01.01-.01.019-.01.01h0v.01h.01l.01-.01.019-.01.01-.01.019-.01.029-.019.019-.019.019-.01.01-.019.019-.01.019-.01.019-.019.019-.01.019-.019.019-.019.019-.01.029-.019.019-.019.029-.019.029-.019.019-.029.029-.019.038-.019.029-.019.029-.029.038-.029.029-.019.038-.029.038-.029.038-.029.038-.029.038-.029.048-.029.038-.029.048-.029C1468.5,1368.755,1467.05,1370.455,1467.06,1369.6Z" transform="translate(-1464.702 -1351.056)" fill="#787da7" stroke="#d72766" stroke-miterlimit="10.433" stroke-width="0"/><path d="M1455.767,1411.479l.038-.125.048-.125.029-.115.038-.125.038-.115.029-.115.029-.105.029-.106.029-.106.019-.105.029-.106.019-.1.029-.1.019-.1.038-.182.029-.173.038-.173.029-.163.029-.163.029-.154.029-.154.029-.154.038-.154C1455.229,1410.057,1455.9,1410.4,1455.767,1411.479Z" transform="translate(-1455.704 -1383.36)" fill="#787da7" stroke="#d72766" stroke-miterlimit="10.433" stroke-width="0"/></g></g></svg>