<svg xmlns="http://www.w3.org/2000/svg" width="85.363" height="85.363" viewBox="0 0 85.363 85.363"><path d="M45.1,2.414,36.429,11.08h6.777V35.647l1.89,1.89,1.89-1.89V11.08h6.776ZM14.86,14.86V27.306l4.887-4.887L36.754,39.426h2.672V36.754L22.419,19.747l4.887-4.887Zm17.79,0-4.887,4.887L39.426,31.41V14.86Zm18.115,0V31.41L62.428,19.747,57.541,14.86Zm12.121,0,4.887,4.887L50.765,36.754v2.672h2.672L70.445,22.419l4.887,4.887V14.86Zm-43.139,12.9L14.86,32.65v6.776H31.41Zm50.7,0L58.782,39.426h16.55V32.65ZM11.08,36.429,2.414,45.1l8.666,8.666V46.985H35.647l1.89-1.89-1.89-1.89H11.08Zm68.031,0v6.777H54.544l-1.89,1.89,1.89,1.89H79.111v6.776L87.777,45.1ZM14.86,50.765v6.777l4.887,4.887L31.41,50.765Zm21.894,0L19.747,67.773,14.86,62.886V75.332H27.306l-4.887-4.887L39.426,53.437V50.765Zm14.011,0v2.672L67.773,70.445l-4.887,4.887H75.332V62.886l-4.887,4.887L53.437,50.765Zm8.017,0L70.445,62.428l4.887-4.887V50.765ZM45.1,52.655l-1.89,1.89V79.111H36.429L45.1,87.777l8.666-8.666H46.985V54.544Zm-5.669,6.127L27.763,70.445l4.887,4.887h6.776Zm11.338,0v16.55h6.777l4.887-4.887Z" transform="translate(-2.414 -2.414)" fill="#787da7"/></svg>