<svg xmlns="http://www.w3.org/2000/svg" width="76.106" height="78.161" viewBox="0 0 76.106 78.161"><g transform="translate(-6.489)"><g transform="translate(20.805 12.549)"><path d="M108.263,104.878A18.879,18.879,0,0,1,115.5,90L108.762,79.22a31.621,31.621,0,0,0-11.9,16.759,11.368,11.368,0,0,1,.343,18.893,31.613,31.613,0,0,0,11.834,15.859l6.266-11.145A18.842,18.842,0,0,1,108.263,104.878Z" transform="translate(-96.861 -79.22)" fill="#787da7"/></g><g transform="translate(6.489 30.698)"><path d="M22.839,201.961a8.175,8.175,0,1,1-8.175-8.17A8.177,8.177,0,0,1,22.839,201.961Z" transform="translate(-6.489 -193.791)" fill="#787da7"/></g><g transform="translate(37.169 40.155)"><path d="M231.743,271.971a11.286,11.286,0,0,1,5.264,1.291,31.462,31.462,0,0,0,8.587-19.52l-12.7-.246a18.911,18.911,0,0,1-26.419,15.341l-6.311,11.042a31.654,31.654,0,0,0,20.244,2.6A11.362,11.362,0,0,1,231.743,271.971Z" transform="translate(-200.168 -253.496)" fill="#787da7"/></g><g transform="translate(60.571 61.819)"><path d="M364.243,398.427a8.171,8.171,0,1,1-8.17-8.172A8.17,8.17,0,0,1,364.243,398.427Z" transform="translate(-347.9 -390.255)" fill="#787da7"/></g><g transform="translate(37.051 6.642)"><path d="M237.247,52.735a11.361,11.361,0,0,1-17.92-9.275c0-.333.015-.656.04-.979a31.653,31.653,0,0,0-19.945,2.738l6.274,11.049A18.9,18.9,0,0,1,232.24,71.3l12.7-.388A31.424,31.424,0,0,0,237.247,52.735Z" transform="translate(-199.421 -41.928)" fill="#787da7"/></g><g transform="translate(60.146)"><path d="M361.561,8.174A8.17,8.17,0,1,1,353.393,0,8.165,8.165,0,0,1,361.561,8.174Z" transform="translate(-345.221)" fill="#787da7"/></g></g></svg>