<svg xmlns="http://www.w3.org/2000/svg" xmlns:xlink="http://www.w3.org/1999/xlink" width="130" height="82" viewBox="0 0 130 82"><defs><linearGradient id="a" x1="1" x2="0.04" y2="0.813" gradientUnits="objectBoundingBox"><stop offset="0" stop-color="#771efc"/><stop offset="1" stop-color="#efe5ff"/></linearGradient></defs><g transform="translate(-81 0)"><path d="M-1791,220a65.478,65.478,0,0,1-13.1-1.321,64.669,64.669,0,0,1-12.2-3.787,65,65,0,0,1-11.041-5.993,65.468,65.468,0,0,1-9.62-7.937,65.468,65.468,0,0,1-7.937-9.62,65.017,65.017,0,0,1-5.993-11.041,64.676,64.676,0,0,1-3.787-12.2A65.487,65.487,0,0,1-1856,155h130a65.479,65.479,0,0,1-1.321,13.1,64.679,64.679,0,0,1-3.787,12.2,65.013,65.013,0,0,1-5.993,11.041,65.472,65.472,0,0,1-7.937,9.62,65.463,65.463,0,0,1-9.62,7.937,65,65,0,0,1-11.041,5.993,64.674,64.674,0,0,1-12.2,3.787A65.482,65.482,0,0,1-1791,220Z" transform="translate(1937 -155)" fill="url(#a)"/><g transform="translate(54.332 5)" fill="#ece0ff"><path d="M88.516,77c-1.462-.585-1.828-1.678-1.71-3.189.566-7.195,1.058-14.4,1.58-21.594.174-2.394.358-4.786.544-7.269h-.942q-7.592,0-15.184,0c-1.414,0-2.429-.647-2.54-1.824a3.675,3.675,0,0,1,.47-1.977c2.592-4.746,5.237-9.463,7.867-14.188Q85.652,14.291,92.7,1.622A2.564,2.564,0,0,1,94.94,0a2.3,2.3,0,0,1,2.236,2.637q-.926,12.6-1.86,25.191c-.1,1.37-.187,2.742-.285,4.2h.92q7.592,0,15.184,0a2.527,2.527,0,0,1,2.09.819,2.288,2.288,0,0,1,.086,2.86Q110.378,41,107.432,46.277q-8.073,14.5-16.139,29.012A3.339,3.339,0,0,1,89.418,77Z" stroke="none"/><path d="M 89.23948669433594 76.00042724609375 C 89.70664215087891 75.80631256103516 90.06540679931641 75.43983459472656 90.41872406005859 74.80338287353516 C 94.62186431884766 67.23011779785156 98.90560150146484 59.53622817993164 103.0482864379883 52.09563827514648 C 104.2183990478516 49.99403762817383 105.3885116577148 47.89243698120117 106.5583877563477 45.79073715209961 L 107.827392578125 43.51129531860352 C 109.3392791748047 40.79581451416016 110.9026565551758 37.98789215087891 112.4353485107422 35.22388076782227 C 112.97900390625 34.24346160888672 112.7457656860352 33.83183670043945 112.4602127075195 33.49415969848633 C 112.1815032958984 33.16449356079102 111.7991485595703 33.03002548217773 111.1404800415039 33.03002548217773 L 111.1351089477539 33.03002548217773 C 108.3073806762695 33.03313827514648 105.5386428833008 33.03353881835938 103.4424438476562 33.03353881835938 L 93.96067810058594 33.03288269042969 L 94.03279113769531 31.96548271179199 C 94.06413269042969 31.50133895874023 94.09415435791016 31.04647064208984 94.12375640869141 30.59795951843262 C 94.18839263916016 29.61848258972168 94.24943542480469 28.69333839416504 94.31862640380859 27.75440406799316 C 94.58815765380859 24.09638214111328 94.85873413085938 20.43844985961914 95.12931060791016 16.78052711486816 C 95.4739990234375 12.1208381652832 95.83041381835938 7.302504539489746 96.17865753173828 2.563460350036621 C 96.21352386474609 2.089182615280151 96.07863616943359 1.650482535362244 95.80857849121094 1.359849214553833 C 95.58979034423828 1.124382495880127 95.29884338378906 0.9999269843101501 94.96720886230469 0.9999269843101501 L 94.95130920410156 1.000026941299438 C 94.47570037841797 1.005571365356445 94.07894897460938 1.192704796791077 93.57134246826172 2.107115983963013 C 89.99783325195312 8.544426918029785 86.35665893554688 15.08478260040283 82.83536529541016 21.40979385375977 C 81.71562194824219 23.42109298706055 80.59588623046875 25.43240547180176 79.47638702392578 27.44383811950684 C 78.8890380859375 28.49917221069336 78.30092620849609 29.5540943145752 77.71281433105469 30.60901641845703 C 75.70278930664062 34.21451568603516 73.62432098388672 37.9427604675293 71.61292266845703 41.62529373168945 C 71.36173248291016 42.08503723144531 71.22340393066406 42.63587188720703 71.260498046875 43.02861404418945 C 71.33589172363281 43.82672882080078 72.26117706298828 43.94667053222656 72.80601501464844 43.94713973999023 C 76.48111724853516 43.95021057128906 80.15601348876953 43.94970321655273 83.83123779296875 43.94919204711914 C 85.21712493896484 43.94899368286133 86.60301971435547 43.94880294799805 87.9888916015625 43.94880294799805 L 90.00833129882812 43.94880294799805 L 89.92771148681641 45.02360534667969 C 89.86849975585938 45.81293869018555 89.80945587158203 46.59318161010742 89.75087738037109 47.36724853515625 C 89.62277984619141 49.06013870239258 89.50177764892578 50.65914916992188 89.38346862792969 52.29045867919922 C 89.23272705078125 54.36869430541992 89.08195495605469 56.48218154907227 88.9361572265625 58.52609252929688 C 88.576904296875 63.56207275390625 88.20542144775391 68.76950836181641 87.80293273925781 73.89018249511719 C 87.75347137451172 74.51932525634766 87.80738067626953 74.98596954345703 87.96775817871094 75.31678009033203 C 88.05824279785156 75.50344085693359 88.23403930664062 75.76909637451172 88.72271728515625 76.00042724609375 L 89.23948669433594 76.00042724609375 M 89.41783142089844 77.00042724609375 L 88.51567840576172 77.00042724609375 C 87.05327606201172 76.41516876220703 86.68727111816406 75.32210540771484 86.80601501464844 73.81180572509766 C 87.37153625488281 66.61692810058594 87.86396789550781 59.41646194458008 88.38609313964844 52.21811676025391 C 88.55967712402344 49.82449340820312 88.74427032470703 47.43162536621094 88.93051147460938 44.94880294799805 L 87.9888916015625 44.94880294799805 C 82.92755889892578 44.94880294799805 77.86637115478516 44.95135498046875 72.80517578125 44.94713973999023 C 71.39144897460938 44.94593811035156 70.37613677978516 44.29994964599609 70.26493072509766 43.12265014648438 C 70.20421600341797 42.47983932495117 70.41847991943359 41.72581481933594 70.73536682128906 41.14582824707031 C 73.32759857177734 36.39987182617188 75.97270965576172 31.68283843994141 78.60260009765625 26.95752716064453 C 83.30245971679688 18.5131721496582 88.00651550292969 10.07123851776123 92.697021484375 1.621760368347168 C 93.20151519775391 0.7129714488983154 93.82865905761719 0.01304920110851526 94.93965911865234 9.364556171931326e-05 C 96.29868316650391 -0.01587336324155331 97.28506469726562 1.152520298957825 97.17596435546875 2.636771440505981 C 96.55891418457031 11.03396034240723 95.93463134765625 19.43069458007812 95.31592559814453 27.82788276672363 C 95.21495819091797 29.19806098937988 95.12936401367188 30.56943893432617 95.03050994873047 32.03288269042969 L 95.95044708251953 32.03288269042969 C 101.0116348266602 32.03288269042969 106.0728378295898 32.03560256958008 111.1340103149414 32.03002548217773 C 111.9439849853516 32.03005599975586 112.6749114990234 32.19923782348633 113.2238693237305 32.84853744506836 C 113.9100646972656 33.65997314453125 113.9468307495117 34.56016159057617 113.3098907470703 35.70882797241211 C 111.3550643920898 39.23409271240234 109.3925552368164 42.75498199462891 107.4321594238281 46.27708435058594 C 102.0500030517578 55.94620513916016 96.66319274902344 65.61276245117188 91.2930908203125 75.28865051269531 C 90.84947967529297 76.08773040771484 90.29752349853516 76.70854949951172 89.41783142089844 77.00042724609375 Z" stroke="none" fill="rgba(255,255,255,0.27)"/></g><g transform="translate(-110.431 -36.863)" fill="#ece0ff"><path d="M289.061,82.008c-.2,1.484-.323,2.982-.606,4.45A32.3,32.3,0,0,1,264.249,111.8c.105-.232.171-.4.254-.556.152-.287.315-.57.473-.854a17.437,17.437,0,0,1,2.214-3.814c.977-1.006,2.469-1.5,3.707-2.266a27.375,27.375,0,0,0,13.188-19.03,27.747,27.747,0,0,0-17.258-30.838c-.347-.135-.69-.283-1.065-.437.114-1.516.225-3.007.353-4.711,1.8.763,3.546,1.383,5.182,2.217a31.974,31.974,0,0,1,14.978,15.739,31.379,31.379,0,0,1,2.661,10.426c.024.294.082.584.125.876Z" stroke="none"/><path d="M 266.1903686523438 110.2222061157227 C 267.9975891113281 109.655029296875 269.7252197265625 108.9396743774414 271.3480529785156 108.085563659668 C 273.6021728515625 106.8991928100586 275.7301330566406 105.4050521850586 277.6727905273438 103.6446533203125 C 280.2596435546875 101.3004150390625 282.3954467773438 98.65292358398438 284.0209045410156 95.77574920654297 C 285.6531372070312 92.88653564453125 286.8146057128906 89.68801879882812 287.4729919433594 86.26900482177734 C 287.6595458984375 85.30038452148438 287.7790832519531 84.28301239013672 287.8947143554688 83.29913330078125 C 287.9468994140625 82.85516357421875 288.0007629394531 82.39675903320312 288.0606689453125 81.94243621826172 L 288.0606689453125 78.62300109863281 C 288.0509033203125 78.55951690673828 288.0405578613281 78.49607849121094 288.0302429199219 78.43263244628906 C 287.9952087402344 78.21744537353516 287.9590148925781 77.99492645263672 287.9391784667969 77.75504302978516 C 287.6425170898438 74.17509460449219 286.7760620117188 70.77814483642578 285.3638610839844 67.65855407714844 C 283.8331604003906 64.27719879150391 281.8390808105469 61.28060531616211 279.4369812011719 58.75201416015625 C 277.0238647460938 56.21180725097656 274.1324157714844 54.07391738891602 270.8429565429688 52.39772415161133 C 269.7686462402344 51.85032653808594 268.6410217285156 51.39665603637695 267.4472045898438 50.91633605957031 C 267.30224609375 50.85801315307617 267.1559753417969 50.79916763305664 267.0087280273438 50.73970794677734 L 266.8126831054688 53.35487365722656 C 266.9400634765625 53.40729141235352 267.0649719238281 53.45785140991211 267.1893920898438 53.50632476806641 C 280.0217895507812 58.50471496582031 287.541015625 71.94160461425781 285.0684509277344 85.45625305175781 C 283.5255432128906 93.89042663574219 278.934326171875 100.5187454223633 271.4223022460938 105.1570892333984 C 270.9656982421875 105.4390335083008 270.4892272949219 105.6811447143555 270.0284118652344 105.9152984619141 C 269.2094421386719 106.3314361572266 268.4359130859375 106.724494934082 267.9070434570312 107.2688751220703 C 267.3295593261719 107.8633270263672 266.92333984375 108.7071990966797 266.4932556152344 109.6006088256836 C 266.3946228027344 109.8054962158203 266.2943115234375 110.0138397216797 266.1903686523438 110.2222061157227 M 264.2489929199219 111.7961578369141 C 264.3540344238281 111.5641021728516 264.4197082519531 111.3974456787109 264.5028991699219 111.2399749755859 C 264.6552429199219 110.9524841308594 264.8179626464844 110.6703948974609 264.9760437011719 110.3858947753906 C 265.6937561035156 109.0949859619141 266.1962890625 107.5947723388672 267.1897583007812 106.5720825195312 C 268.1670837402344 105.5661163330078 269.6587219238281 105.0708084106445 270.8968811035156 104.3062362670898 C 278.0580139160156 99.88455200195312 282.5657348632812 93.580078125 284.0847778320312 85.27630615234375 C 286.4817199707031 72.175048828125 279.2127075195312 59.26274490356445 266.8264465332031 54.43813705444336 C 266.4791259765625 54.30281448364258 266.1363220214844 54.15544509887695 265.7614135742188 54.00130462646484 C 265.8750305175781 52.48481369018555 265.9868469238281 50.99424743652344 266.1146240234375 49.29000473022461 C 267.9161987304688 50.05336380004883 269.6609802246094 50.67313385009766 271.2969665527344 51.5067253112793 C 278.1273193359375 54.98722457885742 283.1140747070312 60.26389694213867 286.2748413085938 67.24615478515625 C 287.7739868164062 70.55775451660156 288.6353149414062 74.04669189453125 288.9357604980469 77.67246246337891 C 288.9600219726562 77.96600341796875 289.0181884765625 78.25666809082031 289.0606689453125 78.54854583740234 L 289.0606689453125 82.00840759277344 C 288.8628540039062 83.49249267578125 288.7376098632812 84.99045562744141 288.4549560546875 86.45811462402344 C 287.0877685546875 93.55776214599609 283.6900024414062 99.54129791259766 278.3442993164062 104.3856582641602 C 274.3226928710938 108.0299530029297 269.649658203125 110.4974060058594 264.2489929199219 111.7961578369141 Z" stroke="none" fill="rgba(255,255,255,0.27)"/></g><path d="M22.94,109.431a32.257,32.257,0,0,1,1.878-62.269c-1.033,1.854-2.029,3.668-3.061,5.462a1.443,1.443,0,0,1-.662.452A27.542,27.542,0,0,0,6.639,67.851,26.727,26.727,0,0,0,4.731,81.977a27.482,27.482,0,0,0,10.558,18.566,25.117,25.117,0,0,0,7.251,4.029.9.9,0,0,1,.7,1.141c-.146,1.216-.2,2.442-.3,3.718" transform="translate(114 -35.056)" fill="#ece0ff" stroke="rgba(255,255,255,0.27)" stroke-width="1"/></g></svg>