<svg xmlns="http://www.w3.org/2000/svg" xmlns:xlink="http://www.w3.org/1999/xlink" width="130" height="78.199" viewBox="0 0 130 78.199"><defs><linearGradient id="a" x1="1" x2="0.04" y2="0.813" gradientUnits="objectBoundingBox"><stop offset="0" stop-color="#fd0354"/><stop offset="1" stop-color="#ff90b4"/></linearGradient></defs><g transform="translate(-81 0)"><path d="M-1791,220a65.478,65.478,0,0,1-13.1-1.321,64.669,64.669,0,0,1-12.2-3.787,65,65,0,0,1-11.041-5.993,65.468,65.468,0,0,1-9.62-7.937,65.468,65.468,0,0,1-7.937-9.62,65.017,65.017,0,0,1-5.993-11.041,64.676,64.676,0,0,1-3.787-12.2A65.487,65.487,0,0,1-1856,155h130a65.479,65.479,0,0,1-1.321,13.1,64.679,64.679,0,0,1-3.787,12.2,65.013,65.013,0,0,1-5.993,11.041,65.472,65.472,0,0,1-7.937,9.62,65.463,65.463,0,0,1-9.62,7.937,65,65,0,0,1-11.041,5.993,64.674,64.674,0,0,1-12.2,3.787A65.482,65.482,0,0,1-1791,220Z" transform="translate(1937 -155)" fill="url(#a)"/><path d="M64.513,62.836H5.469c-.35-.077-.706-.136-1.05-.233A5.781,5.781,0,0,1,.007,56.762q-.016-18.508,0-37.017a6.24,6.24,0,0,1,.2-1.619,5.76,5.76,0,0,1,5.925-4.378c3.074-.016,6.148,0,9.222,0h.788v-.83q0-4.269,0-8.537c0-2.77,1.6-4.374,4.362-4.375Q34.993,0,49.475,0c2.76,0,4.358,1.609,4.361,4.378q0,4.3,0,8.605c0,.239.023.478.038.759.369,0,.662,0,.955,0,3.256.012,6.512-.014,9.767.051a5.384,5.384,0,0,1,3.969,1.993,7.094,7.094,0,0,1,1.413,3.047V57.643a6.321,6.321,0,0,1-2.4,4.031,7.347,7.347,0,0,1-3.063,1.162m-18.476-55H23.968v5.85H46.037Z" transform="translate(110.5 14.863)" fill="#ffcede" stroke="rgba(255,255,255,0.27)" stroke-width="1"/></g></svg>