<svg id="Group_2069" data-name="Group 2069" xmlns="http://www.w3.org/2000/svg" xmlns:xlink="http://www.w3.org/1999/xlink" width="18.312" height="16" viewBox="0 0 18.312 16">
  <defs>
    <clipPath id="clip-path">
      <rect id="Rectangle_764" data-name="Rectangle 764" width="18.312" height="16" fill="#787da7"/>
    </clipPath>
  </defs>
  <g id="Group_2068" data-name="Group 2068" clip-path="url(#clip-path)">
    <path id="Path_2546" data-name="Path 2546" d="M12.361,4.186c0-.845,0-1.643,0-2.441A11.63,11.63,0,0,1,12.374.564c.019-.189.124-.468.263-.523A.854.854,0,0,1,13.3.106a5.906,5.906,0,0,1,.811.69q1.945,1.716,3.892,3.43c.254.223.459.456.312.819-.137.34-.427.392-.753.392q-8.316,0-16.632,0a1.455,1.455,0,0,1-.45-.059.511.511,0,0,1-.406-.6,1.19,1.19,0,0,1,.445-.543c.1-.077.294-.041.445-.041q5.493,0,10.986,0h.407" transform="translate(-0.056 0)" fill="#787da7"/>
    <path id="Path_2547" data-name="Path 2547" d="M6.026,138.631c0,1.2,0,2.341,0,3.483,0,.273.014.545-.292.682a.711.711,0,0,1-.829-.184q-2.279-2.028-4.575-4.038c-.235-.206-.41-.43-.3-.759a.666.666,0,0,1,.73-.427q8.334,0,16.668,0a1.723,1.723,0,0,1,.415.043.559.559,0,0,1,.458.578.568.568,0,0,1-.487.594,1.774,1.774,0,0,1-.379.022H6.026" transform="translate(0 -126.862)" fill="#787da7"/>
  </g>
</svg>
