<svg xmlns="http://www.w3.org/2000/svg" width="21.295" height="21.295" viewBox="0 0 21.295 21.295"><g transform="translate(-10 -10)"><path d="M28.931,12.364V28.931H12.364V12.364H28.931m0-2.364H12.364A2.367,2.367,0,0,0,10,12.364V28.931a2.367,2.367,0,0,0,2.364,2.364H28.931a2.365,2.365,0,0,0,2.364-2.364V12.364A2.367,2.367,0,0,0,28.931,10Z" fill="#771efc"/><path d="M276.3,275.963h2.056V265.8H276.3v10.163Zm11.208-9.011a2.7,2.7,0,0,0-1.458-1,11.46,11.46,0,0,0-2.44-.154h-3.288v10.163h2.058v-3.837h1.336a12.2,12.2,0,0,0,2.134-.139,3.107,3.107,0,0,0,1.06-.476,2.908,2.908,0,0,0,.86-1,3.28,3.28,0,0,0,.337-1.567,3.337,3.337,0,0,0-.6-1.995Zm-1.767,2.794a1.332,1.332,0,0,1-.645.506,5.309,5.309,0,0,1-1.628.154h-1.121v-2.888h1a9.615,9.615,0,0,1,1.473.076,1.468,1.468,0,0,1,.83.445,1.345,1.345,0,0,1,.322.921,1.262,1.262,0,0,1-.228.784Z" transform="translate(-260.513 -250.242)" fill="#771efc"/></g></svg>