<svg xmlns="http://www.w3.org/2000/svg" width="33.486" height="26.02" viewBox="0 0 33.486 26.02"><g transform="translate(0.085 -2.798)" opacity="0.99"><path d="M14.714,20.476v-2.5h1.623a7.532,7.532,0,0,1,1.3-3.146l-1.146-1.147,1.77-1.77,1.147,1.147a7.532,7.532,0,0,1,3.146-1.3V10.129h2.5v1.623a7.543,7.543,0,0,1,1.824.555,7.3,7.3,0,0,0,.137-1.335A7.558,7.558,0,0,0,14.243,5.5a6.347,6.347,0,0,0-8.848,5.831v.049a5.433,5.433,0,0,0,.458,10.847h11a7.545,7.545,0,0,1-.52-1.753Z" transform="translate(0 0)" fill="none" stroke="#6c31f2" stroke-linecap="round" stroke-linejoin="round" stroke-width="1"/><path d="M12.781,6.809a4.81,4.81,0,0,0-6.707,4.419v.037m20.747.853a4.7,4.7,0,0,0-.469-.084c.112.072.228.137.338.216Z" transform="translate(1.515 0.806)" fill="none" stroke="#6c31f2" stroke-linecap="round" stroke-linejoin="round" stroke-width="1"/><path d="M28.87,16.553h-.61a7.535,7.535,0,0,0-1.3-3.146l.616-.617.53-.53-1.77-1.77L25.318,11.5l-.131.132c-.109-.079-.227-.143-.34-.216a7.548,7.548,0,0,0-2.807-1.086V8.712h-2.5v1.623a7.533,7.533,0,0,0-3.146,1.3l-1.147-1.147-1.77,1.771,1.146,1.146a7.533,7.533,0,0,0-1.3,3.146H11.694v2.5h1.623a7.724,7.724,0,0,0,1.3,3.148L13.473,23.35l1.77,1.771,1.147-1.147a7.53,7.53,0,0,0,3.146,1.3V26.9h2.5V25.275a7.534,7.534,0,0,0,3.146-1.3l1.147,1.147L28.1,23.35,26.957,22.2a7.538,7.538,0,0,0,1.3-3.148h1.623v-2.5Z" transform="translate(3.019 1.42)" fill="none" stroke="#6c31f2" stroke-linecap="round" stroke-linejoin="round" stroke-width="1"/><path d="M19.769,12.52a4.266,4.266,0,1,0,4.266,4.266,4.266,4.266,0,0,0-4.266-4.266Zm-.022,6.027a1.713,1.713,0,1,1,1.713-1.713,1.713,1.713,0,0,1-1.713,1.713Z" transform="translate(4.039 2.439)" fill="none" stroke="#6c31f2" stroke-linecap="round" stroke-linejoin="round" stroke-width="1"/><path d="M19.213,14.572a1.713,1.713,0,1,0,1.713,1.713A1.713,1.713,0,0,0,19.213,14.572Z" transform="translate(4.573 2.989)" fill="none" stroke="#6c31f2" stroke-linecap="round" stroke-linejoin="round" stroke-width="1"/></g></svg>