<svg xmlns="http://www.w3.org/2000/svg" width="26.509" height="26.512" viewBox="0 0 26.509 26.512"><g transform="translate(-10 -10)"><path d="M32.029,17.823a8.833,8.833,0,0,0-17.55,0A5.073,5.073,0,0,0,10,22.7c0,2.786,2.426,4.972,5.524,4.972h1.1V18.837a6.627,6.627,0,0,1,13.254,0v7.739c.027,4-2.237,5.1-3.552,5.4a3.33,3.33,0,1,0,.065,2.223,6.856,6.856,0,0,0,3.663-1.858,7.351,7.351,0,0,0,1.994-4.763A5.071,5.071,0,0,0,36.509,22.7,5.073,5.073,0,0,0,32.029,17.823Zm-17.612,7.49a2.813,2.813,0,0,1-2.21-2.61,2.81,2.81,0,0,1,2.21-2.61ZM23.254,34.3a1.1,1.1,0,1,1,1.1-1.1A1.1,1.1,0,0,1,23.254,34.3Zm8.837-8.986V20.092A2.813,2.813,0,0,1,34.3,22.7,2.818,2.818,0,0,1,32.092,25.313Z" fill="#771efc"/></g></svg>