<svg xmlns="http://www.w3.org/2000/svg" width="22.572" height="30.061" viewBox="0 0 22.572 30.061"><g transform="translate(-0.005 0.001)"><path d="M22.2,15.515a22.608,22.608,0,0,1-5.426,10.471L16.767,26a21.782,21.782,0,0,1-4.751,3.929.673.673,0,0,1-.766.027,26.869,26.869,0,0,1-6.6-5.893,20.961,20.961,0,0,1-4.44-9.588A12.757,12.757,0,0,1,1.8,5.5,11.016,11.016,0,0,1,4.263,2.774,12,12,0,0,1,11.788,0a10.618,10.618,0,0,1,7.149,2.919,10.37,10.37,0,0,1,1.9,2.319A14.233,14.233,0,0,1,22.2,15.515ZM11.289,3.241A8.194,8.194,0,1,1,5.5,5.641a8.145,8.145,0,0,1,5.786-2.4Z" transform="translate(0)" fill="#771efc" fill-rule="evenodd"/></g></svg>