<svg xmlns="http://www.w3.org/2000/svg" width="31.992" height="32.096" viewBox="0 0 31.992 32.096"><g transform="translate(-109.039 -95.45)"><path d="M109.89,269.515V257.25l12.166,5.806v12.317Z" transform="translate(0 -148.857)" fill="#fff" stroke="#6c31f2" stroke-linecap="round" stroke-linejoin="round" stroke-width="1.5"/><path d="M282.106,269.515V257.25l-12.166,5.806v12.317Z" transform="translate(-147.933 -148.857)" fill="#fff" stroke="#6c31f2" stroke-linecap="round" stroke-linejoin="round" stroke-width="1.5"/><path d="M111.95,184.973l11.736-5.883,12.325,5.883" transform="translate(-1.904 -76.614)" fill="none" stroke="#6c31f2" stroke-linecap="round" stroke-linejoin="round" stroke-width="1.5"/><path d="M184.12,144.767V138.18l6.535,3.118v6.616Z" transform="translate(-68.61 -38.802)" fill="#fff" stroke="#6c31f2" stroke-linecap="round" stroke-linejoin="round" stroke-width="1.5"/><path d="M276.625,144.767V138.18L270.09,141.3v6.616Z" transform="translate(-148.071 -38.802)" fill="#fff" stroke="#6c31f2" stroke-linecap="round" stroke-linejoin="round" stroke-width="1.5"/><path d="M185.23,99.359l6.3-3.159,6.62,3.159" transform="translate(-69.636)" fill="none" stroke="#6c31f2" stroke-linecap="round" stroke-linejoin="round" stroke-width="1.5"/><path d="M339.02,378.337V371.75l6.534,3.118v6.616Z" transform="translate(-211.783 -254.688)" fill="#fff" stroke="#6c31f2" stroke-linecap="round" stroke-linejoin="round" stroke-width="1.5"/><path d="M431.525,378.337V371.75l-6.535,3.118v6.616Z" transform="translate(-291.244 -254.688)" fill="#fff" stroke="#6c31f2" stroke-linecap="round" stroke-linejoin="round" stroke-width="1.5"/><path d="M340.13,332.929l6.3-3.159,6.621,3.159-6.5,3.137Z" transform="translate(-212.809 -215.887)" fill="#fff" stroke="#6c31f2" stroke-linecap="round" stroke-linejoin="round" stroke-width="1.5"/></g></svg>