<svg id="_31917-email-white-colored" data-name="31917-email-white-colored" xmlns="http://www.w3.org/2000/svg" width="35.811" height="35.811" viewBox="0 0 35.811 35.811">
  <g id="ICON_Kopie">
    <path id="Path_2555" data-name="Path 2555" d="M35.252,15.34s-3.133-2.938-3.917-3.665V6.191a1.684,1.684,0,0,0-1.679-1.679H23.725L19.64.679a2.7,2.7,0,0,0-3.469,0L12.086,4.512H6.155A1.684,1.684,0,0,0,4.476,6.191v5.456C3.693,12.4.56,15.34.56,15.34A2.17,2.17,0,0,0,0,16.823V33.609a2.245,2.245,0,0,0,2.238,2.238H33.573a2.245,2.245,0,0,0,2.238-2.238V16.823A2.17,2.17,0,0,0,35.252,15.34Z" transform="translate(0 -0.036)" fill="#e9f0fb"/>
    <path id="Path_2556" data-name="Path 2556" d="M64,0" transform="translate(-46.094)" fill="#6f1cea"/>
  </g>
  <g id="ICON">
    <g id="email_1_" transform="translate(0 0.014)">
      <path id="Path_2557" data-name="Path 2557" d="M16,28.254V17.679A1.684,1.684,0,0,1,17.679,16h23.5a1.684,1.684,0,0,1,1.679,1.679V28.254l-1.119.56V17.679a.561.561,0,0,0-.56-.56h-23.5a.561.561,0,0,0-.56.56V28.814ZM34.549,23.47c0,2.182-1.623,3.581-2.714,3.581a1.687,1.687,0,0,1-1.4-.5c-.028-.056-.056-.084-.084-.14a2.381,2.381,0,0,1-1.511.643,2.16,2.16,0,0,1-.42-.056,1.711,1.711,0,0,1-1.119-.9,3.02,3.02,0,0,1-.028-2.462,2.7,2.7,0,0,1,2.658-1.93,2.11,2.11,0,0,1,.811.252.571.571,0,0,1,1.007.476s-.168.643-.476,2.378c-.14.783,0,1.007.028,1.035.084.084.364.084.532.084A2.365,2.365,0,0,0,33.43,23.47c0-3.217-2.35-3.553-3.357-3.553a4.946,4.946,0,0,0-4.644,4.952,3.734,3.734,0,0,0,3.777,4,4.2,4.2,0,0,0,1.986-.588.563.563,0,0,1,.783.2.541.541,0,0,1-.168.755,5.509,5.509,0,0,1-2.574.755,4.867,4.867,0,0,1-4.9-5.12A5.989,5.989,0,0,1,30.1,18.8,4.271,4.271,0,0,1,34.549,23.47Zm-4.169,0c0-.5-.2-.616-.532-.643-.5-.056-1.175.308-1.539,1.231a1.958,1.958,0,0,0-.028,1.539.662.662,0,0,0,.392.336c.42.112,1.063-.28,1.455-1.063,0-.084.028-.168.028-.252.084-.448.168-.839.224-1.147Z" transform="translate(-11.524 -11.538)" fill="#f8b409"/>
      <path id="Path_2558" data-name="Path 2558" d="M35.252,15.34s-3.133-2.938-3.917-3.665v1.511L33.8,15.508,20.955,21.942,19.64,20.767a2.7,2.7,0,0,0-3.469,0l-1.315,1.175c-.028,0-12.842-6.435-12.842-6.435l2.462-2.322V11.647C3.693,12.4.56,15.34.56,15.34A2.17,2.17,0,0,0,0,16.823V33.609a2.245,2.245,0,0,0,2.238,2.238H33.573a2.245,2.245,0,0,0,2.238-2.238V16.823A2.17,2.17,0,0,0,35.252,15.34ZM1.119,33.609V16.823a1.267,1.267,0,0,1,.084-.448l12.73,6.379L1.147,33.945C1.147,33.833,1.119,33.721,1.119,33.609Zm32.454,1.119H2.238a.545.545,0,0,1-.224-.028L16.926,21.635a1.561,1.561,0,0,1,1.986,0L33.825,34.7A.774.774,0,0,1,33.573,34.728Zm1.119-1.119a1.4,1.4,0,0,1-.056.336L21.85,22.754l12.73-6.379a1.16,1.16,0,0,1,.084.448V33.609ZM13.709,4.512H12.086L16.171.679a2.7,2.7,0,0,1,3.469,0l4.085,3.833H22.1L18.885,1.491a1.558,1.558,0,0,0-1.958.028Z" transform="translate(0 -0.05)" fill="#1e266d"/>
    </g>
    <path id="Path_2559" data-name="Path 2559" d="M64,0" transform="translate(-46.094)" fill="#fff"/>
  </g>
</svg>
