<svg xmlns="http://www.w3.org/2000/svg" width="28.31" height="41.178" viewBox="0 0 28.31 41.178">
  <g id="Group_2075" data-name="Group 2075" transform="translate(-543 -627)">
    <path id="Path_2550" data-name="Path 2550" d="M25.736,16.728H23.162V9.008a9.008,9.008,0,0,0-18.015,0v7.721H2.574A2.581,2.581,0,0,0,0,19.3V38.6a2.581,2.581,0,0,0,2.574,2.574H25.736A2.581,2.581,0,0,0,28.31,38.6V19.3A2.581,2.581,0,0,0,25.736,16.728Zm-10.52,11.9,1.319,4.825H11.774l1.319-4.825a.61.61,0,0,0-.29-.708,2.5,2.5,0,0,1-.869-.869,2.6,2.6,0,1,1,3.571.869A.61.61,0,0,0,15.216,28.631Zm-6.209-11.9V9.008a5.147,5.147,0,0,1,10.294,0v7.721Z" transform="translate(543 627)" fill="#e9f0fb"/>
    <g id="ssl_2_" transform="translate(543 627)">
      <path id="Path_2550-2" data-name="Path 2550" d="M39.077,80.868H32.643A.645.645,0,0,1,32,80.225a.241.241,0,0,1,.032-.161l1.415-5.212A3.749,3.749,0,0,1,32,71.86a3.86,3.86,0,1,1,6.305,2.992l1.415,5.212a.643.643,0,0,1-.45.8Zm-5.6-1.287h4.761l-1.319-4.826a.61.61,0,0,1,.29-.708,2.6,2.6,0,1,0-3.571-.869,2.5,2.5,0,0,0,.869.869.645.645,0,0,1,.29.708Z" transform="translate(-21.706 -46.124)" fill="#f8b409"/>
      <path id="Path_2551" data-name="Path 2551" d="M25.736,16.728H23.162V9.008a9.008,9.008,0,0,0-18.015,0v7.721H2.574A2.581,2.581,0,0,0,0,19.3V38.6a2.581,2.581,0,0,0,2.574,2.574H25.736A2.581,2.581,0,0,0,28.31,38.6V19.3A2.581,2.581,0,0,0,25.736,16.728ZM6.434,9.008a7.721,7.721,0,0,1,15.442,0v7.721H19.3V9.008a5.147,5.147,0,0,0-10.294,0v7.721H6.434Zm11.581,7.721H10.294V9.008a3.86,3.86,0,1,1,7.721,0ZM27.023,38.6a1.291,1.291,0,0,1-1.287,1.287H2.574A1.291,1.291,0,0,1,1.287,38.6V19.3a1.291,1.291,0,0,1,1.287-1.287H25.736A1.291,1.291,0,0,1,27.023,19.3Z" fill="#1e266d"/>
    </g>
  </g>
</svg>
