<svg id="_31935-user-data-white-colored" data-name="31935-user-data-white-colored" xmlns="http://www.w3.org/2000/svg" width="32.565" height="40.081" viewBox="0 0 32.565 40.081">
  <path id="Path_2552" data-name="Path 2552" d="M30.687,0H1.879A1.884,1.884,0,0,0,0,1.879V38.2a1.884,1.884,0,0,0,1.879,1.879H30.687A1.884,1.884,0,0,0,32.565,38.2V1.879A1.884,1.884,0,0,0,30.687,0ZM11.273,5.01A1.879,1.879,0,1,1,9.394,6.889,1.884,1.884,0,0,1,11.273,5.01Zm3.6,12.369a.329.329,0,0,1-.282.157H7.953a.4.4,0,0,1-.282-.125.763.763,0,0,1-.125-.689l.689-3.695a.6.6,0,0,1,.564-.47h4.979a.639.639,0,0,1,.564.47l.689,3.695A.837.837,0,0,1,14.874,17.379Z" fill="#e9f0fb"/>
  <g id="user-data">
    <path id="Path_2553" data-name="Path 2553" d="M24.986,18.263a3.131,3.131,0,1,1,3.131-3.131A3.14,3.14,0,0,1,24.986,18.263Zm0-5.01a1.879,1.879,0,1,0,1.879,1.879A1.884,1.884,0,0,0,24.986,13.253ZM28.3,27.03H21.666a1.652,1.652,0,0,1-1.253-.595,2.118,2.118,0,0,1-.407-1.722l.689-3.695a1.837,1.837,0,0,1,1.785-1.5h4.979a1.874,1.874,0,0,1,1.785,1.5l.689,3.695a2.145,2.145,0,0,1-.407,1.722A1.543,1.543,0,0,1,28.3,27.03Zm-5.824-6.263a.639.639,0,0,0-.564.47l-.689,3.695a.87.87,0,0,0,.125.689.34.34,0,0,0,.282.125h6.638a.4.4,0,0,0,.282-.125.87.87,0,0,0,.125-.689l-.689-3.695a.57.57,0,0,0-.564-.47Z" transform="translate(-13.713 -8.242)" fill="#f8b409"/>
    <path id="Path_2554" data-name="Path 2554" d="M30.687,40.081H1.879A1.884,1.884,0,0,1,0,38.2V1.879A1.884,1.884,0,0,1,1.879,0H30.687a1.884,1.884,0,0,1,1.879,1.879V38.2A1.884,1.884,0,0,1,30.687,40.081ZM1.879,1.253a.628.628,0,0,0-.626.626V38.2a.628.628,0,0,0,.626.626H30.687a.628.628,0,0,0,.626-.626V1.879a.628.628,0,0,0-.626-.626ZM27.555,23.172a.628.628,0,0,0-.626-.626H5.636a.626.626,0,0,0,0,1.253H26.929A.628.628,0,0,0,27.555,23.172Zm0,3.758a.628.628,0,0,0-.626-.626H5.636a.626.626,0,0,0,0,1.253H26.929A.628.628,0,0,0,27.555,26.929Zm0,3.758a.628.628,0,0,0-.626-.626H5.636a.626.626,0,1,0,0,1.253H26.929A.628.628,0,0,0,27.555,30.687ZM15.03,34.444a.628.628,0,0,0-.626-.626H5.636a.626.626,0,0,0,0,1.253H14.4A.628.628,0,0,0,15.03,34.444Zm12.525-26.3a.628.628,0,0,0-.626-.626H19.414a.626.626,0,1,0,0,1.253h7.515A.628.628,0,0,0,27.555,8.141Zm0,3.758a.628.628,0,0,0-.626-.626H19.414a.626.626,0,1,0,0,1.253h7.515A.628.628,0,0,0,27.555,11.9Zm0,3.758a.628.628,0,0,0-.626-.626H19.414a.626.626,0,1,0,0,1.253h7.515A.628.628,0,0,0,27.555,15.656Z" fill="#1e266d"/>
  </g>
</svg>
