<svg xmlns="http://www.w3.org/2000/svg" width="42" height="42" viewBox="0 0 42 42"><rect width="42" height="42" fill="none"/><path d="M38.822,24.418a13.73,13.73,0,1,1-27.459,0V14.483H14.9L10.323,9.91,5.75,14.483H9.283v9.936a15.81,15.81,0,0,0,31.62,0Z" transform="translate(-2.409 -4.152)" fill="#771efc"/><rect width="1.04" height="2.545" transform="translate(22.166 29.319)" fill="#771efc"/><rect width="1.04" height="2.545" transform="translate(28.537 27.109) rotate(-45)" fill="#771efc"/><rect width="2.545" height="1.04" transform="translate(31.474 20.005)" fill="#771efc"/><rect width="1.04" height="2.545" transform="translate(22.166 9.192)" fill="#771efc"/><rect width="1.04" height="2.545" transform="translate(14.302 12.88) rotate(-45)" fill="#771efc"/><rect width="2.545" height="1.04" transform="translate(11.347 20.005)" fill="#771efc"/><rect width="2.545" height="1.04" transform="translate(14.301 28.176) rotate(-45)" fill="#771efc"/><path d="M35.62,33.394a4.364,4.364,0,0,0,3.736-6.63l5.008-5.014-1.47-1.47L37.88,25.294a4.323,4.323,0,0,0-2.26-.639,4.369,4.369,0,1,0,0,8.715Zm0-7.7a3.335,3.335,0,0,1,1.5.36l-.918.959a2.08,2.08,0,1,0,1.54,2.01,2.01,2.01,0,0,0-.07-.535l.959-.965a3.26,3.26,0,0,1,.36,1.5A3.329,3.329,0,1,1,35.62,25.7Z" transform="translate(-12.96 -8.497)" fill="#771efc"/></svg>