<svg xmlns="http://www.w3.org/2000/svg" width="31" height="31" viewBox="0 0 31 31"><path d="M2,14.354H12.854a1.5,1.5,0,0,0,1.5-1.5V2a1.5,1.5,0,0,0-1.5-1.5H2A1.5,1.5,0,0,0,.5,2V12.854A1.5,1.5,0,0,0,2,14.354ZM3.5,3.5h7.854v7.854H3.5ZM30,.5H19.146a1.5,1.5,0,0,0-1.5,1.5V12.854a1.5,1.5,0,0,0,1.5,1.5H30a1.5,1.5,0,0,0,1.5-1.5V2A1.5,1.5,0,0,0,30,.5ZM28.5,11.354H20.646V3.5H28.5ZM2,31.5H12.854a1.5,1.5,0,0,0,1.5-1.5V19.146a1.5,1.5,0,0,0-1.5-1.5H2a1.5,1.5,0,0,0-1.5,1.5V30A1.5,1.5,0,0,0,2,31.5ZM3.5,20.646h7.854V28.5H3.5ZM30,23.073H26.073V19.146a1.5,1.5,0,0,0-3,0v3.927H19.146a1.5,1.5,0,0,0,0,3h3.927V30a1.5,1.5,0,0,0,3,0V26.073H30a1.5,1.5,0,0,0,0-3Z" transform="translate(-0.5 -0.5)" fill="#771efc"/></svg>