<svg xmlns="http://www.w3.org/2000/svg" width="25.783" height="23.188" viewBox="0 0 25.783 23.188"><path d="M25.036,4.8H10.8a3.964,3.964,0,0,0-7.544,0H1.748a1.248,1.248,0,0,0,0,2.5H3.253a3.968,3.968,0,0,0,7.544,0H25.036a1.248,1.248,0,1,0,0-2.5Zm0,15.212H23.53a3.968,3.968,0,0,0-7.544,0H1.748a1.248,1.248,0,0,0,0,2.5H15.987a3.968,3.968,0,0,0,7.544,0h1.505a1.248,1.248,0,1,0,0-2.5Zm0-7.61H17.159a3.962,3.962,0,0,0-7.535,0H1.748a1.248,1.248,0,0,0,0,2.5H9.624a3.962,3.962,0,0,0,7.535,0h7.876a1.248,1.248,0,1,0,0-2.5Z" transform="translate(-0.5 -2.06)" fill="#771efc"/></svg>