<svg xmlns="http://www.w3.org/2000/svg" width="21" height="21" viewBox="0 0 21 21">
  <path id="equalizer" d="M1.516,12.016h6.27a3.364,3.364,0,0,0,6.428,0h6.27a1.016,1.016,0,1,0,0-2.032h-6.27a3.364,3.364,0,0,0-6.428,0H1.516a1.016,1.016,0,0,0,0,2.032ZM11,9.645A1.355,1.355,0,1,1,9.645,11,1.356,1.356,0,0,1,11,9.645ZM1.516,4.9H3.383a3.364,3.364,0,0,0,6.428,0H20.484a1.016,1.016,0,1,0,0-2.032H9.811a3.364,3.364,0,0,0-6.428,0H1.516a1.016,1.016,0,0,0,0,2.032ZM6.6,2.532A1.355,1.355,0,1,1,5.242,3.887,1.356,1.356,0,0,1,6.6,2.532Zm-5.081,16.6H12.189a3.364,3.364,0,0,0,6.428,0h1.866a1.016,1.016,0,1,0,0-2.032H18.617a3.364,3.364,0,0,0-6.428,0H1.516a1.016,1.016,0,0,0,0,2.032ZM15.4,16.758a1.355,1.355,0,1,1-1.355,1.355A1.356,1.356,0,0,1,15.4,16.758Z" transform="translate(-0.5 -0.5)" fill="#787da7"/>
</svg>
