<svg xmlns="http://www.w3.org/2000/svg" width="20.882" height="26" viewBox="0 0 20.882 26">
  <path id="user_1_" data-name="user (1)" d="M147.905,46.887a5.773,5.773,0,0,1-.047.725c.014-.1.028-.2.039-.292a5.659,5.659,0,0,1-.377,1.392c.036-.088.074-.176.11-.265a5.5,5.5,0,0,1-.711,1.218l.174-.223a5.6,5.6,0,0,1-.989.989l.223-.174a5.613,5.613,0,0,1-1.218.711l.265-.11a5.654,5.654,0,0,1-1.392.378c.1-.014.2-.028.292-.039a5.548,5.548,0,0,1-1.449,0c.1.014.2.028.292.039a5.655,5.655,0,0,1-1.392-.378l.265.11a5.505,5.505,0,0,1-1.218-.711l.223.174a5.6,5.6,0,0,1-.989-.989l.174.223a5.611,5.611,0,0,1-.711-1.218c.036.088.074.176.11.265a5.663,5.663,0,0,1-.377-1.392c.014.1.028.2.039.292a5.548,5.548,0,0,1,0-1.449c-.014.1-.028.2-.039.292a5.663,5.663,0,0,1,.377-1.392c-.036.088-.074.176-.11.265a5.5,5.5,0,0,1,.711-1.218l-.174.223a5.6,5.6,0,0,1,.989-.989l-.223.174a5.615,5.615,0,0,1,1.218-.711l-.265.11a5.657,5.657,0,0,1,1.392-.378c-.1.014-.2.028-.292.039a5.549,5.549,0,0,1,1.449,0c-.1-.014-.2-.028-.292-.039a5.656,5.656,0,0,1,1.392.378l-.265-.11a5.5,5.5,0,0,1,1.218.711l-.223-.174a5.6,5.6,0,0,1,.989.989l-.174-.223a5.61,5.61,0,0,1,.711,1.218c-.036-.088-.074-.176-.11-.265a5.659,5.659,0,0,1,.377,1.392c-.014-.1-.028-.2-.039-.292a6.329,6.329,0,0,1,.047.725,1.1,1.1,0,0,0,2.2,0,6.5,6.5,0,0,0-1.179-3.745,7.555,7.555,0,0,0-.681-.829,7.009,7.009,0,0,0-.813-.7,6.485,6.485,0,0,0-1.719-.915,6.576,6.576,0,0,0-7.173,1.951,7.248,7.248,0,0,0-.639.887,6.77,6.77,0,0,0-.468.978,6.542,6.542,0,0,0,3.3,8.3,6.132,6.132,0,0,0,2.155.6A6.529,6.529,0,0,0,150,48.025a7.383,7.383,0,0,0,.1-1.13,1.1,1.1,0,0,0-2.2-.008Zm3.657,17.231H137.423c-.626,0-1.251.006-1.877,0a1.651,1.651,0,0,1-.2-.014c.1.014.2.028.292.039a1.387,1.387,0,0,1-.317-.088l.265.11a1.4,1.4,0,0,1-.309-.182l.223.174a1.585,1.585,0,0,1-.226-.226l.174.223a1.515,1.515,0,0,1-.182-.309c.036.088.074.176.11.265a1.59,1.59,0,0,1-.088-.317c.014.1.027.2.039.292a7.893,7.893,0,0,1-.014-1.022V61.883a6.694,6.694,0,0,1,.055-.879c-.014.1-.028.2-.039.292a6.452,6.452,0,0,1,.449-1.645c-.036.088-.074.176-.11.265a6.478,6.478,0,0,1,.824-1.405l-.174.223a6.542,6.542,0,0,1,1.146-1.146l-.223.174a6.48,6.48,0,0,1,1.405-.824l-.265.11a6.526,6.526,0,0,1,1.645-.449c-.1.014-.2.028-.292.039a9.546,9.546,0,0,1,1.223-.055H146a10.709,10.709,0,0,1,1.361.055c-.1-.014-.2-.028-.292-.039a6.445,6.445,0,0,1,1.645.449l-.265-.11a6.481,6.481,0,0,1,1.405.824l-.223-.174a6.54,6.54,0,0,1,1.146,1.146l-.174-.223a6.476,6.476,0,0,1,.824,1.405c-.036-.088-.074-.176-.11-.265a6.535,6.535,0,0,1,.449,1.645c-.014-.1-.028-.2-.039-.292a9.934,9.934,0,0,1,.055,1.248v1.364a3.768,3.768,0,0,1-.014.468c.014-.1.028-.2.039-.292a1.382,1.382,0,0,1-.088.317c.036-.088.074-.176.11-.265a1.4,1.4,0,0,1-.182.309l.174-.223a1.591,1.591,0,0,1-.226.226l.223-.174a1.513,1.513,0,0,1-.309.182l.265-.11a1.593,1.593,0,0,1-.317.088c.1-.014.2-.028.292-.039-.061.008-.124.011-.187.014a1.15,1.15,0,0,0-.78.322,1.1,1.1,0,0,0,.78,1.882,2.47,2.47,0,0,0,2.329-1.744,4.332,4.332,0,0,0,.1-1.265,16.541,16.541,0,0,0-.135-2.86,7.462,7.462,0,0,0-5.514-5.847,9.791,9.791,0,0,0-2.37-.223H141.08a9.349,9.349,0,0,0-2.428.251,7.465,7.465,0,0,0-5.423,5.914,17.974,17.974,0,0,0-.118,2.83,3.663,3.663,0,0,0,.132,1.306,2.58,2.58,0,0,0,1.006,1.273,2.433,2.433,0,0,0,1.284.369c.215,0,.43,0,.645,0h15.387a1.1,1.1,0,0,0,0-2.207Z" transform="translate(-133.108 -40.327)" fill="#787da7"/>
</svg>
