<svg id="Layer_2" data-name="Layer 2" xmlns="http://www.w3.org/2000/svg" width="26" height="26" viewBox="0 0 26 26">
  <g id="checkmark-circle">
    <rect id="Rectangle_940" data-name="Rectangle 940" width="26" height="26" fill="#787da7" opacity="0"/>
    <path id="Path_3135" data-name="Path 3135" d="M9.853,11.728a1.088,1.088,0,0,0-1.538,1.538l3.25,3.25a1.051,1.051,0,0,0,1.549-.054L20.7,7.8a1.083,1.083,0,0,0-1.625-1.43l-6.738,7.8Z" transform="translate(0.666 0.503)" fill="#787da7"/>
    <path id="Path_3136" data-name="Path 3136" d="M22.579,11.75A1.083,1.083,0,0,0,21.5,12.833a8.664,8.664,0,1,1-8.667-8.667,9.523,9.523,0,0,1,2.058.238A1.083,1.083,0,1,0,15.4,2.3,11.418,11.418,0,0,0,12.829,2,10.833,10.833,0,1,0,23.662,12.833a1.083,1.083,0,0,0-1.083-1.083Z" transform="translate(0.171 0.167)" fill="#787da7"/>
  </g>
</svg>
