<svg xmlns="http://www.w3.org/2000/svg" width="24.444" height="22" viewBox="0 0 24.444 22">
  <path id="money" d="M25.491,14a3.651,3.651,0,0,0-2.713-6.111H16.447A3.667,3.667,0,0,0,13,3H5.667A3.651,3.651,0,0,0,2.953,9.111a3.667,3.667,0,0,0,0,4.889,3.667,3.667,0,0,0,0,4.889A3.651,3.651,0,0,0,5.667,25H22.778a3.667,3.667,0,0,0,2.713-6.111A3.667,3.667,0,0,0,25.491,14ZM13,22.556H5.667a1.222,1.222,0,1,1,0-2.444H13a1.222,1.222,0,0,1,0,2.444Zm0-4.889H5.667a1.222,1.222,0,0,1,0-2.444H13a1.222,1.222,0,0,1,0,2.444Zm0-4.889H5.667a1.222,1.222,0,0,1,0-2.444H13a1.222,1.222,0,0,1,0,2.444Zm0-4.889H5.667a1.222,1.222,0,1,1,0-2.444H13a1.222,1.222,0,0,1,0,2.444ZM23.621,22.2a1.137,1.137,0,0,1-.843.354H16.447a3.508,3.508,0,0,0,0-2.444h6.331a1.21,1.21,0,0,1,.843,2.09Zm0-4.889a1.137,1.137,0,0,1-.843.354H16.447a3.508,3.508,0,0,0,0-2.444h6.331a1.21,1.21,0,0,1,.843,2.09Zm0-4.889a1.137,1.137,0,0,1-.843.354H16.447a3.508,3.508,0,0,0,0-2.444h6.331a1.21,1.21,0,0,1,.843,2.09Z" transform="translate(-2 -3)" fill="#787da7"/>
</svg>
