<svg xmlns="http://www.w3.org/2000/svg" xmlns:xlink="http://www.w3.org/1999/xlink" width="88.415" height="20.435" viewBox="0 0 88.415 20.435"><defs><clipPath id="a"><path d="M0,0H51.246V20.435H0ZM0,0"/></clipPath><clipPath id="b"><path d="M325,2h35.876V18.166H325Zm0,0" transform="translate(-325 -2)"/></clipPath></defs><g clip-path="url(#a)"><path d="M36.584,16.2h2.95V4.552h-2.95ZM38.043.074a1.663,1.663,0,1,0,1.663,1.663A1.663,1.663,0,0,0,38.043.074m10.14,12.49a2.835,2.835,0,0,1-1.973,1.127c-1.146,0-2.18-1.12-2.18-3.157s.481-3.476,2-3.476a2.525,2.525,0,0,1,2.158,1.108Zm0-11.067V5.229a4.082,4.082,0,0,0-2.639-.96c-1.625,0-4.471,1.034-4.471,5.967s2.347,6.176,4.453,6.176A3.887,3.887,0,0,0,48,15.52l.181.074V16.2h2.905V0ZM30.117,13.673A2.519,2.519,0,0,1,28,12.564V8.148a2.162,2.162,0,0,1,1.875-1.072c1.876,0,2.162,1.94,2.162,3.458s-.462,3.138-1.922,3.138m.388-9.4A4.585,4.585,0,0,0,28,5.21V4.552H25.033V20.435L28,18.883V15.52a3.291,3.291,0,0,0,2.578.892c1.867,0,4.4-1.077,4.4-6.232S31.835,4.268,30.5,4.268M20.2,12.77a2.964,2.964,0,0,1-2.236,1.139,1.683,1.683,0,0,1-1.894-1.632c0-1.147.732-1.517,2.2-1.517s1.929.57,1.929.57ZM18.485,4.293a7.019,7.019,0,0,0-3.106.515V7.4s.661-.708,3.106-.708c1.713,0,1.713,1.288,1.713,1.566v.6a5.816,5.816,0,0,0-2.206-.386c-1.351,0-4.771.3-4.771,3.9s3.334,4.033,4.364,4.033a7.341,7.341,0,0,0,2.613-.943V16.2h2.89V7.7s-.054-3.411-4.6-3.411M7.587,7.7H2.956V3.563s3.43.022,4.674.022,1.8.967,1.8,2.187A1.891,1.891,0,0,1,7.587,7.7m2.124,2.359a4.341,4.341,0,0,0,2.852-4.419A4.912,4.912,0,0,0,11.28,2.095,6.621,6.621,0,0,0,7.759.683H0V16.2H2.956v-5.5c0-.029-.018-.081.132-.081H6.142c.087,0,.2.124.2.124L9.067,16.2h3.476S9.668,10.449,9.625,10.32s-.021-.193.087-.258" fill="#774b2b" fill-rule="evenodd"/></g><g transform="translate(52.539 0.323)" clip-path="url(#b)"><path d="M359.706,15.331h-3.6V2.789h-3.039V18.309h8.426ZM345.564,8.9c-3.51-.9-3.326-1.626-3.326-2s.222-1.533,2.347-1.533a5.162,5.162,0,0,1,3.6,1.57l2.162-2.069A8.168,8.168,0,0,0,344.6,2.512c-3.548,0-5.376,2.218-5.376,4.675,0,1.207.075,3.383,4.833,4.418,3.815.609,3.593,2.107,3.593,2.289,0,.407-.222,1.718-2.772,1.718a6.125,6.125,0,0,1-4.176-1.755l-2.124,1.922a7.845,7.845,0,0,0,6.116,2.739c3.1,0,6-1.336,6-4.624s-1.626-4.084-5.136-4.989m-12.842,0c-3.51-.9-3.325-1.626-3.325-2s.222-1.533,2.347-1.533a5.16,5.16,0,0,1,3.6,1.57l2.162-2.069a8.167,8.167,0,0,0-5.746-2.366c-3.548,0-5.378,2.218-5.378,4.675,0,1.207.076,3.383,4.833,4.418,3.815.609,3.592,2.107,3.592,2.289,0,.407-.222,1.718-2.772,1.718a6.123,6.123,0,0,1-4.176-1.755l-2.125,1.922a7.847,7.847,0,0,0,6.116,2.739c3.1,0,6-1.336,6-4.624s-1.625-4.084-5.136-4.989" transform="translate(-325.619 -2.429)" fill="#eb501f" fill-rule="evenodd"/></g></svg>