<svg xmlns="http://www.w3.org/2000/svg" width="116.726" height="19.402" viewBox="0 0 116.726 19.402"><g transform="translate(-8.55 -28.16)"><path d="M17.67,33.008a8.268,8.268,0,0,1,5.87-1.656V28.16H8.55V43.407h5.084c-.062-.129-.124-.191-.191-.32-1.4-3,.511-7.548,4.209-10.079" fill="#096cb2"/><path d="M80.74,32.663c-.382-1.723-1.851-2.22-3.445-2.22-3.552,0-4.848,3.108-4.782,5.87.124,3.765,1.274,5.8,5.421,5.87a8.436,8.436,0,0,0,2.868-.444v-4.1H77.485V35.917h5.292V43.19a17.609,17.609,0,0,1-4.844.826,7.246,7.246,0,0,1-5.3-1.656c-1.594-1.4-2.167-3.894-2.167-5.923a10.212,10.212,0,0,1,1.212-4.529A6.281,6.281,0,0,1,77.547,28.8c2.486,0,5.168,1.145,5.3,3.956Z" transform="translate(-34.428 -0.356)" fill="#2d2e2f"/><path d="M105.2,44.531c-.129,1.776.573,3.636,2.549,3.636a2.09,2.09,0,0,0,2.424-2.038h2.042c-.32,2.3-2.042,3.441-4.467,3.441-3.25,0-4.529-2.3-4.529-5.292s1.47-5.488,4.72-5.488c3,.067,4.467,1.98,4.467,4.786v.955Zm5.1-1.332c.062-1.723-.7-3-2.553-3-1.594,0-2.549,1.332-2.549,3Z" transform="translate(-52.637 -5.91)" fill="#2d2e2f"/><path d="M136.859,44.149c0,3.192-1.723,5.421-5.039,5.421s-5.039-2.22-5.039-5.421,1.723-5.359,5.039-5.359,5.039,2.171,5.039,5.359m-5.039,4c2.3,0,3-1.847,3-4s-.764-3.934-3-3.934-3,1.851-3,3.956.7,4,3,4" transform="translate(-65.737 -5.91)" fill="#2d2e2f"/><path d="M148.632,32.183H144.17V29.31h13.076v2.873h-4.6v11.8h-4.018Z" transform="translate(-75.406 -0.639)" fill="#2d2e2f"/><path d="M173.406,40.9h0c.444-1.661,1.723-2.22,3.445-2.22v3.25h-.83c-1.98,0-2.664,1.212-2.615,3.188V49.2h-3.827V41.6a19.133,19.133,0,0,0-.129-2.615h3.889Z" transform="translate(-89.462 -5.849)" fill="#2d2e2f"/><path d="M196.8,48.35a3.84,3.84,0,0,1-3.188,1.4,3.531,3.531,0,0,1-3.765-3.7V39.292h3.827v5.994c.062,1.021.253,2.042,1.465,2.042,1.914,0,1.661-2.1,1.661-2.22V39.23h3.827v7.588a19.128,19.128,0,0,0,.129,2.615h-3.894Z" transform="translate(-100.804 -6.155)" fill="#2d2e2f"/><path d="M224.744,42a1.114,1.114,0,0,0-1.279-1.212.808.808,0,0,0-.888.888c0,.764,1.532.7,3.956,1.465a2.642,2.642,0,0,1,2.042,2.81c0,2.664-2.491,3.379-4.848,3.379-2.486,0-4.911-.511-4.848-3.636h3.636a1.128,1.128,0,0,0,.253.888,1.11,1.11,0,0,0,.888.444c.768,0,1.279-.258,1.279-.959,0-1.776-6-.7-6-4.4,0-2.486,2.664-3.188,4.657-3.188,2.424,0,4.591.635,4.786,3.441h-3.636v.067Z" transform="translate(-116.944 -5.738)" fill="#2d2e2f"/><path d="M244.836,35.617V34.085l3.827-1.465v3h2.22v2.424h-2.22v4.018c0,.253-.124,1.594.7,1.594a11.144,11.144,0,0,0,1.47-.062v2.3a8.644,8.644,0,0,1-2.042.191c-2.615,0-4.147-.382-3.956-3.508V38.041H242.86V35.617Z" transform="translate(-130.278 -2.48)" fill="#2d2e2f"/><path d="M268.019,39.834a1.141,1.141,0,0,1-.444.955,1.332,1.332,0,0,1-.955.444,1.154,1.154,0,0,1-.959-.444,1.3,1.3,0,0,1-.382-.955,1.58,1.58,0,0,1,.382-1.021,1.358,1.358,0,0,1,.959-.444,1.141,1.141,0,0,1,.955.444,1.363,1.363,0,0,1,.444,1.021m-.32,0a1.061,1.061,0,0,0-.32-.768.857.857,0,0,0-.764-.315,1.083,1.083,0,0,0-1.083,1.083,1.035,1.035,0,0,0,.32.764.848.848,0,0,0,.764.32,1.168,1.168,0,0,0,.764-.32,1.052,1.052,0,0,0,.32-.764m-.888.764v-.253c0-.129,0-.191-.062-.258s-.067-.129-.191-.129h-.071V40.6h-.382V39.066h.573c.129,0,.258,0,.32.067a.328.328,0,0,1,.129.253v.151a.226.226,0,0,1-.067.191.515.515,0,0,1-.191.129c.129.062.191.124.191.191a.364.364,0,0,1,.067.253v.258h-.32v.062Zm0-1.021h0c0-.124,0-.124-.062-.191s-.067-.062-.129-.062h-.257v.444h.2c.062,0,.062,0,.124-.062.129-.062.129-.062.129-.129" transform="translate(-142.744 -5.675)" fill="#2d2e2f"/><path d="M33.224,39.369a7.188,7.188,0,0,0-7.144,7.206,9.768,9.768,0,0,0,.124,1.332,1.421,1.421,0,0,0,.959,1.15,2.664,2.664,0,0,0,.444.124,3.836,3.836,0,0,0,2.3-.564,5.208,5.208,0,0,0,2.167-2.868,29.942,29.942,0,0,0-3.636.559v-2.22l8.036-.573-.062,7.677-2.424.191h0a.5.5,0,0,1,.049-.28c.067-.635.2-1.274.258-1.976,0-.382.062-.764.062-1.15a8.6,8.6,0,0,1-1.083,1.15,8.129,8.129,0,0,1-1.212.888c-.253.129-.511.32-.764.444-.577.253-1.088.444-1.661.635a8.343,8.343,0,0,1-1.914.191A7.144,7.144,0,0,0,40.3,46.575a6.971,6.971,0,0,0-7.077-7.206" transform="translate(-9.747 -6.232)" fill="#f37122"/></g></svg>