<svg xmlns="http://www.w3.org/2000/svg" width="99.036" height="21.18" viewBox="0 0 99.036 21.18"><g transform="translate(-1.723 -398.815)"><g transform="translate(1.723 398.815)"><path d="M230.841,409.357a5.873,5.873,0,0,1,1.532-4.415,4.7,4.7,0,0,1,3.784-1.712,6.136,6.136,0,0,1,1.352.18,2.036,2.036,0,0,1,.991.451,3.921,3.921,0,0,1,.631.541c.18.18.27.361.451.451l.09.18h.09a2.236,2.236,0,0,1-.09-.811v-5.406h2.253v16.309h-2.072v-1.892h-.09c-.09.09-.09.09-.09.27a6.658,6.658,0,0,1-.45.541,2.436,2.436,0,0,1-.721.63,6.017,6.017,0,0,1-1.081.541,4.219,4.219,0,0,1-1.532.27,4.7,4.7,0,0,1-3.784-1.712A7.333,7.333,0,0,1,230.841,409.357Zm2.253,0a4.766,4.766,0,0,0,.9,3.063,2.793,2.793,0,0,0,2.433,1.172,3.217,3.217,0,0,0,2.433-1.082,4.55,4.55,0,0,0,.991-3.154,5.407,5.407,0,0,0-.811-2.973,2.874,2.874,0,0,0-2.433-1.261,3.018,3.018,0,0,0-2.433,1.171A4.235,4.235,0,0,0,233.094,409.357Z" transform="translate(-208.395 -398.815)" fill="#1573ba"/><path d="M363.526,401.988v-2.253h2.253v2.253Zm0,14.057V404.33h2.253v11.714Z" transform="translate(-328.105 -399.645)" fill="#1573ba"/><path d="M403.188,458.762a6.577,6.577,0,0,0,3.154.811,4.38,4.38,0,0,0,2.7-.811,3.053,3.053,0,0,0,.991-2.433V454.8h-.09a3.839,3.839,0,0,1-3.514,1.8,4.578,4.578,0,0,1-3.784-1.712,6.362,6.362,0,0,1-1.442-4.235,6.452,6.452,0,0,1,1.352-4.235,4.6,4.6,0,0,1,3.694-1.622,7.007,7.007,0,0,1,1.442.18,2.853,2.853,0,0,1,1.261.451,3.922,3.922,0,0,1,.631.541,1.582,1.582,0,0,1,.36.451l.09.18h.09v-1.622h2.162v11.173a6.883,6.883,0,0,1-.45,2.433,3.975,3.975,0,0,1-1.352,1.622,4.618,4.618,0,0,1-1.892.9,7.9,7.9,0,0,1-2.163.27,8.184,8.184,0,0,1-4.055-.991Zm3.875-4.145a2.7,2.7,0,0,0,2.253-.991,4.3,4.3,0,0,0,.811-3.063c0-2.613-1.081-3.875-3.334-3.875a2.983,2.983,0,0,0-2.343.991,4.3,4.3,0,0,0-.811,2.793,4.352,4.352,0,0,0,.9,2.974A2.965,2.965,0,0,0,407.063,454.617Z" transform="translate(-362.09 -440.291)" fill="#1573ba"/><path d="M533.795,401.988v-2.253h2.253v2.253Zm0,14.057V404.33h2.253v11.714Z" transform="translate(-481.704 -399.645)" fill="#1573ba"/><path d="M573.272,449.988a6.6,6.6,0,0,1,1.712-4.415,6.109,6.109,0,0,1,4.505-1.712,5.569,5.569,0,0,1,2.433.451c.721.36,1.262.631,1.532.811l.451.451-1.081,1.532a1.959,1.959,0,0,0-.451-.36,4.813,4.813,0,0,0-1.081-.631,3.9,3.9,0,0,0-1.712-.36,4,4,0,0,0-4.057,3.944c0,.067,0,.134,0,.2a4.01,4.01,0,0,0,3.87,4.145q.137,0,.275,0a3.658,3.658,0,0,0,1.892-.451,5.91,5.91,0,0,0,1.352-.811l.451-.451.9,1.622-.18.18a3.433,3.433,0,0,1-.541.451,2.143,2.143,0,0,1-.991.541,11.729,11.729,0,0,1-1.352.451,10.01,10.01,0,0,1-1.712.181,6.309,6.309,0,0,1-4.505-1.712A4.9,4.9,0,0,1,573.272,449.988Z" transform="translate(-517.307 -439.446)" fill="#1573ba"/><path d="M687.392,449.99a5.64,5.64,0,0,1,1.712-4.415,5.505,5.505,0,0,1,4.235-1.712,4.821,4.821,0,0,1,3.694,1.532,5.642,5.642,0,0,1,1.352,3.874l-.09.991h-8.47a3.917,3.917,0,0,0,1.261,2.883,4.4,4.4,0,0,0,2.793.991,3.659,3.659,0,0,0,1.712-.36,7.936,7.936,0,0,0,1.261-.631l.451-.36.9,1.622a3.419,3.419,0,0,1-.54.451,8.351,8.351,0,0,1-1.532.721,7.731,7.731,0,0,1-2.433.451,6.118,6.118,0,0,1-4.415-1.712A5.406,5.406,0,0,1,687.392,449.99Zm2.433-1.352h6.217a3.4,3.4,0,0,0-.811-2.252,3.037,3.037,0,0,0-1.982-.811,3.3,3.3,0,0,0-2.253.811A3.252,3.252,0,0,0,689.824,448.638Z" transform="translate(-620.253 -439.448)" fill="#1573ba"/><path d="M815.425,457.555V445.841h2.163v2.072l-.09.9h.09a5.214,5.214,0,0,1,1.352-2.253,3.46,3.46,0,0,1,2.252-.811l.631.09v2.253a1.531,1.531,0,0,0-.631-.09,3.351,3.351,0,0,0-1.982.721,4.57,4.57,0,0,0-1.352,1.982,7.668,7.668,0,0,0-.27,2.072v4.776h-2.163Z" transform="translate(-735.762 -441.156)" fill="#1573ba"/><path d="M897.029,425.091v-5.5H895.5v-1.8h1.622v-3.334h2.162v3.334h2.793v1.8h-2.793v5.136a4.57,4.57,0,0,0,.18,1.171,1.737,1.737,0,0,0,.451.811,1.615,1.615,0,0,0,.631.451,2.3,2.3,0,0,0,.631.18,1.336,1.336,0,0,0,.631.09l.541-.09v1.982a2.231,2.231,0,0,1-.811.09,4.381,4.381,0,0,1-1.081-.09,8.363,8.363,0,0,1-1.172-.361,5.087,5.087,0,0,1-1.171-.721,3.389,3.389,0,0,1-.811-1.262A4.2,4.2,0,0,1,897.029,425.091Z" transform="translate(-807.995 -412.927)" fill="#1573ba"/><path d="M969.536,399.734a2.235,2.235,0,0,0-2.253,2.216q0,.018,0,.036a2.253,2.253,0,1,0,2.289-2.253h-.036m0,4.055a1.9,1.9,0,0,1-1.892-1.892,1.847,1.847,0,0,1,1.8-1.892h.091a1.9,1.9,0,0,1,1.892,1.892,1.964,1.964,0,0,1-1.892,1.892" transform="translate(-872.754 -399.644)" fill="#1573ba"/><path d="M22.457,413.561c-.361-3.875-2.974-6.4-4.956-9.191.811-1.261,2.793-.811,4.145-.54a12.361,12.361,0,0,0-6.217-2.253c-4.325,0-7.749,2.433-10.9,5.226-1.982-.721-.631-2.7-.631-4.145a12.055,12.055,0,0,0-2.163,7.388,13.517,13.517,0,0,0,2.343,6.578c.991,1.082,1.892,2.163,2.793,3.154-.9,1.532-2.793.811-4.145.541a12.137,12.137,0,0,0,7.3,2.163,12.777,12.777,0,0,0,6.578-2.433c1.081-.991,2.072-1.893,3.154-2.793a4.2,4.2,0,0,1,.541,4.235A11.1,11.1,0,0,0,22.457,413.561Zm-3.064.09c-.811.991-1.8,2.253-1.8,2.253a10.815,10.815,0,0,1-2.253,1.982,8.714,8.714,0,0,1-4.6,1.712h-.36l-.09-.09L8.4,417.616a26.867,26.867,0,0,1-1.892-2.163,8.712,8.712,0,0,1-1.712-4.6v-.631l1.892-1.712c2.253-1.892,4.6-3.694,7.479-3.694h.09l1.442,1.892c1.442,1.892,3.244,3.694,3.514,6.4.18,0,.18.541.18.541Z" transform="translate(-1.723 -401.307)" fill="#1573ba"/><path d="M982.012,412.381v-2.523h.811c.271,0,.361,0,.451.09s.27.09.27.27a.678.678,0,0,1,.09.451c0,.18-.09.27-.09.45a1.238,1.238,0,0,1-.36.27h0l.09.09.541.991h-.451l-.541-.991h-.451v.991Zm.36-1.261h.451a.905.905,0,0,0,.271-.09c.09-.09.09-.18.09-.36s-.09-.271-.18-.451-.18-.09-.36-.09h-.361v.991Z" transform="translate(-886.04 -408.777)" fill="#1573ba"/></g></g></svg>