<svg xmlns="http://www.w3.org/2000/svg" width="96.855" height="26.735" viewBox="0 0 96.855 26.735"><g transform="translate(-15.062 -15.53)"><path d="M57.431,15.53h-.6c-4.266.043-6.508,1.823-6.981,5.224l-.279,2.207a4.242,4.242,0,0,0,.826,3.491c.908,1.02,2.5,1.761,4.918,1.784h.593c4.181-.043,6.411-1.769,6.939-4.929h0l.043-.225.283-2.2a4.381,4.381,0,0,0-.845-3.607c-.911-1.024-2.5-1.707-4.895-1.73M59.4,22.864a4.371,4.371,0,0,1-.741,2.09,2.986,2.986,0,0,1-2.471,1.1h-.667a2.419,2.419,0,0,1-2.273-1.028,3.7,3.7,0,0,1-.171-2.063l.26-2.009a3.964,3.964,0,0,1,1.051-2.42,3.145,3.145,0,0,1,2.3-.8H57.3a2.409,2.409,0,0,1,1.986.745,3.22,3.22,0,0,1,.388,2.37Z" transform="translate(-21.093 0)" fill="#ce0e2d"/><path d="M146.2,15.53h-.6c-4.266.043-6.508,1.823-6.981,5.224l-.283,2.207a4.27,4.27,0,0,0,.826,3.491,6.426,6.426,0,0,0,4.918,1.784h.6c4.181-.043,6.411-1.769,6.939-4.929h0l.031-.229.279-2.2a4.381,4.381,0,0,0-.845-3.607c-.911-1.024-2.494-1.707-4.887-1.73m1.966,7.334a4.409,4.409,0,0,1-.749,2.09,2.979,2.979,0,0,1-2.467,1.1h-.659a2.419,2.419,0,0,1-2.273-1.028,3.727,3.727,0,0,1-.175-2.063l.264-2.009a3.921,3.921,0,0,1,1.051-2.42,3.138,3.138,0,0,1,2.281-.8h.609a2.412,2.412,0,0,1,1.99.745,3.22,3.22,0,0,1,.388,2.37Z" transform="translate(-75.431 0)" fill="#ce0e2d"/><path d="M233.45,17.27c-.911-1.024-2.5-1.707-4.891-1.73h-.6c-4.266.043-6.508,1.823-6.981,5.224l-.283,2.207a4.242,4.242,0,0,0,.826,3.491c.911,1.02,2.5,1.761,4.918,1.784h.6c4.177-.043,6.407-1.769,6.935-4.929h0l.031-.229.283-2.2a4.381,4.381,0,0,0-.845-3.607m-2.924,5.6a4.371,4.371,0,0,1-.749,2.09,2.979,2.979,0,0,1-2.467,1.1h-.655a2.419,2.419,0,0,1-2.273-1.028,3.685,3.685,0,0,1-.178-2.063l.268-2.009a3.941,3.941,0,0,1,1.047-2.42,3.157,3.157,0,0,1,2.281-.8h.613a2.421,2.421,0,0,1,1.99.745,3.22,3.22,0,0,1,.388,2.37Z" transform="translate(-125.845 -0.006)" fill="#ce0e2d"/><path d="M182.2,19.677a1.815,1.815,0,0,1,.337.031,1.458,1.458,0,0,1,.826.446,1.672,1.672,0,0,1,.388,1.315l-.45,3.688h0l-.116.946v.066h2.056a4.786,4.786,0,0,0,.516-.031c.915-.1,2.424-.473,2.855-1.664a.716.716,0,0,0,.035-.1,5.97,5.97,0,0,0,.217-1.016l.175-1.292h0l.085-.605a5.64,5.64,0,0,0,.027-1.369c-.143-1.187-1.551-1.551-2.447-1.664a4.556,4.556,0,0,0-.508-.031h-3.634a1.97,1.97,0,0,1-.981-.248,1.862,1.862,0,0,1-.675-1.575V16.19h5.43c2.715.023,4.5.57,5.476,1.672a4.115,4.115,0,0,1,.838,3.421l-.1.776-.14,1.206c-.023.159-.047.446-.078.6a5.922,5.922,0,0,1-.671,2.005,4.321,4.321,0,0,1-1.443,1.5,4.914,4.914,0,0,1-.636.334,7.062,7.062,0,0,1-1.61.512,8.168,8.168,0,0,1-.842.1c-.423.031-.935.047-1.458.058h-4.2a2.357,2.357,0,0,1-1.741-.512.969.969,0,0,1-.136-.2,1.249,1.249,0,0,1-.1-.71l.45-3.409.477-3.878Z" transform="translate(-100.646 -0.404)" fill="#ce0e2d"/><path d="M26.352,26.2H21.48a6.31,6.31,0,0,1-1.6-.175,1.769,1.769,0,0,1-.927-.535,1.5,1.5,0,0,1-.318-.667v-.074a3.336,3.336,0,0,1-.047-.365,5.36,5.36,0,0,1,.047-1.059l.244-1.862A5.546,5.546,0,0,1,19,20.853a.934.934,0,0,1,.054-.2v-.039a3.537,3.537,0,0,1,.151-.446.3.3,0,0,1,.043-.1c.054-.116.116-.225.178-.33a2.684,2.684,0,0,1,.2-.268,2.606,2.606,0,0,1,1.164-.745,5.7,5.7,0,0,1,1.9-.252H25.4a2.3,2.3,0,0,0,1.047-.248,2.079,2.079,0,0,0,.652-.655c.031-.043.05-.093.078-.136a3.308,3.308,0,0,0,.31-.811l.112-.388h-5.43a12.473,12.473,0,0,0-1.679.128c-3.029.454-4.654,2.11-5.042,4.91l-.271,2.125a4.078,4.078,0,0,0,.8,3.363A6.025,6.025,0,0,0,20.3,28.424h3.685a3.347,3.347,0,0,0,1.2-.194,2.187,2.187,0,0,0,.756-.842c.047-.089.093-.175.136-.275A4.77,4.77,0,0,0,26.352,26.2Z" transform="translate(-0.039 -0.429)" fill="#ce0e2d"/><path d="M94.464,26.475v.151a2.106,2.106,0,0,1-.706,1.311,1.939,1.939,0,0,1-1.28.477H90.64l.171-1.388.066-.551L92.129,16.22h1.485a2.115,2.115,0,0,1,1.9.737l3.3,5.271,4.693-5.317a2.556,2.556,0,0,1,2-.683h1.551l-1.272,10.255-.019.147a2.125,2.125,0,0,1-.706,1.315,1.939,1.939,0,0,1-1.28.473h-1.761l.88-7.113-3.692,4.654a1.3,1.3,0,0,1-.865.512h-.031a1.094,1.094,0,0,1-.776-.566l-2.436-4.623-.64,5.2" transform="translate(-46.266 -0.422)" fill="#ce0e2d"/><path d="M20.514,67.394a1.683,1.683,0,0,1-.718,1.357,2.952,2.952,0,0,1-1.8.516,2.715,2.715,0,0,1-2.156-.9,3.665,3.665,0,0,1-.776-2.49,3.774,3.774,0,0,1,.776-2.529A2.68,2.68,0,0,1,18,62.433a3.017,3.017,0,0,1,1.835.5,1.621,1.621,0,0,1,.679,1.365h-.923a.958.958,0,0,0-.415-.807,1.772,1.772,0,0,0-1.082-.306,1.893,1.893,0,0,0-1.551.679,2.936,2.936,0,0,0-.551,1.908,3.3,3.3,0,0,0,.543,2.025,2,2,0,0,0,2.591.423,1.164,1.164,0,0,0,.473-.83Z" transform="translate(0 -28.71)" fill="#53575a"/><path d="M31.89,67.706h.845v.465a1.551,1.551,0,0,1,1.28-.593h.229v.776h-.171a1.257,1.257,0,0,0-1.024.388,1.9,1.9,0,0,0-.314,1.214v2.327H31.89Z" transform="translate(-10.301 -31.861)" fill="#53575a"/><path d="M42.51,72.413a2.04,2.04,0,0,1-1.582-.624,2.459,2.459,0,0,1-.574-1.726,2.715,2.715,0,0,1,.574-1.827,1.978,1.978,0,0,1,1.582-.663A1.889,1.889,0,0,1,44,68.147a2.447,2.447,0,0,1,.512,1.675v.306H41.234a2.374,2.374,0,0,0,.3,1.191,1.067,1.067,0,0,0,.954.462,1.1,1.1,0,0,0,.776-.256,1.082,1.082,0,0,0,.357-.71h.861A1.757,1.757,0,0,1,43.871,72a2.1,2.1,0,0,1-1.361.411ZM43.642,69.5a1.745,1.745,0,0,0-.26-.923,1.094,1.094,0,0,0-.942-.388,1.047,1.047,0,0,0-.9.434,1.683,1.683,0,0,0-.3.861Z" transform="translate(-15.48 -31.856)" fill="#53575a"/><path d="M55.091,72.411a1.846,1.846,0,0,1-1.233-.388,1.408,1.408,0,0,1,.175-2.184,2.986,2.986,0,0,1,1.679-.411h.776V69.04a.752.752,0,0,0-.252-.636,1.28,1.28,0,0,0-.811-.2.97.97,0,0,0-.613.182.706.706,0,0,0-.283.512h-.884a1.288,1.288,0,0,1,.5-1.008,2.273,2.273,0,0,1,1.334-.318,2.063,2.063,0,0,1,1.334.388,1.315,1.315,0,0,1,.5,1.067v1.594q0,.652.035,1.094a1.807,1.807,0,0,0,.089.551h-.8a.655.655,0,0,1-.081-.306,3.421,3.421,0,0,1-.031-.388,1.9,1.9,0,0,1-.194.279A1.516,1.516,0,0,1,55.091,72.411Zm1.381-2.35H55.7a2,2,0,0,0-1.074.233.776.776,0,0,0-.357.7.721.721,0,0,0,.252.586,1.082,1.082,0,0,0,.714.209,1.164,1.164,0,0,0,.927-.353,1.52,1.52,0,0,0,.314-1.028Z" transform="translate(-23.48 -31.853)" fill="#53575a"/><path d="M68.378,70.712a4.8,4.8,0,0,1-.83.062,1.257,1.257,0,0,1-.807-.26.776.776,0,0,1-.33-.64v-3.2H65.45v-.613h.95v-.826l.842-.345v1.164h1.136v.613H67.253v3.006a.454.454,0,0,0,.124.353.566.566,0,0,0,.388.109,3.317,3.317,0,0,0,.613-.054Z" transform="translate(-30.845 -30.216)" fill="#53575a"/><path d="M75.67,62.77H76.6v.865H75.67Zm.039,1.994h.865v4.58h-.865Z" transform="translate(-37.102 -28.918)" fill="#53575a"/><path d="M82.13,67.7h.776v.632a2.221,2.221,0,0,1,.144-.178,1.8,1.8,0,0,1,1.408-.582,1.679,1.679,0,0,1,1.33.481,2.211,2.211,0,0,1,.423,1.5v2.715h-.834V69.548a1.551,1.551,0,0,0-.268-1.02,1.036,1.036,0,0,0-.849-.318,1.245,1.245,0,0,0-.981.349,1.668,1.668,0,0,0-.3,1.113v2.591H82.13Z" transform="translate(-41.056 -31.853)" fill="#53575a"/><path d="M97.884,73.5a1.233,1.233,0,0,0,.977-.337,1.769,1.769,0,0,0,.287-1.14v-.613L99,71.6a1.664,1.664,0,0,1-1.346.621,1.722,1.722,0,0,1-1.4-.605,2.653,2.653,0,0,1-.512-1.726,2.42,2.42,0,0,1,.566-1.652,1.846,1.846,0,0,1,1.47-.663,1.551,1.551,0,0,1,1.315.621l.07.085v-.578h.842v4.3a2.18,2.18,0,0,1-.512,1.606,2.211,2.211,0,0,1-1.613.5,2.261,2.261,0,0,1-1.416-.357,1.365,1.365,0,0,1-.45-1.129H96.9a.8.8,0,0,0,.24.648A1.164,1.164,0,0,0,97.884,73.5Zm0-5.294a1.067,1.067,0,0,0-.923.442,2.017,2.017,0,0,0-.33,1.237,2.2,2.2,0,0,0,.31,1.292,1.218,1.218,0,0,0,1.869,0,2.106,2.106,0,0,0,.33-1.257,2.083,2.083,0,0,0-.33-1.253,1.09,1.09,0,0,0-.919-.462Z" transform="translate(-49.387 -31.86)" fill="#53575a"/><path d="M119.523,63.515h-2.2V62.77h5.306v.745h-2.207v5.818h-.9Z" transform="translate(-62.598 -28.918)" fill="#53575a"/><path d="M133.68,67.706h.845v.465a1.551,1.551,0,0,1,1.28-.593h.229v.776h-.171a1.245,1.245,0,0,0-1.02.388,1.873,1.873,0,0,0-.318,1.214v2.327h-.846Z" transform="translate(-72.613 -31.861)" fill="#53575a"/><path d="M143.434,70.66a1.552,1.552,0,0,0,.268,1.02,1.043,1.043,0,0,0,.846.318,1.264,1.264,0,0,0,1.012-.353,1.59,1.59,0,0,0,.271-1.132v-2.6h.842v4.58H145.9V71.9l-.093.12a1.776,1.776,0,0,1-1.408.605,1.737,1.737,0,0,1-1.361-.489,2.28,2.28,0,0,1-.438-1.551V67.91h.845Z" transform="translate(-78.066 -32.065)" fill="#53575a"/><path d="M159.134,68.933a.648.648,0,0,0-.244-.535,1.047,1.047,0,0,0-.679-.2,1.268,1.268,0,0,0-.694.163.524.524,0,0,0-.244.458.473.473,0,0,0,.136.353.842.842,0,0,0,.407.217l.935.248a2.393,2.393,0,0,1,1.024.5,1.047,1.047,0,0,1,.306.776,1.3,1.3,0,0,1-.5,1.086,2.75,2.75,0,0,1-2.816,0,1.346,1.346,0,0,1-.485-1.121h.873a.776.776,0,0,0,.271.64,1.14,1.14,0,0,0,.776.233,1.35,1.35,0,0,0,.776-.2.659.659,0,0,0,.279-.566.473.473,0,0,0-.175-.388,1.389,1.389,0,0,0-.531-.244l-.931-.252a1.939,1.939,0,0,1-.915-.431,1.1,1.1,0,0,1-.275-.776,1.164,1.164,0,0,1,.473-.977,2.606,2.606,0,0,1,2.633,0,1.2,1.2,0,0,1,.477,1Z" transform="translate(-86.443 -31.85)" fill="#53575a"/><path d="M171.44,70.712a4.829,4.829,0,0,1-.83.062,1.257,1.257,0,0,1-.807-.26.776.776,0,0,1-.33-.64v-3.2h-.954v-.613h.962v-.826l.842-.345v1.164h1.125v.613h-1.125v3.006a.454.454,0,0,0,.12.353.586.586,0,0,0,.388.109,3.351,3.351,0,0,0,.617-.062Z" transform="translate(-93.94 -30.216)" fill="#53575a"/><path d="M187.145,68.353a3.789,3.789,0,0,1-.776-2.536,3.65,3.65,0,0,1,.776-2.482,3.06,3.06,0,0,1,4.328,0,3.669,3.669,0,0,1,.776,2.482,3.809,3.809,0,0,1-.776,2.536,3.006,3.006,0,0,1-4.328,0Zm3.677-.531a3.254,3.254,0,0,0,.535-2,3.13,3.13,0,0,0-.535-1.939,1.815,1.815,0,0,0-1.5-.706,1.8,1.8,0,0,0-1.509.694,3.1,3.1,0,0,0-.539,1.939,3.227,3.227,0,0,0,.539,2,1.784,1.784,0,0,0,1.509.718A1.8,1.8,0,0,0,190.821,67.822Z" transform="translate(-104.862 -28.715)" fill="#53575a"/><path d="M204.54,67.7h.776v.632a1.256,1.256,0,0,1,.144-.178,1.8,1.8,0,0,1,1.408-.582,1.675,1.675,0,0,1,1.342.481,2.211,2.211,0,0,1,.427,1.5v2.715h-.853V69.546a1.594,1.594,0,0,0-.264-1.02,1.047,1.047,0,0,0-.849-.318,1.237,1.237,0,0,0-.981.349,1.644,1.644,0,0,0-.306,1.113v2.591h-.842Z" transform="translate(-115.99 -31.851)" fill="#53575a"/><path d="M218.75,62.77h.842v6.574h-.842Z" transform="translate(-124.689 -28.918)" fill="#53575a"/><path d="M225.13,62.77h.927v.865h-.927Zm.039,1.994h.845v4.58h-.845Z" transform="translate(-128.594 -28.918)" fill="#53575a"/><path d="M231.59,67.7h.776v.632a1.256,1.256,0,0,1,.143-.178,1.788,1.788,0,0,1,1.408-.582,1.675,1.675,0,0,1,1.323.481,2.211,2.211,0,0,1,.423,1.5v2.715h-.811V69.549a1.594,1.594,0,0,0-.264-1.02,1.047,1.047,0,0,0-.849-.318,1.237,1.237,0,0,0-.981.349,1.644,1.644,0,0,0-.306,1.113v2.591h-.845Z" transform="translate(-132.549 -31.853)" fill="#53575a"/><path d="M247.379,72.414a2.044,2.044,0,0,1-1.582-.624,2.439,2.439,0,0,1-.574-1.726,2.691,2.691,0,0,1,.574-1.827,1.974,1.974,0,0,1,1.582-.663,1.885,1.885,0,0,1,1.485.574,2.428,2.428,0,0,1,.535,1.675v.306h-3.3a2.327,2.327,0,0,0,.3,1.191,1.063,1.063,0,0,0,.954.462,1.109,1.109,0,0,0,.776-.256,1.059,1.059,0,0,0,.353-.71h.873A1.745,1.745,0,0,1,248.736,72,2.09,2.09,0,0,1,247.379,72.414Zm1.133-2.913a1.745,1.745,0,0,0-.26-.923,1.094,1.094,0,0,0-.942-.388,1.039,1.039,0,0,0-.9.434,1.722,1.722,0,0,0-.3.861Z" transform="translate(-140.891 -31.856)" fill="#53575a"/><path d="M259.529,64.68a1.356,1.356,0,1,1-.008,0Zm0,.256a1.016,1.016,0,1,0,0,2.032.973.973,0,0,0,.97-1.016.985.985,0,0,0-.977-1.016Zm-.194,1.675h-.295V65.347a2.471,2.471,0,0,1,.489-.047.706.706,0,0,1,.438.1.337.337,0,0,1,.128.271.326.326,0,0,1-.264.3h0c.124.039.194.14.233.31a.7.7,0,0,0,.093.31h-.318a1.016,1.016,0,0,1-.1-.3c-.027-.14-.1-.2-.264-.2h-.14Zm0-.714h.14c.163,0,.295-.054.295-.186s-.085-.194-.272-.194a.705.705,0,0,0-.163,0Z" transform="translate(-148.845 -30.087)" fill="#53575a"/></g></svg>