<svg xmlns="http://www.w3.org/2000/svg" xmlns:xlink="http://www.w3.org/1999/xlink" width="878.743" height="675.645" viewBox="0 0 878.743 675.645"><defs><clipPath id="a"><rect width="249" height="66.123" transform="translate(0 0)" fill="none"/></clipPath></defs><g transform="translate(-827.286 -411.448)"><g transform="translate(805.229 408.97)"><g transform="translate(1.456 2.478)"><g transform="translate(0 0)"><g transform="translate(0 30.874) rotate(-2)"><g transform="translate(571.337 0)"><g transform="translate(0 0)"><path d="M269.6,0a2.73,2.73,0,0,1,2.882,2.425v.882A2.688,2.688,0,0,1,269.6,5.732H203.958a2.73,2.73,0,0,1-2.882-2.425V2.425A2.688,2.688,0,0,1,203.958,0ZM107.37,0a2.774,2.774,0,0,1,2.774,2.774h0v.184a2.774,2.774,0,0,1-2.774,2.774H2.774A2.774,2.774,0,0,1,0,2.958H0V2.774A2.774,2.774,0,0,1,2.774,0h104.6Z" transform="translate(34.233 619.853)" fill="#2572e9" fill-rule="evenodd"/><path d="M56.337.966l48,1.1V40.96l-.2-.008L.1,40.955A6.49,6.49,0,0,1,0,39.595a13.167,13.167,0,0,1,.218-1.461c.822-3.043,1.818-5.064,4.732-6.861a81.15,81.15,0,0,1,8.987-4.812c11.43-5.343,15.336-5.275,22.851-10.177A60.789,60.789,0,0,0,45.43,9.3,107.17,107.17,0,0,1,56.337.966ZM249.777,0,266.6,40.96l-.236-.008H200.944l5.8-36.054Z" transform="translate(37.472 578.901)" fill="#f2f2f2" fill-rule="evenodd"/><path d="M90.54,4.12C98.367,1.193,113.3-1.9,123.959,1.469c12.461,3.945,20.15,14.739,20.15,14.739s1.827-1.893,20.873,51.049q19.046,52.942,36.951,143.486,1.715,10.147,19.816,114.57.015.086.027.173a6.164,6.164,0,0,1-5.221,6.981h0l-67.2,9.7a6.164,6.164,0,0,1-6.833-4.5Q130,291.049,128.98,286.71c-1.456-5.765-2.889-12.293-4.371-19.771h0L112.946,210.79q-.171-.816-.662-5.3L98.319,154.511q-4.668,17.805-10.1,38.191-2.671,114.323-3.979,130.025-.2,2.443-1.3,18.088a6.164,6.164,0,0,1-6.447,5.726L7.226,343.187a6.164,6.164,0,0,1-5.857-5.817Q-3.193,254.9,7.446,182.21c11-75.125,27.588-105.827,37.488-134.726Q45.1,46.968,68.486,10.4q8.141.045,14.748.468A51.276,51.276,0,0,1,90.54,4.12Z" transform="translate(78.202 217.707)" fill="#f8b409" fill-rule="evenodd"/><path d="M72.392,31.391,84.458,75.519,98.5,126.769q-4.7,18.044-10.19,38.743-2.74,113.964-4.049,129.666-.9,10.833-1.347,18.362a6.164,6.164,0,0,1-6.461,5.794L7.123,315.87a6.164,6.164,0,0,1-5.848-5.829Q-3.1,227.7,7.537,155.021C18.533,79.9,34.928,49.058,44.828,20.159,44.917,19.881,59.084,9.207,73.784,0A51.251,51.251,0,0,0,72.392,31.391Z" transform="translate(78.111 244.896)" fill="#4a4b46" opacity="0.255"/><path d="M69.674,1.146l.194,2.76Q94.509.864,98.629,2.483c25.437,10,29.572,53.582,29.415,66.843q-.063,5.323-17.067,9.587c1.242,12.067,1.974,18.883,2.395,22.421v.072a11.372,11.372,0,0,0,.137,1.479c.361,2.721-86.162,29.356-86.162,29.356a.184.184,0,0,0-.126-.052,11.128,11.128,0,0,1-2.748-.95,9.45,9.45,0,0,1-2.3-1.365c-5.786-4.5-6.719-15.744-6.84-18.485l-.137-1.552c-.237-4.073-.814-12.3-1.954-27.624Q7.167,84.822,0,87.522L.026,23.456A11.1,11.1,0,0,1,6.645,13.308Q20.845,7.047,33.4,9.449c1.333-.483,2.658-.895,3.946-1.245l-.267-4.816a1.233,1.233,0,0,1,1.146-1.3L68.359,0A1.233,1.233,0,0,1,69.674,1.146Z" transform="translate(112.956 115.075)" fill="#fff"/><path d="M283.52,488.065l3.729,27.224-43.034,4.9-6-25.6ZM95.675,497.612l46.451,2.23-.481,17.794-11.287-.257-36.549-1.125ZM232.46,127.394q.328,37.173-5.365,42.754c-8.609,8.438-53.5,29.23-98.475,34.757q-15.064,6.659-49.875,9.626-9.949-6.39-10.728-22.262l15.755-5.394a9.078,9.078,0,0,1-1.006-.4c-3.4-7.731,38.409-14.6,45.943-16.368l.147-.036.464-.405a1.352,1.352,0,0,1,.531.052l52.976-23.846,1.052-9.53Q218.851,132.525,232.46,127.394ZM75.521,25.2l.058.589,5.933,66.7,31.461-15.049.115,60.918c-21.6,9.326-54.015,15.976-63.583,6.081l-.382-.418q-18.43-21.358-4.853-116.307Q14.636,21.177,3.215,13.513A7.241,7.241,0,0,1,7.49.258Q36.513.931,44.271.148L44.66.111A28.457,28.457,0,0,1,75.521,25.2Z" transform="translate(0 63.612)" fill="#db9e75"/><path d="M32.888.592l-.2.075C26.95,2.838,21.106,6.36,17.2,12.073a25.429,25.429,0,0,0-3.5,7.684h0l-.415,1.475-.07.234c-.35,1.167-1,3.336-1.528,5.659-.6,2.8-.86,8.081-.759,15.391h0l.016.186.149,3.052.087,1.147c.806,10.629,1.464,19.38,2,26.561Q7.141,76.061.018,78.742L0,14.7A11.1,11.1,0,0,1,6.584,4.559Q20.52-1.643,32.888.592Z" transform="translate(112.987 123.808)" fill="#444" opacity="0.177"/><g transform="translate(313.316 116.917) rotate(180)"><g transform="translate(132.017 0)"><path d="M40.66,66.97c6.177-11.326,5.443-40.056-2.54-42.08-3.184-.807-9.966,1.17-16.869,5.263L25.584,0H0L8.807,40.383C3.9,46.054.571,53,1.127,60.792,2.727,83.233,34.483,78.3,40.66,66.97Z" transform="translate(1.934)" fill="#db9e75"/><path d="M0,15.2l14.413,4.414L37.44,0Z" transform="translate(0 26.448) rotate(-44)" fill="#482d1f"/></g><path d="M159.974,41.6c-3.431.549-12.671.927-14.375.927-1.089,0-2.269-.243-2.914.733-.528.8-.335,2.151-.492,3.079-.183,1.077-.443,2.141-.706,3.2a32.1,32.1,0,0,1-3.463,8.587,26.818,26.818,0,0,1-12.816,11.328C119.141,72,112.276,72.58,105.75,72.063c-6.983-.553-13.305-2.8-19.9-4.921a42.664,42.664,0,0,0-19.436-1.827c-6.621.993-11.624,4.5-17.209,7.821-5.717,3.4-12.251,5.631-19.01,5.119-6.309-.478-12.124-3.021-17.341-6.418-4.881-3.179-8.909-7-11.183-12.385C-.773,53.662-.771,47.307,3.252,42.19c5.831-7.417,16.655-9.335,25.66-9.144a50.092,50.092,0,0,1,15.242,2.727c6.558,2.252,12.226,6.069,18.362,9.166a48.464,48.464,0,0,0,8.975,3.507c3.027.835,6.009,1.217,8.75-.568,2.9-1.889,5.5-3.744,8.815-4.926A29.047,29.047,0,0,1,99,41.208c6.6.05,13.1,2.056,19.506,3.4,5.225,1.1,10.815,2.188,16.141,1.135,2.223-.44,5.469-1.347,6.272-3.6-13.511-2.39-18.817-18.7-15.009-30.677C127.966,5,140.323-2.555,145.128.842c3.044,2.153,1.2,4.979,0,6.844-2.29,3.573-3.074,8.162,1.164,10.649,3.656,2.145,7.5-2.949,7.572-2.943,1,.077,9.686,4.87,15.668,11.865,5.9-.341,6.8,3.457,5.387,6.563S164.715,40.836,159.974,41.6Z" transform="translate(0 38.589)" fill="#de6903"/></g></g></g><g transform="translate(0 73.691)"><g transform="translate(0 0)"><path d="M238.926,48.93l107.038.171a2.743,2.743,0,0,1,2.869,2.7l.007.384A2.827,2.827,0,0,1,346,54.859l-107.105-.17a2.81,2.81,0,0,1-2.8-2.7l-.007-.384A2.827,2.827,0,0,1,238.926,48.93ZM2.838,0l.3,0A2.2,2.2,0,0,1,4.312.368l.223.149L66.9,48.945l34.13.078a2.739,2.739,0,0,1,2.721,2.64l.007.384a2.741,2.741,0,0,1-2.693,2.671L63.734,54.6l.109-.383-.154.032L1.033,5.059a2.625,2.625,0,0,1-.611-3.5l.165-.211.191-.32a2.813,2.813,0,0,1,1.766-1Z" transform="translate(0 516.614)" fill="#2572e9" fill-rule="evenodd"/><path d="M287.109,39.147q8.827,5.8,11.484,8.373a60.576,60.576,0,0,0,8.594,7.016c7.475,4.924,11.359,4.856,22.727,10.224a80.445,80.445,0,0,1,8.938,4.834c2.9,1.8,3.889,3.835,4.706,6.892a13.362,13.362,0,0,1,.217,1.468,4.451,4.451,0,0,1-.306,2.028,2.823,2.823,0,0,0-2.037-.776h0l-107.038-.171a3.062,3.062,0,0,0-.5.05l4.3-39.8ZM22.239,0,60.579,29.239l1.146,3.839Q68.413,56.622,68.986,57.9c.46,1,.936,1.921,1.437,2.82,3.463,1.416,7.4,2.8,13.4,5.817a80.465,80.465,0,0,1,8.853,4.99c2.866,1.855,3.821,3.9,4.586,6.974a5.222,5.222,0,0,1,.12.769,2.479,2.479,0,0,0-.889-.145h0l-34.13-.078L0,30.622l0,0Z" transform="translate(4.533 486.509)" fill="#f2f2f2" fill-rule="evenodd"/><path d="M162.35.189q3.468,7.523,5.149,20.267A32.117,32.117,0,0,1,197.659,28q62.253,58.056,75.5,98.441,8.227,25.081,14.705,121.708A45.417,45.417,0,0,1,245.587,296.5q-.928.062-1.859.086a48,48,0,0,1-49.2-45.713L189.9,153.315q-14.507-15.4-25.137-26.991c-1.639,9.477-4.23,19.361-8.548,32.809Q145.932,191.165,72.4,285.749A28.791,28.791,0,0,1,33.769,292.8l-14.618-9.37a41.591,41.591,0,0,1-12.57-57.459q.685-1.069,1.435-2.1l60.309-82.525q2.51-57.129,9.939-99.959C85.694-1.44,141.3-.515,162.35.189Z" transform="translate(29.421 200.869)" fill="#2572e9" fill-rule="evenodd"/><path d="M17,.55A32.076,32.076,0,0,1,33.087,8.712q63.139,59.36,76.55,100.622,8.328,25.622,14.881,124.5a45.906,45.906,0,0,1-42.77,48.842q-.915.061-1.833.085A48.446,48.446,0,0,1,30.252,236.6L25.558,136.73Q10.789,120.906,0,109.029C2.743,92.735,2.777,77.394,3.93,47.464q1.092-28.35-1.369-46.3A31.946,31.946,0,0,1,17,.55Z" transform="translate(193.242 215.68)" fill="#4a4b46" opacity="0.255"/><g transform="translate(228.027 0)"><path d="M.09.127,398.787,0,398.7,258.3a12.352,12.352,0,0,1-12.332,12.332l-374.04.119A12.317,12.317,0,0,1,0,258.435s0-.005.008-.008L.09.127Z" transform="translate(2.001 57.615) rotate(-4)" fill="#f2f6fb"/><path d="M.008,12.479A12.332,12.332,0,0,1,12.327.159L386.385,0a12.3,12.3,0,0,1,12.309,12.309l-.008,18.957L0,31.436Z" transform="translate(0 27.813) rotate(-4)" fill="#e1e5f0"/><ellipse cx="6.687" cy="6.718" rx="6.687" ry="6.718" transform="translate(14.648 36.328) rotate(-4)" fill="#ea4336"/><ellipse cx="6.687" cy="6.718" rx="6.687" ry="6.718" transform="translate(36.885 34.766) rotate(-4)" fill="#ffb100"/><ellipse cx="6.687" cy="6.718" rx="6.687" ry="6.718" transform="translate(59.757 33.159) rotate(-4)" fill="#00856a"/></g><path d="M43.858.672a45.624,45.624,0,0,1,15.8.034A40.106,40.106,0,0,1,80.344,6.972a37.68,37.68,0,0,1,6.018,4.786s5.066,4.889,11.685,21.523q1.162,2.986,3.387,9.955a3.082,3.082,0,0,1-2,3.873h0l-.166.048q-.084.022-.169.039h0l-8.123,1.619,2.13,26.136c.059.7.108,1.345.23,2.038a17.472,17.472,0,0,1-1.572,11.257c-3.022,5.6-7.821,13.593-32.954,17.765-23.377,3.862-30.181-2.084-34.789-6.21-3.3-2.927-4.684-7.49-5.3-10.629-.122-.693-.3-1.312-.481-1.994h0L11.574,60.423l-7.2,1.337a3.7,3.7,0,0,1-.515.059l-.259,0a3.7,3.7,0,0,1-3.6-3.8Q.836,26.95,6.213,17.494a14.272,14.272,0,0,1,3.646-4.239C16.19,7.018,27.161,3.535,40.283,1.3h0Z" transform="translate(99.199 96.163)" fill="#fff"/><path d="M33.87,52.847C22.035,48.509,13.444,39.491,10.341,29.225A25.879,25.879,0,0,1,9.513,18.86h0L11.275,0,3.027.147q-.087,0-.173.008L2.682.173A3.082,3.082,0,0,0,.027,3.629q.957,7.3,1.583,10.44C5.24,31.6,9.38,37.294,9.38,37.294a37.681,37.681,0,0,0,5.1,5.758A39.733,39.733,0,0,0,33.846,52.84Z" transform="translate(201.293 142.996) rotate(170)" fill="#444" opacity="0.177"/><path d="M268.182,451.151l-4.025,39.758h-48.2l2.323-37.493.7.013h0l.7-.008,41.71-1.084q.4-.01.8-.034A23.458,23.458,0,0,0,268.182,451.151ZM13.639,430.2l.591.416h0l.607.4,31.329,20a23.381,23.381,0,0,0,7.285,3.074l-15.11,26.578L0,451.433ZM208.805,95.078l3.315,44.142h0L195.106,156.8l9.291,1.041c2.972-1.566,40.176-20.952,42.563-11.771a8.781,8.781,0,0,1-.521.891h0l16.8-5.727c9.262,12.908,1.414,33.09,1.289,33.16q-32.161,14.053-48.288,14.936a12.006,12.006,0,0,1-3.3-.228h0l-.065.474q-50.844,6.007-106.631-4.65-13.421-2.564-29.773-62.27h0l.13-.022,42.026-7.683.325-.074a3.687,3.687,0,0,0,.608-.227h0L129.886,149.5l31.65,3.544a31.757,31.757,0,0,0,2.471-4.006,17.472,17.472,0,0,0,1.572-11.257c-.122-.693-.171-1.334-.23-2.038h0l-2.182-26.773,8.15-1.436.122-.024.121-.029.238-.072.278-.112.261-.136,8.574,17.8C188.04,121,208.805,95.078,208.805,95.078Zm-89.8-92.761c2.025-.809,13.3-5.49,21.917,1.338a15.982,15.982,0,0,1,2.2,2.059,13.989,13.989,0,0,1,3.439,6.695h0l2.468,11.2a32.049,32.049,0,0,1,.462,3.453c.947,14.385-2.551,25.459-7.619,27.217a26.759,26.759,0,0,1-8.06,1.17,57.087,57.087,0,0,1-5.774-.636l-.885-.1h0l.737,6.082c12.926.541,18.8,5.592,20.786,7.794h0l-.11.02-40.8,7.451c-7.36-5.928-18.31-7.28-25.108-2.132q5.66-5.507,19.562-9.471,3.637-1.037,6.93-1.753h0l-2.393-22.688-.415-.248a8.989,8.989,0,0,1-4.009-8.33c.3-3.326,2.773-7.9,5.792-8.445,1.694-.322,6.425,1.126,6.089-.374q-.335-1.5-3.925-15.9a1.953,1.953,0,0,1,1.366-2.288c2.231-.533,4.438-.661,6.627-1.845C118.532,2.51,118.762,2.383,119.008,2.317Z" transform="translate(26.771 35.076)" fill="#f2a98a"/><path d="M0,58.668S24.951,36.75,32.66,34.084L37.947,52.5a3.072,3.072,0,0,1,.476-.161l.252-.052.247-.03.124-.008h0l.124,0h8.276l2.5-26.745c.064-.7.127-1.344.127-2.047a17.472,17.472,0,0,1,3.5-10.813,32.786,32.786,0,0,1,2.91-3.305L24.749,0,4.417,14.533Z" transform="translate(245.736 187.918) rotate(170)" fill="#4a4b46" opacity="0.255"/><path d="M91.485,51.87a11.756,11.756,0,0,1,2.449,4.554A46.075,46.075,0,0,1,95.5,61.6c.789,3.525.8,7.579-1.716,10.316A11.819,11.819,0,0,1,85.955,75.3a14.383,14.383,0,0,1-5.552-.7c-1.769-.582-3.293-1.741-5.008-2.46a22.428,22.428,0,0,1-2.642,11.017,10.977,10.977,0,0,1-8.174,5.335,16.2,16.2,0,0,1-9.957-2.006c-.774-.419-1.541-.858-2.275-1.355a6.376,6.376,0,0,0-1.975-1.086c-.8-.189-1.2.276-1.725.863a13.111,13.111,0,0,1-2.033,1.831,11.972,11.972,0,0,1-11.208,1.928,10.415,10.415,0,0,1-4.57-3.3c-1.042-1.368-1.786-3.539-3.225-4.492-.611-.4-1.042.131-1.6.528-.835.6-1.631,1.252-2.477,1.832a11.34,11.34,0,0,1-3.849,1.741c-2.015.466-4.8.357-5.376-2.283a10.9,10.9,0,0,1,.019-3.052c.1-1.372.2-2.744.315-4.114a29.721,29.721,0,0,1,.4-3.067,4.489,4.489,0,0,0,.2-2.105c-.292-.682-1.638-.294-2.213-.318A8.74,8.74,0,0,1,9.707,69.3a3.581,3.581,0,0,1-2.013-1.863,3.349,3.349,0,0,1-.056-1.752,5.229,5.229,0,0,0-.107-1.8c-1.526.752-6.812,2.422-7.477-.314a4.281,4.281,0,0,1,.668-2.708A23.475,23.475,0,0,1,3.186,57.11a33.546,33.546,0,0,1,6.563-6.37,4.3,4.3,0,0,1-1.122-7.208A5.327,5.327,0,0,1,12.541,42.4a8.648,8.648,0,0,0,1.618.128,3.868,3.868,0,0,1,.733-.247,21.805,21.805,0,0,1,6,.762,19.789,19.789,0,0,1,9.154,4.79,2.822,2.822,0,0,0,2.117.973c.787-.008,1.56-.224,2.346-.244,2.081-.053,3.958.965,5.89,1.642a22.246,22.246,0,0,1,1.93-7.839c.871-1.916,2.69-2.195,4.477-2.363,5.715-.538,11.45.062,17.172.054-5.539-1.253-11.263-1.769-16.753-3.243-2.482-.666-.587-2.34.474-3.5A20.172,20.172,0,0,0,51.65,26.54c2.71,3.534,7.5,5.862,11.742,4.777,4.688-1.2,7.99-7.543,4.992-12.1-1.741-2.647-4.884-3.669-7.5-4.807,2.04-2.122,2.534-5.257,3.762-7.9.606-1.3,1.456-2.774,2.81-3.228a3.285,3.285,0,0,0,1.484-.591c.49-.506.606-1.072,1.232-1.507a6.943,6.943,0,0,1,8.606.663c2,2.049,1.48,5.291-.191,7.368,2.659,1.109,7.5,2.535,6.447,6.681,5.762.383,19.754,9.733,12.019,16.566,4.244,2.4,8.144,8.266,5.418,13.436-2.1,3.981-6.982,5.761-10.988,5.972" transform="translate(203.991 93.846) rotate(180)" fill="#4a4b46" fill-rule="evenodd"/><path d="M0,8.687l9.434,2.634L1.394,0Z" transform="matrix(-0.97, 0.242, -0.242, -0.97, 155.92, 96.976)" fill="#482d1f"/></g></g></g></g></g></g><g transform="matrix(0.995, -0.105, 0.105, 0.995, 1127.227, 641.112)"><g transform="translate(0 0)" clip-path="url(#a)"><path d="M113.89,53.734V67.7H109V54.712c0-3.771-2.188-6.285-5.494-6.285-4.143,0-6.89,2.794-6.89,8.614V67.7H91.775V34.18h4.842V47.449a9.97,9.97,0,0,1,8.008-3.492c5.54,0,9.265,4,9.265,9.777" transform="translate(-37.753 -14.06)" fill="#1e266d"/><path d="M158.3,63.086c0,7.169-5.54,12.1-12.337,12.1-6.844,0-12.43-4.936-12.43-12.1s5.586-12.058,12.43-12.058c6.8,0,12.337,4.889,12.337,12.058m-4.7,0A7.663,7.663,0,1,0,145.966,71a7.673,7.673,0,0,0,7.635-7.914" transform="translate(-54.931 -20.991)" fill="#1e266d"/><path d="M182.352,67.318c.326,2.747,2.747,3.91,5.773,3.91,2.794,0,4.563-1.256,4.563-3.072,0-1.4-.977-2.282-3.119-2.747l-5.028-1.024c-4-.885-6.285-3.026-6.285-6.285,0-4.283,3.584-7.31,9.125-7.31,5.308,0,8.893,2.794,9.731,6.658l-4.609.977c-.373-2.234-2.281-3.771-5.261-3.771-2.841,0-4.1,1.4-4.1,3.026,0,1.3.745,2.141,2.793,2.607L191.43,61.5c3.725.791,6.007,2.98,6.007,6.238,0,4.842-3.957,7.449-9.731,7.449-5.168,0-9.59-2.188-10.2-6.844Z" transform="translate(-73.02 -20.893)" fill="#1e266d"/><path d="M233.013,68.862a10.34,10.34,0,0,1-5.726,1.769c-4.982,0-8.335-2.793-8.335-8.52V39.717H223.8v7.17h7.915v4H223.8V61.785c0,2.886,1.536,4.284,3.818,4.284a7.594,7.594,0,0,0,3.91-1.257Z" transform="translate(-90.068 -16.338)" fill="#1e266d"/><path d="M251.534,38.38a2.915,2.915,0,0,1-3.026,2.933,2.876,2.876,0,0,1-2.98-2.933,2.931,2.931,0,0,1,2.98-2.933,2.972,2.972,0,0,1,3.026,2.933m-5.4,6.751h4.842V68.222h-4.842Z" transform="translate(-101 -14.581)" fill="#1e266d"/><path d="M286.387,60.567V74.534H281.5V61.544c0-3.771-2.188-6.286-5.494-6.286-4.143,0-6.89,2.794-6.89,8.614V74.534h-4.842V51.442h4.842v2.84a9.97,9.97,0,0,1,8.008-3.492c5.54,0,9.265,4,9.265,9.777" transform="translate(-108.711 -20.893)" fill="#1e266d"/><path d="M329.93,72.518c0,6.891-4.749,10.9-11.965,10.9-5.54,0-9.4-2.1-11.267-5.54l3.958-2.933c1.722,2.7,3.631,4.1,7.309,4.1,4.377,0,7.263-2.747,7.263-7.217V70.33c-1.769,1.862-4.422,2.887-7.961,2.887a11.174,11.174,0,1,1,0-22.347c3.538,0,6.192,1.024,7.961,2.886v-2.28h4.7ZM325.228,62a6.964,6.964,0,0,0-7.169-7.03c-4.144,0-7.4,2.747-7.4,7.03,0,4.236,3.259,7.03,7.4,7.03A6.993,6.993,0,0,0,325.228,62" transform="translate(-125.857 -20.926)" fill="#1e266d"/><path d="M375.336,64.152H356.62C357.086,68.435,360.205,71,363.6,71a6.9,6.9,0,0,0,6.8-4l4.33.931c-1.909,4.842-6.006,7.263-11.128,7.263a11.734,11.734,0,0,1-11.779-12.151A11.8,11.8,0,0,1,363.79,50.79c6.192,0,11.313,4.749,11.546,11.686ZM356.76,60.707h13.595c-.745-3.771-3.4-5.633-6.565-5.633a7.046,7.046,0,0,0-7.03,5.633" transform="translate(-144.727 -20.893)" fill="#1e266d"/><path d="M413.182,68.862a10.341,10.341,0,0,1-5.726,1.769c-4.982,0-8.335-2.793-8.335-8.52V39.717h4.842v7.17h7.915v4h-7.915V61.785c0,2.886,1.536,4.284,3.818,4.284a7.594,7.594,0,0,0,3.91-1.257Z" transform="translate(-164.183 -16.338)" fill="#1e266d"/><path d="M41.5,79.327V33.639A1.453,1.453,0,0,0,40.156,32.1H1.347A1.453,1.453,0,0,0,0,33.639V55.714H20.752Z" transform="translate(0 -13.205)" fill="#771bfc"/><path d="M2.3,93.166,20.707,72.129H0V92.077c0,1.372,1.451,2.058,2.3,1.088" transform="translate(0 -29.671)" fill="#f8b409"/><path d="M44.414,0,7.083,37.331l21.8-.45L44.4,31.237Z" transform="translate(-2.914 0)" fill="#ff0054"/><path d="M44.111,28.235a11.538,11.538,0,0,1-2.388,6.235c-2.369,3.125-5.682,3.468-9.278,3.468H6.414V53.7H44.142s-.031-25.465-.031-25.467" transform="translate(-2.638 -11.615)" fill="#771bfc"/></g></g></g></svg>