<svg xmlns="http://www.w3.org/2000/svg" width="1092.714" height="1365.004" xmlns:v="https://vecta.io/nano"><defs><clipPath id="A"><path fill="none" d="M0 0h249v66.123H0z"/></clipPath></defs><path d="M1092.713 1365.004V421.843c0-17.547-12.443-31.777-27.8-31.777H263.737c-15.345 0-27.8 14.23-27.8 31.777v455.7h428.394z" fill="#771bfc"/><path d="M1092.659 0L322.014 770.645l449.951-9.3 320.427-116.505z" fill="#ff0054"/><path d="M1092.05 343.099c.049 42.993-23.878 95.2-49.3 128.722-48.91 64.513-117.288 71.6-191.522 71.6H313.859v325.407h778.835l-.644-525.729" fill="#771bfc"/><g transform="matrix(.999391 -.034899 .034899 .999391 -20.601 240.47)"><g fill-rule="evenodd"><path d="M875.17 619.853a2.73 2.73 0 0 1 2.882 2.425v.882a2.69 2.69 0 0 1-2.882 2.425h-65.642a2.73 2.73 0 0 1-2.882-2.425v-.882a2.69 2.69 0 0 1 2.882-2.425zm-162.23 0c.736 0 1.441.292 1.962.812s.812 1.226.812 1.962h0v.184c0 .736-.292 1.441-.812 1.962s-1.226.812-1.962.812H608.344c-1.532 0-2.774-1.242-2.774-2.774h0v-.184c0-1.532 1.242-2.774 2.774-2.774h104.6z" fill="#2572e9"/><path d="M665.146 579.867l48 1.1v38.894l-.2-.008-104.037.003a6.49 6.49 0 0 1-.1-1.36c.045-.491.118-.978.218-1.461.822-3.043 1.818-5.064 4.732-6.861a81.15 81.15 0 0 1 8.987-4.812c11.43-5.343 15.336-5.275 22.851-10.177a60.79 60.79 0 0 0 8.642-6.984 107.17 107.17 0 0 1 10.907-8.334zm193.44-.966l16.823 40.96-.236-.008h-65.42l5.8-36.054z" fill="#f2f2f2"/><path d="M740.079 221.827c7.827-2.927 22.76-6.02 33.419-2.651 12.461 3.945 20.15 14.739 20.15 14.739s1.827-1.893 20.873 51.049q19.046 52.942 36.951 143.486 1.715 10.147 19.816 114.57.015.086.027.173c.233 1.618-.186 3.263-1.165 4.572s-2.438 2.176-4.056 2.409h0l-67.2 9.7c-3.088.446-6.023-1.487-6.833-4.5q-12.522-46.618-13.542-50.957c-1.456-5.765-2.889-12.293-4.371-19.771h0l-11.663-56.149q-.171-.816-.662-5.3l-13.965-50.979q-4.668 17.805-10.1 38.191-2.671 114.323-3.979 130.025-.2 2.443-1.3 18.088c-.234 3.344-3.098 5.888-6.447 5.726l-69.267-3.354c-3.154-.152-5.683-2.664-5.857-5.817q-4.562-82.47 6.077-155.16c11-75.125 27.588-105.827 37.488-134.726q.166-.516 23.552-37.084 8.141.045 14.748.468c2.211-2.481 4.658-4.741 7.306-6.748z" fill="#f8b409"/></g><path d="M721.84 276.287l12.066 44.128 14.042 51.25q-4.7 18.044-10.19 38.743-2.74 113.964-4.049 129.666-.9 10.833-1.347 18.362c-.199 3.377-3.082 5.963-6.461 5.794l-69.33-3.464c-3.155-.157-5.68-2.675-5.848-5.829q-4.375-82.341 6.262-155.02c10.996-75.121 27.391-105.963 37.291-134.862.089-.278 14.256-10.952 28.956-20.159a51.25 51.25 0 0 0-1.392 31.391z" fill="#4a4b46" opacity=".255"/><path d="M753.967 116.221l.194 2.76q24.641-3.042 28.761-1.423c25.437 10 29.572 53.582 29.415 66.843q-.063 5.323-17.067 9.587l2.395 22.421v.072a11.37 11.37 0 0 0 .137 1.479c.361 2.721-86.162 29.356-86.162 29.356-.034-.033-.079-.051-.126-.052a11.13 11.13 0 0 1-2.748-.95 9.45 9.45 0 0 1-2.3-1.365c-5.786-4.5-6.719-15.744-6.84-18.485l-.137-1.552-1.954-27.624q-6.075 2.609-13.242 5.309l.026-64.066a11.1 11.1 0 0 1 6.619-10.148q14.2-6.261 26.755-3.859a50.38 50.38 0 0 1 3.946-1.245l-.267-4.816c-.038-.674.473-1.253 1.146-1.3l30.134-2.088c.326-.023.648.086.895.301s.398.519.42.845z" fill="#fff"/><path d="M854.857 551.677l3.729 27.224-43.034 4.9-6-25.6zm-187.845 9.547l46.451 2.23-.481 17.794-11.287-.257-36.549-1.125zm136.785-370.218q.328 37.173-5.365 42.754c-8.609 8.438-53.5 29.23-98.475 34.757q-15.064 6.659-49.875 9.626-9.949-6.39-10.728-22.262l15.755-5.394a9.08 9.08 0 0 1-1.006-.4c-3.4-7.731 38.409-14.6 45.943-16.368l.147-.036.464-.405a1.35 1.35 0 0 1 .531.052l52.976-23.846 1.052-9.53q34.972-3.817 48.581-8.948zM646.858 88.812l.058.589 5.933 66.7 31.461-15.049.115 60.918c-21.6 9.326-54.015 15.976-63.583 6.081l-.382-.418q-18.43-21.358-4.853-116.307-29.634-6.537-41.055-14.201a7.24 7.24 0 0 1 4.275-13.255q29.023.673 36.781-.11l.389-.037c15.394-1.407 29.096 9.732 30.861 25.089z" fill="#db9e75"/><path d="M717.212 124.4l-.2.075c-5.738 2.171-11.582 5.693-15.488 11.406a25.43 25.43 0 0 0-3.5 7.684h0l-.415 1.475-.07.234c-.35 1.167-1 3.336-1.528 5.659-.6 2.8-.86 8.081-.759 15.391h0l.016.186.149 3.052.087 1.147 2 26.561q-6.039 2.599-13.162 5.28l-.018-64.042a11.1 11.1 0 0 1 6.584-10.141q13.936-6.202 26.304-3.967z" fill="#444" opacity=".177"/><g transform="matrix(-1 0 0 -1 884.653 116.917)"><path d="M174.611 66.97c6.177-11.326 5.443-40.056-2.54-42.08-3.184-.807-9.966 1.17-16.869 5.263L159.535 0h-25.584l8.807 40.383c-4.907 5.671-8.236 12.617-7.68 20.409 1.6 22.441 33.356 17.508 39.533 6.178z" fill="#db9e75"/><path d="M142.576 37.382l13.434-6.837L158.949.44z" fill="#482d1f"/><path d="M159.974 80.189c-3.431.549-12.671.927-14.375.927-1.089 0-2.269-.243-2.914.733-.528.8-.335 2.151-.492 3.079-.183 1.077-.443 2.141-.706 3.2a32.1 32.1 0 0 1-3.463 8.587 26.82 26.82 0 0 1-12.816 11.328c-6.067 2.546-12.932 3.126-19.458 2.609-6.983-.553-13.305-2.8-19.9-4.921-6.25-2.103-12.903-2.728-19.436-1.827-6.621.993-11.624 4.5-17.209 7.821-5.717 3.4-12.251 5.631-19.01 5.119-6.309-.478-12.124-3.021-17.341-6.418-4.881-3.179-8.909-7-11.183-12.385-2.444-5.79-2.442-12.145 1.581-17.262 5.831-7.417 16.655-9.335 25.66-9.144a50.09 50.09 0 0 1 15.242 2.727c6.558 2.252 12.226 6.069 18.362 9.166 2.868 1.464 5.874 2.639 8.975 3.507 3.027.835 6.009 1.217 8.75-.568 2.9-1.889 5.5-3.744 8.815-4.926 3.187-1.157 6.553-1.748 9.944-1.744 6.6.05 13.1 2.056 19.506 3.4 5.225 1.1 10.815 2.188 16.141 1.135 2.223-.44 5.469-1.347 6.272-3.6-13.511-2.39-18.817-18.7-15.009-30.677 2.056-6.466 14.413-14.021 19.218-10.624 3.044 2.153 1.2 4.979 0 6.844-2.29 3.573-3.074 8.162 1.164 10.649 3.656 2.145 7.5-2.949 7.572-2.943 1 .077 9.686 4.87 15.668 11.865 5.9-.341 6.8 3.457 5.387 6.563s-10.204 7.016-14.945 7.78z" fill="#de6903"/></g><g fill-rule="evenodd"><path d="M238.926 639.235l107.038.171c.742-.034 1.465.234 2.006.743s.852 1.215.863 1.957l.007.384a2.83 2.83 0 0 1-2.84 2.674l-107.105-.17a2.81 2.81 0 0 1-2.8-2.7l-.007-.384a2.83 2.83 0 0 1 2.838-2.675zM2.838 590.305h.3a2.2 2.2 0 0 1 1.174.368l.223.149L66.9 639.25l34.13.078a2.74 2.74 0 0 1 2.721 2.64l.007.384a2.74 2.74 0 0 1-2.693 2.671l-37.331-.118.109-.383-.154.032-62.656-49.19c-1.082-.831-1.348-2.352-.611-3.5l.165-.211.191-.32c.444-.541 1.073-.898 1.766-1z" fill="#2572e9"/><path d="M291.642 599.347q8.827 5.8 11.484 8.373c2.644 2.597 5.521 4.945 8.594 7.016 7.475 4.924 11.359 4.856 22.727 10.224 3.078 1.421 6.064 3.036 8.938 4.834 2.9 1.8 3.889 3.835 4.706 6.892a13.36 13.36 0 0 1 .217 1.468 4.45 4.45 0 0 1-.306 2.028c-.548-.521-1.281-.8-2.037-.776h0l-107.038-.171a3.06 3.06 0 0 0-.5.05l4.3-39.8zM26.772 560.2l38.34 29.239 1.146 3.839q6.688 23.544 7.261 24.822c.46 1 .936 1.921 1.437 2.82 3.463 1.416 7.4 2.8 13.4 5.817 3.053 1.475 6.01 3.142 8.853 4.99 2.866 1.855 3.821 3.9 4.586 6.974a5.22 5.22 0 0 1 .12.769 2.48 2.48 0 0 0-.889-.145h0l-34.13-.078-62.363-48.425h0z" fill="#f2f2f2"/><path d="M191.771 274.749q3.468 7.523 5.149 20.267a32.12 32.12 0 0 1 30.16 7.544q62.253 58.056 75.5 98.441 8.227 25.081 14.705 121.708c1.677 25.026-17.251 46.673-42.277 48.351q-.928.062-1.859.086c-26.104.682-47.965-19.629-49.2-45.713l-4.628-97.558q-14.507-15.4-25.137-26.991c-1.639 9.477-4.23 19.361-8.548 32.809q-10.283 32.032-83.815 126.616c-9.028 12.13-25.9 15.21-38.631 7.051l-14.618-9.37c-19.338-12.396-24.965-38.121-12.57-57.459q.685-1.069 1.435-2.1l60.309-82.525q2.51-57.129 9.939-99.959c7.43-42.827 63.036-41.902 84.086-41.198z" fill="#2572e9"/></g><path d="M210.242 289.921c6.033 1.126 11.616 3.958 16.087 8.162q63.139 59.36 76.55 100.622 8.328 25.622 14.881 124.5c.805 12.149-3.248 24.119-11.269 33.279s-19.352 14.758-31.501 15.563q-.915.061-1.833.085c-26.358.691-48.428-19.823-49.663-46.161l-4.694-99.87q-14.769-15.824-25.558-27.701c2.743-16.294 2.777-31.635 3.93-61.565q1.092-28.35-1.369-46.3c4.703-1.305 9.642-1.515 14.439-.614z" fill="#4a4b46" opacity=".255"/><path d="M230.127 131.426l397.717-27.938 17.931 257.677c.464 6.79-4.653 12.676-11.442 13.162l-373.121 26.21c-3.26.231-6.479-.843-8.946-2.987s-3.983-5.179-4.211-8.44l-17.929-257.685z" fill="#f2f6fb"/><path d="M228.905 113.952c-.468-6.785 4.646-12.668 11.43-13.149l373.136-26.251a12.3 12.3 0 0 1 13.138 11.42l1.314 18.911-397.703 27.98z" fill="#e1e5f0"/><ellipse cx="6.687" cy="6.718" rx="6.687" ry="6.718" transform="matrix(.997564 -.069756 .069756 .997564 242.675 110.019)" fill="#ea4336"/><ellipse cx="6.687" cy="6.718" rx="6.687" ry="6.718" transform="matrix(.997564 -.069756 .069756 .997564 264.912 108.457)" fill="#ffb100"/><ellipse cx="6.687" cy="6.718" rx="6.687" ry="6.718" transform="matrix(.997564 -.069756 .069756 .997564 287.784 106.85)" fill="#00856a"/><path d="M143.057 170.526c5.229-.908 10.575-.896 15.8.034 7.339.156 14.494 2.324 20.686 6.266a37.68 37.68 0 0 1 6.018 4.786s5.066 4.889 11.685 21.523q1.162 2.986 3.387 9.955a3.08 3.08 0 0 1-2 3.873h0l-.166.048q-.084.022-.169.039h0l-8.123 1.619 2.13 26.136c.059.7.108 1.345.23 2.038a17.47 17.47 0 0 1-1.572 11.257c-3.022 5.6-7.821 13.593-32.954 17.765-23.377 3.862-30.181-2.084-34.789-6.21-3.3-2.927-4.684-7.49-5.3-10.629-.122-.693-.3-1.312-.481-1.994h0l-6.666-26.755-7.2 1.337a3.7 3.7 0 0 1-.515.059h-.259a3.7 3.7 0 0 1-3.6-3.8q.836-31.069 6.213-40.525a14.27 14.27 0 0 1 3.646-4.239c6.331-6.237 17.302-9.72 30.424-11.955h0z" fill="#fff"/><path d="M158.761 170.524c12.408 2.217 22.435 9.606 27.273 19.177a25.88 25.88 0 0 1 2.615 10.064h0l1.54 18.879 8.097-1.577q.086-.015.169-.038l.166-.048c1.623-.511 2.525-2.241 2.015-3.865q-2.21-7.023-3.372-10.007c-6.619-16.634-11.685-21.523-11.685-21.523a37.68 37.68 0 0 0-6.022-4.785c-6.207-3.979-13.399-6.152-20.771-6.276z" fill="#444" opacity=".177"/><path d="M294.953 559.918l-4.025 39.758h-48.2l2.323-37.493.7.013h0l.7-.008 41.71-1.084q.4-.01.8-.034a23.46 23.46 0 0 0 5.992-1.152zM40.41 538.967l.591.416h0l.607.4 31.329 20a23.38 23.38 0 0 0 7.285 3.074l-15.11 26.578L26.771 560.2zm195.166-335.122l3.315 44.142h0l-17.014 17.58 9.291 1.041c2.972-1.566 40.176-20.952 42.563-11.771a8.78 8.78 0 0 1-.521.891h0l16.8-5.727c9.262 12.908 1.414 33.09 1.289 33.16q-32.161 14.053-48.288 14.936c-1.105.077-2.216 0-3.3-.228h0l-.065.474q-50.844 6.007-106.631-4.65-13.421-2.564-29.773-62.27h0l.13-.022 42.026-7.683.325-.074c.209-.058.412-.134.608-.227h0l10.326 34.85 31.65 3.544c.922-1.272 1.748-2.611 2.471-4.006a17.47 17.47 0 0 0 1.572-11.257c-.122-.693-.171-1.334-.23-2.038h0l-2.182-26.773 8.15-1.436.122-.024.121-.029.238-.072.278-.112.261-.136 8.574 17.8c7.129-3.961 27.894-29.883 27.894-29.883zm-89.8-92.761c2.025-.809 13.3-5.49 21.917 1.338a15.98 15.98 0 0 1 2.2 2.059 13.99 13.99 0 0 1 3.439 6.695h0l2.468 11.2a32.05 32.05 0 0 1 .462 3.453c.947 14.385-2.551 25.459-7.619 27.217a26.76 26.76 0 0 1-8.06 1.17c-1.934-.114-3.861-.326-5.774-.636l-.885-.1h0l.737 6.082c12.926.541 18.8 5.592 20.786 7.794h0l-.11.02-40.8 7.451c-7.36-5.928-18.31-7.28-25.108-2.132q5.66-5.507 19.562-9.471 3.637-1.037 6.93-1.753h0l-2.393-22.688-.415-.248a8.99 8.99 0 0 1-4.009-8.33c.3-3.326 2.773-7.9 5.792-8.445 1.694-.322 6.425 1.126 6.089-.374q-.335-1.5-3.925-15.9c-.216-1.003.38-2.003 1.366-2.288 2.231-.533 4.438-.661 6.627-1.845.25-.076.48-.203.726-.269z" fill="#f2a98a"/><g fill="#4a4b46"><path d="M235.548 203.832s-20.766 25.918-27.895 29.882l-8.405-17.218a3.07 3.07 0 0 1-.441.241l-.239.095-.238.072-.121.029h0l-.122.022-8.15 1.437 2.182 26.773.23 2.038a17.47 17.47 0 0 1-1.569 11.256c-.679 1.303-1.445 2.56-2.292 3.76l32.874 3.687 17.499-17.843z" opacity=".255"/><path d="M112.506 115.667c-1.144-1.317-1.981-2.873-2.449-4.554-.623-1.693-1.146-3.421-1.566-5.176-.789-3.525-.8-7.579 1.716-10.316a11.82 11.82 0 0 1 7.829-3.384c1.879-.132 3.765.105 5.552.7 1.769.582 3.293 1.741 5.008 2.46a22.43 22.43 0 0 1 2.642-11.017c1.741-2.959 4.765-4.933 8.174-5.335a16.2 16.2 0 0 1 9.957 2.006c.774.419 1.541.858 2.275 1.355.589.476 1.257.844 1.975 1.086.8.189 1.2-.276 1.725-.863a13.11 13.11 0 0 1 2.033-1.831 11.97 11.97 0 0 1 11.208-1.928c1.798.659 3.379 1.801 4.57 3.3 1.042 1.368 1.786 3.539 3.225 4.492.611.4 1.042-.131 1.6-.528.835-.6 1.631-1.252 2.477-1.832a11.34 11.34 0 0 1 3.849-1.741c2.015-.466 4.8-.357 5.376 2.283a10.9 10.9 0 0 1-.019 3.052l-.315 4.114a29.72 29.72 0 0 1-.4 3.067 4.49 4.49 0 0 0-.2 2.105c.292.682 1.638.294 2.213.318a8.74 8.74 0 0 1 3.323.737 3.58 3.58 0 0 1 2.013 1.863 3.35 3.35 0 0 1 .056 1.752 5.23 5.23 0 0 0 .107 1.8c1.526-.752 6.812-2.422 7.477.314a4.28 4.28 0 0 1-.668 2.708c-.7 1.327-1.525 2.584-2.464 3.753-1.887 2.413-4.095 4.556-6.563 6.37a4.3 4.3 0 0 1 1.122 7.208c-1.103.881-2.511 1.288-3.914 1.132a8.65 8.65 0 0 0-1.618-.128 3.87 3.87 0 0 1-.733.247c-2.026.026-4.045-.231-6-.762a19.79 19.79 0 0 1-9.154-4.79 2.82 2.82 0 0 0-2.117-.973c-.787.008-1.56.224-2.346.244-2.081.053-3.958-.965-5.89-1.642-.16 2.709-.814 5.366-1.93 7.839-.871 1.916-2.69 2.195-4.477 2.363-5.715.538-11.45-.062-17.172-.054 5.539 1.253 11.263 1.769 16.753 3.243 2.482.666.587 2.34-.474 3.5a20.17 20.17 0 0 0-3.951 6.773c-2.71-3.534-7.5-5.862-11.742-4.777-4.688 1.2-7.99 7.543-4.992 12.1 1.741 2.647 4.884 3.669 7.5 4.807-2.04 2.122-2.534 5.257-3.762 7.9-.606 1.3-1.456 2.774-2.81 3.228-.536.072-1.045.275-1.484.591-.49.506-.606 1.072-1.232 1.507-2.674 1.806-6.24 1.531-8.606-.663-2-2.049-1.48-5.291.191-7.368-2.659-1.109-7.5-2.535-6.447-6.681-5.762-.383-19.754-9.733-12.019-16.566-4.244-2.4-8.144-8.266-5.418-13.436 2.1-3.981 6.982-5.761 10.988-5.972" fill-rule="evenodd"/></g><path d="M153.818 162.241l-9.788-.272 10.538 9.036z" fill="#482d1f"/></g><g transform="matrix(.995 -.105 .105 .995 299.941 439.26)" clip-path="url(#A)"><g fill="#1e266d"><path d="M76.137 39.674V53.64h-4.89V40.652c0-3.771-2.188-6.285-5.494-6.285-4.143 0-6.89 2.794-6.89 8.614V53.64h-4.841V20.12h4.842v13.269a9.97 9.97 0 0 1 8.008-3.492c5.54 0 9.265 4 9.265 9.777m27.232 2.421c0 7.169-5.54 12.1-12.337 12.1-6.844 0-12.43-4.936-12.43-12.1s5.586-12.058 12.43-12.058c6.8 0 12.337 4.889 12.337 12.058m-4.7 0c-.138-4.2-3.633-7.506-7.835-7.41s-7.542 3.559-7.487 7.761 3.485 7.576 7.687 7.563a7.67 7.67 0 0 0 5.488-2.346c1.438-1.491 2.212-3.499 2.147-5.568m10.663 4.33c.326 2.747 2.747 3.91 5.773 3.91 2.794 0 4.563-1.256 4.563-3.072 0-1.4-.977-2.282-3.119-2.747l-5.028-1.024c-4-.885-6.285-3.026-6.285-6.285 0-4.283 3.584-7.31 9.125-7.31 5.308 0 8.893 2.794 9.731 6.658l-4.609.977c-.373-2.234-2.281-3.771-5.261-3.771-2.841 0-4.1 1.4-4.1 3.026 0 1.3.745 2.141 2.793 2.607l5.495 1.213c3.725.791 6.007 2.98 6.007 6.238 0 4.842-3.957 7.449-9.731 7.449-5.168 0-9.59-2.188-10.2-6.844zm33.613 6.099a10.34 10.34 0 0 1-5.726 1.769c-4.982 0-8.335-2.793-8.335-8.52V23.379h4.848v7.17h7.915v4h-7.915v10.898c0 2.886 1.536 4.284 3.818 4.284 1.394-.052 2.747-.487 3.91-1.257zm7.589-28.725a2.92 2.92 0 0 1-.886 2.113c-.571.554-1.345.85-2.14.82-.791.029-1.558-.269-2.122-.824s-.874-1.318-.858-2.109a2.93 2.93 0 0 1 2.98-2.933 2.97 2.97 0 0 1 3.026 2.933m-5.4 6.751h4.842v23.091h-4.842zm32.542 9.124v13.967h-4.887v-12.99c0-3.771-2.188-6.286-5.494-6.286-4.143 0-6.89 2.794-6.89 8.614v10.662h-4.842V30.549h4.842v2.84a9.97 9.97 0 0 1 8.008-3.492c5.54 0 9.265 4 9.265 9.777m26.395 11.918c0 6.891-4.749 10.9-11.965 10.9-5.54 0-9.4-2.1-11.267-5.54l3.958-2.933c1.722 2.7 3.631 4.1 7.309 4.1 4.377 0 7.263-2.747 7.263-7.217v-1.498c-1.769 1.862-4.422 2.887-7.961 2.887-4.017.038-7.745-2.083-9.765-5.556a11.17 11.17 0 0 1 0-11.235c2.02-3.473 5.748-5.594 9.765-5.556 3.538 0 6.192 1.024 7.961 2.886v-2.28h4.7zm-4.702-10.518a6.96 6.96 0 0 0-2.088-5.041c-1.353-1.326-3.187-2.045-5.081-1.989-4.144 0-7.4 2.747-7.4 7.03 0 4.236 3.259 7.03 7.4 7.03a6.99 6.99 0 0 0 5.072-1.998c1.351-1.325 2.107-3.14 2.097-5.032m31.238 2.185h-18.716c.466 4.283 3.585 6.848 6.98 6.848a6.9 6.9 0 0 0 6.8-4l4.33.931c-1.909 4.842-6.006 7.263-11.128 7.263-3.193.014-6.255-1.274-8.478-3.567a11.73 11.73 0 0 1-3.301-8.584 11.8 11.8 0 0 1 11.967-12.253c6.192 0 11.313 4.749 11.546 11.686zm-18.576-3.445h13.595c-.745-3.771-3.4-5.633-6.565-5.633-3.394-.061-6.35 2.307-7.03 5.633m36.966 12.71a10.34 10.34 0 0 1-5.726 1.769c-4.982 0-8.335-2.793-8.335-8.52V23.379h4.842v7.17h7.915v4h-7.915v10.898c0 2.886 1.536 4.284 3.818 4.284 1.394-.052 2.747-.487 3.91-1.257z"/></g><path d="M41.5 66.122V20.434c.049-.795-.55-1.481-1.344-1.539H1.347c-.795.057-1.396.743-1.347 1.539v22.075h20.752z" fill="#771bfc"/><path d="M2.3 63.495l18.407-21.037H0v19.948c0 1.372 1.451 2.058 2.3 1.088" fill="#f8b409"/><path d="M41.5 0L4.169 37.331l21.8-.45 15.517-5.644z" fill="#ff0054"/><path d="M41.473 16.62a11.54 11.54 0 0 1-2.388 6.235c-2.369 3.125-5.682 3.468-9.278 3.468H3.776v15.762h37.728l-.031-25.467" fill="#771bfc"/></g></svg>