<svg xmlns="http://www.w3.org/2000/svg" width="419.8" height="366" viewBox="0 0 419.8 366"><g transform="translate(-1079.1 -1303.247)"><g transform="translate(981.5 1300.247)"><path d="M311.256,285.313c-49.469,0-89.714-40.115-89.714-89.422s40.245-89.422,89.714-89.422,89.713,40.114,89.713,89.422S360.724,285.313,311.256,285.313Zm0-177.844c-48.917,0-88.714,39.666-88.714,88.422s39.8,88.422,88.714,88.422,88.713-39.666,88.713-88.422S360.172,107.469,311.256,107.469Z" fill="#fbad40"/><path d="M311.256,293.632c-53.882,0-97.717-43.594-97.717-97.177,0-32.313,18.82-56.192,34.608-70.534,19.856-18.078,40.5-26.866,63.109-26.866,30.7,0,53.936,16.792,68.021,30.878,19.7,19.679,29.7,42.06,29.7,66.522,0,22.865-9.829,44.762-29.212,65.082C359.447,282.833,336.4,293.632,311.256,293.632Zm0-193.577c-22.349,0-42.772,8.7-62.436,26.606-15.639,14.206-34.281,37.847-34.281,69.794,0,53.032,43.387,96.177,96.717,96.177,24.859,0,47.664-10.694,67.781-31.785,19.2-20.128,28.936-41.793,28.936-64.392,0-24.187-9.893-46.33-29.4-65.815C364.618,116.687,341.614,100.055,311.256,100.055Z" fill="#fba63f"/><path d="M311.256,301.95A105.495,105.495,0,0,1,236.5,271.31a103.856,103.856,0,0,1-30.967-74.292c0-25.659,12.857-50,39.306-74.406,17.367-16.085,37.434-30.971,66.415-30.971,24.639,0,48.207,11.452,72.052,35.009,22.97,22.646,33.668,45.006,33.668,70.368,0,29.133-16.985,50.933-33.6,68.415C359.378,290.688,337.136,301.95,311.256,301.95Zm0-209.309c-28.636,0-48.518,14.758-65.737,30.705-26.232,24.209-38.984,48.307-38.984,73.672a102.862,102.862,0,0,0,30.67,73.582,104.5,104.5,0,0,0,74.051,30.35c25.583,0,47.6-11.166,71.4-36.206,16.479-17.339,33.325-38.945,33.325-67.726,0-25.077-10.6-47.211-33.37-69.656C358.957,104,335.618,92.641,311.256,92.641Z" fill="#fc9f3d"/><path d="M311.256,310.269A113.611,113.611,0,0,1,230.843,277.4a111.433,111.433,0,0,1-33.311-79.822c0-32.7,22.243-57.92,44-78.28,20.424-19.19,39.769-35.074,69.722-35.074,31.76,0,56.283,19.785,76.084,39.139,19.549,19.065,37.64,41.251,37.64,74.215,0,29.266-17.2,49.808-37.989,71.748C368.23,289.137,345.359,310.269,311.256,310.269Zm0-225.041c-29.587,0-48.771,15.762-69.038,34.8-21.6,20.215-43.686,45.236-43.686,77.551a110.439,110.439,0,0,0,33.014,79.111,112.619,112.619,0,0,0,79.71,32.576c33.706,0,56.391-20.971,75.009-40.627,20.634-21.781,37.715-42.162,37.715-71.06,0-32.593-17.946-54.587-37.339-73.5-19.656-19.21-43.984-38.851-75.385-38.851Z" fill="#fc983c"/><path d="M311.256,318.588a121.723,121.723,0,0,1-86.072-35.09,119.017,119.017,0,0,1-35.656-85.352c0-36.024,28.147-62.687,48.7-82.155l1.473-1.4c21.3-20.27,39.689-37.776,71.556-37.776,32.7,0,57.506,21.376,80.115,43.27,21.929,21.186,41.612,43.1,41.612,78.062,0,30.452-19.792,51.292-38.932,71.446q-1.725,1.816-3.445,3.634C366.33,298.928,345.074,318.588,311.256,318.588Zm0-240.774c-31.467,0-49.725,17.378-70.867,37.5l-1.474,1.4c-25.5,24.154-48.387,48.557-48.387,81.429a118.028,118.028,0,0,0,35.358,84.64,120.73,120.73,0,0,0,85.37,34.8c33.418,0,54.515-19.524,78.623-45.048q1.719-1.821,3.447-3.636c19-20.012,38.657-40.7,38.657-70.758,0-34.571-19.539-56.312-41.307-77.343-22.462-21.747-47.1-42.984-79.42-42.984Z" fill="#fd913b"/><path d="M311.256,326.906a129.836,129.836,0,0,1-91.731-37.315,126.6,126.6,0,0,1-38-90.882c0-35.064,26.634-60.483,50.132-82.91l3.264-3.118q3.082-2.962,6.059-5.879c20.586-20.069,38.365-37.4,70.276-37.4,34.793,0,60.8,24.979,83.746,47.017l.4.385c26.691,25.579,45.584,46.427,45.584,81.907,0,30.137-19.677,50.416-38.7,70.026-2.658,2.739-5.406,5.57-8.061,8.388l-2.327,2.472C369.012,303.925,347.4,326.906,311.256,326.906Zm0-256.506c-31.5,0-49.148,17.2-69.577,37.118q-2.988,2.912-6.066,5.885l-3.266,3.119c-23.353,22.289-49.822,47.551-49.822,82.187a125.615,125.615,0,0,0,37.7,90.17,128.851,128.851,0,0,0,91.03,37.027c35.71,0,57.18-22.828,79.91-47l2.327-2.473c2.661-2.823,5.411-5.657,8.071-8.4,19.759-20.364,38.423-39.6,38.423-69.33,0-35.084-18.766-55.779-45.277-81.186l-.4-.385C371.5,95.231,345.647,70.4,311.256,70.4Z" fill="#fd8a3a"/><path d="M311.256,335.225a137.958,137.958,0,0,1-97.39-39.54,134.185,134.185,0,0,1-40.345-96.412c0-34.793,26.623-60.026,50.112-82.288,2.7-2.56,5.375-5.1,7.982-7.615,3.295-3.2,6.483-6.4,9.565-9.5,20.206-20.326,37.656-37.879,70.076-37.879,34.52,0,60.4,24.861,83.234,46.8q2.487,2.389,4.945,4.738l1.012.962c26.047,24.78,48.544,46.181,48.544,84.791,0,30.336-19.128,49.469-39.379,69.725-3.9,3.9-7.941,7.943-11.776,12.022q-3.248,3.453-6.433,6.907C368.858,312.251,347.563,335.225,311.256,335.225Zm0-272.238c-32,0-49.318,17.417-69.367,37.584-3.085,3.1-6.276,6.314-9.579,9.518-2.609,2.523-5.285,5.059-7.989,7.622-23.343,22.123-49.8,47.2-49.8,81.562a133.2,133.2,0,0,0,40.046,95.7,136.959,136.959,0,0,0,96.689,39.253c35.87,0,57.021-22.819,79.414-46.978q3.195-3.447,6.438-6.912c3.845-4.09,7.888-8.133,11.8-12.044,20.1-20.1,39.086-39.1,39.086-69.018,0-38.181-22.353-59.445-48.234-84.066l-1.012-.963q-2.461-2.346-4.947-4.741c-22.7-21.8-48.427-46.517-82.545-46.517Z" fill="#fd8238"/><path d="M311.256,343.544c-39.024,0-75.621-14.833-103.05-41.765a141.775,141.775,0,0,1-42.689-101.942c0-34.969,25.883-59.145,50.913-82.524,4.143-3.87,8.056-7.525,11.879-11.254,4.349-4.252,8.455-8.524,12.427-12.656,20.026-20.836,37.321-38.83,70.52-38.83,34.7,0,59.555,24.087,83.6,47.381,2.833,2.744,5.762,5.581,8.615,8.283q2.328,2.2,4.63,4.364c26.238,24.676,48.9,45.987,48.9,85.236,0,30.829-19.694,49.9-40.544,70.087-5,4.843-10.173,9.85-15,14.992-3.312,3.529-6.585,7.134-9.751,10.62C369.28,320.224,348.1,343.544,311.256,343.544Zm0-287.971c-32.773,0-49.931,17.852-69.8,38.523-3.976,4.137-8.088,8.415-12.448,12.679-3.831,3.737-7.748,7.395-11.9,11.268-24.874,23.235-50.6,47.26-50.6,81.794A140.77,140.77,0,0,0,208.9,301.065c27.24,26.748,63.588,41.479,102.349,41.479,36.4,0,57.437-23.16,79.7-47.681,3.168-3.488,6.445-7.1,9.762-10.631,4.842-5.159,10.022-10.175,15.032-15.026,20.694-20.038,40.24-38.964,40.24-69.369,0-38.817-22.514-59.991-48.582-84.508q-2.3-2.165-4.633-4.365c-2.857-2.706-5.788-5.546-8.622-8.292-23.886-23.155-48.6-47.1-82.888-47.1Z" fill="#fe7b37"/><path d="M311.256,351.862c-41.176,0-79.783-15.622-108.708-43.99A149.349,149.349,0,0,1,157.514,200.4c0-35.415,26.537-59.762,52.2-83.307,5.367-4.924,10.436-9.575,15.288-14.345,5.284-5.2,10.157-10.448,14.871-15.52,19.979-21.5,37.233-40.069,71.382-40.069,35.142,0,60.24,24.626,84.512,48.441,3.854,3.782,7.84,7.693,11.731,11.356q3.914,3.679,7.765,7.231C441.951,138.914,465,160.269,465,200.4c0,31.507-20.4,50.63-42.008,70.875-6.01,5.632-12.225,11.456-17.923,17.538-4.308,4.6-8.5,9.324-12.559,13.894C370.071,327.986,348.878,351.862,311.256,351.862Zm0-303.7c-33.713,0-50.83,18.421-70.65,39.75-4.72,5.08-9.6,10.333-14.9,15.552-4.864,4.782-9.94,9.439-15.314,14.369-25.5,23.4-51.876,47.594-51.876,82.57a148.364,148.364,0,0,0,44.733,106.758c28.739,28.183,67.1,43.7,108.009,43.7,37.173,0,58.22-23.713,80.5-48.819,4.06-4.575,8.259-9.3,12.576-13.914,5.72-6.106,11.948-11.941,17.969-17.584,21.443-20.092,41.7-39.07,41.7-70.144,0-39.694-22.9-60.912-49.412-85.48q-3.848-3.562-7.772-7.236c-3.9-3.67-7.887-7.584-11.745-11.37-24.132-23.674-49.082-48.155-83.815-48.155Z" fill="#fe7436"/><path d="M311.256,360.181c-43.327,0-83.944-16.413-114.368-46.215a156.939,156.939,0,0,1-47.377-113c0-36.042,27.351-60.657,53.8-84.461,6.494-5.845,12.629-11.366,18.385-17.066,6.139-6.083,11.675-12.24,17.029-18.194,20.023-22.267,37.316-41.5,72.53-41.5,35.769,0,61.2,25.32,85.8,49.807,4.968,4.945,9.661,9.616,14.472,14.121,3.56,3.33,7.132,6.587,10.587,9.735C449.421,138.3,473,159.788,473,200.964c0,32.307-21.211,51.563-43.666,71.949-6.963,6.321-14.162,12.857-20.654,19.8-5.2,5.564-10.194,11.32-15.02,16.887C371.11,335.61,349.809,360.181,311.256,360.181Zm0-319.435c-34.768,0-51.923,19.077-71.786,41.166-5.364,5.964-10.91,12.132-17.069,18.236-5.773,5.717-11.916,11.245-18.42,17.1-26.288,23.658-53.47,48.121-53.47,83.718a155.944,155.944,0,0,0,47.077,112.287c30.236,29.619,70.6,45.93,113.668,45.93,38.1,0,59.252-24.4,81.649-50.239,4.832-5.574,9.828-11.338,15.046-16.915,6.52-6.97,13.734-13.52,20.711-19.854C450.95,251.94,472,232.829,472,200.964c0-40.734-23.429-62.089-50.557-86.815-3.457-3.152-7.032-6.41-10.6-9.745-4.822-4.516-9.739-9.41-14.493-14.143-24.45-24.343-49.738-49.515-85.094-49.515Z" fill="#ff6d34"/><path d="M311.256,368.5c-45.479,0-88.106-17.2-120.027-48.441a164.519,164.519,0,0,1-49.722-118.531c0-36.793,28.273-61.746,55.614-85.878,7.558-6.67,14.7-12.97,21.271-19.524,6.936-6.914,13.06-13.941,18.982-20.737,20.133-23.1,37.521-43.057,73.882-43.057,36.52,0,62.366,26.12,87.362,51.381,5.808,5.87,11.294,11.414,16.945,16.679,4.436,4.132,8.888,8.121,13.192,11.979,28.037,25.124,52.25,46.822,52.25,89.157,0,33.194-22.081,52.64-45.458,73.229-7.877,6.936-16.021,14.109-23.251,21.85-6.03,6.455-11.725,13.18-17.232,19.683C372.327,343.14,350.851,368.5,311.256,368.5Zm0-335.168c-35.906,0-53.155,19.794-73.128,42.714C232.2,82.855,226.059,89.9,219.1,96.834c-6.6,6.575-13.746,12.886-21.315,19.566-27.175,23.985-55.276,48.786-55.276,85.128a163.53,163.53,0,0,0,49.422,117.817C223.662,350.4,266.039,367.5,311.256,367.5c39.131,0,60.462-25.189,83.045-51.856,5.515-6.512,11.217-13.247,17.264-19.72,7.263-7.776,15.427-14.965,23.321-21.918,23.2-20.435,45.119-39.736,45.119-72.478,0-41.888-24.059-63.448-51.917-88.413-4.308-3.86-8.763-7.852-13.206-11.992-5.666-5.278-11.415-11.088-16.975-16.707C373.055,59.3,347.359,33.332,311.256,33.332Z" fill="#f63"/><path d="M516.4,4H352.626V130.4H516.4Z" fill="#fff"/><path d="M351.626,131.4V3H517.4V131.4Zm2-126.4V129.4H515.4V5Z" fill="#771efc"/><path d="M352.144,3.518V16.065H516.882V3.518Z" fill="#771efc"/><path d="M357.955,11.8a2.011,2.011,0,1,0-2.017-2.011A2.014,2.014,0,0,0,357.955,11.8Z" fill="#fff"/><path d="M364.48,11.8a2.011,2.011,0,1,0-2.017-2.011A2.014,2.014,0,0,0,364.48,11.8Z" fill="#fff"/><path d="M371.005,11.8a2.011,2.011,0,1,0-2.017-2.011A2.014,2.014,0,0,0,371.005,11.8Z" fill="#fff"/><path d="M434.513,27.65h-70.8V39.375h70.8Z" fill="#e2f5fa"/><path d="M434.513,43.285h-70.8V55.01h70.8Z" fill="#e2f5fa"/><path d="M434.513,58.919h-70.8V70.644h70.8Z" fill="#e2f5fa"/><path d="M434.513,74.554h-70.8V86.279h70.8Z" fill="#e2f5fa"/><path d="M434.513,90.188h-70.8v11.725h70.8Z" fill="#e2f5fa"/><path d="M434.513,105.823h-70.8v11.725h70.8Z" fill="#e2f5fa"/><path d="M495.963,80.6h-35.8V50.475a17.9,17.9,0,1,1,35.8,0h0Zm-34.8-1h33.8l.007-29.025a16.9,16.9,0,1,0-33.8.029Z" fill="#f63"/><path d="M492.558,77.194H463.57V51.67a24.79,24.79,0,0,1,.153-2.751,14.436,14.436,0,0,1,28.692.022,24.854,24.854,0,0,1,.15,2.7h0v.044Zm-27.988-1h26.988l.007-24.518a24.9,24.9,0,0,0-.138-2.59,13.438,13.438,0,0,0-26.715-.022,24.525,24.525,0,0,0-.142,2.641Z" fill="#fd8a3a"/><path d="M489.154,73.789H466.975V50.6a11.093,11.093,0,0,1,22.185-.019Zm-21.179-1h20.179l.006-22.2a10.093,10.093,0,0,0-20.185.019Z" fill="#fbad40"/><path d="M500.173,66.386H455.961A2.959,2.959,0,0,0,453,69.345v44.212a2.959,2.959,0,0,0,2.959,2.959h44.212a2.959,2.959,0,0,0,2.959-2.959V69.345A2.959,2.959,0,0,0,500.173,66.386Z" fill="#c3e9f3"/><path d="M500.174,117.016H455.961a3.462,3.462,0,0,1-3.459-3.458V69.345a3.462,3.462,0,0,1,3.459-3.459h44.213a3.463,3.463,0,0,1,3.459,3.459v44.213a3.462,3.462,0,0,1-3.459,3.458Zm-44.213-50.13a2.462,2.462,0,0,0-2.459,2.459v44.213a2.46,2.46,0,0,0,2.459,2.458h44.213a2.46,2.46,0,0,0,2.459-2.458V69.345a2.462,2.462,0,0,0-2.459-2.459Z" fill="#0055dc"/><path d="M498.6,111.985V70.918H457.534v41.067Z" fill="#fff"/><path d="M480.5,100.108h-4.506V93.669a6.009,6.009,0,1,1,4.506,0Zm-3.756-.75h3.006V93.146l.25-.089a5.26,5.26,0,1,0-3.506,0l.25.089Z" fill="#1755db"/><path d="M478.246,91.8a3.732,3.732,0,1,0-3.732-3.732A3.732,3.732,0,0,0,478.246,91.8Z" fill="#c5ebf5"/><path d="M478.245,90.047a1.986,1.986,0,1,1,1.4-.581,1.98,1.98,0,0,1-1.4.581Zm0-3.216a1.234,1.234,0,1,0,.872.361,1.234,1.234,0,0,0-.872-.361Z" fill="#1755db"/><path d="M240.364,258.587H98.6V368H240.364Z" fill="#fff"/><path d="M98.6,369h-1V257.587H241.364V369Zm1-109.413V367H239.364V259.587Z" fill="#771efc"/><path d="M240.668,258.283H98.3v10.635H240.668Z" fill="#771efc"/><path d="M103.213,265.341a1.741,1.741,0,1,0-1.746-1.741A1.743,1.743,0,0,0,103.213,265.341Z" fill="#fff"/><path d="M108.861,265.341a1.741,1.741,0,1,0-1.746-1.741A1.743,1.743,0,0,0,108.861,265.341Z" fill="#fff"/><path d="M114.509,265.341a1.741,1.741,0,1,0-1.746-1.741A1.743,1.743,0,0,0,114.509,265.341Z" fill="#fff"/><path d="M232.326,283.68H105.753v67.337H232.326Z" fill="#e2f5fa"/><path d="M209.93,304.073H131.344v27.315H209.93Z" fill="#fff"/><path d="M130.719,303.448v28.564h79.835V303.448ZM209.3,304.7v26.064H131.969V304.7Z" fill="#0055dc"/><path d="M152.492,318.685,149,320.824l-.648-1.139,3.61-1.955-3.61-1.955.648-1.139,3.5,2.139-.1-4.094h1.315l-.1,4.094,3.5-2.139.648,1.139-3.611,1.955,3.611,1.955-.648,1.139-3.5-2.139.1,4.094H152.4Z" fill="#f6821f"/><path d="M164.215,318.685l-3.5,2.139-.649-1.139,3.612-1.955-3.612-1.955.649-1.139,3.5,2.139-.1-4.094h1.315l-.1,4.094,3.5-2.139.648,1.139-3.611,1.955,3.611,1.955-.648,1.139-3.5-2.139.1,4.094h-1.312Z" fill="#f6821f"/><path d="M175.936,318.685l-3.5,2.139-.649-1.139,3.613-1.955-3.612-1.955.649-1.139,3.5,2.139-.1-4.094h1.314l-.1,4.094,3.5-2.139.649,1.139-3.612,1.955,3.612,1.955-.649,1.139-3.5-2.139.1,4.094H175.84Z" fill="#f6821f"/><path d="M187.658,318.685l-3.5,2.139-.65-1.139,3.612-1.955-3.612-1.955.65-1.139,3.5,2.139-.1-4.094h1.315l-.1,4.094,3.5-2.139.649,1.139-3.612,1.955,3.612,1.955-.649,1.139-3.5-2.139.1,4.094h-1.315Z" fill="#f6821f"/><path d="M439.028,90.358H177.408V292.274h261.62Z" fill="#fff"/><path d="M440.029,293.274H176.408V89.358H440.029Zm-261.621-2H438.029V91.358H178.408Z" fill="#771efc"/><path d="M439.67,89.717h-262.9V109.5h262.9Z" fill="#771efc"/><path d="M185.922,102.82a3.212,3.212,0,1,0-3.223-3.212A3.217,3.217,0,0,0,185.922,102.82Z" fill="#fff"/><path d="M196.344,102.82a3.212,3.212,0,1,0-3.223-3.212A3.217,3.217,0,0,0,196.344,102.82Z" fill="#fff"/><path d="M206.767,102.82a3.212,3.212,0,1,0-3.223-3.212A3.217,3.217,0,0,0,206.767,102.82Z" fill="#fff"/><path d="M301.918,271.293c-2.018-1.01-49.414-25.286-49.414-75.039v-42.5l12.093-1.728a60.761,60.761,0,0,0,33.171-16.3l10.425-11.676,10.521,11.727a60.744,60.744,0,0,0,33.125,16.253l12.094,1.728v42.5c0,49.76-47.4,74.03-49.415,75.039l-6.3,3.15Z" fill="#c5ebf5"/><path d="M308.22,275.282l-6.637-3.319c-2.035-1.017-49.829-25.5-49.829-75.709V153.1l12.737-1.82a59.976,59.976,0,0,0,32.734-16.08l10.966-12.283,11.081,12.351a59.572,59.572,0,0,0,32.673,16.011l12.737,1.82V196.25c0,50.212-47.794,74.692-49.828,75.709Zm-5.966-4.66,5.966,2.983,5.963-2.983c2-1,49-25.073,49-74.368V154.4l-11.449-1.636a61.208,61.208,0,0,1-33.564-16.48L308.2,125.166l-9.866,11.051A61.62,61.62,0,0,1,264.7,152.768L253.254,154.4v41.85c0,49.3,47,73.367,49,74.368Z" fill="#0055dc"/><path d="M308.218,262.925l-1.692-.847c-1.785-.892-43.72-22.357-43.72-65.824V162.688l3.249-.464a70.228,70.228,0,0,0,39.336-19.572l2.821-3.159,2.834,3.159a70.229,70.229,0,0,0,39.336,19.572l3.249.464v33.566c0,43.467-41.935,64.932-43.72,65.824Z" fill="#fff"/><path d="M308.962,140.329V262.553l-.744.372-.756-.379V140.333l.75-.84Z" fill="#f63"/><path d="M263,201.287h90.445l-.132,1.5H263.128Z" fill="#fbad41"/><path d="M308.218,228.441a27.232,27.232,0,1,0-27.232-27.232A27.232,27.232,0,0,0,308.218,228.441Z" fill="#fff"/><path d="M308.219,229.191a28.014,28.014,0,1,1,19.776-8.205,27.981,27.981,0,0,1-19.776,8.205Zm0-54.465a26.513,26.513,0,1,0,18.716,7.766,26.486,26.486,0,0,0-18.716-7.766Z" fill="#f63"/><path d="M304.253,213.408,293.9,202.587l2.89-2.766,7.514,7.851,15.374-15.545,2.844,2.812Z" fill="#771efc"/></g></g></svg>