<svg xmlns="http://www.w3.org/2000/svg" width="629.847" height="388.316" viewBox="0 0 629.847 388.316"><g transform="translate(0 0.071)"><g transform="translate(5.568 250.612)"><path d="M96.63,377.238c17.18-15.065,18.746-39.675,15.612-61.3-.519-3.612-.548-7.469-2.624-10.465s-6.334-4.719-9.408-2.829c-2.555,1.567-3.378,4.826-4.6,7.577A21.335,21.335,0,0,1,88,319.277c-2.173,1.449-4.953,2.5-7.361,1.5-3.319-1.38-4.16-5.658-4.532-9.26q-1.043-10.087-2.095-20.156c-.372-3.6-.773-7.283-2.271-10.582s-4.327-6.2-7.861-6.78-7.557,1.86-7.89,5.472a33.047,33.047,0,0,0,.392,4.493c.069,1.5-.446,3.24-1.821,3.808-1.39.577-2.944-.284-4.14-1.214-4.121-3.23-7.166-7.636-10.034-12.044s-5.687-8.921-9.5-12.52-8.832-6.226-14.018-5.951-10.336,4.073-11.08,9.28c-.744,5.227,2.78,10.053,6.461,13.8A80.868,80.868,0,0,0,30.76,293.238a6.684,6.684,0,0,1,3.132,2.7c1.047,2.32-.969,4.953-3.25,6-2.587,1.195-5.531,1.234-8.3,1.874s-5.678,2.212-6.451,5c-1.071,3.847,2.437,7.371,5.746,9.564a69.43,69.43,0,0,0,21.689,9.518c2.76.675,5.638,1.224,7.988,2.849s3.994,4.718,2.976,7.4S50.055,342,47.226,341.8s-5.482-1.439-8.242-2.141c-5.159-1.321-11.509-.274-14.213,4.356-1.772,3.044-1.527,6.979-.1,10.219a26.342,26.342,0,0,0,6.441,8.3c8.967,8.438,19.95,14.809,31.873,17.532s22.691,2.614,33.645-2.819" transform="translate(-5.688 -256.02)" fill="#ebebeb"/><g transform="translate(4.773 3.787)"><path d="M98.8,393.383a158.743,158.743,0,0,0-9.16-29.044,325.187,325.187,0,0,0-16.651-33.352q-2.437-4.317-4.818-8.516c-1.586-2.79-3.162-5.56-4.865-8.174a162,162,0,0,0-10.66-14.453c-3.612-4.435-7.2-8.507-10.591-12.3s-6.627-7.244-9.7-10.278a127.3,127.3,0,0,0-15.584-13.2c-1.958-1.41-3.5-2.457-4.571-3.152-.509-.333-.91-.587-1.214-.783a2.553,2.553,0,0,0-.421-.244,2.176,2.176,0,0,0,.392.3c.294.205.685.48,1.175.832,1.038.734,2.565,1.811,4.493,3.25a136.453,136.453,0,0,1,15.4,13.333c3.054,3.044,6.256,6.52,9.623,10.308s6.931,7.88,10.527,12.311a165.468,165.468,0,0,1,10.591,14.42c1.7,2.6,3.25,5.345,4.835,8.144s3.181,5.638,4.807,8.516a332.465,332.465,0,0,1,16.654,33.258,162.715,162.715,0,0,1,9.27,28.905" transform="translate(-10.563 -259.888)" fill="#e0e0e0"/></g><g transform="translate(57.094 17.962)"><path d="M64.235,314.593a7.2,7.2,0,0,0,.186-1.576c.078-1.018.147-2.486.205-4.317.118-3.642.1-8.683.059-14.233s.02-10.582.186-14.213c.078-1.821.157-3.289.225-4.3a7.3,7.3,0,0,0,.029-1.586,6.7,6.7,0,0,0-.284,1.557c-.147,1.008-.3,2.477-.441,4.3-.294,3.642-.421,8.683-.382,14.243.049,5.482.1,10.438.137,14.223.01,1.713.01,3.152.01,4.307a7.874,7.874,0,0,0,.07,1.6Z" transform="translate(-64.011 -274.369)" fill="#e0e0e0"/></g><g transform="translate(10.036 54.102)"><path d="M15.94,311.834a9.921,9.921,0,0,0,1.873.02c1.2-.029,2.937-.069,5.081-.059,4.3-.01,10.229.186,16.759.685s12.432,1.224,16.683,1.874c2.124.3,3.847.6,5.032.793a10.146,10.146,0,0,0,1.86.244,9.294,9.294,0,0,0-1.811-.5c-1.175-.274-2.878-.636-5-1.008-4.239-.764-10.152-1.557-16.7-2.065a166.652,166.652,0,0,0-16.818-.49c-2.154.049-3.9.167-5.091.274a8.841,8.841,0,0,0-1.866.232Z" transform="translate(-15.94 -311.29)" fill="#e0e0e0"/></g><g transform="translate(83.179 45.705)"><path d="M90.66,364.449a2.417,2.417,0,0,0,.254-.6c.167-.48.362-1.057.607-1.762.519-1.537,1.214-3.768,2.036-6.549,1.654-5.55,3.691-13.293,5.825-21.869s4.1-16.326,5.628-21.908c.754-2.711,1.37-4.943,1.831-6.607.2-.724.357-1.311.49-1.8a2.377,2.377,0,0,0,.128-.646,2.416,2.416,0,0,0-.254.6c-.167.48-.362,1.057-.607,1.762-.519,1.537-1.214,3.768-2.036,6.549-1.654,5.55-3.691,13.293-5.825,21.879s-4.092,16.326-5.628,21.908c-.754,2.711-1.37,4.943-1.831,6.607-.2.724-.357,1.311-.49,1.8A2.285,2.285,0,0,0,90.66,364.449Z" transform="translate(-90.66 -302.71)" fill="#e0e0e0"/></g><g transform="translate(19.434 94.387)"><path d="M25.54,352.45a2.635,2.635,0,0,0,.636.186c.5.108,1.116.244,1.85.4,1.713.352,4.024.832,6.833,1.41,5.766,1.195,13.7,2.927,22.482,4.855s16.749,3.593,22.534,4.669c2.9.535,5.247.949,6.869,1.195.754.108,1.37.205,1.88.274a2.022,2.022,0,0,0,.666.049,2.635,2.635,0,0,0-.636-.186c-.5-.108-1.106-.235-1.85-.4-1.713-.357-4.015-.832-6.823-1.41-5.766-1.195-13.715-2.927-22.482-4.855s-16.739-3.593-22.534-4.669c-2.9-.535-5.247-.949-6.869-1.195-.754-.108-1.37-.205-1.88-.274a2.076,2.076,0,0,0-.675-.049Z" transform="translate(-25.54 -352.441)" fill="#e0e0e0"/></g></g><g transform="translate(97.468 133.642)"><rect width="82.972" height="254.173" transform="translate(0.481)" fill="#f5f5f5"/><rect width="65.577" height="254.173" transform="translate(83.198)" fill="#fafafa"/><g transform="translate(4.934 40.683)"><rect width="70.383" height="19.813" fill="#e0e0e0"/><rect width="3.945" height="15.164" transform="translate(1.967 2.486)" fill="#f5f5f5"/><path d="M115.337,183.863a1.249,1.249,0,1,1-1.249-1.249A1.249,1.249,0,0,1,115.337,183.863Z" transform="translate(-104.785 -178.185)" fill="#fafafa"/><circle cx="1.253" cy="1.253" r="1.253" transform="translate(8.046 9.789)" fill="#fafafa"/><rect width="3.876" height="11.649" transform="translate(15.554 4.425)" fill="#f5f5f5"/><rect width="3.876" height="11.649" transform="translate(21.154 4.425)" fill="#f5f5f5"/><rect width="3.876" height="11.649" transform="translate(26.744 4.425)" fill="#f5f5f5"/><rect width="3.876" height="11.649" transform="translate(32.343 4.425)" fill="#f5f5f5"/><rect width="3.876" height="11.649" transform="translate(37.933 4.425)" fill="#f5f5f5"/><rect width="3.876" height="11.649" transform="translate(43.532 4.425)" fill="#f5f5f5"/><rect width="3.876" height="11.649" transform="translate(49.122 4.425)" fill="#f5f5f5"/><rect width="3.876" height="11.649" transform="translate(54.721 4.425)" fill="#f5f5f5"/><rect width="3.876" height="11.649" transform="translate(60.31 4.425)" fill="#f5f5f5"/><rect width="3.876" height="11.649" transform="translate(65.91 4.425)" fill="#f5f5f5"/></g><g transform="translate(4.934 72.419)"><rect width="70.383" height="19.813" fill="#e0e0e0"/><rect width="3.945" height="15.164" transform="translate(1.967 2.496)" fill="#f5f5f5"/><path d="M115.337,216.294a1.249,1.249,0,1,1-1.249-1.249A1.249,1.249,0,0,1,115.337,216.294Z" transform="translate(-104.785 -210.606)" fill="#fafafa"/><circle cx="1.253" cy="1.253" r="1.253" transform="translate(8.046 9.789)" fill="#fafafa"/><rect width="3.876" height="11.649" transform="translate(15.554 4.435)" fill="#f5f5f5"/><rect width="3.876" height="11.649" transform="translate(21.154 4.435)" fill="#f5f5f5"/><rect width="3.876" height="11.649" transform="translate(26.744 4.435)" fill="#f5f5f5"/><rect width="3.876" height="11.649" transform="translate(32.343 4.435)" fill="#f5f5f5"/><rect width="3.876" height="11.649" transform="translate(37.933 4.435)" fill="#f5f5f5"/><rect width="3.876" height="11.649" transform="translate(43.532 4.435)" fill="#f5f5f5"/><rect width="3.876" height="11.649" transform="translate(49.122 4.435)" fill="#f5f5f5"/><rect width="3.876" height="11.649" transform="translate(54.721 4.435)" fill="#f5f5f5"/><rect width="3.876" height="11.649" transform="translate(60.31 4.435)" fill="#f5f5f5"/><rect width="3.876" height="11.649" transform="translate(65.91 4.435)" fill="#f5f5f5"/></g><g transform="translate(4.934 104.166)"><rect width="70.383" height="19.813" fill="#e0e0e0"/><rect width="3.945" height="15.164" transform="translate(1.967 2.486)" fill="#f5f5f5"/><path d="M115.337,248.713a1.249,1.249,0,1,1-1.249-1.249,1.249,1.249,0,0,1,1.249,1.249Z" transform="translate(-104.785 -243.035)" fill="#fafafa"/><circle cx="1.253" cy="1.253" r="1.253" transform="translate(8.046 9.78)" fill="#fafafa"/><rect width="3.876" height="11.649" transform="translate(15.554 4.425)" fill="#f5f5f5"/><rect width="3.876" height="11.649" transform="translate(21.154 4.425)" fill="#f5f5f5"/><rect width="3.876" height="11.649" transform="translate(26.744 4.425)" fill="#f5f5f5"/><rect width="3.876" height="11.649" transform="translate(32.343 4.425)" fill="#f5f5f5"/><rect width="3.876" height="11.649" transform="translate(37.933 4.425)" fill="#f5f5f5"/><rect width="3.876" height="11.649" transform="translate(43.532 4.425)" fill="#f5f5f5"/><rect width="3.876" height="11.649" transform="translate(49.122 4.425)" fill="#f5f5f5"/><rect width="3.876" height="11.649" transform="translate(54.721 4.425)" fill="#f5f5f5"/><rect width="3.876" height="11.649" transform="translate(60.31 4.425)" fill="#f5f5f5"/><rect width="3.876" height="11.649" transform="translate(65.91 4.425)" fill="#f5f5f5"/></g><g transform="translate(4.934 135.901)"><rect width="70.383" height="19.813" fill="#e0e0e0"/><rect width="3.945" height="15.164" transform="translate(1.967 2.486)" fill="#f5f5f5"/><path d="M115.337,281.134a1.249,1.249,0,1,1-1.249-1.249A1.249,1.249,0,0,1,115.337,281.134Z" transform="translate(-104.785 -275.456)" fill="#fafafa"/><circle cx="1.253" cy="1.253" r="1.253" transform="translate(8.046 9.789)" fill="#fafafa"/><rect width="3.876" height="11.649" transform="translate(15.554 4.425)" fill="#f5f5f5"/><rect width="3.876" height="11.649" transform="translate(21.154 4.425)" fill="#f5f5f5"/><rect width="3.876" height="11.649" transform="translate(26.744 4.425)" fill="#f5f5f5"/><rect width="3.876" height="11.649" transform="translate(32.343 4.425)" fill="#f5f5f5"/><rect width="3.876" height="11.649" transform="translate(37.933 4.425)" fill="#f5f5f5"/><rect width="3.876" height="11.649" transform="translate(43.532 4.425)" fill="#f5f5f5"/><rect width="3.876" height="11.649" transform="translate(49.122 4.425)" fill="#f5f5f5"/><rect width="3.876" height="11.649" transform="translate(54.721 4.425)" fill="#f5f5f5"/><rect width="3.876" height="11.649" transform="translate(60.31 4.425)" fill="#f5f5f5"/><rect width="3.876" height="11.649" transform="translate(65.91 4.425)" fill="#f5f5f5"/></g><g transform="translate(4.934 167.637)"><rect width="70.383" height="19.813" fill="#e0e0e0"/><rect width="3.945" height="15.164" transform="translate(1.967 2.496)" fill="#f5f5f5"/><path d="M115.337,313.563a1.249,1.249,0,1,1-1.249-1.249A1.249,1.249,0,0,1,115.337,313.563Z" transform="translate(-104.785 -307.876)" fill="#fafafa"/><circle cx="1.253" cy="1.253" r="1.253" transform="translate(8.046 9.789)" fill="#fafafa"/><rect width="3.876" height="11.649" transform="translate(15.554 4.435)" fill="#f5f5f5"/><rect width="3.876" height="11.649" transform="translate(21.154 4.435)" fill="#f5f5f5"/><rect width="3.876" height="11.649" transform="translate(26.744 4.435)" fill="#f5f5f5"/><rect width="3.876" height="11.649" transform="translate(32.343 4.435)" fill="#f5f5f5"/><rect width="3.876" height="11.649" transform="translate(37.933 4.435)" fill="#f5f5f5"/><rect width="3.876" height="11.649" transform="translate(43.532 4.435)" fill="#f5f5f5"/><rect width="3.876" height="11.649" transform="translate(49.122 4.435)" fill="#f5f5f5"/><rect width="3.876" height="11.649" transform="translate(54.721 4.435)" fill="#f5f5f5"/><rect width="3.876" height="11.649" transform="translate(60.31 4.435)" fill="#f5f5f5"/><rect width="3.876" height="11.649" transform="translate(65.91 4.435)" fill="#f5f5f5"/></g><g transform="translate(4.934 199.383)"><rect width="70.383" height="19.813" fill="#e0e0e0"/><rect width="3.945" height="15.164" transform="translate(1.967 2.486)" fill="#f5f5f5"/><path d="M115.337,345.984a1.249,1.249,0,1,1-1.249-1.249A1.249,1.249,0,0,1,115.337,345.984Z" transform="translate(-104.785 -340.306)" fill="#fafafa"/><circle cx="1.253" cy="1.253" r="1.253" transform="translate(8.046 9.78)" fill="#fafafa"/><rect width="3.876" height="11.649" transform="translate(15.554 4.425)" fill="#f5f5f5"/><rect width="3.876" height="11.649" transform="translate(21.154 4.425)" fill="#f5f5f5"/><rect width="3.876" height="11.649" transform="translate(26.744 4.425)" fill="#f5f5f5"/><rect width="3.876" height="11.649" transform="translate(32.343 4.425)" fill="#f5f5f5"/><rect width="3.876" height="11.649" transform="translate(37.933 4.425)" fill="#f5f5f5"/><rect width="3.876" height="11.649" transform="translate(43.532 4.425)" fill="#f5f5f5"/><rect width="3.876" height="11.649" transform="translate(49.122 4.425)" fill="#f5f5f5"/><rect width="3.876" height="11.649" transform="translate(54.721 4.425)" fill="#f5f5f5"/><rect width="3.876" height="11.649" transform="translate(60.31 4.425)" fill="#f5f5f5"/><rect width="3.876" height="11.649" transform="translate(65.91 4.425)" fill="#f5f5f5"/></g><g transform="translate(4.934 231.119)"><rect width="70.383" height="19.813" fill="#e0e0e0"/><rect width="3.945" height="15.164" transform="translate(1.967 2.486)" fill="#f5f5f5"/><circle cx="1.253" cy="1.253" r="1.253" transform="translate(8.046 4.425)" fill="#fafafa"/><circle cx="1.253" cy="1.253" r="1.253" transform="translate(8.046 9.789)" fill="#fafafa"/><rect width="3.876" height="11.649" transform="translate(15.554 4.425)" fill="#f5f5f5"/><rect width="3.876" height="11.649" transform="translate(21.154 4.425)" fill="#f5f5f5"/><rect width="3.876" height="11.649" transform="translate(26.744 4.425)" fill="#f5f5f5"/><rect width="3.876" height="11.649" transform="translate(32.343 4.425)" fill="#f5f5f5"/><rect width="3.876" height="11.649" transform="translate(37.933 4.425)" fill="#f5f5f5"/><rect width="3.876" height="11.649" transform="translate(43.532 4.425)" fill="#f5f5f5"/><rect width="3.876" height="11.649" transform="translate(49.122 4.425)" fill="#f5f5f5"/><rect width="3.876" height="11.649" transform="translate(54.721 4.425)" fill="#f5f5f5"/><rect width="3.876" height="11.649" transform="translate(60.31 4.425)" fill="#f5f5f5"/><rect width="3.876" height="11.649" transform="translate(65.91 4.425)" fill="#f5f5f5"/></g><g transform="translate(0.332 21.581)"><path d="M148.042,177.678a2.29,2.29,0,0,1-.078-.607c-.029-.4-.059-1-.079-1.762s-.039-1.7-.089-2.78a17.548,17.548,0,0,0-.49-3.612,12.873,12.873,0,0,0-1.88-3.955,8.805,8.805,0,0,0-3.847-3.093,18.863,18.863,0,0,0-5.463-1.106c-1.958-.167-3.984-.343-6.059-.529-8.311-.724-15.839-1.185-21.3-1.292-2.731-.059-4.943-.049-6.471-.039-.724.01-1.3.01-1.762.01a2.523,2.523,0,0,1-.616-.029,2.974,2.974,0,0,1,.607-.079c.46-.029,1.038-.069,1.762-.108,1.527-.069,3.74-.137,6.48-.118,5.472.01,13.025.421,21.34,1.145q3.113.279,6.067.535a19.008,19.008,0,0,1,5.6,1.175,9.183,9.183,0,0,1,4.015,3.279,13.1,13.1,0,0,1,1.88,4.1,16.992,16.992,0,0,1,.421,3.691c.029,1.087.01,2.026,0,2.79-.01.724-.02,1.3-.02,1.762a3.008,3.008,0,0,1-.016.617Z" transform="translate(-99.908 -158.576)" fill="#e0e0e0"/></g><g transform="translate(0 27.612)"><path d="M126.685,177.808a2.642,2.642,0,0,1-.049-.577c-.01-.431-.01-.981-.02-1.654-.01-.714-.01-1.6-.089-2.6a8,8,0,0,0-.872-3.26,6.221,6.221,0,0,0-3.172-2.437,8.672,8.672,0,0,0-4.62-.47,7.672,7.672,0,0,0-2.388.813,4.556,4.556,0,0,0-1.85,1.752,2.473,2.473,0,0,0,.01,2.457,3.331,3.331,0,0,0,2.095,1.576,2.663,2.663,0,0,0,2.447-.7,3.574,3.574,0,0,0,1.1-2.329,3.525,3.525,0,0,0-.734-2.388,5.264,5.264,0,0,0-1.85-1.634,6.876,6.876,0,0,0-2.32-.6c-.793-.118-1.567-.225-2.311-.3-1.5-.167-2.9-.268-4.18-.323-2.565-.1-4.639-.069-6.079-.069-.675,0-1.224-.01-1.654-.01a2.386,2.386,0,0,1-.577-.039,2.441,2.441,0,0,1,.577-.069q.646-.029,1.654-.089c1.439-.059,3.514-.147,6.1-.1,1.292.029,2.7.108,4.209.268.754.079,1.537.178,2.329.284.4.059.8.118,1.224.186a4.684,4.684,0,0,1,1.244.431,5.69,5.69,0,0,1,2.036,1.772,4.028,4.028,0,0,1,.832,2.7,4.123,4.123,0,0,1-1.249,2.663,3.153,3.153,0,0,1-2.907.832,3.792,3.792,0,0,1-2.418-1.821,2.965,2.965,0,0,1,0-2.937,5.008,5.008,0,0,1,2.052-1.939,8.219,8.219,0,0,1,2.545-.852,9.112,9.112,0,0,1,4.855.535,6.563,6.563,0,0,1,3.329,2.653,8.284,8.284,0,0,1,.842,3.416c.049,1.028.029,1.909,0,2.634-.029.675-.049,1.224-.069,1.654A5.394,5.394,0,0,1,126.685,177.808Z" transform="translate(-99.569 -164.736)" fill="#e0e0e0"/></g><g transform="translate(0.337 19.698)"><path d="M153.786,177.637a3.146,3.146,0,0,1-.147-.656c-.079-.431-.2-1.071-.372-1.88a36.892,36.892,0,0,0-2.085-6.705,19.635,19.635,0,0,0-6.118-8.213,11.558,11.558,0,0,0-5.6-2.134,57.376,57.376,0,0,0-6.6-.357c-9.094-.178-17.337-.137-23.308-.382-2.986-.108-5.394-.244-7.058-.372-.793-.069-1.427-.128-1.919-.167a2.579,2.579,0,0,1-.666-.1,3.25,3.25,0,0,1,.675-.01c.49.02,1.126.039,1.919.069,1.664.059,4.073.147,7.058.205,5.961.147,14.194.059,23.308.225a56.887,56.887,0,0,1,6.656.372,11.966,11.966,0,0,1,5.815,2.252,17.73,17.73,0,0,1,3.876,4.1,23.623,23.623,0,0,1,2.291,4.337,32.959,32.959,0,0,1,1.939,6.813c.147.823.235,1.468.284,1.9a3.383,3.383,0,0,1,.053.7Z" transform="translate(-99.913 -156.65)" fill="#e0e0e0"/></g><rect width="68.445" height="9.936" transform="translate(5.903 3.162)" fill="#e0e0e0"/><rect width="37.267" height="4.973" transform="translate(20.959 8.134)" fill="#f5f5f5"/></g><g transform="translate(0 387.736)"><path d="M629.847,396.354c0,.137-141.011.254-314.9.254C140.972,396.609,0,396.492,0,396.354s140.972-.254,314.933-.254C488.836,396.1,629.847,396.208,629.847,396.354Z" transform="translate(0 -396.1)" fill="#263238"/></g><g transform="translate(510.383 265.194)"><path d="M589.131,271.37s-5.638-3.658-12.373,9.819-9.26,21.243-9.26,21.243-1.784,2.829-3.73,1.008-4.639-7.018-7.91-6.05c-3.4,1-4.484,4.818-3.788,10.4s1.772,17.865,1.873,18.971c.089,1.087-.519,2.7-2.046,1.674s-10.327-10.67-14.654-6.226.166,19.676.625,21.35.137,2.388-.656,2.819-3.445-3.1-6.066-5.736-6.118-5.247-8.4-2.467-2.927,14.233,8.134,32.741l5.687,8.242,10.034-.636c21.389-2.683,30.033-10.239,30.816-13.744s-3.416-4.66-7.107-5.1-8.105-.362-8.252-1.244.215-1.586,1.811-2.252,16.367-6.5,17.218-12.648-12.178-7.156-13.917-7.723-.852-2.046.059-2.643c.93-.607,11.277-7.323,16.1-10.21s7.156-6.089,5.854-9.388c-1.249-3.181-7-2.1-9.642-2.516s-1.508-3.563-1.508-3.563,4.561-6.774,11.042-20.371-.049-15.819-.049-15.819" transform="translate(-521.382 -270.917)" fill="#f8b409"/><g transform="translate(8.015 12.514)"><path d="M583.263,283.7l-.118.294c-.089.205-.215.48-.382.842-.357.754-.862,1.84-1.508,3.23-1.311,2.8-3.24,6.843-5.638,11.825-4.8,9.975-11.542,23.69-19.05,38.813s-14.282,28.828-19.137,38.775c-2.418,4.963-4.372,8.987-5.736,11.776-.675,1.38-1.195,2.457-1.567,3.2-.178.352-.313.625-.411.832-.1.186-.147.274-.147.274l.118-.294c.089-.205.215-.48.382-.842.357-.754.862-1.841,1.508-3.23,1.311-2.8,3.24-6.843,5.638-11.825,4.8-9.975,11.542-23.69,19.05-38.823s14.282-28.816,19.137-38.765c2.418-4.963,4.371-8.987,5.736-11.776.675-1.38,1.195-2.457,1.567-3.2.178-.352.313-.625.411-.832C583.2,283.8,583.263,283.7,583.263,283.7Z" transform="translate(-529.569 -283.7)" fill="#263238"/></g><g transform="translate(37.95 33.883)"><path d="M560.151,305.53a2.968,2.968,0,0,1,.268.675c.147.441.357,1.087.587,1.88.47,1.6,1.057,3.817,1.664,6.284.587,2.428,1.116,4.62,1.517,6.314q.279,1.13.47,1.909a2.677,2.677,0,0,1,.137.714,2.961,2.961,0,0,1-.268-.675c-.147-.441-.342-1.087-.577-1.89-.446-1.606-1.018-3.827-1.615-6.294-.6-2.418-1.146-4.611-1.567-6.294-.186-.754-.352-1.39-.48-1.909A2.25,2.25,0,0,1,560.151,305.53Z" transform="translate(-560.151 -305.53)" fill="#263238"/></g><g transform="translate(43.511 45.802)"><path d="M565.83,323.731c-.029-.089,4.5-1.508,10.1-3.172s10.181-2.937,10.2-2.849-4.493,1.508-10.112,3.172C570.431,322.546,565.859,323.818,565.83,323.731Z" transform="translate(-565.83 -317.706)" fill="#263238"/></g><g transform="translate(30.942 73.669)"><path d="M552.99,347.041a3.417,3.417,0,0,1,.734-.049c.548,0,1.214-.01,2.006-.01,1.7-.01,4.033-.039,6.617-.157s4.914-.3,6.607-.446c.783-.069,1.459-.128,2-.167a2.579,2.579,0,0,1,.744-.02,3.393,3.393,0,0,1-.724.157c-.47.079-1.145.178-2,.274-1.684.205-4.024.431-6.617.548s-4.943.108-6.637.059c-.852-.029-1.537-.059-2.006-.1a2.507,2.507,0,0,1-.724-.091Z" transform="translate(-552.99 -346.175)" fill="#263238"/></g><g transform="translate(22.336 59.422)"><path d="M544.2,331.62a2.548,2.548,0,0,1,.4.558c.235.372.577.91.988,1.576.823,1.338,1.929,3.2,3.142,5.256s2.291,3.945,3.054,5.315c.382.685.685,1.244.892,1.625a2.622,2.622,0,0,1,.284.616,2.547,2.547,0,0,1-.4-.558c-.235-.372-.577-.91-.989-1.576-.823-1.338-1.929-3.2-3.142-5.256s-2.291-3.945-3.054-5.306c-.382-.685-.685-1.243-.892-1.625a3.5,3.5,0,0,1-.284-.626Z" transform="translate(-544.2 -331.62)" fill="#263238"/></g><g transform="translate(8.691 78.06)"><path d="M530.26,350.66a5.049,5.049,0,0,1,.509.714c.333.529.764,1.2,1.272,2.016,1.057,1.713,2.506,4.082,4.082,6.715s2.986,5.022,3.994,6.764c.47.832.862,1.527,1.175,2.065a4.1,4.1,0,0,1,.392.783,5.054,5.054,0,0,1-.509-.714c-.333-.529-.764-1.2-1.272-2.016-1.057-1.713-2.506-4.082-4.082-6.715s-2.986-5.022-3.994-6.764c-.47-.832-.862-1.527-1.175-2.065a5.609,5.609,0,0,1-.392-.783Z" transform="translate(-530.26 -350.66)" fill="#263238"/></g><g transform="translate(19.968 94.843)"><path d="M541.78,369.543a5.562,5.562,0,0,1,.93-.078c.665-.029,1.517-.069,2.545-.108,2.154-.089,5.12-.235,8.386-.47s6.236-.529,8.37-.754c1.018-.108,1.873-.2,2.535-.268a5.548,5.548,0,0,1,.939-.059,5.462,5.462,0,0,1-.92.186c-.6.1-1.459.225-2.526.372-2.134.284-5.091.616-8.38.852s-6.256.343-8.409.372c-1.077.01-1.949.01-2.555,0a5.346,5.346,0,0,1-.916-.045Z" transform="translate(-541.78 -367.804)" fill="#263238"/></g></g><g transform="translate(77.441 319.702)"><g transform="translate(0 39.696)"><path d="M95.193,368.732a16.188,16.188,0,0,0-10.053-1.292,8.356,8.356,0,0,0-4.983,2.183c-1.243,1.361-1.508,3.778-.089,4.963a4.745,4.745,0,0,0,3.132.813c2.663-.01,5.62-.46,7.733,1.155,1.2.92,2.006,2.447,3.445,2.907a3.406,3.406,0,0,0,3.778-1.654,5.878,5.878,0,0,0,.46-4.317,6.651,6.651,0,0,0-3.424-4.759Z" transform="translate(-79.11 -367.147)" fill="#687be8"/></g><g transform="translate(0 39.696)" opacity="0.3"><path d="M95.193,368.732a16.188,16.188,0,0,0-10.053-1.292,8.356,8.356,0,0,0-4.983,2.183c-1.243,1.361-1.508,3.778-.089,4.963a4.745,4.745,0,0,0,3.132.813c2.663-.01,5.62-.46,7.733,1.155,1.2.92,2.006,2.447,3.445,2.907a3.406,3.406,0,0,0,3.778-1.654,5.878,5.878,0,0,0,.46-4.317,6.651,6.651,0,0,0-3.424-4.759Z" transform="translate(-79.11 -367.147)" fill="#f8b409"/></g><g transform="translate(10.814 0)"><path d="M102.533,354.394c-1.89,2.663-5.521,1.752-7.2.108s-2.369-4.015-3.006-6.274c-1.449-5.169-2.907-10.582-1.762-15.819a8.889,8.889,0,0,1,2.046-4.288,4.586,4.586,0,0,1,4.356-1.419c1.831.5,2.957,2.3,3.768,4.015a37.681,37.681,0,0,1,3.612,16.2c-.01,2.6-.333,5.335-1.821,7.479" transform="translate(-90.159 -326.602)" fill="#687be8"/></g><g transform="translate(10.814 0)" opacity="0.3"><path d="M102.533,354.394c-1.89,2.663-5.521,1.752-7.2.108s-2.369-4.015-3.006-6.274c-1.449-5.169-2.907-10.582-1.762-15.819a8.889,8.889,0,0,1,2.046-4.288,4.586,4.586,0,0,1,4.356-1.419c1.831.5,2.957,2.3,3.768,4.015a37.681,37.681,0,0,1,3.612,16.2c-.01,2.6-.333,5.335-1.821,7.479" transform="translate(-90.159 -326.602)" fill="#f8b409"/></g><g transform="translate(26.349 8.785)"><path d="M107.985,358.449a9.724,9.724,0,0,1-1.449-8.967,17.307,17.307,0,0,1,5.353-7.655,28.7,28.7,0,0,1,9.534-5.541,10.218,10.218,0,0,1,4.282-.695,4.5,4.5,0,0,1,3.573,2.193c.988,1.909.01,4.219-1.038,6.1a72.522,72.522,0,0,1-6.3,9.457c-1.89,2.4-4.043,4.758-6.9,5.825s-5.815.92-7.315-1.071" transform="translate(-106.025 -335.576)" fill="#f8b409"/></g><g transform="translate(9.24 43.418)"><path d="M102.342,395.656a5.442,5.442,0,0,1-.157-1.214c-.078-.881-.178-2-.3-3.319a46.487,46.487,0,0,0-.714-4.865,38.182,38.182,0,0,0-1.723-5.756,21.242,21.242,0,0,0-2.9-5.217,10.914,10.914,0,0,0-3.681-3.1,10.594,10.594,0,0,0-3.113-1,5.521,5.521,0,0,1-1.2-.189,5.181,5.181,0,0,1,1.234-.01,9.377,9.377,0,0,1,3.25.872,10.833,10.833,0,0,1,3.886,3.132,20.894,20.894,0,0,1,3.006,5.315,35.177,35.177,0,0,1,1.713,5.844,43.337,43.337,0,0,1,.616,4.934c.1,1.41.128,2.545.137,3.338a5.558,5.558,0,0,1-.05,1.236Z" transform="translate(-88.55 -370.953)" fill="#263238"/></g><g transform="translate(17.008 10.711)"><path d="M102.305,392.4a2.128,2.128,0,0,1-.029-.567c0-.421.01-.959.02-1.615.01-1.4.029-3.426-.029-5.922-.089-5-.47-11.9-1.249-19.5s-1.85-14.429-2.829-19.333c-.235-1.234-.46-2.339-.685-3.309-.205-.969-.392-1.811-.558-2.486-.147-.636-.274-1.155-.362-1.567a3.188,3.188,0,0,1-.1-.558,2.656,2.656,0,0,1,.2.529c.118.411.274.92.46,1.547.205.675.411,1.508.646,2.467s.509,2.065.754,3.3a182.748,182.748,0,0,1,2.976,19.353c.783,7.606,1.106,14.536,1.106,19.548.01,2.506-.059,4.532-.128,5.932-.049.656-.078,1.185-.108,1.615a2.522,2.522,0,0,1-.082.565Z" transform="translate(-96.485 -337.542)" fill="#263238"/></g><g transform="translate(22.859 14.958)"><path d="M102.489,379.137a9.609,9.609,0,0,1,.02-1.683,45.323,45.323,0,0,1,.548-4.561,59.537,59.537,0,0,1,1.527-6.637,58.737,58.737,0,0,1,2.839-7.851,41.919,41.919,0,0,1,8.252-12.658,21.593,21.593,0,0,1,1.929-1.772c.294-.244.558-.49.823-.685s.519-.357.744-.509a11.98,11.98,0,0,1,1.419-.9,49.557,49.557,0,0,0-4.679,4.112,44.151,44.151,0,0,0-8.046,12.608,63.385,63.385,0,0,0-2.849,7.772c-.744,2.437-1.244,4.679-1.625,6.569-.362,1.89-.577,3.445-.7,4.512a10.515,10.515,0,0,1-.2,1.683Z" transform="translate(-102.461 -341.881)" fill="#263238"/></g></g><g transform="translate(260.732 48.173)"><path d="M266.6,97.46c-.137,0-.254-10.795-.254-24.121s.118-24.121.254-24.121.254,10.795.254,24.121S266.742,97.46,266.6,97.46Z" transform="translate(-266.35 -49.219)" fill="#263238"/></g><g transform="translate(382.311 247.547)"><g transform="translate(0 0.235)"><g transform="translate(0 12.217)"><rect width="110.332" height="121.051" transform="translate(16.113)" fill="#263238"/><rect width="120.611" height="29.925" transform="translate(0 24.208)" fill="#455a64"/><rect width="23.749" height="3.652" transform="translate(5.355 30.375)" fill="#263238"/><rect width="23.749" height="3.652" transform="translate(5.355 36.66)" fill="#263238"/><rect width="23.749" height="3.652" transform="translate(5.355 43.16)" fill="#263238"/><g transform="translate(35.769 31.218)"><g transform="translate(0.01)"><path d="M429.821,298.861a1.358,1.358,0,1,1-.4-.963A1.361,1.361,0,0,1,429.821,298.861Z" transform="translate(-427.1 -297.5)" fill="#263238"/><path d="M435.961,298.861a1.358,1.358,0,1,1-.4-.963A1.361,1.361,0,0,1,435.961,298.861Z" transform="translate(-427.23 -297.5)" fill="#263238"/><path d="M442.1,298.861a1.358,1.358,0,1,1-.4-.963A1.361,1.361,0,0,1,442.1,298.861Z" transform="translate(-427.359 -297.5)" fill="#263238"/><path d="M448.241,298.861a1.358,1.358,0,1,1-.4-.963,1.361,1.361,0,0,1,.4.963Z" transform="translate(-427.488 -297.5)" fill="#263238"/><path d="M495.831,298.861a1.358,1.358,0,1,1-.4-.963A1.361,1.361,0,0,1,495.831,298.861Z" transform="translate(-428.493 -297.5)" fill="#263238"/><path d="M502.091,298.861a1.36,1.36,0,1,1-1.356-1.361A1.361,1.361,0,0,1,502.091,298.861Z" transform="translate(-428.625 -297.5)" fill="#263238"/><path d="M454.381,298.861a1.358,1.358,0,1,1-.4-.963A1.361,1.361,0,0,1,454.381,298.861Z" transform="translate(-427.618 -297.5)" fill="#263238"/><path d="M484.541,298.861a1.358,1.358,0,1,1-.4-.963A1.361,1.361,0,0,1,484.541,298.861Z" transform="translate(-428.254 -297.5)" fill="#263238"/><path d="M460.521,298.861a1.358,1.358,0,1,1-.4-.963A1.361,1.361,0,0,1,460.521,298.861Z" transform="translate(-427.748 -297.5)" fill="#f5f5f5"/><path d="M466.661,298.861a1.358,1.358,0,1,1-.4-.963A1.361,1.361,0,0,1,466.661,298.861Z" transform="translate(-427.877 -297.5)" fill="#f5f5f5"/><path d="M479.121,298.861a1.358,1.358,0,1,1-.4-.963A1.36,1.36,0,0,1,479.121,298.861Z" transform="translate(-428.14 -297.5)" fill="#f5f5f5"/><path d="M507.191,298.861a1.361,1.361,0,1,1-1.356-1.361,1.361,1.361,0,0,1,1.356,1.361Z" transform="translate(-428.732 -297.5)" fill="#f5f5f5"/><path d="M472.811,298.861a1.358,1.358,0,1,1-.4-.963A1.361,1.361,0,0,1,472.811,298.861Z" transform="translate(-428.007 -297.5)" fill="#771efc"/><path d="M490.391,298.861a1.36,1.36,0,1,1-1.356-1.361A1.361,1.361,0,0,1,490.391,298.861Z" transform="translate(-428.378 -297.5)" fill="#771efc"/></g><g transform="translate(0 6.569)"><path d="M504.46,305.57a1.358,1.358,0,1,1,.4.963A1.36,1.36,0,0,1,504.46,305.57Z" transform="translate(-428.722 -304.21)" fill="#263238"/><path d="M498.32,305.57a1.358,1.358,0,1,1,.4.963A1.361,1.361,0,0,1,498.32,305.57Z" transform="translate(-428.592 -304.21)" fill="#263238"/><path d="M492.18,305.57a1.358,1.358,0,1,1,.4.963A1.361,1.361,0,0,1,492.18,305.57Z" transform="translate(-428.463 -304.21)" fill="#263238"/><path d="M486.04,305.57a1.358,1.358,0,1,1,.4.963A1.361,1.361,0,0,1,486.04,305.57Z" transform="translate(-428.333 -304.21)" fill="#263238"/><path d="M438.45,305.57a1.358,1.358,0,1,1,.4.963A1.361,1.361,0,0,1,438.45,305.57Z" transform="translate(-427.329 -304.21)" fill="#263238"/><path d="M432.19,305.57a1.358,1.358,0,1,1,.4.963,1.36,1.36,0,0,1-.4-.963Z" transform="translate(-427.198 -304.21)" fill="#263238"/><path d="M479.9,305.57a1.358,1.358,0,1,1,.4.963A1.361,1.361,0,0,1,479.9,305.57Z" transform="translate(-428.204 -304.21)" fill="#263238"/><path d="M449.74,305.57a1.358,1.358,0,1,1,.4.963A1.361,1.361,0,0,1,449.74,305.57Z" transform="translate(-427.568 -304.21)" fill="#263238"/><path d="M473.76,305.57a1.358,1.358,0,1,1,.4.963A1.36,1.36,0,0,1,473.76,305.57Z" transform="translate(-428.075 -304.21)" fill="#f5f5f5"/><path d="M467.62,305.57a1.358,1.358,0,1,1,.4.963A1.36,1.36,0,0,1,467.62,305.57Z" transform="translate(-427.945 -304.21)" fill="#f5f5f5"/><path d="M455.16,305.57a1.358,1.358,0,1,1,.4.963A1.361,1.361,0,0,1,455.16,305.57Z" transform="translate(-427.682 -304.21)" fill="#f5f5f5"/><path d="M427.09,305.57a1.358,1.358,0,1,1,.4.963,1.361,1.361,0,0,1-.4-.963Z" transform="translate(-427.09 -304.21)" fill="#f5f5f5"/><path d="M461.48,305.57a1.358,1.358,0,1,1,.4.963,1.36,1.36,0,0,1-.4-.963Z" transform="translate(-427.815 -304.21)" fill="#771efc"/><path d="M443.89,305.57a1.358,1.358,0,1,1,.4.963A1.36,1.36,0,0,1,443.89,305.57Z" transform="translate(-427.444 -304.21)" fill="#771efc"/></g><g transform="translate(0.01 12.412)"><circle cx="1.361" cy="1.361" r="1.361" transform="translate(0 0)" fill="#263238"/><circle cx="1.361" cy="1.361" r="1.361" transform="translate(6.01 0)" fill="#263238"/><circle cx="1.361" cy="1.361" r="1.361" transform="translate(12.021 0)" fill="#263238"/><circle cx="1.361" cy="1.361" r="1.361" transform="translate(18.032 0)" fill="#263238"/><circle cx="1.361" cy="1.361" r="1.361" transform="translate(64.617 0)" fill="#263238"/><circle cx="1.361" cy="1.361" r="1.361" transform="translate(70.745 0)" fill="#263238"/><circle cx="1.361" cy="1.361" r="1.361" transform="translate(24.042 0)" fill="#263238"/><path d="M484.541,311.54a1.358,1.358,0,1,1-.4-.963A1.36,1.36,0,0,1,484.541,311.54Z" transform="translate(-428.254 -310.18)" fill="#263238"/><circle cx="1.361" cy="1.361" r="1.361" transform="translate(30.052 0)" fill="#f5f5f5"/><path d="M466.661,311.54a1.358,1.358,0,1,1-.4-.963A1.361,1.361,0,0,1,466.661,311.54Z" transform="translate(-427.877 -310.18)" fill="#f5f5f5"/><circle cx="1.361" cy="1.361" r="1.361" transform="translate(48.26 0)" fill="#f5f5f5"/><path d="M507.191,311.54a1.361,1.361,0,1,1-1.356-1.361,1.361,1.361,0,0,1,1.356,1.361Z" transform="translate(-428.732 -310.18)" fill="#f5f5f5"/><circle cx="1.361" cy="1.361" r="1.361" transform="translate(42.073 0)" fill="#771efc"/><circle cx="1.361" cy="1.361" r="1.361" transform="translate(59.292 0)" fill="#771efc"/></g></g><rect width="120.611" height="29.925" transform="translate(0 61.142)" fill="#455a64"/><g transform="translate(35.476 67.848)"><path d="M429.511,336.281a1.358,1.358,0,1,1-.4-.963,1.361,1.361,0,0,1,.4.963Z" transform="translate(-426.79 -334.92)" fill="#263238"/><path d="M435.651,336.281a1.358,1.358,0,1,1-.4-.963,1.361,1.361,0,0,1,.4.963Z" transform="translate(-426.92 -334.92)" fill="#263238"/><path d="M441.791,336.281a1.358,1.358,0,1,1-.4-.963,1.361,1.361,0,0,1,.4.963Z" transform="translate(-427.049 -334.92)" fill="#263238"/><path d="M447.941,336.281a1.358,1.358,0,1,1-.4-.963,1.361,1.361,0,0,1,.4.963Z" transform="translate(-427.178 -334.92)" fill="#263238"/><path d="M495.521,336.281a1.358,1.358,0,1,1-.4-.963,1.361,1.361,0,0,1,.4.963Z" transform="translate(-428.183 -334.92)" fill="#263238"/><path d="M501.791,336.281a1.358,1.358,0,1,1-.4-.963,1.361,1.361,0,0,1,.4.963Z" transform="translate(-428.315 -334.92)" fill="#263238"/><path d="M454.081,336.281a1.358,1.358,0,1,1-.4-.963,1.361,1.361,0,0,1,.4.963Z" transform="translate(-427.308 -334.92)" fill="#263238"/><path d="M484.241,336.281a1.358,1.358,0,1,1-.4-.963,1.361,1.361,0,0,1,.4.963Z" transform="translate(-427.945 -334.92)" fill="#263238"/><path d="M460.221,336.281a1.358,1.358,0,1,1-.4-.963,1.361,1.361,0,0,1,.4.963Z" transform="translate(-427.438 -334.92)" fill="#f5f5f5"/><path d="M466.361,336.281a1.358,1.358,0,1,1-.4-.963,1.361,1.361,0,0,1,.4.963Z" transform="translate(-427.567 -334.92)" fill="#f5f5f5"/><path d="M478.821,336.281a1.358,1.358,0,1,1-.4-.963,1.361,1.361,0,0,1,.4.963Z" transform="translate(-427.83 -334.92)" fill="#f5f5f5"/><path d="M506.881,336.281a1.358,1.358,0,1,1-.4-.963,1.361,1.361,0,0,1,.4.963Z" transform="translate(-428.422 -334.92)" fill="#f5f5f5"/><path d="M472.5,336.281a1.358,1.358,0,1,1-.4-.963,1.361,1.361,0,0,1,.4.963Z" transform="translate(-427.697 -334.92)" fill="#771efc"/><path d="M490.081,336.281a1.358,1.358,0,1,1-.4-.963,1.361,1.361,0,0,1,.4.963Z" transform="translate(-428.068 -334.92)" fill="#771efc"/><g transform="translate(0 6.569)"><path d="M504.16,342.991a1.358,1.358,0,1,1,.4.963,1.36,1.36,0,0,1-.4-.963Z" transform="translate(-428.422 -341.63)" fill="#263238"/><path d="M498.02,342.991a1.358,1.358,0,1,1,.4.963A1.361,1.361,0,0,1,498.02,342.991Z" transform="translate(-428.293 -341.63)" fill="#263238"/><path d="M491.88,342.991a1.358,1.358,0,1,1,.4.963A1.361,1.361,0,0,1,491.88,342.991Z" transform="translate(-428.163 -341.63)" fill="#263238"/><path d="M485.73,342.991a1.358,1.358,0,1,1,.4.963A1.361,1.361,0,0,1,485.73,342.991Z" transform="translate(-428.033 -341.63)" fill="#263238"/><path d="M438.15,342.991a1.358,1.358,0,1,1,.4.963,1.36,1.36,0,0,1-.4-.963Z" transform="translate(-427.03 -341.63)" fill="#263238"/><path d="M431.88,342.991a1.358,1.358,0,1,1,.4.963,1.361,1.361,0,0,1-.4-.963Z" transform="translate(-426.897 -341.63)" fill="#263238"/><path d="M479.59,342.991a1.358,1.358,0,1,1,.4.963,1.36,1.36,0,0,1-.4-.963Z" transform="translate(-427.904 -341.63)" fill="#263238"/><path d="M449.43,342.991a1.358,1.358,0,1,1,.4.963A1.361,1.361,0,0,1,449.43,342.991Z" transform="translate(-427.268 -341.63)" fill="#263238"/><path d="M473.45,342.991a1.358,1.358,0,1,1,.4.963A1.36,1.36,0,0,1,473.45,342.991Z" transform="translate(-427.775 -341.63)" fill="#f5f5f5"/><path d="M467.31,342.991a1.358,1.358,0,1,1,.4.963A1.36,1.36,0,0,1,467.31,342.991Z" transform="translate(-427.645 -341.63)" fill="#f5f5f5"/><path d="M454.85,342.991a1.358,1.358,0,1,1,.4.963,1.36,1.36,0,0,1-.4-.963Z" transform="translate(-427.382 -341.63)" fill="#f5f5f5"/><path d="M426.79,342.991a1.358,1.358,0,1,1,.4.963A1.361,1.361,0,0,1,426.79,342.991Z" transform="translate(-426.79 -341.63)" fill="#f5f5f5"/><path d="M461.17,342.991a1.358,1.358,0,1,1,.4.963,1.36,1.36,0,0,1-.4-.963Z" transform="translate(-427.515 -341.63)" fill="#771efc"/><path d="M443.59,342.991a1.358,1.358,0,1,1,.4.963,1.361,1.361,0,0,1-.4-.963Z" transform="translate(-427.144 -341.63)" fill="#771efc"/></g><g transform="translate(0 12.412)"><circle cx="1.361" cy="1.361" r="1.361" transform="translate(0 0)" fill="#263238"/><circle cx="1.361" cy="1.361" r="1.361" transform="translate(6.01 0)" fill="#263238"/><circle cx="1.361" cy="1.361" r="1.361" transform="translate(12.021 0)" fill="#263238"/><circle cx="1.361" cy="1.361" r="1.361" transform="translate(18.032 0)" fill="#263238"/><circle cx="1.361" cy="1.361" r="1.361" transform="translate(64.617 0)" fill="#263238"/><circle cx="1.361" cy="1.361" r="1.361" transform="translate(70.745 0)" fill="#263238"/><circle cx="1.361" cy="1.361" r="1.361" transform="translate(24.042 0)" fill="#263238"/><circle cx="1.361" cy="1.361" r="1.361" transform="translate(53.566 0)" fill="#263238"/><circle cx="1.361" cy="1.361" r="1.361" transform="translate(30.062 0)" fill="#f5f5f5"/><circle cx="1.361" cy="1.361" r="1.361" transform="translate(36.073 0)" fill="#f5f5f5"/><circle cx="1.361" cy="1.361" r="1.361" transform="translate(48.27 0)" fill="#f5f5f5"/><path d="M506.881,348.961a1.358,1.358,0,1,1-.4-.963,1.361,1.361,0,0,1,.4.963Z" transform="translate(-428.422 -347.6)" fill="#f5f5f5"/><circle cx="1.361" cy="1.361" r="1.361" transform="translate(42.083 0)" fill="#771efc"/><circle cx="1.361" cy="1.361" r="1.361" transform="translate(59.292 0)" fill="#771efc"/></g></g><rect width="23.749" height="3.652" transform="translate(5.355 67.3)" fill="#263238"/><rect width="23.749" height="3.652" transform="translate(5.355 73.584)" fill="#263238"/><rect width="23.749" height="3.652" transform="translate(5.355 80.084)" fill="#263238"/><rect width="120.611" height="29.925" transform="translate(0 98.067)" fill="#455a64"/><rect width="23.749" height="3.652" transform="translate(5.355 104.224)" fill="#263238"/><rect width="23.749" height="3.652" transform="translate(5.355 110.518)" fill="#263238"/><rect width="23.749" height="3.652" transform="translate(5.355 117.019)" fill="#263238"/><g transform="translate(35.035 104.782)"><g transform="translate(0.01)"><path d="M429.071,374.011a1.358,1.358,0,1,1-.4-.963,1.361,1.361,0,0,1,.4.963Z" transform="translate(-426.35 -372.65)" fill="#263238"/><path d="M435.211,374.011a1.358,1.358,0,1,1-.4-.963,1.361,1.361,0,0,1,.4.963Z" transform="translate(-426.48 -372.65)" fill="#263238"/><path d="M441.351,374.011a1.358,1.358,0,1,1-.4-.963,1.361,1.361,0,0,1,.4.963Z" transform="translate(-426.609 -372.65)" fill="#263238"/><path d="M447.491,374.011a1.358,1.358,0,1,1-.4-.963,1.361,1.361,0,0,1,.4.963Z" transform="translate(-426.738 -372.65)" fill="#263238"/><path d="M495.081,374.011a1.358,1.358,0,1,1-.4-.963,1.361,1.361,0,0,1,.4.963Z" transform="translate(-427.743 -372.65)" fill="#263238"/><path d="M501.341,374.011a1.358,1.358,0,1,1-.4-.963,1.361,1.361,0,0,1,.4.963Z" transform="translate(-427.875 -372.65)" fill="#263238"/><path d="M453.631,374.011a1.358,1.358,0,1,1-.4-.963,1.361,1.361,0,0,1,.4.963Z" transform="translate(-426.868 -372.65)" fill="#263238"/><path d="M483.791,374.011a1.358,1.358,0,1,1-.4-.963,1.361,1.361,0,0,1,.4.963Z" transform="translate(-427.504 -372.65)" fill="#263238"/><path d="M459.771,374.011a1.358,1.358,0,1,1-.4-.963,1.361,1.361,0,0,1,.4.963Z" transform="translate(-426.998 -372.65)" fill="#f5f5f5"/><path d="M465.911,374.011a1.358,1.358,0,1,1-.4-.963,1.36,1.36,0,0,1,.4.963Z" transform="translate(-427.127 -372.65)" fill="#f5f5f5"/><path d="M478.371,374.011a1.358,1.358,0,1,1-.4-.963,1.361,1.361,0,0,1,.4.963Z" transform="translate(-427.39 -372.65)" fill="#f5f5f5"/><path d="M506.441,374.011a1.358,1.358,0,1,1-.4-.963,1.361,1.361,0,0,1,.4.963Z" transform="translate(-427.982 -372.65)" fill="#f5f5f5"/><path d="M472.051,374.011a1.358,1.358,0,1,1-.4-.963,1.361,1.361,0,0,1,.4.963Z" transform="translate(-427.257 -372.65)" fill="#771efc"/><path d="M489.641,374.011a1.358,1.358,0,1,1-.4-.963,1.361,1.361,0,0,1,.4.963Z" transform="translate(-427.628 -372.65)" fill="#771efc"/></g><g transform="translate(0 6.559)"><path d="M503.71,380.711a1.358,1.358,0,1,1,.4.963A1.361,1.361,0,0,1,503.71,380.711Z" transform="translate(-427.972 -379.35)" fill="#263238"/><path d="M497.57,380.711a1.358,1.358,0,1,1,.4.964,1.361,1.361,0,0,1-.4-.964Z" transform="translate(-427.843 -379.35)" fill="#263238"/><path d="M491.43,380.711a1.358,1.358,0,1,1,.4.963A1.361,1.361,0,0,1,491.43,380.711Z" transform="translate(-427.713 -379.35)" fill="#263238"/><path d="M485.29,380.711a1.358,1.358,0,1,1,.4.963,1.361,1.361,0,0,1-.4-.963Z" transform="translate(-427.583 -379.35)" fill="#263238"/><path d="M437.7,380.711a1.358,1.358,0,1,1,.4.963A1.361,1.361,0,0,1,437.7,380.711Z" transform="translate(-426.58 -379.35)" fill="#263238"/><path d="M431.44,380.711a1.358,1.358,0,1,1,.4.963,1.361,1.361,0,0,1-.4-.963Z" transform="translate(-426.448 -379.35)" fill="#263238"/><path d="M479.15,380.711a1.358,1.358,0,1,1,.4.963A1.36,1.36,0,0,1,479.15,380.711Z" transform="translate(-427.454 -379.35)" fill="#263238"/><path d="M448.99,380.711a1.358,1.358,0,1,1,.4.963A1.361,1.361,0,0,1,448.99,380.711Z" transform="translate(-426.818 -379.35)" fill="#263238"/><path d="M473.01,380.711a1.358,1.358,0,1,1,.4.963,1.361,1.361,0,0,1-.4-.963Z" transform="translate(-427.325 -379.35)" fill="#f5f5f5"/><path d="M466.87,380.711a1.358,1.358,0,1,1,.4.964A1.361,1.361,0,0,1,466.87,380.711Z" transform="translate(-427.195 -379.35)" fill="#f5f5f5"/><path d="M454.41,380.711a1.358,1.358,0,1,1,.4.963,1.36,1.36,0,0,1-.4-.963Z" transform="translate(-426.932 -379.35)" fill="#f5f5f5"/><path d="M426.34,380.711a1.358,1.358,0,1,1,.4.963,1.36,1.36,0,0,1-.4-.963Z" transform="translate(-426.34 -379.35)" fill="#f5f5f5"/><path d="M460.72,380.711a1.358,1.358,0,1,1,.4.963A1.36,1.36,0,0,1,460.72,380.711Z" transform="translate(-427.065 -379.35)" fill="#771efc"/><path d="M443.14,380.711a1.358,1.358,0,1,1,.4.963,1.361,1.361,0,0,1-.4-.963Z" transform="translate(-426.694 -379.35)" fill="#771efc"/></g><g transform="translate(0.01 12.402)"><path d="M429.071,386.681a1.358,1.358,0,1,1-.4-.963,1.361,1.361,0,0,1,.4.963Z" transform="translate(-426.35 -385.32)" fill="#263238"/><path d="M435.211,386.681a1.358,1.358,0,1,1-.4-.963,1.36,1.36,0,0,1,.4.963Z" transform="translate(-426.48 -385.32)" fill="#263238"/><path d="M441.351,386.681a1.358,1.358,0,1,1-.4-.963A1.361,1.361,0,0,1,441.351,386.681Z" transform="translate(-426.609 -385.32)" fill="#263238"/><path d="M447.491,386.681a1.358,1.358,0,1,1-.4-.963A1.36,1.36,0,0,1,447.491,386.681Z" transform="translate(-426.738 -385.32)" fill="#263238"/><path d="M495.081,386.681a1.358,1.358,0,1,1-.4-.963A1.361,1.361,0,0,1,495.081,386.681Z" transform="translate(-427.743 -385.32)" fill="#263238"/><path d="M501.341,386.681a1.358,1.358,0,1,1-.4-.963A1.361,1.361,0,0,1,501.341,386.681Z" transform="translate(-427.875 -385.32)" fill="#263238"/><path d="M453.631,386.681a1.358,1.358,0,1,1-.4-.963A1.361,1.361,0,0,1,453.631,386.681Z" transform="translate(-426.868 -385.32)" fill="#263238"/><path d="M483.791,386.681a1.358,1.358,0,1,1-.4-.963,1.36,1.36,0,0,1,.4.963Z" transform="translate(-427.504 -385.32)" fill="#263238"/><path d="M459.771,386.681a1.358,1.358,0,1,1-.4-.963,1.36,1.36,0,0,1,.4.963Z" transform="translate(-426.998 -385.32)" fill="#f5f5f5"/><path d="M465.911,386.681a1.358,1.358,0,1,1-.4-.963A1.36,1.36,0,0,1,465.911,386.681Z" transform="translate(-427.127 -385.32)" fill="#f5f5f5"/><path d="M478.371,386.681a1.358,1.358,0,1,1-.4-.963A1.361,1.361,0,0,1,478.371,386.681Z" transform="translate(-427.39 -385.32)" fill="#f5f5f5"/><path d="M506.441,386.681a1.358,1.358,0,1,1-.4-.963,1.361,1.361,0,0,1,.4.963Z" transform="translate(-427.982 -385.32)" fill="#f5f5f5"/><path d="M472.051,386.681a1.358,1.358,0,1,1-.4-.963A1.36,1.36,0,0,1,472.051,386.681Z" transform="translate(-427.257 -385.32)" fill="#771efc"/><path d="M489.641,386.681a1.358,1.358,0,1,1-.4-.963A1.361,1.361,0,0,1,489.641,386.681Z" transform="translate(-427.628 -385.32)" fill="#771efc"/></g></g></g><path d="M531.9,320.215l-18.139.049V290.339l18.139-.049Z" transform="translate(-393.149 -253.914)" fill="#263238"/><path d="M531.9,283.045l-18.139.049V253.179l18.139-.049Z" transform="translate(-393.149 -253.13)" fill="#263238"/><path d="M531.9,357.7l-18.139.049V327.829l18.139-.049Z" transform="translate(-393.149 -254.704)" fill="#263238"/><path d="M531.9,395.665l-18.139.049V365.789l18.139-.049Z" transform="translate(-393.149 -255.505)" fill="#263238"/></g><rect width="120.611" height="29.925" transform="translate(0.881)" fill="#455a64"/><rect width="23.749" height="3.652" transform="translate(6.236 6.167)" fill="#263238"/><rect width="23.749" height="3.652" transform="translate(6.236 12.452)" fill="#263238"/><rect width="23.749" height="3.652" transform="translate(6.236 18.952)" fill="#263238"/><g transform="translate(36.65 7.009)"><path d="M430.711,261.411a1.358,1.358,0,1,1-.4-.963,1.361,1.361,0,0,1,.4.963Z" transform="translate(-427.99 -260.05)" fill="#263238"/><path d="M436.851,261.411a1.358,1.358,0,1,1-.4-.963,1.361,1.361,0,0,1,.4.963Z" transform="translate(-428.12 -260.05)" fill="#263238"/><path d="M442.991,261.411a1.358,1.358,0,1,1-.4-.963,1.361,1.361,0,0,1,.4.963Z" transform="translate(-428.249 -260.05)" fill="#263238"/><path d="M449.131,261.411a1.358,1.358,0,1,1-.4-.963A1.361,1.361,0,0,1,449.131,261.411Z" transform="translate(-428.378 -260.05)" fill="#263238"/><path d="M496.721,261.411a1.358,1.358,0,1,1-.4-.963A1.36,1.36,0,0,1,496.721,261.411Z" transform="translate(-429.383 -260.05)" fill="#263238"/><path d="M502.981,261.411a1.358,1.358,0,1,1-.4-.963,1.361,1.361,0,0,1,.4.963Z" transform="translate(-429.515 -260.05)" fill="#263238"/><path d="M455.271,261.411a1.358,1.358,0,1,1-.4-.963A1.361,1.361,0,0,1,455.271,261.411Z" transform="translate(-428.508 -260.05)" fill="#263238"/><path d="M485.431,261.411a1.358,1.358,0,1,1-.4-.963A1.36,1.36,0,0,1,485.431,261.411Z" transform="translate(-429.144 -260.05)" fill="#263238"/><path d="M461.411,261.411a1.358,1.358,0,1,1-.4-.963,1.36,1.36,0,0,1,.4.963Z" transform="translate(-428.638 -260.05)" fill="#f5f5f5"/><path d="M467.561,261.411a1.358,1.358,0,1,1-.4-.963A1.361,1.361,0,0,1,467.561,261.411Z" transform="translate(-428.767 -260.05)" fill="#f5f5f5"/><path d="M480.021,261.411a1.358,1.358,0,1,1-.4-.963,1.361,1.361,0,0,1,.4.963Z" transform="translate(-429.03 -260.05)" fill="#f5f5f5"/><path d="M508.081,261.411a1.358,1.358,0,1,1-.4-.963A1.361,1.361,0,0,1,508.081,261.411Z" transform="translate(-429.622 -260.05)" fill="#f5f5f5"/><path d="M473.7,261.411a1.358,1.358,0,1,1-.4-.963,1.36,1.36,0,0,1,.4.963Z" transform="translate(-428.897 -260.05)" fill="#771efc"/><path d="M491.281,261.411a1.358,1.358,0,1,1-.4-.963A1.361,1.361,0,0,1,491.281,261.411Z" transform="translate(-429.268 -260.05)" fill="#771efc"/><g transform="translate(0 6.569)"><path d="M505.36,268.121a1.358,1.358,0,1,1,.4.963A1.361,1.361,0,0,1,505.36,268.121Z" transform="translate(-429.622 -266.76)" fill="#263238"/><path d="M499.21,268.121a1.358,1.358,0,1,1,.4.963A1.361,1.361,0,0,1,499.21,268.121Z" transform="translate(-429.492 -266.76)" fill="#263238"/><path d="M493.07,268.121a1.358,1.358,0,1,1,.4.963A1.361,1.361,0,0,1,493.07,268.121Z" transform="translate(-429.363 -266.76)" fill="#263238"/><path d="M486.93,268.121a1.358,1.358,0,1,1,.4.963A1.36,1.36,0,0,1,486.93,268.121Z" transform="translate(-429.233 -266.76)" fill="#263238"/><path d="M439.34,268.121a1.358,1.358,0,1,1,.4.963A1.361,1.361,0,0,1,439.34,268.121Z" transform="translate(-428.229 -266.76)" fill="#263238"/><path d="M433.08,268.121a1.358,1.358,0,1,1,.4.963,1.361,1.361,0,0,1-.4-.963Z" transform="translate(-428.097 -266.76)" fill="#263238"/><path d="M480.79,268.121a1.358,1.358,0,1,1,.4.963A1.361,1.361,0,0,1,480.79,268.121Z" transform="translate(-429.104 -266.76)" fill="#263238"/><path d="M450.63,268.121a1.358,1.358,0,1,1,.4.963A1.361,1.361,0,0,1,450.63,268.121Z" transform="translate(-428.468 -266.76)" fill="#263238"/><path d="M474.65,268.121a1.358,1.358,0,1,1,.4.963,1.36,1.36,0,0,1-.4-.963Z" transform="translate(-428.975 -266.76)" fill="#f5f5f5"/><path d="M468.51,268.121a1.358,1.358,0,1,1,.4.963,1.36,1.36,0,0,1-.4-.963Z" transform="translate(-428.845 -266.76)" fill="#f5f5f5"/><path d="M456.05,268.121a1.358,1.358,0,1,1,.4.963,1.361,1.361,0,0,1-.4-.963Z" transform="translate(-428.582 -266.76)" fill="#f5f5f5"/><path d="M427.99,268.121a1.358,1.358,0,1,1,.4.963A1.36,1.36,0,0,1,427.99,268.121Z" transform="translate(-427.99 -266.76)" fill="#f5f5f5"/><path d="M462.37,268.121a1.358,1.358,0,1,1,.4.963A1.361,1.361,0,0,1,462.37,268.121Z" transform="translate(-428.715 -266.76)" fill="#771efc"/><path d="M444.78,268.121a1.358,1.358,0,1,1,.4.963,1.36,1.36,0,0,1-.4-.963Z" transform="translate(-428.344 -266.76)" fill="#771efc"/></g><g transform="translate(0 12.412)"><path d="M430.711,274.091a1.358,1.358,0,1,1-.4-.963,1.361,1.361,0,0,1,.4.963Z" transform="translate(-427.99 -272.73)" fill="#263238"/><path d="M436.851,274.091a1.358,1.358,0,1,1-.4-.963,1.361,1.361,0,0,1,.4.963Z" transform="translate(-428.12 -272.73)" fill="#263238"/><path d="M442.991,274.091a1.358,1.358,0,1,1-.4-.963,1.361,1.361,0,0,1,.4.963Z" transform="translate(-428.249 -272.73)" fill="#263238"/><path d="M449.131,274.091a1.358,1.358,0,1,1-.4-.963A1.361,1.361,0,0,1,449.131,274.091Z" transform="translate(-428.378 -272.73)" fill="#263238"/><path d="M496.721,274.091a1.358,1.358,0,1,1-.4-.963A1.361,1.361,0,0,1,496.721,274.091Z" transform="translate(-429.383 -272.73)" fill="#263238"/><path d="M502.981,274.091a1.358,1.358,0,1,1-.4-.963,1.361,1.361,0,0,1,.4.963Z" transform="translate(-429.515 -272.73)" fill="#263238"/><path d="M455.271,274.091a1.358,1.358,0,1,1-.4-.963A1.361,1.361,0,0,1,455.271,274.091Z" transform="translate(-428.508 -272.73)" fill="#263238"/><path d="M485.431,274.091a1.358,1.358,0,1,1-.4-.963A1.361,1.361,0,0,1,485.431,274.091Z" transform="translate(-429.144 -272.73)" fill="#263238"/><path d="M461.411,274.091a1.358,1.358,0,1,1-.4-.963,1.361,1.361,0,0,1,.4.963Z" transform="translate(-428.638 -272.73)" fill="#f5f5f5"/><path d="M467.561,274.091a1.358,1.358,0,1,1-.4-.963A1.361,1.361,0,0,1,467.561,274.091Z" transform="translate(-428.767 -272.73)" fill="#f5f5f5"/><path d="M480.021,274.091a1.358,1.358,0,1,1-.4-.963,1.361,1.361,0,0,1,.4.963Z" transform="translate(-429.03 -272.73)" fill="#f5f5f5"/><path d="M508.081,274.091a1.358,1.358,0,1,1-.4-.963A1.361,1.361,0,0,1,508.081,274.091Z" transform="translate(-429.622 -272.73)" fill="#f5f5f5"/><path d="M473.7,274.091a1.358,1.358,0,1,1-.4-.963,1.361,1.361,0,0,1,.4.963Z" transform="translate(-428.897 -272.73)" fill="#771efc"/><path d="M491.281,274.091a1.358,1.358,0,1,1-.4-.963A1.361,1.361,0,0,1,491.281,274.091Z" transform="translate(-429.268 -272.73)" fill="#771efc"/></g></g></g><g transform="translate(305.242 32.752)"><path d="M311.82,33.734s.343-.02,1.008-.029,1.664-.01,2.957-.029c2.614-.01,6.441-.029,11.365-.049,9.887-.02,24.169-.049,41.809-.079,35.319-.02,84.078-.049,137.947-.079A30.28,30.28,0,0,1,516.861,35a27.745,27.745,0,0,1,8.713,4.8,28.661,28.661,0,0,1,9.936,16.387,47.425,47.425,0,0,1,.558,9.457V74.9q0,9.162-.01,17.924c-.02,23.337-.039,44.364-.059,62.014q-.014,6.622-.02,12.589c0,1.987-.01,3.916-.01,5.8a11.637,11.637,0,0,1-1.047,5.345,11.068,11.068,0,0,1-7.381,6.067,16.779,16.779,0,0,1-4.307.323c-1.37,0-2.676-.01-3.906-.01-4.924-.02-8.761-.039-11.365-.049-1.292-.01-2.281-.02-2.956-.029s-1.008-.029-1.008-.029.343-.02,1.008-.029,1.664-.01,2.956-.029c2.614-.01,6.441-.029,11.365-.049,1.234,0,2.535-.01,3.906-.01a16.641,16.641,0,0,0,4.248-.343,10.83,10.83,0,0,0,7.185-5.951,11.222,11.222,0,0,0,1-5.227c0-1.873-.01-3.808-.01-5.8-.01-3.974-.01-8.184-.02-12.589-.02-17.66-.029-38.677-.059-62.014q0-8.752-.01-17.924V65.613a46.116,46.116,0,0,0-.553-9.355,28.248,28.248,0,0,0-9.77-16.093,27.06,27.06,0,0,0-8.556-4.709,29.965,29.965,0,0,0-9.789-1.5c-53.859-.029-102.628-.059-137.947-.079-17.65-.029-31.932-.059-41.809-.079-4.924-.02-8.761-.039-11.365-.049-1.292-.01-2.281-.02-2.957-.029C312.159,33.753,311.82,33.734,311.82,33.734Z" transform="translate(-311.82 -33.465)" fill="#263238"/></g><g transform="translate(206.095 97.745)"><rect width="94.572" height="289.707" transform="translate(0.415)" fill="#ebebeb"/><path d="M382.179,389.567h-74.6L307.44,99.86h74.739Z" transform="translate(-212.58 -99.86)" fill="#e0e0e0"/><g transform="translate(5.652 46.361)"><rect width="80.222" height="22.583" fill="#263238"/><rect width="4.493" height="17.288" transform="translate(2.242 2.839)" fill="#455a64"/><path d="M228.539,153.809a1.427,1.427,0,1,1-1.427-1.427,1.427,1.427,0,0,1,1.427,1.427Z" transform="translate(-216.508 -147.329)" fill="#771efc"/><path d="M228.539,160.049a1.427,1.427,0,1,1-1.427-1.427,1.427,1.427,0,0,1,1.427,1.427Z" transform="translate(-216.508 -147.46)" fill="#771efc"/><rect width="4.415" height="13.274" transform="translate(17.737 5.051)" fill="#455a64"/><rect width="4.415" height="13.274" transform="translate(24.111 5.051)" fill="#455a64"/><rect width="4.415" height="13.274" transform="translate(30.483 5.051)" fill="#455a64"/><rect width="4.415" height="13.274" transform="translate(36.866 5.051)" fill="#455a64"/><rect width="4.415" height="13.274" transform="translate(43.238 5.051)" fill="#455a64"/><rect width="4.415" height="13.274" transform="translate(49.621 5.051)" fill="#455a64"/><rect width="4.415" height="13.274" transform="translate(55.993 5.051)" fill="#455a64"/><rect width="4.415" height="13.274" transform="translate(62.366 5.051)" fill="#455a64"/><rect width="4.415" height="13.274" transform="translate(68.749 5.051)" fill="#455a64"/><rect width="4.415" height="13.274" transform="translate(75.121 5.051)" fill="#455a64"/></g><g transform="translate(5.652 78.812)"><rect width="80.222" height="22.583" fill="#263238"/><rect width="4.493" height="17.288" transform="translate(2.242 2.839)" fill="#455a64"/><path d="M228.539,186.949a1.427,1.427,0,1,1-1.427-1.427,1.427,1.427,0,0,1,1.427,1.427Z" transform="translate(-216.508 -180.479)" fill="#771efc"/><path d="M228.539,193.189a1.427,1.427,0,1,1-1.427-1.427,1.427,1.427,0,0,1,1.427,1.427Z" transform="translate(-216.508 -180.61)" fill="#771efc"/><rect width="4.415" height="13.274" transform="translate(17.737 5.041)" fill="#455a64"/><rect width="4.415" height="13.274" transform="translate(24.111 5.041)" fill="#455a64"/><rect width="4.415" height="13.274" transform="translate(30.483 5.041)" fill="#455a64"/><rect width="4.415" height="13.274" transform="translate(36.866 5.041)" fill="#455a64"/><rect width="4.415" height="13.274" transform="translate(43.238 5.041)" fill="#455a64"/><rect width="4.415" height="13.274" transform="translate(49.621 5.041)" fill="#455a64"/><rect width="4.415" height="13.274" transform="translate(55.993 5.041)" fill="#455a64"/><rect width="4.415" height="13.274" transform="translate(62.366 5.041)" fill="#455a64"/><rect width="4.415" height="13.274" transform="translate(68.749 5.041)" fill="#455a64"/><rect width="4.415" height="13.274" transform="translate(75.121 5.041)" fill="#455a64"/></g><g transform="translate(5.652 111.517)"><rect width="80.222" height="22.583" fill="#263238"/><rect width="4.493" height="17.288" transform="translate(2.242 2.839)" fill="#455a64"/><path d="M228.539,220.359a1.427,1.427,0,1,1-1.427-1.427,1.444,1.444,0,0,1,1.427,1.427Z" transform="translate(-216.508 -213.889)" fill="#771efc"/><path d="M228.539,226.6a1.427,1.427,0,1,1-1.427-1.427A1.444,1.444,0,0,1,228.539,226.6Z" transform="translate(-216.508 -214.02)" fill="#771efc"/><rect width="4.415" height="13.274" transform="translate(17.737 5.051)" fill="#455a64"/><rect width="4.415" height="13.274" transform="translate(24.111 5.051)" fill="#455a64"/><rect width="4.415" height="13.274" transform="translate(30.483 5.051)" fill="#455a64"/><rect width="4.415" height="13.274" transform="translate(36.866 5.051)" fill="#455a64"/><rect width="4.415" height="13.274" transform="translate(43.238 5.051)" fill="#455a64"/><rect width="4.415" height="13.274" transform="translate(49.621 5.051)" fill="#455a64"/><rect width="4.415" height="13.274" transform="translate(55.993 5.051)" fill="#455a64"/><rect width="4.415" height="13.274" transform="translate(62.366 5.051)" fill="#455a64"/><rect width="4.415" height="13.274" transform="translate(68.749 5.051)" fill="#455a64"/><rect width="4.415" height="13.274" transform="translate(75.121 5.051)" fill="#455a64"/></g><g transform="translate(5.652 146.845)"><rect width="80.222" height="22.583" fill="#263238"/><rect width="4.493" height="17.288" transform="translate(2.242 2.839)" fill="#455a64"/><path d="M228.539,256.459a1.427,1.427,0,1,1-1.427-1.427,1.427,1.427,0,0,1,1.427,1.427Z" transform="translate(-216.508 -249.979)" fill="#771efc"/><path d="M228.539,262.7a1.427,1.427,0,1,1-1.427-1.427,1.427,1.427,0,0,1,1.427,1.427Z" transform="translate(-216.508 -250.111)" fill="#771efc"/><rect width="4.415" height="13.274" transform="translate(17.737 5.051)" fill="#455a64"/><rect width="4.415" height="13.274" transform="translate(24.111 5.051)" fill="#455a64"/><rect width="4.415" height="13.274" transform="translate(30.483 5.051)" fill="#455a64"/><rect width="4.415" height="13.274" transform="translate(36.866 5.051)" fill="#455a64"/><rect width="4.415" height="13.274" transform="translate(43.238 5.051)" fill="#455a64"/><rect width="4.415" height="13.274" transform="translate(49.621 5.051)" fill="#455a64"/><rect width="4.415" height="13.274" transform="translate(55.993 5.051)" fill="#455a64"/><rect width="4.415" height="13.274" transform="translate(62.366 5.051)" fill="#455a64"/><rect width="4.415" height="13.274" transform="translate(68.749 5.051)" fill="#455a64"/><rect width="4.415" height="13.274" transform="translate(75.121 5.051)" fill="#455a64"/></g><g transform="translate(5.652 182.526)"><rect width="80.222" height="22.583" fill="#263238"/><rect width="4.493" height="17.288" transform="translate(2.242 2.839)" fill="#455a64"/><path d="M228.539,292.909a1.427,1.427,0,1,1-1.427-1.427,1.427,1.427,0,0,1,1.427,1.427Z" transform="translate(-216.508 -286.429)" fill="#771efc"/><path d="M228.539,299.149a1.427,1.427,0,1,1-1.427-1.427,1.427,1.427,0,0,1,1.427,1.427Z" transform="translate(-216.508 -286.56)" fill="#771efc"/><rect width="4.415" height="13.274" transform="translate(17.737 5.051)" fill="#455a64"/><rect width="4.415" height="13.274" transform="translate(24.111 5.051)" fill="#455a64"/><rect width="4.415" height="13.274" transform="translate(30.483 5.051)" fill="#455a64"/><rect width="4.415" height="13.274" transform="translate(36.866 5.051)" fill="#455a64"/><rect width="4.415" height="13.274" transform="translate(43.238 5.051)" fill="#455a64"/><rect width="4.415" height="13.274" transform="translate(49.621 5.051)" fill="#455a64"/><rect width="4.415" height="13.274" transform="translate(55.993 5.051)" fill="#455a64"/><rect width="4.415" height="13.274" transform="translate(62.366 5.051)" fill="#455a64"/><rect width="4.415" height="13.274" transform="translate(68.749 5.051)" fill="#455a64"/><rect width="4.415" height="13.274" transform="translate(75.121 5.051)" fill="#455a64"/></g><g transform="translate(5.652 253.537)"><rect width="80.222" height="22.583" fill="#263238"/><rect width="4.493" height="17.288" transform="translate(2.242 2.839)" fill="#455a64"/><path d="M228.539,365.449a1.427,1.427,0,1,1-1.427-1.427,1.428,1.428,0,0,1,1.427,1.427Z" transform="translate(-216.508 -358.969)" fill="#771efc"/><path d="M228.539,371.689a1.427,1.427,0,1,1-1.427-1.427,1.427,1.427,0,0,1,1.427,1.427Z" transform="translate(-216.508 -359.1)" fill="#771efc"/><rect width="4.415" height="13.274" transform="translate(17.737 5.051)" fill="#455a64"/><rect width="4.415" height="13.274" transform="translate(24.111 5.051)" fill="#455a64"/><rect width="4.415" height="13.274" transform="translate(30.483 5.051)" fill="#455a64"/><rect width="4.415" height="13.274" transform="translate(36.866 5.051)" fill="#455a64"/><rect width="4.415" height="13.274" transform="translate(43.238 5.051)" fill="#455a64"/><rect width="4.415" height="13.274" transform="translate(49.621 5.051)" fill="#455a64"/><rect width="4.415" height="13.274" transform="translate(55.993 5.051)" fill="#455a64"/><rect width="4.415" height="13.274" transform="translate(62.366 5.051)" fill="#455a64"/><rect width="4.415" height="13.274" transform="translate(68.749 5.051)" fill="#455a64"/><rect width="4.415" height="13.274" transform="translate(75.121 5.051)" fill="#455a64"/></g><g transform="translate(5.652 218.061)"><rect width="80.222" height="22.583" fill="#263238"/><rect width="4.493" height="17.288" transform="translate(2.242 2.839)" fill="#455a64"/><path d="M228.539,329.209a1.427,1.427,0,1,1-1.427-1.427,1.427,1.427,0,0,1,1.427,1.427Z" transform="translate(-216.508 -322.729)" fill="#771efc"/><path d="M228.539,335.449a1.427,1.427,0,1,1-1.427-1.427,1.427,1.427,0,0,1,1.427,1.427Z" transform="translate(-216.508 -322.861)" fill="#771efc"/><rect width="4.415" height="13.274" transform="translate(17.737 5.051)" fill="#455a64"/><rect width="4.415" height="13.274" transform="translate(24.111 5.051)" fill="#455a64"/><rect width="4.415" height="13.274" transform="translate(30.483 5.051)" fill="#455a64"/><rect width="4.415" height="13.274" transform="translate(36.866 5.051)" fill="#455a64"/><rect width="4.415" height="13.274" transform="translate(43.238 5.051)" fill="#455a64"/><rect width="4.415" height="13.274" transform="translate(49.621 5.051)" fill="#455a64"/><rect width="4.415" height="13.274" transform="translate(55.993 5.051)" fill="#455a64"/><rect width="4.415" height="13.274" transform="translate(62.366 5.051)" fill="#455a64"/><rect width="4.415" height="13.274" transform="translate(68.749 5.051)" fill="#455a64"/><rect width="4.415" height="13.274" transform="translate(75.121 5.051)" fill="#455a64"/></g><g transform="translate(0.427 24.617)"><path d="M265.819,146.751a2.971,2.971,0,0,1-.079-.695c-.029-.46-.059-1.136-.079-2.006s-.039-1.939-.1-3.172a20.093,20.093,0,0,0-.548-4.121,14.832,14.832,0,0,0-2.141-4.522,9.973,9.973,0,0,0-4.4-3.534,21.322,21.322,0,0,0-6.236-1.262c-2.23-.2-4.542-.392-6.911-.6-9.466-.823-18.06-1.351-24.277-1.459-3.113-.069-5.628-.049-7.371-.039-.832.01-1.5.02-2.006.02a3.277,3.277,0,0,1-.7-.029,3.86,3.86,0,0,1,.695-.079l2.006-.118c1.742-.069,4.268-.147,7.381-.128,6.236.02,14.84.49,24.316,1.311,2.369.205,4.679.411,6.911.607a21.468,21.468,0,0,1,6.373,1.331,10.438,10.438,0,0,1,4.561,3.73,14.951,14.951,0,0,1,2.141,4.669,20.159,20.159,0,0,1,.49,4.209c.029,1.244.02,2.311.01,3.181-.01.832-.01,1.5-.02,2.006A5.5,5.5,0,0,1,265.819,146.751Z" transform="translate(-210.973 -125.008)" fill="#263238"/></g><g transform="translate(0 31.466)"><path d="M241.461,146.9a3.433,3.433,0,0,1-.049-.656c-.01-.48-.01-1.106-.02-1.89-.01-.823,0-1.821-.1-2.976a9.03,9.03,0,0,0-.988-3.72,7.137,7.137,0,0,0-3.622-2.79,9.919,9.919,0,0,0-5.286-.535,8.767,8.767,0,0,0-2.731.93,5.242,5.242,0,0,0-2.124,2.006,2.878,2.878,0,0,0,.01,2.839,3.81,3.81,0,0,0,2.409,1.811,3.081,3.081,0,0,0,2.819-.813,4.139,4.139,0,0,0,1.262-2.683,4.064,4.064,0,0,0-.842-2.741,6.091,6.091,0,0,0-2.124-1.88,7.921,7.921,0,0,0-2.653-.685q-1.351-.205-2.643-.357c-1.7-.2-3.309-.3-4.768-.362-2.917-.118-5.3-.069-6.931-.069h-1.89a3.1,3.1,0,0,1-.656-.039,3.16,3.16,0,0,1,.656-.069c.48-.02,1.106-.059,1.89-.1,1.634-.059,4.015-.167,6.951-.1,1.468.039,3.073.128,4.8.3.862.089,1.742.2,2.663.323.46.069.91.128,1.39.215a5.6,5.6,0,0,1,1.41.49,6.5,6.5,0,0,1,2.311,2.016,4.61,4.61,0,0,1,.939,3.064,4.681,4.681,0,0,1-1.41,3.015,3.552,3.552,0,0,1-3.279.939,4.34,4.34,0,0,1-2.741-2.052,3.37,3.37,0,0,1,0-3.319,5.719,5.719,0,0,1,2.329-2.2,9.044,9.044,0,0,1,2.888-.959,10.379,10.379,0,0,1,5.521.607,7.46,7.46,0,0,1,3.788,3.006,9.349,9.349,0,0,1,.959,3.876c.059,1.175.029,2.173.01,3-.029.773-.059,1.4-.079,1.89a3.209,3.209,0,0,1-.068.666Z" transform="translate(-210.536 -132.003)" fill="#263238"/></g><g transform="translate(0.424 22.479)"><path d="M272.367,146.705a4.871,4.871,0,0,1-.167-.744c-.089-.49-.225-1.214-.421-2.141a41.664,41.664,0,0,0-2.359-7.655,22.3,22.3,0,0,0-6.979-9.367,13.16,13.16,0,0,0-6.4-2.437,66.7,66.7,0,0,0-7.528-.4c-10.367-.2-19.764-.157-26.558-.421-3.4-.118-6.148-.274-8.046-.411-.91-.078-1.634-.137-2.183-.186a3.964,3.964,0,0,1-.754-.1,3.781,3.781,0,0,1,.764,0c.548.02,1.272.049,2.183.089,1.9.069,4.65.178,8.046.244,6.794.178,16.182.079,26.568.274a64.023,64.023,0,0,1,7.583.421,13.591,13.591,0,0,1,6.607,2.555,20.181,20.181,0,0,1,4.415,4.669,26.648,26.648,0,0,1,2.614,4.943,38.46,38.46,0,0,1,2.222,7.753c.167.939.274,1.674.333,2.163A7.079,7.079,0,0,1,272.367,146.705Z" transform="translate(-210.97 -122.823)" fill="#263238"/></g><rect width="78.019" height="11.326" transform="translate(6.758 3.602)" fill="#263238"/><rect width="42.475" height="5.658" transform="translate(23.918 9.26)" fill="#455a64"/><g transform="translate(80.645 218.815)"><g transform="translate(3.934 19.673)"><path d="M328.959,343.491c.01.059-.862.137-2.359.577a20.463,20.463,0,0,0-5.893,2.888,16.618,16.618,0,0,0-3.309,3.073,11.846,11.846,0,0,0-1.361,2.095,14.071,14.071,0,0,0-.852,2.516c-.892,3.573-.617,7.672-.441,11.943s-.1,8.507-1.791,11.923a13.24,13.24,0,0,1-3.181,4.258,15.479,15.479,0,0,1-7.557,3.569,13,13,0,0,1-2.878.118,9.94,9.94,0,0,1-1.791-.284,3.09,3.09,0,0,1-.607-.186c.01-.059.852.205,2.409.268a13.8,13.8,0,0,0,2.819-.205,15.028,15.028,0,0,0,3.553-1.146,15.22,15.22,0,0,0,3.778-2.467,13,13,0,0,0,3.044-4.14c1.606-3.319,1.88-7.469,1.7-11.707s-.441-8.408.5-12.07a15.135,15.135,0,0,1,.9-2.6,12.185,12.185,0,0,1,1.427-2.163,16.672,16.672,0,0,1,3.426-3.1,19.339,19.339,0,0,1,6.05-2.78,13.813,13.813,0,0,1,1.784-.343,3.352,3.352,0,0,1,.627-.03Z" transform="translate(-296.939 -343.487)" fill="#263238"/></g><rect width="6.402" height="7.792" transform="translate(0 58.676)" fill="#263238"/><g transform="translate(35.955)"><rect width="35.916" height="39.352" fill="#455a64"/><circle cx="11.825" cy="11.825" r="11.825" transform="translate(3.845 28.822) rotate(-77.537)" fill="#263238"/><path d="M353.785,343.522a5.912,5.912,0,1,1-5.912-5.912A5.912,5.912,0,0,1,353.785,343.522Z" transform="translate(-329.91 -323.69)" fill="#455a64"/><circle cx="1.096" cy="1.096" r="1.096" transform="translate(3.768 5.012)" fill="#263238"/><circle cx="1.096" cy="1.096" r="1.096" transform="translate(29.328 5.012)" fill="#263238"/><path d="M362.043,359.286a1.095,1.095,0,1,1-.321-.776,1.1,1.1,0,0,1,.321.776Z" transform="translate(-330.287 -324.124)" fill="#263238"/><circle cx="1.096" cy="1.096" r="1.096" transform="translate(3.768 34.516)" fill="#263238"/><rect width="2.898" height="39.352" transform="translate(35.916)" fill="#263238"/></g></g></g><g transform="translate(214.898 -0.071)"><path d="M319.531,54.115c3.544-8.282,1.39-16.916-4.435-23.777a24.927,24.927,0,0,0-24.4-7.91,27.283,27.283,0,0,0-54.114,3.514,20.419,20.419,0,0,0-15.6,27.7Z" transform="translate(-219.525 0.071)" fill="#771efc"/></g><g transform="translate(494.053 191.133)"><path d="M529.574,269.529a1.619,1.619,0,0,1,.357-.029c.254-.01.6-.01,1.028-.029.93-.01,2.252-.029,3.945-.049a21.536,21.536,0,0,0,6.138-.714,18.879,18.879,0,0,0,12.774-11.815,16.975,16.975,0,0,0,1.087-5.374c.108-1.89.02-3.876.049-5.893-.01-8.1-.01-16.984-.02-26.322v-6.911a26.9,26.9,0,0,0-.128-3.348,14.629,14.629,0,0,0-.754-3.181,15.182,15.182,0,0,0-8.3-8.859c-3.691-1.683-7.665-1.106-11.241-1.262-3.593-.039-6.951-.069-10-.1-6.1-.078-11.042-.137-14.488-.186-1.683-.029-3.006-.059-3.935-.079-.431-.01-.764-.02-1.028-.029a1.615,1.615,0,0,1-.357-.029,1.378,1.378,0,0,1,.357-.02c.254,0,.6-.01,1.028-.02.93,0,2.252-.01,3.945-.02,3.455,0,8.4.01,14.488.02,3.064.01,6.412.029,10,.039l5.579.029a15.358,15.358,0,0,1,5.834,1.224,15.653,15.653,0,0,1,8.585,9.123,14.835,14.835,0,0,1,.783,3.279,28.4,28.4,0,0,1,.138,3.406v6.913c-.01,9.339-.01,18.227-.02,26.322-.029,2.026.049,3.984-.069,5.922a17.732,17.732,0,0,1-1.146,5.5A19.084,19.084,0,0,1,541.1,268.972a21.455,21.455,0,0,1-6.206.636c-1.684-.02-3.006-.039-3.945-.049-.431-.01-.764-.02-1.028-.029A1.016,1.016,0,0,1,529.574,269.529Z" transform="translate(-504.7 -195.26)" fill="#263238"/></g><path d="M263.259,54.383V40.514H256.3L266.775,25.74,277.239,40.4h-6.823V54.383Z" transform="translate(-5.407 -0.551)" fill="#fff"/><g transform="translate(378.956 90.125)"><g transform="translate(116.908 132.544)"><path d="M506.55,238.492l7.381,9.662,14.077-6.226L519,227.475Z" transform="translate(-506.55 -227.475)" fill="#e0e0e0"/><path d="M511.02,239.9l.225,4.777,4.664,2.181-.244-4.894Z" transform="translate(-506.644 -227.738)" fill="#455a64"/><path d="M515.53,237.17l.225,4.777,4.66,2.183-.244-4.894Z" transform="translate(-506.74 -227.68)" fill="#455a64"/><path d="M520.12,234.44l.225,4.777,4.65,2.183-.235-4.894Z" transform="translate(-506.836 -227.622)" fill="#455a64"/><g transform="translate(6.627 11.399)"><g transform="translate(0 0.34)"><path d="M528.708,241.986l-1.606-2.457-13.783,8.722,3.25,5.442.9-.446c4-2.046,20.234-10.67,22.377-12.961C542.227,237.727,528.708,241.986,528.708,241.986Z" transform="translate(-513.32 -239.468)" fill="#771efc"/><g transform="translate(0.783 8.979)" opacity="0.5"><path d="M521.619,250.822a5.75,5.75,0,0,0-3.5-2.095,4.728,4.728,0,0,0-3.994,1.057l2.359,3.906Z" transform="translate(-514.12 -248.639)" fill="#fff"/></g></g><g transform="translate(3.083 0.368)"><path d="M535.5,240.117s4.894-1.224,4.767-.235-16.187,10.323-23.64,13.822l-.157-.323,18.844-10.729S534.707,240.625,535.5,240.117Z" transform="translate(-516.47 -239.496)" fill="#fff" opacity="0.5"/></g><g transform="translate(2.858 0.516)"><path d="M516.24,253.5a1.013,1.013,0,0,0,.254-.118c.215-.108.446-.225.714-.362.714-.372,1.586-.832,2.624-1.37,2.2-1.175,5.237-2.839,8.536-4.758s6.256-3.71,8.37-5.041q1.483-.937,2.5-1.6.367-.25.675-.441c.157-.108.235-.157.225-.167a1.122,1.122,0,0,0-.244.137c-.205.128-.431.268-.7.411-.685.421-1.537.93-2.526,1.537-2.134,1.3-5.1,3.073-8.4,5s-6.314,3.593-8.5,4.807c-1.018.567-1.889,1.038-2.594,1.427-.268.147-.49.274-.7.392A1.2,1.2,0,0,0,516.24,253.5Z" transform="translate(-516.24 -239.648)" fill="#263238"/></g><g transform="translate(21.608 0.754)"><path d="M535.83,242.876a7.239,7.239,0,0,1-.235-1.5,6.806,6.806,0,0,1,.3-1.488,2.168,2.168,0,0,0-.5,1.478A2.251,2.251,0,0,0,535.83,242.876Z" transform="translate(-535.392 -239.89)" fill="#263238"/></g><g transform="translate(16.599 2.437)"><path d="M530.348,243.216c.059,0,.118-.357.128-.8s-.01-.8-.069-.8-.118.357-.128.793S530.29,243.216,530.348,243.216Z" transform="translate(-530.277 -241.61)" fill="#263238"/></g><g transform="translate(15.164 2.809)"><path d="M528.83,243.282c.049.02.186-.268.3-.616s.167-.666.118-.675-.186.268-.3.616S528.781,243.273,528.83,243.282Z" transform="translate(-528.811 -241.99)" fill="#263238"/></g><g transform="translate(13.685 2.34)"><path d="M527.3,242.362c.029.049.382-.1.793-.333s.714-.46.695-.509a1.9,1.9,0,0,0-.793.333,2.351,2.351,0,0,0-.7.509Z" transform="translate(-527.3 -241.51)" fill="#263238"/></g><g transform="translate(12.902 1.55)"><path d="M526.5,241.552a1.641,1.641,0,0,0,.959-.235,1.659,1.659,0,0,0,.783-.607c-.039-.049-.392.2-.872.431a5.727,5.727,0,0,0-.871.41Z" transform="translate(-526.5 -240.704)" fill="#263238"/></g><g transform="translate(16.435 0)"><path d="M530.11,241.665a2.97,2.97,0,0,0,.9-.529,6.442,6.442,0,0,0,.842-.773,3.658,3.658,0,0,0,.421-.548.527.527,0,0,0,.059-.411.425.425,0,0,0-.342-.284,1.934,1.934,0,0,0-1.772,1.677,1.669,1.669,0,0,0,.059.773c.049.178.108.268.118.254a2.973,2.973,0,0,1-.039-1.008,1.948,1.948,0,0,1,.48-.949,1.592,1.592,0,0,1,1.116-.548c.205.02.244.225.147.411a2.771,2.771,0,0,1-.382.509,7.369,7.369,0,0,1-.793.783C530.443,241.431,530.09,241.636,530.11,241.665Z" transform="translate(-530.109 -239.12)" fill="#263238"/></g><g transform="translate(14.653 1.099)"><path d="M530.336,241.591a1,1,0,0,0-.268-.685,1.778,1.778,0,0,0-.625-.519,1.038,1.038,0,0,0-1.018-.02.417.417,0,0,0-.039.577,1.072,1.072,0,0,0,.392.313,3.4,3.4,0,0,0,.744.3,1.7,1.7,0,0,0,.734.069c0-.029-.274-.059-.685-.2a3.586,3.586,0,0,1-.7-.323c-.235-.118-.519-.411-.313-.587a.939.939,0,0,1,.823.039,1.694,1.694,0,0,1,.6.441A4.758,4.758,0,0,1,530.336,241.591Z" transform="translate(-528.288 -240.243)" fill="#263238"/></g><g transform="translate(0.91 9.164)"><path d="M514.25,249.665c.02.029.382-.274,1.057-.567a5.094,5.094,0,0,1,5.394.8c.567.48.823.872.852.852.01-.01-.039-.108-.167-.284a3.661,3.661,0,0,0-.6-.666,5.034,5.034,0,0,0-2.643-1.272,5.1,5.1,0,0,0-2.9.446,4.459,4.459,0,0,0-.764.47C514.328,249.577,514.24,249.658,514.25,249.665Z" transform="translate(-514.249 -248.482)" fill="#263238"/></g><g transform="translate(9.26 6.743)"><path d="M522.78,248.36a9.027,9.027,0,0,0,2.173-.988,9.521,9.521,0,0,0,1.968-1.36c-.029-.049-.92.535-2.052,1.185S522.75,248.311,522.78,248.36Z" transform="translate(-522.779 -246.008)" fill="#263238"/></g><g transform="translate(6.499 10.667)"><path d="M519.96,250.039c-.01.059.186.147.4.3s.372.313.421.284-.059-.268-.313-.441S519.97,249.99,519.96,250.039Z" transform="translate(-519.96 -250.016)" fill="#263238"/></g><g transform="translate(4.707 9.973)"><path d="M518.13,249.339c-.01.049.167.147.392.205s.431.069.441.02-.167-.147-.392-.205S518.14,249.291,518.13,249.339Z" transform="translate(-518.13 -249.309)" fill="#263238"/></g><g transform="translate(2.873 9.947)"><path d="M516.26,249.613c.039.039.225-.069.47-.118s.46-.02.48-.079-.215-.178-.519-.118S516.221,249.574,516.26,249.613Z" transform="translate(-516.255 -249.282)" fill="#263238"/></g><g transform="translate(1.654 10.468)"><path d="M515.01,249.957c.01.049.128.079.274.059s.254-.089.244-.137-.128-.078-.274-.059S515,249.908,515.01,249.957Z" transform="translate(-515.009 -249.813)" fill="#263238"/></g></g></g><g transform="translate(7.209 79.071)"><path d="M411.16,230.2,466.2,178.293a18.082,18.082,0,0,1,12.941-5.442h0a18.1,18.1,0,0,1,15.713,9.116l28.161,48.395-17.865,10.308-27.126-34.5-27.184,24.56Z" transform="translate(-394.839 -172.851)" fill="#263238"/><path d="M394.6,233.869c-.235.7-1.874,18.432,21.938,18.432h63.6a14.58,14.58,0,0,0,14.576-14.576h0a14.58,14.58,0,0,0-14.576-14.576H420.92a14.64,14.64,0,0,0-6.138,1.351Z" transform="translate(-394.487 -173.912)" fill="#263238"/><g transform="translate(32.59 48.984)"><path d="M486.456,223.144c0,.137-13.137.254-29.338.254s-29.338-.118-29.338-.254,13.137-.254,29.338-.254S486.456,223.008,486.456,223.144Z" transform="translate(-427.78 -222.89)" fill="#455a64"/></g><g transform="translate(81.338 21.183)"><path d="M477.7,194.49c.157,0,.157,2.75.656,6.089.48,3.338,1.272,5.971,1.126,6.02A25.582,25.582,0,0,1,477.7,194.49Z" transform="translate(-477.583 -194.49)" fill="#455a64"/></g><g transform="translate(83.06 20.791)"><path d="M480.436,194.09a25.6,25.6,0,0,1-.029,6.256,26.444,26.444,0,0,1-1.037,6.177c-.147-.029.244-2.79.529-6.216C480.2,196.88,480.285,194.09,480.436,194.09Z" transform="translate(-479.337 -194.09)" fill="#455a64"/></g></g><g transform="translate(35.572 0)"><g transform="translate(1.358)"><path d="M429.97,113.861a1.864,1.864,0,0,1-3,1.664c-1.087-.842-.91-2.535-.421-3.817s1.224-2.614.91-3.955a9.156,9.156,0,0,0-1.625-2.682,5.966,5.966,0,0,1-.656-5.256,4.98,4.98,0,0,1,4.121-3.191c1.873-.147,3.935.823,5.5-.205,1.136-.744,1.488-2.252,2.447-3.212,1.478-1.5,3.955-1.292,5.951-.616s3.945,1.742,6.05,1.634c1.752-.089,3.358-.988,5.071-1.4a9.216,9.216,0,0,1,9.358,14.713c-.852,1.071-2.78,4.268-6.608,3.479" transform="translate(-424.849 -92.076)" fill="#263238"/></g><g transform="translate(0 7.297)"><path d="M432.124,99.53l-.519,2.76-7.988,41.232c-.93,4.787,2.447,9.4,7.583,10.349h0c5.188.959,10.21-2.163,11.219-6.979,1.071-5.061,2.281-10.367,2.281-10.367s6.745.274,9.867-7.959c1.547-4.092,2.78-11.071,3.6-16.818A9.184,9.184,0,0,0,450,101.311Z" transform="translate(-423.463 -99.53)" fill="#ffbe9d"/><g transform="translate(28.164 13.858)"><g transform="translate(0.475 1.22)"><path d="M454.932,116.163a1.113,1.113,0,0,1-1.282.881,1.063,1.063,0,0,1-.92-1.214,1.113,1.113,0,0,1,1.282-.881,1.063,1.063,0,0,1,.92,1.214Z" transform="translate(-452.718 -114.933)" fill="#263238"/></g><path d="M456.528,115.344c-.167.118-.862-.666-2.036-.91s-2.154.167-2.252,0c-.049-.079.137-.3.577-.5a3.028,3.028,0,0,1,1.841-.178,2.894,2.894,0,0,1,1.586.9C456.538,115.011,456.606,115.295,456.528,115.344Z" transform="translate(-452.232 -113.687)" fill="#263238"/></g><g transform="translate(16.573 11.675)"><g transform="translate(0.838 1.122)"><path d="M443.462,113.833a1.113,1.113,0,0,1-1.282.881,1.063,1.063,0,0,1-.92-1.214,1.113,1.113,0,0,1,1.282-.881,1.062,1.062,0,0,1,.92,1.214Z" transform="translate(-441.248 -112.603)" fill="#263238"/></g><path d="M444.688,113.114c-.167.118-.862-.666-2.036-.91s-2.154.167-2.252,0c-.049-.079.137-.3.577-.5a3.028,3.028,0,0,1,1.841-.178,2.894,2.894,0,0,1,1.586.9C444.7,112.781,444.766,113.065,444.688,113.114Z" transform="translate(-440.392 -111.457)" fill="#263238"/></g><g transform="translate(23.325 13.029)"><path d="M447.29,122.736a8.166,8.166,0,0,1,1.977.049c.3.029.607.029.695-.167a1.508,1.508,0,0,0-.02-.93q-.191-1.175-.411-2.467a40.623,40.623,0,0,1-.754-6.382,40.95,40.95,0,0,1,1.263,6.314c.128.862.254,1.683.372,2.477a1.818,1.818,0,0,1-.089,1.214.765.765,0,0,1-.587.333,1.789,1.789,0,0,1-.529-.039,7.713,7.713,0,0,1-1.917-.4Z" transform="translate(-447.29 -112.84)" fill="#263238"/></g><g transform="translate(10.482 31.59)"><path d="M444.938,137.2a22.149,22.149,0,0,1-10.768-5.4s1.547,6.423,10.229,7.39Z" transform="translate(-434.17 -131.8)" fill="#eb996e"/></g><g transform="translate(19.341 23.021)"><path d="M443.583,123.05c.2.029-.069,1.3.832,2.437s2.291,1.272,2.262,1.449c0,.089-.352.186-.93.079a3.212,3.212,0,0,1-1.9-1.145,2.815,2.815,0,0,1-.616-2.026C443.291,123.314,443.495,123.02,443.583,123.05Z" transform="translate(-443.22 -123.048)" fill="#263238"/></g></g><g transform="translate(16.663 14.65)"><path d="M445.952,108.489c-.186.294-1.321-.1-2.731-.215-1.41-.147-2.6.02-2.731-.3-.049-.157.205-.411.714-.624a4.772,4.772,0,0,1,4.16.392C445.825,108.038,446.03,108.343,445.952,108.489Z" transform="translate(-440.484 -107.041)" fill="#263238"/></g><g transform="translate(28.767 17.613)"><path d="M456.815,111.773c-.268.225-1.018-.225-1.987-.441-.959-.244-1.831-.2-1.968-.509-.059-.157.128-.392.535-.567a2.765,2.765,0,0,1,1.7-.1,2.8,2.8,0,0,1,1.478.862C456.873,111.371,456.932,111.666,456.815,111.773Z" transform="translate(-452.849 -110.067)" fill="#263238"/></g><g transform="translate(5.766 5.735)"><path d="M459.363,107.994s-4.818,1.37-10.093-2.526c-3.465-2.555-7.723-4.258-8.832-3.658s-2,4.461-5.951,4.953c0,0-1.047,7.5-3.974,6.715s.607-15.545.607-15.545l8.242,1.249,8.208-.108,7.293,2.359,5.512,2.594Z" transform="translate(-429.352 -97.934)" fill="#263238"/></g><g transform="translate(7.77 3.472)"><path d="M431.4,95.728c-.02-.118.734-.235,1.488.225s1,1.185.881,1.224c-.118.059-.48-.446-1.116-.832C432.024,95.943,431.4,95.855,431.4,95.728Z" transform="translate(-431.4 -95.622)" fill="#263238"/></g><g transform="translate(10.119 1.58)"><path d="M434.424,93.69c.137.039-.089.9-.147,1.939s.225,1.86.108,1.909a2.341,2.341,0,0,1-.558-1.929A2.956,2.956,0,0,1,434.424,93.69Z" transform="translate(-433.797 -93.69)" fill="#263238"/></g><g transform="translate(1.937 17.494)"><path d="M431.235,110.713c-.108-.089-4.571-2.7-5.648,2.252s4.111,5.022,4.15,4.875S431.235,110.713,431.235,110.713Z" transform="translate(-425.44 -109.946)" fill="#ffbe9d"/><g transform="translate(1.286 1.539)"><path d="M428.656,115.661c-.02-.02-.1.039-.268.079a.882.882,0,0,1-.646-.128,2.178,2.178,0,0,1-.567-2.134,3.024,3.024,0,0,1,.509-1.185,1.016,1.016,0,0,1,.793-.519.456.456,0,0,1,.46.357c.039.157-.02.244.01.254.01.02.128-.059.128-.274a.558.558,0,0,0-.128-.357.7.7,0,0,0-.446-.235,1.218,1.218,0,0,0-1.07.567,2.889,2.889,0,0,0-.6,1.311,2.3,2.3,0,0,0,.793,2.418.942.942,0,0,0,.822.039C428.626,115.779,428.675,115.681,428.656,115.661Z" transform="translate(-426.75 -111.519)" fill="#eb996e"/></g></g><g transform="translate(7.878 15.671)"><g transform="translate(5.491 0)"><path d="M447.9,113.572c-.049,0-.039-.47-.268-1.262a5.252,5.252,0,0,0-1.929-2.78,5.047,5.047,0,1,0,0,8.085,5.252,5.252,0,0,0,1.929-2.78c.225-.793.215-1.262.268-1.262.02,0,.029.118.039.343a3.6,3.6,0,0,1-.108.969,5.236,5.236,0,0,1-1.9,3.015,5.467,5.467,0,0,1-8.81-4.327,5.559,5.559,0,0,1,1.077-3.26,5.469,5.469,0,0,1,2.565-1.909,5.4,5.4,0,0,1,5.169.842,5.236,5.236,0,0,1,1.9,3.015,4.7,4.7,0,0,1,.108.969C447.927,113.451,447.917,113.572,447.9,113.572Z" transform="translate(-437.119 -108.085)" fill="#455a64"/></g><g transform="translate(18.129 2.281)"><path d="M460.8,115.9c-.049,0-.039-.47-.268-1.262a5.251,5.251,0,0,0-1.929-2.78,5.047,5.047,0,1,0,0,8.085,5.252,5.252,0,0,0,1.929-2.78c.225-.793.215-1.262.268-1.262.02,0,.029.118.039.343a3.946,3.946,0,0,1-.1.969,5.236,5.236,0,0,1-1.9,3.015,5.467,5.467,0,0,1-8.81-4.327,5.56,5.56,0,0,1,1.077-3.26,5.469,5.469,0,0,1,2.565-1.909,5.4,5.4,0,0,1,5.169.842,5.236,5.236,0,0,1,1.9,3.015,3.982,3.982,0,0,1,.1.969C460.828,115.785,460.818,115.9,460.8,115.9Z" transform="translate(-450.03 -110.415)" fill="#455a64"/></g><g transform="translate(0 2.289)"><path d="M437.853,110.7a19.889,19.889,0,0,1-6.343.02,10.4,10.4,0,0,1,3.172-.268,10.061,10.061,0,0,1,3.172.248Z" transform="translate(-431.51 -110.419)" fill="#455a64"/></g></g><g transform="translate(24.051 21.296)"><path d="M450.234,114.963c-.128.059-.441-.421-1.018-.587s-1.1.059-1.175-.059c-.039-.059.049-.205.284-.333a1.418,1.418,0,0,1,1.037-.1,1.386,1.386,0,0,1,.823.636C450.3,114.769,450.292,114.946,450.234,114.963Z" transform="translate(-448.032 -113.83)" fill="#455a64"/></g></g><path d="M438.38,221.748v-3.27l46.508.959,26.764-42.778,2.457,1.772L486.68,222.17Z" transform="translate(-388.205 -93.86)" fill="#e0e0e0"/><path d="M470.965,208.114l2.339,3.479v7.146a1.543,1.543,0,0,1-1.7-.685,29.09,29.09,0,0,1-1.126-4.282l-1.136,2.927a2.523,2.523,0,0,1-2.966,1.537l-8.624-2.163L461.284,206Z" transform="translate(-388.613 -94.479)" fill="#ffbe9d"/><g transform="translate(0 34.049)"><path d="M421.861,137.66s-12.873,3.221-16.729,9.006-8.262,15.4-12.99,34.047c-4.131,16.269-7.323,42.25-2.849,48.339,3.083,4.2,5.051,5.264,5.051,5.264l9.936-3.553A76.762,76.762,0,0,0,430.143,215.2l15.241-13.9-8.066-6.363s6.138-33.145,4.5-44.726C440.383,140.078,421.861,137.66,421.861,137.66Z" transform="translate(-387.123 -127.086)" fill="#771efc"/><path d="M425.5,147.426c-4.953,1.234-9.724,3.24-16.485,3.808a7.455,7.455,0,0,1-4.571-1c-4.268-2.634-2.79-7.518-.46-10.807,2.477-3.485,6.373-6.49,10.631-6.059a4.887,4.887,0,0,1,2.427-5.727,8.005,8.005,0,0,1,6.588-.147,23.507,23.507,0,0,1,5.766,3.544q3.642,2.746,7.274,5.492a13.844,13.844,0,0,1,4.258,4.337c.939,1.811,4.425,8.937,2.878,10.268,0,0-1.977.577-2.937,0a1.548,1.548,0,0,1-.178-.128,17.78,17.78,0,0,0-15.19-3.582Z" transform="translate(-387.431 -126.857)" fill="#771efc"/><path d="M418.34,154.03l-8.507,39.762a14.235,14.235,0,0,0,9.055,16.357l36.974,7.087,4.611-13.783h0L430.467,194.1l8.8-38.413Z" transform="translate(-387.596 -127.431)" fill="#771efc"/><g transform="translate(21.917 17.255)"><path d="M409.519,201.159a.791.791,0,0,1,.059.235c.039.178.079.4.137.685.029.157.059.323.1.509.069.186.137.382.215.587s.167.441.254.695c.128.235.268.48.4.734a9.909,9.909,0,0,0,2.986,3.162,16.919,16.919,0,0,0,5.423,2.369c8.849,1.615,21.458,3.925,36.578,6.7l-.244.147c1.527-4.366,3.132-8.986,4.807-13.783l.157.3c-9.26-2.878-19.4-6.04-30-9.339l-.235-.069.059-.235c.519-2.046,1.077-4.239,1.644-6.451,1.742-6.959,3.378-13.783,4.8-20.391.7-3.309,1.361-6.569,1.811-9.78.137-.8.128-1.6.205-2.388a10.219,10.219,0,0,0-.268-2.32,9.777,9.777,0,0,0-2.046-4.073,9.992,9.992,0,0,0-7.836-3.51,10.265,10.265,0,0,0-7.283,3.681,19.263,19.263,0,0,0-3.747,6.911,63.365,63.365,0,0,0-1.7,7.156c-1.821,9.221-3.289,16.683-4.317,21.869-.519,2.565-.92,4.561-1.195,5.942-.137.666-.244,1.175-.323,1.547-.079.343-.128.519-.128.519s.02-.186.079-.529c.069-.372.157-.881.274-1.557.254-1.38.625-3.39,1.106-5.961.988-5.188,2.4-12.668,4.15-21.9a59.5,59.5,0,0,1,1.684-7.215,19.547,19.547,0,0,1,3.8-7.075,10.653,10.653,0,0,1,7.577-3.847,10.483,10.483,0,0,1,8.214,3.653,10.142,10.142,0,0,1,2.154,4.268,10.7,10.7,0,0,1,.274,2.437c-.069.813-.069,1.644-.205,2.447-.446,3.24-1.116,6.5-1.8,9.819-1.419,6.627-3.054,13.45-4.8,20.41-.567,2.213-1.126,4.405-1.644,6.451l-.167-.3c10.6,3.309,20.743,6.48,29.994,9.378l.235.069-.079.235c-1.683,4.8-3.309,9.417-4.845,13.773l-.059.178-.186-.039c-15.134-2.829-27.732-5.14-36.562-6.869a16.738,16.738,0,0,1-5.472-2.457,9.939,9.939,0,0,1-3-3.26c-.137-.268-.274-.519-.392-.754-.089-.254-.167-.49-.244-.7s-.137-.421-.205-.607c-.029-.186-.059-.362-.089-.519-.049-.294-.079-.519-.108-.695a1.412,1.412,0,0,1,0-.239Z" transform="translate(-409.512 -144.484)" fill="#263238"/></g><g transform="translate(37.661 66.745)"><path d="M425.649,200.179c-.059,0-.108-.47.078-1.185a5.554,5.554,0,0,1,4.015-3.857c.724-.157,1.195-.089,1.195-.029.01.079-.441.147-1.087.372a6.406,6.406,0,0,0-3.768,3.622C425.806,199.749,425.727,200.189,425.649,200.179Z" transform="translate(-425.595 -195.041)" fill="#263238"/></g><g transform="translate(20.505 26.071)" opacity="0.2"><path d="M417.45,153.49a229.8,229.8,0,0,0-8.907,42.474,34.232,34.232,0,0,0-.2,9.992,11.083,11.083,0,0,0,14.038,9.75c3.064-.577,8.029-1.262,10.856-2.594L416.7,209.706s-10.67-.666-6.089-21.086C415.189,168.183,417.45,153.49,417.45,153.49Z" transform="translate(-408.072 -153.49)"/></g><g transform="translate(15.763 13.756)" opacity="0.2"><path d="M403.239,149.828c-.069,1.634.089,3.642,1.567,4.327,1.527.7,3.181-.567,4.415-1.713a71.46,71.46,0,0,1,16.82-11.532,39.422,39.422,0,0,0-22.769,9.2" transform="translate(-403.226 -140.91)"/></g><g transform="translate(15.42 13.469)"><path d="M435.639,144.839a27.924,27.924,0,0,0-4.561-2.437,19.259,19.259,0,0,0-5.433-1.234,17.955,17.955,0,0,0-6.745.734,33.972,33.972,0,0,0-6.284,2.75c-1.86,1.018-3.524,1.977-4.953,2.721a36.947,36.947,0,0,1-3.455,1.634,6.116,6.116,0,0,1-1.331.441,8.275,8.275,0,0,1,1.249-.625c.813-.392,1.968-.981,3.358-1.772,1.419-.823,3.073-1.772,4.894-2.819a32.568,32.568,0,0,1,6.363-2.829,18.111,18.111,0,0,1,6.931-.714,18.443,18.443,0,0,1,5.521,1.37,16.064,16.064,0,0,1,3.348,1.873,9.4,9.4,0,0,1,.823.646A1.385,1.385,0,0,1,435.639,144.839Z" transform="translate(-402.876 -140.616)" fill="#263238"/></g><g transform="translate(27.45 6.84)"><path d="M441.068,146.762c-.069.069-1.234-1.106-3.3-2.77a49.325,49.325,0,0,0-8.7-5.589,48.708,48.708,0,0,0-9.7-3.583c-2.575-.646-4.209-.881-4.2-.969a5.113,5.113,0,0,1,1.155.078,30.946,30.946,0,0,1,3.122.535,42.728,42.728,0,0,1,18.55,9.251,30.831,30.831,0,0,1,2.311,2.173A5.121,5.121,0,0,1,441.068,146.762Z" transform="translate(-415.164 -133.846)" fill="#263238"/></g><g transform="translate(55.236 23.617)"><path d="M444.137,179.3a3.178,3.178,0,0,1-.2-.823c-.1-.535-.235-1.331-.323-2.349a11.914,11.914,0,0,1,.167-3.651,2.105,2.105,0,0,1,1.606-1.644,1.241,1.241,0,0,1,1.249.509,1.114,1.114,0,0,1-.069,1.427l-.049.049-.078.01a1.566,1.566,0,0,1-1.4-.548,2.5,2.5,0,0,1-.6-1.38c-.118-.981-.128-1.919-.186-2.917-.244-4.689-.431-8.937-.548-12.021-.039-1.459-.079-2.683-.108-3.642a6.829,6.829,0,0,1,.029-1.338,5.964,5.964,0,0,1,.167,1.331c.069.959.167,2.173.274,3.642.205,3.073.446,7.323.695,12.011.069.981.069,1.977.178,2.855a2.1,2.1,0,0,0,.47,1.126,1.1,1.1,0,0,0,.959.411l-.128.059a.658.658,0,0,0,.01-.823.78.78,0,0,0-.8-.323,1.7,1.7,0,0,0-1.282,1.311,12.615,12.615,0,0,0-.268,3.524C444.029,178.119,444.206,179.29,444.137,179.3Z" transform="translate(-443.549 -150.983)" fill="#e0e0e0"/></g><g transform="translate(3.929 84.306)"><path d="M426.958,212.98a9.511,9.511,0,0,1-1.195,1.126c-.783.7-1.958,1.683-3.445,2.855a107.568,107.568,0,0,1-12.187,8.331,102.266,102.266,0,0,1-13.235,6.549c-1.752.714-3.181,1.244-4.193,1.586a10.4,10.4,0,0,1-1.567.48,11.155,11.155,0,0,1,1.5-.666c.981-.392,2.388-.981,4.112-1.723a124.305,124.305,0,0,0,13.114-6.656,132.258,132.258,0,0,0,12.222-8.174c1.508-1.136,2.711-2.065,3.534-2.731A10.741,10.741,0,0,1,426.958,212.98Z" transform="translate(-391.136 -212.98)" fill="#263238"/></g><g transform="translate(7.714 103.621)"><path d="M397.223,235.645c-.108.089-.7-.5-1.3-1.311s-1.008-1.537-.9-1.615.7.5,1.3,1.311S397.34,235.556,397.223,235.645Z" transform="translate(-395.003 -232.712)" fill="#263238"/></g><g transform="translate(13.163 101.118)"><path d="M403.253,233.1c-.079.108-.892-.343-1.644-1.185s-1.136-1.683-1.018-1.752.675.616,1.4,1.41S403.34,232.979,403.253,233.1Z" transform="translate(-400.57 -230.155)" fill="#263238"/></g><g transform="translate(19.975 97.884)"><path d="M410.819,230.579c-.108.1-.93-.666-1.831-1.7s-1.557-1.939-1.449-2.026.93.666,1.831,1.7S410.927,230.482,410.819,230.579Z" transform="translate(-407.528 -226.851)" fill="#263238"/></g><g transform="translate(27.719 93.128)"><path d="M418.955,226.248c-.108.089-.981-.793-1.958-1.958A7.559,7.559,0,0,1,415.441,222c.108-.089.981.793,1.958,1.958A7.69,7.69,0,0,1,418.955,226.248Z" transform="translate(-415.441 -221.993)" fill="#263238"/></g><g transform="translate(34.781 88.356)"><path d="M426.507,220.6c-.1.108-1.028-.587-2.095-1.547s-1.84-1.821-1.752-1.929a6.849,6.849,0,0,1,2.095,1.547C425.822,219.636,426.605,220.507,426.507,220.6Z" transform="translate(-422.653 -217.118)" fill="#263238"/></g></g></g><g transform="translate(471.85 115.659)"><circle cx="2.271" cy="2.271" r="2.271" transform="translate(11.771 22.604) rotate(-76.7)" fill="#455a64"/><g transform="translate(7.779 13.46)"><path d="M492.124,136.462a6.293,6.293,0,0,1,9.114-.118,1.278,1.278,0,0,0,1.811-1.8,8.878,8.878,0,0,0-12.725.108c-1.126,1.185.666,3.006,1.8,1.811Z" transform="translate(-489.966 -131.909)" fill="#455a64"/></g><path d="M484.242,125.59a18.6,18.6,0,0,1,12.2-4.875,18.073,18.073,0,0,1,12.442,4.768c1.195,1.126,3.015-.666,1.811-1.8a20.793,20.793,0,0,0-14.253-5.521,21.308,21.308,0,0,0-14.007,5.62c-1.234,1.077.567,2.888,1.811,1.811Z" transform="translate(-482.019 -118.159)" fill="#455a64"/><g transform="translate(3.118 6.572)"><path d="M487.354,131.6a12.507,12.507,0,0,1,18.378-.268c1.146,1.185,2.966-.616,1.811-1.8a15.044,15.044,0,0,0-21.987.244c-1.116,1.214.675,3.033,1.8,1.821Z" transform="translate(-485.204 -124.873)" fill="#455a64"/></g></g></g></svg>