<svg xmlns="http://www.w3.org/2000/svg" xmlns:xlink="http://www.w3.org/1999/xlink" width="500.263" height="391.299" viewBox="0 0 500.263 391.299"><defs><linearGradient id="a" x1="0.5" x2="0.5" y2="1" gradientUnits="objectBoundingBox"><stop offset="0" stop-color="#771efc"/><stop offset="1" stop-color="#efe5ff"/></linearGradient><linearGradient id="l" x1="0.501" y1="-4.077" x2="0.497" y2="-5.168" gradientUnits="objectBoundingBox"><stop offset="0.032" stop-color="#fff" stop-opacity="0"/><stop offset="0.081" stop-color="#f3f3ff" stop-opacity="0.02"/><stop offset="0.301" stop-color="#c3c4ff" stop-opacity="0.11"/><stop offset="0.509" stop-color="#9d9efe" stop-opacity="0.196"/><stop offset="0.701" stop-color="#8283fe" stop-opacity="0.275"/><stop offset="0.871" stop-color="#7273fe" stop-opacity="0.345"/><stop offset="1" stop-color="#6c6dfe" stop-opacity="0.4"/></linearGradient><clipPath id="m"><ellipse cx="28.806" cy="43.581" rx="28.806" ry="43.581" transform="translate(0 24.537) rotate(-25.207)"/></clipPath><clipPath id="n"><path d="M881.1,1766.359c.1,3.79,3.948,8.338,8.21,7.881s24.873-12.186,24.258-15.333-1.473-4.062-9.282-1.931S880.966,1761.424,881.1,1766.359Z" transform="translate(-881.094 -1755.82)"/></clipPath><linearGradient id="o" x1="0.368" y1="1.28" x2="0.709" y2="-0.424" gradientUnits="objectBoundingBox"><stop offset="0.004" stop-color="#3e50ee"/><stop offset="1" stop-color="#0d0d7f"/></linearGradient><clipPath id="p"><path d="M2718.176,1118.529s13.358.257,15.261,1.931,13,33.812,13,33.812,1.1,6.064-10.741,5.407l-4.091-7.738s-1.831,21.469-3.5,25.788c0,0-17.164,9.5-31.109,0,0,0-2.56-22.356-2.846-30.966l-8.252,17.306-6.794-8.911s8.7-20.525,9.782-24.687c1.1-4.162.873-8.982,5.623-10.513s15.7-1.759,15.7-1.759Z" transform="translate(-2679.1 -1118.2)"/></clipPath><clipPath id="t"><path d="M2789.752,854.295s-6.237-1.487-7.066-9.3,4.521-11.671,9.168-9.912,5.964,4.119,5.964,4.119,7.724-5.092,15.833,3.647,1.573,18.722-2.889,22.456-4.963,3.862-4.963,3.862Z" transform="translate(-2782.601 -834.666)"/></clipPath><clipPath id="v"><path d="M2869.952,1095.7a28.105,28.105,0,0,0-3.519.443c-1.416.315-1.315,3.361-1.243,6.551s1.072,2.36,2.9-.272l1.831-2.632Z" transform="translate(-2865.154 -1095.7)"/></clipPath><clipPath id="w"><path d="M2825.991,945.2s-1.717,17.507,2.432,19.738,6.679-2.646,6.679,2.145-.8,5.664-.8,5.664.357,3.376,4.705,2.331,4.735-4.477,4.735-4.477-1.116-5.793-.459-7.309.459-6.651.459-6.651,2.273.2,2.2-2.8-1.745-3.218-4.177-2.4-5.334-5.593-5.334-5.593S2830.269,948.089,2825.991,945.2Z" transform="translate(-2825.639 -945.2)"/></clipPath><clipPath id="y"><path d="M2781.17,1549.4s-.945-.186-1.459,2.618-2.518,20.41-3.39,48.673,2.432,58.542,2.432,58.542l14.989,1.316,2.246-80.454s6.636,56.568,9.927,80.454h14.674s-1.043-45.612-.9-60.959-.486-47.328-7.538-52.592Z" transform="translate(-2776.175 -1547)"/></clipPath><clipPath id="aa"><path d="M3008.957,1376.363s2.4,5.506,2.746,7.595-20.811,33.955-20.811,33.955-1.144.1-3.433-1.545a5.62,5.62,0,0,1-2.059-2.532s14.532-27.133,14.574-29.321a29.3,29.3,0,0,0-1.216-6.379s8.911-3.948,9.2-3.848C3008.242,1374.36,3008.957,1376.363,3008.957,1376.363Z" transform="translate(-2985.4 -1374.287)"/></clipPath><clipPath id="ab"><path d="M2511.846,1371.544s-22.984-.515-26.146-1.1l-.215-.043c-.057,1.717-.157,5.049-.186,6.766,3.547.3,7.538,1.015,13.545,1.759a133.407,133.407,0,0,0,18.708,1.316l2.4-2.9Z" transform="translate(-2485.3 -1370.4)"/></clipPath><clipPath id="ac"><path d="M2804.2,1518.446v5.149s5.807,2.3,16.435,1.53,15.518-4.863,15.518-4.863l-.143-4.463s-8.139,3.79-15.561,4.506A39.243,39.243,0,0,1,2804.2,1518.446Z" transform="translate(-2804.2 -1515.8)"/></clipPath><clipPath id="ad"><path d="M3261.79,2094.761c-2.3-2.8,5.121-3.962,2.889-7.581-2.16-3.532-4.577-2.446-14.489-2.388-10.212-.058-17.779-1.145-19.953,2.388-2.217,3.619,5.207,4.777,2.889,7.581-2.3,2.8-10.884,11.056-9.9,24.916s18.637,13.887,18.637,13.887h11.17s17.65-.042,18.637-13.887S3264.106,2097.563,3261.79,2094.761Z" transform="translate(-3223.15 -2084.59)"/></clipPath><linearGradient id="ae" x1="0.216" y1="3.548" x2="1.072" y2="3.548" xlink:href="#o"/><linearGradient id="af" x1="9.301" y1="5.817" x2="10.41" y2="5.879" xlink:href="#o"/><linearGradient id="ag" x1="9.378" y1="6.066" x2="10.487" y2="6.128" xlink:href="#o"/><linearGradient id="ah" x1="-0.538" y1="8.252" x2="-0.216" y2="8.379" xlink:href="#o"/><linearGradient id="ai" x1="-0.209" y1="7.282" x2="0.113" y2="7.408" xlink:href="#o"/><clipPath id="aj"><path d="M2265.6,1198.881l26.861,25.33,51.9,39.3,11.658-16.2-52.922-39.047-32.568-17.163Z" transform="translate(-2265.6 -1191.1)"/></clipPath><linearGradient id="ak" x1="0" y1="1.223" x2="1" y2="1.223" xlink:href="#o"/><radialGradient id="al" cx="0.5" cy="0.5" r="0.5" gradientTransform="matrix(1, 0, 0, -1.02, 0, 2.66)" gradientUnits="objectBoundingBox"><stop offset="0.672" stop-color="#3848e0"/><stop offset="0.684" stop-color="#4353e2"/><stop offset="0.734" stop-color="#6c7ceb"/><stop offset="0.784" stop-color="#8e9df2"/><stop offset="0.835" stop-color="#a8b7f8"/><stop offset="0.887" stop-color="#bbc9fc"/><stop offset="0.941" stop-color="#c6d4fe"/><stop offset="1" stop-color="#cad8ff"/></radialGradient></defs><g transform="translate(-356.737 -3353.675)"><g transform="translate(956.249 3776.877) rotate(180)"><path d="M325.855,314.415c-57.519,0-104.313-46.643-104.313-103.973s46.794-103.973,104.313-103.973S430.166,153.11,430.166,210.442,383.372,314.415,325.855,314.415Zm0-206.783c-56.877,0-103.15,46.121-103.15,102.81s46.276,102.81,103.15,102.81S429,267.132,429,210.442,382.73,107.632,325.855,107.632Z" transform="translate(13.024 12.064)" fill="url(#a)"/><path d="M327.157,325.294c-62.65,0-113.618-50.688-113.618-112.99,0-37.571,21.882-65.336,40.24-82.011,23.087-21.02,47.09-31.238,73.378-31.238,35.7,0,62.713,19.524,79.09,35.9,22.911,22.881,34.533,48.9,34.533,77.347,0,26.586-11.428,52.046-33.965,75.672C383.19,312.738,356.392,325.294,327.157,325.294Zm0-225.076c-25.986,0-49.732,10.116-72.6,30.935C236.377,147.671,214.7,175.159,214.7,212.3c0,61.662,50.447,111.827,112.455,111.827,28.9,0,55.42-12.434,78.81-36.957,22.324-23.4,33.645-48.594,33.645-74.87,0-28.123-11.5-53.869-34.184-76.525C389.2,119.556,362.455,100.218,327.157,100.218Z" transform="translate(11.721 10.857)" fill="url(#a)"/><path d="M328.46,336.172a122.661,122.661,0,0,1-86.921-35.626,120.755,120.755,0,0,1-36.006-86.381c0-29.834,14.949-58.136,45.7-86.514,20.193-18.7,43.525-36.011,77.222-36.011,28.648,0,56.051,13.316,83.776,40.706,26.708,26.331,39.147,52.329,39.147,81.818,0,33.874-19.749,59.221-39.067,79.548C384.412,323.077,358.551,336.172,328.46,336.172Zm0-243.368c-33.3,0-56.413,17.159-76.434,35.7-30.5,28.148-45.328,56.168-45.328,85.66a119.6,119.6,0,0,0,35.661,85.555,121.5,121.5,0,0,0,86.1,35.289c29.746,0,55.346-12.983,83.018-42.1,19.161-20.16,38.748-45.282,38.748-78.747,0-29.158-12.325-54.893-38.8-80.991-27.5-27.164-54.64-40.371-82.966-40.371Z" transform="translate(10.419 9.651)" fill="url(#a)"/><path d="M329.762,347.052a132.1,132.1,0,0,1-93.5-38.218,129.566,129.566,0,0,1-38.731-92.811c0-38.021,25.862-67.345,51.16-91.018,23.747-22.313,46.24-40.781,81.067-40.781,36.928,0,65.441,23,88.465,45.508,22.73,22.167,43.765,47.963,43.765,86.291,0,34.028-20,57.913-44.171,83.423C396.007,322.481,369.414,347.052,329.762,347.052Zm0-261.66c-34.4,0-56.707,18.327-80.272,40.463-25.115,23.5-50.795,52.6-50.795,90.17a128.411,128.411,0,0,0,38.386,91.984,130.945,130.945,0,0,0,92.681,37.877c39.191,0,65.567-24.383,87.215-47.238,23.992-25.325,43.852-49.023,43.852-82.623,0-37.9-20.866-63.47-43.415-85.46-22.854-22.336-51.141-45.173-87.652-45.173Z" transform="translate(9.117 8.444)" fill="url(#a)"/><path d="M331.064,357.93a141.53,141.53,0,0,1-100.078-40.8,138.384,138.384,0,0,1-41.458-99.241c0-41.886,32.727-72.888,56.625-95.523l1.713-1.628c24.766-23.569,46.147-43.923,83.2-43.923,38.021,0,66.864,24.854,93.152,50.311,25.5,24.633,48.383,50.113,48.383,90.764,0,35.407-23.013,59.638-45.267,83.072q-2.006,2.112-4.006,4.225C395.1,335.071,370.385,357.93,331.064,357.93Zm0-279.954c-36.587,0-57.816,20.206-82.4,43.6l-1.714,1.628c-29.649,28.084-56.261,56.458-56.261,94.679A137.234,137.234,0,0,0,231.8,316.3a140.376,140.376,0,0,0,99.262,40.463c38.856,0,63.386-22.7,91.417-52.378q2-2.117,4.008-4.228c22.092-23.268,44.947-47.323,44.947-82.272,0-40.2-22.718-65.475-48.029-89.928-26.117-25.286-54.761-49.979-92.343-49.979Z" transform="translate(7.814 7.238)" fill="url(#a)"/><path d="M332.366,368.808a150.963,150.963,0,0,1-106.658-43.387A147.2,147.2,0,0,1,181.525,219.75c0-40.77,30.968-70.325,58.29-96.4l3.8-3.625q3.584-3.445,7.045-6.836C274.591,89.553,295.263,69.4,332.366,69.4c40.455,0,70.694,29.044,97.373,54.668l.465.448c31.034,29.741,53,53.982,53,95.235,0,35.041-22.879,58.62-45,81.421-3.091,3.185-6.286,6.476-9.373,9.753l-2.706,2.874C399.521,342.087,374.392,368.808,332.366,368.808Zm0-298.245c-36.626,0-57.146,20-80.9,43.158q-3.474,3.385-7.053,6.843l-3.8,3.627c-27.153,25.916-57.929,55.289-57.929,95.561a146.056,146.056,0,0,0,43.835,104.843,149.818,149.818,0,0,0,105.843,43.052c41.521,0,66.484-26.543,92.913-54.648l2.706-2.875c3.094-3.282,6.292-6.578,9.384-9.767,22.974-23.678,44.675-46.044,44.675-80.612,0-40.793-21.82-64.856-52.645-94.4l-.465-.448c-26.521-25.465-56.58-54.336-96.568-54.336Z" transform="translate(6.512 6.032)" fill="url(#a)"/><path d="M333.669,379.686a160.407,160.407,0,0,1-113.238-45.974,156.02,156.02,0,0,1-46.91-112.1c0-40.455,30.955-69.794,58.266-95.678,3.139-2.977,6.25-5.924,9.281-8.854,3.831-3.721,7.538-7.441,11.121-11.046,23.494-23.634,43.783-44.043,81.479-44.043,40.137,0,70.228,28.906,96.778,54.41q2.892,2.778,5.75,5.509l1.177,1.119c30.285,28.812,56.443,53.7,56.443,98.588,0,35.272-22.241,57.519-45.787,81.071-4.535,4.54-9.233,9.236-13.692,13.978q-3.776,4.015-7.48,8.031C400.644,352.974,375.884,379.686,333.669,379.686Zm0-316.537c-37.207,0-57.343,20.251-80.655,43.7-3.587,3.6-7.3,7.341-11.138,11.067-3.034,2.934-6.145,5.882-9.289,8.862-27.141,25.723-57.9,54.881-57.9,94.834a154.869,154.869,0,0,0,46.562,111.273,159.245,159.245,0,0,0,112.422,45.64c41.707,0,66.3-26.532,92.336-54.622q3.715-4.008,7.486-8.037c4.471-4.756,9.172-9.456,13.72-14,23.371-23.371,45.446-45.462,45.446-80.249,0-44.394-25.99-69.118-56.083-97.745l-1.177-1.12q-2.862-2.728-5.752-5.512c-26.395-25.352-56.307-54.086-95.977-54.086Z" transform="translate(5.209 4.826)" fill="url(#a)"/><path d="M334.971,390.566c-45.374,0-87.926-17.247-119.819-48.561a164.844,164.844,0,0,1-49.635-118.53c0-40.659,30.095-68.769,59.2-95.953,4.817-4.5,9.367-8.749,13.812-13.085,5.057-4.944,9.831-9.911,14.449-14.715,23.285-24.226,43.394-45.149,82-45.149,40.346,0,69.246,28.007,97.2,55.091,3.294,3.191,6.7,6.489,10.017,9.631q2.707,2.559,5.383,5.074c30.508,28.691,56.857,53.47,56.857,99.106,0,35.846-22.9,58.02-47.141,81.492-5.814,5.631-11.828,11.453-17.441,17.432-3.851,4.1-7.657,8.295-11.338,12.348C402.437,363.451,377.811,390.566,334.971,390.566Zm0-334.83c-38.106,0-58.056,20.757-81.158,44.792-4.623,4.81-9.4,9.784-14.474,14.742-4.454,4.345-9.009,8.6-13.836,13.1-28.922,27.016-58.834,54.95-58.834,95.1a163.677,163.677,0,0,0,49.288,117.7c31.673,31.1,73.935,48.229,119,48.229,42.323,0,66.783-26.929,92.669-55.44,3.684-4.056,7.494-8.255,11.351-12.361,5.63-6,11.653-11.831,17.478-17.471,24.061-23.3,46.788-45.3,46.788-80.657,0-45.133-26.178-69.753-56.487-98.259q-2.674-2.517-5.387-5.075c-3.322-3.146-6.73-6.448-10.025-9.641-27.773-26.923-56.506-54.763-96.376-54.763Z" transform="translate(3.907 3.619)" fill="url(#a)"/><path d="M336.273,401.444c-47.876,0-92.765-18.164-126.4-51.148a173.652,173.652,0,0,1-52.362-124.96c0-41.178,30.855-69.487,60.694-96.863,6.24-5.725,12.134-11.133,17.776-16.679,6.144-6.046,11.81-12.148,17.291-18.045,23.23-25,43.292-46.589,83-46.589,40.86,0,70.042,28.633,98.264,56.323,4.481,4.4,9.116,8.945,13.64,13.2q4.55,4.278,9.029,8.408c31.031,28.751,57.83,53.581,57.83,100.242,0,36.634-23.725,58.869-48.844,82.408-6.988,6.548-14.214,13.32-20.84,20.392-5.009,5.349-9.883,10.841-14.6,16.155C404.659,373.683,380.017,401.444,336.273,401.444Zm0-353.119c-39.2,0-59.1,21.419-82.146,46.218-5.488,5.907-11.162,12.014-17.325,18.083-5.655,5.56-11.557,10.975-17.806,16.707-29.649,27.208-60.317,55.339-60.317,96.006a172.507,172.507,0,0,0,52.012,124.13c33.416,32.769,78.019,50.811,125.585,50.811,43.222,0,67.694-27.572,93.6-56.763,4.721-5.319,9.6-10.819,14.622-16.178,6.651-7.1,13.892-13.884,20.893-20.445,24.932-23.361,48.482-45.428,48.482-81.558,0-46.153-26.626-70.824-57.452-99.39q-4.474-4.142-9.037-8.413c-4.535-4.267-9.17-8.818-13.656-13.22-28.059-27.526-57.069-55.991-97.454-55.991Z" transform="translate(2.605 2.413)" fill="url(#a)"/><path d="M337.576,412.323c-50.377,0-97.6-19.084-132.978-53.735A182.477,182.477,0,0,1,149.511,227.2c0-41.907,31.8-70.527,62.554-98.2,7.551-6.8,14.684-13.216,21.377-19.843,7.138-7.073,13.575-14.232,19.8-21.155,23.281-25.89,43.388-48.253,84.332-48.253,41.589,0,71.164,29.44,99.762,57.912,5.776,5.75,11.233,11.181,16.827,16.419,4.139,3.872,8.293,7.659,12.31,11.319,31.75,28.942,59.166,53.927,59.166,101.8,0,37.564-24.662,59.953-50.771,83.657-8.1,7.35-16.466,14.949-24.015,23.022-6.046,6.469-11.853,13.162-17.464,19.635C407.169,383.754,382.4,412.323,337.576,412.323Zm0-371.414c-40.426,0-60.372,22.181-83.467,47.865-6.237,6.934-12.685,14.106-19.846,21.2-6.712,6.647-13.855,13.075-21.417,19.883-30.566,27.508-62.171,55.951-62.171,97.341a181.319,181.319,0,0,0,54.737,130.559c35.156,34.439,82.088,53.4,132.164,53.4,44.3,0,68.894-28.37,94.935-58.414,5.618-6.481,11.427-13.183,17.494-19.667,7.581-8.1,15.969-15.72,24.081-23.085,25.915-23.528,50.39-45.749,50.39-82.8,0-47.362-27.241-72.192-58.784-100.942-4.02-3.665-8.176-7.453-12.325-11.331-5.607-5.251-11.324-10.941-16.851-16.444-28.429-28.3-57.832-57.572-98.941-57.572Z" transform="translate(1.302 1.206)" fill="url(#a)"/><path d="M338.878,423.2c-52.879,0-102.443-20-139.558-56.323A191.29,191.29,0,0,1,141.507,229.06c0-42.78,32.874-71.793,64.664-99.852,8.788-7.755,17.092-15.081,24.732-22.7,8.065-8.039,15.185-16.21,22.071-24.111,23.409-26.859,43.627-50.063,85.9-50.063,42.463,0,72.514,30.37,101.578,59.742,6.753,6.825,13.132,13.271,19.7,19.393,5.158,4.8,10.334,9.442,15.339,13.928,32.6,29.212,60.752,54.441,60.752,103.665,0,38.6-25.674,61.206-52.855,85.145-9.159,8.065-18.628,16.4-27.034,25.405-7.011,7.505-13.633,15.325-20.036,22.886C409.887,393.716,384.916,423.2,338.878,423.2Zm0-389.707c-41.749,0-61.8,23.015-85.028,49.665-6.893,7.917-14.033,16.108-22.124,24.171-7.674,7.645-15.983,14.983-24.783,22.75-31.6,27.888-64.271,56.725-64.271,98.98a190.139,190.139,0,0,0,57.464,136.989c36.894,36.108,86.167,55.991,138.742,55.991,45.5,0,70.3-29.288,96.558-60.294,6.412-7.572,13.042-15.4,20.073-22.929,8.445-9.041,17.937-17.4,27.116-25.485,26.975-23.76,52.461-46.2,52.461-84.272,0-48.7-27.974-73.772-60.365-102.8-5.009-4.488-10.189-9.13-15.355-13.943-6.588-6.137-13.272-12.892-19.737-19.426-28.9-29.2-58.773-59.4-100.751-59.4Z" transform="translate(0)" fill="url(#a)"/></g><rect width="385" height="341" rx="160" transform="translate(430 3403.974)" fill="#f8fcfe" opacity="0.498"/><g transform="translate(138.438 3153.542)"><ellipse cx="45.069" cy="5.364" rx="45.069" ry="5.364" transform="translate(563.916 574.044)" fill="#e7ecff"/><path d="M1346.3,2098.9l23.815,47.429h91.266l23.4-47.429Z" transform="translate(-966.663 -1572.284)" opacity="0.56" fill="url(#l)"/><path d="M384.3,1650.571V1520.4h59.157v71.73h14.9v-54.823l39-16.062v129.327Z" transform="translate(-142.257 -1076.526)" fill="#e7ecff"/><g transform="translate(310.206 480.039)"><g transform="translate(0 0)"><ellipse cx="28.806" cy="43.581" rx="28.806" ry="43.581" transform="translate(0 24.537) rotate(-25.207)" fill="#acb8f7"/></g><g transform="translate(0 0)"><g transform="translate(0)" clip-path="url(#m)"><path d="M920.258,1890c0,.443-2.775,24.8,6.722,43.882s21.14,29.793,42.122,28.162h0l6.522-1.931s-7.781,9.926-7.838,9.926-27.376.729-27.962,0-29.793-45.054-29.793-45.054-1.6-20.382-.872-21.7S920.258,1890,920.258,1890Z" transform="translate(-902.089 -1873.302)" fill="#355ddb"/></g></g></g><ellipse cx="19.824" cy="29.979" rx="19.824" ry="29.979" transform="translate(328.805 510.872) rotate(-25.207)" fill="#ffefde"/><path d="M977.266,1820.4l3.991,6.622a7.12,7.12,0,0,1-2.732,3.29c-2.431,1.8-4.076,1.673-4.076,1.673l-4.348-8.41Z" transform="translate(-644.27 -1333.618)" fill="#355ddb"/><g transform="translate(313.099 477.545)"><g transform="translate(0 0)"><path d="M881.1,1766.359c.1,3.79,3.948,8.338,8.21,7.881s24.873-12.186,24.258-15.333-1.473-4.062-9.282-1.931S880.966,1761.424,881.1,1766.359Z" transform="translate(-881.094 -1755.82)" fill="#0726a8"/></g><g transform="translate(0 0)"><g clip-path="url(#n)"><path d="M863.593,1793.587s-.586,10.812,7.881,8.067,20.682-9.154,20.682-9.154l-5.492,6.407-15.776,8.181-9.569-2.989-3.719-4.82,3.361-5.693Z" transform="translate(-860.96 -1787.253)" fill="#355ddb"/></g></g></g><g transform="translate(495.376 573.029)"><rect width="210.854" height="1.016" transform="translate(0)" fill="#07076b"/></g><g transform="translate(218.3 573.029)"><rect width="185.695" height="1.016" fill="#07076b"/></g><path d="M1427.264,669.032H1309.379a18.178,18.178,0,0,1-18.179-18.179V447.079a18.178,18.178,0,0,1,18.179-18.179h117.885a18.178,18.178,0,0,1,18.179,18.179V650.853A18.169,18.169,0,0,1,1427.264,669.032Z" transform="translate(-919.444 -141.143)" fill="none" stroke="#000" stroke-miterlimit="10" stroke-width="1"/><path d="M1427.264,668.86H1309.379a18.181,18.181,0,0,1-18.179-18.193V446.893a18.19,18.19,0,0,1,18.179-18.193h117.885a18.181,18.181,0,0,1,18.179,18.193V650.667A18.172,18.172,0,0,1,1427.264,668.86Z" transform="translate(-919.444 -140.972)" fill="url(#o)"/><path d="M1468.747,538.1H1362.663a16.213,16.213,0,0,0-16.163,15.047h138.4A16.17,16.17,0,0,0,1468.747,538.1Z" transform="translate(-966.835 -234.724)" fill="#fff"/><path d="M1346.342,643.214q-.042.579-.043,1.159V824.2a16.21,16.21,0,0,0,16.205,16.205h106.084a16.209,16.209,0,0,0,16.205-16.205V644.359q0-.579-.043-1.159h-138.41Z" transform="translate(-966.663 -324.792)" fill="#cad8ff"/><path d="M1511.575,832.207H1411.2a9.706,9.706,0,0,1-9.7-9.7V765.3a9.706,9.706,0,0,1,9.7-9.7h100.378a9.706,9.706,0,0,1,9.7,9.7v57.212A9.7,9.7,0,0,1,1511.575,832.207Z" transform="translate(-1013.968 -421.115)" fill="#fff"/><path d="M1827.867,848.084a45.677,45.677,0,1,0-9.14,27.419l8.425,7.938V868.579l-3.289-1.731A45.7,45.7,0,0,0,1827.867,848.084Zm-45.683,31.881a31.881,31.881,0,1,1,31.881-31.881A31.883,31.883,0,0,1,1782.184,879.965Z" transform="translate(-1301.053 -461.222)" fill="#0d0d7f" opacity="0.25"/><path d="M1334.295,869.11H1291.2V801.4h43.095a8.98,8.98,0,0,1,8.983,8.982v49.745A8.98,8.98,0,0,1,1334.295,869.11Z" transform="translate(-919.444 -460.365)" fill="#0d0d7f" opacity="0.25"/><path d="M1659.608,467.736h-62.89a3.018,3.018,0,0,1-3.018-3.018h0a3.019,3.019,0,0,1,3.018-3.018h62.89a3.019,3.019,0,0,1,3.018,3.018h0A3.037,3.037,0,0,1,1659.608,467.736Z" transform="translate(-1178.678 -169.252)" fill="#fff"/><g transform="translate(570.266 386.347)"><g transform="translate(0 0)"><path d="M2718.176,1118.529s13.358.257,15.261,1.931,13,33.812,13,33.812,1.1,6.064-10.741,5.407l-4.091-7.738s-1.831,21.469-3.5,25.788c0,0-17.164,9.5-31.109,0,0,0-2.56-22.356-2.846-30.966l-8.252,17.306-6.794-8.911s8.7-20.525,9.782-24.687c1.1-4.162.873-8.982,5.623-10.513s15.7-1.759,15.7-1.759Z" transform="translate(-2679.1 -1118.2)" fill="#771efc"/></g><g transform="translate(0 0)"><g clip-path="url(#p)"><path d="M2979.9,1111.3l.7,1.5s8.8,1.487,9.827,3.275c1.015,1.788,12.242,27.8,12.242,27.8l-10.041-31.982Z" transform="translate(-2936.877 -1112.287)" fill="#7d9af9"/></g></g><g transform="translate(0 0)"><g clip-path="url(#p)"><path d="M3013.736,1225.586l-.615-2.346-5.522-21.84s1.116,7.495,1.56,9.783,4.291,17.249,4.291,17.249Z" transform="translate(-2960.614 -1189.5)" fill="#0726a8"/></g></g><g transform="translate(0 0)"><g clip-path="url(#p)"><path d="M2779.858,1212.2s2.832,21.669,6.78,25.488,8.423,4.463,10.669,9.769,15.948,10.084,16.721,9.683.872,2.1.872,2.1l-4.163,4.491-31.338-1.974.444-33.912Z" transform="translate(-2765.053 -1198.755)" fill="#771efc"/></g></g><g transform="translate(0 0)"><g clip-path="url(#p)"><path d="M2778.448,1209.71l.387-1.545s-.171-15.49.014-18.365c0,0-1.331,16.162-.744,20.982Z" transform="translate(-2763.818 -1179.559)" fill="#0726a8"/></g></g></g><g transform="translate(585.07 345.793)"><g transform="translate(0 0)"><path d="M2789.752,854.295s-6.237-1.487-7.066-9.3,4.521-11.671,9.168-9.912,5.964,4.119,5.964,4.119,7.724-5.092,15.833,3.647,1.573,18.722-2.889,22.456-4.963,3.862-4.963,3.862Z" transform="translate(-2782.601 -834.666)" fill="#191181"/></g><g transform="translate(0 0)"><g clip-path="url(#t)"><path d="M2748.989,825.5s-2.331,8.224,3.5,11.4,8.868,1.273,11.685,6.765,7.066,1.6,8.868,4.291.773,7.552,3.261,7.309l-9.182,8.9-17.65-17.321s-11.642-6.336-11.485-6.866,7.495-11.342,7.495-11.342Z" transform="translate(-2744.37 -826.811)" fill="#090759"/></g></g><g transform="translate(0 0)"><g clip-path="url(#t)"><path d="M2889.415,840.63,2889,843.6s6.637-1.8,10.928.973a19.5,19.5,0,0,1,9.053,13.774l.344-10.127-11.886-7.452s-6.179-.973-6.007-.973S2889.415,840.63,2889.415,840.63Z" transform="translate(-2873.782 -839.066)" fill="#3b3bbc"/></g></g></g><path d="M2874.13,1142.743a11.663,11.663,0,0,1,1.144,1.087,6.042,6.042,0,0,1,3.633.3c1.53.8,2.389-1.144,2.389-1.144l.257,1.931s-1.789.715-1.86,2.031-1.015,2.2-.9,3.647,3.131,33.083,3.131,33.083l-4.334,8.424-4.777-7.981s2.732-31.51,2.574-32.568a5.418,5.418,0,0,0-1.587-2.332l.043-3.633-1.044-1.745,1-1.545Z" transform="translate(-2274.828 -752.506)" fill="#6c90fe"/><g transform="translate(596.878 383.129)"><path d="M2869.952,1095.7a28.105,28.105,0,0,0-3.519.443c-1.416.315-1.315,3.361-1.243,6.551s1.072,2.36,2.9-.272l1.831-2.632Z" transform="translate(-2865.154 -1095.7)" fill="#122fd8"/><g clip-path="url(#v)"><path d="M2873,1110.553s.143-4.263.2-5.822,2.8-2.632,2.8-2.632l-.071,6.423Z" transform="translate(-2871.878 -1101.185)" fill="#0c2aa8"/></g></g><g transform="translate(591.226 361.603)"><g transform="translate(0 0)"><path d="M2825.991,945.2s-1.717,17.507,2.432,19.738,6.679-2.646,6.679,2.145-.8,5.664-.8,5.664.357,3.376,4.705,2.331,4.735-4.477,4.735-4.477-1.116-5.793-.459-7.309.459-6.651.459-6.651,2.273.2,2.2-2.8-1.745-3.218-4.177-2.4-5.334-5.593-5.334-5.593S2830.269,948.089,2825.991,945.2Z" transform="translate(-2825.639 -945.2)" fill="#fdb2d0"/></g><g transform="translate(0 0)"><g clip-path="url(#w)"><path d="M2882,1056.421l.415-1.016s6.866-2.775,7.667-4.234-2.161,7.852-7.41,8.138Z" transform="translate(-2873.938 -1035.881)" fill="#f476af"/></g></g><g transform="translate(0 0)"><g clip-path="url(#w)"><path d="M2819.3,939.689c.115-.143,2.188,2.017,5.521,1.9a19.539,19.539,0,0,0,5.564-.944s1.515,4.863,4.19,5.406,6.652,1.144,6.652,1.144l-1.459-4.434L2830.4,937.9l-10.155-.8Z" transform="translate(-2820.207 -938.259)" fill="#f476af"/></g></g></g><path d="M2922.378,1086.149c1.415-1.488,2.874-3.5,3.747-.73a6.616,6.616,0,0,1-1.731,7.109c-1.945,1.916-3.647,3.848-3.647,3.848s-1.43-7.452-1.043-8.6S2921.248,1087.321,2922.378,1086.149Z" transform="translate(-2314.967 -702.576)" fill="#122fd8"/><g transform="translate(588.174 559.269)"><path d="M2809.492,2336.469a8.852,8.852,0,0,1-5.191-3.561,7.5,7.5,0,0,0,1.3-5.707l9.669.916v6.335A5.6,5.6,0,0,1,2809.492,2336.469Z" transform="translate(-2804.3 -2327.2)" fill="#fdb2d0"/></g><g transform="translate(572.551 564.976)"><g transform="translate(7.112 4.977)"><path d="M2746.059,2405.59l-1.259-3.318c.258-.115.529-.243.816-.373l1.472,3.09Z" transform="translate(-2744.8 -2401.899)" fill="#fcaa23"/></g><g transform="translate(9.944 3.576)"><path d="M2765.916,2395.9l-1.315-3.418c.23-.128.472-.258.715-.386l1.488,3.447Z" transform="translate(-2764.6 -2392.1)" fill="#fcaa23"/></g><g transform="translate(0 0)"><path d="M2697.781,2374.221c.771-.385,2.245-.815,4.419-1.787l1.259,3.319,1.044-.6-1.473-3.09c.615-.286,1.288-.614,2-1l1.316,3.418.886-.357-1.487-3.448c.544-.3,1.13-.629,1.73-1l1.459,3.634,1.059-.386-1.7-3.747a10.869,10.869,0,0,0,2.417-2.073,8.8,8.8,0,0,0,5.192,3.561,5.593,5.593,0,0,0,5.778-2.017v12.215h-26.5C2695.164,2380.859,2694.3,2375.938,2697.781,2374.221Z" transform="translate(-2695.074 -2367.1)" fill="#090041"/></g><g transform="translate(12.39 2.074)"><path d="M2783.16,2385.734l-1.46-3.633c.158-.1.315-.186.486-.286.115-.071.23-.143.329-.214l1.7,3.747Z" transform="translate(-2781.7 -2381.6)" fill="#fcaa23"/></g></g><g transform="translate(614.934 560.17)"><path d="M2997.178,2341.867a8.855,8.855,0,0,0,5.193-3.562c-1.974-2.4-.973-4.305-.973-4.305l-10-.5v6.336A5.572,5.572,0,0,0,2997.178,2341.867Z" transform="translate(-2991.4 -2333.5)" fill="#fdb2d0"/></g><g transform="translate(614.92 564.976)"><g transform="translate(17.206 4.977)"><path d="M3112.63,2405.59l1.258-3.318c-.258-.115-.529-.243-.816-.373l-1.472,3.09Z" transform="translate(-3111.6 -2401.899)" fill="#fcaa23"/></g><g transform="translate(14.46 3.576)"><path d="M3093.288,2395.9l1.315-3.418c-.229-.128-.472-.258-.715-.386l-1.488,3.447Z" transform="translate(-3092.4 -2392.1)" fill="#fcaa23"/></g><g transform="translate(0 0)"><path d="M3015.2,2374.221c-.772-.385-2.246-.815-4.42-1.787l-1.259,3.319-1.043-.6,1.472-3.09c-.615-.286-1.288-.614-2-1l-1.316,3.418-.886-.357,1.488-3.448c-.544-.3-1.13-.629-1.731-1l-1.459,3.634-1.059-.386,1.7-3.747a10.869,10.869,0,0,1-2.417-2.073,8.8,8.8,0,0,1-5.192,3.561,5.593,5.593,0,0,1-5.778-2.017v12.215h26.5C3017.817,2380.859,3018.676,2375.938,3015.2,2374.221Z" transform="translate(-2991.3 -2367.1)" fill="#090041"/></g><g transform="translate(11.7 2.074)"><path d="M3074.158,2385.734l1.459-3.633c-.157-.1-.315-.186-.485-.286-.115-.071-.229-.143-.329-.214l-1.7,3.747Z" transform="translate(-3073.101 -2381.6)" fill="#fcaa23"/></g></g><g transform="translate(584.151 447.678)"><g transform="translate(0 0)"><path d="M2781.17,1549.4s-.945-.186-1.459,2.618-2.518,20.41-3.39,48.673,2.432,58.542,2.432,58.542l14.989,1.316,2.246-80.454s6.636,56.568,9.927,80.454h14.674s-1.043-45.612-.9-60.959-.486-47.328-7.538-52.592Z" transform="translate(-2776.175 -1547)" fill="#771efc"/></g><g transform="translate(0 0)"><g clip-path="url(#y)"><path d="M2888.845,1594.2a.667.667,0,0,1-.443-.172c-.229-.214-.773-.7-1.16-13.659-.186-6.35-.243-12.658-.243-12.73a.28.28,0,0,1,.243-.286l5.265-.773a.279.279,0,0,1,.229.071.3.3,0,0,1,.1.214c0,.157.214,15.276.114,18.308-.1,2.7-2.3,8.339-3.791,8.968A1.323,1.323,0,0,1,2888.845,1594.2Zm-1.273-26.317c.086,9.583.5,24.83,1.23,25.731.014.014.043.042.128,0,1.073-.458,3.333-5.664,3.433-8.453s-.071-15.719-.1-17.95Z" transform="translate(-2871.148 -1563.775)" fill="#c5c4ef"/></g></g><g transform="translate(0 0)"><g clip-path="url(#y)"><path d="M2879.365,1774.773l-.5-10.927s-1.6-6.594-2.861,1.945-3.1,80.626-3.1,80.626l4.719-.443Z" transform="translate(-2859.065 -1730.748)" fill="#6c90fe"/></g></g></g><g transform="translate(614.076 422.975)"><g transform="translate(0 0)"><path d="M3008.957,1376.363s2.4,5.506,2.746,7.595-20.811,33.955-20.811,33.955-1.144.1-3.433-1.545a5.62,5.62,0,0,1-2.059-2.532s14.532-27.133,14.574-29.321a29.3,29.3,0,0,0-1.216-6.379s8.911-3.948,9.2-3.848C3008.242,1374.36,3008.957,1376.363,3008.957,1376.363Z" transform="translate(-2985.4 -1374.287)" fill="#fdb2d0"/></g><g transform="translate(0 0)"><g clip-path="url(#aa)"><path d="M3054.988,1397.4s-2.919,3.018-3.405,6.136-9.882,14.9-9.882,14.9l3.8-19.767Z" transform="translate(-3033.648 -1394.094)" fill="#f476af"/></g></g></g><path d="M3062.239,1360.975l10.283-4.1a1.4,1.4,0,0,1,1.773.629l1.588,3.061a1.26,1.26,0,0,1-.744,1.774l-10.8,3.933a1.4,1.4,0,0,1-1.8-.786l-1.073-2.889A1.282,1.282,0,0,1,3062.239,1360.975Z" transform="translate(-2436.449 -936.297)" fill="#122fd8"/><g transform="translate(521.402 420.514)"><g transform="translate(21.145 1.904)"><path d="M2511.846,1371.544s-22.984-.515-26.146-1.1l-.215-.043c-.057,1.717-.157,5.049-.186,6.766,3.547.3,7.538,1.015,13.545,1.759a133.407,133.407,0,0,0,18.708,1.316l2.4-2.9Z" transform="translate(-2485.3 -1370.4)" fill="#fdb2d0"/><g clip-path="url(#ab)"><path d="M2544.3,1397.707s19.423,1.9,18.694-5.807l6.279,9.1Z" transform="translate(-2535.86 -1388.825)" fill="#f476af"/></g></g><path d="M2463,1366l.171,7.266c1,0,1.989.057,3.018.143.029-1.717.128-5.064.186-6.766C2465.632,1366.5,2464.444,1366.257,2463,1366Z" transform="translate(-2445.045 -1364.725)" fill="#191181"/><path d="M2338.713,1358.331c-3.061,2.918-.587,10.327,8.4,8.3a35.607,35.607,0,0,1,8.481-1l-.171-7.266C2350.012,1357.387,2341.073,1356.071,2338.713,1358.331Z" transform="translate(-2337.463 -1357.085)" fill="#fdb2d0"/></g><path d="M2661.295,1359.214c-.572-.915.573-2.832,1.917-3.146s2.976.057,4.863,3.575,5.106,5.221,4.376,7.981-2.99,4.319-4.734,1.673C2666,1366.68,2664.956,1365.021,2661.295,1359.214Z" transform="translate(-2093.446 -935.622)" fill="#122fd8"/><g transform="translate(588.159 443.215)"><g transform="translate(0 0)"><path d="M2804.2,1518.446v5.149s5.807,2.3,16.435,1.53,15.518-4.863,15.518-4.863l-.143-4.463s-8.139,3.79-15.561,4.506A39.243,39.243,0,0,1,2804.2,1518.446Z" transform="translate(-2804.2 -1515.8)" fill="#041c84"/></g><g transform="translate(0 0)"><g clip-path="url(#ac)"><path d="M2882.58,1542.952h-7.78V1535.4h7.78Zm-7.065-.715h6.35v-6.122h-6.35Z" transform="translate(-2864.703 -1532.597)" fill="#fff"/></g></g></g><path d="M999.782,818.21H916.524a8.323,8.323,0,0,1-8.324-8.324V758.824a8.323,8.323,0,0,1,8.324-8.324h83.257a8.323,8.323,0,0,1,8.324,8.324v51.047A8.317,8.317,0,0,1,999.782,818.21Z" transform="translate(-591.224 -416.745)" fill="#5c90fb" opacity="0.63"/><path d="M1455.851,1516.04h-48.015a6.33,6.33,0,0,1-6.336-6.337v-44.167a6.33,6.33,0,0,1,6.336-6.336h48.015a6.33,6.33,0,0,1,6.336,6.336V1509.7A6.339,6.339,0,0,1,1455.851,1516.04Z" transform="translate(-1013.968 -1024.08)" fill="#5c90fb"/><g transform="translate(412.219 450.265)"><path d="M1574.1,1567.61v15.99a2.512,2.512,0,0,0,3.948,2.06l11.886-8.267a2.513,2.513,0,0,0-.072-4.176l-11.886-7.724A2.52,2.52,0,0,0,1574.1,1567.61Z" transform="translate(-1574.1 -1565.091)" fill="#4153f1"/></g><path d="M1490.127,1779.009H1447.3a3.511,3.511,0,0,1-3.5-3.5h0a3.51,3.51,0,0,1,3.5-3.5h42.823a3.51,3.51,0,0,1,3.5,3.5h0A3.5,3.5,0,0,1,1490.127,1779.009Z" transform="translate(-1050.217 -1292.141)" fill="#fff"/><rect width="9.526" height="26.332" transform="translate(328.518 366.48)" fill="#fff" opacity="0.88"/><rect width="9.526" height="32.868" transform="translate(351.203 359.944)" fill="#fff" opacity="0.88"/><rect width="9.526" height="35.829" transform="translate(373.873 356.983)" fill="#fff" opacity="0.88"/><rect width="9.526" height="48.315" transform="translate(396.557 344.496)" fill="#fff" opacity="0.88"/><path d="M954.2,849.89l16.534,8.982,17.092-13.945,8.439,4.749,43.166-27.176" transform="translate(-630.645 -478.447)" fill="none" stroke="#4153f1" stroke-linecap="round" stroke-linejoin="round" stroke-miterlimit="10" stroke-width="10"/><path d="M1471.9,804.117l8.8,10.9,6.136-12.916Z" transform="translate(-1074.298 -460.965)" fill="#4153f1"/><path d="M1913.067,1484.275h-49.931a5.14,5.14,0,0,1-5.135-5.135v-4.205a5.14,5.14,0,0,1,5.135-5.135h49.931a5.139,5.139,0,0,1,5.135,5.135v4.205A5.148,5.148,0,0,1,1913.067,1484.275Z" transform="translate(-1405.175 -1033.164)" fill="none" stroke="#5c90fb" stroke-miterlimit="10" stroke-width="7"/><path d="M1913.067,1621.675h-49.931a5.14,5.14,0,0,1-5.135-5.135v-4.205a5.14,5.14,0,0,1,5.135-5.135h49.931a5.14,5.14,0,0,1,5.135,5.135v4.205A5.139,5.139,0,0,1,1913.067,1621.675Z" transform="translate(-1405.175 -1150.912)" fill="none" stroke="#5c90fb" stroke-miterlimit="10" stroke-width="7"/><path d="M1913.067,1759.174h-49.931a5.14,5.14,0,0,1-5.135-5.135v-4.205a5.14,5.14,0,0,1,5.135-5.135h49.931a5.139,5.139,0,0,1,5.135,5.135v4.205A5.148,5.148,0,0,1,1913.067,1759.174Z" transform="translate(-1405.175 -1268.745)" fill="none" stroke="#5c90fb" stroke-miterlimit="10" stroke-width="7"/><path d="M3112.095,676.069a2.25,2.25,0,0,1-1.9,2.446c-2.089.329-5.264.729-5.665.114a8.973,8.973,0,0,1-.687-2.331s9.1-1.416,11.114-2.074.943-1.63.1-1.831-12.773,2.674-14.632,2.389c-1.8-.272-.786-1.559.4-1.831s13.173-2.56,14.017-2.646c1.459-.157,2.017-2.031-.2-1.845-1.2.1-14.089,3.161-15.075,3.018s-1.745-1.373.458-1.988,15.132-2.374,15.889-3.19-.914-1.344-2.688-.93-13.145,3.1-13.4,2.26-.014-1.159,1.072-1.531,14.089-2.517,14.8-3.147.643-3.747,1.888-7.194,7.294-8.739,7.966-18.336-12.228-20.181-27.847-13.645-3.748,26.36-.772,31.166,1.358,8.668,2.545,8.653,3.176-.1,2.932-6.294,1.158-15.991-1.731-19.023-3.174,7.366,2.389,11.128,5.935-12.458,3.4-11.042-1.273,11.771,1.76,11.4,8.51-6.765,6.579-10.841-4.019,3.69-3.747,13.7.729,10.5.729,10.5" transform="translate(-2460.803 -306.413)" fill="none" stroke="#5484fc" stroke-miterlimit="10" stroke-width="3"/><g transform="translate(639.578 422.657)"><path d="M3345.648,1372.07s-16.134-.958-18.15,23.643c0,0-9.668,3.461-8.711,13.374s2.031,7.881,2.031,7.881-8.839,10.141-5.964,23.4,9.669,39.39,9.669,39.39,19.58-30.208,18.264-37.13,4.449-15.776-.228-22.041c6.393-2.7,7.98-10.184,4.4-16.52s-3.676-5.864-.715-10.8C3352.628,1382.554,3345.648,1372.07,3345.648,1372.07Z" transform="translate(-3292.742 -1372.065)" fill="#4153f1"/><path d="M3426.9,1633.184s2.388-39.032,8.839-55.867,24.229-28.292,32.239-25.9c0,0,2.032,8-5.249,11.343s-2.5,5.965-2.275,7.766-2.86,9.068-6.922,10.742-7.637,1.6-6.922,10.884-3.461,8.453-6.922,12.873S3427.386,1623.759,3426.9,1633.184Z" transform="translate(-3389.254 -1525.492)" fill="#6c90fe"/><path d="M3195.649,1623.951s2.145-39.047-2.3-56.525-20.8-30.908-29.021-29.464c0,0-2.947,7.709,3.9,11.871s1.8,6.222,1.358,7.966,1.8,9.34,5.636,11.471,7.409,2.474,5.62,11.614,2.46,8.8,5.393,13.588S3196.263,1614.525,3195.649,1623.951Z" transform="translate(-3163.696 -1514.142)" fill="#6c90fe"/><path d="M3399.737,1477.8s-13.6,56.2-13.445,90.867" transform="translate(-3354.453 -1462.676)" fill="none" stroke="#fff" stroke-linecap="round" stroke-linejoin="round" stroke-miterlimit="10" stroke-width="5"/></g><path d="M252.888,919.29c4.648,1.23,18.293,3.919,29.321,3.7s37.374-.658,38.961-3.7-.358-7.552-4.205-7.623-2.317,2.317-3.99,2.245-.729-6.894-5.521-10.012-10.226-4.506-12.844-1.087-.143,6.308-5.078,5.077-3.919-8.2-7.109-10.512-11.614-3.7-14.66,1.087-3.991,14.074-3.991,14.074-5.078-4.134-8.853-.215S252.888,919.29,252.888,919.29Z" transform="translate(-29.296 -540.795)" fill="#e7ecff"/><path d="M1106.5,1963.9l7.738,16.777,7.595,5.406-3.075-8.467Z" transform="translate(-761.161 -1456.593)" fill="#f75828"/><path d="M1228.932,2141.256l-7.667-16.82L1213.7,2119l3.018,8.481Z" transform="translate(-853.028 -1589.509)" fill="#0046d3"/><g transform="translate(648.081 524.569)"><g transform="translate(0 0)"><path d="M3261.79,2094.761c-2.3-2.8,5.121-3.962,2.889-7.581-2.16-3.532-4.577-2.446-14.489-2.388-10.212-.058-17.779-1.145-19.953,2.388-2.217,3.619,5.207,4.777,2.889,7.581-2.3,2.8-10.884,11.056-9.9,24.916s18.637,13.887,18.637,13.887h11.17s17.65-.042,18.637-13.887S3264.106,2097.563,3261.79,2094.761Z" transform="translate(-3223.15 -2084.59)" fill="#8c8ce0"/></g><g transform="translate(0 0)"><g clip-path="url(#ad)"><rect width="36.816" height="4.305" transform="translate(6.901 7.897)" fill="#6e6ed3"/></g></g></g><g transform="translate(597.714 477.428)"><path d="M2871.286,1838.772h0a.29.29,0,0,1-.286-.3l3.6-83.2a.275.275,0,0,1,.286-.271h.014a.278.278,0,0,1,.271.3l-3.6,83.2A.307.307,0,0,1,2871.286,1838.772Z" transform="translate(-2871 -1755)" fill="#8c8ce0"/></g><g transform="translate(612.345 458.076)"><path d="M2985.887,1722.58a.286.286,0,0,1-.286-.286l-1.344-92.912a10.52,10.52,0,0,1-7.725-2.846,11.624,11.624,0,0,1-3.232-6.551.286.286,0,1,1,.571,0,11.316,11.316,0,0,0,1.8,4.648c1.945,2.875,4.92,4.276,8.854,4.177a.256.256,0,0,1,.2.086.281.281,0,0,1,.086.2l1.345,93.2a.267.267,0,0,1-.272.286ZM2973.872,1620Z" transform="translate(-2973.301 -1619.7)" fill="#8c8ce0"/></g><g transform="translate(489.155 575.732)"><g transform="translate(0 0)"><path d="M2116.033,2446.333c-2.3,0-4.033-.873-4.033-2.017s1.731-2.016,4.033-2.016,4.034.873,4.034,2.016S2118.336,2446.333,2116.033,2446.333Zm0-3.318c-1.9,0-3.319.687-3.319,1.3s1.417,1.3,3.319,1.3,3.319-.687,3.319-1.3S2117.936,2443.015,2116.033,2443.015Z" transform="translate(-2112 -2442.3)" fill="#07076b"/></g><g transform="translate(9.783 0.644)"><path d="M2186.994,2453.151c-3.691,0-6.594-1.388-6.594-3.175s2.889-3.176,6.594-3.176,6.593,1.388,6.593,3.176S2190.684,2453.151,2186.994,2453.151Zm0-5.621c-3.519,0-5.879,1.273-5.879,2.46s2.361,2.459,5.879,2.459,5.879-1.273,5.879-2.459S2190.513,2447.53,2186.994,2447.53Z" transform="translate(-2180.4 -2446.8)" fill="#07076b"/></g></g><g transform="translate(472.712 357.49)"><path d="M2001.025,947.994l-.029-.143a3.055,3.055,0,0,1,2.374-3.619l3.776-.787-3.6-17.392a10.615,10.615,0,0,1-1.717,1.373,3.1,3.1,0,0,1-4.72-1.931h0a3,3,0,0,1,1.459-3.247,11.89,11.89,0,0,0,4.391-3.919,3.245,3.245,0,0,1,2.045-1.5l1.531-.314a3.055,3.055,0,0,1,3.619,2.374l4.748,22.956,3.547-.729a3.055,3.055,0,0,1,3.619,2.374l.029.143a3.055,3.055,0,0,1-2.374,3.619l-15.09,3.118A3.054,3.054,0,0,1,2001.025,947.994Z" transform="translate(-1997.04 -916.448)" fill="url(#ae)"/></g><g transform="translate(457.459 370.813)"><path d="M1912.229,1046.732h0a1.119,1.119,0,0,1-1.287-.929l-2.531-15.4a1.118,1.118,0,0,1,.929-1.287h0a1.119,1.119,0,0,1,1.287.93l2.532,15.4A1.126,1.126,0,0,1,1912.229,1046.732Z" transform="translate(-1905.821 -1026.307)" fill="url(#af)"/><path d="M1962.13,1027.232h0a1.119,1.119,0,0,1-1.287-.93l-2.532-15.4a1.12,1.12,0,0,1,.93-1.287h0a1.119,1.119,0,0,1,1.287.93l2.532,15.4A1.126,1.126,0,0,1,1962.13,1027.232Z" transform="translate(-1948.584 -1009.596)" fill="url(#ag)"/><path d="M1890.5,1033.509h0a1.127,1.127,0,0,1,.558-1.488l14.232-6.422a1.126,1.126,0,0,1,1.487.558h0a1.127,1.127,0,0,1-.558,1.487l-14.232,6.422A1.126,1.126,0,0,1,1890.5,1033.509Z" transform="translate(-1890.399 -1023.225)" fill="url(#ah)"/><path d="M1899.2,1080.709h0a1.127,1.127,0,0,1,.558-1.487l14.231-6.422a1.127,1.127,0,0,1,1.488.558h0a1.127,1.127,0,0,1-.558,1.488l-14.231,6.422A1.119,1.119,0,0,1,1899.2,1080.709Z" transform="translate(-1897.855 -1063.673)" fill="url(#ai)"/></g><g transform="translate(511.124 396.774)"><g transform="translate(0 0)"><path d="M2265.6,1198.881l26.861,25.33,51.9,39.3,11.658-16.2-52.922-39.047-32.568-17.163Z" transform="translate(-2265.6 -1191.1)" fill="#6c90fe"/></g><g transform="translate(0 0)"><g clip-path="url(#aj)"><path d="M2415.9,1288.7l-23.3,40.534,102.809,66.294,30.923-30.208Z" transform="translate(-2374.436 -1274.74)" fill="#191181"/></g></g></g><path d="M1653.723,842.9s-33.412,39.4,3.247,73.446c37.988,35.271,75.248-6.851,75.248-6.851l-25.144,9.411-35.643-10.3-8.639-9.054s-4.2-10.956-8.3-16.434-2.031-20.539-2.031-20.539Z" transform="translate(-1218.176 -495.929)" fill="url(#ak)"/><path d="M1709.791,707.9a51.491,51.491,0,1,0,51.49,51.49A51.495,51.495,0,0,0,1709.791,707.9Zm0,87.419a35.929,35.929,0,1,1,35.929-35.929A35.926,35.926,0,0,1,1709.791,795.319Z" transform="translate(-1234.038 -380.238)" fill="url(#al)"/><circle cx="35.929" cy="35.929" r="35.929" transform="translate(439.824 343.224)" fill="#fff" opacity="0.5"/><path d="M865.447,464.889a10.564,10.564,0,1,0-.973,15.79l4.849,4.849a1.761,1.761,0,0,0,2.489,0h0a1.761,1.761,0,0,0,0-2.489l-4.963-4.963A10.562,10.562,0,0,0,865.447,464.889Zm-1.888,13.044a7.889,7.889,0,1,1,0-11.156A7.9,7.9,0,0,1,863.559,477.934Z" transform="translate(-539.131 -169.337)" fill="#6c90fe"/><path d="M3564.771,1125.746l-4.019-.171a1.583,1.583,0,0,0-1.344.629l-2.432,3.218a1.593,1.593,0,0,1-2.8-.529l-1.072-3.876a1.587,1.587,0,0,0-1.016-1.073l-3.8-1.316a1.592,1.592,0,0,1-.358-2.832l3.361-2.217a1.582,1.582,0,0,0,.715-1.3l.072-4.033a1.589,1.589,0,0,1,2.574-1.216l3.147,2.5a1.578,1.578,0,0,0,1.459.272l3.847-1.173a1.593,1.593,0,0,1,1.96,2.074l-1.416,3.776a1.593,1.593,0,0,0,.186,1.474l2.3,3.3A1.574,1.574,0,0,1,3564.771,1125.746Z" transform="translate(-2852.778 -725.411)" fill="#6c90fe"/></g></g></svg>