<svg xmlns="http://www.w3.org/2000/svg" xmlns:xlink="http://www.w3.org/1999/xlink" width="474.616" height="453.299" viewBox="0 0 474.616 453.299"><defs><linearGradient id="a" x1="0.5" x2="0.5" y2="1" gradientUnits="objectBoundingBox"><stop offset="0" stop-color="#771efc"/><stop offset="1" stop-color="#efe5ff"/></linearGradient><clipPath id="l"><rect width="457" height="449" rx="20" transform="translate(-11078.1 -11687)" fill="#f8fcfe"/></clipPath></defs><g transform="translate(-1061.384 -2888.701)"><g transform="translate(919.878 2856.369)"><path d="M325.855,314.415c-57.519,0-104.313-46.643-104.313-103.973s46.794-103.973,104.313-103.973S430.166,153.11,430.166,210.442,383.372,314.415,325.855,314.415Zm0-206.783c-56.877,0-103.15,46.121-103.15,102.81s46.276,102.81,103.15,102.81S429,267.132,429,210.442,382.73,107.632,325.855,107.632Z" transform="translate(13.024 12.064)" fill="url(#a)"/><path d="M327.157,325.294c-62.65,0-113.618-50.688-113.618-112.99,0-37.571,21.882-65.336,40.24-82.011,23.087-21.02,47.09-31.238,73.378-31.238,35.7,0,62.713,19.524,79.09,35.9,22.911,22.881,34.533,48.9,34.533,77.347,0,26.586-11.428,52.046-33.965,75.672C383.19,312.738,356.392,325.294,327.157,325.294Zm0-225.076c-25.986,0-49.732,10.116-72.6,30.935C236.377,147.671,214.7,175.159,214.7,212.3c0,61.662,50.447,111.827,112.455,111.827,28.9,0,55.42-12.434,78.81-36.957,22.324-23.4,33.645-48.594,33.645-74.87,0-28.123-11.5-53.869-34.184-76.525C389.2,119.556,362.455,100.218,327.157,100.218Z" transform="translate(11.721 10.857)" fill="url(#a)"/><path d="M328.46,336.172a122.661,122.661,0,0,1-86.921-35.626,120.755,120.755,0,0,1-36.006-86.381c0-29.834,14.949-58.136,45.7-86.514,20.193-18.7,43.525-36.011,77.222-36.011,28.648,0,56.051,13.316,83.776,40.706,26.708,26.331,39.147,52.329,39.147,81.818,0,33.874-19.749,59.221-39.067,79.548C384.412,323.077,358.551,336.172,328.46,336.172Zm0-243.368c-33.3,0-56.413,17.159-76.434,35.7-30.5,28.148-45.328,56.168-45.328,85.66a119.6,119.6,0,0,0,35.661,85.555,121.5,121.5,0,0,0,86.1,35.289c29.746,0,55.346-12.983,83.018-42.1,19.161-20.16,38.748-45.282,38.748-78.747,0-29.158-12.325-54.893-38.8-80.991-27.5-27.164-54.64-40.371-82.966-40.371Z" transform="translate(10.419 9.651)" fill="url(#a)"/><path d="M329.762,347.052a132.1,132.1,0,0,1-93.5-38.218,129.566,129.566,0,0,1-38.731-92.811c0-38.021,25.862-67.345,51.16-91.018,23.747-22.313,46.24-40.781,81.067-40.781,36.928,0,65.441,23,88.465,45.508,22.73,22.167,43.765,47.963,43.765,86.291,0,34.028-20,57.913-44.171,83.423C396.007,322.481,369.414,347.052,329.762,347.052Zm0-261.66c-34.4,0-56.707,18.327-80.272,40.463-25.115,23.5-50.795,52.6-50.795,90.17a128.411,128.411,0,0,0,38.386,91.984,130.945,130.945,0,0,0,92.681,37.877c39.191,0,65.567-24.383,87.215-47.238,23.992-25.325,43.852-49.023,43.852-82.623,0-37.9-20.866-63.47-43.415-85.46-22.854-22.336-51.141-45.173-87.652-45.173Z" transform="translate(9.117 8.444)" fill="url(#a)"/><path d="M331.064,357.93a141.53,141.53,0,0,1-100.078-40.8,138.384,138.384,0,0,1-41.458-99.241c0-41.886,32.727-72.888,56.625-95.523l1.713-1.628c24.766-23.569,46.147-43.923,83.2-43.923,38.021,0,66.864,24.854,93.152,50.311,25.5,24.633,48.383,50.113,48.383,90.764,0,35.407-23.013,59.638-45.267,83.072q-2.006,2.112-4.006,4.225C395.1,335.071,370.385,357.93,331.064,357.93Zm0-279.954c-36.587,0-57.816,20.206-82.4,43.6l-1.714,1.628c-29.649,28.084-56.261,56.458-56.261,94.679A137.234,137.234,0,0,0,231.8,316.3a140.376,140.376,0,0,0,99.262,40.463c38.856,0,63.386-22.7,91.417-52.378q2-2.117,4.008-4.228c22.092-23.268,44.947-47.323,44.947-82.272,0-40.2-22.718-65.475-48.029-89.928-26.117-25.286-54.761-49.979-92.343-49.979Z" transform="translate(7.814 7.238)" fill="url(#a)"/><path d="M332.366,368.808a150.963,150.963,0,0,1-106.658-43.387A147.2,147.2,0,0,1,181.525,219.75c0-40.77,30.968-70.325,58.29-96.4l3.8-3.625q3.584-3.445,7.045-6.836C274.591,89.553,295.263,69.4,332.366,69.4c40.455,0,70.694,29.044,97.373,54.668l.465.448c31.034,29.741,53,53.982,53,95.235,0,35.041-22.879,58.62-45,81.421-3.091,3.185-6.286,6.476-9.373,9.753l-2.706,2.874C399.521,342.087,374.392,368.808,332.366,368.808Zm0-298.245c-36.626,0-57.146,20-80.9,43.158q-3.474,3.385-7.053,6.843l-3.8,3.627c-27.153,25.916-57.929,55.289-57.929,95.561a146.056,146.056,0,0,0,43.835,104.843,149.818,149.818,0,0,0,105.843,43.052c41.521,0,66.484-26.543,92.913-54.648l2.706-2.875c3.094-3.282,6.292-6.578,9.384-9.767,22.974-23.678,44.675-46.044,44.675-80.612,0-40.793-21.82-64.856-52.645-94.4l-.465-.448c-26.521-25.465-56.58-54.336-96.568-54.336Z" transform="translate(6.512 6.032)" fill="url(#a)"/><path d="M333.669,379.686a160.407,160.407,0,0,1-113.238-45.974,156.02,156.02,0,0,1-46.91-112.1c0-40.455,30.955-69.794,58.266-95.678,3.139-2.977,6.25-5.924,9.281-8.854,3.831-3.721,7.538-7.441,11.121-11.046,23.494-23.634,43.783-44.043,81.479-44.043,40.137,0,70.228,28.906,96.778,54.41q2.892,2.778,5.75,5.509l1.177,1.119c30.285,28.812,56.443,53.7,56.443,98.588,0,35.272-22.241,57.519-45.787,81.071-4.535,4.54-9.233,9.236-13.692,13.978q-3.776,4.015-7.48,8.031C400.644,352.974,375.884,379.686,333.669,379.686Zm0-316.537c-37.207,0-57.343,20.251-80.655,43.7-3.587,3.6-7.3,7.341-11.138,11.067-3.034,2.934-6.145,5.882-9.289,8.862-27.141,25.723-57.9,54.881-57.9,94.834a154.869,154.869,0,0,0,46.562,111.273,159.245,159.245,0,0,0,112.422,45.64c41.707,0,66.3-26.532,92.336-54.622q3.715-4.008,7.486-8.037c4.471-4.756,9.172-9.456,13.72-14,23.371-23.371,45.446-45.462,45.446-80.249,0-44.394-25.99-69.118-56.083-97.745l-1.177-1.12q-2.862-2.728-5.752-5.512c-26.395-25.352-56.307-54.086-95.977-54.086Z" transform="translate(5.209 4.826)" fill="url(#a)"/><path d="M334.971,390.566c-45.374,0-87.926-17.247-119.819-48.561a164.844,164.844,0,0,1-49.635-118.53c0-40.659,30.095-68.769,59.2-95.953,4.817-4.5,9.367-8.749,13.812-13.085,5.057-4.944,9.831-9.911,14.449-14.715,23.285-24.226,43.394-45.149,82-45.149,40.346,0,69.246,28.007,97.2,55.091,3.294,3.191,6.7,6.489,10.017,9.631q2.707,2.559,5.383,5.074c30.508,28.691,56.857,53.47,56.857,99.106,0,35.846-22.9,58.02-47.141,81.492-5.814,5.631-11.828,11.453-17.441,17.432-3.851,4.1-7.657,8.295-11.338,12.348C402.437,363.451,377.811,390.566,334.971,390.566Zm0-334.83c-38.106,0-58.056,20.757-81.158,44.792-4.623,4.81-9.4,9.784-14.474,14.742-4.454,4.345-9.009,8.6-13.836,13.1-28.922,27.016-58.834,54.95-58.834,95.1a163.677,163.677,0,0,0,49.288,117.7c31.673,31.1,73.935,48.229,119,48.229,42.323,0,66.783-26.929,92.669-55.44,3.684-4.056,7.494-8.255,11.351-12.361,5.63-6,11.653-11.831,17.478-17.471,24.061-23.3,46.788-45.3,46.788-80.657,0-45.133-26.178-69.753-56.487-98.259q-2.674-2.517-5.387-5.075c-3.322-3.146-6.73-6.448-10.025-9.641-27.773-26.923-56.506-54.763-96.376-54.763Z" transform="translate(3.907 3.619)" fill="url(#a)"/><path d="M336.273,401.444c-47.876,0-92.765-18.164-126.4-51.148a173.652,173.652,0,0,1-52.362-124.96c0-41.178,30.855-69.487,60.694-96.863,6.24-5.725,12.134-11.133,17.776-16.679,6.144-6.046,11.81-12.148,17.291-18.045,23.23-25,43.292-46.589,83-46.589,40.86,0,70.042,28.633,98.264,56.323,4.481,4.4,9.116,8.945,13.64,13.2q4.55,4.278,9.029,8.408c31.031,28.751,57.83,53.581,57.83,100.242,0,36.634-23.725,58.869-48.844,82.408-6.988,6.548-14.214,13.32-20.84,20.392-5.009,5.349-9.883,10.841-14.6,16.155C404.659,373.683,380.017,401.444,336.273,401.444Zm0-353.119c-39.2,0-59.1,21.419-82.146,46.218-5.488,5.907-11.162,12.014-17.325,18.083-5.655,5.56-11.557,10.975-17.806,16.707-29.649,27.208-60.317,55.339-60.317,96.006a172.507,172.507,0,0,0,52.012,124.13c33.416,32.769,78.019,50.811,125.585,50.811,43.222,0,67.694-27.572,93.6-56.763,4.721-5.319,9.6-10.819,14.622-16.178,6.651-7.1,13.892-13.884,20.893-20.445,24.932-23.361,48.482-45.428,48.482-81.558,0-46.153-26.626-70.824-57.452-99.39q-4.474-4.142-9.037-8.413c-4.535-4.267-9.17-8.818-13.656-13.22-28.059-27.526-57.069-55.991-97.454-55.991Z" transform="translate(2.605 2.413)" fill="url(#a)"/><path d="M337.576,412.323c-50.377,0-97.6-19.084-132.978-53.735A182.477,182.477,0,0,1,149.511,227.2c0-41.907,31.8-70.527,62.554-98.2,7.551-6.8,14.684-13.216,21.377-19.843,7.138-7.073,13.575-14.232,19.8-21.155,23.281-25.89,43.388-48.253,84.332-48.253,41.589,0,71.164,29.44,99.762,57.912,5.776,5.75,11.233,11.181,16.827,16.419,4.139,3.872,8.293,7.659,12.31,11.319,31.75,28.942,59.166,53.927,59.166,101.8,0,37.564-24.662,59.953-50.771,83.657-8.1,7.35-16.466,14.949-24.015,23.022-6.046,6.469-11.853,13.162-17.464,19.635C407.169,383.754,382.4,412.323,337.576,412.323Zm0-371.414c-40.426,0-60.372,22.181-83.467,47.865-6.237,6.934-12.685,14.106-19.846,21.2-6.712,6.647-13.855,13.075-21.417,19.883-30.566,27.508-62.171,55.951-62.171,97.341a181.319,181.319,0,0,0,54.737,130.559c35.156,34.439,82.088,53.4,132.164,53.4,44.3,0,68.894-28.37,94.935-58.414,5.618-6.481,11.427-13.183,17.494-19.667,7.581-8.1,15.969-15.72,24.081-23.085,25.915-23.528,50.39-45.749,50.39-82.8,0-47.362-27.241-72.192-58.784-100.942-4.02-3.665-8.176-7.453-12.325-11.331-5.607-5.251-11.324-10.941-16.851-16.444-28.429-28.3-57.832-57.572-98.941-57.572Z" transform="translate(1.302 1.206)" fill="url(#a)"/><path d="M338.878,423.2c-52.879,0-102.443-20-139.558-56.323A191.29,191.29,0,0,1,141.507,229.06c0-42.78,32.874-71.793,64.664-99.852,8.788-7.755,17.092-15.081,24.732-22.7,8.065-8.039,15.185-16.21,22.071-24.111,23.409-26.859,43.627-50.063,85.9-50.063,42.463,0,72.514,30.37,101.578,59.742,6.753,6.825,13.132,13.271,19.7,19.393,5.158,4.8,10.334,9.442,15.339,13.928,32.6,29.212,60.752,54.441,60.752,103.665,0,38.6-25.674,61.206-52.855,85.145-9.159,8.065-18.628,16.4-27.034,25.405-7.011,7.505-13.633,15.325-20.036,22.886C409.887,393.716,384.916,423.2,338.878,423.2Zm0-389.707c-41.749,0-61.8,23.015-85.028,49.665-6.893,7.917-14.033,16.108-22.124,24.171-7.674,7.645-15.983,14.983-24.783,22.75-31.6,27.888-64.271,56.725-64.271,98.98a190.139,190.139,0,0,0,57.464,136.989c36.894,36.108,86.167,55.991,138.742,55.991,45.5,0,70.3-29.288,96.558-60.294,6.412-7.572,13.042-15.4,20.073-22.929,8.445-9.041,17.937-17.4,27.116-25.485,26.975-23.76,52.461-46.2,52.461-84.272,0-48.7-27.974-73.772-60.365-102.8-5.009-4.488-10.189-9.13-15.355-13.943-6.588-6.137-13.272-12.892-19.737-19.426-28.9-29.2-58.773-59.4-100.751-59.4Z" transform="translate(0)" fill="url(#a)"/></g><g transform="translate(12157.1 14580)" clip-path="url(#l)"><rect width="361" height="319" rx="20" transform="translate(-11030.1 -11598)" fill="#f8fcfe"/><g transform="translate(-11017.251 -11522.864)"><g transform="translate(0 0)"><g transform="translate(0 148.94)"><g transform="translate(0 0)"><path d="M84.236,379.226c10.821-8.854,12.222-23.745,10.689-36.9-.256-2.2-.2-4.539-1.42-6.383s-3.8-2.962-5.726-1.869c-1.594.906-2.161,2.868-2.959,4.519a13.041,13.041,0,0,1-4.829,5.365c-1.362.845-3.083,1.434-4.548.787-2.011-.89-2.452-3.5-2.617-5.688L71.9,326.8a20.224,20.224,0,0,0-1.2-6.451,6.844,6.844,0,0,0-4.7-4.237c-2.162-.41-4.672,1.008-4.942,3.188a20.494,20.494,0,0,0,.16,2.732,2.319,2.319,0,0,1-1.189,2.282,2.715,2.715,0,0,1-2.52-.8,29.182,29.182,0,0,1-5.943-7.457,40.509,40.509,0,0,0-5.6-7.738,12.069,12.069,0,0,0-8.5-3.831c-3.192.085-6.421,2.3-6.972,5.445s1.529,6.137,3.72,8.473a49.378,49.378,0,0,0,11.105,8.853,4.069,4.069,0,0,1,1.876,1.688c.6,1.42-.683,2.987-2.1,3.587-1.61.68-3.418.659-5.132,1s-3.527,1.251-4.05,2.919c-.725,2.315,1.364,4.5,3.356,5.888A42.7,42.7,0,0,0,52.4,348.459a14.465,14.465,0,0,1,4.85,1.854c1.41,1.023,2.365,2.927,1.7,4.535s-2.671,2.272-4.407,2.1a29.625,29.625,0,0,1-5.02-1.435c-3.143-.884-7.064-.35-8.805,2.41a6.878,6.878,0,0,0-.246,6.191,15.977,15.977,0,0,0,3.806,5.136,42.793,42.793,0,0,0,19.255,11.137c7.273,1.839,13.882,1.952,20.7-1.165" transform="translate(-30.396 -304.483)" fill="#ebebeb"/></g><g transform="translate(3.049 2.182)"><g transform="translate(0 0)"><path d="M86.034,389.609a95.539,95.539,0,0,0-5.109-17.746A195.848,195.848,0,0,0,71.3,351.387l-2.8-5.239c-.923-1.718-1.838-3.42-2.837-5.03a98.131,98.131,0,0,0-6.281-8.93c-2.137-2.745-4.268-5.273-6.277-7.623s-3.934-4.5-5.769-6.386a78.877,78.877,0,0,0-9.317-8.264c-1.173-.888-2.105-1.548-2.743-1.987l-.727-.5c-.165-.11-.255-.159-.255-.159s.077.067.235.187l.709.521c.624.457,1.544,1.133,2.7,2.036a82.419,82.419,0,0,1,9.226,8.324c1.819,1.893,3.725,4.05,5.728,6.4s4.118,4.887,6.244,7.632a98.671,98.671,0,0,1,6.245,8.911c.993,1.6,1.9,3.295,2.825,5.018s1.854,3.469,2.8,5.238a199.506,199.506,0,0,1,9.629,20.429A96.867,96.867,0,0,1,85.8,389.648" transform="translate(-34.293 -307.274)" fill="#e0e0e0"/></g></g><g transform="translate(34.308 11.632)"><g transform="translate(0 0)"><path d="M74.283,343.722a5.359,5.359,0,0,0,.126-.954c.062-.615.125-1.508.189-2.61.128-2.207.206-5.26.282-8.628s.207-6.414.383-8.612c.085-1.1.164-1.99.228-2.6a5.254,5.254,0,0,0,.06-.959,5.465,5.465,0,0,0-.189.943c-.1.61-.219,1.5-.333,2.6-.238,2.2-.4,5.255-.482,8.625-.072,3.338-.136,6.358-.185,8.625-.033,1.056-.062,1.935-.083,2.614a5.378,5.378,0,0,0,0,.96Z" transform="translate(-74.26 -319.357)" fill="#e0e0e0"/></g></g><g transform="translate(5.369 32.909)"><g transform="translate(0 0)"><path d="M37.259,346.739a1.051,1.051,0,0,0,.3.023c.234,0,.514,0,.851,0,.738,0,1.805-.005,3.124.034,2.636.055,6.277.264,10.28.672s7.611.951,10.209,1.412c1.3.223,2.347.432,3.071.574l.836.16a1.025,1.025,0,0,0,.3.034,1,1,0,0,0-.282-.1l-.822-.22c-.716-.181-1.759-.426-3.056-.68-2.591-.523-6.205-1.094-10.217-1.51a102.245,102.245,0,0,0-10.309-.577c-1.322-.008-2.392.031-3.13.072l-.851.06A.989.989,0,0,0,37.259,346.739Z" transform="translate(-37.259 -346.562)" fill="#e0e0e0"/></g></g><g transform="translate(49.32 29.114)"><g transform="translate(0 0)"><path d="M93.46,378.862a1.775,1.775,0,0,0,.16-.362c.1-.276.236-.628.4-1.061.342-.923.806-2.27,1.358-3.941,1.106-3.341,2.492-8,3.953-13.166s2.813-9.831,3.86-13.187l1.257-3.969c.139-.442.25-.8.339-1.081a1.747,1.747,0,0,0,.1-.385,1.8,1.8,0,0,0-.16.363c-.1.275-.235.627-.4,1.06-.342.923-.806,2.27-1.357,3.941-1.106,3.341-2.492,8-3.956,13.168s-2.812,9.829-3.859,13.186L93.895,377.4c-.139.442-.25.8-.339,1.081a1.794,1.794,0,0,0-.1.385Z" transform="translate(-93.46 -341.709)" fill="#e0e0e0"/></g></g><g transform="translate(10.418 57.332)"><g transform="translate(0 0)"><path d="M43.716,377.8a2,2,0,0,0,.39.115l1.132.265,4.17.951c3.519.808,8.366,1.983,13.718,3.3s10.213,2.452,13.749,3.2c1.768.375,3.2.666,4.193.851l1.146.206a1.912,1.912,0,0,0,.4.05,1.809,1.809,0,0,0-.39-.115l-1.132-.266-4.169-.951c-3.519-.808-8.366-1.985-13.721-3.3s-10.212-2.452-13.746-3.2c-1.768-.376-3.2-.666-4.194-.851l-1.145-.206a1.809,1.809,0,0,0-.4-.049Z" transform="translate(-43.716 -377.795)" fill="#e0e0e0"/></g></g></g><g transform="translate(99.791 0)"><g transform="translate(0)"><rect width="59.047" height="39.799" transform="translate(0.253 17.216) rotate(-16.745)" fill="#fff"/><path d="M226.258,152.351s-.085-.24-.228-.7-.354-1.138-.625-2.014c-.543-1.774-1.337-4.358-2.349-7.663-2.013-6.62-4.9-16.12-8.42-27.692l.2.11-56.524,17.049h0l.136-.253,11.45,38.116-.232-.124L210.4,157.023l11.66-3.456,3.11-.912.806-.232c.183-.05.282-.074.282-.074s-.082.032-.255.089l-.781.246-3.061.945-11.59,3.539-40.8,12.372-.178.054-.054-.178c-3.5-11.61-7.389-24.524-11.483-38.107l-.059-.195.2-.059h0l56.55-16.971.157-.05.047.157c3.463,11.633,6.306,21.183,8.286,27.838.974,3.3,1.736,5.882,2.259,7.652l.581,2C226.2,152.126,226.258,152.351,226.258,152.351Z" transform="translate(-157.997 -114.034)" fill="#e0e0e0"/></g><g transform="translate(0.255 0.206)"><path d="M214.864,114.3a.634.634,0,0,1-.078.172l-.265.485-1.051,1.848c-.947,1.626-2.289,3.933-3.945,6.779-3.386,5.742-8.051,13.654-13.251,22.473l-.088.15-.161-.063-1.731-.67-25.467-9.934-7.7-3.053-2.086-.851-.539-.231a.729.729,0,0,1-.178-.092.734.734,0,0,1,.193.05l.553.193,2.114.778,7.747,2.934,25.51,9.823,1.73.671-.25.086,13.362-22.408,4.054-6.715,1.117-1.81.3-.464a.714.714,0,0,1,.111-.153Z" transform="translate(-158.323 -114.3)" fill="#e0e0e0"/></g></g><g transform="translate(258.477 151.715)"><path d="M423.52,308.748s-3.664-3.63-10.818,5.437a133.686,133.686,0,0,0-10.262,14.5s-1.781,1.844-2.958.172-2.385-5.989-4.995-5.775c-2.707.222-4.119,2.912-4.468,7.206s-1.458,13.682-1.561,14.53-.813,1.948-1.8.938-6.089-9.623-10.031-6.956-2.946,14.8-2.863,16.124-.271,1.818-.932,2.011-2.1-2.865-3.657-5.255-3.77-4.89-5.916-3.161-4.415,10.229.992,25.847l2.979,7.073,7.632,1.089c16.474,1.327,24.135-3,25.272-5.5s-1.838-4.033-4.54-4.938-6.023-1.537-6-2.225.407-1.154,1.712-1.405,13.3-2.323,14.9-6.806-8.022-7.271-9.246-7.971-.323-1.667.458-1.974,9.6-3.735,13.677-5.148,6.323-3.453,5.861-6.129c-.446-2.581-4.928-2.67-6.841-3.391s-.573-2.907-.573-2.907a133.761,133.761,0,0,0,11.47-13.565c6.989-9.2,2.432-11.878,2.432-11.878" transform="translate(-360.907 -308.031)" fill="#ebebeb"/><g transform="translate(0.746 8.827)"><path d="M417.306,319.318a1,1,0,0,1-.125.2l-.4.557c-.375.508-.9,1.219-1.566,2.122-1.365,1.839-3.362,4.481-5.846,7.736-4.964,6.508-11.908,15.435-19.625,25.257-7.7,9.828-14.663,18.723-19.722,25.189l-5.948,7.657-1.626,2.075c-.178.22-.32.395-.431.533a.985.985,0,0,1-.158.173,1.038,1.038,0,0,1,.124-.2l.4-.557c.375-.507.9-1.218,1.566-2.121,1.365-1.839,3.362-4.481,5.846-7.735,4.965-6.51,11.91-15.437,19.63-25.264l19.717-25.184,5.948-7.657c.692-.883,1.237-1.578,1.627-2.075l.431-.533A1.019,1.019,0,0,1,417.306,319.318Z" transform="translate(-361.859 -319.318)" fill="#e0e0e0"/></g><g transform="translate(34.98 21.16)"><path d="M405.674,335.087a9.65,9.65,0,0,1,.289,2.048c.117,1.271.221,3.031.291,4.975.05,1.87.1,3.561.135,4.975a12.906,12.906,0,0,1,0,2.065,8.708,8.708,0,0,1-.286-2.052c-.1-1.273-.185-3.033-.254-4.975-.065-1.868-.123-3.558-.171-4.971A11.253,11.253,0,0,1,405.674,335.087Z" transform="translate(-405.628 -335.087)" fill="#e0e0e0"/></g><g transform="translate(36.403 34.114)"><path d="M407.454,353.032c-.009-.112,3.606-.5,8.075-.877s8.1-.584,8.107-.472a161.691,161.691,0,0,1-16.182,1.35Z" transform="translate(-407.454 -351.652)" fill="#e0e0e0"/></g><g transform="translate(23.427 50.579)"><path d="M390.861,372.713a11.864,11.864,0,0,1,2.083.333c1.277.242,3.038.578,4.994.89s3.734.55,5.023.717a12.033,12.033,0,0,1,2.082.335,9.879,9.879,0,0,1-2.111-.05c-1.3-.095-3.093-.284-5.057-.6s-3.727-.7-4.992-1.011A9.937,9.937,0,0,1,390.861,372.713Z" transform="translate(-390.861 -372.713)" fill="#e0e0e0"/></g><g transform="translate(19.326 37.886)"><path d="M385.624,356.475a9.246,9.246,0,0,1,.759,1.8c.419,1.127.971,2.693,1.557,4.431s1.1,3.32,1.444,4.47a9.292,9.292,0,0,1,.485,1.89,9.284,9.284,0,0,1-.759-1.8c-.418-1.127-.971-2.693-1.557-4.432s-1.1-3.319-1.444-4.47a9.268,9.268,0,0,1-.485-1.89Z" transform="translate(-385.624 -356.475)" fill="#e0e0e0"/></g><g transform="translate(6.178 49.746)"><path d="M368.811,371.641a15.182,15.182,0,0,1,.956,2.309c.541,1.443,1.262,3.446,2.034,5.666s1.451,4.239,1.922,5.705a15.171,15.171,0,0,1,.683,2.4,15.239,15.239,0,0,1-.955-2.308c-.541-1.443-1.262-3.446-2.035-5.667s-1.451-4.238-1.922-5.7A15.15,15.15,0,0,1,368.811,371.641Z" transform="translate(-368.811 -371.641)" fill="#e0e0e0"/></g><g transform="translate(11.748 65.408)"><path d="M375.928,391.675a19.151,19.151,0,0,1,2.652.35c1.63.25,3.88.6,6.373.932s4.754.583,6.4.761a19.207,19.207,0,0,1,2.652.353,15.863,15.863,0,0,1-2.675-.067c-1.651-.1-3.924-.311-6.425-.645s-4.749-.727-6.369-1.051A15.88,15.88,0,0,1,375.928,391.675Z" transform="translate(-375.928 -391.675)" fill="#e0e0e0"/></g></g><g transform="translate(276.407 75.499)"><rect width="60.677" height="44.341" transform="translate(8.333 60.677) rotate(-88.224)" fill="#f5f5f5"/><g transform="translate(0 7.872)"><g transform="translate(0 0)"><rect width="60.677" height="44.341" transform="translate(0.169 60.862) rotate(-88.224)" fill="#fff"/><path d="M428.323,282.854s0-.1,0-.3.009-.489.015-.858c.019-.765.046-1.875.079-3.313.078-2.9.189-7.12.332-12.458.3-10.673.734-25.812,1.244-43.727l.178.19-44.316-1.334h0l.21-.2c-.706,22.654-1.359,43.627-1.89,60.648l-.16-.171L416.2,282.4l8.953.316,2.358.091c.535.023.82.044.82.044s-.261,0-.785-.007l-2.328-.05-8.918-.23c-7.746-.215-18.841-.524-32.294-.9l-.167,0,.005-.167c.509-17.022,1.137-38,1.815-60.65l.005-.2.2.006h0l44.315,1.373.185.006-.007.185c-.586,17.962-1.081,33.14-1.43,43.842-.184,5.32-.329,9.523-.428,12.413-.053,1.423-.094,2.519-.122,3.275-.016.36-.028.637-.037.837S428.323,282.854,428.323,282.854Z" transform="translate(-383.834 -220.638)" fill="#e0e0e0"/></g><g transform="translate(7.495 13.535)"><path d="M414.953,238.663c0,.113-4.828.057-10.775-.125s-10.766-.42-10.762-.532,4.827-.056,10.775.125S414.956,238.55,414.953,238.663Z" transform="translate(-393.416 -237.947)" fill="#e0e0e0"/></g><g transform="translate(7.333 18.826)"><path d="M426.4,245.764c0,.113-7.436-.023-16.6-.3s-16.591-.6-16.588-.71,7.434.023,16.6.3S426.4,245.652,426.4,245.764Z" transform="translate(-393.209 -244.714)" fill="#e0e0e0"/></g><g transform="translate(7.165 24.322)"><path d="M426.181,252.793c0,.112-7.436-.024-16.6-.3s-16.591-.6-16.588-.71,7.434.023,16.6.3S426.185,252.68,426.181,252.793Z" transform="translate(-392.995 -251.74)" fill="#e0e0e0"/></g><g transform="translate(6.998 29.82)"><path d="M425.967,259.823c0,.113-7.436-.024-16.6-.3s-16.591-.6-16.588-.71,7.434.024,16.6.3S425.969,259.71,425.967,259.823Z" transform="translate(-392.78 -258.77)" fill="#e0e0e0"/></g><g transform="translate(6.83 35.315)"><path d="M425.752,266.849c0,.113-7.435-.024-16.6-.3s-16.591-.6-16.588-.71,7.434.024,16.6.3S425.755,266.738,425.752,266.849Z" transform="translate(-392.566 -265.796)" fill="#e0e0e0"/></g><g transform="translate(6.662 40.815)"><path d="M425.537,273.883c0,.113-7.436-.024-16.6-.3s-16.591-.6-16.588-.71,7.434.024,16.6.3S425.541,273.77,425.537,273.883Z" transform="translate(-392.351 -272.83)" fill="#e0e0e0"/></g><g transform="translate(6.494 46.316)"><path d="M425.323,280.916c0,.113-7.436-.024-16.6-.3s-16.591-.6-16.588-.711,7.434.024,16.6.3S425.326,280.8,425.323,280.916Z" transform="translate(-392.136 -279.866)" fill="#e0e0e0"/></g><g transform="translate(6.326 51.784)"><path d="M409.758,287.468c0,.113-4,.082-8.925-.069s-8.916-.364-8.913-.475,4-.082,8.926.069S409.762,287.355,409.758,287.468Z" transform="translate(-391.92 -286.856)" fill="#e0e0e0"/></g></g></g><g transform="translate(177.111 43.189)"><g transform="translate(0 0)"><rect width="37.489" height="46.892" transform="translate(0.101 34.914) rotate(-68.29)" fill="#fff"/><path d="M314.4,186.7s-.073-.027-.21-.08l-.611-.239-2.365-.932-8.921-3.532-31.486-12.5.092-.04-13.858,34.831v0l-.044-.1,43.56,17.358-.085.037c4.192-10.491,7.667-19.187,10.095-25.263,1.218-3.039,2.173-5.422,2.825-7.049l.747-1.856c.17-.422.262-.638.262-.638s-.08.213-.243.631l-.728,1.852-2.788,7.048-10.047,25.326-.024.061-.061-.024-43.571-17.333-.074-.029.029-.074v0l13.874-34.823.027-.066.066.027,31.5,12.58,8.892,3.561,2.346.943.6.243C314.337,186.675,314.4,186.7,314.4,186.7Z" transform="translate(-256.864 -169.266)" fill="#e0e0e0"/></g><rect width="32.769" height="43.598" transform="matrix(0.37, -0.929, 0.929, 0.37, 2.449, 33.349)" fill="#ebebeb"/><path d="M260.2,208.319l21.682-13.291,4.05,15.329,8.464-3.963,6.31,18.052Z" transform="translate(-257.59 -174.876)" fill="#e0e0e0"/><g transform="translate(31.076 18.101)"><g transform="translate(0 0)"><path d="M303.222,197.106a3.433,3.433,0,1,1-1.919-4.457A3.433,3.433,0,0,1,303.222,197.106Z" transform="translate(-296.598 -192.405)" fill="#e0e0e0"/></g></g></g><g transform="translate(54.379 68.687)"><g transform="translate(0 0)"><path d="M123.016,232.359a1.931,1.931,0,0,0,.928.153,1.671,1.671,0,0,0,1-.5,9.7,9.7,0,0,0,.826-1.348l5.072-8.848,1.687-2.929.9-1.558a5.124,5.124,0,0,0,.413-.786,1.5,1.5,0,0,0,.024-.834,1.405,1.405,0,0,0-.45-.709,7.568,7.568,0,0,0-.807-.48l-1.74-.973-3.631-2.033-16.157-9.067a1.464,1.464,0,0,0-1.9.475L107.964,205l-2.379,4.086c-1.561,2.676-3.066,5.259-4.5,7.72l-.535.917a1.542,1.542,0,0,0-.25.893,1.4,1.4,0,0,0,.317.837,2.481,2.481,0,0,0,.774.543l3.416,1.933,6.129,3.475c3.723,2.125,6.743,3.849,8.858,5.054l2.4,1.393.619.371a.124.124,0,1,1-.02.039l-.639-.335-2.436-1.326-8.923-4.944-6.152-3.431L101.21,220.3a2.792,2.792,0,0,1-.878-.624,1.769,1.769,0,0,1-.405-1.056,1.915,1.915,0,0,1,.3-1.095l.532-.918,4.481-7.732,2.374-4.088,1.228-2.1a1.872,1.872,0,0,1,2.435-.6l16.14,9.1,3.623,2.047,1.736.981a7.44,7.44,0,0,1,.858.522,1.74,1.74,0,0,1,.555.886,1.831,1.831,0,0,1-.035,1.022,5.2,5.2,0,0,1-.446.847l-.909,1.551-1.71,2.916c-2.178,3.692-3.944,6.687-5.184,8.786a9.1,9.1,0,0,1-.877,1.354,1.745,1.745,0,0,1-1.076.495,1.587,1.587,0,0,1-.72-.114A.845.845,0,0,1,123.016,232.359Z" transform="translate(-99.926 -201.865)" fill="#e0e0e0"/></g><path d="M122.449,219.381l1.971,3.5-4.067.074-4.067.075,2.1-3.575,2.1-3.574Z" transform="translate(-103.493 -204.919)" fill="#e0e0e0"/></g></g><g transform="translate(4.438 232.041)"><g transform="translate(0 0)"><path d="M370.188,410.959c0,.119-74.8.216-167.05.216-92.281,0-167.067-.1-167.067-.216s74.785-.217,167.067-.217C295.387,410.742,370.188,410.839,370.188,410.959Z" transform="translate(-36.07 -410.742)" fill="#263238"/></g></g><g transform="translate(39.124 37.825)"><g transform="translate(0 0)"><g transform="translate(0 84.663)"><path d="M135.232,330.745l-23.615-23.716,11.873-21.807c11.873-15.2,37-14.218,37-14.218a144.052,144.052,0,0,1,37.065,2.238c19.962,3.884,18.355,17.1,18.355,17.1l2.675,48.935,2.866,39.845L147.826,380.6l-12.6-49.855" transform="translate(-87.221 -270.661)" fill="#771efc"/><path d="M168.1,385.421l-65.947.808a21.438,21.438,0,0,1-19.64-30.606l28.2-52.3,25.684,17.362-17.52,36.361,53.388.951Z" transform="translate(-80.422 -277.776)" fill="#771efc"/><path d="M241.965,285.659l52.922,81.707-30.877,2.019s-18.438-29.056-18.021-28.455C246.746,342.018,241.965,285.659,241.965,285.659Z" transform="translate(-115.63 -273.927)" fill="#771efc"/><path d="M139.137,351.976" transform="translate(-93.219 -288.38)" fill="#e8505b"/><g transform="translate(45.936 10.061)"><path d="M147.87,321.073a1.626,1.626,0,0,1,.074-.42c.074-.315.167-.707.281-1.184.244-1.027.6-2.514.973-4.363s.765-4.062,1.035-6.537a34.52,34.52,0,0,0,.028-8.057,21.236,21.236,0,0,0-2.732-7.522A30.348,30.348,0,0,0,143.6,287.7a37.2,37.2,0,0,0-3.2-3.1,16.336,16.336,0,0,1-1.237-1.079,1.663,1.663,0,0,1,.36.228c.224.165.569.392.977.729a31.044,31.044,0,0,1,3.314,3.024,29.176,29.176,0,0,1,4.042,5.3,21.179,21.179,0,0,1,2.811,7.654,33.732,33.732,0,0,1-.059,8.157,66.11,66.11,0,0,1-1.127,6.556c-.41,1.847-.809,3.327-1.1,4.343-.146.508-.267.9-.355,1.166A1.7,1.7,0,0,1,147.87,321.073Z" transform="translate(-139.161 -283.524)" fill="#263238"/></g><g transform="translate(38.361 50.428)"><path d="M143.638,335.139a7.606,7.606,0,0,1-.454,1.183c-.316.751-.79,1.829-1.387,3.153-1.194,2.652-2.9,6.3-4.851,10.284s-3.8,7.563-5.167,10.131c-.684,1.285-1.248,2.319-1.647,3.028a7.48,7.48,0,0,1-.657,1.081,7.5,7.5,0,0,1,.516-1.155l1.532-3.087c1.324-2.666,3.1-6.234,5.054-10.178,1.921-3.962,3.658-7.547,4.954-10.226.611-1.26,1.117-2.3,1.5-3.1a7.445,7.445,0,0,1,.6-1.114Z" transform="translate(-129.474 -335.139)" fill="#263238"/></g><g transform="translate(23.393 78.931)"><path d="M174.614,400.3a.5.5,0,0,1,0-.138c.01-.109.02-.239.033-.4.039-.379.09-.9.157-1.559.15-1.389.371-3.372.646-5.867.584-5.054,1.406-12.177,2.375-20.568l.185.208-19.48.017-34.08-.06-10.329-.065-2.807-.039-.731-.02a.126.126,0,1,1,0-.042l.731-.021,2.807-.038,10.329-.065,34.08-.06,19.48.017h.211l-.026.208c-1.029,8.384-1.9,15.5-2.522,20.55-.319,2.49-.573,4.468-.751,5.855-.092.659-.163,1.174-.214,1.551l-.063.4A.478.478,0,0,1,174.614,400.3Z" transform="translate(-110.333 -371.585)" fill="#263238"/></g><g transform="translate(28.076 70.682)"><path d="M127.161,370.194a18.777,18.777,0,0,1-1.316-1.648,25.7,25.7,0,0,0-7.677-6.483,18.83,18.83,0,0,1-1.845-1.021,7.7,7.7,0,0,1,1.978.766,21.135,21.135,0,0,1,7.774,6.565,7.745,7.745,0,0,1,1.086,1.823Z" transform="translate(-116.323 -361.041)" fill="#263238"/></g><g transform="translate(128.338 17.94)"><path d="M248.645,360.666a4.3,4.3,0,0,1-.1-.676q-.082-.722-.221-1.947c-.181-1.691-.423-4.14-.684-7.17-.535-6.059-1.151-14.438-1.7-23.7s-.931-17.659-1.151-23.737c-.113-3.038-.185-5.5-.223-7.2q-.02-1.233-.032-1.958a4.255,4.255,0,0,1,.017-.684,4.322,4.322,0,0,1,.066.681q.04.725.109,1.955c.085,1.737.2,4.184.35,7.192.293,6.073.722,14.463,1.269,23.725s1.124,17.639,1.584,23.7c.232,3,.421,5.445.555,7.179q.092,1.23.145,1.952A4.211,4.211,0,0,1,248.645,360.666Z" transform="translate(-244.523 -293.597)" fill="#263238"/></g><g transform="translate(65.117 19.35)"><path d="M172.162,316.6a6.59,6.59,0,0,1,.084-1.069c.09-.745.21-1.738.357-2.958.343-2.582.813-6.119,1.358-10.213l.3.186-5.06,3.543-5.147,3.58-.371.258.068-.445c.621-4.06,1.157-7.564,1.548-10.121.2-1.2.36-2.183.482-2.92A6.635,6.635,0,0,1,166,295.4a6.434,6.434,0,0,1-.089,1.06c-.093.74-.217,1.725-.371,2.935-.355,2.564-.841,6.075-1.4,10.143l-.3-.187,5.136-3.6,5.071-3.527.368-.257-.065.442c-.6,4.086-1.122,7.616-1.5,10.192-.194,1.214-.35,2.2-.469,2.943A6.714,6.714,0,0,1,172.162,316.6Z" transform="translate(-163.686 -295.4)" fill="#e0e0e0"/></g><g transform="translate(82.781 32.641)"><path d="M206.515,323.475a6.49,6.49,0,0,1-.768-.748l-2.047-2.165c-1.766-1.915-4.185-4.536-6.986-7.572l.337-.114c-.159,1.917-.331,4-.51,6.155-.189,2.192-.37,4.3-.536,6.247l-.039.45-.3-.337-6.793-7.661c-.8-.922-1.448-1.672-1.937-2.236a6.532,6.532,0,0,1-.663-.833,6.516,6.516,0,0,1,.759.746l2.021,2.161,6.9,7.564-.337.113c.161-1.944.335-4.054.517-6.248.185-2.158.364-4.237.528-6.155l.039-.447.3.333c2.758,3.074,5.14,5.731,6.879,7.67l1.963,2.242a6.717,6.717,0,0,1,.672.836Z" transform="translate(-186.272 -312.394)" fill="#e0e0e0"/></g><g transform="translate(109.576 42.674)"><path d="M228.8,325.225a6.756,6.756,0,0,1-.532.931c-.4.637-.93,1.483-1.583,2.524l-5.578,8.662-.2-.3L227,335.993l6.183-1.047.445-.075-.25.374-5.712,8.5-1.68,2.436a6.577,6.577,0,0,1-.64.851,6.373,6.373,0,0,1,.532-.921l1.586-2.5,5.591-8.579.194.3-6.179,1.066-6.09,1.031-.443.075.247-.373,5.7-8.583,1.677-2.462a6.559,6.559,0,0,1,.64-.863Z" transform="translate(-220.535 -325.225)" fill="#e0e0e0"/></g><g transform="translate(89.876 57.827)"><path d="M203.61,344.6a6.5,6.5,0,0,1-.531.931c-.4.637-.93,1.483-1.583,2.524l-5.578,8.662-.2-.3,6.087-1.051,6.183-1.047.445-.075-.25.373-5.712,8.5-1.68,2.436a6.431,6.431,0,0,1-.641.851,6.549,6.549,0,0,1,.532-.921c.4-.63.931-1.468,1.586-2.5l5.591-8.578.194.3-6.179,1.066-6.09,1.031-.443.075.247-.373,5.7-8.581,1.677-2.462A6.752,6.752,0,0,1,203.61,344.6Z" transform="translate(-195.346 -344.6)" fill="#e0e0e0"/></g><g transform="translate(132.436 42.459)"><path d="M258.031,324.95a6.6,6.6,0,0,1-.531.931l-1.584,2.524-5.578,8.662-.195-.3,6.087-1.051,6.182-1.047.446-.075-.25.373-5.714,8.5c-.692,1-1.256,1.822-1.679,2.436a6.52,6.52,0,0,1-.641.851,6.583,6.583,0,0,1,.532-.921l1.586-2.5,5.591-8.579.195.3-6.179,1.066-6.091,1.031-.443.075.25-.373c2.285-3.44,4.259-6.412,5.7-8.582l1.674-2.466A6.591,6.591,0,0,1,258.031,324.95Z" transform="translate(-249.765 -324.95)" fill="#e0e0e0"/></g><g transform="translate(32.764 29.941)"><path d="M130.581,308.943a6.491,6.491,0,0,1-.531.931c-.4.637-.93,1.483-1.583,2.524l-5.578,8.662-.2-.3,6.087-1.051,6.183-1.047.445-.075-.25.373-5.712,8.5-1.68,2.435a6.41,6.41,0,0,1-.641.851,6.551,6.551,0,0,1,.532-.921c.4-.631.931-1.468,1.586-2.5,1.412-2.168,3.348-5.138,5.591-8.578l.194.3-6.179,1.066-6.092,1.033-.443.074.247-.372,5.7-8.582,1.677-2.462A6.686,6.686,0,0,1,130.581,308.943Z" transform="translate(-122.315 -308.943)" fill="#e0e0e0"/></g><g transform="translate(10.112 86.83)"><path d="M93.353,383.275a6.585,6.585,0,0,1,.72.795l1.907,2.289,6.5,8-.343.092c.278-1.9.581-3.968.893-6.112.325-2.176.638-4.272.926-6.2l.067-.446.277.355,6.3,8.07,1.793,2.352a6.472,6.472,0,0,1,.609.873,6.6,6.6,0,0,1-.71-.792l-1.882-2.283L104,382.281l.343-.092c-.282,1.93-.589,4.027-.907,6.205-.32,2.143-.628,4.207-.912,6.109l-.067.444-.277-.35c-2.56-3.241-4.772-6.041-6.386-8.085l-1.819-2.36a6.67,6.67,0,0,1-.618-.879Z" transform="translate(-93.353 -381.687)" fill="#e0e0e0"/></g><g transform="translate(61.237 50.537)"><path d="M178.211,335.294a6.625,6.625,0,0,1-1.063.137l-2.969.257-10.274.767.12-.335,4.5,4.226c1.6,1.51,3.141,2.965,4.56,4.3l.328.31-.45.024-10.224.56-2.956.127a6.463,6.463,0,0,1-1.064,0,6.544,6.544,0,0,1,1.056-.13l2.949-.239,10.215-.706-.121.335-4.574-4.29-4.492-4.24-.326-.308.446-.027c4.122-.25,7.684-.464,10.283-.621l2.977-.145A6.681,6.681,0,0,1,178.211,335.294Z" transform="translate(-158.722 -335.275)" fill="#e0e0e0"/></g><g transform="translate(63.397 88.172)"><path d="M161.488,385.2a6.692,6.692,0,0,1,.735.78l1.952,2.252,6.656,7.864-.341.1c.241-1.909.5-3.979.774-6.128.282-2.183.554-4.284.8-6.219l.058-.45.284.35,6.459,7.945,1.84,2.317a6.6,6.6,0,0,1,.626.861,6.488,6.488,0,0,1-.726-.778l-1.926-2.247L172.108,384l.342-.1c-.244,1.936-.509,4.038-.785,6.221-.278,2.148-.545,4.218-.792,6.126l-.057.445-.285-.346-6.543-7.957c-.77-.958-1.4-1.738-1.865-2.324a6.516,6.516,0,0,1-.635-.862Z" transform="translate(-161.488 -383.4)" fill="#e0e0e0"/></g><g transform="translate(12.937 61.046)"><path d="M116.451,348.732a6.64,6.64,0,0,1-1.063.137l-2.969.257-10.274.766.12-.335c1.4,1.316,2.925,2.744,4.5,4.226,1.6,1.51,3.141,2.965,4.56,4.3l.328.31-.45.025-10.224.56-2.956.127a6.572,6.572,0,0,1-1.064,0,6.573,6.573,0,0,1,1.056-.131l2.949-.239,10.216-.706-.121.335-4.573-4.289L102,349.839l-.327-.308.446-.028,10.284-.62,2.977-.145A6.56,6.56,0,0,1,116.451,348.732Z" transform="translate(-96.962 -348.713)" fill="#e0e0e0"/></g><g transform="translate(39.544 89.065)"><path d="M150.473,384.56a6.622,6.622,0,0,1-1.063.137l-2.969.257-10.274.766.12-.335,4.5,4.225,4.56,4.3.328.31-.45.025-10.224.56-2.956.128a6.576,6.576,0,0,1-1.064,0,6.59,6.59,0,0,1,1.056-.131l2.949-.239,10.215-.706-.121.335-4.574-4.29-4.492-4.24-.326-.308.446-.027,10.283-.621,2.977-.144A6.567,6.567,0,0,1,150.473,384.56Z" transform="translate(-130.984 -384.541)" fill="#e0e0e0"/></g><g transform="translate(99.618 17.775)"><path d="M227.288,293.4a6.538,6.538,0,0,1-1.063.137l-2.968.257-10.275.766.121-.335,4.5,4.225,4.56,4.3.328.31-.45.024-10.222.56-2.956.127a6.634,6.634,0,0,1-1.063,0,6.436,6.436,0,0,1,1.056-.131l2.949-.239,10.215-.706-.121.334-4.574-4.29-4.493-4.24-.326-.308.446-.027,10.284-.621,2.976-.144a6.643,6.643,0,0,1,1.073,0Z" transform="translate(-207.802 -293.382)" fill="#e0e0e0"/></g></g><g transform="translate(88.11 168.813)"><path d="M194.862,383.194s13.159-3.791,17.512-4.9c1.7-.433,8.965,3.4,13.985,6.589,0,0,6.914,4.1,6.356,5.362-.616,1.39-3.166,1.1-7.23-.807,0,0,1.418,4.119-1.366,4.031,0,0,1.381,4.454-1.228,4.912s-3.224-5.22-5.526-5.526-7.061-.614-7.061-.614-3.962,6.562-7.033,7.023-10.184-.369-10.184-.369Z" transform="translate(-193.087 -378.259)" fill="#ffbe9d"/><g transform="translate(24.232 5.835)"><path d="M224.072,385.727a43.848,43.848,0,0,1,7.133,4.5,43.732,43.732,0,0,1-7.133-4.5Z" transform="translate(-224.071 -385.721)" fill="#eb996e"/></g><g transform="translate(23.454 8.364)"><path d="M223.078,388.963a27.768,27.768,0,0,1,4.362,1.79,27.369,27.369,0,0,1,4.193,2.159,54.52,54.52,0,0,1-8.555-3.949Z" transform="translate(-223.077 -388.954)" fill="#eb996e"/></g><g transform="translate(24.863 14.46)"><path d="M224.879,396.8a11.01,11.01,0,0,1,2.97.2,10.886,10.886,0,0,1,2.915.606,21.653,21.653,0,0,1-5.884-.806Z" transform="translate(-224.879 -396.748)" fill="#eb996e"/></g></g><g transform="translate(61.942)"><g transform="translate(0)"><path d="M170.465,200.375a2.7,2.7,0,0,1-3.809,3.2c-1.782-.9-2.008-3.363-1.658-5.332s1.02-4.068.195-5.889c-.632-1.393-2-2.275-3.066-3.371a8.63,8.63,0,0,1-2.4-7.318,7.256,7.256,0,0,1,4.987-5.7c2.62-.732,5.848.073,7.8-1.824,1.413-1.374,1.5-3.626,2.594-5.266,1.7-2.546,5.287-2.953,8.319-2.536s6.119,1.387,9.089.651c2.481-.617,4.516-2.349,6.841-3.413A13.4,13.4,0,0,1,216.8,181.961a8.563,8.563,0,0,1-4.157,4.112" transform="translate(-159.638 -162.355)" fill="#263238"/><g transform="translate(9.926 15.865)"><g transform="translate(0 0)"><path d="M188.309,269.439h0a15.077,15.077,0,0,0,15.059-15.285l-.2-14.377s12.078-1.21,12.878-13.175.222-39.575.222-39.575h0a41.677,41.677,0,0,0-42.1,2.978l-1.849,1.269.9,63.305A15.076,15.076,0,0,0,188.309,269.439Z" transform="translate(-172.318 -182.687)" fill="#ffbe9d"/><g transform="translate(37.072 20.319)"><g transform="translate(2.119 2.119)"><path d="M224.017,214.952a1.792,1.792,0,0,1,.02-3.562.812.812,0,0,1,.292,0,1.792,1.792,0,0,1-.021,3.562A.808.808,0,0,1,224.017,214.952Z" transform="translate(-222.431 -211.378)" fill="#263238"/></g><g transform="translate(0 0)"><path d="M225.777,210.542c-.2.2-1.326-.772-2.974-.87-1.648-.122-2.892.689-3.063.468-.084-.1.124-.463.668-.832a4.073,4.073,0,0,1,4.818.321C225.716,210.067,225.873,210.455,225.777,210.542Z" transform="translate(-219.722 -208.668)" fill="#263238"/></g></g><g transform="translate(19.08 20.796)"><g transform="translate(2.234 1.487)"><path d="M202.307,211.49a1.741,1.741,0,1,1-1.3-.283A1.742,1.742,0,0,1,202.307,211.49Z" transform="translate(-199.573 -211.179)" fill="#263238"/></g><g transform="translate(0 0)"><path d="M202.771,211.151c-.2.2-1.326-.772-2.973-.869-1.648-.123-2.892.688-3.063.467-.085-.1.124-.463.667-.831a4.071,4.071,0,0,1,4.818.321C202.71,210.676,202.867,211.065,202.771,211.151Z" transform="translate(-196.717 -209.278)" fill="#263238"/></g></g><g transform="translate(30.783 22.244)"><g transform="translate(0 0)"><path d="M211.9,225.521a8.014,8.014,0,0,1,2.7-.42c.434-.024.778-.1.822-.332a2.357,2.357,0,0,0-.242-1.251l-1.121-3.423c-1.542-4.873-2.591-8.885-2.344-8.963s1.7,3.807,3.239,8.679c.363,1.189.709,2.324,1.051,3.445a2.756,2.756,0,0,1,.139,1.806,1.132,1.132,0,0,1-.781.651,2.763,2.763,0,0,1-.741.056A8.031,8.031,0,0,1,211.9,225.521Z" transform="translate(-211.679 -211.131)" fill="#263238"/></g></g><g transform="translate(25.409 38.164)"><path d="M204.949,231.487a30.935,30.935,0,0,0,7.959,2.791,4.564,4.564,0,0,1-5.477,1.521C203.92,234.292,204.949,231.487,204.949,231.487Z" transform="translate(-204.808 -231.487)" fill="#fff"/></g><g transform="translate(15.512 51.63)"><path d="M207.522,253.994a27.882,27.882,0,0,1-15.368-5.288s3.22,8.819,15.227,8.391Z" transform="translate(-192.154 -248.706)" fill="#eb996e"/></g></g></g><path d="M215.505,189.173s-7.226,3.673-16.815-.881c-6.291-2.988-13.583-4.366-15.159-3.083s-1.79,7.71-7.925,9.7c0,0,.662,12.24-4.23,11.9s-2.208-19.371-2.208-19.371L181,181.374l12.989-2.717,12.318,1.493,9.555,2.418Z" transform="translate(-161.544 -165.943)" fill="#263238"/><g transform="translate(2.443 36.401)"><g transform="translate(0 0)"><path d="M171.032,209.479c-.2-.1-8.1-2.882-8.28,5.319s8.087,6.694,8.107,6.46S171.032,209.479,171.032,209.479Z" transform="translate(-162.749 -208.945)" fill="#ffbe9d"/></g><g transform="translate(2.083 2.625)"><g transform="translate(0 0)"><path d="M169.007,218.825c-.035-.028-.146.1-.389.2a1.43,1.43,0,0,1-1.067,0c-.859-.338-1.558-1.729-1.564-3.208a4.709,4.709,0,0,1,.445-2.036,1.651,1.651,0,0,1,1.1-1.073.729.729,0,0,1,.834.41c.1.232.05.395.092.41.022.021.179-.134.121-.474a.912.912,0,0,0-.311-.521,1.081,1.081,0,0,0-.785-.227,2.009,2.009,0,0,0-1.521,1.238,4.848,4.848,0,0,0-.546,2.275c.016,1.651.827,3.218,2,3.588a1.531,1.531,0,0,0,1.312-.188C168.988,219.023,169.035,218.841,169.007,218.825Z" transform="translate(-165.415 -212.301)" fill="#eb996e"/></g></g></g><g transform="translate(6.548 11.049)"><path d="M168,176.741a4.525,4.525,0,0,1,5.063,1.889,12.774,12.774,0,0,0-2.361-1.4A12.842,12.842,0,0,0,168,176.741Z" transform="translate(-167.998 -176.528)" fill="#263238"/></g><g transform="translate(11.182 6.35)"><path d="M174.227,170.52c.144.008-.082,1.729.206,3.78a16.2,16.2,0,0,0,1.145,3.573c-.039.028-.339-.292-.688-.906a7.7,7.7,0,0,1-.859-2.607A8.512,8.512,0,0,1,174.227,170.52Z" transform="translate(-173.925 -170.52)" fill="#263238"/></g><g transform="translate(45.177 32.974)"><path d="M217.4,205.709c-.044-.1.308-.378.973-.651a7.491,7.491,0,0,1,5.488.055c.659.285,1,.574.959.67-.1.217-1.68-.4-3.707-.4C219.084,205.343,217.493,205.928,217.4,205.709Z" transform="translate(-217.393 -204.564)" fill="#263238"/></g><g transform="translate(26.891 31.249)"><path d="M194.015,203.5c-.044-.1.307-.378.973-.651a7.488,7.488,0,0,1,5.488.055c.66.285,1.006.574.96.67-.1.217-1.68-.4-3.707-.4C195.7,203.137,194.111,203.722,194.015,203.5Z" transform="translate(-194.012 -202.358)" fill="#263238"/></g></g><g transform="translate(9.642 34.817)"><g transform="translate(34.005 0.403)"><path d="M215.556,207.626a3.71,3.71,0,0,1,.032.485c.01.347.024.785.039,1.323.013.581.027,1.267.043,2.052a7.774,7.774,0,0,0,.39,2.66,7.114,7.114,0,0,0,1.729,2.732,6.962,6.962,0,0,0,3.233,1.775,6.606,6.606,0,0,0,2,.175,6.418,6.418,0,0,0,2.046-.432,6.9,6.9,0,0,0,3.373-2.728,7.027,7.027,0,0,0,1.1-4c0-1.4.007-2.752.011-4.04l.189.189-10.149-.092-2.947-.05-.8-.023a1.543,1.543,0,0,1-.29-.023,8.321,8.321,0,0,1,1-.046l2.9-.05,10.274-.092h.189v.192c0,1.29.007,2.641.011,4.04a7.39,7.39,0,0,1-1.157,4.224,7.261,7.261,0,0,1-3.575,2.882,6.8,6.8,0,0,1-2.165.446,6.965,6.965,0,0,1-2.109-.2,7.263,7.263,0,0,1-3.381-1.9,7.357,7.357,0,0,1-1.765-2.883,7.849,7.849,0,0,1-.343-2.769q.024-1.21.042-2.106c.017-.53.03-.963.04-1.305A2.156,2.156,0,0,1,215.556,207.626Z" transform="translate(-215.434 -207.438)" fill="#263238"/></g><g transform="translate(14.829 0)"><path d="M191.037,207.112a3.545,3.545,0,0,1,.032.485l.04,1.323q.018.873.042,2.052a7.791,7.791,0,0,0,.39,2.66,7.128,7.128,0,0,0,1.729,2.733,6.963,6.963,0,0,0,3.232,1.775,6.636,6.636,0,0,0,2,.175,6.439,6.439,0,0,0,2.046-.432,6.9,6.9,0,0,0,3.373-2.728,7.021,7.021,0,0,0,1.1-4c0-1.4.008-2.752.011-4.041l.189.189-10.149-.092-2.948-.05-.8-.024a1.648,1.648,0,0,1-.29-.023,8.347,8.347,0,0,1,1-.046l2.9-.05,10.274-.092h.189v.191c0,1.291.007,2.642.011,4.041a7.406,7.406,0,0,1-1.157,4.224,7.267,7.267,0,0,1-3.576,2.882,6.79,6.79,0,0,1-2.165.446,6.919,6.919,0,0,1-2.109-.2,7.264,7.264,0,0,1-3.381-1.9,7.346,7.346,0,0,1-1.765-2.882,7.852,7.852,0,0,1-.344-2.769c.017-.806.031-1.51.043-2.106.016-.531.029-.963.039-1.305A2.316,2.316,0,0,1,191.037,207.112Z" transform="translate(-190.912 -206.924)" fill="#263238"/></g><g transform="translate(28.898 0.957)"><path d="M214.307,208.348a17.968,17.968,0,0,1-5.4,0,18.056,18.056,0,0,1,5.4,0Z" transform="translate(-208.905 -208.145)" fill="#263238"/></g><g transform="translate(0 1.041)"><path d="M171.955,208.479a68.8,68.8,0,0,1,7.477-.226,69.148,69.148,0,0,1,7.478.181,69.017,69.017,0,0,1-7.477.227A68.721,68.721,0,0,1,171.955,208.479Z" transform="translate(-171.955 -208.251)" fill="#263238"/></g></g></g></g></g><g transform="translate(198.598 47.77)"><g transform="translate(0 0)"><path d="M374.227,222.6l-34.319-12.324-33.986,12.159c-4.339,2.052-8.145,3.276-8.145,7.318v20.121a76.063,76.063,0,0,0,11.2,40.051,69.69,69.69,0,0,0,31.269,27.615c13.892-4.511,24.261-16.54,30.6-26.831a76.062,76.062,0,0,0,11.2-40.05V232.563C382.038,226.8,378.983,223.984,374.227,222.6Z" transform="translate(-297.777 -210.274)" fill="#771efc"/><g transform="translate(0 0.001)" opacity="0.3"><path d="M340.242,305.863A55.429,55.429,0,0,1,315.5,283.835a60.176,60.176,0,0,1-8.858-31.687V238.033c0-3.2,1.929-6.193,5.76-7.981l27.509-10.286-.005-9.49-33.986,12.158c-3.567,1.559-8.145,3.276-8.145,7.318v20.121a76.063,76.063,0,0,0,11.2,40.051,69.69,69.69,0,0,0,31.269,27.615Z" transform="translate(-297.777 -210.276)"/></g><g transform="translate(42.132 0.001)" opacity="0.4"><path d="M334.656,317.542a41.315,41.315,0,0,0,6.742-2.892,60.454,60.454,0,0,0,14.268-11.224,76.9,76.9,0,0,0,9.925-13.334,73.214,73.214,0,0,0,10.862-40.435l.021-16.615c-.021-8.273-4.264-8.883-7.831-10.441l-34.319-12.324.006,9.49,27.83,10.452c3.831,1.788,5.76,4.783,5.76,7.981v14.115A60.176,60.176,0,0,1,359.061,284c-5.016,8.14-12.448,16.534-24.4,21.862Z" transform="translate(-334.323 -210.277)"/></g><path d="M345.146,247.346l.038-2.716a8.91,8.91,0,1,0-17.821-.014l-.039,2.767a4.982,4.982,0,0,0-4.251,4.926v16.02a4.986,4.986,0,0,0,4.985,4.986h16.632a4.986,4.986,0,0,0,4.986-4.985V252.309A4.985,4.985,0,0,0,345.146,247.346Zm-6.5,16.995H334.3l.679-3.142a2.649,2.649,0,1,1,2.874-.05C338.161,262.367,338.651,264.341,338.651,264.341Zm4.577-17.018H329.246l.037-2.693a6.991,6.991,0,1,1,13.982-.014Z" transform="translate(-293.911 -206.378)" fill="#fff" opacity="0.5"/><g transform="translate(13.614 22.654)"><path d="M310.4,248.043a10.86,10.86,0,0,1-.514-2.786,47.713,47.713,0,0,1-.279-6.833c.038-1.336.127-2.608.25-3.759a8.057,8.057,0,0,1,.767-3.038,3.485,3.485,0,0,1,1.5-1.51c.464-.216.755-.206.76-.173A3.883,3.883,0,0,0,311,231.818a8.344,8.344,0,0,0-.6,2.9c-.091,1.144-.162,2.4-.2,3.726-.079,2.646.005,5.044.1,6.779A16.17,16.17,0,0,1,310.4,248.043Z" transform="translate(-309.584 -229.925)" fill="#fff"/></g><g transform="translate(14.595 45.827)"><path d="M310.777,253.731c-.166,0-.317-.824-.337-1.847s.1-1.855.263-1.859.317.823.337,1.847S310.942,253.728,310.777,253.731Z" transform="translate(-310.438 -250.026)" fill="#fff"/></g></g></g><g transform="translate(121.907 165.162)"><path d="M259.045,325.225l-25.961,64.2H186.275v2.9H325.7l28.518-67.1Z" transform="translate(-186.275 -325.225)" fill="#263238"/><path d="M327.513,371.662c-.941,3.231-3.68,5.274-6.117,4.565s-3.653-3.9-2.712-7.135,3.68-5.275,6.118-4.565S328.454,368.43,327.513,371.662Z" transform="translate(-215.063 -333.76)" fill="#fafafa"/></g></g><g transform="translate(-11042.979 -11609.436)"><path d="M138.4,325.64a52.9,52.9,0,0,0,56.449,1.248,35.467,35.467,0,0,0,38.648,3.333,25.393,25.393,0,1,0,15.241-46.541A35.476,35.476,0,0,0,217.321,263.5a52.9,52.9,0,0,0-98.887-1.428,36.837,36.837,0,0,0-3.708-.187,36.286,36.286,0,0,0-34.971,26.642c-.431-.024-.866-.039-1.3-.039a22.975,22.975,0,1,0,15.818,39.63A36.252,36.252,0,0,0,138.4,325.64Z" transform="translate(-55.469 -228.677)" fill="#ededed"/><path d="M163.6,290.723a18.077,18.077,0,0,0-32.153,10.383c3.38-5.021,8.448-8.007,14.141-10.065A29.477,29.477,0,0,1,163.6,290.723Z" transform="translate(-77.32 -244.551)" fill="#f5f5f5"/><path d="M190.368,233.285a52.912,52.912,0,0,0-70.762,28.789,36.829,36.829,0,0,0-3.708-.187A36.286,36.286,0,0,0,80.927,288.53c-.431-.024-.866-.039-1.3-.039a22.966,22.966,0,0,0-20.109,11.86,20.618,20.618,0,0,1,6.559-4.516c5.819-2.466,13.174-1.629,17.629,2.853a34.374,34.374,0,0,1,14.221-22.119,36.078,36.078,0,0,1,26.234-6.222c4.486-15.534,16.815-28.8,31.773-34.938a54.732,54.732,0,0,1,34.434-2.122Z" transform="translate(-56.638 -228.68)" fill="#f5f5f5"/><path d="M325.957,311.542a25.4,25.4,0,0,0-21.378-13.8,35.475,35.475,0,0,0-31.207-20.175,48.283,48.283,0,0,0-23.717,14.262c6.9-5.3,15.864-6.809,24.448-5.41A32.371,32.371,0,0,1,295.465,300.1c7.347-1.221,15.382.912,21.89,4.534a33.286,33.286,0,0,1,8.6,6.906Z" transform="translate(-111.31 -242.736)" fill="#f5f5f5"/></g></g></g></svg>