<svg xmlns="http://www.w3.org/2000/svg" width="122.752" height="25.932" viewBox="0 0 122.752 25.932"><g transform="translate(-0.005 0.005)"><g transform="translate(0.005 -0.005)"><path d="M9.695,59.1H17.02l-1.133,4.343a2.742,2.742,0,0,1-.972,1.459,2.628,2.628,0,0,1-1.653.551h-3.4a3.3,3.3,0,0,0-2.053.681,3.565,3.565,0,0,0-1.248,1.848,3.448,3.448,0,0,0-.049,1.653,3.576,3.576,0,0,0,.628,1.378,3.273,3.273,0,0,0,1.167.956,3.429,3.429,0,0,0,1.556.357h2.074a1.167,1.167,0,0,1,.956.47,1.124,1.124,0,0,1,.216,1.053l-1.3,4.8H9.539a9.159,9.159,0,0,1-4.295-1.021,9.7,9.7,0,0,1-3.264-2.707A9.551,9.551,0,0,1,.214,71.082a9.455,9.455,0,0,1,.115-4.43l.13-.486A9.583,9.583,0,0,1,3.877,61.06a9.715,9.715,0,0,1,2.7-1.442A9.4,9.4,0,0,1,9.695,59.1Z" transform="translate(-0.005 -52.713)" fill="#787da7"/><path d="M123.89,25.927l6.387-23.921a2.742,2.742,0,0,1,.972-1.459A2.628,2.628,0,0,1,132.9,0h6.776a9.159,9.159,0,0,1,4.295,1.021,9.639,9.639,0,0,1,5.04,6.548,9.054,9.054,0,0,1-.13,4.43l-.13.486a9.711,9.711,0,0,1-1.3,2.869,9.47,9.47,0,0,1-7.909,4.23H133.68l1.167-4.376a2.742,2.742,0,0,1,.972-1.426,2.628,2.628,0,0,1,1.653-.551h1.88a3.41,3.41,0,0,0,3.306-2.561,3.175,3.175,0,0,0,.043-1.594,3.576,3.576,0,0,0-.632-1.378,3.432,3.432,0,0,0-1.167-.972,3.307,3.307,0,0,0-1.55-.373h-3.63l-4.732,17.6a2.742,2.742,0,0,1-.972,1.426,2.58,2.58,0,0,1-1.621.551Z" transform="translate(-110.505 0.004)" fill="#787da7"/><path d="M362.591,65.47l.1-.357a.477.477,0,0,0-.081-.432.5.5,0,0,0-.405-.178H351.667a2.593,2.593,0,0,1-1.232-.292,2.7,2.7,0,0,1-.908-.756,2.658,2.658,0,0,1-.486-1.08,2.755,2.755,0,0,1,.032-1.264l.648-2.463h14.262a5.12,5.12,0,0,1,2.431.583,5.611,5.611,0,0,1,1.837,1.523,5.439,5.439,0,0,1,1,2.161,5.38,5.38,0,0,1-.049,2.512l-2.561,9.53a4.389,4.389,0,0,1-4.279,3.274L351.835,78.2a5.574,5.574,0,0,1-4.478-2.21,5.877,5.877,0,0,1-1.037-2.269,5.346,5.346,0,0,1,.065-2.609l.13-.486a5.14,5.14,0,0,1,.762-1.686,5.835,5.835,0,0,1,1.248-1.329,5.625,5.625,0,0,1,1.588-.859,5.526,5.526,0,0,1,1.848-.308h8.849l-.648,2.431a2.754,2.754,0,0,1-.972,1.426,2.585,2.585,0,0,1-1.621.551h-3.954a.686.686,0,0,0-.713.551.662.662,0,0,0,.13.632.719.719,0,0,0,.583.276H360a1,1,0,0,0,.616-.194.838.838,0,0,0,.324-.519l.065-.259Z" transform="translate(-308.785 -52.31)" fill="#787da7"/><path d="M559.489,59.1a9.226,9.226,0,0,1,4.322,1.021,9.705,9.705,0,0,1,3.259,2.7,9.55,9.55,0,0,1,1.765,3.857,9.268,9.268,0,0,1-.145,4.441l-1.621,6.094a1.786,1.786,0,0,1-.7,1.037,1.969,1.969,0,0,1-1.189.389h-3.49a1.188,1.188,0,0,1-1.168-1.523l1.945-7.358a3.175,3.175,0,0,0,.049-1.588,3.59,3.59,0,0,0-.631-1.378,3.458,3.458,0,0,0-1.167-.972,3.314,3.314,0,0,0-1.556-.373h-3.63L552.39,77.215a1.772,1.772,0,0,1-.7,1.037,2.015,2.015,0,0,1-1.216.389h-3.468a1.165,1.165,0,0,1-.955-.47,1.127,1.127,0,0,1-.216-1.053l4.8-18.022Z" transform="translate(-486.82 -52.709)" fill="#787da7"/><path d="M775.862,65.227a1.656,1.656,0,0,0-.551.794l-1.459,5.51a.972.972,0,0,0,.94,1.232h13.419l-1.035,3.857a2.742,2.742,0,0,1-.972,1.426,2.58,2.58,0,0,1-1.621.551H772.362a5.233,5.233,0,0,1-2.431-.567,5.347,5.347,0,0,1-1.837-1.523,5.561,5.561,0,0,1-1-2.172,4.969,4.969,0,0,1,.081-2.485l1.977-7.358a7.368,7.368,0,0,1,4.678-5.04,7.122,7.122,0,0,1,2.382-.405h8.654a5.115,5.115,0,0,1,2.431.583,5.6,5.6,0,0,1,1.837,1.523,5.256,5.256,0,0,1,.989,2.172,5.425,5.425,0,0,1-.065,2.5l-.583,2.2a4.219,4.219,0,0,1-1.567,2.361,4.331,4.331,0,0,1-2.672.886h-9.789l.648-2.4a2.57,2.57,0,0,1,.94-1.426,2.628,2.628,0,0,1,1.653-.551h3.954a.687.687,0,0,0,.713-.551l.13-.486a.748.748,0,0,0-.713-.94H776.74A1.373,1.373,0,0,0,775.862,65.227Z" transform="translate(-684.102 -52.667)" fill="#787da7"/><path d="M963.28,25.927,969.8,1.454A1.843,1.843,0,0,1,970.489.4,1.96,1.96,0,0,1,971.708,0h3.468a1.2,1.2,0,0,1,.989.47,1.127,1.127,0,0,1,.216,1.053l-4.862,18.054a8.052,8.052,0,0,1-1.151,2.593,8.5,8.5,0,0,1-1.88,1.993,8.821,8.821,0,0,1-2.415,1.3A8.3,8.3,0,0,1,963.28,25.927Z" transform="translate(-859.203 0.005)" fill="#787da7"/><path d="M1094.83,2.65a2.232,2.232,0,0,1,3.343-1.934,2.174,2.174,0,0,1,.819.816,2.233,2.233,0,1,1-3.878,2.216,2.2,2.2,0,0,1-.284-1.1Zm.311,0a1.919,1.919,0,0,0,3.579.964,1.858,1.858,0,0,0,.259-.963,1.855,1.855,0,0,0-.258-.957,1.933,1.933,0,0,0-.7-.7,1.923,1.923,0,0,0-2.622.7,1.854,1.854,0,0,0-.26.961Zm2.824-.54a.718.718,0,0,1-.126.419.734.734,0,0,1-.354.271l.707,1.172h-.5l-.615-1.05h-.4v1.05h-.44V1.331h.77a1.119,1.119,0,0,1,.722.192.723.723,0,0,1,.234.588Zm-1.287.447H1097a.566.566,0,0,0,.381-.123.393.393,0,0,0,.144-.312.371.371,0,0,0-.128-.319.669.669,0,0,0-.4-.1h-.314Z" transform="translate(-976.539 -0.374)" fill="#787da7"/></g></g></svg>