<svg xmlns="http://www.w3.org/2000/svg" width="162.333" height="58.178" viewBox="0 0 162.333 58.178"><g transform="translate(-502 -2074)"><path d="M262.833,129.758V108.773h1.176v19.78h5.908v1.2Z" transform="translate(295.282 1982.827)" fill="#787da7"/><path d="M293.335,127.695a1.139,1.139,0,0,1-.676-.264,1.058,1.058,0,0,1-.294-.705q0-.793.97-.97.734,0,.97.97A.857.857,0,0,1,293.335,127.695Zm-.617,14.313V129.869h1.2v12.139Z" transform="translate(273.98 1970.578)" fill="#787da7"/><path d="M311.458,127.954v10.933h-1.2V127.954h-1.646v-1.205h1.646v-5.32h1.2v5.32h2.822v1.205Z" transform="translate(262.264 1973.698)" fill="#787da7"/><path d="M336.467,145.806a5.555,5.555,0,0,0,1.323,3.909,4.95,4.95,0,0,0,3.792,1.469,5.808,5.808,0,0,0,2.234-.412,5.093,5.093,0,0,0,2.263-2.145l1.088.5a5.856,5.856,0,0,1-3.527,2.939,6.7,6.7,0,0,1-2.057.294,6.382,6.382,0,0,1-4.526-10.787,6.137,6.137,0,0,1,4.526-1.793,6.226,6.226,0,0,1,4.467,1.675,5.683,5.683,0,0,1,1.793,4.35H336.467Zm8.288-3.85a5.279,5.279,0,0,0-3.174-1,4.783,4.783,0,0,0-4.938,3.7h9.846A4.092,4.092,0,0,0,344.755,141.955Z" transform="translate(243.016 1960.461)" fill="#787da7"/><path d="M393.979,129.277a8.017,8.017,0,0,1-2.7.412,5.9,5.9,0,0,1-6.2-4.556l1.2-.412a4.694,4.694,0,0,0,5,3.762,5.261,5.261,0,0,0,3.556-1.117,4.193,4.193,0,0,0,1.323-3.35,4.442,4.442,0,0,0-1.558-3.468,6.64,6.64,0,0,0-1.264-.852q-.853-.47-2.175-1.058a14.039,14.039,0,0,1-3.409-1.94,4.736,4.736,0,0,1,.03-7,6.163,6.163,0,0,1,8.994,1.411l-1.146.5a3.988,3.988,0,0,0-1.411-1.44,4.963,4.963,0,0,0-2.675-.647,4.3,4.3,0,0,0-2.88.97,3.43,3.43,0,0,0,.059,5.32,15.737,15.737,0,0,0,2.939,1.587,22.251,22.251,0,0,1,2.381,1.22,8.474,8.474,0,0,1,1.617,1.22,5.616,5.616,0,0,1,1.7,4.174Q397.36,128.014,393.979,129.277Z" transform="translate(207.106 1983.132)" fill="#787da7"/><path d="M450.8,150.585a6.335,6.335,0,0,1-9.464-.646V157.9h-1.2v-17.84h1.2v2.293a6.335,6.335,0,0,1,9.435-.676,6.388,6.388,0,0,1,.03,8.905Zm-.882-8.024a5.073,5.073,0,1,0,1.5,3.586A4.893,4.893,0,0,0,449.915,142.562Z" transform="translate(167.393 1960.384)" fill="#787da7"/><path d="M492.245,145.806a5.555,5.555,0,0,0,1.323,3.909,4.95,4.95,0,0,0,3.792,1.469,5.808,5.808,0,0,0,2.234-.412,5.094,5.094,0,0,0,2.263-2.145l1.088.5a5.856,5.856,0,0,1-3.527,2.939,6.7,6.7,0,0,1-2.057.294,6.382,6.382,0,0,1-4.526-10.787,6.137,6.137,0,0,1,4.526-1.793,6.226,6.226,0,0,1,4.467,1.675,5.683,5.683,0,0,1,1.793,4.35H492.245Zm8.288-3.85a5.279,5.279,0,0,0-3.174-1,4.783,4.783,0,0,0-4.938,3.7h9.846A4.092,4.092,0,0,0,500.533,141.955Z" transform="translate(130.648 1960.461)" fill="#787da7"/><path d="M548.036,145.806a5.555,5.555,0,0,0,1.323,3.909,4.95,4.95,0,0,0,3.792,1.469,5.808,5.808,0,0,0,2.234-.412,5.094,5.094,0,0,0,2.263-2.145l1.088.5a5.856,5.856,0,0,1-3.527,2.939,6.7,6.7,0,0,1-2.057.294,6.382,6.382,0,0,1-4.526-10.787,6.137,6.137,0,0,1,4.526-1.793,6.226,6.226,0,0,1,4.467,1.675,5.683,5.683,0,0,1,1.793,4.35H548.036Zm8.288-3.85a5.279,5.279,0,0,0-3.174-1,4.783,4.783,0,0,0-4.938,3.7h9.846A4.093,4.093,0,0,0,556.324,141.955Z" transform="translate(90.404 1960.461)" fill="#787da7"/><path d="M610.687,127.78V125.6a6.1,6.1,0,0,1-4.938,2.381,6.261,6.261,0,1,1,0-12.521,6.259,6.259,0,0,1,4.938,2.381V106.03h1.2v21.749h-1.2Zm-1.352-9.64a5.073,5.073,0,1,0,1.5,3.586A4.893,4.893,0,0,0,609.335,118.139Z" transform="translate(52.441 1984.806)" fill="#787da7"/><g transform="translate(502 2074)"><g transform="translate(0 0)"><path d="M148.757,112.359,135.375,98.981l-5.7,7.233,6.145,6.145a1.462,1.462,0,0,1,0,2.06l-1.777,1.779s1.2,1.793,1.252,1.9a2.178,2.178,0,0,1-.441,2.449L120.88,131.28c0,3.6-.007,11,0,11.008s27.879-27.868,27.879-27.868A1.46,1.46,0,0,0,148.757,112.359Z" transform="translate(-104.319 -84.109)" fill="#787da7"/><path d="M74.823,75.547a1.46,1.46,0,0,1,0-2.058l1.778-1.78-1.216-1.748a1.916,1.916,0,0,1,.4-2.6L89.766,56.631l.009-11-.009-.006-.007-.011L61.888,73.489a1.461,1.461,0,0,0,0,2.061L75.267,88.93l5.7-7.236Z" transform="translate(-61.463 -45.614)" fill="#787da7"/></g><g transform="translate(8.754 6.467)"><path d="M119.47,68.892a.705.705,0,0,1,.621.388.967.967,0,0,1-.262,1.026L107.582,85.85a.668.668,0,0,0-.022.678c.066.1,6.615,9.593,6.839,9.915a1.815,1.815,0,0,1-.346,2.118L94.36,113.679A1.207,1.207,0,0,1,93.6,114a.73.73,0,0,1-.586-.385.991.991,0,0,1,.259-1.033l12.246-15.54a.675.675,0,0,0,.025-.682l-6.835-9.829a1.623,1.623,0,0,1,.339-2.2l19.7-15.119a1.173,1.173,0,0,1,.722-.322m0-.07a1.233,1.233,0,0,0-.765.337l-19.7,15.119a1.692,1.692,0,0,0-.354,2.3L105.49,96.4a.609.609,0,0,1-.023.6L93.222,112.542a1.057,1.057,0,0,0-.267,1.107.8.8,0,0,0,.644.424,1.268,1.268,0,0,0,.8-.339L114.1,98.616a1.884,1.884,0,0,0,.361-2.213c-.227-.325-6.839-9.915-6.839-9.915a.606.606,0,0,1,.02-.6l12.247-15.544a1.036,1.036,0,0,0,.27-1.1.775.775,0,0,0-.684-.427Z" transform="translate(-92.877 -68.822)" fill="#787da7"/><g transform="translate(0.73 17.334)"><path d="M115.638,141.455c.16.24.3,1.148-.1,1.451l-19.7,15.118c-.165.127-.271.19-.319.184-.068.006-.019-.115.162-.347l12.243-15.538a1.321,1.321,0,0,0,.045-1.468l-6.833-9.832S115.481,141.215,115.638,141.455Z" transform="translate(-95.498 -131.024)" fill="#787da7"/></g><g transform="translate(6.209 0.731)"><path d="M129.821,98.48l-6.73-9.683a1.31,1.31,0,0,1,.045-1.459L135.379,71.8c.183-.233.23-.349.164-.349a.761.761,0,0,0-.32.186l-19.7,15.118a.962.962,0,0,0-.2,1.3Z" transform="translate(-115.159 -71.447)" fill="#787da7"/></g></g></g></g></svg>