<svg xmlns="http://www.w3.org/2000/svg" xmlns:xlink="http://www.w3.org/1999/xlink" width="130" height="97" viewBox="0 0 130 97"><defs><linearGradient id="a" x1="1" x2="0.04" y2="0.813" gradientUnits="objectBoundingBox"><stop offset="0" stop-color="#6ec445"/><stop offset="1" stop-color="#caf2b7"/></linearGradient></defs><g transform="translate(-1079 -1027)"><path d="M-1791,220a65.478,65.478,0,0,1-13.1-1.321,64.669,64.669,0,0,1-12.2-3.787,65,65,0,0,1-11.041-5.993,65.468,65.468,0,0,1-9.62-7.937,65.468,65.468,0,0,1-7.937-9.62,65.017,65.017,0,0,1-5.993-11.041,64.676,64.676,0,0,1-3.787-12.2A65.487,65.487,0,0,1-1856,155h130a65.479,65.479,0,0,1-1.321,13.1,64.679,64.679,0,0,1-3.787,12.2,65.013,65.013,0,0,1-5.993,11.041,65.472,65.472,0,0,1-7.937,9.62,65.463,65.463,0,0,1-9.62,7.937,65,65,0,0,1-11.041,5.993,64.674,64.674,0,0,1-12.2,3.787A65.482,65.482,0,0,1-1791,220Z" transform="translate(2935 872)" fill="url(#a)"/><g transform="translate(1109.505 1029)" fill="#8bbf72"><path d="M76,57.26V42.73a7.985,7.985,0,0,1-5.66-10.04L55.57,23.72a7.956,7.956,0,0,1-11.15,0L29.65,32.69A7.692,7.692,0,0,1,30,35a8,8,0,0,1-6,7.73V57.26a7.961,7.961,0,0,1,5.65,10.05l14.77,8.96a7.981,7.981,0,0,1,11.15,0l14.77-8.96A8.377,8.377,0,0,1,70,65,8.014,8.014,0,0,1,76,57.26Z" stroke="none"/><path d="M 44.30860900878906 75.03280639648438 C 45.92262649536133 73.71678161621094 47.91609954833984 73.00000762939453 50 73.00000762939453 C 52.08703994750977 73.00000762939453 54.07741165161133 73.71630859375 55.68325424194336 75.03166961669922 L 69.19331359863281 66.83599853515625 C 69.06486511230469 66.21553802490234 69 65.60063934326172 69 65.00000762939453 C 69 61.16390991210938 71.43088531494141 57.78157806396484 75 56.52070236206055 L 75 43.46982574462891 C 71.43090057373047 42.21159362792969 69 38.83314514160156 69 35.00000381469727 C 69 34.38042831420898 69.06351470947266 33.76464080810547 69.18929290771484 33.16111755371094 L 55.68510437011719 24.95986175537109 C 54.08205032348633 26.28063201904297 52.09101486206055 27.0000057220459 50 27.0000057220459 C 47.90311050415039 27.0000057220459 45.90878295898438 26.28075790405273 44.30498123168945 24.9598217010498 L 30.80657005310059 33.15756225585938 C 30.93509292602539 33.75669860839844 31 34.37364959716797 31 35.00000381469727 C 31 38.83060836791992 28.56912231445312 42.20896530151367 25 43.46934127807617 L 25 56.52070236206055 C 28.56912231445312 57.78157043457031 31 61.16389083862305 31 65.00000762939453 C 31 65.60894775390625 30.93379592895508 66.22499847412109 30.80266761779785 66.83963012695312 L 44.30860900878906 75.03280639648438 M 55.56999969482422 76.26999664306641 C 54.13000106811523 74.87000274658203 52.15999984741211 74.00000762939453 50 74.00000762939453 C 47.83000183105469 74.00000762939453 45.86999893188477 74.87000274658203 44.41999816894531 76.26999664306641 L 29.64999961853027 67.30999755859375 C 29.8700008392334 66.58000183105469 30 65.80000305175781 30 65.00000762939453 C 30 61.27999496459961 27.44000053405762 58.14999389648438 24 57.25999450683594 L 24 42.72999572753906 C 27.44000053405762 41.84000396728516 30 38.72000503540039 30 35.00000381469727 C 30 34.20000457763672 29.8799991607666 33.41999435424805 29.64999961853027 32.68999481201172 L 44.41999816894531 23.72000503540039 C 45.86000061035156 25.1300048828125 47.83000183105469 26.0000057220459 50 26.0000057220459 C 52.16999816894531 26.0000057220459 54.13000106811523 25.1300048828125 55.56999969482422 23.71999549865723 L 70.33999633789062 32.68999481201172 C 70.12000274658203 33.41999435424805 70 34.20000457763672 70 35.00000381469727 C 70 38.72000503540039 72.55000305175781 41.84000396728516 76 42.72999572753906 L 76 57.25999450683594 C 72.55999755859375 58.15000534057617 70 61.27999496459961 70 65.00000762939453 C 70 65.80000305175781 70.12999725341797 66.58000183105469 70.33999633789062 67.30999755859375 L 55.56999969482422 76.26999664306641 Z" stroke="none" fill="rgba(255,255,255,0.27)"/></g><g transform="translate(1109.505 1029)" fill="#8bbf72"><path d="M52,10.26V7a2,2,0,0,0-4,0v3.26a7.822,7.822,0,0,1,4,0Z" stroke="none"/><path d="M 51 9.059212684631348 L 51 7 C 51 6.448600292205811 50.55139923095703 6 50 6 C 49.43925094604492 6 49 6.439249992370605 49 7 L 49 9.05919361114502 C 49.33692169189453 9.019562721252441 49.66895294189453 9 50 9 C 50.32892990112305 9 50.66286468505859 9.019816398620605 51 9.059212684631348 M 52 10.26000022888184 C 51.36999893188477 10.10000038146973 50.68999862670898 10 50 10 C 49.29999923706055 10 48.63999938964844 10.10000038146973 48 10.26000022888184 L 48 7 C 48 5.890000343322754 48.88999938964844 5 50 5 C 51.09999847412109 5 52 5.890000343322754 52 7 L 52 10.26000022888184 Z" stroke="none" fill="rgba(255,255,255,0.27)"/></g><g transform="translate(1109.505 1029)" fill="#8bbf72"><path d="M48,89.73V93a2,2,0,0,0,4,0V89.73a7.542,7.542,0,0,1-4,0Z" stroke="none"/><path d="M 49 90.93921661376953 L 49 92.99999237060547 C 49 93.55139923095703 49.44860076904297 93.99999237060547 50 93.99999237060547 C 50.55139923095703 93.99999237060547 51 93.55139923095703 51 92.99999237060547 L 51 90.94015502929688 C 50.3342170715332 91.01951599121094 49.67430114746094 91.02034759521484 49 90.93921661376953 M 48 89.73000335693359 C 48.63999938964844 89.90000915527344 49.31000137329102 89.99999237060547 50 89.99999237060547 C 50.68999862670898 89.99999237060547 51.36999893188477 89.90000915527344 52 89.73000335693359 L 52 92.99999237060547 C 52 94.09999847412109 51.09999847412109 94.99999237060547 50 94.99999237060547 C 48.88999938964844 94.99999237060547 48 94.09999847412109 48 92.99999237060547 L 48 89.73000335693359 Z" stroke="none" fill="rgba(255,255,255,0.27)"/></g><g transform="translate(1109.505 1029)" fill="#8bbf72"><path d="M84.88,69.05a7.993,7.993,0,0,1-2.83,2.83l3.03,3.03a2,2,0,0,0,2.83-2.83Z" stroke="none"/><path d="M 85.01982879638672 70.60405731201172 C 84.60198211669922 71.12661743164062 84.12661743164062 71.60198974609375 83.60404968261719 72.01983642578125 L 85.78710174560547 74.20288848876953 C 85.97869873046875 74.39449310302734 86.23187255859375 74.5 86.49999237060547 74.5 C 86.76166534423828 74.5 87.01129150390625 74.39447784423828 87.20288848876953 74.20288848876953 C 87.59322357177734 73.81256103515625 87.59322357177734 73.17744445800781 87.20288848876953 72.787109375 L 85.01982879638672 70.60405731201172 M 84.87999725341797 69.05000305175781 L 87.90999603271484 72.08000183105469 C 88.68999481201172 72.86000061035156 88.68999481201172 74.1300048828125 87.90999603271484 74.91000366210938 C 87.51998138427734 75.30000305175781 87.00999450683594 75.5 86.49999237060547 75.5 C 85.97999572753906 75.5 85.46999359130859 75.30000305175781 85.07999420166016 74.91000366210938 L 82.04999542236328 71.8800048828125 C 83.21999359130859 71.19000244140625 84.18999481201172 70.22000122070312 84.87999725341797 69.05000305175781 Z" stroke="none" fill="rgba(255,255,255,0.27)"/></g><g transform="translate(1109.505 1029)" fill="#8bbf72"><path d="M84.88,30.94l3.03-3.03a2,2,0,0,0-2.83-2.83l-3.03,3.03A7.993,7.993,0,0,1,84.88,30.94Z" stroke="none"/><path d="M 85.01882171630859 29.3869514465332 L 87.20288848876953 27.20288848876953 C 87.59322357177734 26.81255912780762 87.59322357177734 26.17743873596191 87.20288848876953 25.787109375 C 87.0145263671875 25.59873962402344 86.76311492919922 25.49499893188477 86.4949951171875 25.49499893188477 C 86.22687530517578 25.49499893188477 85.9754638671875 25.59873962402344 85.78710174560547 25.787109375 L 83.60496520996094 27.9692497253418 C 84.12418365478516 28.38507080078125 84.59883880615234 28.86099052429199 85.01882171630859 29.3869514465332 M 84.87999725341797 30.93999862670898 C 84.19000244140625 29.77999877929688 83.23000335693359 28.79999923706055 82.04999542236328 28.10999870300293 L 85.07999420166016 25.07999801635742 C 85.85999298095703 24.29999923706055 87.12999725341797 24.29999923706055 87.90999603271484 25.07999801635742 C 88.68999481201172 25.85999870300293 88.68999481201172 27.1299991607666 87.90999603271484 27.90999984741211 L 84.87999725341797 30.93999862670898 Z" stroke="none" fill="rgba(255,255,255,0.27)"/></g><g transform="translate(1109.505 1029)" fill="#8bbf72"><path d="M12.08,25.08a2,2,0,0,0,0,2.83l3.03,3.03a8.157,8.157,0,0,1,2.83-2.83l-3.03-3.03A2,2,0,0,0,12.08,25.08Z" stroke="none"/><path d="M 13.49874877929688 25.49499893188477 C 13.23171806335449 25.49499893188477 12.97834968566895 25.59947967529297 12.78493499755859 25.7892894744873 C 12.39673614501953 26.1797981262207 12.39748382568359 26.81327438354492 12.787109375 27.20288848876953 L 14.97240829467773 29.38818740844727 C 15.39099216461182 28.86634063720703 15.86633968353271 28.39099311828613 16.38818740844727 27.97240829467773 L 14.20288848876953 25.787109375 C 14.01452922821045 25.59873962402344 13.76445865631104 25.49499893188477 13.49874877929688 25.49499893188477 M 13.49874877929688 24.49499893188477 C 14.00999927520752 24.49499893188477 14.51999855041504 24.68999862670898 14.90999889373779 25.07999801635742 L 17.93999862670898 28.10999870300293 C 16.77999877929688 28.79999923706055 15.79999923706055 29.77999877929688 15.10999870300293 30.93999862670898 L 12.07999801635742 27.90999984741211 C 11.29999923706055 27.1299991607666 11.29999923706055 25.85999870300293 12.07999801635742 25.07999801635742 C 12.47499847412109 24.68999862670898 12.98749923706055 24.49499893188477 13.49874877929688 24.49499893188477 Z" stroke="none" fill="rgba(255,255,255,0.27)"/></g><g transform="translate(1109.505 1029)" fill="#8bbf72"><path d="M15.12,69.05l-3.03,3.03a2,2,0,1,0,2.83,2.83l3.03-3.03A8.074,8.074,0,0,1,15.12,69.05Z" stroke="none"/><path d="M 14.98081398010254 70.60340881347656 L 12.79711151123047 72.787109375 C 12.40677070617676 73.17744445800781 12.40677070617676 73.81256103515625 12.79711151123047 74.20288848876953 C 12.98870086669922 74.39449310302734 13.24188041687012 74.5 13.51000118255615 74.5 C 13.77168083190918 74.5 14.02130126953125 74.39449310302734 14.212890625 74.20288848876953 L 16.39756202697754 72.01821899414062 C 15.87364292144775 71.59892272949219 15.39798069000244 71.12391662597656 14.98081398010254 70.60340881347656 M 15.1200008392334 69.05000305175781 C 15.81000137329102 70.22000122070312 16.79000091552734 71.19000244140625 17.95000076293945 71.8800048828125 L 14.92000102996826 74.91000366210938 C 14.53000068664551 75.30000305175781 14.02000141143799 75.5 13.51000118255615 75.5 C 12.9900016784668 75.5 12.48000144958496 75.30000305175781 12.09000015258789 74.91000366210938 C 11.31000137329102 74.1300048828125 11.31000137329102 72.86000061035156 12.09000015258789 72.08000183105469 L 15.1200008392334 69.05000305175781 Z" stroke="none" fill="rgba(255,255,255,0.27)"/></g><g transform="translate(1155.505 1043)" fill="#8bbf72" stroke="rgba(255,255,255,0.27)" stroke-width="1"><circle cx="4" cy="4" r="4" stroke="none"/><circle cx="4" cy="4" r="3.5" fill="none"/></g><g transform="translate(1155.505 1107)" fill="#8bbf72" stroke="rgba(255,255,255,0.27)" stroke-width="1"><circle cx="4" cy="4" r="4" stroke="none"/><circle cx="4" cy="4" r="3.5" fill="none"/></g><g transform="translate(1183.505 1060)" fill="#8bbf72" stroke="rgba(255,255,255,0.27)" stroke-width="1"><circle cx="4" cy="4" r="4" stroke="none"/><circle cx="4" cy="4" r="3.5" fill="none"/></g><g transform="translate(1127.505 1060)" fill="#8bbf72" stroke="rgba(255,255,255,0.27)" stroke-width="1"><circle cx="4" cy="4" r="4" stroke="none"/><circle cx="4" cy="4" r="3.5" fill="none"/></g><g transform="translate(1183.505 1090)" fill="#8bbf72" stroke="rgba(255,255,255,0.27)" stroke-width="1"><circle cx="4" cy="4" r="4" stroke="none"/><circle cx="4" cy="4" r="3.5" fill="none"/></g><g transform="translate(1127.505 1090)" fill="#8bbf72" stroke="rgba(255,255,255,0.27)" stroke-width="1"><circle cx="4" cy="4" r="4" stroke="none"/><circle cx="4" cy="4" r="3.5" fill="none"/></g></g></svg>