<svg xmlns="http://www.w3.org/2000/svg" xmlns:xlink="http://www.w3.org/1999/xlink" width="130" height="84.5" viewBox="0 0 130 84.5"><defs><linearGradient id="a" x1="1" x2="0.04" y2="0.813" gradientUnits="objectBoundingBox"><stop offset="0" stop-color="#f8b409"/><stop offset="1" stop-color="#ffe9b1"/></linearGradient></defs><g transform="translate(-1079 -1027)"><path d="M-1791,220a65.478,65.478,0,0,1-13.1-1.321,64.669,64.669,0,0,1-12.2-3.787,65,65,0,0,1-11.041-5.993,65.468,65.468,0,0,1-9.62-7.937,65.468,65.468,0,0,1-7.937-9.62,65.017,65.017,0,0,1-5.993-11.041,64.676,64.676,0,0,1-3.787-12.2A65.487,65.487,0,0,1-1856,155h130a65.479,65.479,0,0,1-1.321,13.1,64.679,64.679,0,0,1-3.787,12.2,65.013,65.013,0,0,1-5.993,11.041,65.472,65.472,0,0,1-7.937,9.62,65.463,65.463,0,0,1-9.62,7.937,65,65,0,0,1-11.041,5.993,64.674,64.674,0,0,1-12.2,3.787A65.482,65.482,0,0,1-1791,220Z" transform="translate(2935 872)" fill="url(#a)"/><g transform="translate(-357 -785)"><path d="M34.829,72.052h-.7a2.156,2.156,0,0,1-.806-1.64q-.923-5.866-1.84-11.733a5.447,5.447,0,0,1,1.083-4.239c.644-.859.654-1.1-.093-1.851Q25.955,46.07,19.438,39.555c-.766-.765-.963-.755-1.842-.1a5.061,5.061,0,0,1-3.808,1.134c-4.148-.6-8.288-1.273-12.428-1.932-.527-.084-1.1-.187-1.305-.8s.205-1.015.564-1.421c.062-.07.132-.134.2-.2Q9.173,27.885,17.531,19.53A4.813,4.813,0,0,1,22.3,18.19c1.162.273,2.343.489,3.479.846a3.021,3.021,0,0,0,3.257-.793A88.191,88.191,0,0,1,40.185,9.463C45.562,5.874,51.166,2.725,57.437.951A19.625,19.625,0,0,1,65.347.12a6.987,6.987,0,0,1,6.226,5.546c.182.77.274,1.562.408,2.344V9.417c-.108.807-.188,1.618-.329,2.419A42.978,42.978,0,0,1,67.835,23.1,86.5,86.5,0,0,1,53.467,43.9a2.024,2.024,0,0,0-.531,2.1c.32,1.173.568,2.366.858,3.549a5.015,5.015,0,0,1-1.422,5.072Q44.5,62.466,36.656,70.334c-.591.59-1.218,1.146-1.828,1.718M61.743,17.978a7.474,7.474,0,1,0-7.421,7.5,7.436,7.436,0,0,0,7.421-7.5" transform="translate(1464.51 1823.948)" fill="#ffdf90" stroke="rgba(255,255,255,0.27)" stroke-width="1"/><path d="M50.484,338.721a25.065,25.065,0,0,1,.624-2.526,48.1,48.1,0,0,1,7.632-14.534c.464-.587.991-1.124,1.482-1.69a.872.872,0,0,1,1.35-.137,8.032,8.032,0,0,1,.683.6q3.731,3.724,7.456,7.455c.149.149.3.3.432.462.637.761.585,1.058-.122,1.776a25.4,25.4,0,0,1-9.485,5.962c-3.02,1.124-5.94,2.517-8.9,3.8-.924.4-1.183.248-1.156-1.177" transform="translate(1421.145 1549.429)" fill="#ffdf90" stroke="rgba(255,255,255,0.27)" stroke-width="1"/></g></g></svg>