<svg xmlns="http://www.w3.org/2000/svg" width="78.086" height="32.405" viewBox="0 0 78.086 32.405"><g transform="translate(-40.6 -163.1)"><path d="M42.968,224.625H40.6v-24.8a20.02,20.02,0,0,1,5.855-.932,10.506,10.506,0,0,1,3.785.653,8.375,8.375,0,0,1,2.927,1.809,7.609,7.609,0,0,1,1.865,2.778,9.263,9.263,0,0,1,.653,3.487,9.084,9.084,0,0,1-.783,3.934,7.942,7.942,0,0,1-2.07,2.7,8.193,8.193,0,0,1-2.927,1.548,11.349,11.349,0,0,1-3.356.5,11.636,11.636,0,0,1-1.809-.131c-.6-.093-1.193-.224-1.771-.373Zm10.012-17.06a6.951,6.951,0,0,0-1.659-4.81,6,6,0,0,0-4.661-1.827,15.947,15.947,0,0,0-1.883.112,8.518,8.518,0,0,0-1.809.429v12.1a17.539,17.539,0,0,0,1.7.466,7.4,7.4,0,0,0,1.7.186,6.636,6.636,0,0,0,4.829-1.734A6.481,6.481,0,0,0,52.98,207.565Z" transform="translate(0 -29.12)" fill="#787da7"/><path d="M147.1,187.022V163.1h2.387V187H147.1Z" transform="translate(-86.643)" fill="#787da7"/><path d="M200.431,213.486a8.021,8.021,0,0,1-2.759,1.958,9.61,9.61,0,0,1-3.785.671,8.555,8.555,0,0,1-3.6-.709,6.96,6.96,0,0,1-2.554-1.9,7.794,7.794,0,0,1-1.529-2.741,10.1,10.1,0,0,1-.522-3.244,11.181,11.181,0,0,1,.615-3.915,7.8,7.8,0,0,1,1.678-2.759,6.829,6.829,0,0,1,2.461-1.622,8.491,8.491,0,0,1,2.965-.522,6.911,6.911,0,0,1,5.668,2.312q1.9,2.293,1.846,6.712H188.106a6.951,6.951,0,0,0,1.678,4.605,5.534,5.534,0,0,0,4.27,1.715,6.939,6.939,0,0,0,2.741-.5,6.064,6.064,0,0,0,2.219-1.585Zm-1.92-7.756a6.448,6.448,0,0,0-.317-1.976,4.557,4.557,0,0,0-.914-1.566,4.139,4.139,0,0,0-1.548-1.044,6.535,6.535,0,0,0-4.456,0,4.065,4.065,0,0,0-1.492,1.007,6.493,6.493,0,0,0-1.007,1.548,6.389,6.389,0,0,0-.6,2.032Z" transform="translate(-118.028 -28.962)" fill="#787da7"/><path d="M302.975,202.358a5.937,5.937,0,0,0-1.939-1.659,5.141,5.141,0,0,0-2.461-.522,3.9,3.9,0,0,0-2.554.653,2.052,2.052,0,0,0-.727,1.641,1.952,1.952,0,0,0,.336,1.156,2.892,2.892,0,0,0,.895.82,6.706,6.706,0,0,0,1.287.6c.485.168.988.336,1.529.5.653.205,1.286.429,1.939.671a7,7,0,0,1,1.771.932,4.745,4.745,0,0,1,1.305,1.417,4.1,4.1,0,0,1,.5,2.107,4.318,4.318,0,0,1-.5,2.088,4.723,4.723,0,0,1-1.361,1.548,5.966,5.966,0,0,1-2.032.951,10.024,10.024,0,0,1-6.1-.336,8.447,8.447,0,0,1-2.965-2.2l1.865-1.641a5.826,5.826,0,0,0,4.829,2.387,4.685,4.685,0,0,0,2.871-.727,2.164,2.164,0,0,0,.932-1.734,2.381,2.381,0,0,0-.336-1.324,3.112,3.112,0,0,0-.932-.914,6.035,6.035,0,0,0-1.361-.634q-.783-.252-1.622-.5c-.653-.186-1.286-.392-1.92-.615a6.665,6.665,0,0,1-1.7-.876,3.9,3.9,0,0,1-1.715-3.431,4.078,4.078,0,0,1,1.641-3.487,6.945,6.945,0,0,1,4.27-1.231,8.322,8.322,0,0,1,3.3.634,7.841,7.841,0,0,1,2.778,2.163l-1.753,1.6Z" transform="translate(-204.445 -28.388)" fill="#787da7"/><path d="M385.3,187.184V163.3h2.387v23.884Zm2.405-8.819,8.2-8.278h3.207l-8.409,8.2,8.372,8.875H395.76Z" transform="translate(-280.43 -0.163)" fill="#787da7"/><path d="M128.894,327.056H114.5V324.8h14.394Z" transform="translate(-60.121 -131.551)" fill="#787da7"/></g></svg>