<svg xmlns="http://www.w3.org/2000/svg" width="27.364" height="38.481" viewBox="0 0 27.364 38.481"><g transform="translate(-18 -5)"><path d="M41.944,5H21.421A3.425,3.425,0,0,0,18,8.421V40.06a3.425,3.425,0,0,0,3.421,3.421H41.944a3.425,3.425,0,0,0,3.421-3.421V8.421A3.425,3.425,0,0,0,41.944,5ZM32.537,6.71H35.1V9.276H32.537Zm-1.71,0V9.276H28.262V6.71ZM43.654,40.06a1.71,1.71,0,0,1-1.71,1.71H21.421a1.71,1.71,0,0,1-1.71-1.71V8.421a1.71,1.71,0,0,1,1.71-1.71h5.131v3.421a.858.858,0,0,0,.855.855h8.551a.858.858,0,0,0,.855-.855V6.71h5.131a1.71,1.71,0,0,1,1.71,1.71Z" fill="#787da7"/><ellipse cx="0.5" cy="1" rx="0.5" ry="1" transform="translate(40.041 9.433)" fill="#787da7"/><ellipse cx="0.5" cy="1" rx="0.5" ry="1" transform="translate(23.041 9.433)" fill="#787da7"/><ellipse cx="0.5" cy="1" rx="0.5" ry="1" transform="translate(40.041 37.433)" fill="#787da7"/><ellipse cx="0.5" cy="1" rx="0.5" ry="1" transform="translate(23.041 37.433)" fill="#787da7"/><path d="M45.958,25h-17.1a.858.858,0,0,0-.855.855V45.523a.858.858,0,0,0,.855.855h17.1a.858.858,0,0,0,.855-.855V25.855A.858.858,0,0,0,45.958,25ZM45.1,44.668H29.71V26.71H45.1Z" transform="translate(-5.724 -11.449)" fill="#787da7"/><path d="M44.815,43.3a.847.847,0,0,0,1.206,0l2.565-2.565a.856.856,0,0,0-1.21-1.21l-1.1,1.107V35.855a.855.855,0,0,0-1.71,0v4.776l-1.107-1.107a.856.856,0,0,0-1.21,1.21Z" transform="translate(-13.736 -17.173)" fill="#787da7"/><path d="M40.565,59.276H45.7a2.567,2.567,0,0,0,2.565-2.565v-.855a.855.855,0,0,0-1.71,0v.855a.858.858,0,0,1-.855.855H40.565a.858.858,0,0,1-.855-.855v-.855a.855.855,0,0,0-1.71,0v.855A2.567,2.567,0,0,0,40.565,59.276Z" transform="translate(-11.449 -28.622)" fill="#787da7"/></g></svg>