<svg xmlns="http://www.w3.org/2000/svg" width="36" height="35.708" viewBox="0 0 36 35.708"><g transform="translate(0 -1.378)"><g transform="translate(0 1.378)"><g transform="translate(0 0)"><path d="M63.334,1.378A12.646,12.646,0,0,0,50.7,14.009a12.475,12.475,0,0,0,2.724,7.828C55.7,24.7,62.3,31.493,62.575,31.781l.759.781.759-.781c.28-.288,6.878-7.08,9.151-9.946a12.471,12.471,0,0,0,2.721-7.825A12.646,12.646,0,0,0,63.334,1.378Zm8.251,19.141c-1.763,2.223-6.416,7.094-8.251,9-1.835-1.905-6.486-6.775-8.248-9a10.377,10.377,0,0,1-2.265-6.512,10.514,10.514,0,0,1,21.028,0A10.374,10.374,0,0,1,71.585,20.519Z" transform="translate(-45.334 -1.378)" fill="#787da7"/><path d="M106.075,47.88a7.57,7.57,0,1,0,7.57,7.57A7.579,7.579,0,0,0,106.075,47.88Zm0,13.022a5.452,5.452,0,1,1,5.452-5.452A5.459,5.459,0,0,1,106.075,60.9Z" transform="translate(-88.075 -42.956)" fill="#787da7"/><path d="M299.249,45.535l-1.639,1.34a10.525,10.525,0,0,1,2.371,6.643,10.374,10.374,0,0,1-2.263,6.51l1.659,1.316a12.472,12.472,0,0,0,2.721-7.825A12.648,12.648,0,0,0,299.249,45.535Z" transform="translate(-266.098 -40.86)" fill="#787da7"/><path d="M2.849,45.535A12.648,12.648,0,0,0,0,53.518a12.471,12.471,0,0,0,2.721,7.825l1.659-1.316a10.374,10.374,0,0,1-2.263-6.509,10.525,10.525,0,0,1,2.371-6.643Z" transform="translate(0 -40.86)" fill="#787da7"/><rect width="12.706" height="2.118" transform="translate(11.647 33.591)" fill="#787da7"/></g></g></g></svg>