<svg xmlns="http://www.w3.org/2000/svg" width="27.153" height="33.5" viewBox="0 0 27.153 33.5"><g transform="translate(-57.7 -11.4)"><path d="M248.262,66.5h-7.62a.839.839,0,1,0,0,1.677h7.62a.839.839,0,1,0,0-1.677Z" transform="translate(-169.633 -51.328)" fill="#787da7"/><circle cx="0.863" cy="0.863" r="0.863" transform="translate(63.923 15.152)" fill="#787da7"/><path d="M248.262,176.8h-7.62a.842.842,0,0,0,0,1.684h7.62a.842.842,0,1,0,0-1.684Z" transform="translate(-169.633 -154.076)" fill="#787da7"/><circle cx="0.863" cy="0.863" r="0.863" transform="translate(63.923 22.704)" fill="#787da7"/><path d="M57.7,30.906v.418a4.408,4.408,0,0,0,4.4,4.4H80.451a4.408,4.408,0,0,0,4.4-4.4v-.418a4.411,4.411,0,0,0-1.828-3.567,4.392,4.392,0,0,0,1.828-3.567v-.418a4.411,4.411,0,0,0-1.828-3.567,4.392,4.392,0,0,0,1.828-3.567V15.8a4.408,4.408,0,0,0-4.4-4.4H62.1a4.408,4.408,0,0,0-4.4,4.4v.418a4.411,4.411,0,0,0,1.828,3.567A4.392,4.392,0,0,0,57.7,23.354v.418a4.411,4.411,0,0,0,1.828,3.567A4.392,4.392,0,0,0,57.7,30.906ZM59.377,16.22V15.8A2.728,2.728,0,0,1,62.1,13.077H80.451A2.728,2.728,0,0,1,83.176,15.8v.418a2.728,2.728,0,0,1-2.725,2.725H62.1A2.719,2.719,0,0,1,59.377,16.22Zm0,7.552v-.418A2.728,2.728,0,0,1,62.1,20.629H80.451a2.728,2.728,0,0,1,2.725,2.725v.418A2.728,2.728,0,0,1,80.451,26.5H62.1A2.719,2.719,0,0,1,59.377,23.772Zm0,7.134A2.728,2.728,0,0,1,62.1,28.181H80.451a2.728,2.728,0,0,1,2.725,2.725v.418a2.728,2.728,0,0,1-2.725,2.725H62.1a2.728,2.728,0,0,1-2.725-2.725Z" fill="#787da7"/><path d="M240.642,288.684h7.62a.842.842,0,0,0,0-1.684h-7.62a.842.842,0,0,0,0,1.684Z" transform="translate(-169.633 -256.731)" fill="#787da7"/><circle cx="0.863" cy="0.863" r="0.863" transform="translate(63.923 30.255)" fill="#787da7"/><path d="M96.242,387.5a.842.842,0,0,0-.842.842v1.746a2.635,2.635,0,0,0-1.671,1.671H85.342a.842.842,0,1,0,0,1.684h8.387a2.65,2.65,0,0,0,5.025,0h8.387a.842.842,0,1,0,0-1.684H98.754a2.635,2.635,0,0,0-1.671-1.671v-1.746A.846.846,0,0,0,96.242,387.5Zm0,6.066a.972.972,0,1,1,.972-.972A.976.976,0,0,1,96.242,393.566Z" transform="translate(-24.965 -350.35)" fill="#787da7"/></g></svg>