<svg xmlns="http://www.w3.org/2000/svg" width="38.56" height="38.56" viewBox="0 0 38.56 38.56"><g transform="translate(-10 -10)"><path d="M29.28,48.56A19.28,19.28,0,1,1,48.56,29.28,19.3,19.3,0,0,1,29.28,48.56Zm0-36.065A16.783,16.783,0,1,0,46.061,29.28,16.806,16.806,0,0,0,29.28,12.495Z" fill="#787da7"/><path d="M451.2,684.2a2.2,2.2,0,0,0,4.407,0h0a2.2,2.2,0,1,0-4.407,0Z" transform="translate(-423.84 -645.559)" fill="#787da7"/><path d="M147.7,146.639c.342-.024.685-.039,1.035-.039a14.973,14.973,0,0,1,1.889.126v6.252h-.134a8.391,8.391,0,0,0-1.759-.189,8.212,8.212,0,0,0-1.035.067v-6.217Zm-7.4,15.168c0,.055-5.9.055-5.9,0,0-.4.031-2.2.063-2.593l5.93-.051C140.333,159.557,140.3,161.406,140.3,161.807Zm3.734-7.59a8.6,8.6,0,0,0-2.125,1.991l-4.261-4.348a14.265,14.265,0,0,1,2.074-2.062l4.32,4.411Zm5.04,19.26a3.605,3.605,0,0,1-3.608-3.608,3.46,3.46,0,0,1,2.018-3.321l1.554-12.111,1.668,12.374a2.985,2.985,0,0,1,1.979,3.061A3.61,3.61,0,0,1,149.072,173.478Zm4.446-19.162,4.34-4.426a14.437,14.437,0,0,1,2.046,2.085l-4.324,4.415A8.26,8.26,0,0,0,153.518,154.316Zm3.51,7.519a20.731,20.731,0,0,0-.142-2.38l6.087-.012c.051.48.09,1.9.09,2.392C163.064,161.89,157.028,161.89,157.028,161.835Z" transform="translate(-119.505 -131.225)" fill="#787da7"/></g></svg>