<svg xmlns="http://www.w3.org/2000/svg" width="44.51" height="20.425" viewBox="0 0 44.51 20.425"><g transform="translate(-0.3 -13.1)"><path d="M43.874,13.1H1.236a1.006,1.006,0,0,0-.936.936V28.93a1.006,1.006,0,0,0,.936.936H3.96v2.723a1.006,1.006,0,0,0,.936.936H40.214a1.006,1.006,0,0,0,.936-.936V29.866h2.723a1.006,1.006,0,0,0,.936-.936V14.121A1.022,1.022,0,0,0,43.874,13.1Zm-.936,14.979H40.214a1.006,1.006,0,0,0-.936.936v2.723h-3.66V30.8a1.006,1.006,0,0,0-.936-.936,1.084,1.084,0,0,0-.936.936v.936H31.789V30.8a1.006,1.006,0,0,0-.936-.936,1.084,1.084,0,0,0-.936.936v.936H27.959V30.8a1.006,1.006,0,0,0-.936-.936,1.084,1.084,0,0,0-.936.936v.936H24.47V30.8a1.006,1.006,0,0,0-.936-.936,1.084,1.084,0,0,0-.936.936v.936H20.47V30.8a1.006,1.006,0,0,0-.936-.936,1.084,1.084,0,0,0-.936.936v.936h-3.4V30.8a1.006,1.006,0,0,0-.936-.936,1.084,1.084,0,0,0-.936.936v.936H11.364V30.8a1.006,1.006,0,0,0-.936-.936,1.088,1.088,0,0,0-1.021.936v.936H5.832V28.845a1.006,1.006,0,0,0-.936-.936H2.172V15.057H42.938Z" fill="#787da7"/><path d="M7.664,25.132A1.006,1.006,0,0,0,8.6,24.2V21.472h1.957V24.2a1.006,1.006,0,0,0,.936.936,1.084,1.084,0,0,0,.936-.936v-3.66a1.006,1.006,0,0,0-.936-.936H7.664a.976.976,0,0,0-.766.936V24.2C6.813,24.877,7.153,25.132,7.664,25.132Zm27.915,0a1.006,1.006,0,0,0,.936-.936V21.472h1.957V24.2a1.006,1.006,0,0,0,.936.936,1.084,1.084,0,0,0,.936-.936v-3.66a1.006,1.006,0,0,0-.936-.936h-3.66a1.006,1.006,0,0,0-.936.936V24.2c-.255.681.255.936.766.936Zm-9.362,0a1.006,1.006,0,0,0,.936-.936V21.472H29.11V24.2a1.006,1.006,0,0,0,.936.936,1.084,1.084,0,0,0,.936-.936v-3.66a1.006,1.006,0,0,0-.936-.936h-3.66c-.681.17-1.106.511-1.106.936V24.2a.888.888,0,0,0,.936.936Zm-9.276,0a1.006,1.006,0,0,0,.936-.936V21.472h1.957V24.2a1.006,1.006,0,0,0,.936.936,1.084,1.084,0,0,0,.936-.936v-3.66a1.006,1.006,0,0,0-.936-.936H16.94a.976.976,0,0,0-.766.936V24.2C16.174,24.877,16.515,25.132,16.94,25.132Z" transform="translate(-0.981 -0.968)" fill="#787da7"/></g></svg>