<svg xmlns="http://www.w3.org/2000/svg" width="37" height="37" viewBox="0 0 37 37"><path d="M180.16,168.935H168.936v11.224H180.16V168.935Zm-2.289,8.936h-6.647v-6.647h6.647Z" transform="translate(-156.048 -156.047)" fill="#787da7"/><path d="M37,13.117V10.829H29.94V7.06H26.152V0H23.863V7.06H19.644V0H17.356V7.06H13.137V0H10.848V7.06H7.06v3.769H0v2.289H7.06v4.219H0v2.289H7.06v4.219H0v2.289H7.06V29.94h3.788V37h2.289V29.94h4.219V37h2.289V29.94h4.219V37h2.289V29.94H29.94V26.132H37V23.844H29.94V19.625H37V17.336H29.94V13.117H37ZM27.651,27.651H9.349V9.349h18.3Z" fill="#787da7"/></svg>